<svg xmlns="http://www.w3.org/2000/svg" viewBox="8.5 366 786 400" style="enable-background:new 8.5 366 786 400"><defs><radialGradient id="0" cx="401.5" cy="566" r="311.8" gradientTransform="matrix(1 0 0 .7 0 169.8)" gradientUnits="userSpaceOnUse"><stop style="stop-color:#2b0000"/><stop offset=".53" style="stop-color:#290000"/><stop offset=".72" style="stop-color:#200"/><stop offset=".86" style="stop-color:#170000"/><stop offset=".97" style="stop-color:#060000"/><stop offset="1"/></radialGradient></defs><path d="m8.5 366h786v400h-786z" style="fill:url(#0)"/><g style="fill:#fff"><path d="m690.2 433.3c4.7-2.1 9.3-.4 13.9.8.9.6 1.8 1.2 2.8 1.8.4 4.7 1.6 9.2 2.1 13.9-3.6 4.4-8.2 7.7-14 8.3-2.7.4-5.3 1.1-8 1-.1-2.3-.6-4.6-.9-6.9 3.8-2.2 8.5-2 12.7-3.4-.2-2.9-.5-5.8-1-8.7-4.6.9-9 2.7-13.7 2.9-1.3-2.1-1.5-4.6-2.3-6.9.2-.3.8-.8 1-1.1 2.6-.3 5-.9 7.4-1.7"/><path d="m677.5 435.9c2.8 1.4 2.6 5.3 3.4 8-4.3 1.7-9 2.1-13.5 3.3.2 1.6.5 3.1.6 4.7-1.9 1.1-4 1.8-6.2 2.1-3.7.9-2.8-3.6-3.8-5.9 0-.7 0-2.1 0-2.8 1.8-1.6 3.5-3.3 5.3-5 4.3-2.6 9.8-2 14.2-4.4"/><path d="m629.4 447.3c4.5-1.5 9.4-1.4 13.8.4 2.3.2 2.9 2.7 3.8 4.4.7 3.3-.6 5.4-3.9 5.9-1.5 0-3 0-4.5-.2-.2-1.3-.4-2.6-.7-3.8-4.7.5-9.1 2.3-13.7 2.9-.7-2.9-3.5-7.1-.2-9 1.8.1 3.6.1 5.4-.6"/><path d="m601.7 455.7c4-4.4 10.5-3.5 15.6-5.8 3.4.5 1.5 6.1 2.6 7.9-3.7 1.3-7.8 1.6-11.6 2.5-3.5 1.3 1.1 6.6-.2 8.7 4.7-.4 9.2-2 13.7-3 1.5 2.3 1.8 5.1 2.1 7.7-4.1 1.7-8.7 2.1-12.9 3.4-.1 2.6.7 5.2 1.2 7.8 4.6-.2 9.1-2 13.6-2.9 1.9 2.4 2.6 6.3 1.1 9.1-7.5.5-16.1 3.5-22.7-1.5-1.9-8.7-4.1-17.4-5.8-26.1-2.4-3.8 1.4-5.5 3.3-7.8"/><path d="m666.2 456.9c5.3-2.1 10.9-3.5 16.6-3.8.7 1.6 1.1 3.3 1.4 5-.1.7-.3 2-.4 2.7-4.2.9-8.5 1.7-12.7 2.5-.1 2.6.7 5.1 1.2 7.7 4.6-.2 9-1.6 13.5-1.9 1.6 2.2 1.6 5.1 2.2 7.7-7.3 1-14.4 4.6-21.9 4.2-2.6-3.8-2.2-8.9-3.9-13.1-1.2-4.7.7-8.1 4-11"/><path d="m626 465.2c5.6-.7 11.2-3.9 16.9-2.6 2.1.7 4.2 1.4 6.3 2.1.6 2 1.2 4 2 5.9.4 2.3 1.1 6.8 1.5 9.1-2.4 2.6-5.2 4.8-7.9 7.1-.4.1-1.2.2-1.6.2-4 .3-7.9 1.7-11.9 1.8-.5-2.5-1.4-5.1-1.2-7.7 4.2-1.5 9-1.3 12.9-3.4.2-2.6-.6-5.4-2-7.6-4.3.8-8.4 2.4-12.8 2.7-1.6-2.1-1.8-4.9-2.2-7.6"/><path d="m699.2 465.3c4.6-1.1 9.7-2.9 14.3-1.2-.2 2.2.4 4.4.4 6.7-3.4.6-6.8 1.4-10.2 2.3-2 .5-4 .9-5.8 2-1.7 0-5.1-.1-6.8-.1-.4-2.7-1-5-1.1-7.6 3.1-.7 6.1-1.4 9.2-2.1"/><path d="m544.7 466.7c3-1.2 6.1-.1 9.1.7.5.2 1.6.6 2.1.8 1 .9 2 1.8 2.9 2.9.2 2 .8 4.1.5 6.2-1.8.5-3.7.9-5.6 1.4-.5.1-1.4.4-1.9.5-1.5-1.1-1.5-3.3-2.2-4.9-3.3.5-6.6 1.6-9.8 2.5-1.2.1-2.4.2-3.7.2-.6-2.5-1.1-5.1-1-7.6 2.9-.9 5.8-1.5 8.7-2.4l.9-.3"/><path d="m510.2 479.3c4.5-7.2 13.1-7.5 20.6-9.2 1 2.5 1.6 5.1 2.1 7.7-4.1 1.6-8.7 1.9-12.8 3.3 0 2.6-1.4 6 1.1 7.8 4.6.2 8.9-2.1 13.6-1.8.6 1.6 1 3.2 1.3 4.9 0 .7-.1 2.2-.1 2.9-4.4.5-8.6 1.6-12.9 2.4.1 2.7.6 5 1 7.8 4.9-.1 9.6-2.1 14.6-1.9.5 2.1 1 4.2 1.7 6.3-.8 1.9-3.1 1.6-4.8 2.3-2.7.3-5.3.9-7.8 1.9h-.7c-2.6-.7-5.2-1.5-7.8-1.9-.6-.2-1.7-.6-2.3-.7-1.9-4.9-2.4-10.2-3.7-15.3-1.3-5.5-3.1-10.9-3.1-16.5"/><path d="m495.9 478.1c.5 0 1.5 0 2 0 2.9 13.3 5.8 26.6 9.1 39.8-2 2-5.2 1.5-7.9 2.2-2.9-9.8-4.3-20.1-7.2-29.9-5.1 1.2-8.4 7-13.6 8-.4-2.9-1-5.9-1.1-8.9 6-4.1 10.8-10.8 18.7-11.2"/><path d="m545.1 483.9c2.6-.4 5.2-1.2 7.9-1.6 2 .6 4 1.5 6.2 1.6 4 1.2 3.3 6.2 4.7 9.3.5 2.1 1.1 4.3 1.1 6.5-1.1 1-2.2 2-3.3 3.1-1 .9-1.8 1.9-2.7 2.9-3.4 1.8-7.4 2-11 3.2-3.6.5-7.1.1-5.8-5.2 0-.7 0-2 0-2.6 4.2-1 8.5-1.6 12.8-2.5.5-2.5.2-4.9-1-7-1.3 0-3.9-.1-5.2-.1-2.3.4-4.7.9-6.9 1.6-2.9-.2-3-3.3-3.8-5.4-1.1-4.1 4.5-2.7 7-3.8"/><path d="m579 497.3c4.7-.8 9.2-2.2 13.9-3.1 1.3.8 1.1 2.3 1.1 3.6-2.6 2-6.2 1.8-9.1 2.8-1.8.3-3.5.6-5.2 1.2-3.7 1.6-3.5-3.8-.7-4.5"/><path d="m466.1 497c2.4-1.4 5.2-.9 7.9-1 .5 0 1.5 0 2 .1-3.8 10.5-6.9 21.3-10.3 31.9-1.3.1-2.9.4-3.5-1.2-.6-3.9-2.1-7.8-2.3-11.7 2.3-6.1 4.4-12 6.2-18.1"/><path d="m438.4 502.4c5.8-1.6 8.4 6.9 13 9.2 6.8 3.3 6.6 12 7.6 18.5-3 .5-4.9-2.5-6.8-4.3-6.3-6.4-12.7-12.7-19-19-.5-2.7 3.8-2.6 5.2-4.4"/><path d="m352 511.7c2.9-.7 5.8-1.8 8.9-1.7.6 2.2 1.7 6.7 2.3 8.9 3.5-.6 7-1.7 10.6-2 .3 1.1.6 2.2.9 3.3 1.3 5.6-6.9 3.3-9.7 5.9.7 8 4 15.6 4.9 23.7-2.3.9-4.6 1.4-7 2.1-.5 0-1.4 0-1.9-.1-2.1-12.5-5.6-24.7-8.2-37.1-.1-1-.4-2-.8-3"/><path d="m377 515.9c3.6-1.2 7.3-2 11-2.6 3.3 1 7.1 1.5 9.7 4 1.5 8.5 4.3 16.9 5.3 25.5-2.9.6-5.8 1.4-8.8 1.3-1.7-8-3.3-16-5.4-23.9-3.5.7-6.9 1.8-10.5 1.8-.6-1.3-1.1-2.7-1.6-4.1.1-.6.2-1.5.3-2"/><path d="m331.3 526.4c3.7-.9 7 .9 10.4 1.9 1.7 1.2 1.7 3.7 2.3 5.6-3.5 0-8.9 4.3-10.2-.8-3.3-.1-6.3 2-9.6 1.9-1.6-1.9-1.4-4.5-2.1-6.7 3.1-.5 6.1-1.3 9.2-1.9"/><path d="m313.4 530.5c3.7-2.4 9.4.5 6.7 5.5-3.3.8-6.6 1.6-10 2.2 1.3 5.5 1.6 11.7 4.2 16.7 3.3.1 6.3-2 9.6-1.9 1.6 1.8 1.5 4.5 2.1 6.8-3.1 2.2-7.4 1.6-10.9 2.9-3.3-.7-6.6-1.5-9.7-3-1-7-3.4-13.7-4.3-20.7 1.9-4.7 7.2-8 12.3-8.5"/><path d="m427.4 532.5c5.9-4.2 4.6.8 4.6 3.3-5.6 1.1-11.1 2.9-16.9 3.2-.1-1.3-.1-2.6.1-3.9 3.9-1 8-1.8 12.2-2.6"/><path d="m279.8 538.1c3 .9 6.1 1.9 9 3.1 2.1 8.9 4.7 17.7 6.2 26.6-6.4.8-12.6 2.4-18.9 3.9-2.1-1.8-1.4-5-2-7.5 3.3-.7 6.6-1.4 9.9-2.2 0-1.7.5-3.8-1.2-4.9-3.5 0-7 .3-10.5.8-.4-1.6-.9-3.2-1.2-4.8 3.5-2.2 13.3.7 9.8-6.9-3-3.2-8.7 3.5-11.7-.4-3.1-7.7 6.7-6 10.6-7.7"/><path d="m261.3 542.5c5.4-4.3 6.2 3.2 4.9 5.8-2.1 2.3-12.4-.3-9.3 5.6-2.2.5-6.6 1.5-8.8 2-3.6-4.8 1.6-8.6 5.1-11.5 2.8-.7 5.4-1.4 8.1-1.9"/><path d="m345.3 545.4c3.1-.2 2.7 5.9 0 6.9-3.6 5.2-10.1 6.8-16.1 6.6-.6-2.3-1.4-4.5-1.2-6.9 3-2.1 10.4.3 10.3-4.8 2.3-.7 4.6-1.2 7-1.8"/><path d="m215.1 553.2c6.8-2 14.6-3.4 20.6 1.1.7 2.2 1.4 4.3 2 6.5-3.2 7.4-11.2 9.2-18.4 10.1-.4-1.1-.9-2.3-1.4-3.4 0-6.2 14.2.1 10.1-9.6-3.7.1-7.3 1.1-11 1.8-1.4-1.9-1.2-4.4-1.9-6.5"/><path d="m175.9 552.1l1.1-.2c2.8 13.7 7.1 27.2 9 40.9-2.9.4-5.8.9-8.8 1.1-3.1-12.4-5.7-25.1-8.6-37.6-2.7-4.4 5.3-2.7 7.3-4.2"/><path d="m201.3 556.4c3.6-.7 7-1.9 10.7-2.2.4 2.2 1.1 4.3 1 6.6-3.3.7-6.7 1.5-10 2.3-.2 1.9.3 3.9 1.1 5.6 3.7.2 11.2-4.6 11.7 1.6.1.4.1 1.1.2 1.5-3.3.8-6.7 1.1-9.9 2.4-3.4 9.4 4.4 4.2 8.9 3.8 3.8-.6 3.2 4.2 3.8 6.9-6.7 2.7-14 2.8-20.5-.2-1.5-7.5-4.4-14.8-4.1-22.5 2.3-2 4.6-4 7.1-5.8"/><path d="m266.8 554.2c2.2-.1 2.2 3.9 2.2 5.7-3 1.3-7.3-.1-9.9 2.3-.4 1.7.5 3.2 1.1 4.7 3.6.4 7.1-1.4 10.6-1.9.6 2.6 1.1 5 1.1 7.8-5.3.8-11.3 4.1-16.2.6-3.7-.1-6.5-2.2-5.3-6.7-3.4-5 2.1-4.8 3.6-7.6 3.1-4 8.4-3.9 12.8-4.9"/><path d="m118.3 565.4c5.6-2.4 5 5.2 5.9 8.6 3.4.3 6.5-1.5 9.8-1.9 3.2.3 2 4.3 2 6.8-3.2.9-7.3 0-9.9 2.3 1.6 5.2 1.7 11 4.1 15.7 3.6-.3 7.1-.6 10.7-.9.4 2.2.7 4.5 1 6.8-6.6 1.1-13.1 3.5-19.8 4.2-1.4-12.4-5.5-24.2-7.6-36.4-3.8-5.6 1.4-4.2 3.8-5.2"/><path d="m145.4 569.4c4.5-1.2 9.6.5 13.4 2.8 1.1 6.9 4.2 13.6 4.2 20.7-3 7-10.6 7.2-16.9 8.8-1.5-2.2-2.3-4.9-2-7.6 3.4-.7 6.7-1.4 10-2.2-.6-5.4-2.6-10.5-3.3-15.9-3.9-.1-7.7.7-11.6.9-.3-2-.7-3.9-1.1-5.8 2.5-.1 4.9-.9 7.3-1.7"/><path d="m238.9 570.1l1.1-.2c2.1 5.6-3.1 8.5-6.3 11.8-3.8.8-7.6 2.2-11.6 2.3-.5-2.5-1.2-5.3-1.1-7.8 2.4-1.9 9.9 1.1 9.2-4 2.2-.6 6.5-1.6 8.7-2.1"/><path d="m101 584c.3-.3.8-.9 1.1-1.2 2.5-.1 1.6 2.6 1.9 4.2-.4 2.4 4.5-.5 3.9 2.1.7 2.4-2 2.9-3.7 3.3-1.2 1.7-1.5 3.7-1.3 5.7 2.7 0 8.4-3.3 7 1.8-1.9.5-5.9 1.7-7.8 2.2 4.2 4.4-6.9 12.3-3.2 1.9.4-2.1-2.7-.7-3.8-.9-2.6 2.2-.2 9-5.1 7.9 4.7-7.7-4.7-4.1-4-8.8 2.7-1.5 8.1-.4 4.9-6.2.3-3-6.9 2.7-7 0-1.7-6.9 12.4-.7 8-10-.3-2 2.8-.6 4-1-.4 1.6-1 3.2-1.1 5 3.4.3 9-.8 6.2-6m-3.7 9.3c-2.4 1.3-6 2.5-3.2 6.8 2-.1 3.9-.8 5.9-1.3.5-3.1 1.2-7.4-2.7-5.5z"/></g><g style="fill:#9b0000;stroke:#9b0000;stroke-width:2"><path d="m707.8 536l4-6.1.2 2 3 5-4.2 4-1.5 3.1-1.1-3.2-5.6.9-.8.3h-3.7-.9l-1.3-2 5.2-8 3 6 3.7-2z"/><path d="m662 538.2l11.8-3.5 7.3 9.2.8 2 5.8 24.3.3 2.6-7.9 1.1-2.3-8-9.9 1-.9-4.8 5.2-1.8 2.7-.6-2.7-16-7 .5-2.1-.2-1.1-5.8z"/><path d="m639.9 552.1l16-13 .4 7.2-8.3 5.7 4.2 12.8 4.5-1.1 5.2.4-2.2 4.7-7.5 1.7-8.5-2.5-3.8-15.9z"/><path d="m693 542.1l2.9-2 1.3 2h-4.2z"/><path d="m708.2 540.8l1.1 3.2 1.5-3.1 1.1 3 6 2.9-7.1 2.9-3.4 4-5.1-3.6-4 6.2-3.3-4.3 1.1-3.9 2.1-6.1h3.7l1.3 4.6 4.7-.9.3-4.9z"/><path d="m619.9 547.7l5.9 4.5 2.2 7.8 2.1 8 2 8.1.2.8-.4 9-7.9-.8-6.2-32 2.1-5.4z"/><path d="m584 558.2l17.1-3.3 4.6 9.4 2.2 8-2.7 7.9-14 4.7.9-5.7 7.8-2.3-1.9-4.9-3.8.2-6.1-.2-.2-4 7.9-6.7-5.8.1-6.1-1.2.1-2z"/><path d="m568 558.9l11.2-2.1 1.1 1-4.3 6.2-4.1 1.7-4.9 3.4-4-.3 5-9.9z"/><path d="m531.8 566.8l4.1-.9h8.1l6.2 2v11.1l-16 6.9-.2-5.9 7.1-1 1.3-5.3-10.4.3-.2-7.2z"/><path d="m511.7 571.8l14.1-1.7.3 5.9-5 .9-4.3 5.1 1.3-6.9-5.9-2.5-.5-.8z"/><path d="m568.5 574.3l10.3-4.7 4.3 5.3-9 1.2-.2 4 7.1.9 4 .1-1.8 7.1-11.1-.1-5.9-11.9 2.3-1.9z"/><path d="m510.1 583.9l2-11.2 5.9 2.5-1.3 6.9 7.5 1.2 5.9-1.2-.3 4.8-4.6 1.3-5.1 5.6h12.2l-3.3 6.4-.8.2-8.2-.2-7.8-7.2-.1-.8-2-8.3z"/><path d="m477.2 580.2l9.8-2.1 10.9 7.9 1.8 15.7-5.7 6.3-9.8.9-1.2-4.7 8.9-2.4-1.8-9.8-2.4-6.7-9.3.5-1.3-4 .1-1.6z"/><path d="m466.1 582.2l.7-.3 6.2.2-3 6.9-6.1 2.9h-9.7l6.9-7.9 5-1.8z"/><path d="m544.8 588.9l9.2-1-9.7 8.5-6.3-4.4 5.2-2 1.6-1.1z"/><path d="m434.2 590.1l7.6 5.1 2.2 11.7 3.7 14.4.6 2.9-5.2 4.8-3-7.2-10 .2.9-5.9 7-4-3.9-14.9.1-7.1z"/><path d="m536.1 592.1h1.9l6.3 4.4-8.3.5.1-4.9z"/><path d="m399.4 600.1l8.6-1.3 1.7 9.4 5.4 12.3 6.6-1.5 1.3 5-5.9 1.3-9.5-1.3-2.8-.2-1.2-5.7-1.6-6.4-2.6-11.6z"/><path d="m520 600.1l8.2.2-8.2-.2z"/><path d="m378.2 603.2l2.8-1.2 5.1.1-4.3 3.8-4.6 1.3-6.3-2 7.3-2z"/><path d="m459 607.1l7.9-2.2.9 1.5.6 1.6 9.7-2.3.6 4.2-6.8 3-10-.8-2.9-5z"/><path d="m344.2 611.9l6.9 4.1.9.9 7.9 7.2 7.1 8.9-6.9 3-15.1-16.1-1.5-4.7.7-3.3z"/><path d="m336 613.8l4.2 2-1.2 18.4-3 7.9-7.1-1.2 3.8-16.1 2.2-7.9 1.1-3.1z"/><path d="m296 624l8-1.2.1 2.9 6 25.2 12.6-5.9 1.3 5.9-19.8 11.1-.4-2.1-2.2-6.8-1.5-11.4-.5-2.8-1.6-6-.2-.8-2-6.5.2-1.6z"/><path d="m407.8 624.1l9.5 1.3-9.5-1.3z"/><path d="m296 625.8l2 6.5-2-6.5z"/><path d="m262.7 632.2l18.9-3.8 6.2 11.6 1.2 5.8 1.9 13.1-12 9.3-8-.3-1.3-6 7.3-.9 7-4.1-3.2-7.8-8.9 3-5-3.1 6.1-4.9.7-.2h5l.5-4.6-3.3-4.4-5.8 1.4-7.7-3.3.4-.8z"/><path d="m244.9 633.9l13.4 3.3-2.4 2.8-4.9.1-4.5 2.6 1.8 7.2 6.7-1.7 7 2-3.9 6h-13.1l-5.1-3.1-.2-1.8-1.9-7.6.2-3.1 6.9-6.7z"/><path d="m298.2 633l1.6 6-1.6-6z"/><path d="m216.8 639.9l8.5.5-3.5 2.6-8.6 2.1-5.2-.2 3.2-4.8 5.6-.2z"/><path d="m300.2 641.8l1.5 11.4-1.7-10.2.2-1.2z"/><path d="m182.9 647.7l11.7 1.7 5.2 10.8 1.1 5.7 2.9 11.3-2.6 5.8-8.4 4.9-2.9.2h-.8l-6.7-2.3 1.6-3.9 7.1-1.8-1.2-8.3-4 .1 7.8-2.8 5.5 11.8 2.9-3-6.1-18.9-4.9 5.7-10.3 1.9.3-.8 4.1-1.9 2.8-.1v-8l-7.7.2-4.2-1.2 6.8-7.1z"/><path d="m154.3 656.4l9.7-3.4 6.9 3.8-2.9 2.2-2.8 1-5 1.2 1.1 8.7 6.8-1.8 5.8.1 1.1 4.6-14.9 4.5-8-4.4-4.7-7.7 6.9-8.8z"/><path d="m190.9 664.9l4.9-5.7 6.2 18.8-2.9 3-5.5-11.8-7.8 2.8-1.7.3-3.5-5.5 10.3-1.9z"/><path d="m127.5 661.3l11.4.9-.2 10.8-6 10.9-3.5 1.4-6.2 3.7-20.8 3.2 2.1 7.7 8.1-.8h4.7l-11 7-10.1-3-.1-1.9.5-14.9 14.6-3.3 5.1 3 3.8-6.2 12.2-2.9-3.2-8.7-13.7-.3 12.3-6.6z"/><path d="m112 669v4.2l-16 2.6-5.4-1.3 8.2-6.5 13.2 1z"/><path d="m245.2 662l.9-.1 8 4.8 5.8-2.7 6.5 2.9-2.8 3.8-12.8 2.5-6.2-1-.9-9.4 1.5-.8z"/><path d="m152 673l8 4.4-8-4.4z"/><path d="m156.1 685.2l5.9-2.3 3.3 3.9 8-2.6 1.6-.6 4.5 5.2-.4 3-16.9 1.8-6-8.4z"/><path d="m132.5 687.8l11.6.1v3l-.1 4v.9l-.8.3-12.2 5-5.9.9-1.3-6.1 10.2-3-1.5-5.1z"/></g><path transform="matrix(.97-.23.23.97-118.9 105.7)" d="m8.5 560.7h786v20.5h-786z"/></svg>