<?xml version="1.0" encoding="utf-8"?>
<!-- Generator: Adobe Illustrator 17.1.0, SVG Export Plug-In . SVG Version: 6.00 Build 0)  -->
<!DOCTYPE svg PUBLIC "-//W3C//DTD SVG 1.1//EN" "http://www.w3.org/Graphics/SVG/1.1/DTD/svg11.dtd">
<svg version="1.1" id="Layer_1" xmlns="http://www.w3.org/2000/svg" xmlns:xlink="http://www.w3.org/1999/xlink" x="0px" y="0px"
	 viewBox="0 0 99 99" style="enable-background:new 0 0 99 99;" xml:space="preserve">
<style type="text/css">
	.st0{fill:#FFFFFF;}
</style>
<rect class="st0" width="99" height="99"/>
<rect x="12" y="12" width="3" height="3"/>
<rect x="15" y="12" width="3" height="3"/>
<rect x="18" y="12" width="3" height="3"/>
<rect x="21" y="12" width="3" height="3"/>
<rect x="24" y="12" width="3" height="3"/>
<rect x="27" y="12" width="3" height="3"/>
<rect x="30" y="12" width="3" height="3"/>
<rect x="36" y="12" width="3" height="3"/>
<rect x="45" y="12" width="3" height="3"/>
<rect x="48" y="12" width="3" height="3"/>
<rect x="54" y="12" width="3" height="3"/>
<rect x="66" y="12" width="3" height="3"/>
<rect x="69" y="12" width="3" height="3"/>
<rect x="72" y="12" width="3" height="3"/>
<rect x="75" y="12" width="3" height="3"/>
<rect x="78" y="12" width="3" height="3"/>
<rect x="81" y="12" width="3" height="3"/>
<rect x="84" y="12" width="3" height="3"/>
<rect x="12" y="15" width="3" height="3"/>
<rect x="30" y="15" width="3" height="3"/>
<rect x="39" y="15" width="3" height="3"/>
<rect x="42" y="15" width="3" height="3"/>
<rect x="45" y="15" width="3" height="3"/>
<rect x="48" y="15" width="3" height="3"/>
<rect x="51" y="15" width="3" height="3"/>
<rect x="54" y="15" width="3" height="3"/>
<rect x="66" y="15" width="3" height="3"/>
<rect x="84" y="15" width="3" height="3"/>
<rect x="12" y="18" width="3" height="3"/>
<rect x="18" y="18" width="3" height="3"/>
<rect x="21" y="18" width="3" height="3"/>
<rect x="24" y="18" width="3" height="3"/>
<rect x="30" y="18" width="3" height="3"/>
<rect x="36" y="18" width="3" height="3"/>
<rect x="48" y="18" width="3" height="3"/>
<rect x="51" y="18" width="3" height="3"/>
<rect x="57" y="18" width="3" height="3"/>
<rect x="66" y="18" width="3" height="3"/>
<rect x="72" y="18" width="3" height="3"/>
<rect x="75" y="18" width="3" height="3"/>
<rect x="78" y="18" width="3" height="3"/>
<rect x="84" y="18" width="3" height="3"/>
<rect x="12" y="21" width="3" height="3"/>
<rect x="18" y="21" width="3" height="3"/>
<rect x="21" y="21" width="3" height="3"/>
<rect x="24" y="21" width="3" height="3"/>
<rect x="30" y="21" width="3" height="3"/>
<rect x="36" y="21" width="3" height="3"/>
<rect x="39" y="21" width="3" height="3"/>
<rect x="45" y="21" width="3" height="3"/>
<rect x="48" y="21" width="3" height="3"/>
<rect x="51" y="21" width="3" height="3"/>
<rect x="57" y="21" width="3" height="3"/>
<rect x="60" y="21" width="3" height="3"/>
<rect x="66" y="21" width="3" height="3"/>
<rect x="72" y="21" width="3" height="3"/>
<rect x="75" y="21" width="3" height="3"/>
<rect x="78" y="21" width="3" height="3"/>
<rect x="84" y="21" width="3" height="3"/>
<rect x="12" y="24" width="3" height="3"/>
<rect x="18" y="24" width="3" height="3"/>
<rect x="21" y="24" width="3" height="3"/>
<rect x="24" y="24" width="3" height="3"/>
<rect x="30" y="24" width="3" height="3"/>
<rect x="36" y="24" width="3" height="3"/>
<rect x="39" y="24" width="3" height="3"/>
<rect x="48" y="24" width="3" height="3"/>
<rect x="51" y="24" width="3" height="3"/>
<rect x="54" y="24" width="3" height="3"/>
<rect x="57" y="24" width="3" height="3"/>
<rect x="66" y="24" width="3" height="3"/>
<rect x="72" y="24" width="3" height="3"/>
<rect x="75" y="24" width="3" height="3"/>
<rect x="78" y="24" width="3" height="3"/>
<rect x="84" y="24" width="3" height="3"/>
<rect x="12" y="27" width="3" height="3"/>
<rect x="30" y="27" width="3" height="3"/>
<rect x="39" y="27" width="3" height="3"/>
<rect x="48" y="27" width="3" height="3"/>
<rect x="54" y="27" width="3" height="3"/>
<rect x="60" y="27" width="3" height="3"/>
<rect x="66" y="27" width="3" height="3"/>
<rect x="84" y="27" width="3" height="3"/>
<rect x="12" y="30" width="3" height="3"/>
<rect x="15" y="30" width="3" height="3"/>
<rect x="18" y="30" width="3" height="3"/>
<rect x="21" y="30" width="3" height="3"/>
<rect x="24" y="30" width="3" height="3"/>
<rect x="27" y="30" width="3" height="3"/>
<rect x="30" y="30" width="3" height="3"/>
<rect x="36" y="30" width="3" height="3"/>
<rect x="42" y="30" width="3" height="3"/>
<rect x="48" y="30" width="3" height="3"/>
<rect x="54" y="30" width="3" height="3"/>
<rect x="60" y="30" width="3" height="3"/>
<rect x="66" y="30" width="3" height="3"/>
<rect x="69" y="30" width="3" height="3"/>
<rect x="72" y="30" width="3" height="3"/>
<rect x="75" y="30" width="3" height="3"/>
<rect x="78" y="30" width="3" height="3"/>
<rect x="81" y="30" width="3" height="3"/>
<rect x="84" y="30" width="3" height="3"/>
<rect x="39" y="33" width="3" height="3"/>
<rect x="48" y="33" width="3" height="3"/>
<rect x="54" y="33" width="3" height="3"/>
<rect x="57" y="33" width="3" height="3"/>
<rect x="60" y="33" width="3" height="3"/>
<rect x="12" y="36" width="3" height="3"/>
<rect x="15" y="36" width="3" height="3"/>
<rect x="18" y="36" width="3" height="3"/>
<rect x="21" y="36" width="3" height="3"/>
<rect x="30" y="36" width="3" height="3"/>
<rect x="36" y="36" width="3" height="3"/>
<rect x="45" y="36" width="3" height="3"/>
<rect x="54" y="36" width="3" height="3"/>
<rect x="63" y="36" width="3" height="3"/>
<rect x="72" y="36" width="3" height="3"/>
<rect x="75" y="36" width="3" height="3"/>
<rect x="78" y="36" width="3" height="3"/>
<rect x="84" y="36" width="3" height="3"/>
<rect x="33" y="39" width="3" height="3"/>
<rect x="39" y="39" width="3" height="3"/>
<rect x="45" y="39" width="3" height="3"/>
<rect x="54" y="39" width="3" height="3"/>
<rect x="69" y="39" width="3" height="3"/>
<rect x="81" y="39" width="3" height="3"/>
<rect x="12" y="42" width="3" height="3"/>
<rect x="18" y="42" width="3" height="3"/>
<rect x="21" y="42" width="3" height="3"/>
<rect x="27" y="42" width="3" height="3"/>
<rect x="30" y="42" width="3" height="3"/>
<rect x="33" y="42" width="3" height="3"/>
<rect x="36" y="42" width="3" height="3"/>
<rect x="45" y="42" width="3" height="3"/>
<rect x="48" y="42" width="3" height="3"/>
<rect x="60" y="42" width="3" height="3"/>
<rect x="72" y="42" width="3" height="3"/>
<rect x="12" y="45" width="3" height="3"/>
<rect x="21" y="45" width="3" height="3"/>
<rect x="24" y="45" width="3" height="3"/>
<rect x="27" y="45" width="3" height="3"/>
<rect x="45" y="45" width="3" height="3"/>
<rect x="51" y="45" width="3" height="3"/>
<rect x="60" y="45" width="3" height="3"/>
<rect x="63" y="45" width="3" height="3"/>
<rect x="72" y="45" width="3" height="3"/>
<rect x="75" y="45" width="3" height="3"/>
<rect x="78" y="45" width="3" height="3"/>
<rect x="21" y="48" width="3" height="3"/>
<rect x="24" y="48" width="3" height="3"/>
<rect x="27" y="48" width="3" height="3"/>
<rect x="30" y="48" width="3" height="3"/>
<rect x="39" y="48" width="3" height="3"/>
<rect x="48" y="48" width="3" height="3"/>
<rect x="51" y="48" width="3" height="3"/>
<rect x="54" y="48" width="3" height="3"/>
<rect x="57" y="48" width="3" height="3"/>
<rect x="60" y="48" width="3" height="3"/>
<rect x="63" y="48" width="3" height="3"/>
<rect x="66" y="48" width="3" height="3"/>
<rect x="72" y="48" width="3" height="3"/>
<rect x="78" y="48" width="3" height="3"/>
<rect x="81" y="48" width="3" height="3"/>
<rect x="84" y="48" width="3" height="3"/>
<rect x="15" y="51" width="3" height="3"/>
<rect x="18" y="51" width="3" height="3"/>
<rect x="24" y="51" width="3" height="3"/>
<rect x="36" y="51" width="3" height="3"/>
<rect x="42" y="51" width="3" height="3"/>
<rect x="48" y="51" width="3" height="3"/>
<rect x="57" y="51" width="3" height="3"/>
<rect x="63" y="51" width="3" height="3"/>
<rect x="66" y="51" width="3" height="3"/>
<rect x="69" y="51" width="3" height="3"/>
<rect x="72" y="51" width="3" height="3"/>
<rect x="84" y="51" width="3" height="3"/>
<rect x="15" y="54" width="3" height="3"/>
<rect x="18" y="54" width="3" height="3"/>
<rect x="30" y="54" width="3" height="3"/>
<rect x="39" y="54" width="3" height="3"/>
<rect x="42" y="54" width="3" height="3"/>
<rect x="51" y="54" width="3" height="3"/>
<rect x="54" y="54" width="3" height="3"/>
<rect x="60" y="54" width="3" height="3"/>
<rect x="69" y="54" width="3" height="3"/>
<rect x="72" y="54" width="3" height="3"/>
<rect x="78" y="54" width="3" height="3"/>
<rect x="81" y="54" width="3" height="3"/>
<rect x="12" y="57" width="3" height="3"/>
<rect x="18" y="57" width="3" height="3"/>
<rect x="36" y="57" width="3" height="3"/>
<rect x="39" y="57" width="3" height="3"/>
<rect x="42" y="57" width="3" height="3"/>
<rect x="45" y="57" width="3" height="3"/>
<rect x="54" y="57" width="3" height="3"/>
<rect x="60" y="57" width="3" height="3"/>
<rect x="63" y="57" width="3" height="3"/>
<rect x="66" y="57" width="3" height="3"/>
<rect x="75" y="57" width="3" height="3"/>
<rect x="84" y="57" width="3" height="3"/>
<rect x="18" y="60" width="3" height="3"/>
<rect x="21" y="60" width="3" height="3"/>
<rect x="24" y="60" width="3" height="3"/>
<rect x="30" y="60" width="3" height="3"/>
<rect x="36" y="60" width="3" height="3"/>
<rect x="39" y="60" width="3" height="3"/>
<rect x="51" y="60" width="3" height="3"/>
<rect x="60" y="60" width="3" height="3"/>
<rect x="63" y="60" width="3" height="3"/>
<rect x="66" y="60" width="3" height="3"/>
<rect x="69" y="60" width="3" height="3"/>
<rect x="72" y="60" width="3" height="3"/>
<rect x="75" y="60" width="3" height="3"/>
<rect x="78" y="60" width="3" height="3"/>
<rect x="81" y="60" width="3" height="3"/>
<rect x="84" y="60" width="3" height="3"/>
<rect x="36" y="63" width="3" height="3"/>
<rect x="42" y="63" width="3" height="3"/>
<rect x="45" y="63" width="3" height="3"/>
<rect x="57" y="63" width="3" height="3"/>
<rect x="60" y="63" width="3" height="3"/>
<rect x="72" y="63" width="3" height="3"/>
<rect x="84" y="63" width="3" height="3"/>
<rect x="12" y="66" width="3" height="3"/>
<rect x="15" y="66" width="3" height="3"/>
<rect x="18" y="66" width="3" height="3"/>
<rect x="21" y="66" width="3" height="3"/>
<rect x="24" y="66" width="3" height="3"/>
<rect x="27" y="66" width="3" height="3"/>
<rect x="30" y="66" width="3" height="3"/>
<rect x="48" y="66" width="3" height="3"/>
<rect x="54" y="66" width="3" height="3"/>
<rect x="60" y="66" width="3" height="3"/>
<rect x="66" y="66" width="3" height="3"/>
<rect x="72" y="66" width="3" height="3"/>
<rect x="75" y="66" width="3" height="3"/>
<rect x="78" y="66" width="3" height="3"/>
<rect x="81" y="66" width="3" height="3"/>
<rect x="84" y="66" width="3" height="3"/>
<rect x="12" y="69" width="3" height="3"/>
<rect x="30" y="69" width="3" height="3"/>
<rect x="39" y="69" width="3" height="3"/>
<rect x="42" y="69" width="3" height="3"/>
<rect x="57" y="69" width="3" height="3"/>
<rect x="60" y="69" width="3" height="3"/>
<rect x="72" y="69" width="3" height="3"/>
<rect x="81" y="69" width="3" height="3"/>
<rect x="84" y="69" width="3" height="3"/>
<rect x="12" y="72" width="3" height="3"/>
<rect x="18" y="72" width="3" height="3"/>
<rect x="21" y="72" width="3" height="3"/>
<rect x="24" y="72" width="3" height="3"/>
<rect x="30" y="72" width="3" height="3"/>
<rect x="42" y="72" width="3" height="3"/>
<rect x="48" y="72" width="3" height="3"/>
<rect x="54" y="72" width="3" height="3"/>
<rect x="60" y="72" width="3" height="3"/>
<rect x="63" y="72" width="3" height="3"/>
<rect x="66" y="72" width="3" height="3"/>
<rect x="69" y="72" width="3" height="3"/>
<rect x="72" y="72" width="3" height="3"/>
<rect x="81" y="72" width="3" height="3"/>
<rect x="84" y="72" width="3" height="3"/>
<rect x="12" y="75" width="3" height="3"/>
<rect x="18" y="75" width="3" height="3"/>
<rect x="21" y="75" width="3" height="3"/>
<rect x="24" y="75" width="3" height="3"/>
<rect x="30" y="75" width="3" height="3"/>
<rect x="36" y="75" width="3" height="3"/>
<rect x="42" y="75" width="3" height="3"/>
<rect x="45" y="75" width="3" height="3"/>
<rect x="57" y="75" width="3" height="3"/>
<rect x="63" y="75" width="3" height="3"/>
<rect x="66" y="75" width="3" height="3"/>
<rect x="72" y="75" width="3" height="3"/>
<rect x="78" y="75" width="3" height="3"/>
<rect x="81" y="75" width="3" height="3"/>
<rect x="84" y="75" width="3" height="3"/>
<rect x="12" y="78" width="3" height="3"/>
<rect x="18" y="78" width="3" height="3"/>
<rect x="21" y="78" width="3" height="3"/>
<rect x="24" y="78" width="3" height="3"/>
<rect x="30" y="78" width="3" height="3"/>
<rect x="36" y="78" width="3" height="3"/>
<rect x="45" y="78" width="3" height="3"/>
<rect x="51" y="78" width="3" height="3"/>
<rect x="54" y="78" width="3" height="3"/>
<rect x="60" y="78" width="3" height="3"/>
<rect x="63" y="78" width="3" height="3"/>
<rect x="66" y="78" width="3" height="3"/>
<rect x="69" y="78" width="3" height="3"/>
<rect x="72" y="78" width="3" height="3"/>
<rect x="75" y="78" width="3" height="3"/>
<rect x="78" y="78" width="3" height="3"/>
<rect x="81" y="78" width="3" height="3"/>
<rect x="12" y="81" width="3" height="3"/>
<rect x="30" y="81" width="3" height="3"/>
<rect x="36" y="81" width="3" height="3"/>
<rect x="42" y="81" width="3" height="3"/>
<rect x="48" y="81" width="3" height="3"/>
<rect x="51" y="81" width="3" height="3"/>
<rect x="72" y="81" width="3" height="3"/>
<rect x="78" y="81" width="3" height="3"/>
<rect x="12" y="84" width="3" height="3"/>
<rect x="15" y="84" width="3" height="3"/>
<rect x="18" y="84" width="3" height="3"/>
<rect x="21" y="84" width="3" height="3"/>
<rect x="24" y="84" width="3" height="3"/>
<rect x="27" y="84" width="3" height="3"/>
<rect x="30" y="84" width="3" height="3"/>
<rect x="36" y="84" width="3" height="3"/>
<rect x="45" y="84" width="3" height="3"/>
<rect x="48" y="84" width="3" height="3"/>
<rect x="51" y="84" width="3" height="3"/>
<rect x="54" y="84" width="3" height="3"/>
<rect x="63" y="84" width="3" height="3"/>
<rect x="69" y="84" width="3" height="3"/>
<rect x="72" y="84" width="3" height="3"/>
<rect x="75" y="84" width="3" height="3"/>
<rect x="78" y="84" width="3" height="3"/>
<rect x="81" y="84" width="3" height="3"/>
<rect x="84" y="84" width="3" height="3"/>
<g>
</g>
<g>
</g>
<g>
</g>
<g>
</g>
<g>
</g>
<g>
</g>
<g>
</g>
<g>
</g>
<g>
</g>
<g>
</g>
<g>
</g>
<g>
</g>
<g>
</g>
<g>
</g>
<g>
</g>
</svg>
