<?xml version="1.0" encoding="utf-8"?>
<!-- Generator: Adobe Illustrator 17.1.0, SVG Export Plug-In . SVG Version: 6.00 Build 0)  -->
<!DOCTYPE svg PUBLIC "-//W3C//DTD SVG 1.1//EN" "http://www.w3.org/Graphics/SVG/1.1/DTD/svg11.dtd">
<svg version="1.1" id="Layer_1" xmlns="http://www.w3.org/2000/svg" xmlns:xlink="http://www.w3.org/1999/xlink" x="0px" y="0px"
	 viewBox="0 0 63.04 157.32" style="enable-background:new 0 0 63.04 157.32;" xml:space="preserve">
<style type="text/css">
	.st0{fill:#720007;}
</style>
<g>
	<path class="st0" d="M25.75,16.11c0.08,0.25,0.23,0.32,0.36,0.4c0.35,0.24,0.72,0.42,1.11,0.56c1.31,0.48,2.6,1.02,3.91,1.5
		c1.18,0.43,2.26,1.06,3.37,1.64c0.16,0.08,0.3,0.19,0.44,0.3c0.98,0.81,1.39,1.66,0.84,3.02c-0.21,0.51-0.29,1.05-0.38,1.59
		c-0.02,0.13-0.04,0.25-0.07,0.38c-0.28,1.51-1.17,2.45-2.67,2.82c-0.94,0.24-1.89,0.36-2.85,0.47c-0.57,0.07-1.11,0.22-1.6,0.49
		c-1,0.55-2.1,0.67-3.21,0.76c-0.51,0.04-0.96-0.17-1.23-0.61c-0.24-0.39-0.56-0.69-0.9-0.99c-1.16-1.06-2.31-2.13-3.47-3.19
		c-0.14-0.13-0.28-0.27-0.43-0.38c-0.25-0.18-0.34-0.13-0.36,0.16c-0.01,0.24,0.01,0.48,0.11,0.71c0.56,1.15,0.43,2.27-0.19,3.36
		c-0.21,0.38-0.47,0.73-0.73,1.07c-0.26,0.34-0.54,0.67-0.74,1.06c-0.2,0.39-0.57,0.6-1,0.68c-0.19,0.04-0.38,0.05-0.57,0.1
		c-0.23,0.05-0.26,0.16-0.12,0.34c0.16,0.21,0.39,0.34,0.65,0.38c0.14,0.03,0.29,0.04,0.43,0.04c0.88,0,1.67,0.25,2.42,0.71
		c1.4,0.85,2.91,1.42,4.48,1.85c0.69,0.19,1.26,0.55,1.71,1.1c0.54,0.66,1,1.37,1.48,2.08c1.5,2.24,3.11,4.4,4.78,6.52
		c0.74,0.95,1.35,1.99,1.96,3.03c0.91,1.57,2.05,2.99,3.18,4.4c0.37,0.46,0.63,0.96,0.91,1.47c0.37,0.66,0.71,1.33,1.06,2
		c0.09,0.17,0.17,0.35,0.23,0.53c0.23,0.68,0.09,1.25-0.52,1.65c-1.66,1.09-3.26,2.3-5.15,2.99c-0.17,0.06-0.36,0.12-0.51,0.3
		c0.4,0.22,0.8,0.31,1.21,0.34c0.7,0.04,1.41,0.05,2.11-0.06c1.02-0.16,1.33,0.03,1.46,1.06c0.24,1.82,0.63,3.6,0.97,5.4
		c0.06,0.3,0.09,0.6,0.1,0.91c0.08,1.47,0.13,2.95,0.23,4.42c0.06,0.89,0.1,1.79,0.26,2.68c0.26,1.42,0.31,2.87,0.31,4.31
		c0,0.34,0.02,0.67,0.19,1.02c0.23-0.19,0.28-0.41,0.26-0.65c-0.04-0.58-0.1-1.15-0.15-1.72c-0.12-1.24-0.36-2.48-0.31-3.74
		c0.13-3.43,0.04-6.86,0.09-10.3c0-0.3,0.04-0.61,0.07-0.91c0.04-0.38,0.23-0.66,0.56-0.85c0.21-0.12,0.42-0.23,0.65-0.32
		c0.74-0.26,1.35-0.73,1.99-1.16c0.28-0.19,0.27-0.25,0-0.45c-0.29-0.21-0.58-0.4-0.88-0.59c-1-0.65-1.73-1.48-1.88-2.71
		c-0.04-0.32-0.14-0.63-0.27-0.92c-0.45-1.03-0.81-2.09-1.16-3.16c-0.25-0.75-0.56-1.47-0.89-2.18c-0.28-0.61-0.56-1.23-0.78-1.86
		c-0.44-1.29-1.14-2.45-2.06-3.45c-1.69-1.83-3.28-3.74-4.74-5.75c-0.37-0.51-0.76-0.99-1.2-1.45c-0.13-0.14-0.24-0.3-0.35-0.45
		c-0.16-0.23-0.21-0.5-0.25-0.77c-0.03-0.24,0.07-0.37,0.31-0.39c0.19-0.01,0.38-0.02,0.58-0.02c1.63,0.01,3.22,0.32,4.8,0.7
		c1.31,0.31,2.61,0.69,3.9,1.07c0.48,0.14,0.96,0.26,1.45,0.37c1.56,0.35,2.9,1.11,4.09,2.15c0.84,0.74,1.65,1.52,2.47,2.29
		c0.94,0.88,1.86,1.77,2.79,2.65c0.41,0.39,0.53,0.39,0.97,0.01c1.47-1.27,2.94-2.53,4.41-3.8c0.22-0.19,0.46-0.36,0.56-0.65
		c0.03-0.07,0.06-0.16-0.02-0.22c-0.05-0.05-0.12-0.03-0.18-0.01c-0.32,0.11-0.62,0.27-0.88,0.48c-1.13,0.9-2.33,1.71-3.36,2.73
		c-0.69,0.69-1.52,0.6-2.17-0.03c-1.22-1.19-2.42-2.39-3.6-3.61c-0.57-0.6-0.61-1.07-0.06-1.69c1.08-1.21,2.06-2.5,3.12-3.73
		c0.66-0.76,1.25-1.59,1.88-2.38c0.99-1.22,2.04-2.39,3.1-3.55c1.2-1.3,2.26-2.71,3.29-4.14c0.23-0.31,0.45-0.63,0.73-0.89
		c0.53-0.49,1.07-0.51,1.65-0.09c0.41,0.3,0.69,0.71,1.01,1.09c1,1.19,1.99,2.39,2.99,3.59c0.1,0.12,0.22,0.24,0.34,0.33
		c0.87,0.61,0.96,1.59,0.67,2.45c-0.13,0.38-0.37,0.7-0.65,1c-1.1,1.17-2.22,2.32-3.25,3.54c-0.65,0.77-1.28,1.56-1.92,2.35
		c-0.07,0.08-0.16,0.16-0.15,0.3c0.13,0.09,0.21-0.03,0.29-0.09c0.3-0.19,0.58-0.41,0.89-0.57c0.52-0.28,0.94-0.02,0.94,0.57
		c0,0.19-0.04,0.38-0.1,0.57c-0.11,0.35-0.19,0.71-0.22,1.08c-0.11,1.39-0.59,2.66-1.24,3.87c-0.24,0.46-0.33,0.87-0.06,1.36
		c0.25,0.43,0.23,0.92,0.14,1.41c-0.42,2.14-0.9,4.27-1.43,6.39c-0.06,0.23-0.13,0.47-0.17,0.7c-0.31,1.63-1.1,3-2.25,4.17
		c-0.31,0.32-0.61,0.66-0.9,1c-0.36,0.42-0.66,0.87-0.81,1.41c-0.13,0.48-0.39,0.88-0.74,1.22c-0.3,0.29-0.59,0.59-0.9,0.87
		c-0.74,0.7-1.11,1.56-1.12,2.57c-0.01,2.23-0.08,4.46-0.14,6.69c-0.1,3.48-0.04,6.96-0.08,10.44c-0.01,0.72-0.09,1.44-0.23,2.15
		c-0.19,0.96-0.24,1.91-0.03,2.87c0.19,0.89,0.21,1.78,0.19,2.68c-0.01,0.29,0.02,0.58-0.02,0.87c-0.13,0.98,0.37,1.66,1.04,2.25
		c0.54,0.48,1.17,0.73,1.89,0.7c0.95-0.05,1.89,0.01,2.84-0.05c0.65-0.04,1.22,0.18,1.58,0.74c0.47,0.72,1.13,1.01,1.97,0.95
		c0.19-0.01,0.39-0.02,0.58-0.01c0.33,0.01,0.62-0.03,0.82-0.36c0.16-0.27,0.47-0.32,0.77-0.3c0.29,0.02,0.57,0.09,0.86,0.02
		c0.16-0.04,0.25,0.08,0.25,0.22c0.01,0.64,0.01,1.28,0,1.92c0,0.17-0.12,0.25-0.28,0.28c-0.21,0.04-0.41,0.06-0.62,0.06
		c-1.22,0-2.44,0.01-3.66,0.02c-0.75,0-1.39-0.23-1.88-0.81c-0.28-0.34-0.63-0.46-1.06-0.46c-1.32,0.01-2.63,0.01-3.95,0
		c-0.52-0.01-0.94,0.18-1.28,0.55c-0.47,0.52-0.93,1.06-1.44,1.55c-0.4,0.39-0.53,0.91-0.54,1.46c-0.01,0.69,0,1.38,0,2.07
		c0,3.06,0,6.13,0,9.19c0,0.7,0,0.7-0.69,0.7c-0.39,0-0.77,0-1.16,0c-0.42,0.01-0.45,0.04-0.47,0.47c-0.01,0.26-0.01,0.51-0.03,0.77
		c-0.03,0.33-0.24,0.46-0.66,0.46c-0.32,0-0.46-0.13-0.49-0.46c-0.02-0.14-0.01-0.29-0.01-0.43c0-4.35,0.01-8.7,0.01-13.04
		c0-0.89,0.39-1.57,1.04-2.12c0.26-0.22,0.54-0.4,0.77-0.66c0.61-0.69,0.8-1.52,0.77-2.41c-0.01-0.24-0.06-0.48-0.08-0.72
		c-0.02-0.23-0.14-0.35-0.38-0.34c-0.06,0-0.13,0-0.19,0c-0.87,0-1.73,0.01-2.6-0.01c-0.32-0.01-0.55,0.11-0.75,0.34
		c-0.81,0.93-1.64,1.85-2.46,2.77c-0.12,0.13-0.24,0.26-0.39,0.35c-0.62,0.36-0.87,0.92-0.89,1.6c-0.02,0.54-0.01,1.09-0.01,1.64
		c0,3.18,0,6.35-0.01,9.53c0,0.6,0.13,1.15,0.48,1.63c0.85,1.18,1.72,2.36,2.57,3.54c0.18,0.24,0.41,0.4,0.67,0.54
		c0.23,0.12,0.28,0.09,0.32-0.15c0.03-0.16,0.05-0.32,0.06-0.48c0.02-0.24,0.15-0.34,0.38-0.34c0.34,0,0.67-0.01,1.01,0
		c0.38,0.01,0.44,0.08,0.47,0.45c0,0.05,0,0.1,0,0.14c0,0.85,0,1.7,0,2.55c0,0.55-0.05,0.59-0.62,0.6c-0.29,0-0.58,0-0.87-0.01
		c-0.23,0-0.35-0.12-0.36-0.35c-0.01-0.22-0.05-0.45-0.07-0.67c-0.02-0.22-0.14-0.31-0.36-0.28c-0.22,0.03-0.44,0.05-0.67,0.02
		c-0.91-0.12-1.45-0.7-1.87-1.44c-0.18-0.32-0.34-0.65-0.58-0.94c-0.05-0.06-0.09-0.13-0.22-0.15c-0.09,0.24-0.04,0.49-0.05,0.74
		c-0.01,0.55-0.04,0.58-0.57,0.59c-0.72,0-1.44,0-2.17,0c-0.53,0-0.56-0.04-0.57-0.59c0-2.62,0-5.23,0-7.85c0-0.72,0-0.72-0.71-0.72
		c-0.51,0-1.03,0.01-1.54-0.01c-0.36-0.01-0.42-0.07-0.44-0.42c-0.01-0.11,0-0.22,0-0.34c0-3.06,0-6.13,0-9.19
		c0-0.75,0-0.75,0.74-0.75c1.03,0,2.05,0,3.08,0c0.47,0,0.5-0.04,0.5-0.49c0-0.43,0-0.87,0.01-1.3c0.01-0.52,0.18-0.97,0.51-1.37
		c0.51-0.62,1.07-1.2,1.73-1.66c0.7-0.49,1.03-1.16,1.04-2.01c0-0.24-0.01-0.48-0.01-0.72c0-0.13-0.03-0.26-0.11-0.36
		c-0.05-0.08-0.11-0.17-0.23-0.13c-0.09,0.03-0.09,0.13-0.09,0.21c0,0.32,0,0.64-0.01,0.96c0,0.15,0.05,0.32-0.14,0.48
		c-0.22-0.46-0.03-0.92-0.16-1.36c0,0.27,0,0.54,0,0.81c0,0.16-0.05,0.29-0.23,0.31c-0.15,0.02-0.28,0.01-0.18,0.23
		c0.02,0.05-0.12,0.09-0.2,0.08c-0.35-0.01-0.7-0.03-1.06-0.05c-0.14-0.01-0.29-0.03-0.43-0.04c-0.57-0.03-0.6,0-0.6,0.57
		c0,0.39,0,0.77,0,1.16c0,0.15,0.04,0.32-0.1,0.48c-0.18-0.1-0.12-0.27-0.12-0.41c-0.01-0.9,0-1.8,0-2.7c0-0.13,0-0.26,0-0.38
		c0-0.18-0.06-0.32-0.26-0.33c-0.22-0.01-0.26,0.14-0.27,0.31c0,0.11-0.01,0.22-0.01,0.34c0,1.67,0,3.34-0.01,5.01
		c0,0.19,0,0.39,0,0.58c-0.01,0.62-0.04,0.65-0.66,0.66c-1.19,0-2.37,0-3.56,0c-0.13,0-0.26,0-0.38,0.01
		c-0.17,0.01-0.26,0.11-0.27,0.28c-0.01,0.14-0.01,0.29-0.01,0.43c0,3.77,0,7.54,0,11.31c0,0.74,0,0.74,0.74,0.74
		c0.51,0,1.03,0,1.54,0c0.7,0,0.7,0,0.7,0.69c0,1.64,0.01,3.27,0,4.91c-0.01,0.71,0.07,1.41,0.07,2.11c0,0.41,0.18,0.74,0.41,1.06
		c0.88,1.2,1.75,2.42,2.66,3.6c0.35,0.46,0.52,0.92,0.52,1.5c0.01,0.78,0.09,1.57,0.14,2.35c0.01,0.19,0.02,0.38,0.02,0.58
		c-0.01,0.44-0.1,0.54-0.53,0.55c-0.24,0.01-0.48,0.01-0.72-0.01c-0.31-0.02-0.36-0.08-0.33-0.39c0.05-0.56,0.11-1.12,0.18-1.67
		c0.12-0.98-0.06-1.85-0.73-2.64c-0.97-1.15-1.81-2.41-2.67-3.65c-0.3-0.43-0.39-0.91-0.39-1.41c0-1.24,0-2.47-0.01-3.71
		c0-0.21,0.02-0.42-0.1-0.61c-0.04-0.07-0.09-0.15-0.19-0.11c-0.05,0.02-0.1,0.08-0.13,0.13c-0.08,0.16-0.06,0.35-0.06,0.52
		c0,1.43,0,2.86,0,4.28c0,0.14,0,0.29,0,0.43c-0.01,0.56-0.04,0.59-0.61,0.59c-0.88,0-1.76,0-2.65,0c-0.45,0-0.49,0.04-0.49,0.5
		c0,2.86,0,5.71,0,8.57c0,0.5,0.05,0.53,0.53,0.47c0.35-0.04,0.7-0.09,1.05-0.13c0.24-0.03,0.34-0.16,0.33-0.39
		c0-0.13,0-0.26,0-0.39c0-2.13,0-4.27,0-6.4c0-0.13,0-0.26,0-0.39c0.01-0.57,0.19-0.69,0.71-0.45c0.65,0.29,1.03,0.8,1.11,1.52
		c0.02,0.16,0.01,0.32,0.01,0.48c0,1.81,0,3.63,0,5.44c0,0.65,0.01,0.66,0.68,0.66c1.64,0,3.27,0,4.91,0c0.14,0,0.29,0,0.43,0.01
		c0.36,0.03,0.41,0.07,0.45,0.43c0.03,0.3,0.06,0.61,0.06,0.91c0.01,2.21,0.01,4.43,0.01,6.64c0,0.06,0,0.13,0,0.19
		c-0.03,0.68-0.24,0.89-0.91,0.89c-1.59,0-3.18,0-4.76,0c-0.64,0-0.64,0-0.65,0.63c0,0.21-0.01,0.42,0,0.63
		c0.01,0.31-0.02,0.58-0.39,0.66c-0.14,0.03-0.2,0.15-0.21,0.29c-0.01,0.13-0.01,0.26-0.01,0.38c0,2.01,0,4.01,0,6.02
		c0,0.08,0,0.16,0,0.24c0.02,0.39,0.08,0.46,0.48,0.52c0.05,0.01,0.1,0.01,0.14,0.01c0.71,0,0.72,0.09,0.72,0.81
		c0,0.27-0.01,0.55,0.01,0.82c0.01,0.25,0.09,0.3,0.3,0.18c0.46-0.26,0.92-0.53,1.36-0.81c0.3-0.19,0.55-0.45,0.7-0.78
		c0.13-0.3,0.34-0.4,0.64-0.38c0.3,0.02,0.61,0.01,0.91,0.01c0.23,0,0.35,0.12,0.35,0.36c0,0.56,0,1.12,0,1.68
		c0,0.23-0.1,0.36-0.33,0.39c-0.18,0.03-0.35,0.03-0.53,0c-0.51-0.08-0.99,0.01-1.46,0.21c-0.45,0.18-0.86,0.43-1.26,0.7
		c-0.6,0.41-0.85,0.99-0.74,1.71c0.09,0.61,0.05,1.22,0.05,1.83c0,0.13-0.03,0.25-0.05,0.38c-0.02,0.17-0.12,0.25-0.29,0.26
		c-0.14,0.01-0.29,0.01-0.43,0.01c-1.96,0-3.91,0-5.87,0c-0.11,0-0.22,0-0.34,0c-0.48,0.01-0.51,0.03-0.51,0.53
		c0,1.04,0,2.09,0,3.13c0,0.13,0,0.26,0,0.38c-0.02,0.39-0.07,0.45-0.46,0.45c-0.8,0.01-1.6,0.01-2.41,0c-0.43,0-0.49-0.07-0.5-0.51
		c-0.01-0.13,0-0.26,0-0.38c0-1.86,0-3.72,0-5.58c0-0.13,0-0.26,0-0.38c-0.02-0.37-0.05-0.42-0.41-0.45
		c-0.33-0.04-0.67-0.05-1.01-0.08c-0.35-0.03-0.41-0.08-0.42-0.44c-0.01-0.16,0-0.32,0-0.48c0-8.25,0-16.49,0-24.74
		c0-0.86,0.05-0.81-0.81-0.81c-0.47,0-0.93,0.01-1.4,0c-0.38-0.01-0.44-0.07-0.47-0.45c-0.01-0.13,0-0.26,0-0.38
		c0-2.02,0-4.04,0-6.06c0-0.13,0-0.26,0.01-0.38c0.03-0.35,0.09-0.43,0.44-0.43c1.06-0.01,2.12-0.01,3.18,0
		c0.36,0,0.42,0.07,0.43,0.42c0.01,0.18,0,0.35,0,0.53c0,10.32,0,20.63,0,30.95c0,0.86-0.08,0.85,0.83,0.84c0.61,0,1.22,0.01,1.83,0
		c0.42-0.01,0.46-0.05,0.47-0.48c0-0.14,0-0.29,0-0.43c0-8.21,0-16.43,0-24.64c0-0.87-0.05-0.84,0.84-0.84c0.19,0,0.39,0,0.58,0
		c0.39-0.01,0.43-0.06,0.44-0.46c0-0.1,0-0.19,0-0.29c0-0.26-0.12-0.38-0.38-0.39c-0.34-0.02-0.67-0.05-1.01-0.08
		c-0.3-0.03-0.36-0.08-0.37-0.39c-0.01-0.32-0.01-0.64,0-0.96c0.01-0.31,0.07-0.37,0.37-0.38c0.32-0.02,0.64,0,0.96-0.01
		c0.34-0.01,0.4-0.07,0.41-0.39c0.01-0.29,0-0.58,0-0.87c0-0.24-0.11-0.35-0.35-0.35c-0.32,0-0.64,0.01-0.96-0.01
		c-0.33-0.01-0.39-0.07-0.4-0.4c-0.01-0.51,0-1.03-0.01-1.54c0-0.27,0.12-0.43,0.38-0.47c0.3-0.05,0.39-0.23,0.38-0.51
		c-0.01-0.35-0.01-0.71,0-1.06c0-0.24-0.1-0.36-0.35-0.36c-0.1,0-0.19,0-0.29,0c-1.81,0-3.63,0-5.44,0c-0.1,0-0.19,0-0.29,0
		c-0.21,0-0.34,0.08-0.35,0.3c0,0.05-0.01,0.1-0.02,0.14c-0.1,0.7-0.1,0.7-0.84,0.7c-0.26,0-0.51,0.01-0.77,0
		c-0.34-0.02-0.41-0.07-0.41-0.39c-0.01-0.67-0.01-1.35,0-2.02c0.01-0.33,0.07-0.38,0.4-0.4c0.14-0.01,0.29,0,0.43,0
		c2.42,0,4.85,0,7.27,0c0.14,0,0.29,0,0.43-0.01c0.07,0,0.13-0.03,0.14-0.11c0-0.07-0.05-0.12-0.12-0.12
		c-0.16-0.01-0.32-0.02-0.48-0.02c-2.84,0-5.68-0.01-8.52,0c-1.05,0-0.91-0.05-0.91-0.93c-0.01-1.03,0-2.05,0-3.08
		c0-0.47,0.02-0.48,0.47-0.55c0.11-0.02,0.22-0.03,0.33-0.05c0.45-0.07,0.46-0.08,0.47-0.55c0.01-0.82,0-1.64,0-2.45
		c0-0.54,0.04-0.61,0.55-0.64c0.74-0.04,0.68-0.1,0.68-0.78c0-1.17,0-2.34,0-3.51c0-0.5-0.03-0.52-0.51-0.52
		c-0.29,0-0.58-0.01-0.87,0c-0.26,0.01-0.39-0.12-0.41-0.37c-0.02-0.26-0.03-0.51-0.03-0.77c0-1.28-0.01-2.57,0-3.85
		c0-0.63-0.06-1.25-0.19-1.86c-0.19-0.83-0.13-1.66,0-2.49c0.08-0.49,0.08-0.99,0.08-1.49c0-0.91,0-1.83-0.01-2.74
		c-0.01-0.73,0.07-1.44,0.28-2.14c0.45-1.49,0.68-3.03,0.96-4.56c0.03-0.16,0.05-0.32,0.11-0.47c0.41-1,0.43-2.06,0.48-3.12
		c0.03-0.64,0.1-1.28,0.26-1.9c0.27-1.04,0.36-2.12,0.51-3.18c0.18-1.24,0.35-2.48,0.53-3.71c0.05-0.37,0.18-0.71,0.3-1.06
		c0.26-0.75,0.21-1.48-0.14-2.2c-0.15-0.32-0.33-0.63-0.55-0.91c-0.68-0.86-1.21-1.81-1.74-2.76c-0.91-1.61-1.96-3.13-3.05-4.61
		c-0.38-0.52-0.77-1.03-1.06-1.6c-0.23-0.45-0.36-0.92-0.28-1.44c0.06-0.44-0.08-0.62-0.5-0.74c-0.03-0.01-0.06-0.02-0.09-0.02
		c-1.19-0.15-1.98-0.86-2.49-1.9c-0.44-0.9-0.98-1.73-1.52-2.56c-0.4-0.62-0.77-1.26-1.05-1.95c-0.33-0.82-0.8-1.54-1.63-1.94
		c-0.21-0.1-0.33-0.29-0.41-0.51c-0.09-0.24-0.14-0.49-0.19-0.74c-0.09-0.46-0.33-0.8-0.78-0.97c-0.61-0.22-1.06-0.63-1.43-1.16
		c-0.81-1.15-1.6-2.33-2.39-3.5c-0.41-0.6-0.43-1.18-0.04-1.79c0.31-0.49,0.59-1,0.87-1.5c0.36-0.65,0.79-1.25,1.28-1.8
		c0.28-0.31,0.53-0.65,0.62-1.07c0.37-1.78,1.31-3.26,2.42-4.65c0.44-0.55,0.87-1.12,1.33-1.64c0.93-1.06,1.6-2.28,2.3-3.49
		c0.88-1.51,1.77-3.01,2.86-4.39c0.62-0.79,1.31-1.49,2.12-2.08c0.3-0.22,0.62-0.34,0.99-0.24c0.82,0.22,1.64,0.45,2.45,0.7
		c0.55,0.17,1.07,0.43,1.55,0.76c0.32,0.22,0.69,0.35,1.05,0.47c0.43,0.14,0.83,0.32,1.22,0.55c0.98,0.58,2.03,0.96,3.16,1.11
		c0.2,0.03,0.4,0.07,0.65,0c-0.41-0.42-0.89-0.67-1.41-0.75c-0.86-0.14-1.61-0.51-2.37-0.9c-1.13-0.57-2.28-1.11-3.39-1.73
		c-0.07-0.04-0.14-0.07-0.21-0.12c-0.46-0.29-0.62-0.69-0.41-1.2c0.24-0.59,0.56-1.13,1.06-1.53c0.54-0.44,0.92-0.98,1.19-1.61
		c0.96-2.24,2.29-4.26,3.8-6.17c0.44-0.55,0.94-1.05,1.52-1.47c0.65-0.48,1.33-0.5,2.04-0.16c1,0.48,1.95,1.04,2.91,1.6
		c1.44,0.84,2.66,1.96,3.92,3.02c0.14,0.11,0.27,0.22,0.41,0.34c0.41,0.35,0.5,0.65,0.27,1.15c-0.15,0.33-0.34,0.65-0.52,0.98
		c-0.79,1.41-1.58,2.83-2.37,4.24c-0.61,1.1-1.4,2.07-2.13,3.09c-0.15,0.21-0.28,0.43-0.37,0.67c-0.33,0.83-1.01,1.22-1.91,1.14
		C26.71,16.4,26.27,16.22,25.75,16.11z M21.18,88.98c-0.53,0.58-1.01,1.04-1.43,1.57c-0.37,0.47-0.8,0.87-1.38,1.09
		c-0.39,0.14-0.39,0.15-0.4,0.59c0,0.9,0,1.8,0,2.69c0,0.45-0.01,0.9,0,1.35c0.01,0.31,0.05,0.36,0.37,0.37c0.29,0.01,0.58,0,0.87,0
		c0.51,0.01,0.55,0.04,0.56,0.54c0,0.11,0,0.22,0,0.34c0,2.5,0,5,0,7.5c0,0.14,0,0.29,0.01,0.43c0,0.24,0.13,0.35,0.36,0.35
		c0.19,0,0.38,0,0.58,0c0.56,0,0.57-0.02,0.58-0.56c0-0.48,0-0.96,0-1.44c0.01-0.44,0.05-0.49,0.51-0.5c0.8-0.01,1.6,0,2.4,0
		c0.69,0,1.38,0.01,2.07,0c0.36-0.01,0.41-0.07,0.43-0.42c0.01-0.08,0-0.16,0-0.24c0-1.86,0-3.72,0-5.58c0-0.11,0-0.22-0.01-0.34
		c-0.01-0.21-0.11-0.33-0.33-0.33c-0.13-0.01-0.26-0.01-0.38-0.01c-1.31,0-2.63,0-3.94,0c-0.14,0-0.29,0-0.43-0.02
		c-0.19-0.02-0.29-0.12-0.3-0.31c-0.01-0.18,0-0.35-0.01-0.53c-0.03-0.69,0.12-1.37,0.05-2.06c-0.1-1.01-0.12-2.02,0-3.02
		C21.43,89.97,21.36,89.52,21.18,88.98z M29.51,141.7c0-1.04,0-2.08,0-3.13c0-0.45-0.06-0.51-0.49-0.52c-0.43-0.01-0.87-0.01-1.3,0
		c-0.35,0.01-0.42,0.08-0.43,0.43c-0.01,0.42-0.01,0.83,0,1.25c0.01,0.53,0.02,0.54,0.56,0.62c0.39,0.06,0.44,0.1,0.47,0.48
		c0.03,0.35,0.03,0.7,0.03,1.06c0,0.98,0,1.96,0,2.93c0,0.16-0.04,0.36,0.11,0.45c0.27,0.17,0.59,0.12,0.88,0.05
		c0.22-0.06,0.18-0.28,0.18-0.45C29.52,143.82,29.51,142.76,29.51,141.7z M29.31,96.85c0,1.35,0,2.69,0,4.04
		c0,0.24-0.01,0.49,0.15,0.69c0.09,0.12,0.14,0.34,0.34,0.27c0.15-0.06,0.08-0.25,0.09-0.39c0.01-0.11,0-0.22,0-0.34
		c0-2.5,0-5,0-7.51c0-0.14-0.01-0.29,0.01-0.43c0.03-0.3,0.08-0.35,0.39-0.38c0.27-0.03,0.54-0.03,0.81-0.07
		c0.38-0.05,0.4-0.08,0.41-0.45c0.01-0.63,0.01-1.25,0-1.88c0-0.3,0.06-0.6-0.21-0.85c-0.06-0.06-0.05-0.21-0.06-0.32
		c-0.01-0.11-0.01-0.22-0.03-0.33c-0.02-0.13-0.11-0.19-0.24-0.19c-0.14-0.01-0.26,0.04-0.29,0.19c-0.02,0.11-0.02,0.22-0.04,0.33
		c-0.03,0.27,0,0.58-0.12,0.8c-0.16,0.29-0.15,0.58-0.16,0.88c-0.01,0.24,0,0.48-0.02,0.72c-0.04,0.41-0.09,0.45-0.48,0.52
		c-0.52,0.09-0.54,0.1-0.54,0.65C29.31,94.15,29.31,95.5,29.31,96.85z M26.79,90.87C26.79,90.87,26.79,90.87,26.79,90.87
		c-0.01-0.5-0.01-0.99-0.01-1.49c0-0.2-0.06-0.38-0.24-0.49c-0.1-0.06-0.23-0.05-0.23,0.06c-0.01,0.36-0.27,0.65-0.27,1.01
		c0,0.78-0.01,1.57,0,2.35c0,0.33,0.1,0.4,0.4,0.4c0.28-0.01,0.34-0.07,0.35-0.39C26.8,91.83,26.79,91.35,26.79,90.87z M55.95,40.77
		c-0.42,0.36-0.75,0.67-1.04,1.07C55.53,41.72,55.79,41.46,55.95,40.77z"/>
	<path class="st0" d="M42.39,40.08c-0.25,0-0.48-0.05-0.66-0.18c-0.85-0.62-1.82-1.01-2.82-1.33c-1.37-0.45-2.57-1.22-3.82-1.92
		c-0.36-0.2-0.72-0.42-1.07-0.65c-0.43-0.29-0.54-0.66-0.31-1.12c0.11-0.23,0.26-0.44,0.41-0.65c0.81-1.14,1.62-2.27,2.42-3.41
		c1.19-1.69,2.22-3.49,3.23-5.29c0.85-1.51,1.7-3.02,2.74-4.41c1.06-1.42,1.86-2.99,2.74-4.52c0.13-0.22,0.25-0.45,0.39-0.66
		c0.33-0.5,0.69-0.62,1.23-0.39c1.37,0.57,2.65,1.3,3.79,2.25c1.27,1.06,2.54,2.11,3.82,3.15c0.53,0.43,0.83,1.01,1.17,1.57
		c0.1,0.16,0.04,0.31-0.03,0.46c-0.27,0.58-0.5,1.19-0.81,1.74c-0.89,1.58-1.79,3.16-2.98,4.54c-2.48,2.88-4.69,5.98-7.08,8.93
		c-0.5,0.61-1.1,1.12-1.69,1.64C42.88,40,42.64,40.07,42.39,40.08z"/>
	<path class="st0" d="M36.66,6.51c0.29,0.01,0.57,0.1,0.83,0.23c1.19,0.63,2.43,1.15,3.62,1.8c1.12,0.62,2.1,1.41,3.1,2.19
		c0.46,0.35,0.89,0.73,1.35,1.09c0.18,0.14,0.31,0.32,0.45,0.5c0.15,0.21,0.19,0.43,0.14,0.68c-0.39,1.98-1.07,3.83-2.42,5.38
		c-0.32,0.37-0.55,0.79-0.79,1.21c-0.35,0.63-0.73,1.24-1.2,1.8c-0.36,0.43-0.65,0.91-0.97,1.38c-0.5,0.74-1.06,1.41-1.83,1.88
		c-0.22,0.14-0.4,0.32-0.57,0.52c-0.39,0.45-0.87,0.81-1.37,1.13c-0.25,0.17-0.55,0.34-0.85,0.14c-0.31-0.21-0.22-0.53-0.16-0.83
		c0.25-1.26,0.5-2.52,0.74-3.78c0.14-0.76-0.06-1.2-0.74-1.54c-1.63-0.82-3.28-1.62-4.92-2.43c-0.22-0.11-0.46-0.14-0.7-0.17
		c-0.82-0.09-1.13-0.89-0.87-1.54c0.06-0.16,0.15-0.32,0.25-0.47c1.54-2.24,2.79-4.65,4.16-6.98c0.2-0.35,0.41-0.69,0.62-1.03
		c0.19-0.31,0.46-0.54,0.82-0.63c0.18-0.05,0.32-0.15,0.46-0.25C36.07,6.62,36.35,6.52,36.66,6.51z"/>
	<path class="st0" d="M40.58,130.94c0-1.19,0-2.04,0-2.89c0-0.16,0-0.32,0.01-0.48c0.04-0.4,0.1-0.46,0.51-0.48
		c0.22-0.02,0.45-0.02,0.67-0.03c0.19-0.01,0.3-0.11,0.3-0.3c0-0.14,0.01-0.29,0.01-0.43c0-1.96,0-3.91,0-5.87c0-0.1,0-0.19,0-0.29
		c0.01-0.57,0.03-0.59,0.6-0.6c0.58,0,1.16-0.01,1.73,0c0.38,0.01,0.46,0.07,0.47,0.45c0.02,0.48,0.02,0.96,0,1.44
		c-0.01,0.36-0.07,0.41-0.42,0.45c-0.05,0.01-0.1,0.01-0.14,0.01c-0.52,0.07-0.57,0.11-0.57,0.62c0,0.77-0.01,1.54,0,2.31
		c0,0.44,0.01,0.47,0.41,0.57c0.24,0.07,0.35,0.19,0.35,0.44c0,0.14,0,0.29,0,0.43c0,1.8,0,3.59,0,5.39c0,0.11,0,0.22,0,0.34
		c0.01,0.37,0.04,0.41,0.38,0.52c0.48,0.16,0.49,0.16,0.49,0.68c0,0.64,0.01,1.28-0.01,1.93c-0.02,0.7-0.23,0.91-0.94,0.91
		c-0.98,0.01-1.96,0.01-2.94,0c-0.71,0-0.86-0.15-0.86-0.84C40.63,133.68,40.53,132.14,40.58,130.94z"/>
	<path class="st0" d="M34.33,30.21c-0.07,0.77-0.46,1.51-1.31,1.83c-0.73,0.28-1.12,0.82-1.45,1.45c-0.18,0.34-0.32,0.7-0.5,1.04
		c-0.3,0.59-0.74,1.03-1.36,1.3c-0.26,0.11-0.48,0.12-0.73-0.02c-1.36-0.78-2.73-1.55-4.09-2.33c-0.22-0.13-0.44-0.27-0.63-0.44
		c-0.39-0.35-0.34-0.72,0.14-0.94c0.55-0.26,1.12-0.48,1.68-0.72c1.25-0.52,2.51-1.01,3.87-1.09c1.04-0.06,2.01-0.35,3-0.64
		c0.24-0.07,0.5-0.14,0.75-0.16C34.19,29.45,34.33,29.58,34.33,30.21z"/>
	<path class="st0" d="M50.58,135.9c0.02,0.43,0.03,0.87-0.06,1.29c-0.09,0.46-0.33,0.7-0.79,0.77c-0.19,0.03-0.38,0.03-0.58,0.01
		c-0.51-0.05-0.85-0.35-0.87-0.86c-0.04-0.74-0.01-1.47-0.02-2.21c0-0.22,0.12-0.32,0.33-0.32c0.54,0,1.09,0,1.63,0
		c0.24,0,0.35,0.13,0.35,0.36C50.58,135.26,50.58,135.58,50.58,135.9z"/>
	<path class="st0" d="M44.98,117.18c0-0.46-0.01-0.93,0-1.39c0.01-0.36,0.06-0.42,0.42-0.43c0.27-0.01,0.54,0,0.82,0.01
		c0.19,0.01,0.29,0.12,0.31,0.31c0.01,0.18,0.01,0.35,0.01,0.53c0,0.79,0.01,1.57,0,2.36c0,0.49-0.06,0.55-0.56,0.56
		c-0.21,0-0.42,0.01-0.62-0.01c-0.3-0.02-0.36-0.08-0.37-0.38C44.97,118.2,44.98,117.69,44.98,117.18
		C44.98,117.18,44.98,117.18,44.98,117.18z"/>
	<path class="st0" d="M40.7,137.81c0.55-0.41,1.12-0.35,1.66-0.4c1.11-0.12,2.34,0.07,2.85,0.4c-0.37,0.16-0.74,0.07-1.09,0.08
		c-0.38,0.02-0.77,0-1.15,0c-0.37,0-0.74,0.01-1.11,0C41.5,137.88,41.13,137.95,40.7,137.81z"/>
	<path class="st0" d="M32.27,106.88c-0.13-0.46-0.12-6.45,0.01-6.81c0.15,0.04,0.12,0.17,0.12,0.27c0,2.07,0,4.14,0,6.21
		C32.4,106.65,32.43,106.77,32.27,106.88z"/>
	<path class="st0" d="M35.08,108.75c0,2.09,0,4.17,0,6.3c-0.23-0.12-0.18-0.29-0.18-0.44c-0.01-0.67,0-1.34,0-2.02
		c0-1.12,0-2.24,0-3.36C34.9,109.07,34.86,108.89,35.08,108.75z"/>
	<path class="st0" d="M31.56,104.51c0.09,0.01,0.12,0.05,0.13,0.1c0.13,0.71,0.16,1.42,0.13,2.14c-0.01,0.14-0.05,0.26-0.22,0.24
		c-0.17-0.01-0.19-0.15-0.19-0.28c0-0.48-0.01-0.96,0.06-1.43C31.51,105.03,31.45,104.75,31.56,104.51z"/>
	<path class="st0" d="M23.97,101.98c-0.69,0-1.38,0.01-2.07,0c-0.45,0-0.5-0.05-0.51-0.5c-0.01-0.29,0-0.58,0.01-0.86
		c0-0.19,0.11-0.29,0.3-0.3c0.08,0,0.16-0.01,0.24-0.01c1.35,0,2.69,0,4.04,0c0.51,0,0.55,0.04,0.56,0.54c0,0.24,0.01,0.48,0,0.72
		c-0.02,0.33-0.07,0.39-0.4,0.4c-0.48,0.01-0.96,0.01-1.44,0.01C24.45,101.98,24.21,101.98,23.97,101.98
		C23.97,101.98,23.97,101.98,23.97,101.98z"/>
	<path class="st0" d="M23.97,99.29c-0.69,0-1.38,0-2.07,0c-0.46,0-0.49-0.05-0.51-0.49c-0.01-0.19-0.01-0.38,0-0.58
		c0.01-0.44,0.05-0.49,0.51-0.5c1.14-0.01,2.27,0,3.41,0c0.27,0,0.54-0.01,0.82,0.01c0.34,0.02,0.39,0.07,0.41,0.4
		c0.01,0.26,0.01,0.51,0,0.77c-0.02,0.33-0.06,0.39-0.41,0.39C25.41,99.3,24.69,99.29,23.97,99.29
		C23.97,99.29,23.97,99.29,23.97,99.29z"/>
</g>
</svg>
