<?xml version="1.0" encoding="utf-8"?>
<!-- Generator: Adobe Illustrator 17.1.0, SVG Export Plug-In . SVG Version: 6.00 Build 0)  -->
<!DOCTYPE svg PUBLIC "-//W3C//DTD SVG 1.1//EN" "http://www.w3.org/Graphics/SVG/1.1/DTD/svg11.dtd">
<svg version="1.1" id="Layer_1" xmlns="http://www.w3.org/2000/svg" xmlns:xlink="http://www.w3.org/1999/xlink" x="0px" y="0px"
	 viewBox="297 -24.1 1454 1536.1" enable-background="new 297 -24.1 1454 1536.1" xml:space="preserve">
<path fill="#D7100F" d="M609.1,1512c-17-15.4-40.6-20-57.1-36.5c-11.2-11.2-19.7-25-37-30.7c-11.8-4.1-12.9-15.6-6.9-29.6
	c23.3-55.1,65-97.6,96.5-147c25.2-39.2,57.1-71.6,91.3-102.9c24.4-22.5,48.3-46.1,74.9-65.6c43.9-32.4,86.7-66.4,138-87.5
	c19.7-8.2,37.3-21.4,56.5-31.3c43.3-22.5,90-36.2,136-52.7c42.2-15.1,86.1-23,128.9-35.9c11.8-3.6,24.1-4.7,36.2-6
	c84.5-10.4,169.5-14.8,254.5-8.2c36.5,2.7,73,4.4,109.2,6c23.9,1.1,46.4,8.5,68.6,15.1c11.8,3.6,24.4,0.8,35.7,8.2
	c10.7,7.1,19.2,14.8,15.6,28.3c-3.6,13.7-4.7,27.7-23.6,33.7c-19.2,6.3-31-3-45.8-9.6c-41.1-18.4-85.6-17-129.2-18.4
	c-51.3-1.4-102.6,1.9-153.3,9.6c-48,7.4-94.4,22.5-140.7,36.5c-52.4,15.9-102.9,36.5-152.5,60.6c-35.9,17.6-71.3,35.9-105.3,56.2
	c-44.7,26.6-89.7,53.2-128.1,89.7c-23.9,22.5-51,41.7-73.2,65.8c-19.7,21.7-38.1,44.4-57.9,66.1c-27.2,29.9-44.2,67.2-70.8,97.1
	c-5.5,6-6.6,13.4-8,20.3c-3.3,18.4-12.3,34.6-19.2,51.8c-3.6,9.1-12.6,10.4-18.7,16.2C619.3,1512,614.1,1512,609.1,1512z"/>
<path fill="#D7100F" d="M297,1084.4c17.3-35.9,52.9-31.5,83.4-37c43.1-8,84.8-16.2,121.5-43.9c22.2-16.5,49.1-27.4,71-45.3
	c35.4-28.8,65.8-62.5,98.2-94.4c6.3-6.3,10.7-14.8,15.4-22.5c13.4-21.7,31.3-39.5,47.7-58.4c28-32.6,42.5-73,63.1-110
	c17-30.2,26.3-63.6,41.7-94.4c9.9-19.7,10.4-44.2,17-65.8c30.4-99,35.1-201.3,38.1-303.6c1.6-54.3-5.8-108.3-21.4-160.7
	c-8-26.9,8.8-44.2,32.1-42.5c34.6,2.2,36.2,2.2,43.6,35.7c7.1,32.4,4.7,65.6,8.5,98.2c7.7,66.9,9.6,134.4,5.2,201.9
	c-3.3,49.1-9.3,98.2-12.9,147c-2.7,36.5-6.6,72.1-13.2,107.8c-9.3,49.9-25.8,98.2-41.1,146.5c-10.7,33.5-27.7,64.5-44.4,94.6
	c-18.7,33.5-43.3,63.9-64.7,96c-31.5,47.5-75.4,82.6-113,123.7c-19.5,21.4-46.9,34.6-70.2,51.8c-38.4,28.5-82.6,40.6-125.1,57.9
	c-28.8,11.5-59.5,16.2-89.4,23c-9.6,2.2-14.3-4.7-20.3-10.1c-26.1-23.3-43.9-54.3-70.5-77.1C297,1097,297,1090.7,297,1084.4z"/>
<path fill="#D7100F" d="M1038.1,169.7c-3.3-30.2,1.4-61.7,1.1-93.3c0-11.2,1.1-22.8-3-32.9c-7.4-18.7-0.8-36.8,5.8-51.8
	c5.2-12.3,22.8-18.1,38.4-14.8s25.8,12.6,23.9,29.9c-4.4,43.1-3,86.4-3.6,129.7c-0.8,73.5,11.5,145.4,27.7,216.4
	c18.9,83.4,58.4,157.4,116.3,221.3c23.9,26.3,55.4,41.4,85.3,58.4c12.6,7.1,27.7,6.6,41.7,6c60.9-1.9,117.7-15.4,167.9-52.7
	c29.3-21.7,54-46.9,74.9-76.5c10.1-14.3,15.4-30.7,21.4-46.9c6.9-18.4,17.3-29.9,39.5-29.3c24.7,0.5,32.9,4.4,43.6,26.6
	c11.2,23.3,15.9,49.1,28.5,71.9c5.2,9.6,2.2,18.9-3.6,28c-23.9,38.4-48.5,76.3-82.6,107.2c-21.7,19.7-47.2,34.3-69.1,52.9
	c-23.6,20-53.5,30.2-80.4,37.3c-50.5,13.7-104,25.2-157.7,7.1c-72.1-24.4-123.2-74.1-167.6-132.5c-20-26.3-40-52.9-56-82.3
	c-22.5-41.4-40.6-84.8-53.2-130.6C1055.4,337.8,1041.1,255.2,1038.1,169.7z"/>
</svg>
