<?xml version="1.0" encoding="utf-8"?>
<!-- Generator: Adobe Illustrator 17.1.0, SVG Export Plug-In . SVG Version: 6.00 Build 0)  -->
<!DOCTYPE svg PUBLIC "-//W3C//DTD SVG 1.1//EN" "http://www.w3.org/Graphics/SVG/1.1/DTD/svg11.dtd">
<svg version="1.1" id="Layer_1" xmlns="http://www.w3.org/2000/svg" xmlns:xlink="http://www.w3.org/1999/xlink" x="0px" y="0px"
	 viewBox="0 0 612 792" style="enable-background:new 0 0 612 792;" xml:space="preserve">
<style type="text/css">
	.st0{fill:#100001;}
	.st1{fill:#E00203;}
	.st2{fill:#420101;}
	.st3{fill:#F97777;}
</style>
<path class="st0" d="M586,172.2c0.1,3-0.1,5.1-4.1,5c-2.3-0.1-3.7,1.3-3.3,4.3c1.9,15.3-1.3,29.7-8.5,43.3c0.1,14.3-3,28.4-4.4,42.6
	c-0.6,6-3.8,11.2-9,14.3c-8.5,5-17.2,10.1-26.7,12.6c-6,1.6-12.6,1.4-18.9,2.5c-4.5,5.2-10.6,2.6-16,3.3c-5.5,3.2-11.7,3.5-17.7,3.9
	c-10.6,0.6-21.3-0.2-31.9,1.2c-2.4,0.3-4.6-0.8-6.8-1.4c-2.9-0.8-5.7-1.9-8.7-0.7c5.5,10.1,3.7,21,2.8,31.6
	c-0.7,8.6-0.6,17.2-0.7,25.8c-0.2,10.6-0.3,21.2,0.9,31.8c8.5,2.3,16.9,3.4,25.9,2.5c8.8-0.9,17.9,0.9,26.8-0.4
	c3.3-0.5,6.6-0.9,9.8-1.7c4.1-1,8-2.8,12.4-0.6c1.5,0.8,3.7,0.3,5.2-0.8c5.6-4.2,12.4-4.1,18.9-5.1c3.2-7.5,9.9-11.8,15.7-16.7
	c2.7-2.3,4.7-5.7,8.8-6.7c1.5,7.2-0.4,14.2-0.8,21.1c-0.5,9.2-2.5,18.3-3.7,27.4c-0.3,2-0.6,3.4-3,3.9c-6.3,1.4-12.4,3.8-19,3
	c-2.8,5.3-7.5,6.5-13,5.8c-4,2.1-8.3,2.3-12.7,2.2c-4.2,3.4-9.1,2.2-13.7,1.5c-4.2-0.7-8.4-1.7-12.7-1.6c-8.7-0.9-17.4-1.7-26.1-2.7
	c-4.7-0.5-9.3-0.1-13.7,1.3c-5.3,1.7-6.5,6.2-6.3,11.2c19.9,2.3,40,1.6,60,2.3c6.7-4.9,14.3-2.5,21.5-2.8
	c10.6-0.7,20.2-5.2,30.4-7.6c8-1.9,7.8-1.9,8,6.3c0.7,19.7-8.1,33.8-24.9,43.3c-10.6,6-22.1,9.9-33.8,13.2c-3.1,0.9-6.2,0.9-9.4,0.6
	c-15,3.7-30.4,4.9-45.5,2.8c-9.5-1.3-19.4-2.1-28.6-5.7c-2.7-1.1-4.9-2.7-6.8-4.8c-16.7-6.4-25.7-19.1-28.8-36.3
	c-1.4-8-2.2-16.1-3.5-24.1c-0.5-3.4-0.3-6.6,0.3-9.8c0-5.6-1.1-10.9-4.7-15.4c-0.4-0.5-0.7-1.1-0.9-1.8c-1.2-3.4-0.7-6.3,2.5-8.3
	c3.2-2,4.8,0.7,6.7,2.5c1.7,1.6,2.4,5.7,5.2,4.3c2.5-1.3,0.1-4.5-0.3-6.7c-1.2-6.6-0.3-13.3-0.6-19.9c-0.1-3-0.7-5.5-3.5-7.2
	c-8.4-4.9-13.3-12.4-14.7-22c-1.4-10.2-4.5-20-7.2-29.9c-1-3.7,0.5-6.9,0.7-10.3c-1.5-9.8-2.9-19.7-4.4-29.5c-3.3-0.9-4.7-3-5-6.5
	c-2.7-31.1-8.3-61.6-21.3-90.3c-0.3-0.7-0.5-1.6-0.7-2.4c-16.8-14.4-15.5-39.3,2.9-52.8c12.8-9.4,27.1-15.2,43-17.1
	c6.8-2.1,13.5-4.3,20.3-6.2c8.9-2.5,17.9-4.4,27.1-1.7c3.6-1,7.2-2,10.9-3c2.5-2.8-11.4,23.5,91.9,2.2c-79.7-3-45,1.3-97.5-3.6
	c-64-5-189.2,245.1-205.6,181.2c-17-66.4-109.7,4.1-134,0c0,172.5-82-120.6-82,52c43.7-10.9,30.7,204.2,76,199
	c63-7-8-149.4,55-157.4c31.7-4.5-88,63.4,298.4,147.6c1.4-2.4,3.9-3.6,8-4.4c21.9-4,43.9-7.7,65.3-14c13-3.8,25.4-9.8,36.6-17.7
	c9.3-6.5,15.7-14.5,15-27c-0.2-4.2,2.4-8.5,3.6-12.8c7.4-25.3,10.9-51.4,14-77.5c0.7-5.8,1.8-11.6,1.9-17.4c0.1-9.5,0-18.9,1.5-28.4
	c3.9-23.6,8.1-47.3,9.2-71.3c0.8-18.3,0.7-36.6,2.3-54.9c1.1-11.8,2.8-23.4,5.1-35C587.6,156.7,585.7,164.2,586,172.2z M435.1,498.6
	c-0.1,0-0.2-1.2,0-1.3c2.7-1.8,5.5,0.6,8.2-0.1C440.7,498.8,438.1,499.6,435.1,498.6z"/>
<path class="st1" d="M599,131c-1.5,1.4-1.8,3.3-2.1,5.2c0,0.3,0.1,0.6,0.1,0.9c0,0,0-0.1,0-0.1c-2.4,0-4.1,1.3-5.4,3
	c-2.3,3.2-4.5,6.5-6.8,9.8c-5.6,0-8.8,3.4-11.1,8c-2.7,0.4-4,3.3-7,3.5c-5,0.4-9.8,1.9-14.6,3.3c-5.1,1.5-10.3,1.7-14.9-1.3
	c-2.5-1.6-5-1.6-7.6-1.2c-17.9,2.7-35.8,5.3-53.7,8.2c-2.4,0.4-5.2,0-7.3,2.7c6.4,0,12.9,0,20.7,0c-6.5,6.2-5,11.8-1.9,17.7
	c1.5,2.8,2.5,5.8,3.4,8.8c1.7,5.6,0.1,9.2-5,12.1c-5,2.8-10.5,4-16,5.4c-8.9,2.2-17.8,4.2-26.2,8c-4.3,1.9-6.5,5.2-5.6,10
	c1,4.7,4.4,6.3,8.9,6.2c4.2-0.1,8.3-0.1,12.5-0.1c5.4,0.1,8.8,3.1,11,9.2c1.7,4.9-0.7,7.7-4.4,10.4c-4.3,3.1-8.7,5.4-13.9,6.5
	c-2.6,0.6-5.1,1.5-7.6,2.5c-1.1,0.4-2.9,0.8-2.6,2.5c0.2,1.5,1.8,1.9,3,2.3c2.5,0.8,5.2,1.2,7.7,2.1c1.3,0.5,2.8,1.5,2.3,3.4
	c-0.4,1.5-1.7,1.9-3.1,2.1c-1.8,0.3-3.7,0.5-5.4,1c-3.9,1.1-6.2,5.9-5.4,10.6c0.7,4.2,3.8,4.4,7.1,4.4c4.8,0,9.7-0.3,14.5,0.2
	c8.6,0.9,17.2,1.6,25.7-0.7c2.5-0.7,4.9,0.2,6.5,2.5c-5.5,3.2-11.7,3.5-17.7,3.9c-10.6,0.6-21.3-0.2-31.9,1.2
	c-2.4,0.3-4.6-0.8-6.8-1.4c-2.9-0.8-5.7-1.9-8.7-0.7c-14-2.6-27.9-5.2-41.9-7.9c-10.4-2-20.4-1.6-29.9,3.4c-1.3,0.7-2.5,0.6-3.8,0.2
	c-1.5-9.8-2.9-19.7-4.4-29.5c1.8-7,0.3-14.3,2-21.3c2.3-9.5,2.2-18.4-5.6-25.9c-2.2-2.1-1.5-5.2-0.8-8.1c0.7-2.9,1.9-3.9,4.8-2.7
	c2.7,1.2,5.5,0.9,8.3,0.2c7.4-1.8,14.3-5.5,21.9-6.7c2.8-0.5,4.3-3.1,4.3-6c0-2.9-1.8-4.6-4.3-5.5c-3.7-1.3-7.5-1.3-11.3-0.6
	c-6.4,1.2-11.8,4.3-16.8,8.3c-4.9,3.9-8.2,3.3-10.8-1.9c-1.7-3.4-3-7-3.8-10.7c-1.5-7-0.6-13.9-0.7-20.9c0-2.7-0.5-5-3.4-5.9
	c-3-0.9-5.1,0.4-6.8,2.8c-1.3,1.9-2.6,3.8-3.9,5.7c-16.8-14.4-15.5-39.3,2.9-52.8c12.8-9.4,27.1-15.2,43-17.1
	c-1.2,5.4-5.9,6.8-10.1,8.5c-6.2,2.4-12.5,4.6-18,8.5c-5.1,3.7-4.9,8.1,0.7,11.1c4.8,2.6,9.9,4.7,15.3,5.8c9.4,2.1,18.9,3.5,28.2,6
	c14.3,3.8,27.6,1.3,39.6-7.7c8.6-6.4,14.9-5.9,23.3,1.2c4.8,4,9.9,7.8,14.9,11.7c0.6,1.4,1.3,2.7,1.8,4.1c2.9,9.4,9.4,12.7,19.1,13
	c16.5,0.5,32.3-3.2,48.2-6.5c3.2,0.1,6.3,0.1,9.5,0.2c3.1,0.1,6.8-1.2,7.5,3.8c0.2,1.5,2.1,1.4,3.4,0.9c1.1-0.4,2.2-1.2,2.3-2.4
	c0.1-1.7-1.3-2.1-2.7-2.3c-0.9-0.1-2,0.4-2.5-1c3.2-4.3,7.9-5.9,12.7-7.1c5.7-1.5,10.9-3.7,15.7-7.3c9.6-7.3,10.5-11.3,4.5-21.9
	c-1.5-2.7-3.7-5.2-3.5-8.6c10.1,0.9,15,8.5,20.1,15.8C599,127.7,599,129.3,599,131z M436.2,165c0.4,4.6,1.1,5,6.3,2.8
	c-1.5-1.6-3.5-2.5-5.5-3.1c-1.8-8.7-6.1-11-13.2-6.8c-1.5,0.9-4,1.5-3.4,3.6c0.5,1.7,2.7,2.2,4.6,2.5
	C428.6,164.4,432.5,163.6,436.2,165z M365.1,246.9c1.3-1,4.7-0.5,4.4-3.1c-0.3-2.4-3.2-3.6-5.8-3.5c-1.8,0.1-3.9,0.6-3.7,3
	C360.3,246,362.4,246.7,365.1,246.9z M570.5,153.1c-2.2,0.2-4.2-0.9-5.4,1.2c-0.4,0.6,0.1,1.4,0.8,1.5
	C567.9,156.3,569.5,155.7,570.5,153.1z"/>
<path class="st2" d="M495.1,300c-1.6-2.3-4.1-3.2-6.5-2.5c-8.6,2.3-17.1,1.7-25.7,0.7c-4.8-0.5-9.6-0.2-14.5-0.2
	c-3.4,0-6.4-0.2-7.1-4.4c-0.8-4.7,1.6-9.5,5.4-10.6c1.7-0.5,3.6-0.7,5.4-1c1.4-0.2,2.7-0.6,3.1-2.1c0.5-1.8-1-2.9-2.3-3.4
	c-2.5-0.9-5.1-1.3-7.7-2.1c-1.2-0.4-2.8-0.8-3-2.3c-0.2-1.7,1.5-2.1,2.6-2.5c2.5-1,5-1.9,7.6-2.5c5.1-1.2,9.6-3.4,13.9-6.5
	c3.8-2.7,6.1-5.5,4.4-10.4c-2.1-6.1-5.6-9.2-11-9.2c-4.2,0-8.3,0-12.5,0.1c-4.5,0.1-8-1.5-8.9-6.2c-1-4.8,1.2-8,5.6-10
	c8.4-3.7,17.3-5.7,26.2-8c5.5-1.4,11-2.6,16-5.4c5.1-2.9,6.6-6.4,5-12.1c-0.9-3-1.9-6.1-3.4-8.8c-3.1-5.9-4.6-11.5,1.9-17.7
	c-7.8,0-14.2,0-20.7,0c2-2.7,4.9-2.3,7.3-2.7c17.9-2.9,35.8-5.5,53.7-8.2c2.6-0.4,5.1-0.4,7.6,1.2c4.6,3,9.8,2.8,14.9,1.3
	c4.8-1.4,9.6-2.9,14.6-3.3c3-0.2,4.3-3.1,7-3.5c6.4,2.8,10.7-0.4,11.1-8c2.2-3.3,4.4-6.6,6.8-9.8c1.3-1.8,3-3,5.4-3
	c-1.7,4.3-3.4,8.6-5.1,12.9c-4.4,6.7-6.3,14.2-6,22.2c0.1,3-0.1,5.1-4.1,5c-2.3-0.1-3.7,1.3-3.3,4.3c1.9,15.3-1.3,29.7-8.5,43.3
	c-3.2-0.3-4.3,1.8-5,4.4c-0.9,3.4-1.8,6.7-3.1,10c-1.6,4-4.5,5.5-8.8,4.2c-6.4-1.9-12.7-3.7-17.8-8.4c-3.1-2.8-7.3-3.7-11.3-2.8
	c-7.6,1.8-15.4,2.6-23.1,3.8c-4.5,0.7-7.6,2.9-7.8,7.6c-0.1,4.6,3.1,6.5,7.2,7.6c8.4,2.2,9.1,3.7,5.4,11.5
	c-6.1,12.6-5.2,24.1,5.2,34.1C506.6,301.9,500.5,299.3,495.1,300z M493.7,285.2c2.2-0.1,3.4-1.2,3.4-3.5c0-2.1-1-3.6-3.3-3.5
	c-2.3,0.1-3.7,1.5-3.7,3.9C490,284.5,491.6,285.1,493.7,285.2z"/>
<path class="st2" d="M354.3,298.5c1.3,0.4,2.5,0.5,3.8-0.2c9.5-5,19.6-5.4,29.9-3.4c13.9,2.7,27.9,5.3,41.9,7.9
	c5.5,10.1,3.7,21,2.8,31.6c-0.7,8.6-0.6,17.2-0.7,25.8c-0.2,10.6-0.3,21.2,0.9,31.8c-10.8,0-21.6-0.1-32.4,0c-4.5,0-9,0.5-13.2,2.2
	c-4.9,2-5.8,6-2.4,10.1c1.3,1.6,3,2.7,4.9,3.3c4.1,1.4,8.2,2.9,12.5,3.3c10.3,0.9,20.5,1.6,30.8,2.4c0.4,5.3,2.6,8,7.4,8.1
	c2.5,0.1,5.1-0.9,7.7-1.4c5.8-1,11.3-2.6,17.5-1.4c4.2,0.8,8.3,1.9,12.6,2.5c0,1.6,0,3.2-0.1,4.8c-8.7-0.9-17.4-1.7-26.1-2.7
	c-4.7-0.5-9.3-0.1-13.7,1.3c-5.3,1.7-6.5,6.2-6.3,11.2c-10.4,5.3-20,1.5-29.4-2.9c-2.2-1-2.2-3.2-0.7-5c0.9-1.2,2.1-2.2,3.1-3.3
	c1.2-1.3,1.8-2.8-0.5-3.3c-11.2-2.6-21.4-9.1-33.4-8c0-5.6-1.1-10.9-4.7-15.4c-0.4-0.5-0.7-1.1-0.9-1.8c-1.2-3.4-0.7-6.3,2.5-8.3
	c3.2-2,4.8,0.7,6.7,2.5c1.7,1.6,2.4,5.7,5.2,4.3c2.5-1.3,0.1-4.5-0.3-6.7c-1.2-6.6-0.3-13.3-0.6-19.9c-0.1-3-0.7-5.5-3.5-7.2
	c-8.4-4.9-13.3-12.4-14.7-22c-1.4-10.2-4.5-20-7.2-29.9C352.7,305.1,354.2,302,354.3,298.5z"/>
<path class="st3" d="M484,490.9c-15,3.7-30.4,4.9-45.5,2.8c-9.5-1.3-19.4-2.1-28.6-5.7c-2.7-1.1-4.9-2.7-6.8-4.8
	c0.1-5.1-3.1-8.7-6.3-12c-6.4-6.7-9.2-14.9-10.2-23.8c-0.8-7.3,5-11.9,12.1-9.8c4.1,1.2,7.5,3.6,10.6,6.4c3,2.7,6.3,3.4,10.1,2.4
	c15.5-4.3,31.3-3.6,47.1-3.2c7.1,0.2,10,3,11.6,10c0.8,3.2,1.2,6.6,2.1,9.7c2,6.8,6.6,9.5,13.7,8.4c1.5-0.2,3-0.3,4.5-0.4
	c3.2-0.1,5.6,1.2,6.4,4.4c0.9,3.2-0.7,5.5-3.6,6.9c-3.4,1.6-7,3.1-10.5,4.6C488.3,487.9,485.7,488.7,484,490.9z M429.8,478
	c-6.3-5.8-11.3-6.7-16.5-2.8C418.5,477.6,423.3,480.5,429.8,478z"/>
<path class="st1" d="M484,490.9c1.7-2.3,4.3-3,6.7-4.1c3.5-1.5,7.1-2.9,10.5-4.6c2.8-1.4,4.4-3.7,3.6-6.9c-0.8-3.1-3.2-4.5-6.4-4.4
	c-1.5,0.1-3,0.1-4.5,0.4c-7.1,1.1-11.6-1.6-13.7-8.4c-1-3.2-1.4-6.5-2.1-9.7c-1.7-7.1-4.5-9.9-11.6-10c-15.8-0.4-31.6-1.1-47.1,3.2
	c-3.9,1.1-7.1,0.3-10.1-2.4c-3.1-2.8-6.5-5.2-10.6-6.4c-7.1-2-13,2.6-12.1,9.8c1,8.9,3.8,17.1,10.2,23.8c3.2,3.3,6.4,6.9,6.3,12
	c-16.7-6.4-25.7-19.1-28.8-36.3c-1.4-8-2.2-16.1-3.5-24.1c-0.5-3.4-0.3-6.6,0.3-9.8c12-1,22.3,5.5,33.4,8c2.3,0.5,1.7,2,0.5,3.3
	c-1,1.1-2.1,2.1-3.1,3.3c-1.5,1.9-1.5,4,0.7,5c9.4,4.4,19,8.2,29.4,2.9c19.9,2.3,40,1.6,60,2.3c0,2.8-0.5,6,2.5,7.5
	c4.9,2.6,10,1.5,14.7-0.7c4-1.9,4.7-5.6,4.4-9.6c10.6-0.7,20.2-5.2,30.4-7.6c8-1.9,7.8-1.9,8,6.3c0.7,19.7-8.1,33.8-24.9,43.3
	c-10.6,6-22.1,9.9-33.8,13.2C490.3,491.2,487.2,491.3,484,490.9z"/>
<path class="st1" d="M511,296.7c-10.5-10-11.4-21.4-5.2-34.1c3.8-7.8,3-9.3-5.4-11.5c-4.1-1.1-7.3-3-7.2-7.6c0.1-4.7,3.3-7,7.8-7.6
	c7.7-1.1,15.5-1.9,23.1-3.8c4-1,8.2-0.1,11.3,2.8c5.1,4.7,11.5,6.5,17.8,8.4c4.3,1.3,7.2-0.2,8.8-4.2c1.3-3.2,2.1-6.6,3.1-10
	c0.7-2.6,1.8-4.7,5-4.4c0.1,14.3-3,28.4-4.4,42.6c-0.6,6-3.8,11.2-9,14.3c-8.5,5-17.2,10.1-26.7,12.6
	C523.9,295.8,517.3,295.7,511,296.7z"/>
<path class="st2" d="M462.9,145.2c-5-3.9-10-7.7-14.9-11.7c-8.4-7-14.7-7.6-23.3-1.2c-12,9-25.3,11.5-39.6,7.7
	c-9.3-2.5-18.8-3.9-28.2-6c-5.4-1.2-10.5-3.2-15.3-5.8c-5.6-3.1-5.9-7.5-0.7-11.1c5.5-3.9,11.8-6.1,18-8.5c4.2-1.6,8.9-3.1,10.1-8.5
	c6.8-2.1,13.5-4.3,20.3-6.2c8.9-2.5,17.9-4.4,27.1-1.7c1.1,5.8,2.4,7.2,7.3,5.6c5.5-1.8,9.6-0.4,13.4,3.5c-0.4,0.2-0.9,0.5-1.3,0.6
	c-19.1,2.8-38.3,5.7-57.1,10.2c-3.6,0.9-7.5,1.4-11.4,3.9c6.7,2.3,12.6,4.3,18.6,6.3c9,3,18.1,3.5,27.5,1.9
	c8.7-1.5,17.4-2.8,26.2-2.2c4.6,0.3,9.2,0.8,13.4,3.2C460.6,129.7,462,137.3,462.9,145.2z"/>
<path class="st1" d="M433.1,413.4c-10.3-0.8-20.5-1.6-30.8-2.4c-4.3-0.4-8.4-1.9-12.5-3.3c-1.9-0.6-3.6-1.7-4.9-3.3
	c-3.4-4.1-2.5-8.1,2.4-10.1c4.2-1.7,8.7-2.2,13.2-2.2c10.8-0.1,21.6,0,32.4,0c8.5,2.3,16.9,3.4,25.9,2.5c8.8-0.9,17.9,0.9,26.8-0.4
	c3.3-0.5,6.6-0.9,9.8-1.7c4.1-1,8-2.8,12.4-0.6c1.5,0.8,3.7,0.3,5.2-0.8c5.6-4.2,12.4-4.1,18.9-5.1c0.9,0.3,1.9,0.7,2.8,0.8
	c10.2,1,10.8,1.6,11.1,11.5C508.2,402.2,470.8,408.9,433.1,413.4z"/>
<path class="st2" d="M323,169.9c1.3-1.9,2.6-3.8,3.9-5.7c1.7-2.4,3.8-3.7,6.8-2.8c3,0.9,3.4,3.1,3.4,5.9c0.1,7-0.8,13.9,0.7,20.9
	c0.8,3.8,2.1,7.4,3.8,10.7c2.7,5.2,6,5.9,10.8,1.9c5-4.1,10.4-7.1,16.8-8.3c3.8-0.7,7.6-0.8,11.3,0.6c2.5,0.9,4.3,2.6,4.3,5.5
	c0,3-1.5,5.6-4.3,6c-7.6,1.3-14.4,4.9-21.9,6.7c-2.8,0.7-5.6,1-8.3-0.2c-2.9-1.3-4.2-0.2-4.8,2.7c-0.7,2.8-1.4,5.9,0.8,8.1
	c7.8,7.5,7.9,16.4,5.6,25.9c-1.7,7-0.2,14.3-2,21.3c-3.3-0.9-4.7-3-5-6.5c-2.7-31.1-8.3-61.6-21.3-90.3
	C323.4,171.5,323.2,170.7,323,169.9z"/>
<path class="st2" d="M545.9,398.4c-0.3-9.9-0.9-10.6-11.1-11.5c-1-0.1-1.9-0.5-2.8-0.8c3.2-7.5,9.9-11.8,15.7-16.7
	c2.7-2.3,4.7-5.7,8.8-6.7c1.5,7.2-0.4,14.2-0.8,21.1c-0.5,9.2-2.5,18.3-3.7,27.4c-0.3,2-0.6,3.4-3,3.9c-6.3,1.4-12.4,3.8-19,3
	c-0.4-0.7-0.7-1.4-1.1-2.1c1.7-1.5,4-1.4,6-2.1C544.2,410.8,546.1,408.2,545.9,398.4z"/>
<path class="st1" d="M437,101.3c-3.8-3.9-7.9-5.3-13.4-3.5c-4.9,1.6-6.2,0.3-7.3-5.6c3.6-1,7.2-2,10.9-3c10.1-0.5,20.2-0.2,30.1,2.2
	c-1.3,1.5-3.1,1.5-4.9,1.6c-6.5,0.4-7.3,1.3-7.3,8C442.4,101.1,439.7,101.2,437,101.3z"/>
<path class="st3" d="M513.6,435.2c0.3,4-0.4,7.8-4.4,9.6c-4.7,2.2-9.8,3.2-14.7,0.7c-2.9-1.6-2.5-4.7-2.5-7.5
	C498.7,433.1,506.3,435.5,513.6,435.2z"/>
<path class="st3" d="M517.2,423.8c-4,2.1-8.3,2.3-12.7,2.2c-2.4-2.2-5.3-1.1-7.9-1.2c-3.3-0.1-6.3-0.5-6.9-4.6
	c8.7-3.6,17.8-2.4,26.8-1.6C516.7,420.4,516.9,422.1,517.2,423.8z"/>
<path class="st1" d="M489.7,420.3c0.6,4.1,3.6,4.5,6.9,4.6c2.7,0.1,5.6-1,7.9,1.2c-4.2,3.4-9.1,2.2-13.7,1.5
	c-4.2-0.7-8.4-1.7-12.7-1.6c0-1.6,0-3.2,0.1-4.8C481.9,419.7,485.8,419.8,489.7,420.3z"/>
<path class="st1" d="M517.2,423.8c-0.2-1.7-0.5-3.5-0.7-5.2c3.3-5.2,8.3-2.4,12.6-2.7c0.4,0.7,0.7,1.4,1.1,2.1
	C527.3,423.3,522.6,424.5,517.2,423.8z"/>
<path class="st2" d="M597,137.1c0-0.3-0.1-0.6-0.1-0.9c0.2,0.2,0.5,0.5,0.7,0.7C597.4,137,597.2,137,597,137.1z"/>
<path class="st0" d="M437,101.3c2.7-0.1,5.4-0.2,8.1-0.3c17.4,0.4,34.8-0.3,52.3,0.7c21.2,1.2,42,4.5,62.8,8.4
	c6,1.1,11,3.8,13.9,9.4c1.7,3.2,1.7,6.2-1.7,8.2c-8.9,5-17.2,11.2-27.6,13.3c-7.2,1.5-12.1,7.5-12.8,14.7c-15.9,3.3-31.6,7-48.2,6.5
	c-9.8-0.3-16.2-3.6-19.1-13c-0.4-1.4-1.2-2.7-1.8-4.1c-0.9-7.9-2.3-15.5-10.1-20c-4.2-2.4-8.8-2.9-13.4-3.2
	c-8.8-0.6-17.6,0.7-26.2,2.2c-9.4,1.6-18.5,1.1-27.5-1.9c-6-2-11.9-4-18.6-6.3c3.9-2.5,7.8-3,11.4-3.9c18.8-4.6,38-7.4,57.1-10.2
	C436.1,101.8,436.5,101.5,437,101.3z"/>
<path class="st2" d="M531.9,155.8c0.8-7.2,5.6-13.2,12.8-14.7c10.4-2.1,18.7-8.3,27.6-13.3c3.4-2,3.4-5,1.7-8.2
	c-2.9-5.6-7.9-8.3-13.9-9.4c-20.8-3.9-41.6-7.2-62.8-8.4c-17.4-1-34.9-0.3-52.3-0.7c0-6.7,0.8-7.6,7.3-8c1.8-0.1,3.6-0.2,4.9-1.6
	c12.2-5.5,24.6-3.5,37.1-1.3c-0.2,2.6-0.3,5.4,3,5.6c2.8,0.2,3-2.4,3.3-4.5c23.4-0.9,46.1,2.7,67.8,11.7c4.1,1.7,7.7,3.9,10.5,7.4
	c-0.2,3.4,1.9,5.9,3.5,8.6c6,10.6,5.1,14.6-4.5,21.9c-4.7,3.6-10,5.8-15.7,7.3c-4.8,1.3-9.6,2.8-12.7,7.1c0.5,1.4,1.6,0.9,2.5,1
	c1.4,0.2,2.8,0.6,2.7,2.3c-0.1,1.2-1.2,2-2.3,2.4c-1.3,0.5-3.2,0.6-3.4-0.9c-0.8-5.1-4.5-3.7-7.5-3.8
	C538.2,155.9,535.1,155.9,531.9,155.8z"/>
<path class="st2" d="M436.2,165c-3.7-1.3-7.6-0.5-11.3-1.1c-1.8-0.3-4.1-0.8-4.6-2.5c-0.6-2.2,1.9-2.8,3.4-3.6
	c7.2-4.1,11.4-1.9,13.2,6.8C436.7,164.8,436.5,164.9,436.2,165z"/>
<path class="st0" d="M585,149.8c-0.4,7.6-4.8,10.8-11.1,8C576.2,153.3,579.4,149.8,585,149.8z"/>
<path class="st2" d="M365.1,246.9c-2.7-0.3-4.8-0.9-5-3.6c-0.2-2.4,1.9-3,3.7-3c2.6-0.1,5.5,1.1,5.8,3.5
	C369.8,246.4,366.4,246,365.1,246.9z"/>
<path class="st3" d="M436.2,165c0.3-0.1,0.5-0.2,0.7-0.4c2.1,0.6,4,1.5,5.5,3.1C437.3,169.9,436.6,169.6,436.2,165z"/>
<path class="st2" d="M570.5,153.1c-1,2.7-2.6,3.2-4.6,2.7c-0.7-0.2-1.2-0.9-0.8-1.5C566.3,152.2,568.3,153.2,570.5,153.1z"/>
<path class="st1" d="M500.7,91.2c-0.3,2.1-0.5,4.7-3.3,4.5c-3.3-0.3-3.2-3.1-3-5.6C496.6,89.8,498.6,90.7,500.7,91.2z"/>
<path class="st1" d="M493.7,285.2c-2.1,0-3.7-0.7-3.6-3.1c0-2.3,1.4-3.8,3.7-3.9c2.3-0.1,3.2,1.4,3.3,3.5
	C497.1,284,495.9,285.1,493.7,285.2z"/>
<path class="st0" d="M529,416c-4.3,0.3-9.3-2.5-12.6,2.7c-9-0.7-18-2-26.8,1.6c-3.9-0.5-7.7-0.5-11.5,0.9c-4.2-0.5-8.4-1.6-12.6-2.5
	c-6.1-1.2-11.7,0.4-17.5,1.4c-2.6,0.5-5.1,1.5-7.7,1.4c-4.8-0.1-7-2.8-7.4-8.1c37.7-4.5,75.1-11.2,112.8-15
	c0.2,9.8-1.8,12.4-11,15.5C533,414.6,530.7,414.5,529,416z"/>
<path class="st1" d="M429.8,478c-6.5,2.5-11.3-0.4-16.5-2.8C418.5,471.3,423.5,472.2,429.8,478z"/>
</svg>
