<?xml version="1.0" encoding="utf-8"?>
<!-- Generator: Adobe Illustrator 17.1.0, SVG Export Plug-In . SVG Version: 6.00 Build 0)  -->
<!DOCTYPE svg PUBLIC "-//W3C//DTD SVG 1.1//EN" "http://www.w3.org/Graphics/SVG/1.1/DTD/svg11.dtd">
<svg version="1.1" id="Layer_1" xmlns="http://www.w3.org/2000/svg" xmlns:xlink="http://www.w3.org/1999/xlink" x="0px" y="0px"
	 viewBox="0 0 206.84 281" style="enable-background:new 0 0 206.84 281;" xml:space="preserve">
<style type="text/css">
	.st0{fill:#100001;}
	.st1{fill:#410101;}
	.st2{fill:#070001;}
	.st3{fill:#E20203;}
	.st4{fill:#FB7979;}
</style>
<path class="st0" d="M44.07,271.19C29.49,274.93,14.87,278.55,0,281C0,187.33,0,93.67,0,0c12.71,0,25.35,0,38,0
	c5.67,0.85,11.33,0.85,17,0c2.33,0,4.67,0,7,0c1.37,0.91,2.91,0.49,4.38,0.5c32.11,0.18,64.21,0.8,96.32,0.48
	c3.28-0.03,6.26,0.35,8.82,2.62c1.71,1.51,3.9,1.71,6.09,1.87c3.15,0.24,6.33,0.44,9.01,2.43c2.23,3.1-0.04,4.5-2.31,5.72
	c-4.88,2.61-9.69,0.93-14.47-0.47c-1.74-0.51-3.39-1.55-5.26-1.32c-3.51,0.43-6.22,2.25-6.07,5.98c0.28,6.96-3.19,10.43-9.61,11.66
	c-1.38,0.27-2.35,1.16-3.31,2.08c-1.06,0.91-2.28,1.47-3.66,1.67c-5.32-0.03-10.36,1.68-15.51,2.65c-4.12,0.71-8.1,1.94-11.81,3.85
	c-9.37,4.82-10.97,11.86-4.67,20.31c5.78,9.15,6.37,19.76,8.31,29.98c0.34,1.8,0.42,3.6,1.5,5.16c1.08,3.45,1.74,6.96,1.66,10.59
	c0.39,4.97,1.54,9.79,2.97,14.55c0.38,1.27,0.56,2.82,1.6,3.58c5.46,4.01,4.45,9.84,4.56,15.37c-1.16,2.34-2.81,0.35-4.54,0.43
	c0.3,2.27,1.53,4.33,1.31,6.62c-0.21,4.01,0.55,7.95,1.33,11.81c1.15,5.65,4.48,9.87,9.91,12.21c2.24,1.4,4.7,2.05,7.29,2.45
	c1.42,0.22,3.51-0.01,3.25,2.52c-1.35,2.5,0.98,1.22,1.57,1.34c1.91,0.37,39.92-21.22,40.36-18.61
	c2.67,15.89-41.29,20.55-42.9,21.33c-3.25,1.57-1.08,7.79-1.77,11.3c-0.66,3.33-2.89,4.65-6.1,4.73c-4.99,0.12-9.99,0.14-14.98,0.02
	c-5.68-0.13-6.82-1.25-6.15-6.93c0.4-3.43-0.82-4.04-3.82-3.71c-17.36,1.91-34.75,3.62-51.97,6.64c-1.64,0.29-3.26,0.7-4.9,0.97
	c-4.79,0.78-7.02,3.47-7.65,8.34c-2.71,20.95-6.16,41.8-8.13,62.85C42.37,266.39,44.34,268.52,44.07,271.19z"/>
<path class="st1" d="M55,0c-5.67,1.63-11.33,1.64-17,0C43.67,0,49.33,0,55,0z"/>
<path class="st0" d="M198.51,67.02c-0.53,3.64-1.52,7.16-2.44,10.71c-0.36,4.27-1.08,8.49-1.52,12.74c-0.5,4.86-2.44,8.44-7.3,10.11
	c-1.54,0.53-3.04,1.33-3.88,2.89c0.59,5.75-2.22,9.6-6.76,12.71c-1.89,1.3-3.38,3.19-4.92,4.95c-1.54,1.77-2.28,3.86-1.28,6.01
	c1.65,3.56,1.93,7.32,2.25,11.11c3.59,3.19,6.75-0.35,10.12-0.64c3.6-3.11,7.25-6.17,10.51-9.64c1.42-1.56,1.88-3.46,2.1-5.49
	c0.12-1.11,0.05-2.67,1.46-2.84c0.21-0.03,0.39-0.02,0.56,0.02C198.72,106.5,202,93.46,202,80c0-5.86,0.71-22.95,3.29-29.26
	C201.46,51.11,199.1,62.97,198.51,67.02z"/>
<path class="st2" d="M187,166c0.6-0.7,1.15-1.42,1.67-2.15c0.84-2.15,1.69-4.16,2.33-5.85c4.52-12.66,5.77-26.96,7.45-40.68
	c-0.37-0.15-0.81-0.24-1.34-0.25c-2.79-0.06-3.27,1.86-3.09,4.06c0.22,2.6-0.28,4.93-2.05,6.92c-2.45,5.75-1.96,11.97-2.82,17.97
	c0.19,1.78,0.42,3.55-0.1,5.31c-0.45,1.96-0.26,3.98-0.49,5.95c-0.36,3.12-1.2,6.05-3.9,7.93c0.77,0.03,1.55-0.01,2.33-0.21
	c-0.78,0.19-1.56,0.24-2.33,0.21c-0.09,0.07-0.17,0.14-0.27,0.2c-5.93,3.78-12.11,6.94-19.31,7.41c-2.1,0.33-4.2,0.58-6.33,0.73
	c-3.19,0.23-6.59-0.86-9.51,1.33c-0.79,0.12-1.5,0.36-2.13,0.7c10.84,0.87,21.87,1.33,30.88-3.59c3.52-1.95,6.84-4.18,10.06-6.54
	c0.2-0.55,0.4-1.08,0.61-1.62C188.15,164.58,187.6,165.3,187,166z"/>
<path class="st3" d="M205.16,41.99c-1.44-1.69-2.99-3.2-5.42-3.23c-0.45,0.56-0.51,1.21-0.32,1.86c1.85,6.35,1.29,7.45-5,10.09
	c-2.06,0.87-4.63,0.98-5.67,3.56c0.13,0.39,0.2,0.65,0.23,0.81c-0.26-0.42-0.63-0.71-1.05-0.93c-1.66-0.58-3.4-0.48-5.12-0.48
	c-4.62,0.09-8.95,2-13.63,2.07c-4.2,0.06-7.45-0.86-9.23-4.95c-0.62-0.8-1.34-1.48-2.1-2.13c-6.68-5.75-7.97-5.91-15.89-1.96
	c-2.43,1.21-4.96,1.95-7.7,1.48c-4.59-0.79-9.16-1.69-13.69-2.76c-1.42-0.34-3.35-0.62-3.54-2.29c-0.21-1.83,1.91-1.96,3.09-2.73
	c2.2-1.43,5.77-1.32,5.78-5.19c-5.61,0.45-10.6,2.51-15.2,5.67c-6.93,4.76-7.67,13.01-1.67,19.06c2.1-0.24,3.93-0.25,3.72,2.77
	c-0.13,1.81,0.34,3.56,0.98,5.32c1.92,5.27,2.83,5.69,7.89,3.23c1.97-0.96,3.91-2.36,7.39-0.66c-3.55,1.24-6,2.43-8.82,2.76
	c-3.9,0.45-5.38,2.21-3.65,5.38c2,3.66,1.8,7.23,1.52,11.03c-0.13,1.78-0.39,3.66,0.68,5.32c0.51,3.51,1.02,7.02,1.54,10.53
	c0.14,0.5,0.61,1.07,0.97,0.79c3.99-3.1,8.1-1.35,12.17-0.38c4.49,1.07,9.03,1.85,13.61,2.38c1.93,0.04,3.72,0.9,5.65,0.95
	c5.92-0.23,12.12,1.61,17.5-2.47c0.06-3.86-2.86-2.91-4.92-2.87c-3.91,0.08-7.78,0.15-11.76-1.08c0.86-2.1,4.36-2.86,3.41-4.26
	c-2.57-3.76,0.96-3.45,2.41-4.45c2.16-1.49,4.07-3.09,3.29-6.07c-0.72-2.74-2.67-4.1-5.46-4.33c-0.66-0.05-1.33-0.07-1.99-0.16
	c-0.97-0.13-2.24-0.09-2.48-1.23c-0.32-1.48,1.05-1.95,2.11-2.33c3.44-1.27,7.14-1.68,10.54-3.06c4.43-1.8,5.52-4.1,4.15-8.65
	c-0.38-1.27-1.48-2.57-1.02-3.79c1.12-3,0.23-3.95-1.49-4.14c-0.52,0.01-1.04,0-1.55-0.01c-0.25,0.02-0.51,0.04-0.77,0.06
	c-0.25,0.02-0.37,0.03-0.36,0.09c0.07,0.66-0.41-0.14,0.26-0.16c0.29,0.01,0.59,0.01,0.88,0.01c0.56-0.04,1.09-0.04,1.55,0.01
	c5.18-0.13,10.3-1.3,15.43-1.21c4.66,0.09,9.21,0.74,13.63-1.2c0.67-0.24,1.3-0.55,1.88-0.98c0.37-0.28,0.73-0.58,1.06-0.91
	c1.08-1.19,2.49-1.9,3.85-2.67c1.54-1.24,2.26-3.02,3.06-4.74C206.56,46.39,207.98,43.97,205.16,41.99z"/>
<path class="st3" d="M165.42,60.43c0.52,0.01,1.04,0.02,1.55,0.01C166.5,60.39,165.98,60.4,165.42,60.43z"/>
<path class="st1" d="M120.28,105.6c0.32,0.07,0.76,0.31,0.95,0.18c1.86-1.3,6.3-2.25,8.8-1.79c5.67,1.03,11.34,2.07,17.01,3.1
	c1.81,1.33,3.29,2.98,3.02,5.35c-0.9,7.74-0.28,15.51-0.64,23.25c-0.05,1.16-0.3,2.29-0.97,3.28c-5.71,2.83-11.81,1.12-17.73,1.53
	c-0.25-0.17-0.49-0.35-0.74-0.53c-0.95-2.68-1.04-5.46-0.96-8.27c0.04-1.47,0.37-3.38-1.08-4.11c-6-3.03-5.2-9.28-6.73-14.28
	C120.48,110.96,119.32,108.3,120.28,105.6z"/>
<path class="st3" d="M190.35,150.83c-0.05,0.33-0.17,0.66-0.14,0.98c1.16,11.37-5.69,16.66-15.15,19.96
	c-2.94,1.02-5.81,2.4-9.06,2.08c0.14-3.03,3.73-2.34,5-4.86c-4.56-0.59-7.34-3-8.26-7.57c-0.44-2.18-2.44-3.01-4.62-3.05
	c-3.48-0.06-6.96-0.27-10.42,0.19c-3.36,0.45-6.72,1.7-9.59-1.57c-0.71-0.81-2.57-0.86-3.75,0.01c-1.26,0.94-0.95,2.37-0.66,3.67
	c0.47,2.15,1.77,3.89,2.91,5.72c0.9,1.44,2.57,2.8,1.17,4.83c-6.71-2.6-9.96-7.74-10.68-14.68c-0.36-3.43-1.5-6.79-0.96-10.3
	c0.6-1,1.57-1.2,2.62-1.21c0.49,0.02,0.97,0.1,1.44,0.22c2.17,0.75,4.39,1.35,6.61,1.98c1.11,0.31,2.81,0.71,2.85,1.69
	c0.39,8.12,5.87,3.75,9.47,3.98c6.31,0.33,12.62,0.52,18.9,1.18c3.43,3.62,6.44,2.52,9.26-0.84
	C181.57,152.01,185.56,149.2,190.35,150.83z"/>
<path class="st4" d="M137.77,171.21c-0.31-1.89-1.45-3.3-2.66-4.68c-1.33-1.52-2.51-3.24-2.85-5.18c-0.37-2.13-1.51-4.69,1.05-6.31
	c1.5-0.95,4.41,0.3,6.46,2.32c1.35,1.33,3.16,0.83,4.58,0.47c4.43-1.12,8.89-0.94,13.36-0.93c5.03,0.01,5.94,0.51,6.72,5.34
	c0.61,3.72,2.13,5.36,5.92,4.64c1.4-0.26,2.86-0.03,3.22,1.55c0.36,1.61-1.04,2.2-2.27,2.81c-1.76,0.88-3.83,1.13-5.3,2.6
	c-5.53,1.27-11.12,1.45-16.75,1.04c-2.05-1.36-4.53-0.57-6.71-1.38C140.87,172.89,138.91,172.92,137.77,171.21z"/>
<path class="st1" d="M158.81,51.27c-1.92-1.55-3.86-3.08-5.75-4.67c-2.52-2.12-5.19-2.18-7.69-0.23c-4.71,3.66-9.88,4.3-15.39,2.61
	c-4.4-1.35-9.18-1.22-13.35-3.47c-1.01-0.54-2.32-0.85-2.43-2.21c-0.14-1.62,1.33-2.05,2.4-2.81c2.93-2.08,7.15-1.88,9.3-5.3
	c5.32-1.9,10.63-3.93,16.47-2.9c1.16,1.37,2.83,0.51,4.18,0.96c1.68,0.57,3.81,1.07,1.75,3.56c-6.27,2.16-12.98,2.11-19.38,3.92
	c4.46,1.7,8.94,2.26,13.65,1.3c3.43-0.7,6.98-0.74,10.42,0.02C158.03,43.18,160.27,46.88,158.81,51.27z"/>
<path class="st1" d="M128.92,146.16c-0.93,0.02-1.85,0.04-2.78,0.06c-0.08-1.95-0.18-3.81-1.57-5.46c-0.82-0.98-1.06-2.57,0.31-3.43
	c1.18-0.74,2.2,0.11,2.83,1.14c0.55,0.89,1.12,1.58,2.27,1.5c0.14,0.13,0.29,0.27,0.43,0.4c3.14,3.38,7.34,3.9,11.59,4.25
	c2.09,0.17,4.25-0.12,6.21,0.93c1.72,2.07,3.82,2.01,6.3,1.55c3.41-0.63,6.97-1.09,9.82,1.8c0.33,0.8,0.29,1.57-0.18,2.3
	c-2.35,1.48-4.79,0.15-7.18,0.2c-3.25,0.07-6.65-0.47-8.93,2.72c-3.27,1.81-6.7,0.72-9.61-0.41c-3.86-1.49,0.11-2.77,0.48-4.41
	c-2.79-0.88-5.87-1.84-8.95-2.81c-0.32-0.3-0.01-0.95-0.6-1.1C129.3,145.69,129.16,145.95,128.92,146.16z"/>
<path class="st1" d="M109.03,59.92c0.85-0.37,1-1.26,1.46-1.93c0.62-0.9,1.46-1.39,2.54-1.01c1.18,0.42,1.16,1.52,1.1,2.49
	c-0.19,3.32-0.39,6.62,1.05,9.77c0.99,2.17,1.78,3.87,4.6,1.57c2.26-1.85,5.03-3.19,8.24-2.9c1.24,0.11,2.54,0.45,2.89,1.57
	c0.47,1.53-0.91,2.88-2.04,2.95c-3.87,0.24-7.17,3.8-11.23,1.61c-1.03,1.86-1.16,3.74,0.06,4.9c2.75,2.63,2.2,5.53,1.59,8.71
	c-0.46,2.42-0.39,4.94-0.55,7.42c-0.85-0.19-1.57-0.56-1.67-1.54C115.98,81.95,114.02,70.57,109.03,59.92z"/>
<path class="st3" d="M149.41,35.61c-1.09-1.52-2.46-2.05-4.29-1.4c-1.73,0.61-2.98,0.36-2.76-1.92c0.86-0.19,1.73-0.39,2.59-0.58
	c4.02-0.93,7.99-0.36,11.96,0.4c0.16,1.04-0.67,1.86-1.3,1.64c-2.87-0.99-1.98,1.64-2.75,2.64
	C151.53,36.94,150.25,37.24,149.41,35.61z"/>
<path class="st1" d="M206.67,48.01c-0.97,0.29-0.96,0.4-1.89,0.95c-0.9,1.3-1.8,2.59-2.7,3.89c-1.09,1.43-2.55,2.36-4.17,3.09
	l0.07-0.02c-0.35,0.51-0.79,0.89-1.41,1.04c-4.15-0.43-8.28,3.54-12.43,0.01c-7.83,1.18-15.67,2.37-23.5,3.55
	c0,0.14,0.01,0.28,0.01,0.42c2.44,0,4.89,0,7.53,0c-2.24,2.86-2.24,2.86-0.33,7.02c2.08,4.52,1.36,6.29-3.33,7.87
	c-1.56,0.53-3.22,0.76-4.81,1.21c-2.54,0.73-5.13,1.36-7.57,2.36c-1.36,0.56-2.46,1.8-2.11,3.58c0.36,1.84,1.75,2.23,3.38,2.22
	c1.16-0.01,2.35,0.14,3.49-0.03c2.77-0.42,3.91,1.27,4.69,3.44c0.88,2.43-1.18,3.05-2.56,4.18c-2.27,1.85-5.5,1.49-8.06,3.28
	c1.66,1.77,4.29,0.65,5.35,2.67c-0.54,1.17-1.6,1.09-2.58,1.16c-2.23,0.17-2.65,1.92-2.68,3.55c-0.04,2.3,1.97,1.89,3.33,1.82
	c4.27-0.23,8.52,1.19,12.8-0.01c1.11-0.31,2.34-0.23,3.18,0.86c2.13,1.46,4.14,1.58,5.96-0.54c-0.99-3.75-3.13-7.36-1.49-11.41
	c1.07-2.64,0.86-4.74-1.74-6.4c-1.59-1.01-2.09-2.63,0.24-3.07c3.8-0.72,7.55-1.98,11.59-0.01c8.27,4.03,9.39,3.38,11.84-5.35
	c1.78-3.24,2.64-6.8,3.15-10.38c0.88-6.14-2.39-6.46,2.5-6.54C201.51,57.59,204.43,52.43,206.67,48.01z"/>
<path class="st2" d="M170.36,106.11c1.86-0.51,4.11,0.83,5.65-1.21c2.39-2.48,5.03-2.91,7.97-1.01c1.82,5.38-0.07,9.11-4.98,11.68
	c-1.13,0.59-1.81,1.98-2.87,2.75c-4.68,3.37-6.41,7.38-3.01,12.62c1.58,2.44,0.37,4.8-0.11,7.19c-4.99,3.59-10.41,4.1-16.16,2.23
	c-2.9-3.97-4.37-8.37-4.33-13.34c0.04-5.42,0.46-10.87-1.06-16.2c-0.28-0.97-0.14-1.96,0.55-2.8c5.33-0.88,10.79,0.18,16.1-1.1
	C168.9,106.74,169.72,106.72,170.36,106.11z"/>
<path class="st3" d="M183.98,103.9c-2.69,0.07-5.35,0.39-7.97,1.01c-3.57-3.14-4.42-7.02-2.03-11.9c1.17-2.39,1.27-3.66-1.6-4.23
	c-1.59-0.32-2.98-1.18-2.79-2.92c0.22-1.97,1.92-2.46,3.69-2.62c1.97-0.18,3.93-0.4,5.87-0.92c2.13-0.56,4.24-0.5,5.97,1.32
	c0.54,0.57,1.4,0.88,2.16,1.2c5.6,2.4,6.53,1.92,7.81-4.09c0.21-1,0.7-1.41,1.65-1.42c0.03,4.65-1.05,9.18-1.4,13.77
	c-0.29,3.75-1.97,5.99-5.29,7.6C188.02,101.7,185.69,102.25,183.98,103.9z"/>
<path class="st3" d="M157.02,139.59c5.39,0.25,10.79,0.57,15.98-1.45c1.4,0.9,2.85,0.96,4.2-0.01c1.74-1.26,3.76-1.17,5.72-1.42
	c4.88-1.23,5.41-0.88,5.76,3.78c-1.03,2.04-2.97,2.63-4.96,2.71c-9.76,0.41-19.24,2.82-28.91,3.84c-2.31,0.24-4.6,0.71-6.71-0.71
	c-4.33-0.8-8.81-0.15-13.08-1.4c-2.31-0.68-4.92-1.17-4.62-4.55c3.18-2.04,6.73-1.39,10.19-1.42c2.49-0.02,4.98-0.06,7.46-0.1
	C151.21,137.09,154.11,138.38,157.02,139.59z"/>
<path class="st1" d="M187.98,140.91c1.02-4.67-2.45-3.92-5.06-4.2c2.45-3.49,5.94-5.88,9.06-8.67c0.24,6.42-0.94,12.69-1.9,18.99
	c-2.22,2.1-4.78,2.55-7.62,1.58c-0.49-0.26-0.75-0.68-0.78-1.23C183.38,144.84,186.95,144.12,187.98,140.91z"/>
<path class="st0" d="M182.54,148.03c2.65,0.72,4.97-1.11,7.55-0.99c1.35,1.18,1.23,2.46,0.26,3.8c-4.75,0.34-8.99,2.9-13.77,3.13
	c-2.25,1.82-4.75,1.61-7.32,0.95c-7.08-0.35-14.19,0.24-21.24-0.79c-0.3-2.97,1.07-4.05,4.01-4.16c4.12-0.17,8.14,0.56,12.2,0.87
	c2.91-2.17,6.33,0.52,9.31-0.98c1.42-0.19,2.83-0.44,4.21-0.84C179.37,148.8,180.82,147.76,182.54,148.03z"/>
<path class="st1" d="M152.59,35.61c-1.05-4.26,3.06-2.12,4.33-3.5c4.27-2.1,8.68-1.05,13.06-0.55c0.53,0.96,1.18,1.33,2.08,0.41
	c8.16-0.18,16.09,0.93,23.7,4.05c1.57,0.64,3.04,1.27,3.98,2.74c0.18,0.61,0.22,1.31,0.55,1.82c3.33,5.21,2.89,6.58-2.38,9.97
	c-2.84,1.83-6.77,1.38-8.93,4.47l0.05-0.04c-2.01-0.01-4.02-0.02-6.04-0.02c-1.06-4.26,2.31-5.3,5.02-6.62
	c1.91-0.93,4.14-1.21,5.84-2.63c0.98-0.82,2.47-1.42,2.11-3.05c-0.32-1.47-1.7-1.98-2.96-2.35c-5.42-1.6-11.04-2.68-16.62-2.72
	c-7.12-0.04-14.15-1.65-21.28-0.89C154.12,36.8,153.07,36.77,152.59,35.61z"/>
<path class="st3" d="M172.06,31.97c-0.12,0.78-0.15,1.79-1.28,1.56c-1.04-0.2-0.83-1.18-0.79-1.97
	C170.67,31.7,171.36,31.84,172.06,31.97z"/>
<path class="st0" d="M152.59,35.61c13.72-0.59,27.33,0.2,40.77,3.26c1.53,0.35,2.94,0.64,3.86,1.94c1.23,1.76,2.61,3.06-0.75,4.78
	c-2.71,1.39-4.95,3.37-8.23,3.96c-2.53,0.46-4.75,2.37-5.25,5.39c-5.01,0.92-9.88,2.45-15.12,2.25c-6.48-0.24-6.49,0.01-9.05-5.93
	c-0.42-5.67-2.82-8.17-8.26-8.25c-3.28-0.05-6.52-0.01-9.83,0.76c-5.65,1.31-10.78-1.45-16.13-3.04c8.12-2.75,16.58-3.4,24.81-5.14
	C150.47,35.61,151.53,35.61,152.59,35.61z"/>
<path class="st0" d="M157.02,139.59c-3.08,0.83-6-0.29-8.98-0.74c-0.01-7.32-0.4-14.67,0.14-21.95c0.26-3.5,0.66-6.7-1.16-9.82
	c1.8-0.44,3.33,0.53,4.97,0.94c1.81,4.83,2.59,9.85,1.95,14.94C153.21,128.89,155.07,134.22,157.02,139.59z"/>
<path class="st1" d="M149.44,58.04c-2.04-0.4-4.34,0.37-6.16-1.3c3.55-2.77,5.27-2.4,6.33,1.28L149.44,58.04z"/>
<path class="st0" d="M202.08,52.85c-0.16,2.69-1.81,3.37-4.17,3.09C198.89,54.36,199.87,52.77,202.08,52.85z"/>
<path class="st4" d="M149.44,58.04l0.16-0.01c0.72,0.4,1.45,0.8,2.23,1.23C149.1,59.73,149.1,59.73,149.44,58.04z"/>
<path class="st1" d="M125.88,86.34c-1.38,0.83-2.46,1.17-3.47,0.22c-0.33-0.31-0.4-0.92,0.14-1.25
	C123.74,84.62,124.68,85,125.88,86.34z"/>
<path class="st1" d="M188.97,55.02c0.74,0.46,1.93-0.43,2.35,0.75c0.07,0.19-0.52,0.83-0.89,0.93c-1.62,0.44-1.13-0.98-1.42-1.72
	L188.97,55.02z"/>
<path class="st1" d="M196.96,53.97c-0.36,0.84-1.01,1.16-1.87,0.92c-0.15-0.04-0.34-0.55-0.31-0.58c0.69-0.51,1.47-0.39,2.25-0.28
	L196.96,53.97z"/>
<path class="st0" d="M197.98,55.92c-0.23,0.66-0.75,0.95-1.41,1.04C196.87,56.38,197.25,55.91,197.98,55.92z"/>
<path class="st1" d="M197.03,54.04c-0.03-0.41,0.11-0.58,0.43-0.48c0.01,0-0.01,0.24-0.07,0.28c-0.12,0.08-0.28,0.09-0.43,0.13
	L197.03,54.04z"/>
<path class="st4" d="M169.26,154.91c2.28-1.53,4.89-0.57,7.32-0.95c0.48,3.08-1.51,3.91-3.94,4.09
	C170.54,158.2,168.61,157.87,169.26,154.91z"/>
<path class="st0" d="M128.92,146.16c0.1-0.57-0.02-1.26,0.76-1.48c0.08,0.61,0.17,1.21,0.25,1.82
	C129.6,146.39,129.26,146.27,128.92,146.16z"/>
<path class="st3" d="M140.77,168.1c2.86-1.36,4.34-0.43,6.33,1.08C144.52,170.28,143.13,168.92,140.77,168.1z"/>
<path class="st0" d="M187.98,140.91c0.9,4.95-2.93,5.22-6.09,6.16c-1.05,0.94-2.32,1.2-3.67,1.23c-2,0.08-4.04-0.15-5.99,0.53
	c-1.46,0.36-2.95,0.6-4.4,1.01c-1.29,0.14-2.57,0.23-3.64-0.72c-3.69-1.26-7.34-1.58-11.2-0.38c-2,0.63-4.49,0.85-4.89-2.42
	c12.09-0.86,23.87-4.2,36.04-4.48C185.42,141.81,186.7,141.23,187.98,140.91z"/>
<path class="st3" d="M164.19,149.12c1.3-0.44,2.63-0.57,3.98-0.27c1.76,0.91,4.61-1.34,5.56,1.92c-3.15,2.04-6.33-0.48-9.49,0.06
	C164.22,150.26,164.2,149.69,164.19,149.12z"/>
<path class="st3" d="M170.89,99.66c-0.1,0.75-0.54,1.23-1.28,1.22c-0.73,0-1.32-0.46-1.26-1.21c0.05-0.68,0.62-1.27,1.31-1.3
	C170.38,98.34,170.79,98.93,170.89,99.66z"/>
<path class="st3" d="M178.3,147.21c1.2-0.05,2.39-0.09,3.59-0.14c0.21,0.32,0.43,0.64,0.64,0.96c-1.04,1.75-2.64,2.17-4.52,1.95
	c-0.59-0.49-0.76-1.13-0.66-1.87C177.52,147.65,177.83,147.34,178.3,147.21z"/>
<path class="st4" d="M177.61,148.17c0.13,0.6,0.27,1.21,0.4,1.81c-1.36,0.63-2.8,0.86-4.29,0.79c-1.5-1.65-4.49,0.97-5.56-1.92
	c1.26-0.36,2.51-0.72,3.77-1.08C173.85,147.58,175.79,146.96,177.61,148.17z"/>
<path class="st1" d="M177.61,148.17c-1.89-0.13-3.79-0.27-5.68-0.4c2.01-1.53,4.22-0.69,6.37-0.56
	C178.07,147.53,177.84,147.85,177.61,148.17z"/>
<g>
</g>
<g>
</g>
<g>
</g>
<g>
</g>
<g>
</g>
<g>
</g>
<g>
</g>
<g>
</g>
<g>
</g>
<g>
</g>
<g>
</g>
<g>
</g>
<g>
</g>
<g>
</g>
<g>
</g>
</svg>
