<?xml version="1.0" encoding="utf-8"?>
<!-- Generator: Adobe Illustrator 17.1.0, SVG Export Plug-In . SVG Version: 6.00 Build 0)  -->
<!DOCTYPE svg PUBLIC "-//W3C//DTD SVG 1.1//EN" "http://www.w3.org/Graphics/SVG/1.1/DTD/svg11.dtd">
<svg version="1.1" id="Layer_1" xmlns="http://www.w3.org/2000/svg" xmlns:xlink="http://www.w3.org/1999/xlink" x="0px" y="0px"
	 viewBox="0 0 503.01 281.21" style="enable-background:new 0 0 503.01 281.21;" xml:space="preserve">
<style type="text/css">
	.st0{fill:#100001;}
	.st1{fill:#410101;}
	.st2{fill:#FB7979;}
	.st3{fill:#070001;}
	.st4{fill:#E20203;}
</style>
<path class="st0" d="M44.07,271.4c-14.59,3.74-29.2,7.36-44.07,9.81c0-93.67,0-187.33,0-281c12.71,0,25.35,0,38,0
	c5.67,0.85,11.33,0.85,17,0c2.33,0,4.67,0,7,0c1.37,0.91,2.91,0.49,4.38,0.5c32.11,0.18,64.21,0.8,96.32,0.48
	c3.28-0.03,6.26,0.35,8.82,2.62c1.71,1.51,3.9,1.71,6.09,1.87c3.15,0.24,6.33,0.44,9.01,2.43c2.23,3.1-0.04,4.5-2.31,5.72
	c-4.88,2.61-9.69,0.93-14.47-0.47c-1.74-0.51-3.39-1.55-5.26-1.32c-3.51,0.43-6.22,2.25-6.07,5.98c0.28,6.96-3.19,10.43-9.61,11.66
	c-1.38,0.27-2.35,1.16-3.31,2.08c-1.06,0.91-2.28,1.47-3.66,1.67c-5.32-0.03-10.36,1.68-15.51,2.65c-4.12,0.71-8.1,1.94-11.81,3.85
	c-9.37,4.82-10.97,11.86-4.67,20.31c5.78,9.15,6.37,19.76,8.31,29.98c0.34,1.8,0.42,3.6,1.5,5.16c1.08,3.45,1.74,6.96,1.66,10.59
	c0.39,4.97,1.54,9.79,2.97,14.55c0.38,1.27,0.56,2.82,1.6,3.58c5.46,4.01,4.45,9.84,4.56,15.37c-1.16,2.34-2.81,0.35-4.54,0.43
	c0.3,2.27,1.53,4.33,1.31,6.62c-0.21,4.01,0.55,7.95,1.33,11.81c1.15,5.65,4.48,9.87,9.91,12.21c2.24,1.4,4.7,2.05,7.29,2.45
	c1.42,0.22,3.51-0.01,3.25,2.52c-1.35,2.5,0.98,1.22,1.57,1.34c1.91,0.37,4.32-0.02,4.8,2.59c0.43,2.31-1.65,3.07-3.25,3.85
	c-3.25,1.57-5.17,4.08-5.86,7.59c-0.66,3.33-2.89,4.65-6.1,4.73c-4.99,0.12-9.99,0.14-14.98,0.02c-5.68-0.13-6.82-1.25-6.15-6.93
	c0.4-3.43-0.82-4.04-3.82-3.71c-17.36,1.91-34.75,3.62-51.97,6.64c-1.64,0.29-3.26,0.7-4.9,0.97c-4.79,0.78-7.02,3.47-7.65,8.34
	c-2.71,20.95-6.16,41.8-8.13,62.85C42.37,266.6,44.34,268.73,44.07,271.4z"/>
<path class="st1" d="M187,9.22c-2.42-1.1-5.02-1.96-7.62-1.92c-4.3,0.07-8.21-0.17-11.02-4.09c-1.09-1.53-3.06-1-4.69-1
	c-7.64-0.03-15.29-0.18-22.93,0.02C115.7,2.89,90.68,0.87,65.63,1.21C64.35,1.22,62.91,1.6,62,0.21c134.67,0,269.33,0,404,0
	c0.29,0.72,0.1,1.26-0.57,1.65c-1.5,0.84-3.17,0.93-4.83,0.93C434.76,2.78,408.92,3,383.08,2.7c-27.77,0.29-55.54,0.07-83.31,0.12
	c-22.62,0.04-45.23,0.06-67.85-0.04c-4.29-0.02-7.58,0.46-7.67,5.84c-0.03,1.96-1.32,3.61-3.4,3.75C209.41,13.12,198,13.34,187,9.22
	z"/>
<path class="st1" d="M503,168.21c-0.32-0.1-0.64-0.21-0.96-0.31c-1.92-1.84-1.64-4.28-1.64-6.56
	c-0.05-51.23-0.04-102.46-0.01-153.69c0-1.99-0.05-4.01,0.94-5.85c0.4-0.64,0.96-0.84,1.68-0.58C503,56.88,503,112.55,503,168.21z"
	/>
<path class="st2" d="M503,1.21c-0.3,0.03-0.59,0.11-0.86,0.23c-1.27,0.89-2.69,1.29-4.22,1.31c-9.14,0.14-18.29,0.17-27.43-0.03
	c-1.64-0.04-3.37-0.19-4.39-1.85c0.14-0.24,0.11-0.46-0.09-0.66c11.67,0,23.33-0.02,35,0.05C501.63,0.27,503.15-0.76,503,1.21z"/>
<path class="st1" d="M55,0.21c-5.67,1.63-11.33,1.64-17,0C43.67,0.21,49.33,0.21,55,0.21z"/>
<path class="st0" d="M466.09,0.88c10.22,0.04,20.45,0.07,30.67,0.15c1.79,0.01,3.63-0.36,5.37,0.42C502.09,2.11,502,2.77,502,3.44
	c0.01,54.82,0.03,109.64,0.04,164.47c-17.98,4.13-35.95,8.29-53.94,12.37c-78.94,17.91-157.89,35.81-236.83,53.69
	c-50.26,11.39-100.52,22.75-150.78,34.1c-0.47,0.11-0.99,0.02-1.49,0.02c-1.12-2.54,1.05-3.21,2.49-4.04
	c11.42-6.64,23.02-12.4,36.62-13.71c7.53-0.72,14.73-4.08,21.98-6.51c20.05-6.71,40.25-13.01,60.12-20.27
	c7.12-2.6,14.73-2.55,22.14-3.54c39.63-5.29,79.05-11.75,117.98-21.01c17.68-4.21,35.14-9.06,52.32-14.98
	c1.69-0.58,3.57-0.8,5.19-2.35c-1.55-1.28-3.41-1.23-5.07-1.55c-36.13-7.01-72.43-13.08-108.66-19.49
	c-11.31-2-22.64-3.93-33.93-6.06c-2.1-0.4-4.32-1.19-6.18,0.57c-2.3,2.18-4.45,1.76-6.63-0.11c-2.59-2.23-6.36-4-4.74-8.35
	c1.12-2.99,0.19-4.25-2.53-5.16c-1.76-0.59-3.6-1.76-4.08-3.47c-1.6-5.66-6.39-9.76-7.38-15.68c-0.18-1.06-0.15-2.71-1.76-2.51
	c-1.41,0.17-1.34,1.72-1.46,2.84c-0.22,2.03-0.68,3.94-2.1,5.49c-3.26,3.47-6.91,6.52-10.51,9.64c-3.36,0.29-6.53,3.83-10.12,0.64
	c-0.32-3.79-0.6-7.55-2.25-11.11c-1-2.15-0.26-4.24,1.28-6.01c1.53-1.76,3.03-3.65,4.92-4.95c4.53-3.11,7.34-6.96,6.76-12.71
	c0.85-1.56,2.34-2.36,3.88-2.89c4.85-1.68,6.8-5.26,7.3-10.11c0.44-4.25,1.16-8.47,1.52-12.74c0.92-3.55,1.91-7.08,2.44-10.71
	c0.62-4.3,3.23-6.36,7.48-6.54c1.83-0.08,3.66-0.08,5.49-0.08c35.78,0.01,71.57-0.09,107.34,0.19c2.93-0.12,5.48,1.07,8.04,2.29
	c4.83,2.3,9.85,3.95,15.18,4.62c13.99,1.78,23.69-4.53,30.26-16.35c3.82-6.88,5.97-14.39,7.28-22.13
	c1.25-7.37,2.42-14.74,2.07-22.26c-0.09-1.97-0.19-4.02,1.34-5.65c25.72-0.04,51.44-0.07,77.17-0.12
	C462.13,1.2,464.14,1.48,466.09,0.88z"/>
<path class="st3" d="M191.98,128.26c1.76-1.99,2.26-4.31,2.05-6.92c-0.18-2.2,0.3-4.12,3.09-4.06c2.46,0.05,3.03,1.76,2.86,3.79
	c-0.26,3.26,0.89,5.89,3.34,7.94c1.68,1.41,2.17,3.44,2.48,5.3c0.72,4.36,3.48,6.34,7.39,6.82c3.14,0.39,3.21,1.34,1.71,3.79
	c-2.7,4.42-2.57,4.48,1.51,7.5c0.8,0.59,1.56,1.25,2.25,1.96c1.7,1.76,3.3,2.62,4.32-0.51c0.77-2.38,2.6-1.74,4.11-1.47
	c19.45,3.54,38.85,7.34,58.33,10.67c20.62,3.53,41.23,7.14,61.81,10.93c11.46,2.11,22.95,4.04,34.87,6.69
	c-1.52,2.14-3.4,2.79-5.17,3.4c-27.21,9.43-55.06,16.41-83.25,22.24c-19.53,4.05-39.18,7.41-58.85,10.58
	c-11.04,1.78-22.12,3.71-33.35,4.38c-14.03,0.84-27.02,5.82-40.16,10.23c-19.94,6.69-39.99,13.08-59.93,19.78
	c-3.7,1.24-7.5,1-11.24,1.71c-7.15,1.36-13.63,4.16-19.81,7.67c-2.74,1.56-5.57,2.96-8.3,4.51c-1.23,0.7-2.99,0.91-3.03,2.88
	c-4.88,1.52-9.85,2.67-14.92,3.31c-3.07-1.98-3.39-4.89-2.95-8.2c1.03-7.84,1.89-15.7,2.89-23.55c1.06-8.34,2.16-16.67,3.33-25
	c0.8-5.71,2.08-11.37,2.53-17.09c0.24-3.14,1.68-4.42,4.25-5.27c4.89-1.6,9.95-2.36,15.01-3.07c12.08-1.67,24.12-3.71,36.26-4.72
	c5.31-0.44,10.7-2.21,16.38-0.9c-0.63,2.51-1.32,4.71-1.71,6.95c-0.4,2.32,0.28,3.77,3.14,3.7c5.99-0.15,11.99-0.06,17.99-0.04
	c2.06,0.01,3.81-0.52,3.76-2.93c-0.12-5.4,3.21-7.99,7.61-9.81c0.99-0.41,2.59-0.33,2.22-2.04c-0.34-1.57-1.8-1.15-2.9-1.21
	c-2.45-0.13-4.89-0.06-7.4,0.5c1.04-2.1,2.57-3.3,4.77-3.63c2.92-2.19,6.32-1.09,9.51-1.33c2.13-0.16,4.24-0.4,6.33-0.73
	c7.2-0.48,13.38-3.63,19.31-7.41c2.94-1.87,3.8-4.91,4.17-8.14c0.23-1.98,0.04-3.99,0.49-5.95c0.51-1.76,0.28-3.53,0.1-5.31
	C190.02,140.22,189.53,134.01,191.98,128.26z"/>
<path class="st3" d="M382.99,1.33c0.53,12.5-0.69,24.82-4,36.88c-2.64,9.59-6.61,18.47-14.51,25c-4.31,3.57-9.17,5.73-14.92,6.05
	c-8.9,0.5-17.1-1.61-24.89-5.73c-1.48-0.78-2.97-1.54-4.72-1.34c-1.13-0.83-2.44-1-3.79-0.98c-19.87,0.35-39.31-3.68-58.91-6.02
	c-5.58-0.67-11.35,0.05-16.75-2.09c-1.34-0.61-2.55-1.45-4.13-1.61c-10.75-1.13-20.24-6.96-30.94-8.3c-2.01-1.14-3.77-2.73-6.1-3.29
	c-8.32-5.35-17.68-6.28-27.22-6.41c-0.82-0.04-1.62-0.16-2.41-0.33c-4.33-0.86-8.66-0.7-12.99,0.02c-3.91-0.53-7.92-0.07-11.75-1.26
	c-0.21-2.1,1.18-2.96,2.84-3.51c0.93-0.31,1.96-0.31,2.91-0.59c5.12-1.5,6.26-3.07,6.3-8.52c0.05-7.54,4.68-10.48,11.76-7.79
	c4.73,1.79,9.6,3.7,14.76,1.4c1.65-0.73,3.53-1.32,3.48-3.68c8.75,0.24,17.36,2.37,26.16,2c1-0.04,1.99,0,2.99-0.01
	c6.44-0.01,6.56-0.01,6.76-6.53c0.08-2.52,0.81-3.77,3.45-3.46c0.49,0.06,1,0.01,1.5,0.01c50.88,0,101.76,0,152.63,0
	C381.33,1.23,382.16,1.29,382.99,1.33z"/>
<path class="st4" d="M199.74,38.97c2.43,0.04,3.98,1.54,5.42,3.23c2.82,1.98,1.4,4.4,0.72,6.75c-0.81,1.71-1.53,3.49-3.06,4.74
	c-1.36,0.77-2.77,1.48-3.85,2.67c-0.33,0.33-0.69,0.63-1.06,0.91c-0.58,0.43-1.21,0.74-1.88,0.98c-4.42,1.94-8.97,1.29-13.63,1.2
	c-5.92-0.11-11.85,1.48-17.86,1.19c-0.66,0.02-0.19,0.82-0.26,0.16c-0.01-0.06,0.12-0.06,0.36-0.09c3.05-0.31,5.37-0.09,3.82,4.08
	c-0.46,1.22,0.64,2.52,1.02,3.79c1.37,4.54,0.28,6.85-4.15,8.65c-3.4,1.38-7.1,1.79-10.54,3.06c-1.06,0.39-2.43,0.85-2.11,2.33
	c0.25,1.14,1.51,1.1,2.48,1.23c0.66,0.09,1.33,0.1,1.99,0.16c2.79,0.23,4.74,1.59,5.46,4.33c0.78,2.98-1.13,4.58-3.29,6.07
	c-1.46,1.01-4.99,0.7-2.41,4.45c0.96,1.4-2.55,2.16-3.41,4.26c3.98,1.24,7.85,1.16,11.76,1.08c2.06-0.04,4.98-0.99,4.92,2.87
	c-5.38,4.08-11.59,2.24-17.5,2.47c-1.93-0.05-3.72-0.91-5.65-0.95c-4.58-0.52-9.12-1.31-13.61-2.38c-4.07-0.97-8.18-2.72-12.17,0.38
	c-0.36,0.28-0.82-0.28-0.97-0.79c-0.51-3.51-1.02-7.02-1.54-10.53c-1.08-1.66-0.81-3.54-0.68-5.32c0.28-3.8,0.48-7.37-1.52-11.03
	c-1.73-3.17-0.25-4.93,3.65-5.38c2.82-0.33,5.27-1.53,8.82-2.76c-3.48-1.71-5.42-0.3-7.39,0.66c-5.06,2.47-5.97,2.05-7.89-3.23
	c-0.64-1.76-1.11-3.5-0.98-5.32c0.21-3.02-1.62-3.01-3.72-2.77c-6-6.05-5.26-14.3,1.67-19.06c4.6-3.16,9.6-5.22,15.2-5.67
	c-0.01,3.86-3.58,3.76-5.78,5.19c-1.19,0.77-3.31,0.9-3.09,2.73c0.2,1.67,2.12,1.96,3.54,2.29c4.53,1.07,9.1,1.97,13.69,2.76
	c2.74,0.47,5.27-0.26,7.7-1.48c7.92-3.95,9.21-3.79,15.89,1.96c0.76,0.65,1.48,1.34,2.1,2.13c1.78,4.09,5.03,5.01,9.23,4.95
	c4.68-0.07,9-1.97,13.63-2.07c1.72,0,3.46-0.1,5.12,0.48c0.42,0.22,0.79,0.51,1.05,0.93c-0.03-0.16-0.1-0.41-0.23-0.81
	c1.04-2.58,3.61-2.69,5.67-3.56c6.29-2.64,6.86-3.75,5-10.09C199.23,40.18,199.29,39.53,199.74,38.97z"/>
<path class="st1" d="M120.28,105.81c0.32,0.07,0.76,0.31,0.95,0.18c1.86-1.3,6.3-2.25,8.8-1.79c5.67,1.03,11.34,2.07,17.01,3.1
	c1.81,1.33,3.29,2.98,3.02,5.35c-0.9,7.74-0.28,15.51-0.64,23.25c-0.05,1.16-0.3,2.29-0.97,3.28c-5.71,2.83-11.81,1.12-17.73,1.53
	c-0.25-0.17-0.49-0.35-0.74-0.53c-0.95-2.68-1.04-5.46-0.96-8.27c0.04-1.47,0.37-3.38-1.08-4.11c-6-3.03-5.2-9.28-6.73-14.28
	C120.48,111.17,119.32,108.52,120.28,105.81z"/>
<path class="st4" d="M190.35,151.05c-0.05,0.33-0.17,0.66-0.14,0.98c1.16,11.37-5.69,16.66-15.15,19.96
	c-2.94,1.02-5.81,2.4-9.06,2.08c0.14-3.03,3.73-2.34,5-4.86c-4.56-0.59-7.34-3-8.26-7.57c-0.44-2.18-2.44-3.01-4.62-3.05
	c-3.48-0.06-6.96-0.27-10.42,0.19c-3.36,0.45-6.72,1.7-9.59-1.57c-0.71-0.81-2.57-0.86-3.75,0.01c-1.26,0.94-0.95,2.37-0.66,3.67
	c0.47,2.15,1.77,3.89,2.91,5.72c0.9,1.44,2.57,2.8,1.17,4.83c-6.71-2.6-9.96-7.74-10.68-14.68c-0.36-3.43-1.5-6.79-0.96-10.3
	c0.6-1,1.57-1.2,2.62-1.21c0.49,0.02,0.97,0.1,1.44,0.22c2.17,0.75,4.39,1.35,6.61,1.98c1.11,0.31,2.81,0.71,2.85,1.69
	c0.39,8.12,5.87,3.75,9.47,3.98c6.31,0.33,12.62,0.52,18.9,1.18c3.43,3.62,6.44,2.52,9.26-0.84
	C181.57,152.22,185.56,149.41,190.35,151.05z"/>
<path class="st2" d="M137.77,171.42c-0.31-1.89-1.45-3.3-2.66-4.68c-1.33-1.52-2.51-3.24-2.85-5.18c-0.37-2.13-1.51-4.69,1.05-6.31
	c1.5-0.95,4.41,0.3,6.46,2.32c1.35,1.33,3.16,0.83,4.58,0.47c4.43-1.12,8.89-0.94,13.36-0.93c5.03,0.01,5.94,0.51,6.72,5.34
	c0.61,3.72,2.13,5.36,5.92,4.64c1.4-0.26,2.86-0.03,3.22,1.55c0.36,1.61-1.04,2.2-2.27,2.81c-1.76,0.88-3.83,1.13-5.3,2.6
	c-5.53,1.27-11.12,1.45-16.75,1.04c-2.05-1.36-4.53-0.57-6.71-1.38C140.87,173.1,138.91,173.13,137.77,171.42z"/>
<path class="st1" d="M158.81,51.48c-1.92-1.55-3.86-3.08-5.75-4.67c-2.52-2.12-5.19-2.18-7.69-0.23c-4.71,3.66-9.88,4.3-15.39,2.61
	c-4.4-1.35-9.18-1.22-13.35-3.47c-1.01-0.54-2.32-0.85-2.43-2.21c-0.14-1.62,1.33-2.05,2.4-2.81c2.93-2.08,7.15-1.88,9.3-5.3
	c5.32-1.9,10.63-3.93,16.47-2.9c1.16,1.37,2.83,0.51,4.18,0.96c1.68,0.57,3.81,1.07,1.75,3.56c-6.27,2.16-12.98,2.11-19.38,3.92
	c4.46,1.7,8.94,2.26,13.65,1.3c3.43-0.7,6.98-0.74,10.42,0.02C158.03,43.39,160.27,47.1,158.81,51.48z"/>
<path class="st1" d="M128.92,146.38c-0.93,0.02-1.85,0.04-2.78,0.06c-0.08-1.95-0.18-3.81-1.57-5.46c-0.82-0.98-1.06-2.57,0.31-3.43
	c1.18-0.74,2.2,0.11,2.83,1.14c0.55,0.89,1.12,1.58,2.27,1.5c0.14,0.13,0.29,0.27,0.43,0.4c3.14,3.38,7.34,3.9,11.59,4.25
	c2.09,0.17,4.25-0.12,6.21,0.93c1.72,2.07,3.82,2.01,6.3,1.55c3.41-0.63,6.97-1.09,9.82,1.8c0.33,0.8,0.29,1.57-0.18,2.3
	c-2.35,1.48-4.79,0.15-7.18,0.2c-3.25,0.07-6.65-0.47-8.93,2.72c-3.27,1.81-6.7,0.72-9.61-0.41c-3.86-1.49,0.11-2.77,0.48-4.41
	c-2.79-0.88-5.87-1.84-8.95-2.81c-0.32-0.3-0.01-0.95-0.6-1.1C129.3,145.9,129.16,146.16,128.92,146.38z"/>
<path class="st1" d="M109.03,60.13c0.85-0.37,1-1.26,1.46-1.93c0.62-0.9,1.46-1.39,2.54-1.01c1.18,0.42,1.16,1.52,1.1,2.49
	c-0.19,3.32-0.39,6.62,1.05,9.77c0.99,2.17,1.78,3.87,4.6,1.57c2.26-1.85,5.03-3.19,8.24-2.9c1.24,0.11,2.54,0.45,2.89,1.57
	c0.47,1.53-0.91,2.88-2.04,2.95c-3.87,0.24-7.17,3.8-11.23,1.61c-1.03,1.86-1.16,3.74,0.06,4.9c2.75,2.63,2.2,5.53,1.59,8.71
	c-0.46,2.42-0.39,4.94-0.55,7.42c-0.85-0.19-1.57-0.56-1.67-1.54C115.98,82.16,114.02,70.78,109.03,60.13z"/>
<path class="st4" d="M149.41,35.82c-1.09-1.52-2.46-2.05-4.29-1.4c-1.73,0.61-2.98,0.36-2.76-1.92c0.86-0.19,1.73-0.39,2.59-0.58
	c4.02-0.93,7.99-0.36,11.96,0.4c0.16,1.04-0.67,1.86-1.3,1.64c-2.87-0.99-1.98,1.64-2.75,2.64
	C151.53,37.16,150.25,37.45,149.41,35.82z"/>
<path class="st1" d="M202.08,53.06c0.9-1.3,1.8-2.59,2.7-3.89c4.64-2.72,9.84-1.92,14.54-1.23c6.93,1.01,13.91,2.24,20.68,4.23
	c10.97,1.28,22.01,1.82,32.93,3.77c8.76,1.56,17.71,2.01,26.51,3.35c5.62,0.86,11.22,0.93,16.85,0.91c1.62,0,2.97,0.34,3.64,2
	c-37.38,0.01-74.75,0.01-112.13,0.02c-7.04,0-6.9,0.02-7.9,6.95c-0.52,3.58-1.37,7.14-3.15,10.38c-2.44,8.73-3.57,9.38-11.84,5.35
	c-4.04-1.97-7.79-0.71-11.59,0.01c-2.33,0.44-1.83,2.05-0.24,3.07c2.61,1.66,2.82,3.76,1.74,6.4c-1.65,4.05,0.5,7.66,1.49,11.41
	c-1.81,2.12-3.83,2-5.96,0.54c-0.84-1.09-2.07-1.17-3.18-0.86c-4.28,1.2-8.53-0.22-12.8,0.01c-1.35,0.07-3.37,0.48-3.33-1.82
	c0.03-1.63,0.45-3.37,2.68-3.55c0.98-0.08,2.04,0,2.58-1.16c-1.06-2.01-3.69-0.9-5.35-2.67c2.55-1.79,5.79-1.43,8.06-3.28
	c1.38-1.12,3.44-1.75,2.56-4.18c-0.79-2.17-1.92-3.86-4.69-3.44c-1.14,0.17-2.32,0.02-3.49,0.03c-1.62,0.01-3.02-0.37-3.38-2.22
	c-0.35-1.78,0.75-3.02,2.11-3.58c2.44-1,5.03-1.64,7.57-2.36c1.59-0.45,3.25-0.69,4.81-1.21c4.69-1.58,5.41-3.35,3.33-7.87
	c-1.91-4.16-1.91-4.16,0.33-7.02c-2.64,0-5.09,0-7.53,0c0-0.14-0.01-0.28-0.01-0.42c7.83-1.18,15.67-2.37,23.5-3.55
	c4.15,3.53,8.29-0.45,12.43-0.01c0.61-0.15,1.06-0.53,1.41-1.04l-0.07,0.02C199.53,55.43,200.98,54.49,202.08,53.06z"/>
<path class="st3" d="M170.36,106.33c1.86-0.51,4.11,0.83,5.65-1.21c2.39-2.48,5.03-2.91,7.97-1.01c1.82,5.38-0.07,9.11-4.98,11.68
	c-1.13,0.59-1.81,1.98-2.87,2.75c-4.68,3.37-6.41,7.38-3.01,12.62c1.58,2.44,0.37,4.8-0.11,7.19c-4.99,3.59-10.41,4.1-16.16,2.23
	c-2.9-3.97-4.37-8.37-4.33-13.34c0.04-5.42,0.46-10.87-1.06-16.2c-0.28-0.97-0.14-1.96,0.55-2.8c5.33-0.88,10.79,0.18,16.1-1.1
	C168.9,106.95,169.72,106.93,170.36,106.33z"/>
<path class="st4" d="M183.98,104.11c-2.69,0.07-5.35,0.39-7.97,1.01c-3.57-3.14-4.42-7.02-2.03-11.9c1.17-2.39,1.27-3.66-1.6-4.23
	c-1.59-0.32-2.98-1.18-2.79-2.92c0.22-1.97,1.92-2.46,3.69-2.62c1.97-0.18,3.93-0.4,5.87-0.92c2.13-0.56,4.24-0.5,5.97,1.32
	c0.54,0.57,1.4,0.88,2.16,1.2c5.6,2.4,6.53,1.92,7.81-4.09c0.21-1,0.7-1.41,1.65-1.42c0.03,4.65-1.05,9.18-1.4,13.77
	c-0.29,3.75-1.97,5.99-5.29,7.6C188.02,101.91,185.69,102.46,183.98,104.11z"/>
<path class="st4" d="M157.02,139.8c5.39,0.25,10.79,0.57,15.98-1.45c1.4,0.9,2.85,0.96,4.2-0.01c1.74-1.26,3.76-1.17,5.72-1.42
	c4.88-1.23,5.41-0.88,5.76,3.78c-1.03,2.04-2.97,2.63-4.96,2.71c-9.76,0.41-19.24,2.82-28.91,3.84c-2.31,0.24-4.6,0.71-6.71-0.71
	c-4.33-0.8-8.81-0.15-13.08-1.4c-2.31-0.68-4.92-1.17-4.62-4.55c3.18-2.04,6.73-1.39,10.19-1.42c2.49-0.02,4.98-0.06,7.46-0.1
	C151.21,137.3,154.11,138.6,157.02,139.8z"/>
<path class="st1" d="M187.98,141.13c1.02-4.67-2.45-3.92-5.06-4.2c2.45-3.49,5.94-5.88,9.06-8.67c0.24,6.42-0.94,12.69-1.9,18.99
	c-2.22,2.1-4.78,2.55-7.62,1.58c-0.49-0.26-0.75-0.68-0.78-1.23C183.38,145.06,186.95,144.33,187.98,141.13z"/>
<path class="st0" d="M182.54,148.24c2.65,0.72,4.97-1.11,7.55-0.99c1.35,1.18,1.23,2.46,0.26,3.8c-4.75,0.34-8.99,2.9-13.77,3.13
	c-2.25,1.82-4.75,1.61-7.32,0.95c-7.08-0.35-14.19,0.24-21.24-0.79c-0.3-2.97,1.07-4.05,4.01-4.16c4.12-0.17,8.14,0.56,12.2,0.87
	c2.91-2.17,6.33,0.52,9.31-0.98c1.42-0.19,2.83-0.44,4.21-0.84C179.37,149.01,180.82,147.98,182.54,148.24z"/>
<path class="st1" d="M152.59,35.82c-1.05-4.26,3.06-2.12,4.33-3.5c4.27-2.1,8.68-1.05,13.06-0.55c0.53,0.96,1.18,1.33,2.08,0.41
	c8.16-0.18,16.09,0.93,23.7,4.05c1.57,0.64,3.04,1.27,3.98,2.74c0.18,0.61,0.22,1.31,0.55,1.82c3.33,5.21,2.89,6.58-2.38,9.97
	c-2.84,1.83-6.77,1.38-8.93,4.47l0.05-0.04c-2.01-0.01-4.02-0.02-6.04-0.02c-1.06-4.26,2.31-5.3,5.02-6.62
	c1.91-0.93,4.14-1.21,5.84-2.63c0.98-0.82,2.47-1.42,2.11-3.05c-0.32-1.47-1.7-1.98-2.96-2.35c-5.42-1.6-11.04-2.68-16.62-2.72
	c-7.12-0.04-14.15-1.65-21.28-0.89C154.12,37.01,153.07,36.99,152.59,35.82z"/>
<path class="st0" d="M240.01,52.17c-3.52,0.66-7.07-0.23-10.21-1.17c-8.29-2.51-16.67-1.48-25.02-1.82
	c0.27-2.32,1.39-4.58,0.38-6.97c4.71,0.55,9.28,2.09,14.08,2.06c0.47,0,1.14,0.07,1.4,0.38c4.52,5.49,11.29,4.03,17.09,5.52
	C238.99,50.49,239.92,50.72,240.01,52.17z"/>
<path class="st4" d="M172.06,32.18c-0.12,0.78-0.15,1.79-1.28,1.56c-1.04-0.2-0.83-1.18-0.79-1.97
	C170.67,31.91,171.36,32.05,172.06,32.18z"/>
<path class="st0" d="M152.59,35.82c13.72-0.59,27.33,0.2,40.77,3.26c1.53,0.35,2.94,0.64,3.86,1.94c1.23,1.76,2.61,3.06-0.75,4.78
	c-2.71,1.39-4.95,3.37-8.23,3.96c-2.53,0.46-4.75,2.37-5.25,5.39c-5.01,0.92-9.88,2.45-15.12,2.25c-6.48-0.24-6.49,0.01-9.05-5.93
	c-0.42-5.67-2.82-8.17-8.26-8.25c-3.28-0.05-6.52-0.01-9.83,0.76c-5.65,1.31-10.78-1.45-16.13-3.04c8.12-2.75,16.58-3.4,24.81-5.14
	C150.47,35.82,151.53,35.82,152.59,35.82z"/>
<path class="st0" d="M157.02,139.8c-3.08,0.83-6-0.29-8.98-0.74c-0.01-7.32-0.4-14.67,0.14-21.95c0.26-3.5,0.66-6.7-1.16-9.82
	c1.8-0.44,3.33,0.53,4.97,0.94c1.81,4.83,2.59,9.85,1.95,14.94C153.21,129.1,155.07,134.43,157.02,139.8z"/>
<path class="st1" d="M149.44,58.25c-2.04-0.4-4.34,0.37-6.16-1.3c3.55-2.77,5.27-2.4,6.33,1.28L149.44,58.25z"/>
<path class="st0" d="M202.08,53.06c-0.16,2.69-1.81,3.37-4.17,3.09C198.89,54.57,199.87,52.99,202.08,53.06z"/>
<path class="st2" d="M149.44,58.25l0.16-0.01c0.72,0.4,1.45,0.8,2.23,1.23C149.1,59.94,149.1,59.94,149.44,58.25z"/>
<path class="st1" d="M125.88,86.55c-1.38,0.83-2.46,1.17-3.47,0.22c-0.33-0.31-0.4-0.92,0.14-1.25
	C123.74,84.83,124.68,85.21,125.88,86.55z"/>
<path class="st1" d="M188.97,55.23c0.74,0.46,1.93-0.43,2.35,0.75c0.07,0.19-0.52,0.83-0.89,0.93c-1.62,0.44-1.13-0.98-1.42-1.72
	L188.97,55.23z"/>
<path class="st1" d="M196.96,54.18c-0.36,0.84-1.01,1.16-1.87,0.92c-0.15-0.04-0.34-0.55-0.31-0.58c0.69-0.51,1.47-0.39,2.25-0.28
	L196.96,54.18z"/>
<path class="st0" d="M197.98,56.13c-0.23,0.66-0.75,0.95-1.41,1.04C196.87,56.59,197.25,56.13,197.98,56.13z"/>
<path class="st1" d="M197.03,54.25c-0.03-0.41,0.11-0.58,0.43-0.48c0.01,0-0.01,0.24-0.07,0.28c-0.12,0.08-0.28,0.09-0.43,0.13
	L197.03,54.25z"/>
<path class="st2" d="M169.26,155.12c2.28-1.53,4.89-0.57,7.32-0.95c0.48,3.08-1.51,3.91-3.94,4.09
	C170.54,158.41,168.61,158.08,169.26,155.12z"/>
<path class="st0" d="M128.92,146.38c0.1-0.57-0.02-1.26,0.76-1.48c0.08,0.61,0.17,1.21,0.25,1.82
	C129.6,146.6,129.26,146.49,128.92,146.38z"/>
<path class="st4" d="M140.77,168.31c2.86-1.36,4.34-0.43,6.33,1.08C144.52,170.49,143.13,169.14,140.77,168.31z"/>
<path class="st0" d="M187.98,141.13c0.9,4.95-2.93,5.22-6.09,6.16c-1.05,0.94-2.32,1.2-3.67,1.23c-2,0.08-4.04-0.15-5.99,0.53
	c-1.46,0.36-2.95,0.6-4.4,1.01c-1.29,0.14-2.57,0.23-3.64-0.72c-3.69-1.26-7.34-1.58-11.2-0.38c-2,0.63-4.49,0.85-4.89-2.42
	c12.09-0.86,23.87-4.2,36.04-4.48C185.42,142.02,186.7,141.45,187.98,141.13z"/>
<path class="st4" d="M164.19,149.33c1.3-0.44,2.63-0.57,3.98-0.27c1.76,0.91,4.61-1.34,5.56,1.92c-3.15,2.04-6.33-0.48-9.49,0.06
	C164.22,150.47,164.2,149.9,164.19,149.33z"/>
<path class="st4" d="M170.89,99.87c-0.1,0.75-0.54,1.23-1.28,1.22c-0.73,0-1.32-0.46-1.26-1.21c0.05-0.68,0.62-1.27,1.31-1.3
	C170.38,98.55,170.79,99.14,170.89,99.87z"/>
<path class="st4" d="M178.3,147.42c1.2-0.05,2.39-0.09,3.59-0.14c0.21,0.32,0.43,0.64,0.64,0.96c-1.04,1.75-2.64,2.17-4.52,1.95
	c-0.59-0.49-0.76-1.13-0.66-1.87C177.52,147.86,177.83,147.55,178.3,147.42z"/>
<path class="st2" d="M177.61,148.38c0.13,0.6,0.27,1.21,0.4,1.81c-1.36,0.63-2.8,0.86-4.29,0.79c-1.5-1.65-4.49,0.97-5.56-1.92
	c1.26-0.36,2.51-0.72,3.77-1.08C173.85,147.8,175.79,147.17,177.61,148.38z"/>
<path class="st1" d="M177.61,148.38c-1.89-0.13-3.79-0.27-5.68-0.4c2.01-1.53,4.22-0.69,6.37-0.56
	C178.07,147.74,177.84,148.06,177.61,148.38z"/>
<g>
</g>
<g>
</g>
<g>
</g>
<g>
</g>
<g>
</g>
<g>
</g>
<g>
</g>
<g>
</g>
<g>
</g>
<g>
</g>
<g>
</g>
<g>
</g>
<g>
</g>
<g>
</g>
<g>
</g>
</svg>
