<?xml version="1.0" encoding="utf-8"?>
<!-- Generator: Adobe Illustrator 17.1.0, SVG Export Plug-In . SVG Version: 6.00 Build 0)  -->
<!DOCTYPE svg PUBLIC "-//W3C//DTD SVG 1.1//EN" "http://www.w3.org/Graphics/SVG/1.1/DTD/svg11.dtd">
<svg version="1.1" id="Layer_1" xmlns="http://www.w3.org/2000/svg" xmlns:xlink="http://www.w3.org/1999/xlink" x="0px" y="0px"
	 viewBox="0 0 286.19 194.45" style="enable-background:new 0 0 286.19 194.45;" xml:space="preserve">
<style type="text/css">
	.st0{fill:#120000;}
	.st1{fill:#070001;}
	.st2{fill:#FC7C7C;}
	.st3{fill:#530101;}
	.st4{fill:#AC0101;}
	.st5{fill:#E60203;}
</style>
<g>
	<path class="st0" d="M166.14,0.02c39.64,0,79.28,0,118.92-0.02c0.9,0,1.1,0.2,1.1,1.1c-0.02,63.56-0.02,127.12-0.02,190.68
		c-0.2-0.11-0.48-0.18-0.6-0.35c-1.01-1.43-2.47-2.24-3.97-3.02c-4.76-2.48-9.94-3.73-15.09-5.03c-10.97-2.75-22.14-4.63-33.04-7.67
		c-3.58-1-7.14-2.09-10.43-3.88c-1.48-0.8-3.17-1.58-3.7-3.25c-0.54-1.73-1.74-2.1-3.18-2.42c-8.2-1.8-16.49-3.05-24.77-4.34
		c-11-1.71-22.02-3.27-33.03-4.89c-10.18-1.5-20.36-3-30.54-4.52c-3.24-0.48-6.47-1.01-9.69-1.59c-1.59-0.29-2.15-1.1-2.11-2.7
		c0.03-1.16,0.43-2.19,1.22-3.04c0.46-0.5,0.96-0.96,1.44-1.45c0.57-0.58,0.89-1.27,0.59-2.07c-0.29-0.76-1-1-1.73-1.1
		c-0.87-0.13-1.74-0.2-2.62-0.28c-1.52-0.15-2.86-0.66-3.94-1.8c-2.09-2.2-2.57-5-2.85-7.83c-0.12-1.2-0.4-2.09-1.56-2.71
		c-1.79-0.96-3.34-2.22-3.83-4.37c-0.31-1.36-0.14-2.7,0.12-4.04c0.26-1.37-0.27-2.41-1.51-2.88c-0.79-0.3-1.62-0.44-2.47-0.36
		c-1.7,0.17-2.53,1.01-2.51,2.74c0.02,1.73-0.13,3.42-0.49,5.11c-0.36,1.68-0.56,3.39-0.48,5.11c0.08,1.84-0.19,3.66-0.37,5.49
		c-0.25,2.65-1.34,4.98-2.75,7.19c-1.38,1.91-3.3,3.05-5.47,3.86c-0.54,0.2-1.14,0.39-1.49,0.93c-3.2,0.56-6.43,0.44-9.65,0.5
		c-1.23,0.02-2.46,0.19-3.59,0.74c-0.78,0.33-1.57,0.67-2.35,1c-2.51-0.38-5-0.87-7.58-0.79c-2.94,0.09-5.89,0.04-8.84,0
		c-1.9-0.02-2.72-0.7-3.03-2.36c1.78-0.35,3.58-0.25,5.37-0.31c1.87-0.06,3.75-0.11,5.42-1.15c0.72-0.05,1.44-0.11,2.16-0.16
		c0.78,0.87,1.71,0.49,2.62,0.32c1.6,0.88,2.61,0.63,3.39-0.85c1.52-0.98,3.11-0.88,4.74-0.32c0.86,0.3,1.7,0.66,2.58,0.89
		c2.24,0.58,3.82-0.15,4.46-1.97c0.67-0.08,1.35-0.16,2.02-0.25c1.97,1.63,3.96,1.75,5.4-0.72c0.69-0.46,1.42-0.87,2.05-1.4
		c1.07-0.89,1.07-1.75,0-2.67c-0.65-0.56-1.38-1.04-2.07-1.56c-0.47-0.75-1.14-1.25-2.03-1.08c-0.79,0.15-1.13,0.79-1.09,1.59
		l0.04,0.06c-0.31,0.15-0.57,0.38-0.96,0.43c-1.69,0.23-3.37,0.49-5.06,0.74c-0.84-0.91-1.98-1.02-3.11-1.16
		c0.23-3.48-0.52-6.73-2.33-9.73c-0.28-0.47-0.4-1.04-0.6-1.56c-0.43-1.13-0.18-1.97,0.88-2.65c2.03-1.3,3.63-3.11,5.22-4.89
		c1.79-2,3.61-3.93,5.97-5.26c1.87-1.06,2.22-1.86,1.69-3.93c-0.41-1.63-0.67-3.27-0.79-4.94c0.38-0.2,0.76-0.41,1.15-0.61
		c2.04-1.03,4.24-1.77,6.12-3.11c1.91-0.44,3.13-1.63,3.76-3.46c0.97-1.41,0.45-3.04,0.69-4.56c0.61-1.64,0.3-3.31,0.13-4.98
		c1.82-6.73,3.42-13.51,4.33-20.44c0.52-3.97,0.81-7.93-0.41-11.84c0.41-0.32,0.81-0.63,1.22-0.95c3.88-2.97,5.72-6.73,4.47-11.67
		c4.18,0.84,8.38,1.65,12.64,1.98c1.82,0.14,3.62,0.8,5.45,0.42c13.11-2.71,26.18-5.62,39.12-9.04c8.51-2.24,16.96-4.66,25.17-7.85
		c4.03-1.56,7.98-3.28,11.41-6c2.44-1.94,3.12-5.13,0.1-7.19c-1.67-1.14-3.43-2.06-5.27-2.82c-5.82-2.39-11.94-3.83-17.98-5.52
		c-3.42-0.96-6.88-1.84-10.08-3.44C167.32,1.68,166.33,1.23,166.14,0.02z"/>
	<path class="st1" d="M92.22,141.84c1.41-2.21,2.5-4.55,2.75-7.19c0.17-1.82,0.45-3.65,0.37-5.49c-0.08-1.73,0.13-3.43,0.48-5.11
		c0.36-1.69,0.51-3.39,0.49-5.11c-0.02-1.73,0.8-2.57,2.51-2.74c0.85-0.08,1.68,0.06,2.47,0.36c1.24,0.47,1.78,1.5,1.51,2.88
		c-0.26,1.34-0.43,2.68-0.12,4.04c0.49,2.14,2.04,3.41,3.83,4.37c1.16,0.63,1.44,1.51,1.56,2.71c0.28,2.83,0.76,5.63,2.85,7.83
		c1.08,1.13,2.43,1.64,3.94,1.8c0.87,0.09,1.75,0.16,2.62,0.28c0.73,0.11,1.45,0.34,1.73,1.1c0.3,0.8-0.01,1.49-0.59,2.07
		c-0.48,0.48-0.97,0.95-1.44,1.45c-0.79,0.86-1.2,1.88-1.22,3.04c-0.03,1.61,0.52,2.41,2.11,2.7c3.22,0.58,6.45,1.1,9.69,1.59
		c10.18,1.52,20.36,3.02,30.54,4.52c11.01,1.63,22.03,3.18,33.03,4.89c8.28,1.29,16.57,2.55,24.77,4.34
		c1.44,0.31,2.63,0.69,3.18,2.42c0.52,1.67,2.22,2.45,3.7,3.25c3.29,1.79,6.85,2.88,10.43,3.88c10.9,3.04,22.07,4.93,33.04,7.67
		c5.16,1.29,10.33,2.54,15.09,5.03c1.49,0.78,2.96,1.59,3.97,3.02c0.12,0.17,0.4,0.23,0.6,0.35c0,0.56,0,1.12,0,1.68
		c-0.52-0.03-1.03-0.08-1.55-0.08c-53.17-0.01-106.33-0.01-159.5-0.01c-0.59-0.44-1.28-0.39-1.96-0.39c-23.27,0-46.55,0-69.82,0
		c-1.4,0-2.77,0.37-4.18,0.25c-1.14-0.09-1.83-0.6-2.11-1.75c-0.57-2.39,0.28-4.43,1.57-6.31c1.97-2.87,4.95-4.02,8.21-4.67
		c1.47-0.29,2.95-0.13,4.41-0.31c0.78-0.09,1.73-0.49,1.7-1.24c-0.03-0.71-1.07-0.54-1.71-0.61c-3.01-0.31-6.02-0.63-9.04-0.88
		c-1.55-0.13-3.25-0.57-4.13,1.37c-0.95,0.07-1.91,0.13-2.86,0.2c0-1.24,0.01-2.48,0.01-3.72c2.51-0.31,5.03-0.5,7.5-1.08
		c0.14,0.03,0.28,0.05,0.41,0.08c2.74,1.7,5.5,1.5,8.27,0.06c0.56,0,1.13,0,1.69,0c0.28,0.09,0.55,0.07,0.81-0.08
		c1.36-0.11,2.81,0.09,3.9-1.04c1.49,0.15,2.95-0.02,4.4-0.33c6.35-1.34,11.71-4.75,17-8.25c2.27-1.5,3.21-3.89,2.85-6.69
		c-0.17-1.32,0.08-2.63,0.32-3.92c0.25-1.33,0.51-2.66,0.77-3.99c0.02-1.67,0.05-3.33,0.07-5C93.2,143.91,92.92,142.81,92.22,141.84
		z"/>
	<path class="st1" d="M166.14,0.02c0.19,1.21,1.18,1.66,2.1,2.12c3.2,1.6,6.66,2.48,10.08,3.44c6.04,1.69,12.16,3.12,17.98,5.52
		c1.84,0.76,3.6,1.68,5.27,2.82c3.03,2.06,2.34,5.25-0.1,7.19c-3.43,2.72-7.38,4.44-11.41,6c-8.21,3.18-16.67,5.6-25.17,7.85
		c-12.95,3.42-26.01,6.32-39.12,9.04c-1.83,0.38-3.63-0.28-5.45-0.42c-4.26-0.34-8.45-1.14-12.64-1.98c-0.72-1-1.72-1.72-2.55-2.61
		c0.31-1.09,1.16-1.57,2.16-1.87c0.74-0.22,1.44-0.51,1.87-1.21c0.37-0.6,0.24-0.98-0.5-1.07c-1.11-0.13-2.16,0.12-3.15,0.57
		c-1.41,0.64-2.86,0.99-4.42,0.85c-1.99-0.96-4.17-1.36-6.28-1.9C84.67,31.75,74.35,30.63,63.87,31c-1.03,0.04-2.08-0.15-3.09,0.2
		c-4.49-0.1-8.97-0.2-13.46-0.3c0.16-2.01,0.94-2.85,3.17-3.25c2.32-0.41,4.64-0.82,6.75-1.96c1.12-0.61,1.84-1.5,2.23-2.69
		c0.43-1.32,0.5-2.69,0.25-4.03c-0.66-3.52,0.63-6.21,3.46-8.18c1.83-1.27,3.86-1.99,6.08-0.87c3.43,1.73,7.11,2.58,10.85,3.31
		c3,0.58,5.51-0.08,7.7-2.18c1.07-1.03,2.02-2.16,2.94-3.31c1.62-2.02,3.24-4.03,5.16-5.8c0.79-0.73,1.97-0.91,2.54-1.91
		C121.02,0.02,143.58,0.02,166.14,0.02z"/>
	<path class="st0" d="M98.46,0.02c-0.57,1-1.75,1.18-2.54,1.91C94,3.69,92.38,5.7,90.76,7.72c-0.92,1.15-1.87,2.28-2.94,3.31
		c-2.19,2.1-4.7,2.77-7.7,2.18c-3.74-0.73-7.42-1.58-10.85-3.31c-2.23-1.12-4.26-0.4-6.08,0.87c-2.83,1.96-4.12,4.66-3.46,8.18
		c0.25,1.34,0.18,2.71-0.25,4.03c-0.39,1.19-1.1,2.08-2.23,2.69c-2.12,1.14-4.43,1.55-6.75,1.96c-2.23,0.4-3.01,1.24-3.17,3.25
		c-1.03,0.67-2.06,1.35-3.09,2.02c-0.6,0.02-1.19-0.03-1.78-0.15c-2.29-0.46-4.6-0.49-6.9-0.2c-4.86,0.61-9.28,2.54-13.64,4.63
		c-2.17-0.21-4.15,0.38-6,1.47c-0.48,0.04-0.95,0.08-1.43,0.12c-1.59,0.15-3.16,0.48-4.76,0.3c-2.65-0.29-5.3-0.69-7.96-0.84
		c-1.28-0.07-1.48-0.55-1.47-1.67C0.31,24.39,0.3,12.21,0.3,0.02C33.02,0.02,65.74,0.02,98.46,0.02z"/>
	<path class="st2" d="M121.98,194.42c-40.28,0-80.56,0-120.84,0.02c-0.9,0-1.11-0.2-1.1-1.1c0.04-11.08,0.02-22.16,0.02-33.24
		c0.07,0.03,0.14,0.05,0.21,0.06c-0.21,0.88,0.3,1,1,1c6.27-0.03,12.54-0.02,18.81-0.1c1.4-0.02,2.52,0.25,3.28,1.47
		c0.76,1.11,1.63,1.89,3.14,2.05c2.27,0.24,2.9,1.43,2.22,3.76c-1.41,4.86-2.86,9.72-4.3,14.57c-1.1,3.7-2.2,7.4-3.34,11.24
		c0.59,0,1.06,0,1.53,0c32.46-0.02,64.92-0.03,97.38-0.05c0.8,0,1.6,0.06,2.39,0.1C122.31,194.39,122.18,194.46,121.98,194.42z"/>
	<path class="st0" d="M122.39,194.2c-0.8-0.03-1.6-0.1-2.39-0.1c-32.46,0.01-64.92,0.03-97.38,0.05c-0.47,0-0.93,0-1.53,0
		c1.14-3.83,2.24-7.53,3.34-11.24c1.44-4.86,2.89-9.71,4.3-14.57c0.68-2.34,0.05-3.52-2.22-3.76c-1.51-0.16-2.37-0.93-3.14-2.05
		c1.14-0.49,0.96-1.43,0.8-2.36c1.91-0.45,3.84-0.77,5.78-1.03c1.01,2.17,2.08,4.3,3.49,6.24c1.67,2.29,3.69,4.16,6.43,5.11
		c0.11,0.18,0.22,0.36,0.33,0.53c0.06,1.39,0.85,2.33,1.95,3.05c0.93,0.62,1.98,0.94,3.05,1.24c0,1.24-0.01,2.48-0.01,3.72
		c0.06,0.79-0.35,1.09-1.09,0.99c-0.55-0.07-1.11-0.12-1.64-0.27c-0.76-0.21-1.46-0.23-1.84,0.59c-0.37,0.8-0.02,1.48,0.58,2.02
		c1.4,1.26,3.29,0.74,3.83-1.09c0.19-0.66,0.36-0.88,1.12-0.72c1.08,0.24,1.7-0.41,1.9-1.72c0.88-1.94,2.58-1.51,4.13-1.37
		c3.02,0.26,6.03,0.58,9.04,0.88c0.64,0.06,1.68-0.1,1.71,0.61c0.03,0.75-0.92,1.15-1.7,1.24c-1.46,0.18-2.95,0.01-4.41,0.31
		c-3.26,0.65-6.24,1.8-8.21,4.67c-1.29,1.89-2.15,3.92-1.57,6.31c0.28,1.15,0.98,1.65,2.11,1.75c1.41,0.12,2.78-0.25,4.18-0.25
		c23.27,0.01,46.55,0,69.82,0c0.68,0,1.37-0.05,1.96,0.39c-0.32,0.35-0.64,0.7-0.96,1.05c-0.4,0-0.8,0-1.2,0
		C122.8,194.24,122.63,194.13,122.39,194.2z"/>
	<path class="st2" d="M124.14,194.42c0.32-0.35,0.64-0.7,0.96-1.05c53.17,0,106.33,0.01,159.5,0.01c0.52,0,1.03,0.05,1.55,0.08
		c0.18,0.82-0.14,0.98-0.96,0.98C231.5,194.42,177.82,194.42,124.14,194.42z"/>
	<path class="st2" d="M0.06,82.1c0-14,0-28,0-42c0.07,0.03,0.14,0.05,0.21,0.08c-0.1,5.32-0.1,10.64,0,15.96
		c-0.11,0.61-0.12,1.23,0.02,1.84c-0.02,1.36-0.02,2.71-0.08,4.06c-0.04,0.89,0.37,0.98,1.11,0.78c0.73-0.2,1.48-0.32,2.23-0.41
		c3.29-0.38,6.41,0.48,9.55,1.25l0.05,0.06c-0.87,1.24-1.71,2.51-2.61,3.73c-1.22,1.65-2.9,2.17-4.87,1.82
		C4.17,69,2.68,68.72,1.21,68.36c-0.73-0.18-1.04-0.09-1.01,0.73c0.05,1.35,0.05,2.71,0.07,4.07c-0.12,1-0.13,2,0,2.99
		c-0.09,1.98-0.11,3.97,0.01,5.95l0.02,0.02C0.22,82.1,0.14,82.1,0.06,82.1z"/>
	<path class="st3" d="M0.26,40.18c-0.07-0.02-0.14-0.05-0.21-0.08c0-13.04,0-26.08,0.01-39.12c0-0.31-0.27-0.74,0.23-0.96
		c0,12.18,0.01,24.37-0.02,36.55c0,1.12,0.2,1.6,1.47,1.67c2.66,0.15,5.31,0.55,7.96,0.84c1.61,0.18,3.18-0.15,4.76-0.3
		c0.48-0.05,0.95-0.08,1.43-0.12c-1.96,2.53-4.63,3.52-7.74,3.51C6.8,41.9,5.5,41.39,4.19,40.94C2.92,40.5,1.65,40.05,0.26,40.18z"
		/>
	<path class="st3" d="M0.27,160.16c-0.07-0.01-0.14-0.03-0.21-0.06c0-25.28,0-50.56,0-75.84l0.07-0.03c0,0,0.07,0.03,0.07,0.03
		c0.03,0.6,0.09,1.19,0.09,1.79c0,24.07,0,48.15,0.01,72.22c0,0.6,0.02,1.2,0.03,1.8L0.27,160.16z"/>
	<path class="st4" d="M0.19,84.26l-0.07-0.03l-0.07,0.03c0-0.72,0-1.44,0-2.16c0.08-0.01,0.16,0,0.23,0.01
		c0,0.68-0.01,1.35-0.01,2.03C0.24,84.17,0.21,84.21,0.19,84.26z"/>
	<path class="st3" d="M122.39,194.2c0.24-0.07,0.41,0.04,0.55,0.22c-0.32,0-0.64,0-0.96,0C122.18,194.46,122.31,194.39,122.39,194.2
		z"/>
	<path class="st3" d="M60.78,31.19c1.01-0.34,2.06-0.16,3.09-0.2c10.48-0.37,20.8,0.76,30.95,3.36c2.12,0.54,4.29,0.94,6.28,1.9
		c0.05,0.64-0.17,1.31,0.23,1.91c-0.08,0.91,0.36,1.62,0.95,2.24c0.74,0.79,1.42,1.62,1.96,2.56c1.06,1.82,0.93,2.92-0.64,4.35
		c-1.82,1.66-3.95,2.84-6.2,3.81c-2.98,1.29-6.1,2.15-9.18,3.14c-1.39,0.45-1.76,1.75-0.86,2.92c0.53,0.69,1.27,0.99,2.11,0.88
		c3-0.38,6.06-0.59,8.61-2.54c1.13-0.86,2.42-1.39,3.89-1.33c1.22,3.91,0.93,7.87,0.41,11.84c-0.91,6.92-2.52,13.7-4.33,20.44
		c-0.21-0.22-0.48-0.27-0.76-0.25c-1.83,0.13-3.5-0.47-5.16-1.12c-0.99-0.39-2.02-0.69-3.09-0.77c-0.73-0.41-1.46-0.83-2.19-1.24
		c0.1-0.68,0.21-1.35,0.31-2.03c0.77-2.48,1.42-5.01,1.56-7.59c0.14-2.67-0.28-5.24-2.4-7.24c-2.03-1.92-4.55-2.76-7.18-3.31
		c-2.37-0.5-4.78-0.87-7.16-1.29c0.39-1.43,1.29-2.64,1.77-4.03c1.44-0.29,2.92-0.34,4.34-0.82c3.57-1.21,6.58-3.4,9.7-5.41
		c2.62-1.7,5.31-3.26,8.39-4c0.84-0.2,1.55-0.65,2.21-1.17c1.02-0.8,2.07-1.5,3.38-1.71c0.74-0.11,0.73-0.49,0.38-0.99
		c-0.32-0.46-0.62-0.94-1.02-1.32c-2.06-1.92-4.53-3.09-7.23-3.81c-0.26-0.09-0.52-0.2-0.79-0.26c-7.91-1.84-15.94-2.74-24.03-3.03
		c-4.38-0.16-8.78-0.06-13.17-0.08c-0.86-2.79-0.86-2.79,2.19-2.81c0.24,0,0.48,0.01,0.71-0.03C59.58,32.05,60.33,31.91,60.78,31.19
		z"/>
	<path class="st1" d="M86.22,103.19c0.12,1.67,0.38,3.31,0.79,4.94c0.52,2.08,0.18,2.88-1.69,3.93c-2.37,1.34-4.19,3.26-5.97,5.26
		c-1.59,1.78-3.19,3.59-5.22,4.89c-1.06,0.68-1.32,1.52-0.88,2.65c0.2,0.52,0.32,1.09,0.6,1.56c1.81,3,2.55,6.25,2.33,9.73
		c-0.34,0.68-0.68,1.36-1.02,2.04c-0.35,0.22-0.73,0.4-0.92,0.8c-1.67,0-3.35-0.1-5.01,0.04c-2.74,0.23-5.47,0.5-8.19-0.11
		c-0.16-0.27-0.3-0.56-0.49-0.81c-1.93-2.58-3.57-5.31-4.01-8.58c-0.39-2.84,0.28-5.64,0.51-8.45c0.32-3.98-0.21-7.78-1.68-11.47
		c-0.29-0.73-0.8-1.39-0.82-2.23c1.5-0.07,3-0.15,4.5-0.22c3.64,0.25,7.27,0.28,10.88-0.25c3.36-0.49,6.71-1.04,10.06-1.56
		c0.08,0.22,0.22,0.43,0.24,0.66c0.05,0.5,0.13,0.99,0.67,1.16c0.57,0.17,0.98-0.22,1.35-0.58c0.83-0.8,0.64-1.82,0.58-2.81
		C83.94,103.59,85.08,103.39,86.22,103.19z"/>
	<path class="st5" d="M86.22,103.19c-1.14,0.2-2.28,0.4-3.42,0.59c-0.94,0.13-1.88,0.27-2.82,0.4c-0.55-0.22-1.11-0.43-1.65-0.68
		c-1.48-0.68-2.44-1.82-2.64-3.45c-0.26-2.13,0.08-4.22,0.71-6.25c0.39-1.25,1.33-1.74,2.61-1.52c0.78,0.13,1.56,0.32,2.33,0.51
		c0.47,0.11,0.71,0,0.9-0.48c0.62-1.55,0.14-2.88-1.4-3.66c-1.16-0.58-2.45-0.67-3.7-0.89c-0.1-1.61-0.78-3.1-0.99-4.69
		c0-0.21,0.01-0.42,0.01-0.63c2.63-0.27,5.26-0.54,7.9-0.81c0.86,0.63,1.82,1.06,2.8,1.45c0.73,0.41,1.46,0.83,2.19,1.24
		c0.1,1.11,0.16,2.23,0.31,3.33c0.29,2.24,0.7,2.42,2.57,1.2c2.52-1.64,4.04-1.18,5.25,1.61c0.17,0.39,0.22,0.88,0.75,0.99
		c-0.24,1.52,0.28,3.15-0.69,4.56c-0.62-0.11-0.79-0.61-0.92-1.11c-0.19-0.69-0.27-1.4-0.26-2.12c0.01-0.68-0.15-1.36-0.92-1.46
		c-0.81-0.11-1.5,0.25-1.8,1.06c-0.14,0.36-0.19,0.78-0.17,1.16c0.09,1.98,0.21,3.96,0.32,5.94c-1.89,1.34-4.08,2.08-6.12,3.11
		C86.98,102.78,86.6,102.99,86.22,103.19z"/>
	<path class="st5" d="M61.02,138.93c2.72,0.61,5.45,0.33,8.19,0.11c1.66-0.14,3.34-0.03,5.01-0.04c0.76,1.33,1.82,1.3,3.17-0.08
		c0.59-0.11,1.17-0.21,1.76-0.32c0.42,0.1,0.84,0.24,1.27,0.31c2.03,0.34,4.28-0.94,4.86-2.76l-0.04-0.06
		c0.82,0.08,1.63,0.17,2.45,0.25c0.58,0.06,0.8-0.2,0.67-0.76c0.69,0.52,1.42,1,2.07,1.56c1.06,0.91,1.07,1.78,0,2.67
		c-0.63,0.53-1.36,0.94-2.05,1.4c-0.43-0.05-0.86-0.07-1.29-0.15c-1.5-0.29-2.89-0.12-4.12,0.87c-0.67,0.08-1.35,0.16-2.02,0.25
		c-1.9-0.05-3.81-0.01-5.69-0.19c-1.1-0.1-1.43,0.27-1.35,1.27c-1.62-0.57-3.22-0.67-4.74,0.32c-1.02-0.34-2.07-0.43-3.13-0.53
		c-1.66-1.1-2.36-0.84-2.88,1.06c-0.72,0.05-1.44,0.11-2.16,0.16c-0.95-0.64-2.06-0.92-3.15-1.06c-2.76-0.35-5.51-0.4-7.87,1.47
		c-4.26,0.15-8.48-0.17-12.68-0.87c-0.66-1.36-1.82-1.72-3.22-1.66c-0.29-0.03-0.57-0.06-0.86-0.09c-0.04-0.69-0.1-1.39,0.05-2.08
		c0.47-0.1,0.81-0.39,1.12-0.73c0.65-0.05,1.27-0.17,1.86-0.45c3.93-0.32,7.85-0.43,11.77,0.16c1.33,1.64,3.95,1.73,5.77,0.2
		C56.23,139.08,58.62,139,61.02,138.93z"/>
	<path class="st3" d="M33.24,142.05c0.29,0.03,0.57,0.06,0.86,0.09c0.49,1.73,1.33,2.17,3.22,1.66c4.2,0.71,8.42,1.02,12.68,0.87
		c-0.02,0.37-0.02,0.74,0.23,1.05c0.32,1.66,1.14,2.33,3.03,2.36c2.95,0.04,5.89,0.09,8.84,0c2.57-0.08,5.06,0.42,7.58,0.79
		c-0.44,0.67,0.07,0.97,0.52,1.29c0.34,0.24,0.83,0.29,0.94,0.78c-0.42,0.31-0.91,0.25-1.38,0.24c-1.55-0.03-3.1-0.08-4.64-0.13
		c-0.83-0.26-1.65-0.62-2.5-0.77c-3.56-0.64-7.13-0.11-10.69,0.02c-0.82,0.03-1.26,0.66-1.22,1.49c0.04,0.67,0.17,1.33,0.25,2
		c-4.67,0.76-9.13-0.04-13.44-1.88c0.09-0.94,0.99-1.04,1.55-1.48c0.97-0.77,0.96-1.55-0.06-2.37c-1.91-0.5-3.88-0.71-5.82-1.04
		c0-0.31,0-0.62-0.01-0.93C33.23,144.75,32.54,143.39,33.24,142.05z"/>
	<path class="st4" d="M102,54.21c-1.47-0.07-2.76,0.46-3.89,1.33c-2.56,1.95-5.61,2.16-8.61,2.54c-0.84,0.11-1.58-0.19-2.11-0.88
		c-0.9-1.16-0.53-2.47,0.86-2.92c3.08-0.99,6.2-1.85,9.18-3.14c2.25-0.97,4.38-2.15,6.2-3.81c1.57-1.43,1.69-2.53,0.64-4.35
		c-0.54-0.94-1.22-1.77-1.96-2.56c-0.59-0.63-1.03-1.33-0.95-2.24c1.27,0.27,2.54,0.54,3.81,0.81c0.83,0.89,1.83,1.61,2.55,2.61
		c1.24,4.94-0.6,8.69-4.47,11.67C102.81,53.57,102.4,53.89,102,54.21z"/>
	<path class="st3" d="M92.22,141.84c0.7,0.97,0.98,2.07,0.97,3.25c-0.02,1.67-0.05,3.33-0.07,5c-1,0-1.99,0-2.99,0
		c-0.42-1.75-1.02-2.15-2.79-1.84c-0.71,0.12-1.42,0.1-2.13,0.05c0.02-0.55,0.03-1.11,0.05-1.66c0.35-0.55,0.95-0.73,1.49-0.93
		C88.92,144.89,90.84,143.75,92.22,141.84z"/>
	<path class="st4" d="M97.94,91.46c-0.54-0.11-0.58-0.6-0.75-0.99c-1.21-2.79-2.74-3.25-5.25-1.61c-1.87,1.22-2.28,1.04-2.57-1.2
		c-0.14-1.1-0.21-2.22-0.31-3.33c1.07,0.08,2.1,0.38,3.09,0.77c1.66,0.66,3.33,1.25,5.16,1.12c0.28-0.02,0.55,0.04,0.76,0.25
		C98.24,88.15,98.55,89.82,97.94,91.46z"/>
	<path class="st5" d="M85.26,146.64c-0.02,0.55-0.03,1.11-0.05,1.66c-2.69,0.87-5.38,1.74-8.06,2.62c-0.25-1.6-1.24-2.38-2.8-2.63
		c-0.78-0.12-1.6-0.04-2.33-0.42c1.13-0.55,2.36-0.72,3.59-0.74C78.84,147.08,82.07,147.2,85.26,146.64z"/>
	<path class="st4" d="M93.49,99.48c-0.11-1.98-0.23-3.96-0.32-5.94c-0.02-0.39,0.03-0.81,0.17-1.16c0.31-0.81,1-1.17,1.8-1.06
		c0.77,0.11,0.93,0.79,0.92,1.46c-0.01,0.72,0.07,1.43,0.26,2.12c0.14,0.51,0.3,1.01,0.92,1.11C96.62,97.85,95.4,99.04,93.49,99.48z
		"/>
	<path class="st4" d="M50.23,145.72c-0.25-0.31-0.25-0.68-0.23-1.05c2.36-1.87,5.11-1.82,7.87-1.47c1.09,0.14,2.2,0.42,3.15,1.06
		c-1.67,1.04-3.55,1.1-5.42,1.15C53.8,145.47,52,145.37,50.23,145.72z"/>
	<path class="st2" d="M72.02,147.87c0.73,0.38,1.55,0.3,2.33,0.42c1.56,0.24,2.55,1.02,2.8,2.63c-2,0.04-4.01,0.28-6.01,0.03
		c-0.12-0.5-0.61-0.55-0.94-0.78c-0.45-0.31-0.96-0.61-0.52-1.29C70.46,148.54,71.24,148.21,72.02,147.87z"/>
	<path class="st3" d="M73.93,143.25c-0.09-0.99,0.25-1.37,1.35-1.27c1.89,0.17,3.79,0.13,5.69,0.19c-0.63,1.82-2.21,2.55-4.46,1.97
		C75.63,143.91,74.79,143.55,73.93,143.25z"/>
	<path class="st4" d="M85.29,136.15c-0.58,1.82-2.83,3.11-4.86,2.76c-0.43-0.07-0.85-0.2-1.27-0.31c0.04-0.43,0.08-0.85,0.12-1.28
		c1.68-0.25,3.37-0.52,5.06-0.74C84.71,136.53,84.97,136.3,85.29,136.15z"/>
	<path class="st3" d="M82.99,141.93c1.22-0.99,2.62-1.16,4.12-0.87c0.42,0.08,0.86,0.1,1.29,0.15
		C86.94,143.68,84.96,143.56,82.99,141.93z"/>
	<path class="st3" d="M79.28,137.32c-0.04,0.43-0.08,0.85-0.12,1.28c-0.59,0.11-1.17,0.21-1.76,0.32c-0.75-0.24-1.5-0.48-2.25-0.72
		c0.34-0.68,0.68-1.36,1.02-2.04C77.29,136.3,78.44,136.41,79.28,137.32z"/>
	<path class="st4" d="M63.17,144.1c0.53-1.9,1.22-2.16,2.88-1.06c-0.09,0.46-0.18,0.92-0.26,1.38
		C64.89,144.59,63.95,144.97,63.17,144.1z"/>
	<path class="st3" d="M65.79,144.41c0.09-0.46,0.18-0.92,0.26-1.38c1.06,0.1,2.11,0.19,3.13,0.53
		C68.4,145.04,67.39,145.29,65.79,144.41z"/>
	<path class="st3" d="M88.37,135.58c0.13,0.56-0.09,0.82-0.67,0.76c-0.82-0.08-1.63-0.17-2.45-0.25c-0.03-0.81,0.31-1.44,1.09-1.59
		C87.23,134.33,87.9,134.83,88.37,135.58z"/>
	<path class="st5" d="M90.13,150.09c1,0,1.99,0,2.99,0c-0.26,1.33-0.52,2.66-0.77,3.99c-0.24,1.3-0.49,2.6-0.32,3.92
		c0.36,2.8-0.58,5.19-2.85,6.69c-5.29,3.49-10.65,6.91-17,8.25c-1.45,0.31-2.91,0.47-4.4,0.33c0.28-0.15,0.55-0.32,0.84-0.44
		c1.95-0.82,3.92-1.6,5.86-2.44c1.45-0.62,1.9-1.54,1.47-2.83c-0.41-1.23-1.25-1.64-2.79-1.29c-0.82,0.18-1.61,0.47-2.43,0.65
		c-2.58,0.57-4.84-0.89-5.38-3.48c-0.13-0.62-0.18-1.26-0.25-1.9c-0.36-3.53-2.37-5.39-5.93-5.41c-2.08-0.01-4.15,0.2-6.2,0.5
		c-3.4,0.48-6.83,0.67-10.22,1.28c-1.18,0.21-2.18-0.07-2.77-1.33c-1.11-2.38-2.21-2.81-4.82-2.21c-1.13,0.26-1.56,0.8-1.57,1.98
		c-0.02,3.36,0.9,6.35,3.02,9.01c1.26,1.58,2.62,3.13,3.25,5.12c-2.75-0.94-4.76-2.81-6.43-5.11c-1.41-1.94-2.48-4.07-3.49-6.24
		c0.5-1.78,0.07-3.43-0.68-5.04c-0.3-0.64-0.77-1.2-0.88-1.92c1.03-0.16,2.09-0.15,3.09,0.09c2.07,0.49,4.09,0.65,6.06-0.35
		c4.31,1.84,8.77,2.64,13.44,1.88c4.72,0.12,9.43,0.26,14.15,0.1c4.81-0.07,9.63-0.2,14.4-0.82
		C83.19,152.61,86.8,151.85,90.13,150.09z M78.99,155.66c-1.36-0.39-2.67-0.84-4.01-1.14c-1.22-0.27-2.27,0.21-3.13,1.11
		c-0.23,0.24-0.42,0.44-0.07,0.79C73.6,158.24,77.38,157.91,78.99,155.66z"/>
	<path class="st2" d="M39.87,170.48c-0.63-1.99-1.99-3.54-3.25-5.12c-2.11-2.65-3.04-5.64-3.02-9.01c0.01-1.17,0.44-1.72,1.57-1.98
		c2.61-0.6,3.71-0.17,4.82,2.21c0.59,1.26,1.58,1.54,2.77,1.33c3.38-0.61,6.82-0.8,10.22-1.28c2.06-0.29,4.13-0.51,6.2-0.5
		c3.56,0.02,5.57,1.88,5.93,5.41c0.07,0.64,0.12,1.28,0.25,1.9c0.54,2.58,2.81,4.05,5.38,3.48c0.82-0.18,1.61-0.46,2.43-0.65
		c1.54-0.35,2.38,0.06,2.79,1.29c0.43,1.29-0.02,2.21-1.47,2.83c-1.94,0.84-3.91,1.62-5.86,2.44c-0.29,0.12-0.56,0.29-0.84,0.44
		c-1.09,1.13-2.54,0.93-3.9,1.04c-0.29-0.19-0.56-0.15-0.82,0.08c-0.56,0-1.13,0-1.69,0c-2.76-0.02-5.51-0.04-8.27-0.06
		c-0.14-0.03-0.28-0.05-0.42-0.08c-0.74-0.42-1.57-0.52-2.37-0.69c-3.41-0.71-6.91-1.05-10.12-2.53
		C40.08,170.84,39.97,170.66,39.87,170.48z M50.09,169.25c-1.87-1.96-4.53-2.67-6.36-1.81C45.61,168.75,47.63,169.23,50.09,169.25z"
		/>
	<path class="st3" d="M40.19,171.02c3.22,1.48,6.72,1.81,10.12,2.53c0.81,0.17,1.64,0.27,2.37,0.69c-2.47,0.58-4.99,0.77-7.5,1.08
		c-1.06-0.3-2.12-0.63-3.05-1.24C41.04,173.34,40.25,172.41,40.19,171.02z"/>
	<path class="st3" d="M48.03,178.84c-0.2,1.32-0.82,1.96-1.9,1.72c-0.76-0.17-0.93,0.06-1.12,0.72c-0.54,1.83-2.43,2.35-3.83,1.09
		c-0.6-0.54-0.95-1.22-0.58-2.02c0.38-0.82,1.07-0.8,1.84-0.59c0.53,0.14,1.09,0.19,1.64,0.27c0.74,0.1,1.15-0.19,1.09-0.99
		C46.13,178.97,47.08,178.9,48.03,178.84z"/>
	<path class="st3" d="M53.1,174.31c2.76,0.02,5.51,0.04,8.27,0.06C58.61,175.82,55.85,176.01,53.1,174.31z"/>
	<path class="st3" d="M63.07,174.38c0.25-0.23,0.52-0.27,0.82-0.08C63.62,174.45,63.35,174.47,63.07,174.38z"/>
	<path class="st4" d="M60.78,31.19c-0.45,0.72-1.2,0.86-1.94,0.98c-0.23,0.04-0.48,0.03-0.71,0.03c-3.05,0.02-3.05,0.02-2.19,2.81
		c-1.26,0.07-2.52,0.13-3.78,0.2c-0.88-1.29-1.99-2.16-3.66-2.09c-0.96,0.04-1.91,0-2.87,0.17c-0.49,0.09-1.05,0.2-1.39-0.37
		c1.03-0.67,2.06-1.35,3.09-2.02C51.81,30.99,56.3,31.09,60.78,31.19z"/>
	<path class="st0" d="M105.14,38.98c-1.27-0.27-2.54-0.54-3.81-0.81c-0.4-0.6-0.18-1.27-0.23-1.91c1.56,0.14,3.01-0.21,4.42-0.85
		c0.99-0.45,2.04-0.71,3.15-0.57c0.74,0.09,0.87,0.47,0.5,1.07c-0.43,0.7-1.12,0.99-1.87,1.21
		C106.31,37.41,105.46,37.89,105.14,38.98z"/>
	<path class="st4" d="M8.16,42.17c3.11,0.01,5.78-0.98,7.74-3.51c1.86-1.09,3.83-1.68,6-1.47c-0.05,1.42-1.16,1.94-2.2,2.42
		c-1.4,0.65-2.45,1.57-3.14,2.97c-0.66,1.33-0.52,1.75,0.92,2.12c3.67,0.94,7.34,1.88,11.02,2.8c4.24,1.06,8.52,1.73,12.91,1.5
		c1.41-0.07,2.62-0.46,3.68-1.46c2.06-1.94,4.52-2.96,7.38-2.92c1.24,0.02,2.48,0.04,3.71,0.06c0.65,0.4,1.29,0.8,1.94,1.2
		c-0.03,0.72-0.06,1.45-0.08,2.17c-1.84-0.42-3.46-1.44-5.32-1.8c-1.83-0.36-3.48,0.48-4.29,2.23c-0.84,1.82-0.46,3.53,1.03,4.72
		c0.47,0.37,0.96,0.72,1.4,1.12c0.32,0.29,0.35,0.71,0.27,1.11c-0.1,0.47-0.49,0.48-0.85,0.48c-0.82,0-1.56,0.32-2.31,0.57
		c-3.6,1.2-4.02,1.06-6.01-2.15c-1.24-1.99-2.98-3.02-5.36-2.98c-1.14,0.02-2.2,0.3-3.27,0.64c-2.97,0.95-5.98,1.68-9.15,1.56
		c-1.21-0.05-2.37-0.23-3.55-0.44c-0.84-0.15-1.9-0.24-1.97,0.91c-0.08,1.45-0.77,2.04-2.09,2.16c-2.85-0.03-3.29,0.35-3.34,2.89
		c-1.2-0.05-2.32-0.31-3.1-1.34c0.09-0.26,0.2-0.52,0.27-0.78c0.53-1.82-0.04-2.6-1.91-2.73c-0.74-0.05-1.48-0.19-2.22-0.3
		c0.91-1.59,1.88-3.19,1.92-5.08C8.24,46.63,8.18,44.4,8.16,42.17z"/>
	<path class="st3" d="M56.19,44.69c-1.24-0.02-2.48-0.04-3.71-0.06c-2.86-0.04-5.32,0.98-7.38,2.92c-1.06,1-2.27,1.38-3.68,1.46
		c-4.39,0.23-8.68-0.44-12.91-1.5c-3.68-0.92-7.35-1.87-11.02-2.8c-1.44-0.37-1.58-0.79-0.92-2.12c0.69-1.4,1.74-2.32,3.14-2.97
		c1.04-0.48,2.14-1,2.2-2.42c4.36-2.09,8.78-4.02,13.64-4.63c2.31-0.29,4.62-0.26,6.9,0.2c0.59,0.12,1.18,0.16,1.78,0.15
		c0.34,0.58,0.9,0.46,1.39,0.37c0.95-0.17,1.91-0.12,2.87-0.17c1.67-0.07,2.78,0.79,3.66,2.09c-1.21,0.63-2.43,1.2-3.85,1.11
		c-0.99,0.14-1.97,0.31-2.96,0.41c-5.2,0.54-10.4,1.1-15.51,2.25c-1.62,0.36-3.25,0.73-4.79,1.51c1.42,0.45,2.83,0.8,4.26,1.11
		c4.48,0.95,8.92,2.25,13.59,1.88c2.22-0.18,4.33-0.7,6.11-2.13c1.89-0.17,3.7,0.03,5.44,0.88C55.51,42.74,56.17,43.47,56.19,44.69z
		"/>
	<path class="st5" d="M24.16,160.17c0.16,0.93,0.34,1.87-0.8,2.36c-0.77-1.22-1.89-1.49-3.28-1.47c-6.27,0.09-12.54,0.07-18.81,0.1
		c-0.71,0-1.21-0.12-1-1c0,0,0.06-0.09,0.06-0.09c5.55,0.01,11.1,0.02,16.65,0.03C19.37,160.11,21.77,160.15,24.16,160.17z"/>
	<path class="st1" d="M24.16,160.17c-2.39-0.02-4.79-0.06-7.18-0.07c-5.55-0.02-11.1-0.02-16.65-0.03c-0.01-0.6-0.03-1.2-0.03-1.8
		c0-24.07,0-48.15-0.01-72.22c0-0.6-0.06-1.19-0.09-1.79c0.02-0.05,0.05-0.09,0.09-0.12c4.82,0.26,9.63,0.08,14.44-0.24
		c2.36-0.15,3.69,0.53,4.58,2.69c0.75,1.84,0.68,3.74,0.69,5.65c0,1.49,0.34,2.85,1.65,3.77c0.58,3.18,1.17,6.36,1.75,9.55
		c-0.27,3.35,0.27,6.61,1.16,9.83c0.78,2.81,1.74,5.58,2.11,8.48c0.13,0.98,0.47,1.45,1.44,1.74c2.43,0.71,3.82,2.53,3.89,5.02
		c0.05,1.99-0.02,3.99,0.01,5.98c0.02,1.26,0.34,2.44,1.3,3.36c-0.15,0.69-0.09,1.38-0.05,2.08c-0.71,1.34-0.01,2.7-0.07,4.05
		c-0.78-0.24-1.57-0.47-2.35-0.71c0.18-1.75,0.27-3.5,0.19-5.25c-0.08-1.77-1.3-3.23-2.98-3.62c-0.31-0.07-0.74-0.22-0.77,0.23
		c-0.09,1.42-0.48,3.05,0.43,4.19c1.08,1.33,1.43,2.7,1.41,4.3c-1.07,2.23-1.21,4.56-0.73,6.95c0.11,0.72,0.59,1.28,0.88,1.92
		c0.75,1.61,1.19,3.26,0.68,5.04C28,159.4,26.07,159.72,24.16,160.17z"/>
	<path class="st3" d="M21.63,96.02c-1.31-0.93-1.65-2.29-1.65-3.77c-0.01-1.91,0.07-3.81-0.69-5.65c-0.89-2.17-2.22-2.85-4.58-2.69
		c-4.8,0.31-9.62,0.5-14.44,0.24c0-0.68,0.01-1.35,0.01-2.03c0,0-0.02-0.02-0.02-0.02c3.79,0,7.57,0.01,11.36-0.02
		c1.47-0.01,2.95,0.08,4.41-0.18c1.12-0.2,1.86-0.77,1.95-1.93c0.17-2.14-0.58-4.78-3.92-4.63c-2.51,0.11-5.02,0.18-7.52,0.26
		c-0.02-0.72-0.04-1.45-0.06-2.17c1.09-0.39,2.17-0.77,3.25-1.17c1.54-0.56,3.04-1.19,4.3-2.28c1.9-1.63,2-3.48,0.26-5.25
		c-0.36-0.37-0.78-0.68-1.17-1.01c0,0-0.05-0.06-0.05-0.06c0.05-1.53,0.09-3.05,0.14-4.58c0.05-2.54,0.49-2.92,3.34-2.89
		c0.17,0.4,0.35,0.8,0.52,1.2c0.08,1.21-0.33,2.34-0.57,3.5c-0.2,1-0.45,2.02,0.21,2.97c0.31,1.79,0.86,3.52,1.36,5.26
		c0.56,1.69,1.12,3.39,1.68,5.08c-0.38,1.8,0.51,3.16,1.53,4.49c0.6,0.78,1.34,1.53,1.18,2.65c-0.42,3.02-0.35,6.06-0.38,9.1
		C22.07,92.31,22.07,94.18,21.63,96.02z"/>
	<path class="st5" d="M6.56,75.6c2.51-0.09,5.02-0.15,7.52-0.26c3.33-0.15,4.09,2.49,3.92,4.63c-0.09,1.15-0.83,1.73-1.95,1.93
		c-1.47,0.26-2.94,0.17-4.41,0.18c-3.79,0.03-7.57,0.02-11.36,0.02c-0.12-1.98-0.1-3.97-0.01-5.95C2.36,75.95,4.48,75.96,6.56,75.6z
		"/>
	<path class="st5" d="M8.16,42.17c0.02,2.23,0.08,4.46,0.03,6.69c-0.04,1.9-1.02,3.49-1.92,5.08c-0.81,0.18-1.62,0.39-2.44,0.54
		c-0.98,0.18-1.7,0.64-1.92,1.67c-0.55-0.01-1.1-0.01-1.64-0.02c-0.1-5.32-0.1-10.64,0-15.96c1.38-0.13,2.66,0.32,3.93,0.76
		C5.5,41.39,6.8,41.9,8.16,42.17z"/>
	<path class="st5" d="M13.14,63.73c0.39,0.34,0.81,0.64,1.17,1.01c1.73,1.77,1.63,3.62-0.26,5.25c-1.26,1.08-2.76,1.71-4.3,2.28
		c-1.08,0.4-2.17,0.78-3.25,1.17c-2.08-0.09-4.16-0.19-6.23-0.28c-0.02-1.36-0.01-2.71-0.07-4.07c-0.03-0.82,0.28-0.91,1.01-0.73
		c1.47,0.36,2.96,0.64,4.45,0.91c1.97,0.36,3.65-0.17,4.87-1.82C11.43,66.23,12.27,64.97,13.14,63.73z"/>
	<path class="st5" d="M13.23,59.08c-0.05,1.53-0.09,3.05-0.14,4.58c-3.14-0.77-6.26-1.63-9.55-1.25c-0.75,0.09-1.5,0.21-2.23,0.41
		c-0.74,0.2-1.14,0.12-1.11-0.78c0.05-1.35,0.05-2.71,0.08-4.07c0.55-0.55,1.33-0.85,1.7-1.59c2.65,0.86,5.32,1.59,8.15,1.36
		C10.91,58.77,12.02,59.03,13.23,59.08z"/>
	<path class="st4" d="M0.26,73.15c2.08,0.09,4.16,0.19,6.23,0.28c0.02,0.72,0.04,1.45,0.06,2.17c-2.08,0.36-4.2,0.34-6.3,0.54
		C0.14,75.15,0.14,74.15,0.26,73.15z"/>
	<path class="st4" d="M1.98,56.39c-0.37,0.74-1.16,1.04-1.7,1.59c-0.14-0.61-0.13-1.23-0.01-1.84c0.55,0.01,1.1,0.01,1.65,0.02
		C1.93,56.23,1.96,56.31,1.98,56.39z"/>
	<path class="st1" d="M56.19,44.69c-0.02-1.21-0.68-1.94-1.74-2.46c-1.73-0.85-3.55-1.06-5.44-0.88c0.02-1.71-0.63-3.33-0.71-5.02
		c1.41,0.09,2.64-0.48,3.85-1.11c1.26-0.07,2.52-0.13,3.78-0.2c4.39,0.02,8.78-0.07,13.17,0.08c8.09,0.29,16.13,1.19,24.03,3.03
		c0.27,0.06,0.52,0.17,0.79,0.26c-0.06,1.57-0.95,2.59-2.24,3.3c-1.37,0.76-2.92,1.08-4.38,1.62c-1.77,0.65-3.57,1.29-4.98,2.56
		c-2.87,2.58-6.25,3.92-10.01,4.5c-3.2,0.5-6.27,0.41-9.17-1.27c-0.78-0.45-1.63-0.87-2.59-0.84c-0.01-0.84-0.53-1.48-0.84-2.21
		c-0.57-1.33-0.59-1.33-1.56-0.17C57.49,45.48,56.84,45.08,56.19,44.69z"/>
	<path class="st0" d="M84.06,81.65c-2.63,0.27-5.26,0.54-7.9,0.81c-0.93-3.08-3.16-4.21-6.21-2.94c-1.86,0.78-3.69,1.35-5.72,1.52
		c-1.63,0.14-3.24-0.11-4.87-0.03c-1.73,0.08-1.86-0.3-1.36-2.04c0.07-0.23,0.09-0.47,0.13-0.7c1.25-0.38,2.49-0.75,3.74-1.13
		c1.61,0.76,1.88,0.67,2.25-0.8c2.21-0.4,4.5-0.47,6.5-1.67c0.76,0,1.52,0.01,2.28-0.01c1.73-0.05,2.7-0.89,2.94-2.54
		c0.23-1.56-0.54-2.84-2.01-3.4c-0.73-0.28-1.48-0.28-2.24-0.32c-0.81-1.27-1.63-2.54-2.44-3.81c-1.02-1.6-0.64-2.43,1.2-2.69
		c0.55-0.08,1.1-0.18,1.64-0.27c2.39,0.42,4.79,0.79,7.16,1.29c2.63,0.56,5.14,1.39,7.18,3.31c2.12,2,2.54,4.57,2.4,7.24
		c-0.14,2.59-0.79,5.11-1.56,7.59C86.13,81.18,85.07,81.26,84.06,81.65z"/>
	<path class="st0" d="M60.54,48.26c0.96-0.02,1.81,0.39,2.59,0.84c2.9,1.67,5.98,1.76,9.17,1.27c3.76-0.59,7.14-1.92,10.01-4.5
		c1.41-1.27,3.21-1.92,4.98-2.56c1.46-0.53,3.01-0.85,4.38-1.62c1.29-0.72,2.18-1.74,2.24-3.3c2.7,0.72,5.17,1.88,7.23,3.81
		c0.4,0.38,0.7,0.86,1.02,1.32c0.35,0.5,0.36,0.88-0.38,0.99c-1.31,0.2-2.36,0.91-3.38,1.71c-0.66,0.52-1.38,0.96-2.21,1.17
		c-3.08,0.74-5.77,2.3-8.39,4c-3.11,2.02-6.13,4.2-9.7,5.41c-1.42,0.48-2.9,0.53-4.34,0.82c-0.63-0.32-1.3-0.21-1.97-0.19
		c-2.52-0.28-5.07-0.08-7.56-0.58c-0.18-0.4-0.34-0.8-0.54-1.18c-1.28-2.46-2.57-4.92-3.85-7.37
		C60.08,48.27,60.31,48.27,60.54,48.26z"/>
	<path class="st4" d="M71.8,57.42c0.66-0.02,1.34-0.13,1.97,0.19c-0.48,1.39-1.38,2.6-1.77,4.03c-0.55,0.09-1.09,0.19-1.64,0.27
		c-1.84,0.27-2.21,1.09-1.2,2.69c0.81,1.27,1.63,2.54,2.44,3.81c0.3,2.19-0.51,4.2-0.96,6.27c-2,1.2-4.29,1.27-6.5,1.67
		c-0.97-0.36-1.62,0.19-2.25,0.8c-1.25,0.38-2.49,0.75-3.74,1.13c-1.21-0.08-2.37,0.21-3.49,0.59c-1.63,0.55-2.24,1.72-1.93,3.46
		c0.14,0.78,0.29,1.55,0.44,2.33c-0.47,0.02-0.95,0.08-1.42,0.06c-3.6-0.14-7.21-0.33-10.81-0.44c-2.49-0.07-2.93,0.4-2.94,2.86
		c-0.44,1.02-1.02,1.97-1.65,2.88c-1.55-2.13-3.46-3.2-6.2-2.4c-1.77,0.52-3.48-0.19-5.15-0.68c-1.26-0.37-1.57-1.52-0.63-2.29
		c2.49-2.05,5.11-3.87,8.58-3.75c3.56,0.13,7.11-0.08,10.61-0.79c7.85-1.61,15.32-4.53,23.04-6.61c2.5-0.68,3.05-2.68,1.41-4.76
		c-1.34-1.7-2.46-3.54-3.78-5.25c-1.66-2.14-3.66-3.44-6.51-2.78c-0.13,0.03-0.28-0.02-0.68-0.07c1.14-0.6,2.11-0.87,3.16-0.87
		c2.2,0.01,4.4,0.05,6.6,0C68.78,59.73,70.55,59.09,71.8,57.42z"/>
	<path class="st4" d="M84.06,81.65c1-0.39,2.06-0.47,3.12-0.58c-0.1,0.68-0.21,1.35-0.31,2.03C85.88,82.71,84.92,82.28,84.06,81.65z
		"/>
	<path class="st3" d="M53.16,84.65c-0.15-0.78-0.3-1.55-0.44-2.33c-0.31-1.73,0.3-2.9,1.93-3.46c1.12-0.38,2.28-0.67,3.49-0.59
		c-0.04,0.23-0.07,0.47-0.13,0.7c-0.5,1.73-0.38,2.12,1.36,2.04c1.63-0.08,3.23,0.17,4.87,0.03c2.02-0.17,3.86-0.75,5.72-1.52
		c3.05-1.27,5.28-0.14,6.21,2.94c0,0.21-0.01,0.42-0.01,0.63c-0.68,0.03-1.36-0.02-2.02,0.09c-1.53,0.28-1.97,0.95-1.84,2.66
		c0.1,1.45,0.84,2.19,2.26,2.26c0.89,0.05,1.74-0.13,2.6-0.33c1.25,0.22,2.54,0.31,3.7,0.89c1.55,0.78,2.03,2.11,1.4,3.66
		c-0.19,0.48-0.44,0.59-0.9,0.48c-0.77-0.19-1.55-0.38-2.33-0.51c-1.28-0.22-2.23,0.28-2.61,1.52c-0.63,2.03-0.97,4.12-0.71,6.25
		c0.2,1.63,1.16,2.76,2.64,3.45c0.54,0.25,1.1,0.45,1.65,0.68c-0.01,0.39-0.02,0.78-0.02,1.17c-3.35,0.52-6.7,1.07-10.06,1.56
		c-3.61,0.53-7.25,0.5-10.88,0.25c0.04-1.34-0.31-1.72-1.58-1.82c-0.63-0.05-1.27-0.12-1.89-0.26c-1.39-0.33-1.94-1.12-2.03-2.55
		c-0.08-1.19,0.37-2.27,0.53-3.4c0.01-1.02,0.19-2.09-0.79-2.84c0.07-0.73,0.68-1.22,0.85-1.91c0.3-0.1,0.6-0.21,0.9-0.31
		c1.11,0.33,2.23,0.31,3.28-0.16c2.05-0.91,3.87-2.24,5.82-3.32c0.42-0.23,0.71-0.72,0.49-1.12c-0.73-1.29-0.94-2.81-1.84-4.01
		c-0.44-0.59-1.15-0.82-1.83-0.7c-2.43,0.44-4.87,0.09-7.3,0.19C53.48,84.86,53.32,84.76,53.16,84.65z"/>
	<path class="st0" d="M61.02,138.93c-2.4,0.07-4.8,0.15-7.19,0.22c-0.9-0.48-1.92-0.59-2.87-0.93c-0.01-6.14-0.01-12.29-0.03-18.43
		c-0.01-2.95,0.24-5.89,0.65-8.81c0.17-1.21-0.31-2.08-1.44-2.6c-0.64-0.3-1.39-0.42-1.83-1.06c2.07,0.03,4.14,0.05,6.21,0.08
		c0.02,0.83,0.53,1.49,0.82,2.23c1.47,3.69,2,7.49,1.68,11.47c-0.23,2.81-0.9,5.61-0.51,8.45c0.45,3.26,2.08,5.99,4.01,8.58
		C60.72,138.37,60.86,138.66,61.02,138.93z"/>
	<path class="st4" d="M54.52,107.39c-2.07-0.03-4.14-0.05-6.21-0.08c-0.73-0.08-1.46-0.16-2.19-0.24c-0.63-0.35-1.24-0.78-2.01-0.78
		c-0.81,0-1.62,0-2.43,0.01c-1.01-0.28-1.89-0.76-2.57-1.58c3.37-0.45,6.44-1.49,8.72-4.24c0.77-0.94,1.91-1.29,3.11-1.33
		c1.04-0.03,2.08-0.01,3.12-0.02c-0.16,1.13-0.61,2.21-0.53,3.4c0.09,1.43,0.64,2.22,2.03,2.55c0.62,0.15,1.25,0.21,1.89,0.26
		c1.27,0.1,1.62,0.48,1.58,1.82C57.52,107.25,56.02,107.32,54.52,107.39z"/>
	<path class="st0" d="M79.96,105.36c0.01-0.39,0.02-0.78,0.02-1.17c0.94-0.13,1.88-0.27,2.82-0.4c0.06,0.99,0.25,2.01-0.58,2.81
		c-0.37,0.36-0.78,0.75-1.35,0.58c-0.54-0.16-0.62-0.66-0.67-1.16C80.18,105.8,80.04,105.58,79.96,105.36z"/>
	<path class="st4" d="M75.14,138.2c0.75,0.24,1.5,0.48,2.25,0.72c-1.35,1.38-2.42,1.41-3.17,0.08
		C74.41,138.6,74.79,138.41,75.14,138.2z"/>
	<path class="st4" d="M77.15,87.77c-0.85,0.2-1.71,0.38-2.6,0.33c-1.42-0.07-2.16-0.81-2.26-2.26c-0.12-1.71,0.31-2.39,1.84-2.66
		c0.66-0.12,1.35-0.07,2.02-0.09C76.37,84.68,77.05,86.16,77.15,87.77z"/>
	<path class="st3" d="M46.12,107.08c0.73,0.08,1.46,0.16,2.19,0.24c0.44,0.64,1.19,0.76,1.83,1.06c1.13,0.53,1.61,1.39,1.44,2.6
		c-0.41,2.92-0.66,5.85-0.65,8.81c0.02,6.14,0.02,12.29,0.03,18.43c-0.95,0.32-2.01,0.2-2.9,0.73c-3.92-0.59-7.84-0.47-11.77-0.16
		c-0.06-0.15-0.1-0.3-0.18-0.44c-0.25-0.48-0.56-0.93-1.18-0.77c-0.61,0.16-0.5,0.72-0.53,1.19c-0.01,0.16,0.01,0.32,0.02,0.47
		c-0.31,0.34-0.66,0.62-1.12,0.73c-0.96-0.92-1.28-2.1-1.3-3.36c-0.03-1.99,0.05-3.99-0.01-5.98c-0.07-2.49-1.46-4.31-3.89-5.02
		c-0.97-0.28-1.31-0.76-1.44-1.74c-0.37-2.9-1.33-5.67-2.11-8.48c-0.9-3.22-1.43-6.47-1.16-9.83c0.97,0.24,1.42-0.11,1.65-1.12
		c0.62-2.69,1.85-3.16,4.25-1.77c0.83,0.48,1.66,0.95,2.5,1.43c2.15,2.82,6.79,4.11,9.89,2.2c0.81,0,1.62,0,2.43-0.01
		C44.66,107.68,45.06,107.83,46.12,107.08z"/>
	<path class="st4" d="M48.06,138.95c0.9-0.53,1.96-0.41,2.9-0.73c0.94,0.34,1.97,0.45,2.87,0.93
		C52.01,140.68,49.39,140.59,48.06,138.95z"/>
	<path class="st4" d="M37.32,143.8c-1.88,0.51-2.73,0.07-3.22-1.66C35.49,142.07,36.66,142.44,37.32,143.8z"/>
	<path class="st4" d="M34.42,139.25c-0.01-0.16-0.03-0.32-0.02-0.47c0.03-0.46-0.08-1.03,0.53-1.19c0.62-0.16,0.93,0.29,1.18,0.77
		c0.07,0.14,0.12,0.29,0.18,0.44C35.7,139.07,35.07,139.2,34.42,139.25z"/>
	<path class="st1" d="M90.13,150.09c-3.32,1.75-6.94,2.52-10.61,2.99c-4.78,0.62-9.59,0.75-14.4,0.82c0-0.95,0-1.89,0-2.84
		c1.55,0.04,3.1,0.09,4.64,0.13c0.47,0.01,0.96,0.08,1.38-0.24c2.01,0.25,4.01,0.01,6.01-0.03c2.69-0.87,5.38-1.74,8.06-2.62
		c0.71,0.05,1.42,0.08,2.13-0.05C89.11,147.94,89.71,148.35,90.13,150.09z"/>
	<path class="st0" d="M65.11,151.06c0,0.95,0,1.89,0,2.84c-4.72,0.16-9.43,0.02-14.15-0.1c-0.09-0.67-0.22-1.33-0.25-2
		c-0.04-0.83,0.4-1.46,1.22-1.49c3.56-0.13,7.13-0.66,10.69-0.02C63.46,150.44,64.28,150.8,65.11,151.06z"/>
	<path class="st4" d="M30.83,145.39c0.78,0.24,1.57,0.47,2.35,0.71c0,0.31,0,0.62,0.01,0.93c0.07,0.39,0.11,0.79,0.23,1.16
		c0.65,1.99,1.62,2.37,3.41,1.31c0.75-0.45,1.46-0.95,2.19-1.43c1.02,0.82,1.03,1.61,0.06,2.37c-0.56,0.44-1.46,0.55-1.55,1.48
		c-1.97,1-3.99,0.84-6.06,0.35c-1-0.24-2.05-0.24-3.09-0.09c-0.48-2.39-0.34-4.72,0.73-6.95C29.68,145.28,30.25,145.34,30.83,145.39
		z"/>
	<path class="st5" d="M39.01,148.07c-0.73,0.48-1.44,0.98-2.19,1.43c-1.78,1.06-2.76,0.68-3.41-1.31c-0.12-0.37-0.15-0.77-0.23-1.16
		C35.13,147.35,37.09,147.57,39.01,148.07z"/>
	<path class="st2" d="M78.99,155.66c-1.61,2.25-5.39,2.58-7.22,0.75c-0.34-0.34-0.16-0.55,0.07-0.79c0.86-0.89,1.9-1.38,3.13-1.11
		C76.32,154.81,77.63,155.26,78.99,155.66z"/>
	<path class="st5" d="M50.09,169.25c-2.46-0.02-4.48-0.5-6.36-1.81C45.56,166.58,48.22,167.29,50.09,169.25z"/>
	<path class="st5" d="M31.79,104.1c-0.83-0.47-1.67-0.94-2.5-1.43c-2.4-1.39-3.63-0.92-4.25,1.77c-0.23,1.01-0.68,1.37-1.65,1.12
		c-0.58-3.18-1.17-6.36-1.75-9.55c0.44-1.84,0.44-3.72,0.46-5.58c0.04-3.04-0.04-6.08,0.38-9.1c0.16-1.13-0.58-1.87-1.18-2.65
		c-1.02-1.33-1.91-2.69-1.53-4.49c0.48-0.1,0.96-0.2,1.45-0.3c1.76,0.58,3.48,0.24,5.17-0.31c1.9-0.62,3.77-1.32,5.75-1.66
		c0.24-0.02,0.48-0.03,0.71-0.07c5.9-0.99,11.31-3.31,16.54-6.11c1.1-0.59,2.3-1.02,3.26-1.83c-0.12-0.32-0.35-0.28-0.53-0.33
		c-4.91-1.24-9.74-0.73-14.5,0.75c-2.43,0.76-4.88,1.5-7.08,2.85c-1.34,0.19-2.68,0.38-4.02,0.57c-1.57-0.64-3.05-0.2-4.53,0.37
		c-1.26,0.49-2.49,1.11-3.9,0.97c-0.5-1.74-1.05-3.47-1.36-5.26c0.96-0.42,1.3-1.38,1.79-2.17c1.08-1.76,0.5-3.39-1.43-4.3
		c-0.17-0.4-0.35-0.8-0.52-1.2c1.32-0.12,2-0.71,2.08-2.16c0.07-1.15,1.13-1.06,1.97-0.91c1.18,0.21,2.35,0.4,3.55,0.44
		c3.17,0.12,6.18-0.61,9.15-1.56c1.07-0.34,2.13-0.63,3.27-0.64c2.38-0.04,4.12,0.99,5.36,2.98c2,3.21,2.42,3.35,6.01,2.15
		c0.75-0.25,1.49-0.57,2.31-0.57c0.36,0,0.75-0.01,0.85-0.48c0.09-0.41,0.06-0.82-0.27-1.11c-0.44-0.4-0.93-0.75-1.4-1.12
		c-1.49-1.19-1.87-2.9-1.03-4.72c0.81-1.76,2.46-2.59,4.29-2.23c1.86,0.36,3.49,1.38,5.32,1.8c0,0,0.03,0.06,0.03,0.06
		c0.6,2.02,0.79,4.17,1.83,6.05c0.92,1.67,2.29,2.74,4.32,2.67c2.5,0.5,5.05,0.31,7.56,0.58c-1.25,1.68-3.02,2.32-5.02,2.36
		c-2.2,0.05-4.4,0.01-6.6,0c-1.05-0.01-2.02,0.27-3.16,0.87c0.39,0.04,0.55,0.1,0.68,0.07c2.85-0.66,4.86,0.64,6.51,2.78
		c1.32,1.71,2.44,3.55,3.78,5.25c1.64,2.08,1.1,4.09-1.41,4.76c-7.72,2.08-15.19,5-23.04,6.61c-3.5,0.72-7.04,0.92-10.61,0.79
		c-3.46-0.12-6.09,1.7-8.58,3.75c-0.94,0.77-0.63,1.92,0.63,2.29c1.67,0.49,3.38,1.2,5.15,0.68c2.73-0.81,4.65,0.26,6.2,2.4
		c0.01,0.52-0.04,1.04,0.04,1.55c0.16,1.06,0.76,1.5,1.76,1.21c1.31-0.38,2.62-0.67,3.99-0.69c0.6-0.01,0.78-0.31,0.61-0.85
		c-0.32-1.03-0.65-2.05-0.98-3.07c0.11-0.52,0.11-1.05-0.44-1.31c-0.51-0.23-0.87,0.13-1.17,0.5c-0.72-0.08-1.44-0.15-2.16-0.23
		c0.02-2.46,0.45-2.93,2.94-2.86c3.61,0.1,7.21,0.29,10.81,0.44c0.47,0.02,0.95-0.04,1.42-0.06c0.16,0.1,0.31,0.21,0.47,0.31
		c-1.72,1.02-3.44,2.03-5.16,3.05c0.04,0.11,0.08,0.22,0.12,0.33c1.12-0.34,2.21-0.17,3.3,0.02c1.75,0.3,2.75,1.3,3.14,3.01
		c0.21,0.92,0.18,1.81-0.03,2.72c-0.3,0.1-0.6,0.21-0.9,0.31c-2.15-0.61-4.3-1.23-6.46-1.83c-1.12-0.31-2.27-0.44-3.44-0.41
		c-0.89,0.02-1.06,0.36-0.63,1.11c1.14,2,3.01,2.64,5.14,2.75c1.51,0.08,3.04-0.1,4.53,0.29c0.98,0.75,0.8,1.81,0.79,2.84
		c-1.04,0-2.08-0.02-3.12,0.02c-1.2,0.04-2.33,0.39-3.11,1.33c-2.27,2.75-5.34,3.79-8.72,4.24
		C36.69,104.27,34.25,104.04,31.79,104.1z M42.86,59.6c-0.7-0.15-1.39-0.3-2.09-0.44c-3.12-0.63-6.18-1.59-9.36-1.93
		c-2.04-0.22-3.97,0.1-6.16,0.93C31.25,59.58,36.96,60.54,42.86,59.6z"/>
	<path class="st3" d="M1.98,56.39c-0.02-0.08-0.05-0.15-0.07-0.23c0.23-1.04,0.94-1.49,1.92-1.67c0.82-0.15,1.62-0.36,2.44-0.54
		c0.74,0.1,1.48,0.25,2.22,0.3c1.87,0.12,2.44,0.91,1.91,2.73c-0.08,0.26-0.18,0.52-0.27,0.78C7.3,57.97,4.63,57.24,1.98,56.39z"/>
	<path class="st3" d="M60.54,48.26c-0.23,0-0.46,0.01-0.7,0.01c-0.56-0.33-1.17-0.19-1.76-0.16c0,0-0.03-0.06-0.03-0.06
		c0.03-0.72,0.06-1.45,0.08-2.17c0.97-1.15,0.99-1.16,1.56,0.17C60.01,46.78,60.53,47.43,60.54,48.26z"/>
	<path class="st0" d="M48.31,36.31c0.08,1.7,0.73,3.31,0.71,5.02c-1.79,1.43-3.89,1.96-6.11,2.13c-4.67,0.37-9.11-0.93-13.59-1.88
		c-1.43-0.3-2.85-0.66-4.26-1.11c1.54-0.78,3.17-1.15,4.79-1.51c5.11-1.14,10.31-1.71,15.51-2.25
		C46.34,36.62,47.32,36.45,48.31,36.31z"/>
	<path class="st3" d="M30.83,145.39c-0.57-0.05-1.15-0.11-1.72-0.16c0.02-1.59-0.33-2.97-1.41-4.3c-0.91-1.13-0.53-2.76-0.43-4.19
		c0.03-0.45,0.46-0.3,0.77-0.23c1.68,0.39,2.9,1.85,2.98,3.62C31.1,141.89,31,143.65,30.83,145.39z"/>
	<path class="st4" d="M18.09,69.12c1.42,0.13,2.64-0.48,3.9-0.97c1.47-0.57,2.95-1.02,4.53-0.37c-0.58,1.2-1.8,1.53-2.86,2.04
		c-2.27,1.1-2.58,1.59-2.44,4.08c-0.48,0.1-0.96,0.2-1.45,0.3C19.21,72.51,18.65,70.82,18.09,69.12z"/>
	<path class="st4" d="M17.09,57.39c1.93,0.91,2.51,2.54,1.43,4.3c-0.49,0.79-0.83,1.75-1.79,2.17c-0.66-0.95-0.41-1.97-0.21-2.97
		C16.76,59.73,17.17,58.6,17.09,57.39z"/>
	<path class="st3" d="M70.64,74.68c0.45-2.07,1.26-4.08,0.96-6.27c0.76,0.04,1.51,0.05,2.24,0.32c1.47,0.56,2.24,1.84,2.01,3.4
		c-0.24,1.65-1.21,2.5-2.94,2.54C72.15,74.69,71.4,74.68,70.64,74.68z"/>
	<path class="st3" d="M61.89,77.15c0.63-0.61,1.28-1.16,2.25-0.8C63.77,77.81,63.5,77.91,61.89,77.15z"/>
	<path class="st4" d="M58.08,48.12c0.59-0.04,1.2-0.18,1.76,0.16c1.28,2.46,2.57,4.91,3.85,7.37c0.2,0.38,0.36,0.79,0.54,1.18
		c-2.03,0.07-3.4-1-4.32-2.67C58.88,52.29,58.68,50.14,58.08,48.12z"/>
	<path class="st3" d="M37.98,87.14c0.72,0.08,1.44,0.15,2.16,0.23c0.47,0.41,1.01,0.67,1.61,0.8c0.33,1.02,0.66,2.04,0.98,3.07
		c0.17,0.54-0.01,0.84-0.61,0.85c-1.37,0.02-2.68,0.3-3.99,0.69c-1.01,0.29-1.61-0.15-1.76-1.21c-0.08-0.51-0.03-1.03-0.04-1.55
		C36.96,89.1,37.54,88.16,37.98,87.14z"/>
	<path class="st4" d="M55.01,94.09c0.21-0.9,0.24-1.79,0.03-2.72c-0.39-1.71-1.4-2.71-3.14-3.01c-1.09-0.19-2.19-0.36-3.3-0.02
		c-0.04-0.11-0.08-0.22-0.12-0.33c1.72-1.02,3.44-2.03,5.16-3.05c2.43-0.1,4.87,0.25,7.3-0.19c0.68-0.12,1.38,0.11,1.83,0.7
		c0.9,1.2,1.11,2.72,1.84,4.01c0.23,0.4-0.07,0.89-0.49,1.12c-1.95,1.09-3.77,2.41-5.82,3.32C57.23,94.39,56.12,94.42,55.01,94.09z"
		/>
	<path class="st4" d="M53.26,96.3c-1.49-0.39-3.02-0.22-4.53-0.29c-2.13-0.11-4-0.75-5.14-2.75c-0.43-0.75-0.27-1.09,0.63-1.11
		c1.17-0.03,2.32,0.1,3.44,0.41c2.16,0.6,4.3,1.22,6.46,1.83C53.94,95.08,53.33,95.57,53.26,96.3z"/>
	<path class="st0" d="M31.79,104.1c2.47-0.06,4.91,0.16,7.33,0.62c0.67,0.83,1.56,1.3,2.57,1.58
		C38.57,108.21,33.93,106.92,31.79,104.1z"/>
	<path class="st0" d="M46.12,107.08c-1.07,0.75-1.47,0.6-2.01-0.78C44.88,106.3,45.49,106.73,46.12,107.08z"/>
	<path class="st4" d="M30.54,67.2c2.2-1.34,4.65-2.09,7.08-2.85c4.76-1.48,9.59-2,14.5-0.75c0.18,0.05,0.41,0.01,0.53,0.33
		c-0.96,0.81-2.16,1.24-3.26,1.83c-5.23,2.79-10.64,5.12-16.54,6.11c-0.23,0.04-0.47,0.04-0.71,0.07c0.08-0.83,0.78-1.13,1.32-1.58
		c1.04-0.86,0.92-1.56-0.31-2.05C32.27,67.95,31.33,67.75,30.54,67.2z"/>
	<path class="st3" d="M30.54,67.2c0.79,0.55,1.74,0.74,2.61,1.09c1.23,0.49,1.35,1.19,0.31,2.05c-0.54,0.45-1.24,0.75-1.32,1.58
		c-1.98,0.35-3.85,1.04-5.75,1.66c-1.69,0.55-3.41,0.89-5.17,0.31c-0.14-2.5,0.17-2.99,2.44-4.08c1.06-0.52,2.28-0.84,2.86-2.04
		C27.86,67.58,29.2,67.39,30.54,67.2z"/>
	<path class="st4" d="M42.86,59.6c-5.9,0.94-11.6-0.02-17.62-1.43c2.19-0.83,4.12-1.15,6.16-0.93c3.19,0.34,6.24,1.3,9.36,1.93
		C41.46,59.31,42.16,59.46,42.86,59.6z"/>
	<path class="st4" d="M41.75,88.17c-0.61-0.13-1.14-0.39-1.61-0.8c0.3-0.38,0.66-0.74,1.17-0.5C41.86,87.12,41.86,87.65,41.75,88.17
		z"/>
</g>
<g>
</g>
<g>
</g>
<g>
</g>
<g>
</g>
<g>
</g>
<g>
</g>
<g>
</g>
<g>
</g>
<g>
</g>
<g>
</g>
<g>
</g>
<g>
</g>
<g>
</g>
<g>
</g>
<g>
</g>
</svg>
