<?xml version="1.0" encoding="utf-8"?>
<!-- Generator: Adobe Illustrator 17.1.0, SVG Export Plug-In . SVG Version: 6.00 Build 0)  -->
<!DOCTYPE svg PUBLIC "-//W3C//DTD SVG 1.1//EN" "http://www.w3.org/Graphics/SVG/1.1/DTD/svg11.dtd">
<svg version="1.1" id="Layer_1" xmlns="http://www.w3.org/2000/svg" xmlns:xlink="http://www.w3.org/1999/xlink" x="0px" y="0px"
	 viewBox="0 0 802 512" style="enable-background:new 0 0 802 512;" xml:space="preserve">
<style type="text/css">
	.st0{fill:#110000;}
</style>
<path class="st0" d="M0,511c0-0.33,0-0.67,0-1c1.34-0.38,1.02-1.52,1.02-2.43c-0.03-7.07-0.1-14.14-0.16-21.21
	c0.12-17.83,0.23-35.66,0.35-53.49c2.32,0.13,4.66,0.41,6.9-0.47c1.01-0.4,2.59-0.43,2.47-1.97c-0.14-1.74-1.91-1.86-3.08-1.92
	c-2.44-0.13-4.32,1.48-6.29,2.68c-0.04-1.66-0.12-3.33-0.12-4.99c0-126.3,0-252.59,0.01-378.89c0-2.5,0.09-4.99,0.14-7.49
	c2.1,1.08,3.63,1.12,4.29-1.73c0.84-3.66,1.94-7.27,2.94-10.89c2.78-10.05,2.4-10.47-7.22-8.02C0.24,14.83,2.57,10.19,0,6
	c0-6,0-6,8-6c0.85,2.03,2.6,0.99,3.89,0.99C228.6,1.04,445.3,1.04,662,1.05c2.33,0,4.65,0.14,6.98,0.21
	c-0.27,2.4,0.49,4.56,1.39,6.75c1.42,3.45,0.28,5.73-3.4,6.82c-3.73,1.1-7.5,1.29-11.35,1.2c-3.52-0.09-8.01,4.07-7.07,7.06
	c1.02,3.27,3.4,5.59,7.63,4.42c4.22-1.17,6.02,1.15,5.76,5.06c-0.21,3.25-0.95,6.47-1.44,9.61c1.93,0.95,2.52-1.8,4.18-1.06
	c0.72,1.46-0.02,2.58-0.84,3.65c-2.28,2.96-2.73,6.44-0.82,9.37c3.33,5.08-3.62,9.27-0.73,14.1c0.03,0.05-0.41,0.51-0.69,0.61
	c-4.54,1.6-2.54,5.34-2.26,8.07c0.44,4.42,1.97,4.8,5.73,2.08c0.48,1.24,0.95,2.48,1.43,3.72c-1.3,2.21-3.8,2.4-5.81,3.4
	c-2.25,1.12-3.43,2.81-2.25,5.12c1.16,2.27,3.25,3.08,5.82,2.12c1.68-0.62,2.81-2.33,4.77-2.36c0.11,0.25,0.2,0.51,0.28,0.77
	c-0.23,2.71-0.83,5.26-2.85,7.28c-0.87,0.87-1.4,1.88-0.67,3.13c2.3,3.93,0.99,8.47,2.1,12.64c0.75,2.81-0.16,4.75-3.68,2.85
	c-1.68-0.91-3.62-1.17-5.16,0.21c-1.98,1.77-0.07,3.28,0.63,4.85c0.34,0.76,0.59,1.56,0.91,2.33c4.06,9.82,3.48,11.29-6.08,15.42
	c-5.14,2.22-8.71,7.46-7.38,10.82c2.55,6.41,0.32,10.55-6.34,11.5c-2.41,0.34-4.88,0.28-8.1,0.44c1.12,0.74,1.68,1.01,2.12,1.42
	c1.12,1.04,2.33,2.36,1.58,3.87c-1.16,2.35-2.44,0.07-3.66-0.26c-3.77-0.99-5.85,1.13-4.28,5.08c1.48,3.73,1.57,7.43,1.57,11.25
	c0,4.16-0.02,8.33,0.03,12.49c0.02,1.91,1.15,4.83,2.7,3.44c2.78-2.5,7-2.55,8.96-5.42c1.96-2.87,4.38-3.83,7.43-4.24
	c4.63-0.31,5.6,4.56,8.82,6.24c0.34,0.33,0.68,0.65,1.02,0.98c-1.07,4.48-2.73,8.91-0.95,13.59c0.35,0.93,0.56,1.91-0.14,2.84
	c-4.34,5.81-2.97,12.23-2.11,18.67c0.59,4.43,2.77,4.78,6.18,3.01c0.69-0.1,1.38-0.2,2.08-0.3c11.25,0.47,13.42-1.63,13.09-12.66
	c-0.01-0.49-0.11-0.97-0.17-1.46c1.23-3.54,0.07-7.52,2.08-10.91c0.67,0.08,1.34,0.17,2.02,0.25c0.67,0.41,1.34,0.82,2.01,1.23
	c0.63,2.14,1.4,4.26,1.86,6.44c0.56,2.62,2.04,3.54,4.57,3.04c1.76,0.42,3.14-0.43,4.67-1.14c2.31-1.09,5.85-1.72,6.9,0.18
	c2.05,3.71,4.88,3.21,7.94,3.18c1.06,1.36,1.76,3.17,3.94,3.08c-0.09,2.93,1.16,4.6,4.18,5.18c2.42,0.46,4.89,1.12,6.71,3.03
	c0.46,6.39,0.69,6.53,7.3,4.57c5.26,4.45,12.7,3.86,18.15,7.88c1.38,1.02,2.99,1.4,4.7,1.29c-0.38,5.39,3.37,5.69,7.22,5.88
	c0.21,0.02,0.43,0.04,0.64,0.04c1.1,1.59,1.27,3.37,1.12,5.23c-1.78,2.05-0.77,4.56-1.1,6.84c-3.16,4.99-1.92,10.39-1.3,15.66
	c0.29,2.41,2.35,3.36,4.63,3.66c0.46,0.28,0.92,0.56,1.38,0.84c0.25,2.07,0.5,4.15,0.75,6.22c0.26,2.14,0.48,4.3,3.4,4.38
	c-0.25,1.4-0.49,2.8-0.74,4.2c-1.31-0.38-2.21-2.32-3.92-1.13c-0.72,0.49-0.99,1.36-0.72,2.2c0.84,2.58,2.16,4.9,4.95,5.68
	c2.14,0.59,3.46-0.85,4.14-2.65c0.9-2.37,3.61-4.92-0.29-7.13c-0.4-0.98-0.81-1.96-1.21-2.94c1.78-1.08,3.72-3.12,4.42,1
	c0.21,1.24,1.27,1.96,2.65,1.63c1.34-0.32,1.76-1.41,1.92-2.63c0.39-2.96,0.73-5.93,1.14-8.88c0.56-4.09,0.35-8.34,2.07-12.19
	c0.84-1.89,2.41-3.34,4.78-2.68c2.18,0.61,1.66,2.34,1.65,4.07c-0.02,7.79,2.02,10.03,9.25,10.61c0.03,14.97,0.08,29.95,0.07,44.92
	c-0.01,36.78-0.06,73.55-0.09,110.33c-1.8-0.16-3.44,0.24-3.44,2.35c0,2.12,1.72,2.44,3.46,2.4c0,11.03-0.01,22.05-0.01,33.08
	c-2.37-0.46-4.25-1.66-5.65-3.65c-0.48-0.69-1.15-1.27-2.07-0.86c-1.15,0.51-1.12,1.61-0.82,2.54c1.34,4.09,4.08,6.23,8.52,5.89
	c0.05,4.44-0.09,8.9,0.24,13.32c0.19,2.58-1.32,5.45,1,7.76c0,7,0,7-8,7c-0.6-1.92-2.2-1-3.32-1.03c-4.93-0.16-9.87-0.15-14.81-0.21
	c-0.05-1.52,0.92-4.05-1.1-4.14c-2.68-0.13-1.4,2.58-1.63,4.15c-19.08-0.03-38.15-0.06-57.23-0.08c0.02-1.77,0.03-3.54,0.04-5.3
	c0.96-0.91,1.92-1.83,2.1-3.24c2.29-2.61,2.76-5.82,3.05-9.1c3.91-0.07,8.02,0.66,10.71-3.45c1.94-2.96,1.29-5.37-1.24-7.37
	c-1.76-1.39-4.17-3.51-6-0.96c-2.13,2.95-4.86,5.97-4.3,10.19c-1.43,2.51-2.87,5.03-4.3,7.54c-0.69,0.01-1.38,0.01-2.06,0.02
	c0.01-1.34,0.03-2.67,0.04-4.01c2.21-2.85,3.86-5.9,2.19-9.55c-0.84-1.83-2.07-4.02-4.13-0.83c-1.89-0.14-3.16,0.77-4.02,2.37
	c-1.11,0.34-2.85,0.35-3.22,1.06c-1.82,3.56-5.2,5.37-7.89,7.97c-2.16,2.08-0.64,4.69,2.02,5.26c5.43,1.17,6.8,4.57,6.21,9.47
	c-9.41-0.01-18.82-0.02-28.23-0.03c-1.54-4.77-1.12-10.4-5.97-13.73c-3.29-3.49-7.1-2.16-10.88-1.07c3.5,1.8,7.27,0.85,10.94,1.01
	c0.9,4.75-1.41,7.06-5.85,7.98c-6.47,1.34-12.78,3.2-18.86,5.82c-1.5,0.06-2.99,0.17-4.49,0.17c-136.14,0.01-272.28,0.01-408.43,0
	c-2.83,0-5.65-0.12-8.48-0.18c-1.09-9.03-2.4-9.95-10.8-7.61c-1.46,0.16-2.91,0.32-4.37,0.48c-5.25,0.15-10.5,0.3-15.74,0.45
	c-1.01-8.28-1.69-8.78-9.93-7.21c-0.64,0.12-1.29,0.24-1.93,0.37c-2.96,0.69-5.92,1.38-8.88,2.07c-4.23,0.07-8.15,1.3-11.92,3.15
	c-6.52,3.21-12.95,6.67-20.11,8.34c-3.33,0.05-6.65,0.13-9.98,0.14c-22.96,0.08-45.91,0.14-68.87,0.21
	C41.56,511.08,20.78,511.04,0,511z M449.48,365.42c0.34-0.46,0.68-0.92,1.02-1.38c0.48-2.42,1.24-4.82,1.38-7.26
	c0.17-3.01-0.38-6.13,3.27-7.56c5.88-1.4,11.29-4.08,16.9-6.22c4.42-0.51,8.4-2.33,12.41-4.08c2.56,0.02,2.94-1.87,3.02-3.74
	c0.2-4.26-0.3-8.34-3.94-11.28c0.92-3.33-1.45-6.52-0.39-9.85c3.62-10.11,2.8-20.62,2.81-31.06c0-2.47-1.56-3.51-3.56-2.89
	c-3.78,1.18-6.64-0.1-9.72-2.11c-4.19-2.73-4.95-2.2-6.41,2.71c-2.41,8.1-2.51,16.38-2.3,24.71c0.07,2.56,0.08,5.16-2.26,7.14
	c-2.85-3.13-0.67-7.09-2.41-11c-0.66,3.35-0.17,6.38-3.51,7.39c-1.78-1.42-2.22-4.04-4.49-5.02c0.18-0.36,0.36-0.71,0.54-1.07
	c3.52-2.66,4.45-5.64,1.13-9.14c-0.75-0.79-2.35-1.66-0.71-2.67c4.42-2.74,3.76-6.99,3.75-11.12c-0.01-6.24-1.19-7.08-7.02-4.95
	c-5.67,2.07-6.26,1.75-7.88-4.13c-0.19-0.68,0.11-1.76-1.35-1.78c-2.97,4.93-0.98,10.77-2.8,15.9c-0.69-0.09-1.39-0.18-2.08-0.27
	c-4.92-5.36-11.54-9.08-15.14-15.71c0-4.66,0-9.32,0-13.98c-2.57,3.44,0.02,8.68-5.66,10.14c-1.89,2.91-4.29,5.12-7.8,5.88
	c-0.65-0.05-1.19,0.08-1.4,0.8c0,0-0.13,0.03-0.12,0.03c-7.24,0.42-13.94-0.34-17.52-7.99c-0.18-0.39-0.75-0.6-1.14-0.89
	c-0.14-1.23,0.56-3.03-0.84-3.52c-1.66-0.58-2.42,1.29-3.28,2.37c-1.28,1.61-1.65,3.51-1.11,5.53c-0.09,0.19-0.05,0.35,0.1,0.49
	c-5.7,4.39-12.46,8.18-9.45,17.34c0.36,1.11-1.11,0.96-1.46,1.64c-1.16,0.25-2.69,0.02-2.68,2.07c3.75,0.22,7.31,0.03,10.54-2.03
	c3.7-0.14,7.39-0.28,11.09-0.42c-0.04,0.45-0.07,0.9-0.11,1.36c-5.91,1.02-11.82,2.04-17.73,3.07c-0.36,0.07-0.71,0.14-1.07,0.22
	c-2.86-0.26-6.56,0.38-4.81,3.71c2.57,4.88,3.33,11.08,8.67,14.32c0.09,3.67,2.27,6.24,4.58,8.74c0.8,0.54,1.86,0.9,2.35,1.65
	c5.16,7.83,8,16.51,9.24,25.75c0.32,1.61,0.64,3.21,0.95,4.82c-0.19,0.94-0.56,1.75-1.58,2.05c-2.07-2.17-4.66-0.86-7.03-1.05
	c-1.03-0.2-1.82,0.18-2.45,0.98l0-0.01c-2.77,0.86-5.53,1.93-2.72,5.39c5.34,6.58,13.17,4.06,20.01,5.11
	c0.48,0.07,1.2-0.58,1.62-1.06c3.08-3.57,7.26-5.03,11.59-6.27c2.34-0.67,4.9-1.81,4.11-4.62c-0.79-2.8-3.62-1.44-5.61-1.31
	c-4.1,0.26-7.63,3.43-12.01,2.42c0.8-0.93,1.59-1.85,2.39-2.78c1.27-1.23,2.92-1.66,4.55-2.12c4.33-0.19,6.14-3.1,3.27-7.61
	c-3.69-5.78-3.61-11.38-2.21-17.53c1.93-8.45-0.22-17.25,2.05-25.69c4.86-0.95,7.22,2.65,9.84,5.57c1.92,2.14,3.72,4.27,6.82,4.59
	c3.11,3.46,7,5.85,11.03,8.05c2.41,1.59,4.81,3.19,7.22,4.78c-1.81,2.92-0.51,5.55,0.75,8.18c0.24,1.57,0.61,3.14,0.08,4.72
	c-1.04-0.47-2.06-0.99-3.12-1.39c-1.08-0.41-2.26-0.72-3.14,0.35c-0.81,0.98-0.65,2.17-0.23,3.25c0.55,1.42,1.7,1.91,3.16,1.54
	c0.95-0.24,1.87-0.57,2.8-0.86c1.19-0.6,2.54-1.32,3.75-0.61c4.41,2.61,8.21,0.51,12.09-1.28c3.7,2.11,7.47,4.12,10.71,6.95
	c0.76,2.72-1.49,2.73-3.04,3.36c-4.03,1.65-8.59,1.99-12.12,4.88c-1.76-0.2-2.71,1.32-4.08,1.93c-3.04-2.37-5.61,2.07-8.64,0.64
	c0.55-2.27,5.05-3.71,1.89-6.38c-1.61-1.36-5.05-0.84-6.27,1.16c-2.34,3.84,3.21,2.96,3.81,5.39c-0.99,1.66-2.63,2.18-4.49,2.29
	c-1.75-0.32-2.23,1.71-3.65,1.99c-5.4,0.71-10.58,1.94-14.7,5.86c-3.63,0.76-5.75,3.41-7.78,6.18c-2.57-0.31-5.24-1.21-7.69-0.79
	c-2.65,0.46-6.79-0.38-6.86,4.43c-2.48,1.92-4.93,1.62-7.22-0.27c-1.66-1.36-3.24-2.07-4.39,0.37c-1.55,3.28-4.06,4.98-7.57,5.74
	c-2.09,0.45-3.62,1.99-2.72,4.46c1.18,3.25,9.59,6.95,12.79,5.13c5.55-3.17,11.88-2.79,17.7-3.83c6.37-1.14,11.71-2.97,16.44-7.16
	c1.79-1.58,3.85-2.97,6.28-1.43c5.05,3.2,10.61,2.16,16.02,2.07c2.76-0.05,5.22-1.08,6.22-4.07c0.95-1.08,1.28-2.36,1.17-3.77
	c0.29-0.78,1.24-1.72-0.47-2.05C449.47,365.8,449.47,365.61,449.48,365.42z M554.63,298.02c0.25,0.26,0.49,0.52,0.74,0.77
	c0.13-0.23,0.27-0.45,0.4-0.68c0-1.93,0-3.85,0-5.78C555.3,294.29,553.53,295.99,554.63,298.02z M349.01,440.07
	c0.65-0.05,1.4,0,1.08-1.05l0.01,0.12c1.7,0.69,2.77-0.68,4.09-1.26c4.63-0.16,8.45-2.64,12.52-4.4c2.59-1.79,2.71-4.14,1.53-6.77
	c2.46-5.58-2.99-4.36-5.14-5.98c-0.22-1.66,0.31-3.53-1.34-4.79c-1.19-4.59-3.71-5.67-7.69-2.91c-4.42-0.86-6.06,3.33-9.1,5
	c-0.34,0.03-0.69,0.06-1.03,0.08c-4.56-2.8-9.13-2.61-13.66,0.03c-0.94,0.55-2.34,0.72-2.5,2.17c-0.22,2.04,1.75,1.63,2.72,2.3
	c1.77,1.23,3.66,2.28,5.49,3.4c0.09,0.42,0.18,0.85,0.27,1.27c0,0.54,0.01,1.08,0.01,1.62c-1.53,0.88-3.19,1.74-0.33,3.09
	c-0.11,1.94-0.33,3.8-0.84,5.74c-0.68,2.63-0.2,5.67,3.89,5.54c3.64-0.19,7.21-0.62,10.06-3.25L349.01,440.07z M693.13,445.13
	c0.57-0.31,1.13-0.66,1.72-0.92c1.26-0.54,3.14-0.25,3.07-2.45c-0.02-0.66-0.02-1.4-0.77-1.61c-1.96-0.55-2.44,1.18-3.32,2.27
	c-0.51,0.63-0.98,1.3-1.47,1.95c-0.57,0.76-2.41,1.37-1.33,2.34C692.13,447.68,692.71,446.1,693.13,445.13z M275.91,367.09
	c-0.09,0.63-0.19,1.25-0.28,1.88c-1.81-0.02-3.63,0.04-5.44-0.1c-1.68-0.12-3.57-1.88-4.94,0.29c-1.27,2,0.68,3.31,2.28,4.8
	c-6.67,1.53-12.48,3.45-18.57,4.51c-6.88,1.2-13.26,4.61-20.36,5.13c-0.16,0.01-0.32,0.09-0.46,0.18
	c-3.73,2.28-7.85,2.38-12.05,2.29c-2.13-0.05-4.31,0.22-6.4,0.66c-4.46,0.93-8.89,2.35-11.47-3.38c-0.67-1.48-2.52-1.72-3.97-0.91
	c-1.85,1.03-1.14,2.54-0.23,3.81c1.38,1.92,2.18,4.08,3.1,6.22c1.78,4.15,4.58,4.92,7.67,1.82c2.28-2.28,4.89-3.21,7.86-3.87
	c20.25-4.49,40.49-8.99,60.7-13.63c4-0.92,7.89-2.61,10.92,2.42c0.75-2.54,1.29-4.39,1.83-6.24c8.3,0.42,14.9-5.6,22.97-6.06
	c8.67,0.9,16.56-2.1,24.46-4.97c3.51-1.27,6.74-1.69,9.09,1.9c0.65,0.99,0.25,3.09,2.15,2.63c1.97-0.48,1.23-2.38,1.2-3.8
	c1.01-1.65,2.33-3.1,2.09-5.32c-0.36-3.44-1.55-4.21-4.16-1.61c-2.7,0.81-5.37,1.81-8.12,2.39c-2.57,0.54-5.28,2.36-7.82-0.16
	c1-1.78,2-3.56,3.17-5.62c-3.3,0.25-6.08,0.5-8.86,0.66c-2.93,0.17-6-0.93-8.75,0.96c-1.9,0-3.8,0-5.71-0.01
	c-2.95-0.54-4.51,1.85-6.04,3.47c-1.3,1.38,0.76,1.41,1.7,1.67c-0.85,2.36-4.57,3.46-3.04,6.87c-5.3,1.37-10.61,2.73-15.91,4.1
	c-1.71-0.69-4.09,2.79-5.33-0.85c3.23-0.66,1.72-2.25,0.74-3.75c1.9-5.51-2.26-4.02-4.92-4.27c0.68-1.87,3.29-2.49,3.15-4.89
	c1.92-0.49,3.88-0.88,5.76-1.51c1.38-0.47,1.39-1.78,1.06-2.93c-0.29-1-1.48-1.22-1.99-0.67c-2.8,3.07-5.49,0.22-8.21,0.01
	c-1.74-0.01-3.49-0.01-5.23-0.02c-2.02-3.16,1.75-2.57,2.85-3.83c-2.05-0.58-4.03,0.04-5.61-1.14c-1.65-1.24-3.58-1.47-3.47,0.92
	c0.1,2.3-5.19,5.35,0.65,7.04c0.02,0.49,0.03,0.98,0.06,1.47c0.39,6.85,1.25,7.53,7.79,5.97c1.16-0.28,1.88,0.02,2.46,0.97
	c0.12,0.74,0.25,1.47,0.37,2.21c0.23,0.37,0.45,0.75,0.68,1.12C275.5,366.3,275.71,366.69,275.91,367.09z M481.12,353.18
	c1.76,0.06,3.27-0.33,3.98-2.18c2.81-0.25,5.64-0.43,8.17-1.89c5.89-1.24,11.75,0.27,17.62,0.15c2.94,0.23,2.17,4.19,4.78,4.75
	c3.16,1.25,6.87,1.18,6.83-2.65c-0.06-4.89-0.42-9.92-0.78-16.1c-3.07,3.88-2.93,7.45-3.96,10.6c-1.63,0.09-3.26,0.19-4.89,0.28
	c-4.53-3.17-9.66-2.81-14.78-2.5c-0.01-0.65-0.21-1.37,0-1.94c0.37-1,1.6-1.91,0.57-3.03c-1.1-1.19-2.12,0.12-3.03,0.52
	c-2.95,1.29-5.83,2.76-8.73,4.15c-0.85,1.32-1.62,2.72-3.1,3.48c-1.92,0.75-2.1,2.8-3.13,4.21c-3.93-0.85-2.94,3.37-5.24,4.75
	C478.03,355.68,480.79,356.94,481.12,353.18z M230.48,452.89l0.36,0.21c-0.88,2.15-0.46,3.95,2.1,3.73
	c5.13-0.44,1.64-4.68,2.78-7.36c4.02,1.68,5.17,6.85,9.62,7.57c-0.18,1.45,0.1,3.21-0.63,4.3c-2.37,3.56,0.6,2.6,2.19,2.88
	c0.39,0.22,0.78,0.44,1.17,0.67l0.08-0.01c-0.22,1.53-0.02,2.81,1.83,3.13c0.14,2.71,0.26,5.45,4.16,3.06
	c0.68-0.07,1.36-0.15,2.04-0.22c4.39-0.1,8.39-1.8,12.49-3.07c6.11-2.58,12.22-5.17,18.32-7.75c1.31-3.67,3.05-7.3,1.13-11.29
	c0.28-2.92,0.69-5.84,0.8-8.78c0.08-2.03,0.77-4.67-1.83-5.59c-2.55-0.9-5.21-0.7-7.06,1.84c-2.05-0.25-4.13-0.63-5.88,0.96
	c-1.48-0.06-3.06-0.47-4.43-0.11c-3.52,0.92-6.38,1.09-7.7-3.27c-0.34-1.12-1.74-2.21-3.05-0.46c-7,2.24-14.88,1.82-20.95,6.9
	c-1.37-1.05-2.98-2.04-4.3-0.36c-1.56,1.97-1.28,4.25,0.11,6.34c-0.11,0.85-0.54,1.47-1.31,1.85c-1.25-0.08-2.58-0.95-3.67,0.4
	c-1.08,0.67-2.15,1.36-3.24,2.02c-0.95,0.58-2.25,1.03-1.63,2.5c0.59,1.37,1.87,1.17,2.91,0.68
	C228.06,453.1,229.08,452.19,230.48,452.89z M406.68,192.22c2.22,2.35,3.97,3.03,4.35-1.22c1.98-1.11,2.02-3.02,2.02-4.94
	c-1.28-6.77,0.41-13.66-0.9-20.44c-2.14-11.06-4.22-22.13-6.2-33.21c-0.53-2.98-2-4.51-5.03-4.26c-1.98,0.16-3.95,0.51-5.93,0.78
	c-4.1-3.69-8.47-7.34-14.39-5.83c-5.67,1.44-10.49-0.47-15.61-2.15c-3.15-1.03-4.66-4.23-7.82-4.99
	c-1.69-5.53-2.69-11.26-5.09-16.58c-4.35-9.65-12.1-14.73-20.44-11.99c-5.01,1.65-6.37,0.01-7.66-4.18
	c-2.05-6.66-6.03-11.66-13.2-13.53c-1.09-0.28-2.76-0.38-3-2.16c-0.71-5.35-4.67-6.32-9.06-6.68c-3.44-1.96-6.47,0.23-9.71,0.79
	c-3.42,0.59-2.59,2.25-1.67,4.23c-0.58,1.78-1.16,3.57-1.75,5.35c-0.69-1.3-1.41-2.58-2.07-3.9c-1.9-3.81-5.21-4.13-7.57-1.47
	c-3.34,3.75-5.45,1.94-7.98-0.42c-0.79-3.97-3.06-4.08-6.03-2.29c-2.13-2.51-2.85-5.49-2.91-8.7c0.89-1.61,3.04-0.67,4.07-2.01
	c3.3,5.33,3.3,5.33,6.53,0.04c1.77-2.89,4.78-2.77,7.4,0.31c3.04,1.99,6.08,4.03,10.43,1.3c-3.2-2.1-4.9-5.38-8.29-6.83
	c-3.58,2.76-8.08,1.53-12.05,2.71c-1.29,0.38-1.05-1.29-1.31-2.14c0.67-1.79,2.14-2.91,3.4-4.23c1.49-1.55,2.94-3.25,2.8-5.64
	c-0.09-1.59,0.64-3.9-1.32-4.4c-2.39-0.62-2.12,2.1-2.55,3.39c-1.05,3.09-2.31,3.3-4.31,0.89c0.64-0.89,1.54-2.87,0.89-2.75
	c-2.17,0.4-3.84-2.67-6.36-0.18c-4.75,4.7-6.56,10.76-8.9,17.12c-1.67-6.83-6.01-11.59-9.48-16.86c2.98-0.42,2.09-1.62,0.68-3.07
	c-2.34-2.41-5.63-2.3-8.5-3.31c-2.85-0.15-5.51-2.38-8.52-0.8c-1.94-1.81-4.07-3.45-5.77-5.45c-6.46-7.57-13.11-7.87-20.66-1.64
	c-8.76,7.22-11.36,17.38-6.15,26.59c0.3,2.58-0.87,5.36,1.04,7.72c-1.23,4.14-2.3,8.3-2.81,12.6c-0.55,4.63,2.67,7.56,4.76,11.01
	c-0.92,0.74-2.78-1.28-3.13,1.01c-0.26,1.74,0.41,3.18,1.84,4.26c3.18,2.42,7.1,2.12,10.71,2.93c4.34,3.47,7.55,8.42,13.28,10.04
	c0.03,0.98,0.46,2.22,0.03,2.91c-4.26,6.87-0.93,13.16,1.32,19.54c-0.75,2.01-1.53,4.04,1.7,4.57c0.6,4.23,0.02,7.04-5.4,5.1
	c-1.84-0.66-3.62,0.11-4.37,2.27c-0.32,0.94-0.71,2.14-1.92,1.87c-1.56-0.34-1.08-1.86-1.12-2.94c-0.14-3.92-1.45-5.42-5.2-2.87
	c-2.81,1.91-5.98,1.42-9.18,1.26c-6.93-0.34-10.3-5.67-14.17-10.03c-3.53-3.96-7.34-4.22-11.83-2.6c-1.08,0.07-2.17,0.13-3.25,0.2
	c-0.43-1.4-1.33-2.42-2.84-2.22c-5.62,0.73-10.59-1.49-15.65-3.3c-5.5-2.77-10.79-2.31-15.89,1.03c-2.96-0.09-3.04,1.99-3.09,4.09
	c-0.49,0.36-0.97,0.71-1.46,1.07c-3.01,0.22-4.49,1.83-4.43,4.85c-1.69,0.09-3.38,0.19-5.07,0.28c0.01-4.03,1.35-8.77-5.01-9.42
	c-3.61-3.45-7.05-1.58-10.49,0.35c-2.58,0.15-4.34-3.05-7.46-1.4c-6.79,3.57-15.79,0.58-18.93-6.13c-0.89-1.9-0.97-3.6-4.03-2.03
	c-2.4,1.23-5.81-2.35-5.67-5.12c0.59-11.76,1.12-23.52,1.66-35.28c0.39-8.48,1.54-16.78,4.27-24.9c2.43-7.22,2.86-14.69-0.35-21.91
	c-0.95-2.14-2.31-4.54-5.07-3.86c-2.35,0.58-3.81,2.63-3.8,5.28c0.02,3.98-0.38,7.97,0.86,11.89c0.47,1.49,0.8,2.82,2.48,3.41
	c3.43,1.2,2.83,3.56,1.62,6.05c-2.73-2.04-4.57-2.3-5.25,1.93c-0.89,5.55-2.04,11.07-3.41,16.51c-0.98,3.88,0.67,4.15,3.65,3.32
	c1.28,2.51,1.42,4.58-2.04,5.24c-1.7-1.24-2.48-0.15-2.66,1.29c-0.22,1.76-0.05,3.56-0.06,5.35c-0.11,1.01-0.22,2.02-0.33,3.03
	c-1.31,3.87-1.72,7.88-1.96,11.93c-0.17,2.97,1.14,3.82,3.84,3.06c1.3,1.14,1.96,2.62,2.23,4.29c-3.56,0.36-7.55-0.16-7.92,5.27
	c-0.43,6.42-1.11,12.83-1.81,19.23c-0.24,2.22,0.29,3.42,2.71,3.7c2.04,0.23,2.79,2.28,1.01,2.88c-5.54,1.88-3.55,6.28-4.01,9.9
	c-1.18,4.37-0.8,8.86-1.06,13.31c-0.2,3.43-0.17,6.42,4.85,7.75c-5.87,0.08-4.82,3.63-4.8,6.61c0.05,5.45,0.11,10.91,0.17,16.36
	c-0.12,2.15-0.13,4.32-0.38,6.45c-0.22,1.84-0.39,3.43,2.18,3.36c-1.84,4.37-2.31,8.89-2.02,13.63c0.52,8.37,1.28,16.71,1.11,25.14
	c-0.18,8.97,2.33,17.82,1.91,26.87c-0.14,2.99,1.49,2.89,3.47,1.46c0.79-0.57,1.83-1.45,2.4-0.04c0.6,1.49-0.75,1.95-1.89,2.31
	c-2.04-0.52-3.25-0.01-2.91,2.37c0.45,3.11,0.91,6.22,1.37,9.32c0.57,5.32,1.14,10.63,1.7,15.95c0.32,0.73,0.63,1.47,0.95,2.2
	c-0.29,2.09-0.34,4.14,0.92,5.99c0.17,2.77,0.81,5.43,1.89,7.98c0.23,3.41,0.46,6.81,2.21,9.88c-0.69,3.02-2.09,4.78-5.69,4.7
	c-2.18-0.05-4.5,1.04-5.87,3.5c4.6-3.88,11.75,1.85,15.71-4.63c0.46-0.75,1.78,0.26,2.52,0.93c0.25,5.47,3.37,1.35,5.19,1.55
	c3.84-0.04,7.49-1.09,11.16-2.02c2.41,0.27,4.81,0.71,7.22,0.76c3.38,0.07,4.61-1.33,2.41-4.44c1.26-5.38,3.59-3.18,5.94-0.84
	c-0.83,0.83-1.88,1.73-1.21,2.97c0.55,1.01,1.81,0.67,2.72,0.45c2.26-0.55,4.47-1.25,6.71-1.89c1.47-0.05,2.94-0.09,4.41-0.14
	c3.77,0.48,7.45-0.21,11.15-0.75c2.44-0.36,2.92-1.69,2.22-3.79c0.14-0.9,0.28-1.81,0.42-2.71c2.5,0.13,4.24,0.75,3.19,3.91
	c-0.52,1.59,0.23,2.73,2.08,2.14c6.56-2.09,13.51-1.23,20.11-2.76c3.45-0.8,7.34-1.3,8.13-7.74c1.4,5.25,4.32,5.87,7.34,5.58
	c5.41-0.53,10.93-0.56,16.09-2.68c2.33,0.02,4.66,0.05,6.98,0.07c0.19,0.84,0.76,2.02,1.49,1.42c5.23-4.28,11.96-3.16,17.79-5.19
	c2.28-0.09,4.56-0.21,6.84-0.26c1.92-0.05,3.28-0.53,2.61-2.89c0.71-2.39,1.86-3.84,4.51-2.14c-0.36,2.37-0.36,4.42,3.04,3.87
	c7.91-1.29,15.83-2.56,23.75-3.84c0.33-0.01,0.66-0.02,0.98-0.03c6.76,0.37,13.16-1.77,19.71-2.87c2.01-0.32,4.37,1.05,5.99-1.22
	c2.19-0.74,1.49,2.5,3.24,2.37c-0.18,3.25,0.12,6.8-4.92,7.34c4.45-0.33,5.25,2.52,5.52,5.57c0.29,3.25,0.27,6.53,0.39,9.79
	c-3.12,0.01-6.31,0.43-9.34-0.07c-4.73-0.79-8.87,2.54-13.45,1.59c-3.44-0.71-5.71,0.36-7.14,3.46c-2.08,0.64-5.21-1.44-5.96,2.6
	c-1.74,9.33,0.65,14.15,9.15,18.14c2.17,1.02,4.42,2.47,0.84,4.33c-4.08,2.12-2.37,3.98-0.2,6.67c2.74-6.27,8.2-10.66,8.2-17.69
	c3,0.34,5.38-0.63,7.51-2.88c3.58-3.79,7.96-4.99,13.13-3.45c3.95,1.18,8.01,2.11,12.17,0.8c5.77-1.05,11.49-0.1,17.23,0.38
	c2.9,0,5.81,0.01,8.71,0.01c4.48,0.66,8.8-0.76,13.2-1.03c6.01,0.02,11.84-0.72,17.06-4.05c4.7-2.79,10.5-4.12,13.03-9.81
	l-0.08,0.08c5.26-2.26,5.66-3.19,3.02-7.02c-3.99-4.32-5.82-9.33-5.08-15.27c0.22-1.78,0.31-3.91-2.07-4.48
	c-2.12-0.51-3.95,0.08-4.85,2.36c-1.84,0.34-3.08,1.22-3.06,3.29c-5.98,0.53-12.05-0.8-18.36,0.65c2.14,3.38,5.82,3.57,8.31,5.54
	c-0.43,2.48-1.72,4.25-4.16,5.09c-9.11-2.96-17.9-7.1-27.73-7.35c-2.38-1.28-4.76-2.56-7.14-3.85c0.31-1.24,0.54-2.52,0.96-3.73
	c1.26-3.67,0.39-5.69-3.88-5.3c-0.96,0.09-1.94,0.05-2.91,0.07c-5.07-1.62-9.45-4.65-14.13-7.04c-3.56-5.2-4.35-10.67-2.55-16.82
	c0.85-2.9,0.38-6.18,0.51-9.28c3.06-11.51,8.85-21.9,13.32-32.83c0.58-0.02,1.17-0.03,1.75-0.05c4.68-3.02,9.36-6.04,14.04-9.06
	c1.86-1.02,3.72-2.04,5.57-3.06c5.79-1.68,11.58-3.36,17.38-5.05c2.35,0.41,4.55-0.27,6.77-0.9c1.76-0.5,2.52,0.1,2.07,1.96
	c-3.03,1.01-6.01,2.06-5.66,6.17c0,0-0.03-0.02-0.03-0.02c-0.3,0.36-0.6,0.71-0.9,1.07c-0.63,13.46,6.62,23.99,17.85,25.93
	c1.02,1.6,2.3,2.95,3.9,3.97c1.65,2.24,3.24,4.52,5.56,6.17c4.94,3.52,10.56,3.13,14.5-1.03c0.45-0.08,0.91-0.16,1.36-0.24
	c1.45,0.92,2.99,1.15,3.84-0.57c3.73-7.52,10.64-11.99,16.49-17.48c2.12,0.76,2.9,2.73,3.67,4.49c2.07,4.7,3.88,9.53,5.83,14.28
	c0.76,1.84,1.17,4.17,3.67,3.89c0-9.11,0-17.89,0-26.67c0.03-4.86,0.05-9.71,0.08-14.57c0.31-3.7-0.91-6.92-3.35-9.6
	c-1.67-1.83-4.3-2.54-5.44-0.04c-2.42,5.3-4.32,2.51-6.79,0.24c-9.79-9-12.85-9.07-22.94-0.79c-2.64,2.17-5.79,3.09-8.97,4.06
	c-3.98,1.22-6.81,0.91-7.69-4c-0.28-1.58-1.26-3.72-3.77-1.98c-1.31,0-2.63,0-3.94,0.01c-0.91-0.42-1.82-0.84-2.73-1.26
	c0.06-1.24,0.12-2.49,0.17-3.73c3.34-3.83,3.15-9.08,5.39-13.36c0.38-0.72-0.09-2.63,1.33-1.9c2.92,1.5,2.93-1.11,3.73-2.35
	c1.34-2.06,2.41-4.3,3.59-6.47c1.21-1.27,2.43-2.55,3.64-3.82c0.64-0.15,1.27-0.3,1.91-0.45c4.23-0.19,8.23,0.55,11.88,2.81
	c2.73,3.68,5.97,3,9.04,0.74c1.63-1.2,3.07-2.5,5.2-2.59c2.11-0.41,3.94,0.41,5.76,1.29c2.56,6.83,2.56,6.85-4.15,7.9
	c-1.18,0.18-2.35,0.27-2.63,1.73c-0.28,1.43,0.06,2.5,1.51,3.24c2.73,1.39,5.81,3.53,4.58,6.67c-1.83,4.66,1.1,4.15,3.66,4.56
	C403.5,190.88,405.09,191.55,406.68,192.22z M555.52,303.92c-0.03-1.01,0.74-2.22-1.15-3.18c-0.45,4.08-1.38,7.85,0.19,11.88
	c0.24-2.46,0.48-4.93,0.72-7.39C555.36,304.8,555.44,304.36,555.52,303.92z M197.17,416.97c-0.31-1.6-0.61-3.19-0.92-4.79
	c3.9-3.75,3.43-8.01,1.35-12.38c-0.57-1.21-2.93-2.16-2.83-1.34c0.45,3.79-4.15,6.62-1.77,10.54c1.2,4.02,0.96,8.53,3.99,11.94
	c1.16,5.08,5.74,3.36,9.51,4.57c-3.21,3.62-0.42,4.9,2.24,6.4c3.26,1.84,4.86,4.21,2.93,8.17c-1.5,3.06-0.55,6.15,1.26,8.94
	c0.9,3.8,3.08,2.38,5.21,1.3c2.2-1.12,2.96-2.5,1.05-4.59c-1.36-1.49-1.88-3.09-0.2-4.74c1.44-0.02,2.9,0,3.07-1.98
	c3.14,2.15,5.73-0.13,8.49-1.07c0.82-0.08,1.63-0.16,2.45-0.25c1.72-0.19,3.7-0.67,3.4-2.69c-0.31-2.11-2.39-1.73-4.04-1.48
	c-1.29,0.19-2.59,0.36-3.89,0.54l-0.17,0c-1.02-2.57-1.49-5.48-5.7-4.34c-1.89,0.51-3.12-1.52-3.54-3.45
	c-0.38-1.78-0.65-3.58-1.01-5.36c-0.96-4.82-7.85-7.43-10.47-3.45c-3.04,4.63-6.65,3.77-10.64,3.53c0.09-0.98,0.19-1.96,0.28-2.95
	c0.09-0.11,0.27-0.25,0.25-0.33C197.42,417.45,197.28,417.21,197.17,416.97z M559.19,292.1c-0.53,5.55-1.07,11.1-1.6,16.65
	c-1.09,2.59-0.63,5.17-0.18,7.77c0.84-2.51,1.85-4.95,1.41-7.62c0.51-5.54,1.03-11.09,1.54-16.63c1-2.7,0.83-5.43,0.15-8.22
	C559.8,286.69,558.71,289.25,559.19,292.1z M704.05,419.48c-0.2,2.31-1.93,5.58,1.65,6.19c3.11,0.54,3.62-2.78,4.2-5.18
	c0.19-0.76-0.02-1.63-0.05-2.45C705.68,416.09,704.62,416.35,704.05,419.48z M590.96,454.9c1.49,0.47,2.97,2.49,4.45,1.05
	c1.04-1.01-0.87-1.67-1.55-2.43c3.73-3.05,7.92-5.83,6.57-11.72c0.49-2.8-2.72-2.85-3.5-4.7c0.49-3.15-2.37-3.49-4.11-4.72
	c3.4-5.61,3.08-7.33-1.45-8.28c-1.98,0.01-4.06-0.35-5.92,0.13c-2.51,0.65-3.87,2.88-4.4,5.32c-0.41,1.89,1.48,1.2,2.38,1.62
	c0.81,1.65,0.26,3.05-1.31,3.58c-4.47,1.51-5.76,5.39-7.28,9.17c-8.02,2.16-12.55,8.69-17.86,14.24c-0.29,0.3-0.56,1.06-0.4,1.3
	c3.51,5.08-2.2,4.04-3.77,5.73c-3.06-1.79-4.08,0.36-5.12,2.6c-1.19,2.53,0.66,2.76,2.32,3.17c0.07,1.66-0.11,3.37,0.27,4.96
	c0.34,1.44,1.69,3.41,3.04,2.45c2.47-1.74,5.69-2.78,7-5.95c2.73-6.58,2.74-6.57,8.62-2.06c1.28,0.98,3.71,2.56,3.62-0.12
	c-0.21-6.19,3.14-6.72,7.78-6.4c0.9,0.06,1.44-0.72,1.71-1.57c2.5,0.2,3.31-1.53,3.97-3.45c0.64-1.85,1.3-3.68,3.09-4.78
	c0.2,0,0.38,0.05,0.55,0.14C590.1,454.43,590.53,454.67,590.96,454.9z M269.81,397.74c1.43-2.16,3.71-3.2,5.87-4.34
	c1.47-0.77,0.98-1.34,0.08-2.06c0.15-2.04-0.94-3.02-2.83-3.32c-2.91-0.45-5.83-0.9-8.75-1.35c0.76-1.46,1.53-2.93,2.48-4.76
	c-2.8,0.46-5.04,0.8-7.27,1.2c-1.34,0.24-2.76,0.7-2.61,2.35c0.15,1.75,1.67,1.73,3.01,1.63c1.46-0.12,2.92-0.29,4.37-0.44
	c-3.39,5.66-3.31,5.95,3.17,11.63c0.56,0.24,1.12,0.49,1.68,0.73C269.28,398.58,269.55,398.16,269.81,397.74z M582.04,407.19
	c1.39,2.33,1.85,5.83,5.96,4.72c1.64,1.3,3.56,1.15,5.47,1.04c2.82-0.74,5.33,0.74,8.01,1.08c1.42,1.34,0.64,2.26-0.16,3.74
	c-1.18,2.2-2.28,4.83-0.56,7.44c3.16,3.53,6.27,3.06,9.34-0.13c1.1-0.31,2.18-0.69,3.3-0.92c1.47-0.29,3.06-0.45,3.29-2.33
	c0.24-1.95-1.14-2.99-2.63-3.73c-0.99-0.49-2.16-0.63-3.24-0.92c-1.88-1.89,0.28-4.89-1.84-6.71c0.92-3.35,4-6.26,2.1-10.21
	c-0.26-0.54-0.37-1.38,0.49-1.6c6.47-1.7,6.17-8.06,8.25-12.56c1.42-3.07,0.23-6.01-4.31-6.26c-4.06-0.22-8.08-1.17-12.12-1.8
	c-2.18-0.45-4.06-8.05-6.58-0.27c-3.23,6.14-5.69,12.46-4.79,19.6c0.41,3.23-0.46,6.13-2.11,8.87c-2.6,0.83-3.1-0.7-3.08-2.76
	c0.02-1.89,0.54-3.86-0.84-5.54c-0.69-2.56-0.87-2.71-1.92-1.44c-2.42,2.93-4.63,6.03-6.99,9.15
	C578.93,406.22,580.48,406.71,582.04,407.19z M187.15,381.89c0.09-2.65-1.15-3.85-3.84-3.85c-2.86,0.01-4.37,1.13-4.11,4.13
	c-0.55,1.32,0.39,2.98-1.09,4.46c-0.36-1.48-0.66-2.67-0.95-3.86c0.34-3.24-1.27-4.37-4.18-3.52c-6.92,2.02-14.13,2.05-21.17,3.19
	c1.27-1.82,3.31-2,5.23-2.35c6.13-1.1,12.28-2.09,18.4-3.23c3.21-0.6,6.27-1.53,5.51-5.92c2.07-3.34,0.67-6.29-0.9-9.32
	c-0.95-1.82-2.83-3.68-1.43-5.92c1.51-2.41,1.23-5.07,1.58-7.67c4.52,2.46,4.9,2.14,4.96-3.92c0.45,0.19,1.02,0.26,1.32,0.58
	c0.93,0.98,0.87,3.32,2.98,2.64c1.73-0.56,1.39-2.41,1.55-3.88c0.4-3.71-0.49-7.28-1.13-10.88c-0.18-1.02-0.65-1.97-1.86-1.99
	c-1.22-0.02-1.66,0.94-1.89,1.95c-0.32,1.38,0.07,3.17-2.08,3.44c-0.45-1.21-0.65-2.92-2.4-2.59c-1.27,0.23-1.37,1.74-1.51,2.87
	c-0.19,1.48-0.23,2.97-0.44,5.83c-1.24-3.92-2.03-6.44-2.82-8.95c0.6-2.87-0.63-5.53-0.93-8.3c-0.13-1.19-0.55-2.4-2.07-2.25
	c-1.46,0.14-1.72,1.4-1.77,2.58c-0.07,1.87-0.02,3.74-0.02,5.78c-2.64-0.83-1.18-3.79-3.31-4.3c-1.9,1.03-1.65,4.67-3.6,4.33
	c-5.04-0.88-8.81,2.37-13.28,3.15c-0.58-0.32-1.16-0.63-1.74-0.95c-1.87-0.45-1.88,2.14-3.47,2.19c-1.59-2.05-1.59-5.07-4.44-6.73
	c-0.43,5.06-2.76,6.55-7.36,4.5c-1.44-0.64-3.31-0.2-4.48,1.29c-0.88,1.12-1.98,1.66-3.41,1.6c-4.66-0.2-4.45,2.16-2.74,5.28
	c0.03,0.26-0.02,0.51-0.14,0.74c-0.66,0.29-1.31,0.58-1.97,0.87c-0.07-0.28-0.13-0.57-0.18-0.86c-0.53-1.74-0.96-3.52-1.63-5.2
	c-0.55-1.4-1.54-2.23-3.08-1.05c-2.85,2.2-3.7,0.42-4.31-2.09c-0.38-1.55-2.21-3.42-2.81-1.67c-1.36,3.99-6.13,3.75-7.48,9.05
	c-1.49-5.9-3.17-4.84-5.13-2.09c-1.3,1.81-3.44,2.57-5.41,3.44c-2.92,1.3-4.12,3.39-4.18,6.65c-0.09,5.17,0.56,10.25,1.02,15.36
	c-1.95-0.62-1.29-4.75-3.7-3.67c-2.09,0.93-1,3.92-0.76,5.98c0.25,2.13,0.83,4.23,1.43,6.3c0.97,3.32,3.28,6.23,3.04,9.93
	c-1.82-0.03-2.54-1.19-3.07-2.74c-1.82-5.35-3.51-10.71-3.91-16.42c-0.46-6.66-2.63-12.85-5.42-19.78
	c-0.67,1.57-1.38,2.39-1.23,3.01c2.16,9.5,1.31,19.6,5.76,28.63c1.24,2.53,1.58,5.1-0.21,8.14c-3.79-8.81-2.36-18.57-7.86-26.89
	c-2.49,3.82-4.79,7.06-4.91,11.17c-0.05,1.65-0.01,4.63,2.31,3.94c3.09-0.92,3,1.02,3.58,2.56c1.52,4.04,2.62,8.27,5.28,11.77
	c2.32,3.06,5.29,4.68,9.11,2.81c4.02-1.96,8.24-2.18,12.62-2.28c5.76-0.13,11.66,1.2,17.25-1.3c4.33-0.44,8.67-0.89,13-1.33
	c-0.09,0.56-0.18,1.12-0.27,1.68c-6.59,1.09-13.19,2.18-19.78,3.26c-2.36-0.41-4.57-0.04-6.76,0.97
	c-4.89,2.26-10.02,3.43-15.42,2.81c-4.35-0.49-6.62,1.45-8.13,5.47c-1.52,4.04-0.36,6.25,3.39,7.73c1.36,0.53,1.38,2.2,2.16,3.19
	c1.96,2.47,4.01,5.22,7.65,2.3c1.67-0.64,3.34-1.27,5.02-1.91c5.88,0.09,11.6-0.54,16.46-4.25c2.51-1.92,5.26-2.1,8.02-1.3
	c2.77,0.81,5.55,0.87,8.35,1c0.97,1.86,2.35,3.06,4.6,2.86c3.83,2.3,7.48,4.9,12.43,3.92c10.4-2.06,20.83-3.96,31.25-5.93
	c1.1-0.21,2.2-0.42,3.3-0.62c3.79,0.14,6.17-1.17,5.65-5.48c1.56-1.06,2.67-2.21,0.77-3.95l0.03,0.03
	c-0.02-0.74-0.04-1.48-0.05-2.21c0.56-1.75-0.51-3.24-0.76-4.86C192.72,385.95,192.13,383.85,187.15,381.89z M753,491.97
	c5.54-1.06,6.55-5.32,7.03-9.95c1.7-2.99,3.39-5.98,5.09-8.98c3.8-2.73,7.29-5.64,6.9-11c6.84-8.88,8.53-19.8,11.86-30.06
	c3.04-2.3,1.27-4.57-0.02-6.86c0.79-1.39,0.91-2.8,0.24-4.28c-0.94-2.1-1.63-4.8-4.48-4.6c-3.2,0.23-3.61,2.9-3.61,5.56
	c0,1.16-0.02,2.33-0.16,3.48c-0.14,1.23-0.66,2.35-2.08,2.37c-1.67,0.03-1.62-1.36-1.69-2.5c-0.11-2.06,0.1-4.24-2.55-5.26
	c1.48,4.67-2.45,10.95,4.54,13.99c0.54,0.24,0.68,1.42,1.01,2.16c-0.53,1.72-0.99,3.47-1.62,5.16c-1.86,5.05-5.14,9.49-6.51,14.76
	c-6.55,7.44-9.5,16.25-9.85,26.03c-2.81,1.66-4,4.81-6.34,6.89c-2.01,1.48-2.7,9.17-0.94,10.96c0.29,0.29,0.93,0.52,1.27,0.4
	c0.35-0.13,0.82-0.83,0.73-1.1C750.94,496.52,753.19,494.45,753,491.97z M301.08,381.09c1.16-0.4,2.95,0.52,3.46-0.91
	c0.44-1.22-0.89-2.32-1.65-3.35c-1.33-1.82-3.24-1.97-5.25-1.76c-2.01-0.24-4.43-2.76-5.82,0.67c-1.22,3.01,0.94,4.44,3.27,5.59
	c0.29,0.14,0.54,0.37,0.8,0.56c-0.15,1.87-3.96,2.68-1.49,5.31c1.74,1.85,3.81,2.01,5.9,0.99c2.97-1.45,1.1-3.6,0.56-5.52
	C300.95,382.14,301.02,381.62,301.08,381.09z M45.77,271.93c-0.49-4.39-0.02-8.92-1.85-13.13c0.25-8.73-0.5-17.39-1.99-25.99
	c0-2.82,0-5.63,0-8.44c-0.38-5.93-0.77-11.86-1.15-17.79c0.49-4.84,0.4-9.65-0.76-14.41c-0.02-0.54-0.03-1.08-0.05-1.63
	c0.26-0.36,0.52-0.72,0.78-1.08c0.56-11.95,0.35-23.9,0.11-35.85c0.37-8.14,0.78-16.27,1.07-24.41c0.05-1.3,0.83-3.44-1.53-3.44
	c-2.1,0-1.83,2.03-1.89,3.45c-0.24,6.15-0.41,12.3-0.61,18.45c-0.31,4.95-0.61,9.9-0.92,14.86l0.02-0.07
	c-1.4,1.66-1.28,3.75-1.42,5.67c-0.66,9.08-0.78,18.18-0.44,27.28c0.23,6.07-0.82,12.2,0.73,18.22c0.07,1.25,0.14,2.5,0.21,3.75
	c0.56,11.66,0.6,23.39,4.78,34.55c0.09,1.33,0.18,2.66,0.28,3.99c-0.34,2.37-3.25,4.01-1.94,6.84c0.97,7.55,2.59,15.01,2.86,22.64
	c0.06,1.88,1.09,2.66,2.87,2.67c0.25,1.18-0.14,2.98,1.92,2.65c1.65-0.27,1.11-1.74,0.98-2.79
	C47.16,282.58,46.46,277.26,45.77,271.93z M681.97,427.27c0.57-2.23,1.54-6.25,0.4-6.41c-3.14-0.44-6.51,0.79-9.87,1.37
	c0.57,2.14,3.09,2.54,2.36,4.66c-2.52,0.66-3.55,2.67-4.64,5.22c3.96-0.79,7.33-2.69,11.13-2.82
	C682.35,429.25,682.24,428.1,681.97,427.27z M292.83,425.99c-1.94,0.44-3.92,0.75-5.81,1.35c-1.51,0.48-2.32,1.55-0.83,2.94
	c2.11,1.97,7.95-0.19,8.84-3.21c2.64-0.16,5.29,0.04,7.86-0.93c1.76-0.67,2.23-1.82,1.86-3.5c-0.38-1.72-1.53-2.8-3.22-2.28
	C298.15,421.39,294.29,421.89,292.83,425.99z M576.03,270.05c-1.18-2-2.24-3.58-4.66-1.02c-2,2.11-4.64,2.23-7.41,1.15
	c-2-0.78-4.14-1.24-6.24-1.75c-1.06-0.26-2.55-0.93-2.95,0.65c-0.38,1.53,1.22,1.89,2.28,2.03c5.41,0.69,10.84,1.25,16.27,1.85
	c-0.15,2.83-2.24,5.53-0.51,9.46c5.58-8.51,7.3-17.4,8.83-26.36C577.83,259.99,578.28,265.55,576.03,270.05z M306.05,408.16
	c2.9,0.78,5.36,1.1,4.05-3.33c-0.27-0.92-0.08-1.97-0.17-2.96c-0.09-1.03-0.44-2.04-1.61-2.16c-1.24-0.13-1.62,0.97-1.95,1.88
	c-0.63,1.72,0,4.22-2.87,4.49c-4.32-0.05-8.24,1.43-12.07,3.23c-1.81-2.85-3.05-6.21-7.29-1.97c-1.99,1.98-4.71,0.72-5.21-2.74
	c-0.17-1.2,0.65-3.81-2-2.68c-2.55,1.09-4.82,2.79-7.52,3.76c-1.75,0.63-1.47,2.42-0.29,3.74c1.37,1.52,3.18,2.51,5.09,3.03
	c3.89,1.05,8.3-0.13,11.75,3.13c1.01,0.95,2.42-0.41,3.1-1.69C295.03,412.86,301.29,412.71,306.05,408.16z M769.09,328.09
	c-1.69,3.27-1.71,6.38,0.94,9.95c1.5-3.81,1.19-6.92-0.1-10.04c3.18-3.83,0.82-8.28,1.39-12.4c0.19-1.36,1.48-3.19-0.44-3.9
	c-1.44-0.54-3.3,0.06-4.59,1.22c-2.11,1.89-2.59,4.06-1.02,6.62C766.91,322.22,768.6,324.89,769.09,328.09z M307.99,484.99
	l0.47,0.01c0,0,0.46-0.08,0.46-0.08c4.03-1.52,8.05-3.03,12.08-4.55c3.14-1.04,6.31-1.98,9.4-3.14c6.22-2.34,12.51-4.54,18.56-7.27
	c6.79-3.06,14.6-4.23,19.87-10.26c0.56,0.66,1.42,1.35,2,0.52c1.55-2.2,0.26-4.37-0.7-6.31c-0.88-1.77-2.51-1.75-4.2-0.85
	c-2,1.07-4.05,2.03-6.08,3.05c-6.81,0.25-12.42,3.94-18.4,6.53c-1.81,0.78-1.85,2.15-0.18,3.37c0.19,0.74,0.37,1.49,0.56,2.23
	c-0.37-0.05-0.59,0.1-0.66,0.48c-1.32-0.19-2.65-0.37-3.97-0.56c-1.75-1.15-3.73-1.44-5.71-1.11c-6.91,1.14-12.78,5.23-19.49,6.99
	c-3.28,0.1-6.16,1.36-8.88,3.07c-4.04,0.42-7.98,1.14-11.25,3.83c-1.23,0.44-3.15,0.53-3.59,1.38c-2.48,4.81-6.79,3.63-10.72,3.6
	c-4.11-0.02-7.73,0.96-10.54,4.14c-0.93,0.41-1.86,0.81-2.79,1.22c-4.13-0.56-8.1-0.78-9.31,4.6c-2.65,0.83-1.55,2.63-0.77,3.94
	c0.9,1.51,2.17,3.42,4.25,2.67c4.27-1.53,9.21-1.66,12.49-5.48c7.73-1.24,16.23-0.94,20.48-10.57c1.7,2.96,4.08,3.07,6.67,1.55
	C301.59,487.81,305.05,487.26,307.99,484.99z M442.38,409.86c2.46,0.43,6.15,3.08,5.08-2.83c3.02,0.94,5.92,1.78,5.02-3.32
	c-0.12-0.7,0.17-1.83,0.68-2.23c4.23-3.3,2.6-6.94,0.89-10.71c-1.9-4.18-2.7-4.31-6.08-0.7c-5.78-0.69-9.97,3.44-15.03,4.95
	c-3.99,0.46-7.56,2-10.91,4.14c-1.93-2.54-2.68-5.9-5.68-8.18c-0.16,1.85-0.3,3.4-0.44,4.95c-6.04-0.82-4.84,5.88-8.17,7.92
	c-0.6,0.37-1.37,1.69-1.19,1.93c1.62,2.17,3.89,3.72,5.13,6.38c0.71,1.52,2.97,0.82,4.6,0.48c4.43,2.32,9.48,3.83,11.52,9.2
	c0.33,0.86,1.18,1.88,2.22,1.63c1.49-0.37,0.94-1.88,1.03-2.92c0.16-1.8,0.16-3.6,0.23-5.41c4.36,0.71,8.59,1.19,9.77-4.74
	C441.09,410.14,441.92,410.03,442.38,409.86z M312.4,440.75c0.95,2.91,2.57,5.26,5.51,6.48c-0.15,2.51,0.87,4.69,2.55,6.3
	c2.32,2.22,5.41,2.36,7.63,0.21c1.67-1.62,2.01-4.98-0.12-6.2c-2.73-1.56-5.34-4.25-9.08-3.43c-4.05-4.96,0.79-3.71,2.85-3.78
	c1.85-0.07,3.31-0.25,3.98-2.12c0.45-1.25,0.75-2.59-0.08-3.82c-1.55-2.31-7.19-2.02-9,0.43c-1.75,0.93-3.51,1.86-5.26,2.77
	c-0.93,0.48-2.62,0.27-2.22,2.02C309.58,441.55,311.14,440.86,312.4,440.75z M304.25,465.68c-2.52,0.34-2.93-1.41-3.49-3.28
	c-0.53-1.79-2.16-3.46-3.33-1.09c-1.41,2.86-2.48,6.34-0.3,9.51c1.6,2.34,3.83,2.15,6.22,1.22c3.21-1.25,7.77-1.06,6.63-6.62
	c5.74-2.08,11.49-4.17,17.23-6.25c-0.18-0.49-0.37-0.97-0.55-1.46C318.8,459.19,311.34,461.86,304.25,465.68z M418.13,178.75
	c0,7.16,0,14.33,0,21.49c-0.37,12.03-0.24,24.05,0.78,36.05c0,3.09,0,6.18,0,9.27c0.92-0.51,1.07-0.99,1.07-1.47
	c0.01-30.49,0.02-60.98,0-91.47c0-0.96-0.24-1.93-0.37-2.89c-0.2,0.24-0.43,0.47-0.6,0.73c-0.08,0.13-0.06,0.32-0.08,0.49
	C417.74,160.19,417.83,169.47,418.13,178.75z M725.11,466.73c0.23,1.85-1.41,3.67-0.07,5.79c2.7-2.34,3.19-5.22,2.87-8.39
	c1.37-1.73,1.46-3.82,1.67-5.87c1.48-2.13,2.55-4.41,2.49-7.09c0.38-0.7,0.75-1.41,1.13-2.11c8.45-6.97,10.59-11.04,3.69-21.04
	c0-3.52,0-7.05,0-10.57c-0.19-0.02-0.38-0.03-0.58-0.05c-0.49,1.32-0.99,2.63-1.48,3.93c-1.55-0.6-1.12-3.13-3.35-2.7
	c-0.91,2.1-0.06,4.22-0.15,6.31c-0.05,1.14,0.01,3.25-0.7,3.12c-4.38-0.79-3.23,3.22-4.64,4.95c-2.47-0.41-3.95,1.95-6.18,2.2
	c-1.73-1.1-2.99-3.42-5.54-2.39c-0.97,0.39-1.27,1.49-1.26,2.54c0.03,2.59,1.93,3.21,3.96,3.68c0.33,0.54,0.62,1.51,0.99,1.55
	c6.49,0.62,7.32,5.49,8,10.49c-2.48-2.74-4.42-1.76-6.38,0.75C716.11,456.32,718.66,463.33,725.11,466.73z M222.02,327.02
	c-0.29,0.75-0.37,1.85-0.91,2.16c-1.05,0.6-1.18-0.67-1.58-1.28c-0.79-1.19-0.17-3.05-2.21-4.08c-2.52,6.93-0.87,13.65,0.3,20.34
	c0.25,1.44,1.62,2.09,3.13,1.58c1.59-0.53,1.11-1.84,0.83-2.91c-0.82-3.23-0.7-6.48-0.35-9.79c1.2,3.7,0.96,7.85,3.83,10.9
	c-0.13,2.92,1.81,3.1,3.98,3.06c3.28-0.07,6.94,0.69,8-3.9c7.21-0.31,7.24-0.31,6.88-7.43c-0.11-2.15-0.41-4.29-0.61-6.43
	c-0.11-1.16-0.16-2.32-0.3-3.47c-0.24-2.09-1.48-5.61-3.19-2.61c-2.68,4.7-3.31-0.61-4.88-0.17c-1.71,0.49-1.92,1.65-1.85,3.04
	c0.07,1.32,0.28,2.64,0.43,3.96c-3.31-0.81-0.7-3.68-1.83-5.33c-0.75-1.09-1.09-2.54-2.76-2.41c-1.84,0.15-1.76,1.63-1.9,2.96
	c-0.24,2.25,0.78,4.69-0.94,6.73c-0.08-1.71-0.18-3.41-1.1-4.93c-0.01-0.98,0.03-1.96-0.04-2.93c-0.1-1.38-0.54-2.81-2.17-2.71
	c-2.18,0.13-1.74,1.98-1.6,3.37C221.26,325.52,221.73,326.26,222.02,327.02z M219.08,487.27c0.92,2.6,1.74,5.24,2.81,7.79
	c0.56,1.34,0.75,1.26,2.94,1.21c0.66-5.91-0.49-11.43-2.46-17.08c-2.15-6.15-6-11.57-7.37-17.99c-0.43-2.02-1.78-2.14-3.41-1.85
	c-1.3-1.23-1.69-3.65-4.83-3.24c2.17,5.61,1.92,11.96,7.2,16.02C213.69,477.84,217.51,482.17,219.08,487.27z M604.11,236.01
	c6.24-2.86,7.85-7.04,5.08-13.21c-0.86-4.73,0.33-10.19-4.72-13.41c-1.08-0.69-2.36-1.7-3.64-0.76c-1.16,0.85-0.28,2.13-0.05,3.22
	c1.22,5.79,1.71,11.26-2.9,16.25c-1.84,1.99-1.49,5.3,0.18,7.92c-0.01,1.77-0.75,3.79,1.1,5.06c1.56,1.07,2.83,0.3,3.79-1.1
	C605.06,239.15,604.9,237.67,604.11,236.01z M615.95,243.96c-1.83,0.03-3.66,0.02-5.48,0.1c-3.68,0.16-3.74,2.76-3.32,5.35
	c0.47,2.83,2.42,2.67,4.56,1.85c1.54-0.59,3.24-0.83,4.31-2.3c1.43-0.4,2.85-1.11,4.28-1.13c7.66-0.12,10.79-6.38,15.15-10.96
	c0.77-0.81,0.66-1.9-0.03-2.74c-2.33-2.86-1.19-5.99-0.81-9.07c2.45-0.23,5.3-0.26,5.26-3.65c-0.04-3.17-2.14-4.92-5.24-5.38
	c-0.8-0.12-1.62-0.1-2.43-0.14c-0.37-1.04-0.73-2.08-1.1-3.12c-0.09-1.82-0.09-3.65-0.31-5.46c-0.07-0.55-0.63-1.17-1.14-1.49
	c-0.69-0.43-1.4,0.04-1.47,0.75c-0.53,5.23-4.55,2.97-7.27,3.42c-1.56,0.26-3.51-0.59-4.5,1.25c-1.08,2,0.51,3.3,1.46,4.86
	c0.85,1.41,3.81,2.58,2.17,4.36c-3.33,3.61,1.46,3.2,1.69,3.1c6.05-2.85,5.12,1.5,5.34,4.92c0.08,1.26,0.78,2.49,1.2,3.73
	c-3.16,2.82-4.65-1.62-8.12-1.99C622.79,236.34,620.52,240.59,615.95,243.96z M740.36,466.95c-3.1,0.31-4.17,2.5-4.12,5.11
	c0.04,2.41,2.24,1.8,3.77,1.94c2.94,0.27,4.27-1.08,3.99-4.02c12.39-9.5,10.64-24.63,15.25-37.27c-3.03,1.23-4.36,3.78-5.6,6.21
	c-3.33,6.49-6.55,13.04-9.52,19.69C742.87,461.4,739.78,463.36,740.36,466.95z M52.03,16.03c0.87-1.33,2.34-2.36,2.15-4.72
	c-6.83,0.26-13.53,0.82-20.08,2.66c-2.01,0.57-2.97,1.98-3.09,4.02c-1.83,2.95-2.1,6.23-2.03,9.57c0.03,1.34,0,2.88,1.72,3.19
	C39.93,32.39,52.82,29.24,52.03,16.03z M667.13,405.95c-2.64,0.85-4.46,0.89-5.35,1.81c-4.82,4.99-10.71,4.51-16.73,3.77
	c-0.81-0.1-1.65-0.05-2.47,0.06c-1.33,0.18-2.78,0.4-3.19,1.93c-0.36,1.35,1.03,1.89,1.64,2.81c5.24,8,13.25,9.12,21.81,8.96
	c3.63-0.07,6.36-4.1,4.25-6.81C664.07,414.63,664.11,410.99,667.13,405.95z M217.56,348.07c-1.74,0.19-4.86,0.8-7.98,0.81
	c-3.96,0.01-6.1,2.58-7.85,5.31c-1.63,2.54-0.42,4.98,2.65,4.65c6.23-0.67,12.41-1.88,18.56-3.13c2.16-0.44,3.15-2.33,2.92-4.61
	c-0.24-2.35-2.04-2.8-3.92-3.02C220.95,347.98,219.94,348.07,217.56,348.07z M498.82,456.42c1.91,0.83,3.58,1.62,5.17,2.85
	c6.53,5.03,13.59,5.57,18.2,1.86c2.3-1.85,2.09-2.34-0.53-4.38c-4.16-3.24-11.03-0.32-13.54-6.54c-0.25-0.62-1.5-0.13-2.25,0.31
	C503.26,452.1,500.37,453.34,498.82,456.42z M197.19,336.78c1.77,1.54,1.69,2.91,1.82,4.21c0.11,1.15,0.05,2.59,1.61,2.66
	c1.68,0.07,2.17-1.3,2.33-2.71c0.42-3.69-0.24-7.29-1-10.88c-0.29-1.36-1.02-1.96-2.44-1.88c-6.36,0.35-7.95,2.11-7.46,8.68
	c0.15,1.98,0.66,3.93,1,5.89c0.18,1.05,0.53,1.99,1.83,1.89c1.15-0.09,1.8-0.91,1.92-1.97C197,340.87,197.04,339.06,197.19,336.78z
	 M547.82,499.94c1.43-0.28,3.49-0.35,3.96-2.58c0.5-2.4-1.4-2.95-3.17-3.66c-3.6-1.45-5.19-3.36-0.95-6.12
	c0.4-0.26,0.83-0.65,0.99-1.08c0.74-1.9,4.02-3.86,0.81-5.82c-2.54-1.55-3.66,1.17-4.76,2.98c-1.58,2.6-2.19,5.78-5.76,7.03
	c-1.57,0.55-1.09,2.97-0.78,4.57c0.33,1.7,1.73,1.9,3.12,1.48c1.63-0.49,2.45-0.04,2.88,1.62
	C544.6,500.01,546.11,499.88,547.82,499.94z M619.78,424c0.24,1.79,0.25,3.66,0.79,5.35c0.45,1.41,1.9,1.91,3.29,1.26
	c1.13-0.52,1.15-1.75,0.43-2.53c-2.72-2.95,0.99-4.18,1.47-6.25c1.06-4.59,3.51-1.92,5.59-1.29c1.23,0.37,2.37,0.35,2.98-0.93
	c0.55-1.16-0.21-2.11-1.21-2.25c-2.89-0.4-2.83-2-2.25-4.24c0.33-1.27,0.11-2.71-1.24-3.5c-0.84-0.49-1.67-0.07-2.21,0.58
	C624.03,414.31,618.99,417.53,619.78,424z M676.71,473.35c-1.14-3.5-2.15-5.64-4.66-6.29c-4.12-1.06-7.52-3.25-10.82-5.85
	c-2.62-2.07-5.85-3.08-9.04-4c-1.1-0.32-2.44-0.72-2.88,0.87c-0.34,1.22,0.79,1.68,1.66,2.12
	C659.2,464.41,667.43,468.61,676.71,473.35z M655.26,432.74c-0.19,2.63-0.31,4.11-0.41,5.58c-0.34,4.94,2.86,7.44,6.66,9.41
	c1.11,0.58,2.96,1.02,3.25-0.78c0.46-2.86,1.1-6.19-2.04-8.04C660.19,437.4,657.94,435.61,655.26,432.74z M373.89,411.74
	c-0.77-1.59-0.69-5.66-2.43-4.69c-2.94,1.63-8.19-0.34-8.74,3.86c-0.37,2.81,2.43,5.79,6.12,6.02
	C372.14,417.12,373.47,414.96,373.89,411.74z M725.82,415.31c-0.22-1.32-1.18-2.63-2.98-3.04c-1.66-0.38-3.64-0.54-4.37,1.33
	c-0.89,2.28-2.42,3.93-4.07,5.58c-1.11,1.11-1.33,2.25-0.15,3.47c1.2,1.25,2.47,1.57,3.97,0.46c2.01-1.48,4.04-2.92,6.08-4.37
	C725.3,418.03,725.92,417.11,725.82,415.31z M700.04,277.62c-0.29-1.45,0.59-3.3-1.12-4.11c-1.73-0.82-2.66,0.85-3.72,1.81
	c-0.86,0.78-1.7,1.61-2.4,2.53c-1.6,2.09-2.33,4.43-1.41,7c0.31,0.87,1.27,1.13,2.11,0.75c2.54-1.15,5.48-1.87,6.34-5.06
	C700.09,279.6,699.98,278.56,700.04,277.62z M210.29,332.76c-0.69,2.89,0.73,5.73,0.75,8.71c0.01,1.33,0.23,2.85,2.08,2.74
	c1.83-0.11,1.92-1.69,1.8-2.98c-0.31-3.61-0.75-7.22-1.24-10.81c-0.19-1.44,0.8-3.91-1.8-3.78c-2.45,0.13-1.34,2.53-1.58,4
	C210.21,331.29,210.29,331.96,210.29,332.76z M208.98,337.95c0.13-3.54-0.72-6.92-1.72-10.27c-0.31-1.04-0.56-2.51-2.2-2.08
	c-1.24,0.32-1.11,1.56-1.04,2.51c0.29,3.97,0.63,7.93,1.02,11.9c0.15,1.55-0.29,3.82,2.11,3.79c2.55-0.03,1.6-2.38,1.83-3.86
	C209.08,339.29,209,338.61,208.98,337.95z M381.29,404.3c1.77,0.88,3.87,0.29,5.11,2.48c1.13,2.01,3.15,0.62,4.02-0.59
	c1.79-2.49-1.02-4.48-1.27-6.81c-0.18-1.62-1.41-1.48-2.61-1.37c-2.04,0.18-3.3,1.07-3.72,3.23
	C382.61,402.29,381.84,403.23,381.29,404.3z M485.73,449.15c5.62,1.3,8.78-2.03,12.33-4.3c0.9-0.57,2.42-0.98,1.68-2.51
	c-0.7-1.45-2.09-1.41-3.46-1C492.02,442.6,488.69,445.1,485.73,449.15z M698.02,473.18c-0.55-1.48,0-3.65-2.34-3.83
	c-1.79-0.14-3.37,0.77-3.52,2.71c-0.18,2.22-1.17,4.07-1.99,6.03c-0.34,0.8-0.18,1.63,0.46,2.27c0.65,0.66,1.72,0.92,2.22,0.35
	C694.85,478.43,697.47,476.52,698.02,473.18z M568.5,294.07c-1.63,2.91-5.81,3.37-6.33,7.13c-0.33,2.38,0.48,4.47,2.97,5.07
	c2.93,0.7,2.68-1.79,2.78-3.49C568.07,299.99,569.71,297.41,568.5,294.07z M42.3,105.41c-1.77,4.95-3.28,9.87-3.27,15.09
	c0,1.19-0.07,2.69,1.29,2.93c2.02,0.35,1.75-1.59,1.98-2.74C43.29,115.63,43.19,110.52,42.3,105.41z M733.74,351.94
	c0.31-1.42-0.59-2.79-2.9-2.85c-3.32-0.09-3.41,2.7-3.74,4.88c-0.29,1.91-0.5,4.6,2.28,4.64C733,358.66,732.86,355.26,733.74,351.94
	z M192.75,354.03c-2.27,0.33-2.85,1.59-2.81,3.25c0.08,2.95,2.11,4.07,4.58,4.25c2.02,0.15,3.89-0.89,3.33-3.22
	C197.23,355.68,193.91,355.92,192.75,354.03z M527.9,391.25c-2.01-1.6,0.7-6.41-3.93-6.1c-1.75,0.12-4.07,2.49-3.26,3.38
	c1.62,1.78,1.48,5.55,4.96,5.34C526.89,393.81,528.24,393.09,527.9,391.25z M675.63,387.66c1.92-1.45-5.4,0.63-0.78-2.13
	c1.62-0.97-0.02-2-1.08-2.29c-2.84-0.78-5.18,0.05-6.88,2.54c-0.7,1.02-1.14,2.14-0.47,3.22c0.81,1.3,2.01,0.57,3.1,0.27
	C671.56,388.71,673.61,388.19,675.63,387.66z M463.46,384.95c-2.15,0.29-4.95-0.06-5.2,3.12c-0.16,2.01,1.75,2.92,3.43,2.61
	c2.31-0.42,5.43-0.57,5.66-3.69C467.52,384.77,465.11,385.17,463.46,384.95z M281.24,341.98c2.84-0.18,4.69-1.44,4.71-4.57
	c0.01-1.37-0.73-2.47-2.13-2c-2.47,0.83-5.62,1.4-6.22,4.33C277.14,342.04,279.58,341.82,281.24,341.98z M710.5,470.94
	c2.44,0.06,4.42-0.3,4.33-3.06c-0.07-1.88-0.65-3.82-3.06-3.71c-2.52,0.11-3.82,2.04-4.24,4.21
	C707.05,470.82,709.13,470.78,710.5,470.94z M786.45,492.4c-0.35-1.7-1.49-2.63-2.51-1.81c-2.62,2.09-4.29,5.04-5.54,8.12
	c-0.43,1.06,0.66,2.15,1.71,1.48C783.13,498.29,784.7,495.13,786.45,492.4z M706.87,442.08c-0.49-1.9-0.84-4.25-3.81-4.06
	c-1.98,0.13-3.02,1.49-2.85,3.39c0.2,2.36,1.88,3.36,4.09,3.59C706.32,445.22,706.96,444.1,706.87,442.08z M729.61,332.38
	c-3.19,1.75-5.79,3.18-3.86,6.99c0.67,1.32,1.49,3.07,3.28,1.78C732.58,338.6,729.98,335.64,729.61,332.38z M12.41,425.35
	c-0.53-2.04-3.98-0.28-3.26-3.55c0.22-0.99-2.21-0.77-3.46-0.65c-1.22,0.11-2.2,0.77-2.36,2.11c-0.19,1.53,0.76,2.54,1.97,3.11
	C7.77,427.53,10.05,426.7,12.41,425.35z M550.69,316.53c0.8-8.01,1.59-14.83,0.84-21.71C550.7,301.63,548.06,308.34,550.69,316.53z
	 M708.2,269.87c0.43-1.43,0.46-2.68-1.5-2.78c-2.62-0.13-3.31,1.75-3.55,3.79c-0.2,1.67-0.07,3.67,2.12,3.71
	C708.49,274.66,707.62,271.71,708.2,269.87z M472.87,429.71c-1.67,0.22-4,0.39-4.63,2.95c-0.51,2.07,1.22,2.45,2.77,2.45
	c2.28,0,4.35-0.65,4.89-3.2C476.33,429.94,474.65,430,472.87,429.71z M217.65,398.99c-0.93-2.32-0.76-5.4-4.11-6.01
	c-0.91-0.17-1.79,0.5-1.39,1.41c0.95,2.18-0.36,5.58,3.22,6.36C216.65,401.03,217.58,400.48,217.65,398.99z M242.52,305.91
	c4.95-0.11,9.08,0.96,13.27-1.74c-1.6-1.4-2.91-2.54-4.73-4.12C250.32,304.83,246.14,304.07,242.52,305.91z M242.76,505.85
	c2.23-0.14,2.83-1.69,3.05-3.39c0.25-1.94-0.67-3.21-2.7-3.37c-1.35-0.11-3.06-0.01-2.72,1.85
	C240.7,502.7,240.4,505.05,242.76,505.85z M479.73,420.62c-0.48-1.19-1.24-1.99-2.85-1.82c-2.4,0.26-4.56,0.78-4.92,3.62
	c-0.21,1.65,1.16,1.7,2.32,1.71C476.81,424.15,478.6,422.95,479.73,420.62z M65.88,381.16c-1.77,3.44,0.11,5.61,1.21,7.89
	c0.53,1.09,1.44,2.01,2.77,1.18c1.19-0.74,1.22-1.98,0.48-3.05C69.04,385.29,67.61,383.49,65.88,381.16z M68.57,411.1
	c-1.52,0.08-2.63,0.68-2.37,2.39c0.3,1.96,1.65,3.7,3.39,3.76c2.02,0.06,2.04-2.36,2.11-3.83C71.8,411.56,70.17,411.15,68.57,411.1z
	 M385.13,441.55c2.14-0.26,2.34-1.98,2.58-3.59c0.2-1.42,0-2.75-1.91-2.66c-1.74,0.08-2.71,1.07-2.81,2.81
	C382.89,439.7,383.35,441.02,385.13,441.55z M347.53,52.5c3.43,6.55,5.98,7.86,10.52,6.18C354.86,56.81,351.77,55,347.53,52.5z
	 M333.99,346.35c-0.17-1.29-0.83-1.83-1.98-1.71c-2.14,0.22-3.73,1.11-3.96,3.51c-0.1,1.12,0.57,2.39,1.41,2.15
	C331.48,349.74,332.77,348.01,333.99,346.35z M501.1,409.22c-0.47-1.59-1.56-2.14-2.72-1.79c-1.84,0.55-4.15,1.05-4.27,3.44
	c-0.09,1.68,2.31,1.47,3.09,2.7C498.53,412.09,499.85,410.61,501.1,409.22z M749.1,414.35c0.24-1.44,0.84-3.19-0.85-3.02
	c-3.77,0.39-1.43,4.1-2.74,5.98c-0.51,0.73-0.43,2.41,0.98,2.02C749.06,418.64,748.9,416.12,749.1,414.35z M102.93,417.39
	c0.09-1.69-0.91-2.35-2.41-2.34c-1.44,0.01-3.17-0.15-3.37,1.89c-0.18,1.78,0.97,2.71,2.64,2.83
	C101.45,419.9,102.59,419.13,102.93,417.39z M490.07,414.98c-0.18-1.07-0.74-1.91-1.92-1.73c-2.1,0.32-4.51,0.51-5.06,3.15
	c-0.36,1.73,1.17,1.61,2.31,1.71C487.75,418.3,489.02,416.91,490.07,414.98z M214.88,378.28c-3.6-0.48-6.59-1.25-8.79,2.31
	C209.5,382.03,212.29,381.98,214.88,378.28z M461.96,274.4c-0.18-1.4-0.25-3.5-1.78-3.54c-2.03-0.05-1.97,2.17-2.03,3.73
	c-0.06,1.57,0.45,3.17,2.34,2.98C462.23,277.4,461.86,275.69,461.96,274.4z M454.39,338.82c-1.46,0.05-1.78,1.07-1.77,2.04
	c0.03,1.85,1.37,2.52,2.98,2.57c1.23,0.04,2.46-0.49,2.32-1.92C457.72,339.42,455.64,339.52,454.39,338.82z M220.51,368.32
	c-3.51-2.27-6.03-1.41-8.46,1.25C216.39,371.15,216.39,371.15,220.51,368.32z M716.54,264.75c-0.65-1.48-1.58-3-3.34-3.1
	c-1.47-0.08-1.47,1.61-1.65,2.63c-0.35,1.98,1.01,2.59,2.68,2.56C715.47,266.82,716.43,266.28,716.54,264.75z M547.56,292.45
	c-1.23,6.06-2.04,10.93-1.05,15.92C547.41,303.54,548.57,298.73,547.56,292.45z M705.38,431.21c-0.17-1.02-0.4-2.09-1.66-2.01
	c-1.83,0.12-2.31,1.59-2.45,3.09c-0.12,1.21,0.22,2.49,1.78,2.21C704.72,434.21,705.12,432.68,705.38,431.21z M159.33,67.11
	c3.5,1.11,6.82,1.04,9.57-2.52C165.42,65.51,162.38,66.31,159.33,67.11z M517.3,396.94c-1.46-0.29-2.89,0.41-3.14,2.35
	c-0.19,1.49,1.08,1.91,2.3,1.78c1.82-0.2,3.83-0.69,3.98-2.83C520.52,396.92,518.93,396.82,517.3,396.94z M504.04,405.73
	c2.76,0.58,5.13,0.55,6.78-1.78c0.55-0.78,0.08-1.65-0.89-1.83C507.22,401.61,505.07,402.23,504.04,405.73z M639.76,433.03
	c-4.13-0.12-7.21-0.17-9.06,5.01C633.9,435.62,637.23,436.47,639.76,433.03z M419.63,136.22c0.07-3.49,0.98-7.11-0.74-10.4
	C417.78,129.41,417.68,132.89,419.63,136.22z M432.61,349.37c-2.41-0.72-2.8-3.97-5.42-2.38c-0.85,0.52-1.17,1.71-0.48,2.64
	C428.32,351.77,430.1,350.89,432.61,349.37z M296.67,399.02c-2.29-0.24-3.92-2.99-6.41-1.42c-0.81,0.51-0.53,1.64,0.12,2.18
	C292.51,401.56,294.64,400.97,296.67,399.02z M163.5,75.91c5.25,0.62,7.75-1.62,9.68-4.98C170.32,72.39,167.47,73.86,163.5,75.91z
	 M578.92,37.53c-0.39-1.27-0.94-2.75-2.7-2.88c-1.12-0.09-1.2,1.07-1.05,1.85c0.29,1.43,0.51,3.15,2.52,3.13
	C578.73,39.62,578.84,38.62,578.92,37.53z M564.85,283.21c-2.33,3.93-1.77,6.82-1.25,9.71
	C565.52,290.26,565.01,287.33,564.85,283.21z M712.86,476.59c-0.36-1.64-1.36-2.55-3.12-2.45c-0.79,0.04-1.31,0.6-1.09,1.29
	c0.46,1.49,1.52,2.67,3.05,2.95C712.68,478.56,712.91,477.53,712.86,476.59z M539.46,484.79c1.01-0.18,1.96-0.54,1.97-1.73
	c0.01-1.46-1.06-1.88-2.29-1.89c-1.1-0.01-1.87,0.54-1.89,1.72C537.22,484.37,538.14,484.83,539.46,484.79z M74.51,10.41
	c1.34-0.56,1.83-1.8,1.98-3.1c0.13-1.12-0.59-1.99-1.78-1.69c-1.58,0.41-1.65,1.85-1.62,3.19C73.11,9.66,73.34,10.43,74.51,10.41z
	 M615.91,429.42c-1.26,0.22-2.17,0.96-2.19,2.19c-0.02,1.19,0.66,2.25,2.08,2.1c1.3-0.13,1.94-1.08,1.89-2.37
	C617.64,430.26,617.03,429.58,615.91,429.42z M486.94,253.41c-1.17,2.62-0.59,5.55-2.11,8.03c-0.44,0.72-0.71,1.79,0.29,2.11
	c1.28,0.41,1.77-0.69,1.8-1.74C486.98,259.01,486.94,256.21,486.94,253.41z M459.04,284.98c-1.31,2.48-2.59,4.07-1.37,6.1
	c0.12,0.19,1.05,0.21,1.23,0C460.26,289.45,460.24,287.67,459.04,284.98z M461.32,264.42c0.95-4.21,0.71-7.06,0.05-9.93
	C461.88,257.41,459.06,260.1,461.32,264.42z M256.86,365.81c0.9,0,1.82-0.37,1.76-1.27c-0.11-1.7-1.75-1.74-2.94-2.03
	c-0.97-0.23-1.54,0.44-1.33,1.44C254.61,365.27,255.6,365.75,256.86,365.81z M623.61,406.28c-0.35-1.18-1.36-1.25-2.37-1.18
	c-1.06,0.08-2.1,0.44-1.69,1.78c0.36,1.19,1.53,1.08,2.51,1C622.94,407.79,623.62,407.39,623.61,406.28z M604.63,436.76
	c1.39-0.17,2.39-0.97,2.75-2.32c0.2-0.74-0.5-1.2-1.2-1.1c-1.31,0.19-2.62,0.58-2.81,2.18
	C603.28,436.23,603.87,436.63,604.63,436.76z"/>
<g>
</g>
<g>
</g>
<g>
</g>
<g>
</g>
<g>
</g>
<g>
</g>
<g>
</g>
<g>
</g>
<g>
</g>
<g>
</g>
<g>
</g>
<g>
</g>
<g>
</g>
<g>
</g>
<g>
</g>
</svg>
