<?xml version="1.0" encoding="utf-8"?>
<!-- Generator: Adobe Illustrator 17.1.0, SVG Export Plug-In . SVG Version: 6.00 Build 0)  -->
<!DOCTYPE svg PUBLIC "-//W3C//DTD SVG 1.1//EN" "http://www.w3.org/Graphics/SVG/1.1/DTD/svg11.dtd">
<svg version="1.1" id="Layer_1" xmlns="http://www.w3.org/2000/svg" xmlns:xlink="http://www.w3.org/1999/xlink" x="0px" y="0px"
	 viewBox="0 0 769.91 511.22" style="enable-background:new 0 0 769.91 511.22;" xml:space="preserve">
<style type="text/css">
	.st0{fill:#420001;}
	.st1{fill:#FC5D5D;}
	.st2{fill:#FEC0C0;}
	.st3{fill:#FE5F5F;}
	.st4{fill:#470102;}
</style>
<g>
	<path class="st0" d="M769.71,511.22c-0.33,0-0.67,0-1,0c-1.03-2.13-2.94-1-4.39-1.01c-16.15-0.09-32.3-0.08-48.46-0.05
		c-26.3,0.04-52.61,0.12-78.91,0.18c-4.15-0.04-8.31-0.12-12.46-0.12c-33.24-0.05-66.48-0.09-99.72-0.13
		c-0.64-1.9-1.18-4.38-2.92-5.06c-4.56-1.79-6.9-5.68-10.03-9.16c2.32-1.14,4.72-1.95,6.7-3.35c11.27-8,23.61-13.51,37.08-16.61
		c7.26-1.67,11.33-6.16,12.27-13.83c2.74-22.27,5.23-44.54,9.69-66.62c8.85-43.84,17.16-87.82,23.85-132.06
		c2.55-16.83,7.91-32.97,10.78-49.67c1.31-7.59,6-10.39,12.82-11.68c27.61-5.23,55.46-9.14,82.83-15.66
		c6.91-1.64,7.7-2.54,6.95-9.61c-1.57-14.72-3.39-29.42-5.1-44.12c-3.19-27.44-6.48-54.87-9.54-82.33
		c-1.86-16.69-4.6-33.3-5.11-50.13c0.21-0.02,0.39-0.09,0.56-0.21c1.81,0.07,3.63,0.21,5.44,0.22c22.85,0.05,45.7,0.09,68.55,0.12
		c-0.01,46.95-0.02,93.91-0.02,140.86c-2.31,0.9-4.62,1.8-6.93,2.69c-3.65,1.41-4.74,4.37-4.78,7.94c-0.04,3.41,1.55,5.73,4.89,6.6
		c3.1,0.8,4.21,2.9,4.27,5.87c0.05,2.33-0.06,4.75,2.59,5.96c0.03,24.33,0.01,48.65,0.16,72.98c0.01,2-1.99,3.93-0.2,5.94
		c-1.07,0.61-0.85,1.7-0.96,2.65c-2.61,22.1-4.6,44.16-3.27,66.53c1.27,21.37,1.07,42.82,1.47,64.24c0.07,3.54,0.26,6.98,2.86,9.74
		c-0.01,3.71-0.01,7.41-0.02,11.12c-1.6,5.57-1.24,11.15-0.01,16.72c0.07,20,0.15,40,0.22,59.99
		C769.82,490.52,769.77,500.87,769.71,511.22z M758.89,291.9c-4.62,13.87-6.33,27.67-5.98,42.42c5.09-2.07,7.27-5.6,7.82-10.08
		c1.01-8.27,1.31-16.6,0.9-24.92C761.51,296.84,760.92,294.41,758.89,291.9z"/>
	<path class="st1" d="M551.9,470.75c-4.49-1.18-8.91-2.63-13.36-3.96c0.33,5.09-3.39,5.96-7.08,6.52c-13.13,2-26.39,3.2-39.43,5.84
		c-5.7,1.15-11.37,2.45-17.04,3.69c-5.27,1.16-9.75,1.2-13.79-3.83c-3.5-4.36-9.7-3.85-14.87-4.67c-7.05-1.11-14.19-1.64-21.29-2.49
		c-1.51-0.18-3.83,0.35-3.91-1.99c-0.07-1.93,2.13-1.92,3.46-2.2c20.97-4.33,41.8-9.73,63.52-8.37c0.6,0.04,1.21,0,2.24,0
		c-4.92-3.75,0.88-5.43,0.93-8.12c-4.16-0.26-8.65,1.55-12.2-2.46c-0.99-1.12-3.11-0.74-4.01,0.65c-5,7.77-12.83,6.16-19.91,5.61
		c-12.98-1-25.96-0.7-38.94-0.66c-5.74,0.02-10.88-0.88-15.29-4.68c-1.56,2.94-2.78,6.34-7.25,5.28c-4.62,2.21-9.2,3.69-13.52-0.62
		c-1.58-1.97-0.95-5-3.2-6.65c-1.09,4.88-4.39,6.86-9.1,7.88c-7.86,1.7-15.84,2.55-23.75,2.44c-13.74-0.18-26.97,3.68-40.63,4.04
		c-8.07,0.21-16.3,0.33-23.85,4.02c1.14,0.22,2.3,0.35,3.4,0.67c0.8,0.24,1.54,0.77,1.49,1.75c-0.05,0.91-0.71,1.49-1.53,1.74
		c-7.52,2.28-14.48,5.58-20.77,10.4c-2.54,1.95-3.39-0.94-4.22-2.55c-1.64-3.19-2.54-6.94-6.81-7.82c-0.62,2.36,4.75,4.97-0.3,7.14
		c0.73,0.35,1.45,0.71,2.19,1.04c1.72,0.78,1.1,1.87,0.73,3.24c-0.57,2.12-1.83,0.72-2.7,0.69c-1.21-0.04-1.94-1.97-3.51-1.04
		c-3.84,3.41-9.3,1.95-13.49,4.47c-1,0.6-2.09-0.62-2.73-1.68c-2.42-4.01,0.11-10.88,4.63-12.43c-0.66-2.22-4.22-1.55-4.3-4.31
		c-1.24-0.13-2.49-0.26-3.73-0.4c-0.14,0.15-0.27,0.3-0.39,0.46c2.26,3.61,2.03,7.25,0.1,10.9c-0.41,3.74-2.68,5.44-6.07,4.15
		c-4.34-1.65-8.33-0.91-12.5,0.25c-3.55,0.99-6.97,1.18-8.2-3.5c-2.44,0.02-4.88,0.03-7.33,0.05c-0.79,2.22-3.45,3.07-3.98,5.52
		c-0.18,0.85-0.99,1.29-1.94,1.07c-2.95-0.68-4.93,0.33-5.78,2.94c-1.19,3.69,1.91,3.9,3.98,4.95c0.29,0.15,0.56,0.35,0.84,0.53
		c0.18-1.25-0.11-2.86,1.78-2.99c4.16-0.29,8.26-1.83,12.48-0.87c0.24,3.02-5.05,2.25-3.65,5.55c0.71,1.68,2.86,1.19,4.47,1.27
		c-0.42-0.68-1.26-2.01-0.73-2.1c4.57-0.8,4.33-5.28,6.38-7.97c5.92,5.44,13.29-1.65,19.39,2.25c3.84,0.85,7.71,1.58,11.5,2.59
		c1.83,0.48,3.11,1.83,3.47,3.83c2.01-1.14,3.89-0.26,5.74,0.45c2.81,1.08,5.65,1.89,8.7,2.02c2.08,0.09,4.56-0.47,3.31,3.61
		c-0.77,2.5,6.77,5.72,8.77,3.7c4.01-4.05-1.07-4.41-2.88-6.14c7.22,0.69,14.3,1.37,21.38,2.03c6.9,0.65,13.8,1.29,21.57,2.01
		c-6.53,3.6-13.1,1.43-19.49,2.97c1.69,2.84,5.77,0.33,6.69,3.58c17.38-0.01,34.76-0.02,52.14-0.04c-0.12-0.98-0.12-2-0.37-2.95
		c-0.96-3.7,0.91-2.6,2.72-1.65c-0.25-1.11-0.45-2.21,0.22-3.25c-0.96-2.69-1.55-5.42-1.03-8.29c0.3-1.63,1.11-2.71,2.94-2.79
		c1.92-0.08,3.34,0.62,3.58,2.61c0.33,2.79,0.43,5.6,0.63,8.41c2.36,0.33,3.76,1.37,3,4.02c1.73-1.22,3.32-2.83,5.25-3.54
		c1.81-0.66,4.36-1.48,5.18,1.74c1.04-1.89,2.81-2.23,4.74-2.26c-2.55-1.45-4.72-3.47-7.85-4.01c-2.71-0.46-2.61-2.32-0.61-3.76
		c2.87-2.06,6.19-3.26,9.7-3.38c4.97-0.16,9.55,2.14,15.44,1.62c-4.31,4.46-11.6,1.46-12.81,8.31c4.43-2.77,9.37-4.13,14.41-5.21
		c3.14-0.67,5.62-1.89,5.95-5.61c0.18-1.99,1.3-3.58,3.49-3.48c2.28,0.11,2.8,2.1,3.14,3.92c1.39,7.39-1.34,10.24-8.53,9.03
		c-8.54-1.44-11.66,1.54-11.06,10.59c0.84-0.08,1.69-0.17,2.53-0.25c4.32-5.27,10.34-5.17,15.44,0.26
		c40.32-0.01,80.64-0.02,120.96-0.03c-0.64-1.9-1.18-4.38-2.92-5.06c-4.56-1.79-6.9-5.68-10.03-9.16c2.32-1.14,4.72-1.95,6.7-3.35
		c11.27-8,23.61-13.51,37.08-16.61c0.59-0.14,1.15-0.3,1.69-0.47c-0.8-1.42-1.51-2.88-2.11-4.37
		C554.08,471.12,552.97,471.03,551.9,470.75z"/>
	<path class="st1" d="M563.72,440.56c-0.57,1.06-1.3,2.02-0.77,3.22c3.14,6.97,0.15,14.06,0.33,21.09c0.09,3.42-3.85,5.99-8.12,6.2
		c0.61,1.49,1.31,2.94,2.11,4.37c6.2-1.96,9.71-6.32,10.58-13.37c1.18-9.62,2.33-19.24,3.6-28.85c-3.18,0-6.36,0-9.55,0
		C563.61,435.21,564.74,438.69,563.72,440.56z"/>
	<path class="st1" d="M714.78,176.79c-1.57-14.72-3.39-29.42-5.1-44.12c-3.19-27.44-6.48-54.87-9.54-82.33
		c-1.86-16.69-4.6-33.3-5.11-50.13c-1.1,0.04-2.2,0.08-3.3,0.12c-2.17,5.52-0.05,10.77,0.86,16.14c1.63,9.65,0.88,19.46,1.98,29.2
		c2.83,25.25,4.59,50.62,7.35,75.88c1.91,17.47,2.19,35.15,6.6,52.35c1.7,6.62-0.39,8.91-7.23,10.36
		c-26.34,5.57-53.06,8.74-79.65,12.72c-9.17,1.37-14.82,6.04-16.93,14.48c-2.69,10.79-6.7,21.25-8.35,32.31
		c-5.66,37.94-13.48,75.49-20.67,113.16c-0.75,3.91-1.64,7.8-2.64,11.65c-0.27,1.04-0.74,2.51-2.01,2.45
		c-2.77,20.52-10.53,39.79-12.95,60.39c0.69,0.05,1.39,0.19,2.1,0.46c0.6,0.23,1.18,0.71,1.72,1.33c3.19,0,6.37,0,9.55,0
		c1.67-12.63,3.56-25.23,6.09-37.77c8.85-43.84,17.16-87.82,23.85-132.06c2.55-16.83,7.91-32.97,10.78-49.67
		c1.31-7.59,6-10.39,12.82-11.68c27.61-5.23,55.46-9.14,82.83-15.66C714.74,184.76,715.53,183.86,714.78,176.79z"/>
	<path class="st1" d="M259.26,493.93c-3.42,2.84-6.01-0.28-9.62-2.04c3.64-1.16,5.55-5.3,9.29-2.9
		C260.41,489.93,260.7,492.73,259.26,493.93z"/>
	<path class="st1" d="M316.17,504.84c5.85-1.52,11.76-1.86,17.74-0.67C328.05,505.53,322.1,504.98,316.17,504.84z"/>
	<path class="st1" d="M432.88,492.18c-2.47,0.24-4.86,0.77-7.09,1.89c1.28,0.61,3.75-0.75,3.77,1.84c0.01,1.77-1.83,2.03-3.27,2.28
		c-3.26,0.57-3.14-1.91-3.48-3.94c-1.79,0.83-3.52,1.8-5.37,2.45c-1.94,0.68-4.01,2.35-6.05,0.54c-2.12-1.88-3.06-4.6-2.36-7.25
		c1.14-4.33,2.83-8.51,2.78-13.09c-0.01-0.9,0.49-1.62,1.51-1.58c1.02,0.04,1.21,0.83,1.47,1.68c2.35,7.69,2.37,7.64,10.52,8.22
		c2.47,0.18,4.92,0.73,7.39,1.04c1.9,0.24,3.17,1.06,3.1,3.14C435.71,491.19,434.6,492.01,432.88,492.18z"/>
	<path class="st1" d="M523.26,425.63c0.59-0.15,1.17-0.27,1.75-0.35c2.86-6.66,6.38-12.86,8.7-19.05
		c7.84-27.44-8.33-62.55-40.97-58.31c-0.09,1.08-0.3,2.08-1.97,2.18c-1.36,0.07-2.72,0.06-3.61-1.19c-1.02-1.44-0.63-2.89,0.26-4.19
		c6.84-9.88,10.39-21.51,17.08-31.53c4.18-6.26,9.08-10.82,16.2-13.22c7.36-2.49,10.71-6.37,8.8-13.41
		c-3.33-12.23,3.18-19.96,10.28-27.87c2.89-3.22,6.19-6.02,8.79-9.54c2.64-3.57,4.56-7.34,5.15-11.73c0.39-2.9,1.4-4.93,4.77-5.38
		c2.28-0.3,4.48-1.47,6.07-3.26c10.18-11.43,19.31-29.94,11.23-47.21c-0.28-0.6-0.84-1.34-0.69-1.84
		c1.91-6.07,0.01-12.15,0.24-18.12c0.23-6.08-0.33-11.06-4.43-15.5c-0.39,3.16-0.75,6.36,0.65,9.35c4.31,9.19,0.27,17.1-3.72,25.03
		c-0.44,0.88-0.96,1.86-1.72,2.43c-1.62,1.21-0.92,4.78-3.24,4.41c-2.49-0.4-0.41-3.11-0.92-4.74c-1.03-3.29-5.9-5.25-9.58-3.63
		c-3.44,1.52-5.3,4.29-6.46,7.79c-0.42,1.27-1.02,3.21-2.95,2.77c-2.22-0.5-1.83-2.37-1.51-4.07c0.92-4.9,1.82-9.81,2.67-14.73
		c2.28-13.12-0.59-19.81-11.77-26.74c-6.2-3.84-10.46-9.71-15.69-14.56c-3.07-2.84-1.84-5.33,2.4-6.11
		c2.12-0.39,1.71-1.35,0.59-2.72c-2.01-2.45-1.92-2.52-2.45-5.38c6.24,1.9,12.81,2.5,17.04,8.55c1.24-5.42-9.22-22.44-14.28-23.88
		c-0.56,1.35,0.5,2.16,1.09,3.06c0.98,1.48,3.95,2.72,1.3,4.71c-2.08,1.56-2.94-1.08-4.17-2.3c-1.02-1.01-1.54-3.57-3.68-2.14
		c-1.83,1.22-4.23,2.41-3.65,5.38c0.12,0.64,0.47,1.24,0.65,1.88c0.29,1.05,0.17,2-0.92,2.54c-0.88,0.43-1.65,0.03-2.23-0.6
		c-2.87-3.11-5.87-3.9-9.68-1.35c-1.8,1.2-3.54-0.18-4.65-1.78c-1.89-2.73-3.68-5.54-5.48-8.34c-3.07-4.79-6.94-8.5-12.73-9.7
		c-0.94-0.2-1.96-0.7-2.67,0.42c-0.59,0.93,0.3,1.5,0.61,2.21c0.93,2.12,1.82,4.26,2.62,6.15c-9.11,4.04-18.22,7.51-28.52,6.46
		c0.63,3.05,2.13,4.2,4.11,4.85c1.01,0.33,2.11,0.55,1.85-1.13c-0.67-4.41,2.53-3.19,4.46-2.77c4.05,0.87,6.69,3.52,7.62,7.67
		c0.57,2.56,0.7,5.23-1.9,6.64c-3.46,1.88-7.08,4.05-11.2,1.44c-2.76-1.75-5.98-1.95-9.02-2.75c-1.2-0.31-2.94-0.78-3.02,1.3
		c-0.06,1.53,1.16,2.34,2.66,2.42c1.66,0.1,3.33,0.04,4.99,0.12c0.75,0.04,1.86-0.33,2.01,0.82c0.14,1.11-0.69,1.77-1.66,2.19
		c-2.06,0.91-4.19-0.71-6.82,0.08c5.09,3.82,12.76,4.99,11.62,13.81c-4.23-2.62-9.15-3.94-10.53-9.4c-0.11-0.45-0.44-1.06-0.81-1.18
		c-5.97-2.08-12.16-1.74-18.28-1.19c-4.22,0.37-4.95,4.36-7.04,7.54c2.58,1.05,4.83,0.21,7.03,0.19c4.03-0.04,4.62,1.59,1.91,5.12
		c6.57-1.57,9.84,1.62,11.74,6.91c1.05,2.94,2.56,5.35,5.94,6.07c1.34,0.29,2.53,1.12,2.13,2.82c-0.4,1.69-1.13,2.31-3.18,1.72
		c-1.67-0.48-7.63,5.86-7.77,7.64c-0.1,1.26,0.65,1.7,1.68,2.07c1.6,0.57,2.57-0.03,3.19-1.45c1.67-3.78,4.29-6.24,8.97-6.15
		c0.92,2.75-1.15,5.09-1.71,7.7c-0.63,2.94-1.31,5.89,4.29,3.19c-2.35,5.57-0.5,10.28-0.44,15.03c0.02,1.76,1.08,2.7,2.62,3.24
		c1.14-2.58,2.02-5.31,3.86-7.52c0.83-1,1.83-2.72,3.11-1.96c4.27,2.54,5.3-1.85,5.04-3.28c-0.7-3.95,1.1-7.98-0.54-11.68
		c-0.9-2.03-0.49-3.2,0.73-4.87c3.7-5.03,3.06-10.46-1.51-14.52c-2.53-2.25-3.21-5.41-4.2-8.34c-0.81-2.38,1.15-2.77,2.97-2.61
		c3.19,0.29,4.62-0.85,5.4-4.21c0.84-3.65,2.93-7.01,4.5-10.48c0.27-0.6,0.63-1.2,1.1-1.65c1.98-1.92,17.18-1.19,18.73,1.08
		c1.87,2.76,4.37,4.51,7.3,5.83c0.61,0.27,1.33,0.48,1.75,0.95c7.98,9.01,20.14,12.04,28.75,20.19c3.76,3.56,5.26,7.56,3.93,12.53
		c-1.2,4.49-2.49,8.97-3.83,13.42c-0.84,2.78-0.85,5.63-0.52,8.42c0.99,8.41-1.22,12.72-8.92,16.76c5.58,1.48,4.34,6,4.3,10.06
		c7.08-1.78,10.01-7.32,12.79-13.08c0.77-1.59,0.93-4.63,3.75-3.6c2.63,0.96,1.45,3.38,0.71,5.16c-1.41,3.38,1.12,3.95,3.24,4.88
		c2.12-1.16,3.2-3.65,5.64-4.39c-0.83-2.12,0.19-3.15,2.16-3.49c1.57-0.26,3.17-0.37,4.79-0.55c0.35,1.11-0.7,1.68-1.16,2.5
		c7.21,9.04,1.36,17.71-1.02,26.32c-0.85,3.06-6.78,4.5-9.06,2.83c-3.2-2.35-2.04-5.26-0.56-7.96c1.19-2.17,2.86-4.13,2.19-6.87
		c-7.7,0.88-11.09,6.59-14.18,12.64c-0.42,0.81-0.77,1.85,0.18,2.05c5.2,1.11,4.57,6.85,7.79,9.59c1.72,1.46,1.95,3.84,0.34,5.88
		c-1.56,1.99-3.27,0.92-4.9,0.09c-5.25-2.69-9.62,0.64-14.26,2.07c0.03,2.8,0.07,5.61,0.1,8.41c4.81,1.82,6.2,5.65,2.53,9.46
		c-6.28,6.52-8.77,13.56-6.92,22.61c0.91,4.48-2.41,7.51-6.86,8.3c-5.83,1.03-9.83,4.28-13.05,9.05
		c-4.36,6.46-8.58,13.03-13.71,18.95c-2.37,2.73-2.57,6.42-3.82,9.65c-3.16,8.21-9.48,11.62-17.13,9.17
		c2.53,9.58-3.02,16.91-6.96,24.66c-1.47,2.89-3.75,5.46-3.1,9.13c1.96-0.24,2.15-1.84,2.75-2.89c1.57-2.77,3.74-4.12,6.95-3.69
		c5.59,0.74,10.47-1.24,15.07-4.11c4.28-2.67,9.05-4.16,13.76-5.79c2.25-0.78,3.55-0.29,3.65,2.3c0.11,3.08,1.34,5.6,4.47,8.66
		c-0.72-4.5-0.82-7.75,1.37-10.48c1.04-1.3,2.1-2.66,4.16-1.83c1.74,0.71,1.94,2.1,1.85,3.68c-0.18,3.26-0.66,6.71,4.55,5.82
		c0.37-0.06,1.15,0.72,1.29,1.23c0.3,1.1-0.38,1.91-1.36,2.37c-1.91,0.9-3.85,1.76-6.06,2.77c1.73,0.77,3,0.42,4.26,0.06
		c4.34-1.25,5.18,1.89,5.85,4.87c0.74,3.29-1.03,5.01-4.18,5.48c-3.15,0.48-6.8-0.43-8.81,3.19c2.43,1.63,5.03,0.47,8.04,0.11
		c-1.99,3.1-1.17,6.83-4.11,8.99c0.17,2.16,0.41,4.31,0.48,6.47c0.05,1.43-0.55,2.68-2.05,3.07c-2.08,0.54-1.78-1.37-2.38-2.42
		c-0.7-1.22-0.03-3.05-2.3-4.22c-0.56,4.78-1.09,9.27-1.62,13.76c2.49-0.53,4.93-0.44,5.71-4.17c0.37-1.8,4.16-0.9,6.36-1.2
		c1.98-0.26,5.04-2.51,6.04,0.55c1.01,3.08-1.66,5.11-4.35,6.36c-3.1,1.45-6.26,2.76-10.13,4.45c5.75,3.3,13.28,4.01,12.79,12.42
		c2.22,0.23,4.43,0.45,6.65,0.68c0.34-0.92,0.7-1.84,1.08-2.75C524.12,426.16,523.69,425.91,523.26,425.63z"/>
	<path class="st1" d="M432.68,486.25c-2.47-0.31-4.91-0.86-7.39-1.04c-8.15-0.58-8.17-0.53-10.52-8.22
		c-0.26-0.85-0.45-1.64-1.47-1.68c-1.02-0.04-1.52,0.69-1.51,1.58c0.05,4.58-1.64,8.76-2.78,13.09c-0.7,2.64,0.24,5.36,2.36,7.25
		c2.04,1.82,4.11,0.15,6.05-0.54c1.85-0.65,3.58-1.62,5.37-2.45c0.35,2.03,0.23,4.51,3.48,3.94c1.44-0.25,3.28-0.52,3.27-2.28
		c-0.01-2.59-2.48-1.23-3.77-1.84c2.23-1.13,4.63-1.65,7.09-1.89c1.72-0.17,2.83-0.98,2.9-2.79
		C435.85,487.31,434.58,486.49,432.68,486.25z"/>
	<path class="st1" d="M258.94,488.98c-3.74-2.39-5.66,1.74-9.29,2.9c3.61,1.76,6.2,4.89,9.62,2.04
		C260.7,492.73,260.41,489.93,258.94,488.98z"/>
	<path class="st1" d="M316.17,504.84c5.93,0.14,11.88,0.68,17.74-0.67C327.93,502.98,322.03,503.33,316.17,504.84z"/>
	<path class="st1" d="M524.54,426.39"/>
	<path class="st1" d="M524.54,426.39c0.15-0.37-0.69-0.92-1.28-0.77C523.69,425.91,524.12,426.16,524.54,426.39z"/>
	<path class="st1" d="M769.58,249.18c0.04,40.57,0.07,81.15,0.11,121.72c0.01,7.15,0,14.29,0,21.44c-2.6-2.76-2.79-6.2-2.86-9.74
		c-0.4-21.42-0.2-42.87-1.47-64.24c-1.33-22.37,0.66-44.43,3.27-66.53C768.73,250.89,768.52,249.79,769.58,249.18z"/>
	<path class="st1" d="M758.89,291.9c2.04,2.51,2.62,4.94,2.74,7.42c0.4,8.33,0.1,16.65-0.9,24.92c-0.54,4.48-2.72,8-7.82,10.08
		C752.55,319.57,754.26,305.77,758.89,291.9z"/>
	<path class="st1" d="M769.57,141.2c-1.9,2.62-2.64,4.77-1.28,8.51c2.35,6.47,1.5,13.64,1.33,20.55c-2.65-1.21-2.55-3.63-2.59-5.96
		c-0.06-2.97-1.17-5.07-4.27-5.87c-3.35-0.87-4.93-3.19-4.89-6.6c0.04-3.56,1.13-6.53,4.78-7.94
		C764.95,143,767.26,142.1,769.57,141.2z"/>
	<path class="st1" d="M769.67,403.46c0,5.57,0,11.15-0.01,16.72C768.43,414.6,768.07,409.03,769.67,403.46z"/>
	<path class="st2" d="M270.75,186.25c-0.01-0.01-0.02-0.02-0.02-0.04c-0.02,0.01-0.03,0.02-0.05,0.03
		C270.7,186.24,270.73,186.25,270.75,186.25z"/>
	<path class="st2" d="M523.67,243.22c0,0,0,0.01,0,0.01c0.01,0.01,0.02,0.01,0.04,0.02L523.67,243.22z"/>
	<path class="st2" d="M297.49,172.82"/>
	<path class="st2" d="M309.73,172.28c8.12-0.38,16.29-0.89,24.31-1.91c0.57-1.24,1.3-2.49,2.15-3.75c0.91-1.37,0.89-3.22,1.78-4.66
		C327.61,166.3,308.6,171.95,309.73,172.28z"/>
	<path class="st2" d="M297.49,172.82c-0.82,0.04-1.36,0.43-0.02,0.24C297.48,172.99,297.49,172.91,297.49,172.82z"/>
	<path class="st2" d="M523.67,243.24c-0.93-0.41-0.91-1.21-0.82-2.05c-0.14-3.66-0.21-7.32-0.45-10.97c-0.16-2.39-1.56-4.2-3.88-2.7
		c-2.4,1.55-5.2-1.17-7.34,1.34c-0.53,0.62-1.36-0.52-1.28-1.44c0.37-4.31-2.02-2.82-3.79-1.65c-4.09,2.69-5.26,7.46-7.61,11.38
		c-1.7,2.82-3.03,5.88-4.53,8.81c-2.21,4.34-5.88,4.13-8.8,2.77c-3.86-1.79-2.31-5.23-0.47-8.09c0.99-1.54,1.94-3.09,2.94-4.62
		c3.98-6.08,4.31-6.53-1.77-10.8c-11.37-8-23.15-15.41-34.76-23.07c-2.88,2.26-6.55,3.24-8.81,6.66c-1.87,2.84-4.34-0.99-6.68-0.6
		c-2.62-0.65-8.4,1.71-4.72-4.98c0.21-0.37-0.2-1.41-0.63-1.75c-3.19-2.51-3.95-6.98-7.46-9.22c-0.63,0.09-1.11-0.06-1.22-0.78
		l-0.15-0.1c-5.16-1.62-10.51-0.97-15.78-1.33c-3.14,0.71-5.05-1.49-7.05-3.19c-1.26-1.06-0.02-1.51,0.93-1.79
		c2.19-3.14,6.92-2.27,8.94-5.68c-5.11-1.01-9.64,0.36-13.28,3.92c-2.1,2.05-4.18,2.96-7.31,1.75c1.14,5.76-0.37,10.26-3.75,14.57
		c-1.65,2.1-0.2,5.14,0.42,7.73c0.42,1.75,0.71,3.53,1.16,5.8c-2.7,0-5.16,0-7.61,0c-2.84,0.72-2.72,4.36-5.6,5.38
		c-2.76,0.99-4.89,0.34-4.39-2.16c0.6-3-2.11-3.27-2.65-5.08c-2.64-1.96-5.53-2.65-8.84-2.25c-4.73,0.57-8.34-1.38-10.77-5.51
		c-1.87-3.19-4.32-6.02-7.53-7.75c-2.44-1.31-2.69-3.54-3.75-5.49c-2.98-1.01-5.94-2.1-8.96-2.98c-1.28-0.37-2.8-0.24-2.77-2.13
		c0.03-1.93,1.56-2.47,3.03-2.75c2.93-0.57,6,0.38,8.91-0.67c-2.69-4.08-2.45-7.73-0.75-11.43c-8.02,1.02-16.19,1.53-24.31,1.91
		c0.48,0.14,0.96,0.29,1.42,0.49c-4.32,5.06-11.42,1.95-15.87,5.94c-2.3-3.13-10.26,3.62-14.82,4.54c-3.32,0.68-6.89,0.68-9.74,2.96
		c0.01,0.01,0.02,0.02,0.02,0.04c3.03,0.19,6.17-0.22,10.08,2.17c-4.47,0.88-7.74,2.02-10.08-2.17c-0.02,0-0.05,0-0.07,0
		c0.02-0.01,0.03-0.02,0.05-0.03c0,0,0-0.01-0.01-0.01c-3.55-0.41-6.38,1.65-9.44,2.82c-6.25,2.4-23.54,9.96-21.74,10.15
		c2.41,0.25,4.7-1.54,7.69-0.42c-2.51,0.97-4.63,1.82-6.77,2.63c-4.25,1.61-9.14,2.31-10.55,7.81c-0.18,0.71-0.95,1.52-1.64,1.82
		c-6.21,2.65-9.29,7.86-12.05,13.65c-1.09,2.28-1.61,3.93-0.84,6.43c2.3,7.5,1.68,9.1-5.22,13.48c-7.55,4.78-11.14,11.58-11.4,20.37
		c-0.04,1.48-0.3,2.97-0.64,4.42c-0.75,3.23-1.75,5.51-4.81,1.4c-2.46-3.31-4.44-0.91-6.64,0.69c-2.27,1.66-3.71,2.92-1.59,5.96
		c4.25,6.08,10.7,8.74,16.89,11.97c1.73,0.9,5.25,1.05,4.41,3.7c-0.74,2.35-3.72,0.68-5.76,0.7c-7.26,0.1-13.21-2.49-18.01-7.97
		c-1.45-1.65-3.37-3.19-5.5-0.91c-1.92,2.06-2.2,4.5-0.36,6.79c8.35,10.38,16.8,20.66,28.02,28.2c1.15,0.77,2.88,1.04,3.28,2.88
		c-2.13,1.24-3.71-0.09-5.47-0.92c-10.32-4.89-18.9-12.38-28.32-18.62c-1.74-1.15-3.78-3.83-5.86-0.74c-1.96,2.92,0.36,4.4,2.6,5.85
		c3.61,2.34,5.66,6.01,7.67,9.67c2.7,4.91,6.74,9.17,9.4,13.74c6.16,10.56,15.25,18.7,21.42,29.26c4.26,7.3,6.57,14.49,7.58,22.53
		c0.17,1.35,0.21,3.09,1.95,3.79c0.18,0,0.34-0.07,0.46-0.21c4.29-4.1,5.19-4.09,7.92,0.95c5.52,10.2,9.81,21.44,18.44,29.33
		c7.5,6.85,11.17,15.4,14.9,24.18c2.09,4.91,2.34,10.3,3.5,15.45c3.09,6.49,8.34,9.29,15.4,9.01c7.55-3.69,15.79-3.82,23.85-4.02
		c13.65-0.35,26.89-4.21,40.63-4.04c7.91,0.1,15.9-0.75,23.75-2.44c4.71-1.02,8.01-3,9.1-7.88c0.57-0.78,1.19-1.48,2.29-1.39
		c6.86-2.8,13.71-3.17,20.54,0.07c0.38,1.11,0.76,2.22,1.14,3.32c4.41,3.8,9.55,4.69,15.29,4.68c12.98-0.04,25.96-0.34,38.94,0.66
		c7.08,0.54,14.9,2.16,19.91-5.61c0.9-1.39,3.02-1.77,4.01-0.65c3.55,4.01,8.04,2.2,12.21,2.46c4.57-6.71,9.32-13.34,9.56-21.94
		c-0.04-1.68-0.07-3.35-0.11-5.03l0-0.01c-12.15-1.74-24.06-4.68-36.04-7.24c-5.49-1.18-11.13,1.24-16.73-0.56
		c-1.57-0.51-3.33,0.99-3.69,3.34c-6.05-8.27-6.05-8.3-15.83-5.95c-2.16,0.52-4.27,0.62-6.39-0.03
		c-19.89-6.12-40.34-9.51-60.87-12.43c-3.92-0.56-7.42-3.6-12-1.39c-1.42,0.69-2.86-3.1-5.01-4.26c-9.75-5.23-20.2-7.33-31.11-7.42
		c-4.85-0.04-8.86-1.27-11.45-5.6c-1.13-1.9-1.52-3.66,1.05-4.94c2.73-1.36,3.31-4.9,6.25-6.27c1.51-0.7,0.75-2.32,0.04-3.5
		c-1.28-2.16-2.87-4.07-4.77-5.74c-1.36-1.19-2.29-2.75-0.57-4.24c2.9-2.51,2.58-5.72,1.83-8.77c-0.6-2.45-0.42-4.83,0.5-6.82
		c2.25-4.83,3.75-9.86,5.25-15.01c0.13,9.03-1.58,18.02-0.04,28.5c6.83-15.8,4.79-31.46,7.23-46.45
		c-0.05,14.6,1.56,29.26-1.51,43.76c-0.65,3.04-0.27,4.74,3.41,5.58c3.12,0.71,5.89,2.98,8.81,4.56c0.54-0.2,1.07-0.4,1.61-0.6
		c-2.77-6.55-0.89-12.33,2.25-18.33c2.45-4.69,2.22-10.26,2.75-15.51c0.16-1.58-0.44-3.33,1.2-4.81c2.22,6.2,1.92,12.49,1.8,18.75
		c5.57,1.6,0.21,4.81,1.05,7.11c4.85,3,4.84,3.63-0.14,9.67c0.15,1.42-1.62,2.54-0.62,4.12c1.57,0.28,1.83-2.44,3.62-1.65
		c0.45-3.16,4.23-3.9,5.02-6.82c0.21-2.49,1.86-3.15,4.02-3.16c0.06-0.29,0.14-0.57,0.25-0.85c1.63-2.69,3.23-5.41,4.93-8.06
		c0.43-0.66,1.25-1.67,1.76-1.59c5.39,0.78,7.54-3.6,11.06-6.17c4.69-3.43,11.12-4.24,15.2-9.02c0.25-0.29,1.4-0.21,1.82,0.1
		c1.04,0.77,0.42,1.83,0.04,2.7c-2.76,6.28-3.9,13.05-5.85,19.57c-0.45,1.49-1.81,3.28,0.7,4.13c2.23,0.75,4.11-0.21,4.85-2.35
		c1.08-3.13,1.97-6.37,2.58-9.62c1.48-7.92,2.76-15.88,4.32-24.98c-7.67,8.53-16.16,10.51-26.05,9.33c0.92-3.17,3.11-2.88,5.02-3.01
		c13.64-0.9,18.48-5.2,20.44-18.41c0.26-1.75,0.87-3.16,2.06-4.41c0.87-0.91,1.43-1.96,0.42-3.07c-0.52-0.57-1.31-1.29-1.97-1.29
		c-1.59,0.02-1.38,1.54-1.69,2.61c-1.48,5.1-2.42,10.36-4.7,15.23c-1.11,2.38-2.28,4.11-5.27,2.6c-1.61-0.82-2.79,0.47-4.14,1.04
		c-6.48,2.72-12.25,1.65-17.37-3.27c0.92-1.83,2.43-0.79,3.58-1.01c1.93-0.37,2.74-1.48,1.88-3.16c-1-1.95-1.87-3.6-1.17-6.04
		c0.46-1.6-1.29-2.03-2.77-1.38c-1.87,0.81-3.31,2.18-4.69,3.66c-0.73,0.78-1.47,2.23-2.77,0.95c-0.91-0.9-0.91-2.61-0.03-3.2
		c9.14-6.14,13.83-18,25.81-20.38c4.54-0.9,9.22-1.21,13.85-1.48c4.35-0.25,8.03-1.49,11.14-4.73c5.71-5.93,10.94-6.75,16.61-0.65
		c10.27,11.05,24.94,15.85,35.44,26.4c1.31,1.32,2.88,2.26,2.81,4.38c6.13,1.26,12.1,3.16,18.21-0.79c4.7-3.04,7.95-7.06,8.39-12.3
		c0.53-6.18,3.04-10.24,8.55-12.76c0.79-0.36,1.25-1.47,1.86-2.24c0.64-4.39-1.28-5.9-5.59-5.42c-2.77,0.3-5.62-0.06-8.43-0.14
		c-1.7-0.05-3.5-0.14-3.88-2.25c-0.4-2.19,1.58-2.58,2.94-3.43c4.94-3.06,10.56-3.31,16.07-4.19c3.05-0.48,6.27-0.86,8.75-3.1
		c0.81-1.54,1.92-1.88,3.67-1.44c8.06,2.05,10.46,0.75,13.48-7C523.74,248.83,523.71,246.04,523.67,243.24z"/>
	<path class="st2" d="M253.9,236.71c0.06-5.84,2.73-9.55,3.26-14.72C259.02,226.4,258.2,229.9,253.9,236.71z"/>
	<path class="st2" d="M269.3,218.19c-2.16,6.3-3.65,12.87-6.63,18.85c-0.55-0.19-1.1-0.37-1.66-0.56c1.96-6.25,3.91-12.5,5.89-18.75
		c0.26-0.81,0.71-1.6,1.76-1.2C269.36,216.8,269.53,217.53,269.3,218.19z"/>
	<path class="st2" d="M299.99,261.65c-1.57-0.62-2.73-1.92-3.03-3.66c-0.17-1.03,0.65-1.45,1.59-1.32c1.95,0.28,2.76,1.58,2.9,3.28
		C301.21,260.9,300.95,262.03,299.99,261.65z"/>
	<path class="st2" d="M303.46,327.68c-3.68-6.46-3.36-12.33,1.25-18.17C303.89,315.91,305.84,321.72,303.46,327.68z"/>
	<path class="st2" d="M391.2,220.5c-3.77-1.55-4.74-3.46-5.39-6.4C388.84,215.19,389.51,217.34,391.2,220.5z"/>
	<path class="st2" d="M342.66,362.1c-0.02-0.01-0.03-0.01-0.05-0.02c0,0.03-0.01,0.05-0.02,0.08
		C342.59,362.17,342.66,362.1,342.66,362.1z"/>
	<path class="st2" d="M268.66,216.53c-1.05-0.4-1.5,0.39-1.76,1.2c-1.98,6.24-3.93,12.5-5.89,18.75c0.55,0.19,1.1,0.37,1.66,0.56
		c2.98-5.98,4.47-12.54,6.63-18.85C269.53,217.53,269.36,216.8,268.66,216.53z"/>
	<path class="st2" d="M303.46,327.68c2.39-5.96,0.43-11.77,1.25-18.17C300.1,315.35,299.78,321.22,303.46,327.68z"/>
	<path class="st2" d="M253.9,236.71c4.31-6.81,5.12-10.3,3.26-14.72C256.63,227.16,253.96,230.86,253.9,236.71z"/>
	<path class="st2" d="M298.55,256.67c-0.93-0.13-1.76,0.29-1.59,1.32c0.29,1.74,1.46,3.04,3.03,3.66c0.96,0.38,1.22-0.75,1.47-1.7
		C301.32,258.25,300.51,256.95,298.55,256.67z"/>
	<path class="st2" d="M391.2,220.5c-1.69-3.16-2.36-5.31-5.39-6.4C386.46,217.04,387.43,218.95,391.2,220.5z"/>
	<path class="st3" d="M131.71,323.22c-26,30-57,53-85,82c-3.03,3.03-5.81,6.18-8.42,9.42c0.06,0.17,0.11,0.34,0.17,0.49
		c7.02,18.87,13.62,37.84,14.35,58.28c0.11,2.97,0.63,5.95,1.23,8.88c2.2,10.7,10.29,14.45,19.76,16.31
		c4.66,0.92,9.34,2.17,15.63,1.33c-5.93-3.48-11.4-4.43-16.72-5.55c-9.16-1.92-18.52-12.35-18.94-21.44
		c-0.11-2.3,1.1-2.93,3.08-2.77c1.44,0.12,2.43,1.04,3.32,2.04c11.57,13.05,26.35,21.72,41.15,30.4c3.71,2.18,7.6,4.15,10.61,7.36
		c11.91,0.07,23.81,0.13,35.72,0.2c1.36-1.43,0.75-3.45,1.52-5.06c-2.84-1.17-1.29-3.39-0.96-5.03c1.26-6.18,5.25-10.64,9.96-14.48
		c3.04-2.48,6.86-4.18,6.96-9c0.03-1.45,1.6-1.4,2.77-1.43c-2.76-6.43,0.32-13.34,7.11-15.37c2.83-0.84,5.84-1.36,8.79-1.44
		c5.36-0.15,9.86-1.39,12.01-6.94c0.38-0.98,0.99-1.83,2.18-1.63c1.13,0.19,1.41,1.14,1.69,2.17c1.93,7.04,2.83,7.74,10.15,8.23
		c1.33,0.09,2.66,0.08,3.98,0.25c0.81,0.1,2.24,0.4,2.27,0.73c0.53,5.18,5.17,8.25,6.5,12.97c1.01,0.15,2.02,0.29,3.03,0.44
		c0.56-2.4-1.27-5.46,1.94-7.15c0.12-0.16,0.25-0.31,0.39-0.46c-0.69-3.9-3.37-7.56,3.01-10.4c4.69-2.09,4.07-3.48,6.36,2.4
		c0.4,1.03,0.35,2.47,1.94,2.4c4.62-0.19,3.14,2.42,2.26,4.79c1.8,0.57,3.6,1.13,5.39,1.7c2.25-9.5-2.32-17.61-5.39-26
		c-0.85-2.32-1.88-4.85-5.3-3.49c0.88,2.15,1.74,4.3,2.65,6.44c0.66,1.55,1.53,3.23,0.2,4.65c-1.29,1.37-3.28,1.09-4.66,0.26
		c-4.61-2.78-7.86-1.47-10.59,4.06c-1.37-4.92-4.09-8.65-0.27-12.67c-0.27-1.1,0.06-2.07,1.06-2.54c3-1.39,7.37-0.7,7.97-5.72
		c0.08-0.7,2.38,1.07,3.6-0.11c-3.26-13.19-6.47-15.62-15.31-11.59c2.04,0.65,4.4-0.32,6.26,0.97c1.7,1.18,3.75,2.51,1.38,4.94
		c-2.32,3.81-5.55,3.22-8.93,1.83c-2.1-0.81-4.23-0.75-6.35-0.15c-1.93,0.54-3.63-0.08-5.21-1.02c-1.29-0.76-2.59-1.74-2.07-3.55
		c0.45-1.56,1.85-1.61,3.21-1.77c3.73-0.43,7.64,0.75,11.22-1.16c-8.83-0.4-10.59-2.1-10.28-9.96c-0.45-0.02-0.91-0.05-1.36-0.07
		c-0.01,0.01-0.02,0.03-0.03,0.04c-0.01-0.01-0.02-0.02-0.04-0.03c0.59,3.74-2.01,5.41-4.71,6.72c-3.62,1.76-6.57,3.91-7.13,8.25
		c-0.13,1.04-0.52,1.96-1.82,1.95c-0.95,0-1.74-0.57-1.85-1.39c-0.56-4.16-4.15-5.32-6.97-7.21c-2.24-1.5-3.9-3.29-2.97-6.16
		c0.86-2.65,3.15-3.16,5.63-3.16c4.82,0,9.65,0.28,14.41-0.81c2.18-0.5,3.8,0.63,5.41,1.81c0-0.01,0-0.01,0-0.02
		c0.02,0,0.04,0,0.06,0c1.77-2.47-0.42-4.93-0.06-7.39c-2.73-1.76,0.55-2.3,0.7-3.47c-0.29-0.39-0.68-0.75-0.84-1.19
		c-0.86-2.3-0.78-5.09,1.13-6.18c1.69-0.97,2.49,2.03,3.85,3.06c3.51-1.84,2.16-6.75,5.49-8.71c-1.73-0.69-1.78-2.44-1.95-3.79
		c-1.02-8.04-3.32-15.23-7.58-22.53c-6.16-10.56-15.26-18.71-21.42-29.26c-2.66-4.57-6.7-8.82-9.4-13.74
		c-2.01-3.66-4.06-7.33-7.67-9.67c-2.24-1.46-4.57-2.94-2.6-5.85c2.08-3.09,4.12-0.41,5.86,0.74c9.42,6.24,18.01,13.74,28.32,18.62
		c1.76,0.83,3.34,2.16,5.47,0.92c-0.4-1.83-2.12-2.1-3.28-2.88c-11.22-7.54-19.68-17.82-28.02-28.2c-1.84-2.29-1.56-4.73,0.36-6.79
		c2.13-2.29,4.05-0.74,5.5,0.91c4.8,5.47,10.75,8.07,18.01,7.97c2.03-0.03,5.02,1.64,5.76-0.7c0.84-2.65-2.68-2.8-4.41-3.7
		c-6.18-3.23-12.64-5.88-16.89-11.97c-2.12-3.04-0.69-4.29,1.59-5.96c2.19-1.61,4.18-4,6.64-0.69c3.06,4.11,4.06,1.83,4.81-1.4
		c0.33-1.45,0.6-2.94,0.64-4.42c0.26-8.79,3.85-15.59,11.4-20.37c6.91-4.38,7.52-5.97,5.22-13.48c-0.77-2.5-0.25-4.14,0.84-6.43
		c2.76-5.79,5.84-11,12.05-13.65c0.69-0.3,1.46-1.11,1.64-1.82c1.42-5.51,6.3-6.21,10.55-7.81c2.14-0.81,4.27-1.66,6.77-2.63
		c-0.8-0.3-1.55-0.39-2.27-0.36C191.51,220.5,168.3,280.23,131.71,323.22z"/>
	<path class="st3" d="M193.18,434.09c4.72-0.36,9.52-2.59,12.55,3.29c0.54,1.05,2.05,0.99,3.21,0.98c3.2-0.01,3.95,1.85,3.64,4.24
		c0.05,3.7-1.48,6.69-4.85,5.3c-4.75-1.96-9.41-1.63-14.16-1.52c-3.62,0.08-6.64-0.85-6.59-4.89
		C187.04,437.77,188.13,434.48,193.18,434.09z"/>
	<path class="st3" d="M180.8,426.45c-1.07,1.67-2.29,3.32-3.73,4.68c-9.62,9.05-13.35,20.52-13.24,33.3
		c0.04,4.98-1.5,7.19-6.47,7.93c-7.78,1.15-15.8,2.89-21.3,8.84c-6.26,6.76-14.61,12.38-15.43,22.94c-0.19,2.47-2.06,2.56-3.65,1.55
		c-15.4-9.73-33.35-15.51-45.9-29.68c-1.62-1.82-3.76-3.63-6.01-4.37c-8.28-2.71-10.29-9.43-11.03-16.75
		c-1.14-11.32-4.22-22.17-7.27-33.04c-0.49-1.76-1.47-3.64,0.47-5c2.16-1.52,3.65,0.16,5.21,1.46c6.81,5.67,13.05,11.84,17.9,19.32
		c0.96,1.48,1.87,3.75,4.03,1.32c2.78-3.12,3.94-0.85,4.87,1.46c1.32,3.29,1.95,6.89,4.73,9.54c0.61-4.38-3.14-7.5-2.98-12.64
		c5.69,4.53,9.71,10.61,18.24,12.3c-6.06-7.25-13.57-11.38-17.73-18.66c4.63-1.5,6.63-5.55,8.22-9.51c1.26-3.15,2.66-4.15,5.42-2.23
		c2.99,2.08,5.9,2.27,9.43,1.34c4.58-1.2,9.38-0.49,13.8,0.95c9.46,3.08,19.32,3.07,29,4.4c1.61,0.22,3.01-0.23,4.09-1.37
		c1.48-1.56,2.87-2.91,5.02-1c0.95,0.84,1.89,0.4,2.68-0.29c4.76-4.17,11.19-3.99,16.61-6.42c1.76-0.79,2.93-0.19,3.74,1.29
		C180.96,420.71,182.79,423.36,180.8,426.45z"/>
	<path class="st3" d="M181.41,344.1c2.83,0.1,4.46,1.22,6.01,2.52c6.61,5.56,12.88,11.48,18.76,17.8c0.67,0.72,1.31,1.52,1.77,2.39
		c0.99,1.88,2.41,3.82,0.69,5.96c-1.73,2.14-3.78,0.7-5.46,0.01c-7.99-3.34-12.66-10.48-18.28-16.49c-1.9-2.04-3.59-4.43-4.76-6.95
		C179.26,347.43,178.57,344.76,181.41,344.1z"/>
	<path class="st3" d="M188.25,373.36c-1.53-6.83-7.79-10.59-10.72-16.53c-1.04-2.11-2.39-4.07-3.05-6.44
		c11.5,13.03,26.42,23.72,28.99,43.32c-3.18-2.29-2.94-6.37-5.81-8.3c-0.76,2.68,1.04,4.77,1.68,7.12c0.88,3.24,0.33,5.4-2.88,7.43
		c-7.41,4.71-15.58,6.39-23.83,8.84c-9.14,2.71-18.38,3.75-27.52,5.56c-10.46,2.07-21.18,1.35-31.75-0.25
		c-1.12-0.17-2.19-0.75-3.25-1.21c-1.23-0.54-2.49-1.1-2.37-2.8c0.13-1.95,1.68-2.55,3.12-2.62c3.64-0.2,7.32-0.61,10.92,0.3
		c1.71,0.43,3.49,0.65,4.77-0.53c5.82-5.38,12.88-7.45,20.52-8.69c10.96-1.79,21.83-4.14,32.73-6.28c1.01-0.2,2.76,0.27,2.5-1.52
		c-0.23-1.51-1.63-1.2-2.84-0.97c-8.8,1.64-17.65,3.08-26.42,4.89c-7.23,1.5-14.42,2.32-21.72,0.84c-2.32-0.47-4.48,1.39-7.12,0.16
		c2.93-4.21,7.27-5.37,11.81-6.54c13.83-3.56,28.25-4,41.98-7.96c2.65-0.76,5.54-1.03,7.75-2.98c-5.91,0.66-11.81,1.38-17.73,1.93
		c-1.53,0.14-3.71,0.65-4.07-1.66c-0.4-2.57,1.94-2.68,3.64-3.13C174.35,373.56,181.25,372.95,188.25,373.36z"/>
	<path class="st3" d="M164.81,374.31c-21.66,4.19-42.78,0.78-63.85-4.77c21.16,0.75,42.4,0.82,63.63,0.87c1.56,0,3.38,0.09,3.5,1.95
		C168.23,374.51,166.16,374.05,164.81,374.31z"/>
	<path class="st3" d="M167.78,356.09c-0.68,2.23-3.19,0.84-5.05,1.27c-10.48-1.18-20.46-4.66-30.23-8.84
		c-1.13-0.48-2.13-1.29-1.54-2.67c0.61-1.44,1.91-1.89,3.3-1.17c7.26,3.75,15.5,3.19,23.14,5.26c2.43,0.66,4.79,1.37,6.93,2.65
		C165.79,353.46,168.48,353.79,167.78,356.09z"/>
	<path class="st3" d="M22.54,510.16c-0.92-1.81,0.2-4.84-3.45-5.04c-1.81-0.1-1.2-2.01-1.08-3.23c0.27-2.78,0.65-5.54,1.15-9.64
		c1.09,3.97,1.84,6.77,2.62,9.55c0.31,1.11,0.59,2.46,2.06,2.32c1.72-0.16,1.9-1.52,1.67-2.96c-1.14-3.37-1.57-6.72,0.3-10
		c0.87-1.63,1.33-3.23-0.26-4.73c-1.14,1.21-1.32,3.93-3.76,3.15c-3.48-1.11-1.93-4.37-2.42-7.06c1.49,2.66,3.62,3.19,6.19,2.48
		c0.78-10.82,2.4-21.43,8.33-32.29c0.67,5.47,1.31,9.8,1.72,14.16c0.79,8.4,1.98,16.72,3.34,25.05c0.93,5.73,3.82,9.72,8.25,12.94
		c1.79,1.3,3.45,2.6,3.92,4.9c4.1,0.85,8.23,0.4,12.34,0.26c-0.64-1.57-2.08-2.16-3.5-2.58c-13.17-3.88-19.41-13.5-20.95-26.35
		c-1.7-14.16-4.21-28.36-3.08-42.67c0.53-6.77,0.44-13.36-0.6-19.97C15.48,445.19,7.97,477.9,0,510.17
		C7.51,510.17,15.03,510.16,22.54,510.16z"/>
	<path class="st3" d="M208.67,411.21c0.01,0.01,0.02,0.02,0.04,0.03c0.01-0.01,0.02-0.03,0.03-0.04c-0.02,0-0.04,0-0.06,0
		C208.67,411.2,208.67,411.21,208.67,411.21z"/>
	<path class="st3" d="M163.93,378.48c0.36,2.31,2.54,1.8,4.07,1.66c5.92-0.55,11.82-1.27,17.73-1.93c-2.21,1.96-5.1,2.22-7.75,2.98
		c-13.74,3.97-28.15,4.4-41.98,7.96c-4.54,1.17-8.87,2.33-11.81,6.54c2.64,1.23,4.8-0.64,7.12-0.16c7.3,1.48,14.49,0.66,21.72-0.84
		c8.77-1.82,17.61-3.25,26.42-4.89c1.21-0.23,2.62-0.54,2.84,0.97c0.27,1.79-1.48,1.32-2.5,1.52c-10.9,2.13-21.77,4.49-32.73,6.28
		c-7.64,1.24-14.7,3.31-20.52,8.69c-1.28,1.18-3.06,0.96-4.77,0.53c-3.6-0.91-7.28-0.5-10.92-0.3c-1.44,0.08-2.99,0.67-3.12,2.62
		c-0.12,1.7,1.14,2.26,2.37,2.8c1.06,0.47,2.13,1.04,3.25,1.21c10.57,1.6,21.3,2.31,31.75,0.25c9.14-1.81,18.38-2.85,27.52-5.56
		c8.25-2.45,16.42-4.12,23.83-8.84c3.2-2.04,3.76-4.19,2.88-7.43c-0.64-2.35-2.44-4.44-1.68-7.12c2.87,1.93,2.63,6.01,5.81,8.3
		c-2.57-19.6-17.49-30.29-28.99-43.32c0.67,2.37,2.01,4.33,3.05,6.44c2.92,5.94,9.19,9.7,10.72,16.53c-7-0.41-13.9,0.2-20.68,1.99
		C165.86,375.8,163.53,375.91,163.93,378.48z"/>
	<path class="st3" d="M175.78,416.8c-5.42,2.43-11.85,2.25-16.61,6.42c-0.79,0.69-1.73,1.13-2.68,0.29c-2.15-1.91-3.55-0.56-5.02,1
		c-1.08,1.14-2.48,1.59-4.09,1.37c-9.68-1.33-19.54-1.31-29-4.4c-4.42-1.44-9.22-2.16-13.8-0.95c-3.53,0.93-6.44,0.74-9.43-1.34
		c-2.77-1.92-4.16-0.92-5.42,2.23c-1.59,3.96-3.59,8.01-8.22,9.51c4.16,7.28,11.67,11.41,17.73,18.66
		c-8.53-1.69-12.55-7.77-18.24-12.3c-0.17,5.14,3.59,8.26,2.98,12.64c-2.78-2.64-3.41-6.25-4.73-9.54c-0.93-2.3-2.08-4.58-4.87-1.46
		c-2.16,2.42-3.08,0.16-4.03-1.32c-4.84-7.49-11.09-13.66-17.9-19.32c-1.55-1.29-3.04-2.98-5.21-1.46c-1.93,1.36-0.96,3.24-0.47,5
		c3.05,10.87,6.13,21.72,7.27,33.04c0.74,7.32,2.76,14.05,11.03,16.75c2.25,0.74,4.39,2.54,6.01,4.37
		c12.55,14.17,30.5,19.95,45.9,29.68c1.59,1.01,3.46,0.91,3.65-1.55c0.82-10.56,9.17-16.18,15.43-22.94
		c5.51-5.95,13.52-7.69,21.3-8.84c4.98-0.73,6.52-2.95,6.47-7.93c-0.11-12.78,3.61-24.25,13.24-33.3c1.44-1.35,2.65-3,3.73-4.68
		c1.98-3.09,0.16-5.74-1.29-8.36C178.7,416.61,177.54,416.01,175.78,416.8z"/>
	<path class="st3" d="M184.91,356.29c5.62,6.01,10.28,13.15,18.28,16.49c1.67,0.7,3.73,2.14,5.46-0.01c1.72-2.14,0.3-4.08-0.69-5.96
		c-0.46-0.87-1.09-1.67-1.77-2.39c-5.88-6.32-12.16-12.24-18.76-17.8c-1.54-1.3-3.18-2.41-6.01-2.52c-2.84,0.66-2.15,3.33-1.26,5.24
		C181.32,351.86,183,354.25,184.91,356.29z"/>
	<path class="st3" d="M164.59,370.41c-21.23-0.05-42.47-0.12-63.63-0.87c21.07,5.55,42.19,8.96,63.85,4.77
		c1.35-0.26,3.42,0.2,3.28-1.95C167.97,370.5,166.15,370.42,164.59,370.41z"/>
	<path class="st3" d="M193.57,446.38c4.76-0.11,9.41-0.44,14.16,1.52c3.37,1.39,4.9-1.6,4.85-5.3c0.31-2.39-0.44-4.25-3.64-4.24
		c-1.16,0.01-2.68,0.06-3.21-0.98c-3.03-5.88-7.83-3.65-12.55-3.29c-5.04,0.39-6.14,3.68-6.19,7.41
		C186.93,445.53,189.95,446.46,193.57,446.38z"/>
	<path class="st3" d="M164.33,352.59c-2.14-1.28-4.5-1.99-6.93-2.65c-7.65-2.07-15.88-1.51-23.14-5.26c-1.4-0.72-2.69-0.27-3.3,1.17
		c-0.58,1.38,0.42,2.19,1.54,2.67c9.77,4.19,19.75,7.67,30.23,8.84c1.87-0.43,4.37,0.96,5.05-1.27
		C168.48,353.79,165.79,353.46,164.33,352.59z"/>
	<path class="st2" d="M63.46,510.04c-0.64-1.57-2.08-2.16-3.5-2.58c-13.17-3.88-19.41-13.5-20.95-26.35
		c-1.7-14.17-4.21-28.36-3.08-42.67c0.6-7.54,0.42-14.87-0.99-22.25c-0.25-1.31-0.88-3.37,1.14-3.79c1.63-0.34,1.94,1.55,2.38,2.73
		c7.02,18.87,13.62,37.84,14.35,58.28c0.11,2.97,0.63,5.95,1.23,8.88c2.2,10.7,10.29,14.45,19.76,16.31
		c4.66,0.92,9.34,2.17,15.63,1.33c-5.93-3.48-11.4-4.43-16.72-5.55c-9.16-1.92-18.52-12.35-18.94-21.44
		c-0.11-2.3,1.1-2.93,3.08-2.77c1.44,0.12,2.43,1.04,3.32,2.04c11.57,13.05,26.35,21.72,41.15,30.4c3.71,2.18,7.6,4.15,10.61,7.36
		C95.77,509.99,79.61,510.01,63.46,510.04z"/>
	<path class="st1" d="M169.51,510.05c-4.54,0-9.08,0.01-13.61,0.01c0.18-2.04-1.09-3.36-2.36-4.67c0.49-0.44,0.95-0.91,1.48-1.31
		c4.78-3.64,5-12.18,13.14-12.29c0.2,0,0.49-1.13,0.56-1.76c0.19-1.65,0.7-2.99,2.69-2.83c1.88,0.15,2.32,1.56,2.62,3.13
		c0.43,2.24,1.2,4.25,4,4.27c3.23,0.03,6.05,1.48,8.97,2.57c-1.24,0.27-2.39,0.67-1.13,2.16c2.37,2.8,5.08,4.74,8.99,2.99
		c1.32-0.59,2.61-1.73,4.12-0.68c1.3,0.89,2.51,2.83,4.14,1.15c1.52-1.56-0.1-3.39-0.46-5.09c3.18,0.69,6.93,0.52,8.05,4.62
		c1.2,4.37,4.46,5.01,7.77,3.62c5.02-2.1,7.48,0.01,9.29,4.24c-12.65-0.02-25.29-0.04-37.94-0.06c-0.86-2.82-3.2-2.92-5.52-2.88
		c-3.75,0.07-7.46-0.17-11.11-1.13c0.23-1.07,0.45-2.14,0.68-3.21c2.52-0.35,5.04-0.7,7.93-1.1c-1.64-3.05-3.4-4.83-6.48-4.52
		c-2.53,0.25-2.49,2.25-2.57,4.11c-0.58-0.32-1.15-0.68-1.75-0.95c-1.61-0.73-3.37-1.3-4.18,0.89c-0.8,2.18,1.06,2.87,2.61,3.51
		c1.21,0.5,2.49,0.86,3.73,1.28C170.4,505.97,169.18,507.29,169.51,510.05z"/>
	<path class="st2" d="M25.81,491.17c0.87-1.63,1.33-3.23-0.26-4.72c0-0.47,0.01-0.96,0.01-1.44c0.78-10.82,2.4-21.43,8.33-32.29
		c0.67,5.47,1.31,9.8,1.72,14.16c0.79,8.4,1.98,16.72,3.34,25.05c0.93,5.73,3.82,9.72,8.25,12.94c1.79,1.3,3.45,2.6,3.92,4.9
		c-7.17,0.93-14.36,0.25-21.55,0.38c-0.96-3.57-1.93-7.14-2.89-10.72C26.84,496.63,27.09,493.82,25.81,491.17z"/>
	<path class="st4" d="M241.78,495.85c2.01-1.14,3.89-0.26,5.74,0.44c2.81,1.08,5.65,1.89,8.7,2.02c2.08,0.09,4.56-0.47,3.31,3.61
		c-0.77,2.5,6.77,5.72,8.77,3.7c4.01-4.05-1.07-4.41-2.88-6.14c7.22,0.69,14.3,1.37,21.38,2.03c6.9,0.65,13.8,1.29,21.57,2.01
		c-6.53,3.6-13.1,1.43-19.49,2.97c1.69,2.84,5.77,0.33,6.69,3.58c-16.6-0.01-33.2-0.01-49.8-0.02c-0.9-4.1-3.64-7.37-5.07-11.23
		C241.06,497.84,241.42,496.85,241.78,495.85z"/>
	<path class="st4" d="M227.77,510.17c-1.8-4.23-4.27-6.34-9.29-4.24c-3.31,1.39-6.57,0.75-7.77-3.62c-1.12-4.11-4.87-3.94-8.05-4.62
		c-0.3-0.14-0.59-0.28-0.89-0.43c-0.42-0.68-1.26-2.01-0.74-2.11c4.57-0.8,4.33-5.28,6.38-7.97c5.92,5.44,13.29-1.65,19.39,2.25
		c0.06,4.29-0.79,8.64,0.75,12.85c1.95,2.29,4.29,4.37,4.17,7.77C230.4,510.09,229.08,510.13,227.77,510.17z"/>
	<path class="st2" d="M378.44,500.87c4.43-2.77,9.37-4.13,14.41-5.21c3.14-0.67,5.62-1.89,5.95-5.61c0.18-1.99,1.3-3.58,3.49-3.48
		c2.28,0.11,2.8,2.1,3.14,3.92c1.39,7.39-1.34,10.24-8.53,9.03c-8.54-1.44-11.66,1.54-11.06,10.59c-4.12,0.02-8.25,0.03-12.37,0.05
		c-1.25-1.91-4.54-2.54-3.64-5.8c1.04-1.89,2.81-2.23,4.74-2.26C375.98,502.1,377.58,502.67,378.44,500.87z"/>
	<path class="st1" d="M231.72,510.05c0.12-3.4-2.22-5.48-4.17-7.77c1.38-0.22,2.46-0.84,3.1-2.16c0.7-1.45,1.65-2.13,2.97-0.65
		c2.67,3.02,4.9,1.52,7.09-0.64c1.44,3.86,4.18,7.13,5.07,11.23C241.09,510.06,236.4,510.05,231.72,510.05z"/>
	<path class="st4" d="M369.83,504.36c-0.9,3.26,2.39,3.89,3.64,5.8c-8.59-0.04-17.17-0.07-25.76-0.11c-0.12-0.98-0.12-2-0.37-2.95
		c-0.96-3.7,0.91-2.6,2.72-1.66c2.84,3.83,6.19,0.96,9.34,0.71c1.74-1.22,3.33-2.83,5.25-3.54
		C366.46,501.95,369.01,501.13,369.83,504.36z"/>
	<path class="st4" d="M26.68,499.44c0.96,3.57,1.93,7.14,2.89,10.72c-2.34,0-4.69,0-7.02,0c-0.92-1.81,0.21-4.84-3.45-5.04
		c-1.81-0.1-1.2-2.01-1.08-3.23c0.27-2.78,0.65-5.54,1.15-9.64c1.09,3.97,1.84,6.77,2.62,9.55c0.31,1.11,0.59,2.46,2.06,2.32
		c1.72-0.16,1.9-1.52,1.67-2.96C25.84,500.56,25.43,499.44,26.68,499.44z"/>
	<path class="st2" d="M173.21,506.1c3.64,0.95,7.35,1.2,11.11,1.13c2.32-0.05,4.65,0.05,5.52,2.88c-6.77-0.02-13.55-0.04-20.32-0.06
		c-0.33-2.76,0.89-4.08,3.67-3.95C173.18,506.1,173.21,506.1,173.21,506.1z"/>
	<path class="st2" d="M388.37,509.86c4.32-5.27,10.34-5.17,15.44,0.26C398.66,510.03,393.51,509.95,388.37,509.86z"/>
	<path class="st2" d="M153.53,505.39c1.28,1.31,2.54,2.62,2.37,4.67c-2.75,0.04-5.5,0.07-8.25,0.11c1.36-1.43,0.75-3.45,1.52-5.05
		C150.7,503.8,152.07,505.27,153.53,505.39z"/>
	<path class="st4" d="M522.85,241.19c-0.14-3.66-0.21-7.32-0.45-10.97c-0.16-2.39-1.56-4.2-3.88-2.7c-2.4,1.55-5.2-1.17-7.34,1.34
		c-0.53,0.62-1.36-0.52-1.28-1.44c0.37-4.31-2.02-2.82-3.79-1.65c-4.09,2.69-5.26,7.46-7.61,11.38c-1.7,2.82-3.03,5.88-4.53,8.81
		c-2.21,4.34-5.88,4.13-8.8,2.77c-3.86-1.79-2.31-5.23-0.47-8.09c0.99-1.54,1.94-3.09,2.94-4.62c3.98-6.08,4.31-6.53-1.77-10.8
		c-11.37-8-23.15-15.41-34.76-23.07c-6-3.4-10.98-1.45-15.49,6.06c-2.62-0.65-8.4,1.71-4.72-4.98c0.21-0.37-0.2-1.41-0.63-1.75
		c-3.19-2.51-3.95-6.98-7.46-9.22c-0.41-0.26-0.81-0.52-1.22-0.78c0,0-0.15-0.1-0.15-0.1c0.55-1.95-0.06-3.32-1.7-4.62
		c-2.12-1.68-3.52-3.99-2.91-6.87c0.78-3.67-0.89-3.76-3.79-3.15c-1.93,0.41-2.87,2.09-4.57,2.66c-5.11-1.01-9.64,0.36-13.28,3.92
		c-2.1,2.05-4.18,2.96-7.31,1.75c1.14,5.76-0.37,10.26-3.75,14.57c-1.65,2.1-0.2,5.14,0.42,7.73c0.42,1.75,0.71,3.53,1.16,5.8
		c-2.7,0-5.16,0-7.61,0c-2.95-3.29-8.07,0.14-10.9-3.51c-0.58,0.56-1.15,1.11-1.73,1.67c-2.64-1.96-5.53-2.65-8.84-2.25
		c-4.73,0.57-8.34-1.38-10.77-5.51c-1.87-3.19-4.32-6.02-7.53-7.75c-2.44-1.31-2.69-3.54-3.75-5.49c0.07-2.84,0.14-5.69,0.22-8.53
		c-3.59-5.45-1.96-10.14,1.39-15.18c1.4-2.1,0.58-5.32,4.26-6.48c1.73-0.55,0.55-3.41,0.2-5.07c-2.84-13.4,1.92-25.34,7.17-37.1
		c1.16-2.6,4.06-4.27,6.45-6.1c3.96-3.03,7.96-6.13,8.54-11.69c0.11-1.05,1-1.61,1.9-2.13c0.99-0.58,2.45-1.21,2.69-2.09
		c2.25-8.3,10.25-11.01,15.56-16.3c1.06-1.05,2.2-2.07,3.05-3.28c5.09-7.22,5.36-7.49,13.68-11.14c2.47-1.08,4.73-2.38,6.1-4.83
		c6.84-3.65,18.16-2.48,23.87,2.54c0.73,0.64,2.51,1.27,1.09,2.63c-4.16,3.97-7.57,9.39-13.75,10.15
		c-6.13,0.76-11.38,3.38-16.78,5.89c-3.02,1.4-6.18,3.16-9.46,2.47c-3.2-0.67-5.49-0.29-7.36,2.35c-1.87,2.64,0.07,4.54,1.12,6.78
		c3.06,6.49,3.15,7.77-2.89,10.77c-3.48,1.72-6.64,3.43-10.74,3.04c-3.29-0.31-6.57,0.51-10.62,2.04
		c6.75,1.65,10.36,5.44,12.23,11.01c0.73,2.18,1.49,4.35,2.24,6.53c-0.41,8.79-1.26,17.49-5.37,25.48
		c-1.77,3.45-3.01,6.93-1.48,10.81c-4.12,7.7-10.92,6.78-17.94,5.14c3.45,11.99,14.3,15.97,24.16,9.3
		c6.63-4.49,10.55-10.77,12.6-18.37c4.22-8.33,5.75-17.15,4.91-26.42c1-5.08,0.01-10.02-2.02-14.56c-1.65-3.68,1.68-4.75,2.79-6.86
		c1.13-2.15,3.17-0.79,4.82-0.01c8.19,3.88,11.11,2.13,11.6-6.97c5.87-3.58,11.88-6.99,15.96-12.79c4.02-1.77,8.04-3.54,12.06-5.3
		c2.18,0.55,4.36,0.24,6.54-0.03c1.37,0.49,2.74,1,4.12,1.47c4.44,1.49,5.4-0.35,4.11-4.31l-0.02-0.09c3.47,0.54,4.81-0.6,3.12-4.03
		c-1.02-2.07-1.9-4.27-3.25-6.12c-4.02-5.53-8.1-10.76-16.32-9.94c-3.66,0.37-6.82-2.52-9.57-4.8c-1.57-1.3,2.17-2.57,1.17-4.54
		c-0.21-0.41-0.12-0.97-0.17-1.47c9.41-4.96,18.78-8.09,28.74-1.06c4.74,3.35,10.09,5.54,15.98,6.36
		c17.03,2.37,29.78,11.72,39.76,25.17c3.39,4.57,6.6,7.55,13.08,8.02c9.59,0.69,15.53,8.04,20.59,15.68
		c2.94,5.94,8.09,10.03,12.37,14.86c0.17,0.19,0.63,0.11,0.95,0.16c4.98,5.65,6.3,13.73,12.51,18.64c1.9,1.5,0.02,4.05,0.38,6.1
		c-0.39,3.16-0.75,6.36,0.65,9.35c4.31,9.19,0.27,17.1-3.72,25.03c-0.44,0.88-0.96,1.86-1.72,2.43c-1.62,1.21-0.92,4.78-3.24,4.41
		c-2.49-0.4-0.41-3.11-0.92-4.74c-1.03-3.29-5.9-5.25-9.58-3.63c-3.44,1.52-5.3,4.29-6.46,7.79c-0.42,1.27-1.02,3.21-2.95,2.77
		c-2.22-0.5-1.83-2.37-1.51-4.07c0.92-4.9,1.82-9.81,2.67-14.73c2.28-13.12-0.59-19.81-11.77-26.74
		c-6.2-3.84-10.46-9.71-15.69-14.56c-3.07-2.84-1.84-5.33,2.4-6.11c2.12-0.39,1.71-1.35,0.59-2.72c-2.01-2.45-1.92-2.52-2.45-5.38
		c6.24,1.9,12.81,2.5,17.04,8.55c1.24-5.42-9.22-22.44-14.28-23.88c-0.56,1.35,0.5,2.16,1.09,3.06c0.98,1.48,3.95,2.72,1.3,4.71
		c-2.08,1.56-2.94-1.08-4.17-2.3c-1.02-1.01-1.54-3.57-3.68-2.14c-1.83,1.22-4.23,2.41-3.65,5.38c0.12,0.65,0.47,1.24,0.65,1.88
		c0.29,1.05,0.17,2-0.92,2.54c-0.88,0.43-1.65,0.03-2.23-0.6c-2.87-3.11-5.87-3.9-9.68-1.35c-1.8,1.2-3.54-0.18-4.65-1.78
		c-1.89-2.73-3.68-5.54-5.48-8.34c-3.07-4.79-6.94-8.5-12.73-9.7c-0.94-0.2-1.96-0.7-2.67,0.42c-0.59,0.93,0.3,1.5,0.61,2.21
		c0.93,2.12,1.82,4.26,2.62,6.15c-9.11,4.04-18.22,7.51-28.52,6.46c0.63,3.05,2.13,4.2,4.11,4.85c1.01,0.33,2.11,0.55,1.85-1.13
		c-0.67-4.41,2.53-3.19,4.46-2.77c4.05,0.87,6.69,3.52,7.62,7.67c0.57,2.56,0.7,5.23-1.9,6.64c-3.46,1.88-7.08,4.05-11.2,1.44
		c-2.76-1.75-5.98-1.95-9.02-2.75c-1.2-0.31-2.94-0.78-3.02,1.3c-0.06,1.53,1.16,2.34,2.66,2.42c1.66,0.1,3.33,0.04,4.99,0.12
		c0.75,0.04,1.86-0.33,2.01,0.82c0.14,1.11-0.69,1.77-1.66,2.19c-2.06,0.91-4.19-0.71-6.82,0.08c5.09,3.82,12.76,4.99,11.62,13.81
		c-4.23-2.62-9.15-3.94-10.53-9.4c-0.11-0.45-0.44-1.06-0.81-1.18c-5.97-2.08-12.16-1.74-18.28-1.19c-4.22,0.37-4.95,4.36-7.04,7.54
		c2.58,1.05,4.83,0.21,7.03,0.19c4.03-0.04,4.62,1.59,1.91,5.12c6.57-1.57,9.84,1.62,11.74,6.91c1.05,2.94,2.56,5.35,5.94,6.07
		c1.34,0.29,2.53,1.12,2.13,2.82c-0.4,1.69-1.13,2.31-3.18,1.72c-1.67-0.48-7.63,5.86-7.77,7.64c-0.1,1.26,0.65,1.7,1.68,2.07
		c1.6,0.57,2.57-0.03,3.19-1.45c1.67-3.78,4.29-6.24,8.97-6.15c0.92,2.75-1.15,5.09-1.71,7.7c-0.63,2.94-1.31,5.89,4.29,3.19
		c-2.35,5.57-0.5,10.28-0.44,15.03c0.02,1.76,1.08,2.7,2.61,3.23c10.88,8.44,22.35,15.92,35.12,21.23c0.69,0.44,1.38,0.86,2.07,1.31
		c1.83,1.19,2.9,2.69,5.48-0.11c1.88-2.03,6.36-4.43,9.62-0.17c-2.23,1.14-5.39,0.61-6.7,3.7c2.55,1.97,5.37,1.65,8.03,0.81
		c4.44-1.39,8.99-2.08,13.56-2.76c2.2-0.65,2.94-2.29,3.07-4.57c-3.78-0.41-7.83-0.19-10.51-3.29c-2.71-3.12-5.91-3.82-9.71-3.01
		c-5.52,0.25-9.37-3.59-14.1-5.45c7.72-3.12,15.24-4.79,23.24-1.56c2.62,1.05,5.32,2.87,8.49,1.95c5.58,1.48,4.34,6,4.3,10.06
		c7.08-1.78,10.01-7.32,12.79-13.08c0.77-1.59,0.93-4.63,3.75-3.6c2.63,0.96,1.45,3.38,0.71,5.16c-1.41,3.38,1.12,3.95,3.24,4.88
		c-0.12,2.15,0.8,3.77,2.61,4.89c1.67,1.03,1.6,2.19,0.38,3.51c-7.7,0.88-11.09,6.59-14.18,12.64c-0.42,0.81-0.77,1.85,0.18,2.05
		c5.2,1.11,4.57,6.85,7.79,9.59c1.72,1.46,1.95,3.84,0.34,5.88c-1.56,1.99-3.27,0.92-4.9,0.09c-5.25-2.69-9.62,0.64-14.26,2.07
		c0,0,0.04,0.03,0.04,0.03C523.7,242.46,523.81,241.6,522.85,241.19z M560.31,169.24c3.09-6.97,3.09-12.54,0.55-20.56
		c-1.29-4.08-4.13-5.64-7.88-4.31c-2.7,0.96-4.66,5.91-2.5,8.55C554.35,157.67,557.39,162.86,560.31,169.24z M568.33,151.75
		c-2.12,1.51-4.14,2.65-3.53,5c1.35,5.27-0.36,9.81-2.76,14.3c-0.79,1.47-1.45,2.89,0.88,3.88c2.02,0.86,2.91,0.06,4.08-1.48
		c1.81-2.4,0.15-5.46,1.38-7.5C571.27,161.13,569.71,156.69,568.33,151.75z M368.36,129.12c-0.69,6.03-2.13,11.94-3.41,17.88
		c-0.22,1.01-0.61,2,0.75,2.35c0.97,0.25,1.4-0.54,1.8-1.29C370.75,141.91,370.22,135.58,368.36,129.12z M459.54,100.83
		c-2.73-2.37-5.11-2.75-7.29-3.39c-0.94-0.27-2.63-0.51-2.91,0.99c-0.27,1.43,0.86,2.6,2.24,2.68
		C453.83,101.25,456.1,100.98,459.54,100.83z M358.58,132.88c-1.04-1.84-1.81-4.45-4.47-5.52c-0.62-0.25-1.32,0.6-1.07,1.24
		c0.95,2.41,1.76,5.05,4.29,6.28C358.23,135.32,358.64,134.29,358.58,132.88z M387.69,183.97c-0.91-2.6-2.41-3.28-4.36-3.07
		c-0.65,0.07-1.28,0.71-0.98,1.38C383.4,184.66,385.56,183.74,387.69,183.97z M437.62,200.81c-0.89-0.44-1.83-1.27-2.79-1.29
		c-1.58-0.03-2.15,1.4-1.99,2.72c0.17,1.46,1.5,0.78,2.31,0.71C436.26,202.86,437.38,202.53,437.62,200.81z"/>
	<path class="st2" d="M520.92,199.1c-3.17,0.92-5.88-0.89-8.49-1.95c-8-3.22-15.52-1.56-23.24,1.56c4.73,1.87,8.58,5.7,14.11,5.45
		c1.07,2.88-0.44,3.95-3,4.13c-4.32,0.29-8.25,1.7-11.9,3.96c-12.78-5.32-24.25-12.79-35.12-21.23c1.14-2.58,2.02-5.3,3.87-7.51
		c0.83-1,1.83-2.72,3.11-1.96c4.27,2.54,5.3-1.85,5.04-3.28c-0.7-3.95,1.1-7.98-0.54-11.68c-0.9-2.03-0.49-3.2,0.73-4.87
		c3.7-5.03,3.06-10.46-1.51-14.52c-2.53-2.25-3.21-5.41-4.2-8.34c-0.81-2.38,1.15-2.77,2.97-2.61c3.19,0.29,4.62-0.85,5.4-4.21
		c0.84-3.65,2.93-7.01,4.5-10.48c0.27-0.6,0.63-1.2,1.1-1.65c1.98-1.92,17.18-1.19,18.73,1.08c1.87,2.76,4.37,4.51,7.3,5.83
		c0.61,0.27,1.33,0.48,1.75,0.95c7.98,9.01,20.14,12.04,28.75,20.19c3.76,3.56,5.26,7.56,3.93,12.53c-1.2,4.49-2.49,8.97-3.83,13.42
		c-0.84,2.78-0.85,5.63-0.52,8.42C530.83,190.74,528.61,195.05,520.92,199.1z"/>
	<path class="st2" d="M464.81,338.84c2.53,9.58-3.02,16.91-6.96,24.66c-1.47,2.89-3.75,5.46-3.1,9.13c1.96-0.24,2.15-1.84,2.75-2.89
		c1.57-2.77,3.74-4.12,6.95-3.69c5.59,0.74,10.47-1.24,15.07-4.11c4.28-2.67,9.05-4.16,13.76-5.79c2.25-0.78,3.55-0.29,3.65,2.3
		c0.11,3.08,1.34,5.6,4.47,8.66c-0.72-4.5-0.82-7.75,1.37-10.48c1.04-1.3,2.1-2.66,4.16-1.83c1.74,0.71,1.94,2.1,1.85,3.68
		c-0.18,3.26-0.66,6.71,4.55,5.82c0.37-0.06,1.15,0.72,1.29,1.23c0.3,1.1-0.38,1.91-1.36,2.37c-1.91,0.9-3.85,1.76-6.06,2.77
		c1.73,0.77,3,0.42,4.26,0.06c4.34-1.25,5.18,1.89,5.85,4.87c0.74,3.29-1.03,5.01-4.18,5.48c-3.15,0.48-6.8-0.43-8.8,3.19
		c-2.32,1.55-0.6,5.56-4.06,6.53c-0.8,0.22-1.74,1.38-1.18,2.42c0.69,1.29,2.01,1.62,3.44,1.15c1.86-0.62,3.63-1.77,5.73-1
		c0.17,2.16,0.41,4.31,0.48,6.47c0.05,1.43-0.55,2.68-2.05,3.07c-2.08,0.55-1.78-1.37-2.38-2.42c-0.7-1.22-0.03-3.05-2.3-4.22
		c-0.56,4.78-1.09,9.27-1.62,13.76c-2.25,0.62-3.47,2.46-4.86,4.09c-9.65-1.5-19.17-3.59-29-4.11c-9.23-0.48-18.51-1.31-27.54-3.68
		c-2.34-0.61-4.27-1.58-4.17-4.13c0.13-3.13-1.16-5.8-1.94-8.67c-2.63-9.69-1.03-19.19,4.53-27.11c6.58-9.38,13.7-18.3,17.7-29.2
		C460.85,332.79,463.07,333.16,464.81,338.84z"/>
	<path class="st4" d="M464.81,338.84c-1.74-5.68-3.96-6.05-9.71-1.61c-2.34,0.73-4.16-0.72-6.14-1.46
		c-6.19-2.33-8.52-1.32-10.51,4.87c-1.22,3.79-2.24,7.64-3.21,11.5c-4.51,17.92-8.55,35.9-6.27,54.59c0.16,1.3,0.09,2.44-1.35,2.75
		c-1.82,0.4-2.8-0.6-3.1-2.35c0.07-2.27,0.3-4.56,0.14-6.81c-0.09-1.24-0.09-3.35-2.53-2.12c-5.21-1.62-11.87,0.93-15.47-5.49
		c-0.58-1.03-2.15-0.44-3.28-0.5c-0.98-0.06-2.5,0.76-2.45-1.29c0.48-0.53,0.96-1.06,1.44-1.59c3.31-0.57,6.48,2.32,9.7,0.73
		c7.71-3.82,7.99-3.86,12.62,2.74c1.01-12.87,3.01-25.29,1.07-37.85c1.91-6.46,0.68-13.04,0.75-19.57c0-0.45,0-0.9,0-1.35
		c0.53-6.71,0.07-13.45,1.03-20.19c0.54-3.77,0.94-7.85-0.44-11.69c-1.42-4.26-4.68-6.16-8.82-7.17
		c-5.66-1.38-11.27-0.08-16.89,0.01c-2.3,0.04-4.44-0.23-4.76-3.16c-0.31-2.85,1.05-4.2,3.83-4.78c5.42-1.13,10.97-0.69,16.38-1.56
		c5.3-0.86,9.42,1.05,13.11,4.55c8.53,8.07,18.75,13.11,29.82,16.64c6.12,1.26,12.1,3.16,18.21-0.79c4.7-3.04,7.95-7.06,8.39-12.3
		c0.53-6.18,3.04-10.24,8.55-12.76c0.79-0.36,1.25-1.47,1.86-2.24c0.51-4.54,3.03-7.58,6.71-10.17c2.67-1.88,4.01-4.85,3.16-8.35
		c0.81-1.54,1.92-1.88,3.67-1.44c8.06,2.05,10.46,0.75,13.48-7c4.81,1.82,6.2,5.65,2.53,9.47c-6.28,6.52-8.77,13.56-6.92,22.61
		c0.91,4.48-2.41,7.51-6.86,8.3c-5.83,1.03-9.83,4.28-13.05,9.05c-4.36,6.46-8.58,13.03-13.71,18.95c-2.37,2.73-2.57,6.42-3.82,9.65
		C478.78,337.88,472.46,341.28,464.81,338.84z M439.64,317.71c0.37-0.72,1.14-1.51,1.03-2.14c-0.77-4.49-4.29-7.26-7.26-10.11
		c-1.56-1.5-2.95,0.72-3,2.49c-0.06,2.13,0.31,4.27,0.5,6.4c-1.8,10.83-1.24,21.66-0.88,32.82c1.77-0.72,2.18-1.58,2.65-2.48
		C437.06,336.23,437.89,326.85,439.64,317.71z"/>
	<path class="st4" d="M495.53,414.13c1.4-1.63,2.62-3.47,4.86-4.09c2.49-0.53,4.93-0.44,5.71-4.17c0.37-1.8,4.16-0.9,6.36-1.2
		c1.98-0.26,5.04-2.51,6.04,0.55c1.01,3.08-1.66,5.11-4.35,6.36c-3.1,1.45-6.26,2.76-10.13,4.45c5.75,3.3,13.28,4.01,12.79,12.42
		c-1.12,10.63-5.16,20.26-10.11,29.58c-2.32,2.45-5.43,1.13-8.26,2.44c7.23,0.9,14.47,1.81,21.7,2.71c6.28,0.44,12.26,2.4,18.39,3.6
		c0.33,5.09-3.39,5.96-7.08,6.52c-13.13,2-26.39,3.2-39.43,5.84c-5.7,1.15-11.37,2.45-17.04,3.69c-5.27,1.16-9.75,1.2-13.79-3.83
		c-3.5-4.36-9.7-3.85-14.87-4.67c-7.05-1.11-14.19-1.64-21.29-2.49c-1.51-0.18-3.83,0.35-3.91-1.99c-0.07-1.93,2.13-1.92,3.46-2.2
		c20.97-4.33,41.8-9.73,63.52-8.37c0.6,0.04,1.21,0,2.24,0c-4.92-3.75,0.88-5.43,0.93-8.12c4.58-6.71,9.33-13.35,9.56-21.95
		c1.48-1.71,0.97-3.38-0.11-5.03c0,0,0-0.01,0-0.01C501.95,419.32,498.22,416.99,495.53,414.13z"/>
	<path class="st2" d="M538.54,466.79c-6.13-1.21-12.11-3.16-18.4-3.6c-1.08-1.38-2.72-0.91-4.11-1.3c-3.25-0.92-7.03-0.62-9.34-3.85
		c4.95-9.32,8.99-18.95,10.11-29.58c11.02,1.16,22.07,2.13,33.06,3.57c3.52,0.46,6.83-1.5,10.32-0.14c2.49,0.97,4.87,6.21,3.52,8.68
		c-0.57,1.06-1.3,2.02-0.77,3.22c3.14,6.97,0.15,14.06,0.33,21.09c0.11,4.29-6.13,7.26-11.39,5.88
		C547.41,469.58,542.99,468.12,538.54,466.79z"/>
	<path class="st4" d="M220.37,421.23c-8.83-0.4-10.59-2.1-10.28-9.96c3.13,0.01,6.28,0.13,9.41-0.01c3.42-0.16,7-0.13,9.24-3.5
		c4.04-0.31,5.36,2.8,6.72,5.59c3.87,7.9,7.52,15.9,11.4,23.8c2.91,5.94,5.39,12.12,9.97,17.13c2.08,2.28,4.27,3.6,7.4,2.75
		c3.09,6.49,8.34,9.29,15.4,9.01c1.14,0.22,2.3,0.35,3.4,0.67c0.8,0.24,1.54,0.77,1.49,1.75c-0.05,0.91-0.71,1.49-1.53,1.74
		c-7.52,2.28-14.48,5.58-20.77,10.4c-2.54,1.95-3.39-0.94-4.22-2.55c-1.64-3.19-2.54-6.94-6.81-7.82c-1.42-0.79-2.84-1.58-4.26-2.37
		c2.25-9.5-2.32-17.61-5.39-26c-0.85-2.32-1.88-4.85-5.3-3.49c-4.54-0.56-8.06,3.62-12.68,2.73c-0.27-1.1,0.06-2.07,1.06-2.54
		c3-1.39,7.37-0.7,7.97-5.72c0.08-0.7,2.38,1.07,3.6-0.11c-3.26-13.19-6.47-15.62-15.3-11.59
		C220.71,421.1,220.53,421.13,220.37,421.23z"/>
	<path class="st2" d="M167.9,475.17c-2.76-6.43,0.32-13.34,7.11-15.37c2.83-0.84,5.84-1.36,8.79-1.44
		c5.36-0.15,9.86-1.39,12.01-6.94c0.38-0.98,0.99-1.83,2.18-1.63c1.13,0.19,1.41,1.14,1.69,2.17c1.93,7.04,2.83,7.74,10.15,8.24
		c1.33,0.09,2.66,0.08,3.98,0.25c0.81,0.1,2.24,0.4,2.27,0.73c0.53,5.18,5.17,8.25,6.5,12.97c-6.9,3.11-14.2,4.52-21.7,5.1
		c-2.44,0.02-4.88,0.03-7.33,0.05C184.77,479.44,176.12,478.63,167.9,475.17z"/>
	<path class="st4" d="M167.9,475.17c8.22,3.46,16.86,4.28,25.66,4.12c-0.79,2.22-3.45,3.07-3.98,5.52
		c-0.18,0.85-0.99,1.29-1.94,1.07c-2.95-0.68-4.93,0.33-5.78,2.94c-1.19,3.69,1.91,3.9,3.98,4.95c0.29,0.15,0.56,0.35,0.84,0.53
		c1.67,2.33,1.67,2.33,0.31,2.86c-2.92-1.09-5.73-2.54-8.97-2.57c-2.8-0.02-3.58-2.03-4-4.27c-0.3-1.57-0.74-2.98-2.62-3.13
		c-2-0.16-2.5,1.18-2.69,2.83c-0.07,0.63-0.36,1.76-0.56,1.76c-8.14,0.11-8.36,8.65-13.14,12.29c-0.52,0.4-0.99,0.87-1.48,1.31
		c-1.46-0.12-2.83-1.58-4.37-0.27c-2.83-1.18-1.29-3.39-0.95-5.04c1.26-6.18,5.25-10.64,9.96-14.48c3.04-2.48,6.86-4.18,6.96-9
		C165.16,475.15,166.73,475.19,167.9,475.17z"/>
	<path class="st2" d="M548.7,210.9c1.21-1.31,1.29-2.48-0.38-3.51c-1.81-1.11-2.72-2.73-2.61-4.89c2.12-1.16,3.2-3.64,5.64-4.39
		c1.93-0.51,3.86-1.03,5.8-1.54c7.21,9.04,1.36,17.71-1.02,26.32c-0.85,3.06-6.78,4.5-9.06,2.83c-3.2-2.35-2.04-5.26-0.56-7.96
		C547.7,215.6,549.37,213.65,548.7,210.9z"/>
	<path class="st2" d="M422.8,494.25c-1.79,0.83-3.52,1.8-5.37,2.45c-1.94,0.68-4.01,2.35-6.05,0.54c-2.12-1.88-3.06-4.6-2.36-7.25
		c1.14-4.33,2.83-8.51,2.78-13.09c-0.01-0.9,0.49-1.62,1.51-1.58c1.02,0.04,1.21,0.83,1.47,1.68c2.35,7.69,2.37,7.64,10.52,8.22
		c2.47,0.18,4.92,0.73,7.39,1.04c1.9,0.24,3.17,1.06,3.1,3.14c-0.06,1.8-1.18,2.62-2.9,2.79c-2.47,0.24-4.86,0.77-7.09,1.89
		C424.79,494.13,423.79,494.19,422.8,494.25z"/>
	<path class="st2" d="M246.91,467.86c1.42,0.79,2.85,1.58,4.26,2.37c-0.62,2.36,4.75,4.97-0.3,7.14c-2.22-0.65-4.13-1.84-6.02-3.15
		c-1.47-1.02-3.68-2.16-4.81-0.3c-1.02,1.68,1.13,2.85,2.5,3.7c1.78,1.1,3.88,1.75,5.04,3.69c-3.84,3.41-9.3,1.95-13.49,4.47
		c-1,0.6-2.09-0.62-2.73-1.68c-2.42-4.01,0.11-10.88,4.63-12.43c-0.66-2.22-4.22-1.55-4.3-4.31c3.22-0.9,6.47-1.54,9.83-1.21
		C243.32,466.73,245.12,467.3,246.91,467.86z"/>
	<path class="st2" d="M186.99,497.16c1.36-0.53,1.36-0.53-0.31-2.86c0.18-1.25-0.11-2.86,1.78-2.99c4.16-0.29,8.26-1.83,12.48-0.87
		c0.24,3.02-5.05,2.25-3.65,5.55c0.71,1.68,2.86,1.19,4.47,1.27c0.3,0.14,0.6,0.29,0.89,0.43c0.35,1.7,1.98,3.53,0.46,5.09
		c-1.64,1.68-2.84-0.26-4.14-1.15c-1.52-1.05-2.8,0.09-4.12,0.68c-3.91,1.76-6.62-0.19-8.99-2.99
		C184.61,497.83,185.75,497.43,186.99,497.16z"/>
	<path class="st4" d="M378.44,500.87c-0.86,1.79-2.46,1.22-3.87,1.22c-2.54-1.45-4.71-3.47-7.85-4.01
		c-2.71-0.46-2.61-2.32-0.61-3.76c2.87-2.06,6.19-3.26,9.7-3.38c4.97-0.16,9.55,2.14,15.44,1.62
		C386.93,497.03,379.65,494.02,378.44,500.87z"/>
	<path class="st4" d="M241.52,466.16c-3.37-0.34-6.62,0.31-9.83,1.21c-1.25-0.13-2.49-0.26-3.74-0.4c-0.69-3.9-3.37-7.56,3.01-10.4
		c4.69-2.09,4.07-3.48,6.36,2.4c0.4,1.03,0.35,2.47,1.94,2.4C243.88,461.19,242.4,463.8,241.52,466.16z"/>
	<path class="st4" d="M200.89,479.24c7.5-0.58,14.8-1.99,21.7-5.1c1.01,0.15,2.02,0.29,3.03,0.44c0.27,1.47-0.8,3.67,2.04,3.75
		c-0.41,3.74-2.68,5.44-6.07,4.15c-4.34-1.65-8.33-0.91-12.5,0.25C205.54,483.73,202.12,483.92,200.89,479.24z"/>
	<path class="st2" d="M240.7,498.83c-2.19,2.16-4.41,3.66-7.09,0.64c-1.32-1.49-2.27-0.8-2.97,0.65c-0.64,1.32-1.71,1.94-3.1,2.16
		c-1.53-4.21-0.68-8.55-0.75-12.85c3.84,0.85,7.71,1.58,11.5,2.59c1.83,0.48,3.11,1.83,3.47,3.83
		C241.42,496.85,241.06,497.84,240.7,498.83z"/>
	<path class="st4" d="M376.95,447.66c0.57-0.78,1.19-1.48,2.29-1.39c4.43,2.4,9.16,2.32,13.92,1.51c2.22-0.38,4.15-2.16,6.62-1.45
		c0.38,1.11,0.76,2.22,1.14,3.32c-1.56,2.94-2.78,6.34-7.25,5.27c-2.71-4.06-5.46-7.27-9.84-1.54c-0.6,0.79-2.43,0.63-3.68,0.92
		C378.58,452.34,379.21,449.3,376.95,447.66z"/>
	<path class="st4" d="M508.25,393.38c-2.1-0.77-3.87,0.38-5.73,1c-1.43,0.48-2.75,0.15-3.44-1.15c-0.56-1.04,0.38-2.2,1.18-2.42
		c3.46-0.97,1.74-4.99,4.06-6.53c2.43,1.63,5.03,0.47,8.04,0.11C510.38,387.48,511.19,391.21,508.25,393.38z"/>
	<path class="st4" d="M350.28,502.2c-0.96-2.69-1.55-5.42-1.03-8.29c0.3-1.63,1.11-2.71,2.94-2.79c1.92-0.08,3.34,0.62,3.58,2.61
		c0.33,2.79,0.43,5.6,0.63,8.41C354.36,502.15,352.32,502.17,350.28,502.2z"/>
	<path class="st4" d="M247.58,481.32c-1.16-1.95-3.26-2.59-5.04-3.69c-1.37-0.85-3.52-2.02-2.5-3.7c1.14-1.86,3.34-0.72,4.81,0.3
		c1.9,1.31,3.81,2.5,6.02,3.15c0.72,0.35,1.45,0.71,2.18,1.04c1.72,0.78,1.1,1.87,0.73,3.24c-0.57,2.12-1.83,0.72-2.7,0.69
		C249.88,482.31,249.15,480.38,247.58,481.32z"/>
	<path class="st2" d="M380.16,454.31c1.26-0.28,3.08-0.13,3.68-0.92c4.38-5.72,7.13-2.52,9.84,1.54
		C389.06,457.14,384.47,458.62,380.16,454.31z"/>
	<path class="st4" d="M249.64,491.88c3.64-1.16,5.55-5.3,9.29-2.9c1.48,0.95,1.76,3.75,0.33,4.94
		C255.84,496.77,253.25,493.64,249.64,491.88z"/>
	<path class="st2" d="M350.28,502.2c2.04-0.02,4.08-0.04,6.12-0.07c2.35,0.33,3.76,1.37,3,4.02c-3.15,0.25-6.51,3.12-9.34-0.71
		C349.81,504.34,349.61,503.24,350.28,502.2z"/>
	<path class="st4" d="M333.91,504.17c-5.86,1.36-11.81,0.81-17.74,0.67C322.03,503.33,327.93,502.98,333.91,504.17z"/>
	<path class="st2" d="M227.66,478.33c-2.84-0.08-1.77-2.28-2.04-3.75c0.56-2.4-1.27-5.46,1.94-7.14
		C229.82,471.05,229.59,474.68,227.66,478.33z"/>
	<path class="st4" d="M422.8,494.25c1-0.06,1.99-0.12,2.99-0.18c1.28,0.61,3.75-0.75,3.77,1.84c0.01,1.77-1.83,2.03-3.27,2.28
		C423.02,498.76,423.14,496.28,422.8,494.25z"/>
	<path class="st4" d="M557.15,196.59c-1.93,0.51-3.87,1.03-5.8,1.54c-0.83-2.12,0.19-3.15,2.16-3.49c1.57-0.26,3.17-0.37,4.79-0.55
		C558.66,195.2,557.61,195.77,557.15,196.59z"/>
	<path class="st3" d="M495.53,414.13c2.69,2.87,6.42,5.19,5.19,10.08c-12.15-1.74-24.06-4.68-36.04-7.24
		c-5.49-1.18-11.13,1.24-16.73-0.56c-1.57-0.51-3.33,0.99-3.69,3.34c-6.05-8.27-6.05-8.3-15.83-5.95c-2.16,0.52-4.27,0.62-6.39-0.03
		c-19.89-6.12-40.34-9.51-60.87-12.43c-3.92-0.56-7.42-3.6-12-1.39c-1.42,0.69-2.86-3.1-5.01-4.26c-9.75-5.23-20.2-7.33-31.11-7.42
		c-4.85-0.04-8.86-1.27-11.45-5.6c-1.13-1.9-1.52-3.66,1.05-4.94c2.73-1.36,3.31-4.9,6.25-6.27c1.51-0.7,0.75-2.32,0.04-3.5
		c-1.28-2.16-2.87-4.07-4.77-5.74c-1.36-1.19-2.29-2.75-0.57-4.24c2.9-2.51,2.58-5.72,1.83-8.77c-0.6-2.45-0.42-4.83,0.5-6.82
		c2.25-4.83,3.75-9.86,5.25-15.01c0.13,9.03-1.58,18.02-0.04,28.5c6.83-15.8,4.79-31.46,7.23-46.45
		c-0.05,14.6,1.56,29.26-1.51,43.76c-0.65,3.04-0.27,4.74,3.41,5.58c3.12,0.71,5.89,2.98,8.8,4.56c1.13,2.02,2.8,3.99,0.44,6.26
		c-1.48-0.21-3.4-2.63-4.19-0.63c-0.74,1.86,0.77,4.03,3.65,3.56c0.82,2.04,2.79,4.07,4.29,2.18c3.24-4.08,8.84-6.52,9.38-12.59
		c0,0-0.07,0.06-0.07,0.06c3.71-0.19,7.21,0.83,10.69,1.92c3.42,1.06,2.97,3.06,1.08,5.2c-1.98,2.24-4.69,2.1-7.37,2.12
		c-2.54,0.02-4.79,0.65-4.41,3.9c0.32,2.78,0.21,5.46-0.59,8.16c-0.36,1.21,0.12,2.84,1.45,2.52c2.19-0.52,4.23-1.72,6.27-2.77
		c2.12-1.09,0.73-2.29,0.1-3.63c-0.74-1.59,0.9-1.82,1.83-2.34c2.6-1.45,5.3-2.73,7.79-4.35c1.18-0.77,1.97-2.14,2.94-3.24
		c-3.22-2.64,1.39-3.46,1.25-5.39c0.38-0.43,0.77-0.86,1.15-1.3c2.36,0.62,4.11-0.4,5.34-2.25c1.23-1.86,0.3-2.6-1.67-2.47
		c-0.01-3.28-2.9-3.73-4.93-5.02c-1.04-2.51-2.6-4.91-0.77-8.7c-4.22,2.83-6.68,6.23-10.86,6.73c1.63-2.69,3.23-5.4,4.93-8.05
		c0.43-0.66,1.25-1.67,1.76-1.59c5.39,0.78,7.54-3.6,11.06-6.17c4.69-3.43,11.12-4.24,15.2-9.02c0.25-0.29,1.4-0.21,1.82,0.1
		c1.04,0.77,0.42,1.83,0.04,2.7c-2.76,6.28-3.9,13.05-5.85,19.57c-0.45,1.49-1.81,3.28,0.7,4.13c2.23,0.75,4.11-0.21,4.85-2.35
		c1.08-3.13,1.97-6.37,2.58-9.62c1.48-7.92,2.76-15.88,4.32-24.98c-7.67,8.53-16.16,10.51-26.05,9.33c0.92-3.17,3.11-2.88,5.02-3.01
		c13.64-0.9,18.48-5.2,20.44-18.41c0.26-1.75,0.87-3.16,2.06-4.41c0.87-0.91,1.43-1.96,0.42-3.07c-0.52-0.57-1.31-1.29-1.97-1.29
		c-1.59,0.02-1.38,1.54-1.69,2.61c-1.48,5.1-2.42,10.36-4.7,15.23c-1.11,2.38-2.28,4.11-5.27,2.6c-1.61-0.82-2.79,0.47-4.14,1.04
		c-6.48,2.72-12.25,1.65-17.37-3.27c0.92-1.83,2.43-0.79,3.58-1.01c1.93-0.37,2.74-1.48,1.88-3.16c-1-1.95-1.87-3.6-1.17-6.04
		c0.46-1.6-1.29-2.03-2.77-1.38c-1.87,0.81-3.31,2.18-4.69,3.66c-0.73,0.78-1.47,2.23-2.77,0.95c-0.91-0.9-0.91-2.61-0.03-3.2
		c9.14-6.14,13.83-18,25.81-20.38c4.54-0.9,9.22-1.21,13.85-1.48c4.35-0.25,8.03-1.49,11.14-4.73c5.71-5.93,10.94-6.75,16.61-0.65
		c10.27,11.05,24.94,15.85,35.44,26.4c1.31,1.32,2.88,2.26,2.81,4.38c-11.06-3.53-21.29-8.57-29.81-16.64
		c-3.69-3.49-7.81-5.4-13.11-4.55c-5.41,0.87-10.96,0.44-16.38,1.56c-2.78,0.58-4.14,1.93-3.83,4.78c0.32,2.93,2.46,3.2,4.76,3.16
		c5.63-0.1,11.24-1.39,16.89-0.01c4.14,1.01,7.4,2.91,8.82,7.17c-2.04,1.26-4.09,2.79-5.01-1.14c-0.35-1.5-1.53-2.04-3.06-1.95
		c-1.68,0.1-2.18,1.13-2.45,2.6c-0.29,1.55-0.82,3.06-1.24,4.59c-0.41-1.26-0.38-2.42-0.41-3.58c-0.05-1.84,0.06-3.82-2.35-4.35
		c-2.33-0.51-4.41,0.05-5.59,2.24c-1.02,1.89-1.62,4.01-2.59,5.93c-1,1.98-0.78,4.71-3.78,6.17c1.23-3.44,2.32-6.37,3.32-9.34
		c0.78-2.31,2.35-5.04-1.51-6.01c-3.54-0.89-4.68,1.48-5.12,4.46c-0.54,3.61-1.51,7.2-1.59,10.82c-0.09,4.19-4.83,8.8,0.8,12.7
		c0.23,0.16-0.17,1.63-0.61,2.25c-3.65,5.24-3.9,11.56-5.63,17.41c-0.6,2.04-1.06,4.17,1.53,5c2.62,0.84,3.98-0.91,4.85-3.12
		c1.53-3.87,3.32-7.66,4.48-11.63c0.78-2.67,4.47-1.32,4.76-4.12c1.6,0.2,1.69,2.22,2.05,2.88c1.69,3.1,3.69,2.24,6.17,1.81
		c4.1-0.71,7.83-4.34,12.39-1.73c0,0.45,0,0.9,0,1.35c-4.09,0.69-8.15,1.56-12.26,2.03c-4.91,0.56-8.76,2.74-11.88,6.49
		c-7.83,9.38-13.06,20.32-18.65,31.04c-0.52,1-0.87,2.23-0.86,3.35c0.03,3.71-1.22,6.71-3.91,9.33c-2.18,2.12-1.64,5.08-0.93,7.56
		c0.74,2.59,3.34,2.77,5.72,3.1c7.27,1.02,12.21-3.2,17.2-7.37c-0.05,2.06,1.48,1.24,2.45,1.29c1.13,0.07,2.71-0.53,3.28,0.5
		c3.59,6.42,10.25,3.87,15.46,5.49c-1.91,3.71-2.85,7.15,2.4,8.93c0.29,1.76,1.27,2.75,3.1,2.35c1.44-0.31,1.51-1.45,1.35-2.75
		c-2.28-18.7,1.76-36.68,6.27-54.59c0.97-3.86,1.99-7.72,3.21-11.5c1.99-6.19,4.32-7.2,10.51-4.87c1.98,0.74,3.81,2.19,6.14,1.46
		c-3.99,10.9-11.11,19.82-17.7,29.2c-5.56,7.92-7.16,17.42-4.53,27.11c0.78,2.87,2.07,5.53,1.94,8.67c-0.1,2.55,1.83,3.52,4.17,4.13
		c9.04,2.38,18.31,3.2,27.54,3.68C476.36,410.53,485.89,412.63,495.53,414.13z M379.15,374.54c0.98-3.13,3.55-6.04,1.75-9.54
		c-5.95,3.3-8.93,8.43-10.06,14.67c-0.29,1.61-0.95,4.02,1.73,4.42c2.16,0.32,2.58-1.69,3.05-3.27c0.23-0.78,0.22-1.64,0.32-2.46
		c1.8,1.46,3.64,0.99,4.79-0.57C381.83,376.32,381.03,374.98,379.15,374.54z M386.8,294.47c2.33,0.57,3.66-0.17,3.96-2.5
		c0.24-1.88-0.61-2.93-2.45-2.82c-2.04,0.11-4.82-0.56-5.38,2.25C382.33,294.37,385.16,293.99,386.8,294.47z"/>
	<path class="st1" d="M426.55,52.17c0.05,0.49-0.04,1.06,0.17,1.47c1,1.97-2.74,3.24-1.17,4.54c2.76,2.28,5.91,5.17,9.57,4.8
		c8.23-0.82,12.3,4.41,16.32,9.94c1.35,1.85,2.23,4.05,3.25,6.12c1.69,3.43,0.35,4.57-3.12,4.03c-3.57-5.26-9.94-6.25-14.96-2.55
		c-2.9,2.13-2.53,3.78,0.21,5.52c-4.02,1.77-8.04,3.54-12.06,5.3c-1.39-2.49-3.39-3.46-6.06-2.14c-2.43,1.2-4.77,2.6-7.15,3.91
		c0.12-1.98-1.11-3.08-2.56-4.39c-0.89,2.16-1.65,3.97-2.4,5.78c-1.96,0.22-2.79,2.42-5.14,3.21c0.42-1.33,0.71-2.08,0.89-2.86
		c0.45-1.89,1.47-4.12-0.73-5.38c-2.32-1.32-3.67,0.77-4.83,2.33c-3.38,4.5-7.22,8.7-9.7,13.82c-0.49,1.01-2.06,2.34-0.35,3.39
		c1.1,0.67,2.6,0.29,3.79-0.45c1.36-0.84,1.85-2.19,2.35-3.66c0.9-2.67,2.8-4.08,5.64-4.99c4.9-1.57,7.28,1.84,10.28,4.23
		c-0.49,9.1-3.41,10.85-11.6,6.97c-1.64-0.78-3.69-2.14-4.82,0.01c-1.11,2.11-4.44,3.19-2.79,6.86c2.04,4.54,3.02,9.48,2.02,14.56
		c-1.47-0.95-2.08-3.54-4.21-2.99c-2.64,0.68-1.51,3.28-1.84,5.1c-1.28,6.99-2.61,13.97-3.77,20.97c-0.41,2.46-3.95,5.26-1.25,7.09
		c2.74,1.86,3.85-2.76,6.17-3.75c-2.05,7.6-5.97,13.88-12.6,18.37c-9.86,6.67-20.71,2.69-24.16-9.3c7.01,1.64,13.81,2.56,17.94-5.14
		c1.86,1.28,4.25,3.69,5.77,0.52c4.06-8.47,9.01-16.72,9.06-26.6c0.04-8.11,0.05-8.11-7.97-10.21c-0.75-2.18-1.51-4.35-2.24-6.53
		c-1.87-5.57-5.48-9.36-12.23-11.01c4.05-1.53,7.33-2.35,10.62-2.04c4.1,0.39,7.27-1.32,10.74-3.04c6.05-3,5.95-4.28,2.89-10.77
		c-1.06-2.24-2.99-4.14-1.12-6.78c1.87-2.63,4.16-3.02,7.36-2.35c3.28,0.69,6.44-1.07,9.46-2.47c5.4-2.51,10.65-5.13,16.78-5.89
		c6.19-0.77,9.6-6.18,13.75-10.15c1.42-1.36-0.36-1.99-1.09-2.63c-5.71-5.02-17.03-6.2-23.87-2.54c-0.21-2.1,0.78-3.43,2.71-4.06
		C414.39,54.39,420.32,52.61,426.55,52.17z M386.92,92.81c2.11,0.45,3.76,0.52,4.62-1.36c0.36-0.78,0.01-1.8-1-1.88
		C388.56,89.41,387.64,90.72,386.92,92.81z"/>
	<path class="st1" d="M264.23,457.03c-3.13,0.84-5.32-0.48-7.4-2.75c-4.57-5.01-7.05-11.2-9.97-17.13c-3.88-7.9-7.53-15.9-11.4-23.8
		c-1.37-2.79-2.68-5.9-6.72-5.59c-2.82-3.85-4.74-8.19-6.9-12.4c2.38-3.65,0.26-6.01-2.36-8.23c4.29-4.1,5.19-4.09,7.92,0.95
		c5.52,10.2,9.81,21.44,18.44,29.33c7.5,6.85,11.17,15.4,14.9,24.18C262.82,446.48,263.07,451.87,264.23,457.03z"/>
	<path class="st4" d="M363.62,364.27c0.14,1.93-4.48,2.75-1.25,5.39c-0.97,1.1-1.75,2.47-2.94,3.24c-2.49,1.62-5.19,2.9-7.79,4.35
		c-0.93,0.52-2.57,0.75-1.83,2.34c0.62,1.34,2.02,2.54-0.1,3.63c-2.04,1.05-4.08,2.25-6.27,2.77c-1.33,0.32-1.81-1.31-1.45-2.52
		c0.81-2.69,0.91-5.38,0.59-8.16c-0.38-3.26,1.88-3.88,4.41-3.9c2.68-0.02,5.39,0.12,7.37-2.12c1.89-2.14,2.34-4.14-1.08-5.2
		c-3.48-1.08-6.98-2.11-10.69-1.92c0.39-3.24,4.23-3.96,5.03-6.9c2.22,0.06,6.24,2.41,4.01-3.16c0.06-0.29,0.14-0.57,0.25-0.85
		c4.18-0.49,6.64-3.89,10.86-6.73c-1.83,3.79-0.27,6.19,0.78,8.7c-0.19,0-0.36,0.06-0.5,0.18c-2.48-0.7-5.06-2.14-6.93,1.07
		c-1.92,3.3,2.28,2.35,2.76,3.97C357.73,362.62,361.48,362.79,363.62,364.27z"/>
	<path class="st3" d="M506.63,260.06c0.86,3.51-0.49,6.47-3.16,8.35c-3.68,2.59-6.2,5.63-6.71,10.17c0.64-4.39-1.28-5.89-5.59-5.42
		c-2.77,0.3-5.62-0.06-8.43-0.14c-1.7-0.05-3.5-0.14-3.88-2.25c-0.4-2.19,1.58-2.58,2.94-3.43c4.94-3.06,10.56-3.31,16.07-4.19
		C500.92,262.68,504.14,262.3,506.63,260.06z M496.81,269.5c-2.21,0.52-4.73-1.52-6.72,0.83c-0.16,0.19,0.07,1.1,0.33,1.22
		C492.92,272.73,495.06,272.13,496.81,269.5z"/>
	<path class="st1" d="M339.75,349.94c4.85,3,4.84,3.63-0.14,9.67c-5.92,1.39-3.53-4.39-5.33-6.86c-1.43,3.6-1.56,7.13-3.57,9.98
		c-2.77-6.55-0.89-12.33,2.25-18.33c2.45-4.69,2.22-10.26,2.75-15.51c0.16-1.58-0.44-3.33,1.2-4.81c2.22,6.2,1.92,12.49,1.79,18.75
		c-2.8,3.66-1.66,7.62-0.64,11.63C338.62,352.96,339.18,351.45,339.75,349.94z"/>
	<path class="st4" d="M330.71,362.73c2.01-2.86,2.14-6.39,3.57-9.98c1.8,2.47-0.58,8.25,5.33,6.86c0.15,1.42-1.62,2.55-0.62,4.12
		c1.58,0.29,1.83-2.5,3.67-1.63c-0.54,6.07-6.14,8.51-9.38,12.59c-1.5,1.89-3.46-0.14-4.29-2.17c0.18-0.97,0.36-1.96,0.54-2.94
		c2.36-2.26,0.69-4.24-0.44-6.26C329.63,363.13,330.17,362.93,330.71,362.73z"/>
	<path class="st1" d="M408.48,179.41c1.69-0.56,2.64-2.25,4.57-2.66c2.9-0.62,4.57-0.52,3.79,3.15c-0.62,2.88,0.79,5.18,2.91,6.87
		c1.64,1.3,2.25,2.67,1.7,4.62c-5.16-1.62-10.51-0.97-15.78-1.33c2.47-2.04,5.65,0.09,8.68-1.42c-3.19-2.75-5.34-7.32-10.33-3.14
		c-1.6,1.35-3.06,0.53-4.48-0.41C401.73,181.95,406.46,182.82,408.48,179.41z"/>
	<path class="st1" d="M435.61,208.22c4.51-7.51,9.49-9.46,15.49-6.06c-2.88,2.26-6.55,3.24-8.81,6.66
		C440.42,211.66,437.95,207.83,435.61,208.22z"/>
	<path class="st3" d="M334.79,181.8c-0.07,2.84-0.14,5.69-0.22,8.53c-2.98-1.01-5.94-2.1-8.96-2.98c-1.28-0.37-2.8-0.24-2.77-2.13
		c0.03-1.93,1.56-2.47,3.03-2.75C328.82,181.89,331.88,182.84,334.79,181.8z"/>
	<path class="st4" d="M219.47,387.12c2.62,2.22,4.75,4.58,2.36,8.23c-2.07,0.12-3.47,1.63-5.14,2.55c-1.64,0.89-2.42,3.56-5.05,2.4
		c0.62-1.42,1.25-2.84,1.87-4.26c3.51-1.84,2.16-6.75,5.49-8.71C219.19,387.32,219.35,387.25,219.47,387.12z"/>
	<path class="st1" d="M365.47,211.33c0.58-0.56,1.15-1.11,1.73-1.67c2.83,3.66,7.95,0.23,10.9,3.51c-2.84,0.72-2.72,4.36-5.6,5.38
		c-2.76,0.99-4.89,0.34-4.39-2.16C368.71,213.4,366,213.14,365.47,211.33z"/>
	<path class="st4" d="M399.54,185.1c1.42,0.93,2.87,1.75,4.48,0.41c4.99-4.18,7.13,0.39,10.33,3.14c-3.03,1.51-6.21-0.61-8.68,1.42
		c-3.14,0.71-5.05-1.49-7.05-3.19C397.35,185.82,398.58,185.37,399.54,185.1z"/>
	<path class="st1" d="M558.02,121.36c-0.32-0.05-0.79,0.03-0.95-0.16c-4.27-4.83-9.43-8.92-12.37-14.86
		C552.9,108.02,555.68,114.5,558.02,121.36z"/>
	<path class="st3" d="M261.01,236.48c1.96-6.25,3.91-12.5,5.89-18.75c0.26-0.81,0.71-1.6,1.76-1.2c0.7,0.27,0.86,0.99,0.64,1.66
		c-2.16,6.3-3.65,12.87-6.63,18.85C262.11,236.86,261.56,236.67,261.01,236.48z"/>
	<path class="st1" d="M399.79,446.33c-2.47-0.71-4.4,1.07-6.62,1.45c-4.76,0.81-9.48,0.89-13.92-1.51
		C386.1,443.47,392.95,443.1,399.79,446.33z"/>
	<path class="st3" d="M304.7,309.51c-0.81,6.4,1.14,12.2-1.25,18.17C299.78,321.22,300.1,315.35,304.7,309.51z"/>
	<path class="st4" d="M339.75,349.94c-0.56,1.51-1.13,3.01-1.69,4.52c-1.01-4.01-2.15-7.97,0.64-11.63
		C344.27,344.44,338.91,347.65,339.75,349.94z"/>
	<path class="st3" d="M253.9,236.71c0.06-5.84,2.73-9.55,3.26-14.72C259.02,226.4,258.2,229.9,253.9,236.71z"/>
	<path class="st3" d="M270.68,186.24c3.05,0.2,6.21-0.23,10.15,2.18c-4.49,0.88-7.76,2.03-10.11-2.22
		C270.72,186.2,270.68,186.24,270.68,186.24z"/>
	<path class="st3" d="M301.46,259.94c-0.25,0.96-0.5,2.08-1.47,1.7c-1.57-0.62-2.73-1.92-3.03-3.66c-0.17-1.03,0.65-1.45,1.59-1.32
		C300.51,256.95,301.32,258.25,301.46,259.94z"/>
	<path class="st1" d="M351.64,352.11c2.22,5.57-1.8,3.22-4.01,3.16C347.83,352.78,349.48,352.12,351.64,352.11z"/>
	<path class="st3" d="M391.2,220.5c-3.77-1.55-4.74-3.46-5.39-6.4C388.84,215.19,389.51,217.34,391.2,220.5z"/>
	<path class="st3" d="M500.73,424.22c1.08,1.65,1.59,3.32,0.11,5.03C500.8,427.57,500.76,425.89,500.73,424.22z"/>
	<path class="st1" d="M522.85,241.19c0.95,0.41,0.84,1.27,0.86,2.07C522.74,242.85,522.76,242.04,522.85,241.19z"/>
	<path class="st1" d="M421.59,191.5c0.41,0.26,0.81,0.52,1.22,0.78C422.18,192.36,421.7,192.22,421.59,191.5z"/>
	<path class="st2" d="M83.96,449.94c0.61-4.38-3.14-7.5-2.98-12.64c5.69,4.53,9.71,10.61,18.24,12.3
		c-6.06-7.25-13.57-11.38-17.73-18.66c4.63-1.5,6.63-5.55,8.22-9.51c1.26-3.15,2.66-4.15,5.42-2.23c2.99,2.08,5.9,2.27,9.43,1.34
		c4.58-1.2,9.38-0.49,13.8,0.95c9.46,3.08,19.32,3.07,29,4.4c1.61,0.22,3.01-0.23,4.09-1.37c1.48-1.56,2.87-2.91,5.02-1
		c0.95,0.84,1.89,0.4,2.68-0.29c4.76-4.17,11.19-3.99,16.61-6.42c1.76-0.79,2.93-0.19,3.74,1.29c1.44,2.62,3.27,5.27,1.29,8.36
		c-1.07,1.67-2.29,3.32-3.73,4.68c-9.62,9.05-13.35,20.52-13.24,33.3c0.04,4.98-1.5,7.19-6.47,7.93c-7.78,1.15-15.8,2.89-21.3,8.84
		c-6.26,6.76-14.61,12.38-15.43,22.94c-0.19,2.47-2.06,2.56-3.65,1.55c-15.4-9.73-33.35-15.51-45.9-29.68
		c-1.62-1.82-3.76-3.63-6.01-4.37c-8.28-2.71-10.29-9.43-11.03-16.75c-1.14-11.32-4.22-22.17-7.27-33.04
		c-0.49-1.76-1.47-3.64,0.47-5c2.16-1.52,3.65,0.16,5.21,1.46c6.81,5.67,13.05,11.84,17.9,19.32c0.96,1.48,1.87,3.75,4.03,1.32
		c2.78-3.12,3.94-0.85,4.87,1.46C80.55,443.69,81.18,447.29,83.96,449.94z"/>
	<path class="st2" d="M197.66,385.4c-0.76,2.68,1.04,4.77,1.68,7.12c0.88,3.24,0.33,5.4-2.88,7.43c-7.41,4.71-15.58,6.39-23.83,8.84
		c-9.14,2.71-18.38,3.75-27.52,5.56c-10.46,2.07-21.18,1.35-31.75-0.25c-1.12-0.17-2.19-0.75-3.25-1.21
		c-1.23-0.54-2.49-1.1-2.37-2.8c0.13-1.95,1.68-2.55,3.12-2.62c3.64-0.2,7.32-0.61,10.92,0.3c1.71,0.43,3.49,0.65,4.77-0.53
		c5.82-5.38,12.88-7.45,20.52-8.69c10.96-1.79,21.83-4.14,32.73-6.28c1.01-0.2,2.76,0.27,2.5-1.52c-0.23-1.51-1.63-1.2-2.84-0.97
		c-8.8,1.64-17.65,3.08-26.42,4.89c-7.23,1.5-14.43,2.32-21.72,0.84c-2.32-0.47-4.48,1.39-7.12,0.16c2.93-4.21,7.27-5.37,11.81-6.54
		c13.83-3.56,28.25-4,41.99-7.96c2.65-0.76,5.54-1.03,7.75-2.98c0,0-0.05,0.04-0.05,0.04c1.78,0.06,3.55,0.12,5.33,0.18
		C193.84,380.16,195.88,382.66,197.66,385.4z"/>
	<path class="st2" d="M181.41,344.1c2.83,0.1,4.46,1.22,6.01,2.52c6.61,5.56,12.88,11.48,18.76,17.8c0.67,0.72,1.31,1.52,1.77,2.39
		c0.99,1.88,2.41,3.82,0.69,5.96c-1.73,2.14-3.78,0.7-5.46,0.01c-7.99-3.34-12.66-10.48-18.28-16.49c-1.9-2.04-3.59-4.43-4.76-6.95
		C179.26,347.43,178.57,344.76,181.41,344.1z"/>
	<path class="st2" d="M100.96,369.54c21.16,0.75,42.4,0.82,63.63,0.87c1.56,0,3.38,0.09,3.5,1.95c0.14,2.15-1.93,1.68-3.28,1.95
		C143.15,378.5,122.03,375.09,100.96,369.54z"/>
	<path class="st2" d="M212.58,442.6c0.05,3.7-1.48,6.69-4.85,5.3c-4.75-1.96-9.41-1.63-14.16-1.52c-3.62,0.08-6.64-0.85-6.59-4.89
		c0.05-3.73,1.15-7.02,6.19-7.41c4.72-0.36,9.52-2.59,12.55,3.29c0.54,1.05,2.05,0.99,3.21,0.98
		C212.14,438.35,212.89,440.22,212.58,442.6z"/>
	<path class="st2" d="M208.67,411.19c0.6,3.76-2,5.42-4.71,6.74c-3.62,1.76-6.57,3.91-7.13,8.25c-0.13,1.04-0.52,1.96-1.82,1.95
		c-0.95,0-1.74-0.57-1.85-1.39c-0.56-4.16-4.15-5.32-6.97-7.21c-2.24-1.5-3.9-3.29-2.97-6.16c0.86-2.65,3.15-3.16,5.63-3.16
		c4.82,0,9.65,0.28,14.41-0.81c2.19-0.5,3.83,0.64,5.45,1.83C208.71,411.24,208.67,411.19,208.67,411.19z"/>
	<path class="st2" d="M211.65,400.29c2.62,1.16,3.4-1.5,5.05-2.4c1.68-0.91,3.07-2.42,5.14-2.55c2.17,4.21,4.08,8.56,6.91,12.4
		c-2.24,3.37-5.82,3.35-9.24,3.51c-3.13,0.14-6.27,0.02-9.41,0.01c-0.47-0.03-0.94-0.05-1.42-0.07c0,0,0.04,0.04,0.04,0.04
		c1.83-2.49-0.39-4.95-0.03-7.43c0.59-1.56,3.76-0.95,3.05-3.61L211.65,400.29z"/>
	<path class="st4" d="M197.66,385.4c-1.78-2.75-3.82-5.25-6.65-6.99c-0.03-1.55,0.57-3.39-1.8-3.84c-0.32-0.41-0.64-0.81-0.96-1.22
		c-1.53-6.83-7.79-10.59-10.72-16.53c-1.04-2.11-2.39-4.07-3.05-6.44c11.5,13.03,26.42,23.72,28.99,43.32
		C200.29,391.42,200.53,387.33,197.66,385.4z"/>
	<path class="st2" d="M162.73,357.37c-10.48-1.18-20.46-4.66-30.23-8.84c-1.13-0.48-2.13-1.29-1.54-2.67
		c0.61-1.44,1.91-1.89,3.3-1.17c7.26,3.75,15.5,3.19,23.14,5.26c2.43,0.66,4.79,1.37,6.93,2.65c1.45,0.87,4.15,1.2,3.45,3.5
		C167.1,358.32,164.59,356.93,162.73,357.37z"/>
	<path class="st2" d="M223.55,441.09c4.62,0.89,8.14-3.29,12.68-2.73c0.88,2.15,1.74,4.3,2.65,6.44c0.66,1.55,1.53,3.23,0.2,4.65
		c-1.29,1.37-3.28,1.09-4.66,0.26c-4.61-2.78-7.86-1.47-10.59,4.06C222.46,448.85,219.73,445.12,223.55,441.09z"/>
	<path class="st2" d="M220.37,421.23c0.16-0.09,0.33-0.13,0.5-0.1c2.04,0.65,4.39-0.32,6.25,0.97c1.7,1.18,3.75,2.51,1.38,4.94
		c-3.43-1.63-6.26-0.27-8.94,1.82c-2.1-0.81-4.23-0.75-6.35-0.15c-1.93,0.54-3.63-0.08-5.21-1.02c-1.29-0.76-2.59-1.74-2.07-3.55
		c0.45-1.56,1.85-1.61,3.21-1.77C212.89,421.95,216.8,423.14,220.37,421.23z"/>
	<path class="st2" d="M188.25,373.36c0.32,0.41,0.64,0.81,0.96,1.22c-1.18,1.22-2.36,2.44-3.54,3.66c0,0,0.05-0.04,0.05-0.04
		c-5.91,0.66-11.81,1.38-17.73,1.93c-1.53,0.14-3.71,0.65-4.07-1.66c-0.4-2.57,1.94-2.68,3.64-3.13
		C174.35,373.56,181.25,372.95,188.25,373.36z"/>
	<path class="st4" d="M25.56,485.01c0,0.48-0.01,0.96-0.01,1.44c-1.14,1.2-1.32,3.92-3.76,3.14c-3.48-1.11-1.93-4.37-2.42-7.06
		C20.87,485.2,23,485.73,25.56,485.01z"/>
	<path class="st2" d="M213.52,396.03c-0.62,1.42-1.25,2.84-1.87,4.26c0,0,0.08-0.1,0.08-0.1c-0.78,0.05-1.56,0.1-2.34,0.14
		c-0.29-0.39-0.68-0.75-0.84-1.19c-0.86-2.3-0.78-5.09,1.13-6.18C211.36,392,212.16,395,213.52,396.03z"/>
	<path class="st4" d="M219.58,428.87c2.68-2.1,5.5-3.45,8.94-1.82C226.19,430.86,222.97,430.27,219.58,428.87z"/>
	<path class="st1" d="M26.68,499.44c-1.24,0-0.83,1.12-1.17,1.74c-1.14-3.37-1.57-6.72,0.3-10
		C27.09,493.82,26.84,496.63,26.68,499.44z"/>
	<path class="st4" d="M209.38,400.34c0.78-0.05,1.56-0.1,2.34-0.14c0.71,2.66-2.45,2.06-3.05,3.62
		C205.95,402.05,209.23,401.51,209.38,400.34z"/>
	<path class="st2" d="M172.76,501.39c0.09-1.86,0.05-3.86,2.57-4.11c3.08-0.31,4.84,1.47,6.48,4.52c-2.9,0.4-5.42,0.75-7.93,1.1
		C173.51,502.39,173.14,501.89,172.76,501.39z"/>
	<path class="st4" d="M172.76,501.39c0.37,0.5,0.75,1.01,1.12,1.51c-0.23,1.07-0.45,2.14-0.68,3.21c0,0-0.03-0.01-0.03-0.01
		c-1.25-0.42-2.52-0.78-3.73-1.28c-1.55-0.64-3.41-1.32-2.61-3.51c0.8-2.19,2.57-1.61,4.18-0.89
		C171.61,500.7,172.18,501.07,172.76,501.39z"/>
	<path class="st2" d="M374.75,126.59c8.03,2.1,8.01,2.1,7.97,10.21c-0.04,9.87-4.99,18.13-9.06,26.6c-1.52,3.18-3.91,0.76-5.77-0.52
		c-1.52-3.88-0.29-7.36,1.48-10.81C373.48,144.07,374.33,135.37,374.75,126.59z"/>
	<path class="st2" d="M408.81,104.14c-3.01-2.39-5.39-5.8-10.28-4.23c-2.84,0.91-4.73,2.32-5.64,4.99
		c-0.49,1.46-0.99,2.82-2.35,3.66c-1.19,0.74-2.7,1.12-3.79,0.45c-1.71-1.05-0.14-2.37,0.35-3.39c2.48-5.12,6.32-9.31,9.7-13.82
		c1.16-1.55,2.51-3.65,4.83-2.33c2.2,1.26,1.18,3.49,0.73,5.38c-0.18,0.77-0.47,1.52-0.89,2.86c2.35-0.79,3.18-2.99,5.14-3.21
		c1.89,0.39,3.45-0.41,4.96-1.39c2.38-1.31,4.71-2.71,7.15-3.91c2.67-1.32,4.67-0.35,6.06,2.14
		C420.68,97.15,414.68,100.56,408.81,104.14z"/>
	<path class="st2" d="M386.71,158.95c-2.32,0.99-3.43,5.61-6.17,3.75c-2.7-1.83,0.85-4.63,1.25-7.09
		c1.16-7.01,2.49-13.99,3.77-20.97c0.33-1.82-0.8-4.41,1.84-5.1c2.14-0.55,2.74,2.04,4.21,2.99
		C392.46,141.8,390.93,150.63,386.71,158.95z"/>
	<path class="st1" d="M560.31,169.24c-2.91-6.38-5.95-11.57-9.83-16.32c-2.15-2.64-0.19-7.59,2.5-8.55
		c3.74-1.33,6.59,0.23,7.88,4.31C563.39,156.7,563.4,162.27,560.31,169.24z"/>
	<path class="st1" d="M488.39,212.26c3.66-2.26,7.58-3.67,11.9-3.96c2.56-0.17,4.07-1.24,3-4.13c3.79-0.81,7-0.11,9.71,3.01
		c2.69,3.1,6.73,2.88,10.51,3.29c-0.13,2.28-0.86,3.91-3.07,4.56c-4.05-4.57-8.97-5.15-14.88-1.75c-3.26-4.26-7.74-1.86-9.62,0.17
		c-2.59,2.8-3.65,1.31-5.48,0.11C489.77,213.12,489.08,212.69,488.39,212.26z"/>
	<path class="st1" d="M568.33,151.75c1.38,4.94,2.94,9.38,0.04,14.2c-1.23,2.04,0.44,5.1-1.38,7.5c-1.17,1.54-2.06,2.34-4.08,1.48
		c-2.33-0.99-1.67-2.41-0.88-3.88c2.4-4.49,4.12-9.03,2.76-14.3C564.19,154.4,566.21,153.26,568.33,151.75z"/>
	<path class="st2" d="M505.56,213.28c5.92-3.4,10.83-2.82,14.88,1.75c-4.57,0.69-9.12,1.37-13.56,2.76
		c-2.66,0.83-5.48,1.16-8.03-0.81C500.17,213.89,503.33,214.43,505.56,213.28z"/>
	<path class="st2" d="M436.83,86.04c-2.74-1.74-3.11-3.39-0.21-5.52c5.03-3.7,11.39-2.71,14.96,2.55c0,0,0.02,0.09,0.02,0.09
		c-2.9,0.51-6.13,0.03-8.23,2.85C441.19,86.29,439.01,86.6,436.83,86.04z"/>
	<path class="st3" d="M368.36,129.12c1.85,6.46,2.39,12.79-0.86,18.94c-0.4,0.75-0.83,1.54-1.8,1.29c-1.36-0.35-0.97-1.34-0.75-2.35
		C366.23,141.06,367.67,135.15,368.36,129.12z"/>
	<path class="st1" d="M443.37,86.01c2.1-2.82,5.34-2.34,8.23-2.85c1.29,3.97,0.33,5.81-4.11,4.31
		C446.11,87.01,444.74,86.5,443.37,86.01z"/>
	<path class="st1" d="M459.54,100.83c-3.44,0.15-5.71,0.42-7.96,0.29c-1.38-0.08-2.51-1.25-2.24-2.68c0.28-1.5,1.98-1.27,2.91-0.99
		C454.44,98.09,456.81,98.46,459.54,100.83z"/>
	<path class="st1" d="M358.58,132.88c0.06,1.41-0.35,2.44-1.24,2c-2.53-1.24-3.34-3.87-4.29-6.28c-0.25-0.64,0.45-1.49,1.07-1.24
		C356.77,128.43,357.53,131.04,358.58,132.88z"/>
	<path class="st1" d="M387.69,183.97c-2.12-0.23-4.29,0.69-5.34-1.69c-0.3-0.67,0.33-1.31,0.98-1.38
		C385.27,180.69,386.77,181.37,387.69,183.97z"/>
	<path class="st1" d="M437.62,200.81c-0.24,1.72-1.36,2.05-2.47,2.14c-0.81,0.07-2.14,0.75-2.31-0.71
		c-0.15-1.32,0.41-2.75,1.99-2.72C435.79,199.54,436.73,200.37,437.62,200.81z"/>
	<path class="st2" d="M400.92,390.91c-5,4.17-9.93,8.39-17.2,7.37c-2.39-0.33-4.98-0.51-5.72-3.1c-0.71-2.49-1.25-5.44,0.93-7.56
		c2.69-2.62,3.94-5.63,3.91-9.33c-0.01-1.12,0.34-2.35,0.86-3.35c5.6-10.72,10.83-21.66,18.65-31.04c3.13-3.75,6.98-5.93,11.88-6.49
		c4.11-0.47,8.18-1.34,12.26-2.03c-0.06,6.53,1.16,13.11-0.75,19.57c-2.97,3.97-6.7,7.49-8.3,12.28c-0.33,0.98-5.74,5.14,1.4,4.36
		c0.86-0.09,1.11,1.3,0.6,1.98c-1.58,2.11-3.16,4.29-5.07,6.08c-1.24,1.17-2.48,0.64-2.54-1.33c0.81-0.57,1.65-1.14,1.6-2.28
		c-0.01-0.17-0.48-0.5-0.65-0.45c-1.18,0.37-1.1,1.49-1.33,2.42c-4.37,2.7-6.09,7.53-9.1,11.31
		C401.88,389.86,401.4,390.39,400.92,390.91z M415.15,373.88l0.19-0.3l-0.28-0.04L415.15,373.88z"/>
	<path class="st2" d="M426.5,334.03c-4.56-2.61-8.29,1.02-12.39,1.73c-2.48,0.43-4.48,1.29-6.17-1.81
		c-0.36-0.66-0.44-2.68-2.05-2.88c-0.29,2.8-3.98,1.45-4.76,4.12c-1.16,3.97-2.95,7.76-4.48,11.63c-0.87,2.21-2.24,3.97-4.85,3.12
		c-2.58-0.83-2.13-2.96-1.53-5c1.72-5.85,1.98-12.17,5.63-17.41c0.44-0.63,0.83-2.1,0.61-2.25c-5.63-3.9-0.89-8.5-0.8-12.7
		c0.08-3.62,1.05-7.21,1.59-10.82c0.44-2.98,1.59-5.35,5.12-4.46c3.86,0.97,2.29,3.71,1.51,6.01c-1,2.96-2.09,5.9-3.32,9.34
		c3-1.46,2.78-4.19,3.78-6.17c0.97-1.92,1.57-4.04,2.59-5.93c1.18-2.18,3.25-2.75,5.59-2.24c2.41,0.53,2.3,2.51,2.35,4.35
		c0.03,1.16,0.01,2.32,0.41,3.58c0.43-1.53,0.96-3.04,1.24-4.59c0.27-1.47,0.77-2.5,2.45-2.6c1.53-0.09,2.71,0.45,3.06,1.95
		c0.92,3.93,2.97,2.4,5.01,1.14c1.39,3.84,0.99,7.92,0.45,11.69C426.56,320.58,427.03,327.32,426.5,334.03z M414.46,307.85
		c-2.28,5.92-6.48,9.26-7.94,14.36c-0.61,2.12,0.22,3.59,1.58,3.97c2.01,0.56,2.37-2.18,2.18-2.93c-0.64-2.55,1.45-3.79,2.06-5.68
		C413.22,314.82,414.65,312.19,414.46,307.85z M415.85,326.11c4.23-0.98,7.59-2.86,8.2-7.51
		C421.32,321.11,418.58,323.61,415.85,326.11z M397.52,322.59c-0.1-0.28-0.19-0.56-0.29-0.84c-0.12,0.11-0.35,0.23-0.34,0.33
		c0.04,0.29,0.17,0.56,0.26,0.84C397.28,322.8,397.4,322.7,397.52,322.59z"/>
	<path class="st1" d="M411.83,378.33c0.06,1.97,1.3,2.5,2.54,1.33c1.91-1.8,3.48-3.97,5.07-6.08c0.51-0.68,0.27-2.08-0.6-1.98
		c-7.13,0.78-1.72-3.38-1.4-4.36c1.6-4.79,5.33-8.31,8.3-12.28c1.94,12.56-0.06,24.97-1.07,37.84c-4.63-6.6-4.91-6.56-12.62-2.74
		c-3.22,1.59-6.39-1.3-9.7-0.73c3.01-3.78,4.73-8.61,9.1-11.31L411.83,378.33z"/>
	<path class="st2" d="M439.64,317.71c-1.74,9.14-2.58,18.52-6.96,26.99c-0.47,0.9-0.88,1.76-2.65,2.48
		c-0.36-11.16-0.92-21.99,0.88-32.82c2.35-0.87,4.76-2.05,5.34,2C436.56,318.54,438.17,318.08,439.64,317.71z"/>
	<path class="st1" d="M439.64,317.71c-1.46,0.37-3.08,0.83-3.39-1.35c-0.58-4.05-2.99-2.87-5.34-2c-0.19-2.13-0.56-4.27-0.5-6.4
		c0.05-1.77,1.44-3.99,3-2.49c2.97,2.85,6.49,5.62,7.26,10.11C440.78,316.2,440,316.99,439.64,317.71z"/>
	<path class="st2" d="M424.52,407.13c-5.25-1.78-4.31-5.22-2.4-8.93c2.45-1.24,2.45,0.88,2.54,2.12
		C424.82,402.58,424.59,404.86,424.52,407.13z"/>
	<path class="st1" d="M506.71,458.04c2.3,3.23,6.09,2.93,9.34,3.85c1.38,0.39,3.02-0.08,4.11,1.3c-7.23-0.9-14.47-1.81-21.7-2.71
		C501.28,459.17,504.38,460.49,506.71,458.04z"/>
	<path class="st2" d="M375.95,378.37c-0.1,0.82-0.09,1.68-0.32,2.46c-0.47,1.58-0.89,3.59-3.05,3.27c-2.69-0.4-2.02-2.82-1.73-4.42
		c1.13-6.24,4.11-11.38,10.06-14.67c1.8,3.51-0.77,6.41-1.74,9.54C377.88,375.64,376.41,376.58,375.95,378.37z"/>
	<path class="st2" d="M363.62,364.27c-2.15-1.48-5.9-1.65-4.77-5.82c1.39-1.68,2.78-3.36,4.17-5.04c0.15-0.12,0.31-0.18,0.5-0.18
		c2.03,1.29,4.92,1.74,4.93,5.02c-1.22,1.57-2.45,3.15-3.68,4.73C364.39,363.41,364.01,363.84,363.62,364.27z"/>
	<path class="st4" d="M386.8,294.47c-1.64-0.48-4.46-0.1-3.87-3.08c0.56-2.81,3.34-2.14,5.38-2.25c1.85-0.1,2.7,0.94,2.45,2.82
		C390.45,294.3,389.13,295.04,386.8,294.47z"/>
	<path class="st4" d="M375.95,378.37c0.47-1.79,1.93-2.73,3.21-3.83c1.87,0.45,2.68,1.78,1.58,3.26
		C379.59,379.36,377.74,379.83,375.95,378.37z"/>
	<path class="st4" d="M364.78,362.97c1.23-1.58,2.45-3.15,3.68-4.73c1.96-0.12,2.9,0.61,1.66,2.47
		C368.89,362.58,367.13,363.59,364.78,362.97z"/>
	<path class="st2" d="M329.53,369.59c-0.18,0.98-0.36,1.97-0.54,2.94c-2.88,0.46-4.39-1.71-3.65-3.57
		C326.13,366.96,328.05,369.38,329.53,369.59z"/>
	<path class="st4" d="M411.56,93.11c-1.51,0.98-3.07,1.78-4.96,1.39c0.75-1.81,1.5-3.62,2.4-5.78
		C410.45,90.03,411.69,91.13,411.56,93.11z"/>
	<path class="st2" d="M386.92,92.81c0.72-2.09,1.64-3.4,3.61-3.24c1.01,0.08,1.36,1.1,1,1.88
		C390.68,93.32,389.04,93.26,386.92,92.81z"/>
	<path class="st1" d="M363.02,353.41c-1.39,1.68-2.78,3.36-4.17,5.04c-0.49-1.63-4.69-0.67-2.76-3.97
		C357.96,351.27,360.54,352.7,363.02,353.41z"/>
	<path class="st2" d="M496.81,269.5c-1.75,2.63-3.89,3.22-6.39,2.05c-0.26-0.12-0.49-1.02-0.33-1.22
		C492.08,267.99,494.61,270.02,496.81,269.5z"/>
	<path class="st3" d="M185.67,378.24c1.18-1.22,2.36-2.44,3.54-3.66c2.37,0.45,1.76,2.29,1.79,3.84
		C189.23,378.36,187.45,378.3,185.67,378.24z"/>
	<path class="st1" d="M411.46,378.02c0.23-0.93,0.14-2.05,1.33-2.42c0.16-0.05,0.64,0.28,0.65,0.45c0.05,1.14-0.79,1.71-1.6,2.28
		C411.83,378.33,411.46,378.02,411.46,378.02z"/>
	<polygon class="st1" points="415.15,373.88 415.06,373.54 415.34,373.59 	"/>
	<path class="st3" d="M414.46,307.85c0.19,4.34-1.24,6.97-2.12,9.72c-0.6,1.89-2.7,3.13-2.06,5.68c0.19,0.75-0.17,3.49-2.18,2.93
		c-1.36-0.38-2.19-1.85-1.58-3.97C407.98,317.11,412.18,313.77,414.46,307.85z"/>
	<path class="st3" d="M415.85,326.11c2.73-2.5,5.47-5.01,8.2-7.51C423.44,323.25,420.08,325.13,415.85,326.11z"/>
	<path class="st3" d="M397.52,322.59c-0.12,0.11-0.24,0.22-0.36,0.33c-0.09-0.28-0.22-0.56-0.26-0.84
		c-0.01-0.09,0.22-0.22,0.34-0.33C397.33,322.02,397.43,322.31,397.52,322.59z"/>
</g>
<g>
</g>
<g>
</g>
<g>
</g>
<g>
</g>
<g>
</g>
<g>
</g>
<g>
</g>
<g>
</g>
<g>
</g>
<g>
</g>
<g>
</g>
<g>
</g>
<g>
</g>
<g>
</g>
<g>
</g>
</svg>
