<?xml version="1.0" encoding="utf-8"?>
<!-- Generator: Adobe Illustrator 17.1.0, SVG Export Plug-In . SVG Version: 6.00 Build 0)  -->
<!DOCTYPE svg PUBLIC "-//W3C//DTD SVG 1.1//EN" "http://www.w3.org/Graphics/SVG/1.1/DTD/svg11.dtd">
<svg version="1.1" id="Layer_1" xmlns="http://www.w3.org/2000/svg" xmlns:xlink="http://www.w3.org/1999/xlink" x="0px" y="0px"
	 viewBox="0 0 802.3 512.25" style="enable-background:new 0 0 802.3 512.25;" xml:space="preserve">
<style type="text/css">
	.st0{fill:#040001;}
	.st1{fill:#FD7A7A;}
	.st2{fill:#FCD8D8;}
	.st3{fill:#770102;}
	.st4{fill:#F81C1D;}
	.st5{fill:#CE0305;}
</style>
<g>
	<path class="st0" d="M802.12,509.12c0.93,4.02-1.98,2.91-4,3c-1.12-1.96-2.99-0.96-4.47-0.96c-262.03-0.05-524.05-0.05-786.08,0
		c-1.47,0-3.34-1.01-4.46,0.96c-2.5,0.5-3.5-0.5-3-3c1.98-1.11,0.96-2.98,0.96-4.45c0.05-165.7,0.05-331.4,0-497.1
		c0-1.47,1.02-3.34-0.96-4.45c-0.5-2.5,0.5-3.5,3-3c0.4,1.36,1.56,0.99,2.47,0.98c27.8-0.03,55.59-0.08,83.39-0.13
		c1.82,0.06,3.65,0.18,5.47,0.18c32.24,0.08,64.47,0.14,96.71,0.21c0.16,1.68-0.7,4.3,1.57,4.53c2.56,0.27,1.15-2.88,2.25-4.14
		c0.1-0.11,0.09-0.31,0.13-0.47c54.22-0.04,108.44-0.08,162.65-0.13c2.16,0,4.31-0.13,6.47-0.2c0.66,0.06,1.32,0.16,1.99,0.16
		C509.2,1.14,652.19,1.14,795.18,1.08c1.3,0,3.04,0.96,3.95-0.96c2.5-0.5,3.5,0.5,3,3c-2.02,1.09-0.96,2.97-0.96,4.43
		c-0.06,165.72-0.06,331.43,0,497.15C801.17,506.15,800.11,508.03,802.12,509.12z M222.1,95.08c3.68-1.77,4.81-5.16,5.74-8.67
		c-3.09,2.17-5.3,4.88-5.67,8.75c-0.08,0.09-0.16,0.19-0.25,0.28C221.98,95.32,222.04,95.2,222.1,95.08z M443.03,394.34
		c0.41,0.42,0.78,0.35,1.12-0.09c3.5-0.72,3.83-3.81,4.81-6.42c4.31-2.86,9.41-4.54,12.96-8.55c4.14-3.56,9.9-4.69,13.54-9.01
		c3.21-2.95,3.73-5.13-1.42-6.4c-2.99-0.73-5.83-2.1-8.74-3.18c-2.25-1.17-4.71-1.43-7.18-1.53c-5.45-0.23-7.09,1.2-8.05,6.94
		c0,0,0.03-0.02,0.03-0.02c-2.41,1.97-4.18,5.62-8.29,3.21c-0.46-0.39-0.92-0.77-1.39-1.16c-1.99-4.83-0.57-10.13-2.05-15.04
		c0.02-1.3,0.48-3-0.84-3.62c-1.27-0.6-2.44,0.67-3.45,1.51c-2.23,1.86-2.82,4.39-2.8,7.15c-2.2,0.71-6.21-0.84-5.06,4.06
		c-1,3.98-0.73,7.29,3.7,9.28c2.14,0.96,2.91,3.41,3.69,5.59c-2.73,2.98-2.64,6.65-2.56,10.33c0.05,2.46,0.49,5.05-1.95,6.8
		c-2.42-4.33-3.14-9.25-4.81-13.84c-0.45-1.24-1.13-2.07-2.47-1.93c-1.28,0.13-2.13,1.02-2.27,2.27c-0.25,2.12-0.32,4.25-0.46,6.38
		c-3.7-0.33-3.72-3.25-3.97-5.85c-0.21-2.18-0.66-3.69-3.31-2.65c-2.52,0.59-2.63,2.6-2.67,4.6c-0.11,5.82,0.65,11.48,3.09,16.83
		c-0.13,3.53-0.47,7.11,2.63,10.27c-0.07-2.69,0.94-4.56,2.31-6.27c0.66,0.03,1.32,0.06,1.97,0.09c1.35,1.75,2.68,3.28,5.12,1.4
		c1.69-1.3,3.38-0.14,5.03,0.42c6.01,2.14,6.01,2.14,5.58-4.38c-0.01-0.16,0.01-0.32,0.01-0.48c2.14-1.69,3.06-4.19,4.31-6.47
		c0.67-0.14,1.33-0.28,2-0.41C441.79,394.23,442.41,394.29,443.03,394.34z M121.73,277.38c0.09,2.8,2.35,4.58,3.27,6.98
		c0.54,0.29,1.07,0.59,1.6,0.88c2.15,0.82,3.16,2.8,4.44,4.47c3.69,4.81,7.03,9.93,11.93,13.69c1.63,4.78,4.99,7.46,9.93,8.25
		c1.55,3.21,5.41,3.19,7.63,5.46c0,0.27,0.13,0.39,0.4,0.37c2.12,2.69,3.64,7.37,8.08,2.46c0.75-0.83,1.45-0.6,2.03,0.16
		c2.44,3.21,4.92,1.46,7.39,0.08c1.98-2.12,1.01-5.02,1.94-7.37c1.41-3.57,0.26-5.25-3.39-5.57c-3.4,0.61-7.54-1.27-9.89,2.9
		c-1.31,0.55-2.22,2.56-4.08,1.12c0.36-2.62-0.37-4.97-1.75-7.16c-2.49-2.92-4.93-5.87-5.83-9.74c-0.54-1.29,0.42-3.43-1.45-3.86
		c-1.84-0.42-2.21,1.64-2.94,2.84c-1.45,2.41-2.72,4.93-4.22,7.31c-0.94,1.49-1.46,0.64-1.72-0.55c0.66-1.72,1.32-3.45,1.97-5.17
		c2.62-2.78,2.32-6.18,2.04-9.58c2.95-1.82,3.71-4.36,2.5-7.56c-0.96-2.52-2.41-4.27-5.46-3.62c0.15-0.78,0.53-2.21,0.43-2.24
		c-2.4-0.82-3.72-1.91-2.74-4.84c0.37-1.12-1.42-1.61-2.55-1.79c-1.55-0.25-2.01,0.7-1.99,2.07c0.02,2.32,0.01,4.63,0.02,6.95
		c-0.01,1.99-0.01,3.99-0.02,5.98c-0.07,1.01-0.14,2.01-0.22,3.02c-2.46,4.55-4.54,4.77-7.1,0.75c0.07-1.99,0.51-4.04,0.14-5.95
		c-3.07-15.91-5.48-31.95-9.7-47.89c1.53,0,2.99,0,4.45,0c2.97,2.1,5.93,3.09,8.85-0.07c1.14-1.24,2.38-0.54,3.68-0.28
		c2.48,0.5,5.01,0.84,6.63-1.85c1.28-2.12,1.6-4.46,0.56-6.66c-1.35-2.88-4.02-2.77-6.68-2.34c-1.62,0.31-3.26,0.58-4.87,0.95
		c-6.07,1.41-12.09,2.77-16.6-3.44c-0.28-0.38-1.22-0.29-1.86-0.41c-1.07-1.22-2.24-2.36-3.2-3.66c-1.68-2.26-1.81-7.06-4.35-6.8
		c-2.93,0.3-3.16,4.97-4.72,7.66c-0.49,1.89,0.06,3.61,0.88,5.28c-0.8,1.24-1.63,2.47-2.41,3.74c-1.62,2.64-4,5.21-6.85,4.98
		c-2.3-0.18-2.74-3.74-3.59-6c-0.56-1.5-0.49-3.76-2.92-2.8c-2.04,0.8-1.43,2.78-0.75,4.28c1.77,3.93,1.61,8.04,1.44,12.17
		c-2.34,0.35-4.56,0.91-6.07,2.96c-7.79,0.67-9.35,2.85-6.35,8.88c0.35,0.71,0.47,1.7,1.46,1.8c1.23,0.12,1.48-1.01,2.05-1.78
		c1.04-1.42,0.95-4.22,3.93-3.37c0.49,0.89,0.99,1.78,1.48,2.67c0.42,0.9,0.87,1.79,1.25,2.71c3.1,7.48,5.31,8.9,13.24,8.08
		c2.79-0.29,5.55-1.35,8.32-1.34c4.85,0.01,9.61-3.09,14.53-0.46c1.45,5.68,2.85,11.37,3.33,17.23c-1.01,3.16-4.28,1.75-6.18,3.08
		c-0.54,0.38-1.88,0.39-1.23,1.54C120.08,277.34,121.09,277.25,121.73,277.38z M185.06,292.16c0-0.47,0-0.95,0-1.42
		c0.04-2.71,0.93-6.9-2.67-6.78c-4.81,0.17-1.93-2.36-2.2-3.83c-0.6-2.32-2.29-0.76-3.44-0.87c-1.62-0.15-3.32,0.15-3.61-2.13
		c0.07-3.08-1.8-4.32-4.51-4.8c-4.18-0.74-5.55,2.45-7.29,5.14c-0.55,1.69,0.1,3.05,1.16,4.3c1.5,1.19,1.54,3.01,1.89,4.71
		c1.28-0.51,2.43-0.97,3.58-1.43c1.74,2.76,3.67,4.77,6.91,1.82c3.5-0.33,1.38,3.41,3.14,4.35c0.57,0.61,1.14,1.21,1.71,1.82
		c1.25,2-0.1,4.82,2.24,6.97C183.38,297.31,184.64,294.92,185.06,292.16z M252.12,111.12c-3.26,1.12-6.18,2.61-7.56,6.79
		c3.54-0.74,6.35-1.39,7.57-4.66c3.12-1.27,7.28-1.43,7.17-6.63C256.08,107.25,254.05,109.11,252.12,111.12z M226.13,325.12
		c1.15-0.35,2.31-0.69,3.46-1.04c3.84-1.01,7.68-2.03,11.52-3.04c5.75-0.49,5.75-0.49,3.85,5.74c13.49,3.35,22.11-6.49,32.34-11.97
		c0.06-0.03-0.02-0.32-0.03-0.48l-0.09-0.07c1.14,0.5,1.6-0.12,1.82-1.12c0.15-1.59,0.92-4.22-0.3-4.52
		c-2.6-0.63-4.95-1.92-7.51-2.42c-1.32-0.25-1.32,1.39-0.94,2.15c0.56,1.11,1.57,2.01,2.38,2.99c-1.92,0.01-4.03,3.75-5.76-0.29
		c0.21-3.98-2.77-3.32-4.78-2.76c-2.98,0.83-6.01,1.81-8.59,3.69c-2.13,0.57-4.26,1.13-6.4,1.7c-3.88,0.83-7.75,1.65-11.63,2.48
		c-2.49-0.77-3.96,1.3-5.88,2.11c-2.09,0.07-4.66-1.14-5.58,2.08c-1,0.54-1.96,1.21-3.01,1.6c-1.76,0.64-2.96,1.42-2,3.56
		c0.93,2.05,2.53,1.75,4.13,1.15C224.19,326.3,225.14,325.65,226.13,325.12z M458.86,274.96c0.85-1.26,1.7-2.52,2.56-3.78
		c2.17-0.48,3.27-2.06,2.67-4c-0.82-2.68-0.64-4.84,0.79-7.33c0.81-1.41,0.28-4.61-1.88-4.08c-5.07,1.27-10.24-1.68-15.11,0.84
		c-3.53-2.34-6.98-5.94-10.96-0.64c-0.61,0.1-1.21,0.2-1.82,0.3c-2.7,0.17-4.82-0.21-6.87-2.67c-4.19-5.02-12.07-4.63-16.84,0.21
		c-0.92,0.93-0.87,1.95-0.11,2.6c3.55,3.05,5.2,8.32,10.64,9.18c1.15,0.18,2.5,0.45,2.56,1.87c0.05,1.18-0.88,2.03-1.71,2.89
		c-1.42,1.47-4.43,0.88-4.75,3.71l0.03-0.02c-0.71-0.11-1.01,0.35-1.24,0.89c-0.22,0.05-0.42,0.14-0.59,0.29
		c-3.09,1.92-6.7,3.19-8.53,6.72c-5.29,6.15-5.66,12.92-2.49,20.11c0.92,2.08,1.86,4.14,2.79,6.21c0.66,5.31,3.03,9.49,7.89,12.03
		c1.44,1.48,3.12,2.54,5.21,2.84c1.38,1.41,3.68,1.68,4.3,0.28c2.04-4.61,6.7-5,10.26-6.95c7.01-3.84,7.81-8.43,1.94-14.47
		c-0.33-3.41-0.35-6.9-2.52-9.84c0,0-0.01-0.03-0.01-0.03c0.51-3.43-0.72-6.49-1.98-9.56c-0.36-0.87-0.45-1.86-0.66-2.79
		c4.34-0.7,4.43-5.83,7.83-7.51c4.13-0.13,4.92-4.51,7.84-6.17c5.2-0.78,3.24,4.09,4.85,6.15c0.14,0.9,0.27,1.81,0.41,2.71
		c-0.07,0.82-0.2,1.64-0.2,2.47c-0.01,1.91-0.66,4.25,2.3,4.59c3.07,0.36,3.48-1.85,3.6-4.12
		C459.12,276.93,458.94,275.94,458.86,274.96z M583.09,334.03c-1.15,0.09-2.3,0.28-3.45,0.23c-2.17-0.1-5.4-2.07-6.16,0.64
		c-0.8,2.84,2.91,3.32,5.02,4.4c0.14,0.07,0.32,0.08,0.48,0.12c1.79,1.5,3.53,3.22,6.13,1.58c5.73,0.15,11.42-0.03,17.25-1.77
		c-0.75-1.07-1.91-1.96-1.95-2.9c-0.29-6.03-3.93-5.46-7.99-4.3c-1.11,0.32-2.26,0.53-3.39,0.78
		C586.68,331.36,584.79,332.25,583.09,334.03z M409.07,28.64l-0.06,0.12c-0.77-0.18-1.54-0.36-2.31-0.54
		c-3.93-0.92-7.26,2.74-10.93,1.82c-5.09-1.28-5.23,1.25-4.82,4.91c0.18,1.64,0.07,3.32,0.2,4.97c0.13,1.57-0.18,3.98,2.09,3.76
		c2.65-0.25,2-2.46,1.31-4.24c-0.99-2.57-0.19-4.57,2.06-5.97c0.93-0.57,2.08-1.3,3.15-0.16c1.74,1.83,0.51,3.71,0.07,5.53
		c-0.86,0.81-0.54,1.87-0.59,2.86c1.88,2.82,8.99,5.23,11.88,3.97c4-1.74,3.55-5.1,2.99-8.47C413.31,33.81,412.6,30.4,409.07,28.64z
		 M395.18,495.08c0.32,2.54,2.23,4.06,3.97,5.48c1.1,0.9,0.52,4.24,3,2.75c2.14-1.28,3.36-3.73,2.57-6.46
		c-0.56-1.94-1.85-3.48-3.45-4.73c-0.01-2.47-0.13-4.95,0.01-7.41c0.22-3.95-0.46-7.51-3.4-10.43c-2.51-2.49-5.31-4.21-8.82-2.55
		c-3.72,1.76-1.36,4.83-1.17,7.4c-2.97,9.73-1.16,13.71,7.27,15.94L395.18,495.08z M354.33,270.22c2.69-1.5,6.9-0.51,7.89-4.81
		c2.35-2.1,4.04-4.38,2.09-7.66c-1.4-3.39-3.87-2.67-6.51-1.81c-1.19,0.38-3.01,2.49-3.55-0.74c1.96-0.88,3.92-1.75,5.88-2.63
		c1.5-0.7,3.73-0.39,4.05-2.95c-2.24-0.99-4.2-0.13-6.16,0.69c-0.84-0.11-1.69-0.21-2.53-0.32c-0.33-2.71-1.97-4.74-3.6-6.76
		c0.1-2.28,1.73-2.92,3.56-3.52c6.74-2.22,7.64-5.93,2.83-11.33c0.05-2.52-0.78-4.81-1.65-7.14c-3.21-8.61-6.34-17.26-9.5-25.9
		c2.24-6.86,0.93-9.8-5.85-11.44c-3.97-0.96-7.46-2.6-10.77-4.82c-1.68-1.13-3.5-1.78-5.56-1.97c-15.19-1.42-27.42,4.26-36.91,15.83
		c-5,6.1-3.21,12.82,3.9,17.1c1.05,2.05,2.33,4.02,3.11,6.17c2.75,7.54,5.42,15.12,7.93,22.75c0.72,2.18,1.24,3.88,3.98,2.59
		c1.89-1.47,4.22-1.76,6.41-2.39c9.46-2.69,18.94-5.34,28.41-8c4.21-0.73,8.42-1.46,12.64-2.19c0.17,0.09,0.34,0.19,0.51,0.29
		c2.93,1.76,2.08,3.37-0.36,4.55c-1.85,0.89-3.91,0.52-5.86,0.06c-2.89-0.69-4.88,0.14-5.62,3.2c-3.96,1.63-8.43-2.43-11.94,0.49
		c-3.57,2.97-7.15,4.19-11.64,3.35c-0.85-0.16-2.05,0.28-2.77,0.85c-2.62,2.1-5.66,2.44-8.82,2.48c-4.2,0.02-5.55,1.11-1.79,4.43
		c0.65,0.57,0.77,1.74,1.13,2.64c-0.6,1.23,0.26,3.25-1.8,3.65c-3.77,0.73-4.37,3.35-4.41,6.62c-0.04,3.51-1.24,6.49-4.97,7.69
		c-3.5,1.13-4.32,3.69-3.87,6.98c-1.06,3.96-5.1,5.62-6.94,8.98c-4.09,2.98-0.92,5.18,1.14,6.77c2.76,2.12,3.67-0.73,4.75-2.58
		c7.41-2.1,13.91-6,20.26-10.2c1.85,0.05,2.5-2.4,4.46-2.13c4.45,0.23,7.08,1.53,5.47,6.93c-0.8,2.68-1.47,5.4-2.48,8.03
		c-1.17,3.03-1.09,5.66,3,6.26c0.42,2.86,2.31,4.23,4.95,4.54c2.56,0.3,3.76-1.44,4.54-3.57c3.57-1.67,6.5-3.79,6.52-8.3
		c0.01-1.86,1.68-2.58,2.98-3.49c0.61-4.98,5.16-6.52,8.16-9.43c1.31-1.27,2-3,2.31-4.83C352.34,272.22,353.34,271.22,354.33,270.22
		z M597.01,36.65c-2.36-1.87-5.09-2.62-8.06-2.6c-2.37-0.62-4.76-1.81-7.11-1.73c-2.99,0.11-7.2-2.35-8.8,1.89
		c-1.49,3.95,2.7,5.46,4.9,7.71c2.3,3.98,6.1,3.22,9.71,3.09c4.5-0.29,8.72-2.23,13.73-1.76C600.09,40.41,599.01,38.24,597.01,36.65
		z M540.15,472.01c-1.2-1.86-1.26-4.48-4.02-5.82c-1.57,6.75,1.41,13.03,0.67,19.84c5.05-4.06,5.69-5.64,5.15-11.85
		c0.99-2.1,3.83-1.93,4.86-3.94c0.94-1.82,1.5-3.72-0.07-5.5c-1.27-1.44-2.9-1.35-4.53-0.75c-2.14,0.79-1.56,2.49-1.41,4.14
		C540.92,469.43,542.05,471.01,540.15,472.01z M501.3,189.23c-4.55,0.82-7.38,5.14-11.98,5.87c-0.43-1.63,0.19-2.9,1.31-4.04
		c1.7-1.75,3.48-3.97,0.83-5.83c-2.41-1.7-4.21,0.81-5.83,2.39c-1.25,1.22-1.93,2.92-1.39,4.57c0.92,2.82,0.68,5.46-0.11,8.24
		c-0.42,1.47-1.03,3.49,1.1,4.33c1.77,0.7,2.68-0.84,3.6-1.99c0.62-0.77,1.12-1.64,1.67-2.46c1.16-0.98,2.33-1.97,3.49-2.95
		c1.74-0.39,3.47-0.39,5.19,0.1c0.13,2.22,1.41,3.4,3.51,3.07c3.71-0.59,5.44-3.78,6.67-6.65c0.91-2.13-2.47-1.87-3.48-3.2
		c1.97-1.74,4.29-3.34,4.92-5.99c0.49-2.07,1.63-5.38-0.8-6.12c-2.5-0.77-4.63,2.11-4.71,4.56
		C505.19,186.27,503.53,187.79,501.3,189.23z M515.46,268.44c0.85-0.66,0.46-1.56,0.45-2.38c5.06-6.83,4.27-13.98-2.05-18.7
		c-0.97-0.67-1.94-1.34-2.92-2.02c-1.78-5.58-6.33-8.42-11-11.15c-3.67-2.23-7.13-4.91-11.67-5.16c-5.21-0.46-10.1-3.01-16.35-3.01
		c3.26,2.85,6.34,3.76,9.09,5.26c0.04,0.26,0.13,0.5,0.28,0.72c-0.4,2.79,0.58,4.73,3.29,5.83c2.36,0.96,2.84,2.87,2.41,5.27
		c-1.1,6.19,0.26,7.5,6.08,6.08c0.59,2.24,1.12,4.5,1.8,6.71c0.19,0.61-0.05,2.13,1.14,1.6c4.54-2.01,5.72,1.63,7.57,4.23
		c0.55,5.87,4.76,11.18,2.67,17.46c-0.17,1.91-0.34,3.81-0.51,5.72c-2.12,5.65-4.17,11.33-6.37,16.95
		c-2.08,5.33-2.88,10.78-2.08,16.45c0.31,2.29,0.4,4.64,0.99,6.85c1.35,5.13,5.69,7.64,10.9,6.34c-4.5-2.97-6.72-7.36-8.36-12.13
		c1.99-3.33,3.79-6.54,2.54-10.84c-0.53-1.81,0.58-4.18,1.2-6.22c0.43-1.43,1.22-2.82,3.24-1.94c0.98,0.43,2.31,1.51,2.93,0
		c0.53-1.3-0.74-2.37-1.73-3.26c0.44-2.9,3.76-4.25,3.51-7.81C512.03,282.21,513.89,275.31,515.46,268.44z M88.19,175.35
		c1.79,6.48,3.51,12.99,7.35,18.75c5.66-6,5.85-7.41,2.16-13.88c-0.64-1.13-1.13-2.35-1.69-3.53c-0.33-2.85-1.77-5.2-3.41-7.44
		c-0.84-1.15-1.67-2.73-3.49-1.76c-1.78,0.94-3.31,2.24-2.94,4.6C86.39,173.43,87.16,174.48,88.19,175.35z M75.11,144.55
		c0.62,2.1,1.49,3.69,3.98,1.92c1.88-1.77,0.89-3.69,0.13-5.47c-2.78-6.46-5.63-12.89-8.51-19.31c-0.76-1.68-1.08-4.56-3.78-3.45
		c-2.12,0.87-0.98,3.33-0.41,4.83C69.26,130.28,72.23,137.4,75.11,144.55z M176.64,211.14c-7.25-0.39-13.21,2.84-18.9,6.79
		c-8.56,2.8-9.2,3.59-7.57,10.51c2.21-3.82,4.86-3.05,7.67-1.59c0.65,0.34,1.69,0.25,2.44,0.01c11.3-3.58,23.33-5.15,33.52-11.85
		c1.36-0.9,2.46-1.18,4.08-0.37c5.53,2.78,17.08-0.27,20.75-5.32c2.57-0.49,5.04-1.58,7.74-1.28c3.16,1.9,6.39,1.83,9.72,0.59
		c-0.51-1.82-2.6-0.84-3.25-2.43c2.36-0.58,5.89-2.7,6.74-0.25c1.57,4.52,3.9,2.54,6.55,2.34c2.42-0.18,4.15-1.82,6.5-2.14
		c8.24-1.13,8.26-1.31,4.46-9.08c0.06-1-0.02-2.03,0.22-2.98c0.78-3.1-2.16-2.26-3.37-3.21c-1.07-0.84-2.49-1.42-3.62-0.25
		c-1.65,1.71,0.16,3,0.86,4.39c-0.01,2.72-2.05,3.21-4.05,3.44c-5.08,0.6-10.18,1.03-15.27,1.52c-4.28-0.05-8.58-0.2-12.46,2.1
		c-1.96,0.1-4.01-0.32-5.75,1.02c-3.73,0.1-5.74,3.04-8.33,5.03c-2.15-2.71-4.96-2.22-7.75-1.52c-2.9,0.73-5.77,1.58-8.79,1.57
		C184.46,208.07,180.46,209.23,176.64,211.14z M517.2,389.29c-6.41-0.08-11.99-7.28-19.73-1.82c3.44,1.52,4.3,5.34,8.11,6.22
		c6.46,1.48,12.97,2.22,19.58,2.36c2.56,0.34,4.96,2.43,8.12,0.87C528.65,392.14,522.86,390.86,517.2,389.29z M638.28,398.11
		c0.79,2.73-2.06,5.17-0.32,8.12c3.53,5.99,7.09,7.9,14.06,6.6c1.72-0.32,3.2-0.35,4.82,0.26c2.04,0.77,3.51-0.07,4.52-1.96
		c1-1.87,1.63-3.75-0.07-5.5c-2.31-2.37-4.73-4.63-7.1-6.94c-3.9-2.99-8.68-2.61-13.15-3.36
		C639.07,395.01,637.78,395.78,638.28,398.11z M379.13,182.15c1.95-5.3,0.1-10.55-0.22-15.82c0.06-2.98,0.14-5.95,0.16-8.93
		c0.01-0.86-0.32-1.77-1.22-1.92c-0.48-0.08-1.19,0.42-1.61,0.85c-4.28,4.36-6.53,19.33-3.52,24.6
		C374.22,183.57,376.24,185.75,379.13,182.15z M646.12,36.14c-5.31-0.72-10.62-1.34-15.99-0.85c-10.04-0.59-13.32,1.27-15.24,8.62
		c-7.42,4.14-7.57,8.25-0.5,13.17c0.55,2.77,1.06,6.67,4.95,4.25c6.24-3.89,12.77-7.67,17.06-14.02c1.19-1.16,1.87-2.86,3.65-3.38
		c3.21-0.6,6.1,0.37,8.87,1.86c5.7,0.22,11.36,0.56,16.41,3.68c0.73,0.45,1.56,0.33,2.28-0.21c3.92,1.02,8.2,1.02,10.98,4.87
		c1.16,1.61,2.76,0.48,3.81-0.68c2.96-3.28,5-7.07,5.65-11.46c0.27-1.82,0.32-3.75-2.48-3.89c-4.48-0.22-8.94-0.58-13.41-0.88
		C663.55,35.32,654.81,36.36,646.12,36.14z M551.83,58.14c2.41,1.39,5.11,1,7.69,1.18c1.82,0.12,4.44,1.46,5.06-1.21
		c0.55-2.36-1.14-4.21-3.69-4.82c-5.83-4.58-12.39-5.93-19.59-4.39c-0.78,0.17-1.75-0.05-2.12,0.93c-0.46,1.25,0.1,2.17,0.98,3.09
		C543.35,56.27,547.04,58.4,551.83,58.14z M216.85,220.75l-0.09,0.01c-10.04,0.82-19.59,4.51-29.69,4.99
		c-0.79,0.04-1.6,0.43-1.83,1.39c-0.31,0.76-1.01,1.61-0.86,2.26c1.65,7.1,3.35,14.19,5.21,21.23c0.78,2.97,3.28,3.05,5.68,2.48
		c4.98-1.19,9.92-2.56,14.88-3.86c4.39,0.36,7.85-2.73,12.01-3.23c3.61,0.73,6.8-0.82,10.14-1.73c2.68-0.73,3.33-2.12,2.7-4.74
		c-1.14-4.8-2.08-9.65-2.97-14.51c-1.29-7.12-3.1-8.26-10.15-6.12c-1.26,0.38-2.49,0.87-3.74,1.3
		C217.71,220.4,217.28,220.58,216.85,220.75z M581.97,169.97c-3.45,0.41-6.9,0.84-10.36,1.22c-1.57,0.17-3.01,0.5-3.39,2.31
		c-0.83,3.9-1.61,7.76-0.19,11.75c0.72,2.04,1.8,3.07,3.95,2.91c0.29,3.81,0,7.6-0.42,11.4c-1.23,11.36-2.58,22.71-3.45,34.1
		c-0.72,9.47,0.37,10.59,9.86,13.51c0.25,1.16,1.31,0.8,2.03,1.1c0.44,3.73,0.21,7.86,5.67,8.23c0.77,0.05,1.57,1.14,2.17,1.89
		c2.09,2.66,4.65,2.79,7.49,1.52c1.95-0.88,3.86-1.84,5.79-2.77l0.44-0.03l0.44,0.04c4.24,2.68,8.77,4.67,13.66,5.85l0.11,0
		c11.13,5.03,22.22,10.17,33.43,15.04c3.92,1.71,5.11-0.62,4.74-4.22c0.4-4.55,0.46-9.11,2.53-13.42c1.27-2.63,2.07-5.57,2.63-8.46
		c2.12-11.07,4.05-22.18,6.05-33.27c1.59-3.81,2.13-7.89,3.12-11.86c1.22-4.88-0.8-7.47-5.29-8.87c-2.96-0.93-6.14-1.22-8.83-2.95
		c-2.2-3.49-6.22-4.96-8.9-7.41c-6-5.49-14.54-4.81-20.19-10.16c-0.18-0.17-0.71-0.16-0.96-0.02c-4.34,2.38-8.61-0.56-11.57-2.04
		c-6.94-3.47-14.5-4.07-21.55-6.66C588.03,167.6,584.79,168.17,581.97,169.97z M446.97,433.91c-5.18,6.42-6.18,12.81-2.64,18.17
		c1.6,2.42,3.3,5.56,6.13,0.83c0.87-1.45,2.71-1.72,4.4-1.95c1.81-0.25,3.41-0.72,4.31-2.75c2.02-4.52,4.83-8.76,6.34-13.43
		c1.28-3.96,5.83-6.75,4.24-11.69c3.54-7.7,7.07-15.4,10.62-23.1c0.87-1.89,2.96-3.84,1.1-5.86c-1.77-1.92-4.34-1.03-6.61-0.48
		c-6.84,1.68-11.36,6.62-16.09,11.33c-2.56,2.56-3.47,5.19-1.49,8.46c0.92,1.51,1.6,3.26-0.32,4.37
		C450.73,421.43,449.06,427.78,446.97,433.91z M396.13,187.9c4.38,4.25,8.34,3.81,11.2-1.12c1.46-2.53,1.89-5.32,2.36-8.08
		c1.19-7.08,0.69-14.46-2.96-20.31c-2.48-3.96-4.68-7.92-6.81-12.06c-2.17-4.21-7.96-4.81-11.71-1.83
		c-4.43,3.53-7.34,7.74-5.73,13.79c0.26,6.28,0.36,12.57,0.82,18.84c0.35,4.75,2.77,7.97,7.79,8.9
		C392.82,186.36,394.45,187.27,396.13,187.9z M477.27,423.7c-0.57,3.67,1.72,4.2,3.86,3.1c5.44-2.8,11.4-5.23,13.26-12.08
		c0.83-3.04,3.37-4.36,6-5.55c1.66-0.75,3.39-1.41,4.9-2.4c1.14-0.74,1.69-2.04,1.22-3.51c-0.39-1.24-1.24-2.11-2.54-1.98
		c-3.83,0.39-6.64-1.45-9.43-3.73c-2.56-2.09-5.05-1.56-6.76,1.2C482.94,406.58,479.23,414.9,477.27,423.7z M293.06,333.86
		c0.45,3.91-0.53,7.45,3.27,8.66c3.07,0.98,5.45-0.94,7.41-2.99c1.22-1.28,2.26-2.86,2.33-4.83c0.14-3.83,1.44-6.84,4.92-9.14
		c3.69-2.44,3.48-6.92,3.92-10.79c0.24-2.11-2.02-2.83-3.52-3.78c-1.66-1.06-2.83,0.07-3.88,1.15c-3.69,3.79-9.57,5.64-10.54,11.87
		c-0.07,0.44-0.52,0.84-0.84,1.22C293.76,328.05,292.58,331.21,293.06,333.86z M690.19,232.57c0.17,1.12,0.53,3.08,2.34,3.91
		c1.77,0.82,1.93-1.35,2.79-2.16c1.27-1.21,2.81-1.63,4.4-2.15c6.36-2.07,11.94-5.64,17.39-9.4c2.63-1.81,2.62-3.61-0.17-5.32
		c-4.29-2.63-8.56-5.39-13.85-2.57C696.21,218.55,690.76,223.34,690.19,232.57z M555.03,44.13c3.72,0,6.05-0.07,8.38,0.02
		c2.32,0.08,2.72-1.12,1.7-2.76c-2.98-4.8-6.23-9.7-13.44-9.26c-3.97,0.24-7.94,0.59-11.9,1c-3.27,0.34-2.83,1.76-1.2,3.9
		C543.13,43.04,549.3,44.71,555.03,44.13z M581.78,50.08c-2.92,0.51-5.86,0.96-8.76,1.57c-1.28,0.27-2.65,0.56-1.35,2.58
		c4.09,6.37,18.29,10.68,25.44,7.63c1.42-0.6,1.68-1.27,0.75-2.55C593.9,53.85,588.98,50.13,581.78,50.08z M532.07,41.98
		c-5.19-9.02-10.02-11.21-19.38-9.16c-1.78,0.39-4.8-0.9-5.12,1.7c-0.33,2.69,2.54,3.57,4.61,4.97
		C518.32,43.63,524.9,41.61,532.07,41.98z M397.95,381.83c-0.08-3.92,1.42-5.04,4.97-4.86c3.23,0.16,4.75-2.66,5.81-5.39
		c0.63-1.62,0.82-3.34-0.73-4.57c-1.58-1.25-3.53-1.3-5.19-0.37c-5.28,2.95-10.99,3.08-17.9,2.77
		C389.66,373.79,394.58,376.74,397.95,381.83z M510.12,204.08c-0.07-0.67,0.21-1.77-0.8-2.41c-1.34-0.85-2.04,0.41-3.01,0.93
		c-4.61,2.45-5.98,7.43-8.89,11.2c-0.84,1.09-2.74,1.8-1.46,3.62c1.07,1.51,2.73,0.96,4.12,0.63
		C504.32,217.06,510.24,208.89,510.12,204.08z M273.55,203.23c3.06-1.06,7.9,0.13,8.44-5.31c0.22-2.23-0.28-4.91-3.33-5.25
		c-3.52-0.39-10.55,5.57-10,8.47C269.14,203.6,271.49,202.85,273.55,203.23z M356.65,78.24c0.19-3.13,0.34-5.27,0.44-7.41
		c0.21-4.44,0.63-8.9-1.23-13.17c-0.62-1.43-1.26-2.79-3.14-2.53c-1.81,0.25-2.36,1.65-2.51,3.21c-0.11,1.14-0.31,2.41,0.06,3.43
		C352.18,67.01,354.27,72.16,356.65,78.24z M240.78,288.76c-1.9,0.69-1.7,2.45-2.14,3.78c-1.01,3.01-2.88,5.1-5.73,6.5
		c-1.72,0.84-5.49,0.58-4.3,3.39c0.88,2.06,4.21,0.83,6.2-0.31c1.99-1.14,3.82-2.59,5.58-4.07
		C243.9,295.11,243.81,291.97,240.78,288.76z M543.77,346.61c-1.19-2.1-3.77-2.87-4.12-5.1c-0.26-1.7,0.06-3.57-2.48-3.18
		c-2.41,0.37-4.35,1.63-5.17,4.05c-0.78,2.27,0.8,3.16,2.48,4.13C537.48,348.24,540.43,348.09,543.77,346.61z M559.12,326.97
		c1.3,0.06,2.54,0.26,3.12-1.13c0.69-1.65-0.4-2.29-1.64-3.04c-4.56-2.77-8.19-2.2-11.33,1.83c-0.63,0.81-1.47,1.48-0.79,2.55
		c0.63,1,1.71,0.85,2.69,0.66C553.85,327.33,556.32,325.11,559.12,326.97z M562.42,363.25c0.69-0.2,1.94-0.19,2.45-0.8
		c0.84-1,0.04-2.14-0.6-3.15c-2.12-3.37-6.94-4.99-10.47-3.53c-1.15,0.48-2.48,0.97-1.03,2.31
		C555.44,360.56,558.24,362.92,562.42,363.25z M511.79,169.73c0.25-1.46-0.81-1.59-1.81-1.72c-3.57-0.46-6.45,0.68-8.79,3.49
		c-2.32,2.79-1.05,4.15,1.75,4.92C505.06,177.01,511.63,171.95,511.79,169.73z M493.22,363.27c1.25-0.1,1.72-0.73,1.49-1.99
		c-0.42-2.36-6.67-8.13-9.22-8.64c-1.72-0.35-2.1,0.53-2.03,1.87C483.55,356,491.78,363.31,493.22,363.27z M575.7,408.86
		c1.6-4.55,3.32-8.03,1.57-11.91c-0.64-1.41-1.7-2.6-3.49-2.13c-1.59,0.42-1.7,1.86-1.82,3.21
		C571.64,401.76,573.81,404.61,575.7,408.86z M361.7,138.37c-2.83,4.06-6.02,6.76-5.13,10.77c0.62,2.84,3.53,3.95,8.34,3.89
		C358.09,148.96,362.84,144.15,361.7,138.37z M260.53,176.26c2.51-5.26,1.36-9.8,1.57-14.2c0.07-1.4-0.23-2.8-2.08-2.71
		c-1.84,0.09-1.85,1.57-1.88,2.92C258.02,166.76,258.7,171.1,260.53,176.26z M605.04,420.67c-0.46,1.81,0.71,3.19,2.89,2.91
		c2.76-0.35,4.25-2.27,4.32-5.17c0.05-2.02-0.83-3.27-2.88-3.21C606.31,415.3,605,417.17,605.04,420.67z M488.59,177.29
		c1.56-1.85,5.26-2.13,5.74-5.53c0.22-1.55-1.27-2.68-3.03-2.39c-3.17,0.53-4.85,2.54-5.01,5.73
		C486.22,176.25,486.29,177.5,488.59,177.29z M546.77,369.22c3.51-0.06,6.12-1.02,6.8-3.97c0.44-1.9-1.44-3.04-3.24-2.72
		c-2.58,0.46-5.46,1.04-5.91,4.38C544.13,369.05,545.81,369.19,546.77,369.22z M716.36,138.62c-0.22-3.5-1.89-5.64-5.04-6.11
		c-1.75-0.26-2.01,1.48-1.89,2.8c0.29,3.11,1.86,5.33,5.11,5.74C716.55,141.32,716.27,139.59,716.36,138.62z M549.52,423.1
		c1.73,5.11,5.4,6.79,9.49,7.81c1.07,0.27,2.42,0.22,2.89-1.21c0.35-1.07,0.01-2.13-1.18-2.27
		C556.87,426.98,554.03,424,549.52,423.1z M663.04,69.91c0.47,3.48,2.56,5.94,5.85,7.06c1.28,0.44,2.33-0.93,2.25-2.53
		c-0.12-2.37-4.82-7.43-6.73-7.3C662.41,67.27,663.39,68.81,663.04,69.91z M485.79,219.04c2.39,0.04,5.87-3.46,5.74-5.95
		c-0.07-1.27-0.4-3.25-2.04-2.69c-2.9,0.98-5.03,3.12-5.44,6.42C483.9,218.05,484.06,219.2,485.79,219.04z M452.31,410.95
		c0.1-2.22-0.63-3.66-2.98-3.8c-2.64-0.16-4.56,1.72-4.62,3.64c-0.11,3.36,3.4,2.32,5.38,2.9
		C452.51,414.39,451.95,412.1,452.31,410.95z M569.1,421.39c0.19,0.96-0.73,2.65,1.02,3.16c1.67,0.49,2.19-1.12,2.73-2.27
		c1.06-2.25,1.95-4.58,0.84-7.1c-0.31-0.69-1-0.95-1.63-0.55C569.69,416.17,569.47,418.69,569.1,421.39z M224.73,297.68
		c-0.11-2.01-0.04-4.2-2.74-4.51c-1.77-0.21-2.77,0.93-2.97,2.64c-0.31,2.59,0.97,5.17,2.95,5.77
		C224.03,302.21,224.01,299.24,224.73,297.68z M399.22,54.03c2.56,0.69,4.75,1.38,6.98,1.84c1.37,0.28,2.68-0.02,2.87-1.81
		c0.16-1.55-0.55-2.6-2.06-2.86C404.12,50.69,401.04,49.83,399.22,54.03z M436.07,28.25c0.22-2.27-0.43-3.52-2.7-3.12
		c-1.78,0.31-4.82-0.96-4.98,1.57c-0.22,3.47,3.46,2.46,5.55,3.28C436.26,30.89,435.81,29.1,436.07,28.25z M186.45,324.6
		c-0.85-0.07-1.11,0.47-1.19,1.18c-0.16,1.38,5.1,7.67,6.48,7.74c0.76,0.04,1.15-0.36,1.33-1.11
		C193.58,330.21,188.73,324.45,186.45,324.6z M407.78,404.82c-0.06-5.79-2.14-9.29-6.45-11.45
		C401.64,398,403.88,401.41,407.78,404.82z M304.53,356.05c-2.13-3.76-3.41-6.69-6.89-7.21c-0.85-0.12-1.46,1.36-1.27,2.38
		C297.13,355.23,300.34,355.32,304.53,356.05z M637.12,426.87c-2.3,1.48-4.49,3.34-5,6.53c-0.13,0.84,0.19,1.94,1.22,1.58
		c2.96-1.04,4.88-3.25,5.72-6.26C639.36,427.63,638.74,426.84,637.12,426.87z M728.6,128.98c-1.27,3.97-0.33,6.71,2.79,8.62
		c0.87,0.53,1.55,0.19,1.76-0.9C733.84,133.06,732.23,130.75,728.6,128.98z M218.03,293.23c-0.01-3.41,3.17-4.53,3.58-7.46
		c-2.37,0.27-5-0.42-6.19,2.24C214.55,289.94,215.74,291.44,218.03,293.23z M475.96,388c2.95-0.32,5.92,0.97,7.57-2.23
		c0.35-0.68-0.03-1.91-0.99-1.86C479.99,384.05,477.28,384.14,475.96,388z M464.6,388.2c1.35-0.06,3.02-0.14,3-1.81
		c-0.02-2.18-1.93-2.88-3.77-3.17c-1.35-0.21-2.29,0.64-2.36,1.95C461.37,387.23,462.75,388.02,464.6,388.2z M268.74,108.8
		c1.69-0.35,2.39-1.49,2.28-3.18c-0.08-1.23-0.47-2.33-1.96-2.32c-1.82,0.01-2.62,1.16-2.67,2.84
		C266.35,107.66,267.09,108.62,268.74,108.8z M226.84,195.93c0.3-0.39,0.59-0.77,0.89-1.16c-2.79-1.67-5.59-3.35-8.38-5.02
		C220.94,193.12,223.86,194.58,226.84,195.93z M438.02,39.28c-1.42-1.1-1.88-3.63-4.4-3.79c-0.79-0.05-1.84,0.84-1.39,1.6
		c0.94,1.57,1.33,3.85,3.77,4.01C437.01,41.16,438.06,41.08,438.02,39.28z M430.93,50.08c1.09-0.2,2.59-0.08,2.16-1.86
		c-0.37-1.53-1.31-2.78-3.11-2.56c-1.24,0.15-2.14,0.89-1.91,2.37C428.32,49.68,429.43,50.15,430.93,50.08z M631.04,414.45
		c1.98,2.34,3.08,4.91,6.08,4.57c1.31-0.15,1.05-1.5,0.68-2.42C636.59,413.52,634.15,413.73,631.04,414.45z M652.61,55.3
		c-1.37-0.01-2.13,0.42-1.93,1.4c0.38,1.81,1.29,3.44,3.19,3.94c1.16,0.3,1.81-0.72,1.65-1.8C655.23,56.96,654.35,55.46,652.61,55.3
		z M426.07,38.06c1.14-0.72,3.66,0.07,3.96-2.23c0.17-1.34-1.51-1.5-2.66-1.45c-1.45,0.07-3.08-0.01-3.33,2.05
		C423.9,37.72,424.48,38.27,426.07,38.06z M460.15,114.51c1.61,1.14,3.69,1.88,2.48,4.28c2.59-0.19,4.14-1.9,3.09-4.06
		C464.68,112.63,462.28,114.03,460.15,114.51z M236.03,284c0.15-0.98-0.1-1.67-1.16-1.79c-1.92-0.21-3.72,0-4.59,2.06
		c-0.38,0.91,0.01,1.64,1.06,1.77C233.29,286.27,234.95,285.8,236.03,284z M337.19,34.78c0.33,2.93-1.09,5.2,1.04,6.99
		c0.54,0.45,1.42-0.07,1.55-0.66C340.25,38.99,340.02,37,337.19,34.78z M466.08,108.56c0-3.22,0.01-5.52-0.01-7.83
		c-0.01-0.94-0.41-1.56-1.47-1.57c-0.86-0.01-1.7,0.07-2.13,0.92c-0.28,0.56-0.62,1.59,0.2,1.68
		C466.76,102.21,464.37,105.68,466.08,108.56z M726.18,207.19c0.74-0.24,1.75-0.53,1.67-1.83c-0.09-1.39-1-2.09-2.32-2.07
		c-1.09,0.02-1.98,0.66-1.96,1.82C723.6,206.51,724.61,207.07,726.18,207.19z"/>
	<path class="st1" d="M3.12,512.12c1.12-1.96,2.99-0.96,4.46-0.96c262.03-0.05,524.05-0.05,786.08,0c1.48,0,3.34-1,4.47,0.96
		C533.12,512.12,268.12,512.12,3.12,512.12z"/>
	<path class="st1" d="M802.12,509.12c-2.02-1.09-0.96-2.97-0.96-4.43c-0.06-165.72-0.06-331.43,0-497.15c0-1.46-1.06-3.33,0.96-4.43
		C802.12,171.79,802.12,340.46,802.12,509.12z"/>
	<path class="st1" d="M0.12,3.12C2.1,4.24,1.08,6.11,1.08,7.57c0.05,165.7,0.05,331.4,0,497.1c0,1.47,1.02,3.34-0.96,4.45
		C0.12,340.46,0.12,171.79,0.12,3.12z"/>
	<path class="st1" d="M799.12,0.12c-0.91,1.92-2.65,0.96-3.95,0.96C652.19,1.14,509.2,1.14,366.21,1.13c-0.66,0-1.32-0.11-1.99-0.16
		c0-0.29-0.03-0.57-0.1-0.84C509.12,0.12,654.12,0.12,799.12,0.12z"/>
	<path class="st2" d="M364.12,0.12c0.07,0.28,0.1,0.56,0.1,0.84c-2.16,0.07-4.31,0.19-6.47,0.2C303.54,1.22,249.32,1.26,195.1,1.3
		c-1.31,0.02-2.63,0.05-3.94,0.07c-32.24-0.07-64.47-0.13-96.71-0.21c-1.82,0-3.65-0.12-5.47-0.18c-0.01-0.29,0.04-0.58,0.14-0.85
		C180.79,0.12,272.46,0.12,364.12,0.12z"/>
	<path class="st1" d="M89.12,0.12c-0.1,0.28-0.15,0.56-0.14,0.85c-27.8,0.05-55.6,0.1-83.39,0.13c-0.9,0-2.06,0.38-2.47-0.98
		C31.79,0.12,60.46,0.12,89.12,0.12z"/>
	<path class="st1" d="M654.16,195c2.69,1.73,5.87,2.02,8.83,2.95c4.49,1.41,6.51,3.99,5.29,8.87c-0.99,3.97-1.53,8.05-3.12,11.86
		c-0.92-1.34,1.19-4.31-1.84-4.28c-2.37,0.02-2.07,2.6-2.54,4.29c-0.18,0.64-0.39,1.29-0.45,1.94c-0.68,7.5-3.19,14.22-8.09,20.04
		c-0.93,1.1-1.91,2.67-1.87,3.99c0.24,7.5-4.42,10.14-10.68,11.48c-1.29,0.28-2.6,0.72-3.76,1.34c-3.2,1.72-4.09,5.57-1.4,7.93
		c5.51,4.82,11.14,9.78,19.41,8.43c0.37,3.61-0.82,5.93-4.74,4.22c-11.2-4.87-22.29-10.01-33.42-15.04
		c0.48-0.06,0.99-0.24,1.44-0.16c3.8,0.65,7.13,0.86,5.21-4.77c-0.44-1.27,0.34-1.79,1.5-1.96c2.53-0.35,2.97-2.35,3.35-4.35
		c2.23-11.9,4.49-23.79,6.63-35.7c0.69-3.83-1.09-6.52-4.73-7.7c-7.9-2.56-15.88-4.87-23.76-7.46c-2.88-0.95-4.57-0.09-5.28,2.66
		c-0.82,3.21-1.47,6.46-2.05,9.72c-1.42,7.99-0.95,16.26-3.65,24.06c-1.93,5.56-4.22,6.78-9.79,5.05c-6.16-1.91-6.18-1.89-6.66,4.75
		c-9.49-2.92-10.58-4.05-9.86-13.51c0.86-11.39,2.21-22.74,3.45-34.1c0.41-3.8,0.7-7.58,0.42-11.4c0.41-1.04,0.83-2.08,1.24-3.11
		c3.57,1.35,7.05,3.01,10.71,3.98c17.16,4.54,34.04,10.01,51,15.22c9.44,2.9,13.83-0.21,14.26-10.13
		C650.85,194.41,652.5,194.71,654.16,195z"/>
	<path class="st2" d="M577.98,247.17c0.48-6.64,0.5-6.66,6.66-4.75c5.57,1.72,7.86,0.51,9.79-5.05c2.7-7.8,2.22-16.07,3.65-24.06
		c0.58-3.26,1.24-6.52,2.05-9.72c0.7-2.75,2.39-3.61,5.28-2.66c7.89,2.59,15.87,4.9,23.76,7.46c3.64,1.18,5.42,3.87,4.73,7.7
		c-2.14,11.91-4.4,23.8-6.63,35.7c-0.37,2-0.82,3.99-3.35,4.35c-1.16,0.16-1.93,0.68-1.5,1.96c1.92,5.63-1.4,5.41-5.21,4.77
		c-0.46-0.08-0.96,0.1-1.44,0.16c0,0-0.11-0.01-0.11-0.01c-3.75-3.83-8.46-5.4-13.66-5.85l-0.44-0.04c0,0-0.44,0.03-0.44,0.03
		c-6.7-3.76-13.89-6.35-21.11-8.87C579.3,247.97,578.23,248.33,577.98,247.17z M609.98,239.36c-4.54-5.82-2.85-12.03-1.39-18.18
		c0.6-2.54,1.14-5.43,4.92-5.11c3.44,0.3,6.02,1.48,6.86,5.29c1.37,6.19,0.24,11.86-3.06,17.18c-0.64,1.04-2.34,1.65-1.48,3.33
		c0.52,1.02,1.49,1.3,2.54,1.16c2.15-0.28,1.76-2.19,2.03-3.51c1.25-6.02,2.33-12.07,3.56-18.09c0.56-2.75-0.35-4.44-3.04-5.37
		c-3.93-1.36-7.83-2.82-11.7-4.34c-2.59-1.02-2.9,0.45-2.81,2.39c0.35,6.76-1.52,13.18-2.94,19.67
		C602.29,239.18,603.7,240.47,609.98,239.36z"/>
	<path class="st2" d="M347.13,195.35c3.16,8.63,6.28,17.28,9.5,25.89c0.87,2.32,1.71,4.62,1.65,7.13c-0.83,1.36-2.25,0.51-3.35,0.9
		c-0.17-0.1-0.34-0.2-0.51-0.29c-0.42-1.28-0.84-2.56-1.26-3.84c-0.63-1.66-1.25-3.31-1.88-4.97c-0.62-5.2-3.53-9.49-5.6-14.12
		c-0.2-0.97-0.37-1.95-0.61-2.91c-1.71-6.88-2.11-7.1-9.15-5.22c-10.26,2.74-20.77,3.91-31.28,5.07c-9.35,1.03-9.64,1.36-5.96,10.18
		c0.06,0.15,0.18,0.28,0.27,0.42c-1.78,9.48,7.83,7.22,12.45,10.9c-9.25,2.12-10.26,4.56-5.16,10.38c0.11,0.12,0.24,0.23,0.36,0.34
		c0.78,2.07,0.77,4.19,0.37,6.34c-2.74,1.28-3.27-0.42-3.98-2.59c-2.51-7.63-5.17-15.21-7.93-22.75c-0.78-2.15-2.06-4.12-3.11-6.17
		c1.74-4.04-2.61-7.15-1.69-11.06c2.43-1.46,5.06-2.32,7.82-2.94c11.44-2.57,22.86-5.22,34.29-7.85c1.48-0.1,3.1,0.17,4.4-0.35
		c4.53-1.83,6.82,0.36,8.52,4.17C345.8,193.15,345.75,194.66,347.13,195.35z"/>
	<path class="st2" d="M126.86,230.22c-1.46,0-2.93,0-4.45,0c4.22,15.94,6.63,31.98,9.7,47.89c0.37,1.9-0.07,3.96-0.14,5.95
		c-1.79,0.39-3.57,0.79-5.36,1.18c-0.54-0.29-1.07-0.59-1.61-0.88c-0.21-3.17,4.75-4.42,3.03-8.15c-0.07-1.33,0.31-2.74-0.75-3.87
		c-0.49-5.86-1.88-11.55-3.33-17.23c-0.3-5.44-1.57-10.71-2.88-15.97c-0.29-2.2,1.55-5.72-2.42-5.85
		c-4.17-0.14-8.41,0.57-12.64,3.21c3.24,1.2,5.68,0.36,8.2-0.18c2.38-0.51,5.19-1.24,5.64,2.66c-10.83,3.53-21.94,5.78-33.23,7.15
		c-0.49-0.89-0.99-1.78-1.48-2.68c-0.36-1.85-0.72-3.69-1.08-5.53c1.5-2.05,3.73-2.62,6.07-2.96c9.53-0.75,18.87-2.41,28.71-5.59
		c-10.28-4.43-10.52-4.63-13.63-10.77c-0.83-1.67-1.38-3.39-0.88-5.28c5.63,5.7,7.16,6.05,12.27,2.81c0.63,0.13,1.58,0.03,1.86,0.41
		c4.51,6.21,10.54,4.85,16.6,3.44c1.61-0.38,3.24-0.64,4.87-0.95c0.13,2.42-1.92,3.24-3.38,4.36
		C133.38,225.77,130.09,227.95,126.86,230.22z"/>
	<path class="st3" d="M382.47,158.3c-1.61-6.06,1.3-10.27,5.73-13.79c3.75-2.98,9.54-2.39,11.71,1.83c2.13,4.14,4.34,8.1,6.81,12.06
		c3.66,5.84,4.15,13.23,2.96,20.31c-0.46,2.76-0.9,5.56-2.36,8.08c-2.85,4.94-6.82,5.38-11.2,1.13c-0.21-8.04,0.77-16.04-2.84-23.89
		C390.68,158.34,388.52,156.38,382.47,158.3z"/>
	<path class="st4" d="M446.97,433.91c2.09-6.13,3.76-12.48,9.99-16.09c1.92-1.11,1.23-2.86,0.32-4.37c-1.99-3.27-1.08-5.9,1.49-8.46
		c4.73-4.71,9.24-9.66,16.09-11.33c2.27-0.56,4.84-1.44,6.61,0.48c1.86,2.03-0.23,3.98-1.1,5.86c-3.54,7.7-7.08,15.4-10.62,23.1
		c-5.07,0.75-7.01,4.43-7.96,8.81c-0.89,4.09-3.76,5.45-7.39,6.19C450.63,438.87,448.5,436.98,446.97,433.91z"/>
	<path class="st2" d="M653.94,273.83c-8.27,1.36-13.89-3.61-19.41-8.43c-2.7-2.36-1.81-6.21,1.4-7.93c1.16-0.62,2.46-1.06,3.76-1.34
		c6.25-1.34,10.92-3.98,10.68-11.48c-0.04-1.32,0.94-2.89,1.87-3.99c4.9-5.82,7.41-12.54,8.09-20.04c0.06-0.66,0.28-1.3,0.45-1.94
		c0.47-1.68,0.17-4.27,2.54-4.29c3.03-0.02,0.92,2.95,1.84,4.28c-2,11.1-3.94,22.21-6.05,33.28c-0.55,2.89-1.36,5.82-2.63,8.46
		C654.4,264.72,654.33,269.28,653.94,273.83z"/>
	<path class="st5" d="M185.24,227.14c0.24-0.95,1.04-1.35,1.83-1.39c10.1-0.48,19.65-4.17,29.69-4.99c0.6,1.45,0.98,3.89,3.13,2.7
		c5.31-2.94,3.79,1.25,4.23,3.66c1.19,6.51-2.07,12.53-1.96,18.92c-4.16,0.5-7.62,3.59-12.01,3.23c-1.45-1.75-3.24-0.89-5.02-0.78
		c-2.8,0.17-6.22,0.25-6.68-3.34c-0.85-6.67-8.55-9.22-9.07-16.06C189.25,227.53,187.04,226.94,185.24,227.14z M218.92,235.14
		c0-6.31-1.2-7.23-9.52-7.31c-5.48-0.05-6.82,2.99-7.45,12.08c-0.47,6.78,4.94,4.59,7.26,4.85
		C215.43,245.43,218.93,241.38,218.92,235.14z"/>
	<path class="st3" d="M290.25,198.98c-0.92,3.91,3.43,7.02,1.69,11.06c-7.11-4.29-8.9-11.01-3.9-17.1
		c9.49-11.57,21.72-17.26,36.91-15.83c2.05,0.19,3.87,0.85,5.56,1.97c3.32,2.22,6.81,3.86,10.77,4.82
		c6.78,1.64,8.09,4.57,5.85,11.44c-1.38-0.68-1.33-2.19-1.85-3.34c-1.71-3.8-3.99-6-8.52-4.17c-1.3,0.53-2.92,0.26-4.4,0.35
		c-0.83-1.14-1.96-1.89-3.33-1.97c-12.47-0.81-24.58,0.3-35.45,7.26C291.65,194.72,289.53,196.05,290.25,198.98z"/>
	<path class="st3" d="M477.27,423.7c1.96-8.8,5.67-17.12,10.52-24.95c1.71-2.76,4.2-3.29,6.76-1.2c2.79,2.28,5.6,4.12,9.43,3.73
		c1.31-0.13,2.15,0.74,2.54,1.98c0.46,1.47-0.09,2.77-1.22,3.51c-1.51,0.99-3.24,1.65-4.9,2.4c-2.63,1.18-5.17,2.51-6,5.55
		c-1.86,6.85-7.82,9.28-13.26,12.08C478.99,427.9,476.7,427.37,477.27,423.7z"/>
	<path class="st3" d="M86.61,246.12c11.3-1.37,22.4-3.62,33.23-7.15c0.41,0.05,0.81,0.11,1.22,0.16c1.31,5.26,2.58,10.53,2.88,15.97
		c-4.91-2.63-9.67,0.47-14.53,0.46c-2.77-0.01-5.53,1.05-8.32,1.34c-7.93,0.82-10.15-0.6-13.24-8.08
		C87.48,247.91,87.03,247.02,86.61,246.12z"/>
	<path class="st5" d="M654.16,195c-1.65-0.29-3.31-0.58-4.96-0.88c-1.62-2.08-3.3-3.54-6.2-4.32
		c-20.78-5.64-41.46-11.67-62.17-17.58c1.03-0.42,1.35-1.2,1.15-2.24c2.81-1.8,6.05-2.37,9.02-1.28c7.04,2.6,14.61,3.19,21.55,6.66
		c2.96,1.48,7.22,4.42,11.57,2.04c0.25-0.14,0.78-0.15,0.96,0.02c5.65,5.35,14.19,4.67,20.19,10.16
		C647.94,190.04,651.95,191.51,654.16,195z"/>
	<path class="st4" d="M513.86,247.35c6.32,4.72,7.1,11.87,2.05,18.7c-0.29,0.01-0.58,0.02-0.86,0.04c-2.93-1.48-5.06-0.35-6.79,2.07
		c-0.26-3.09-1.38-5.55-4.67-6.45c-1.85-2.6-3.03-6.24-7.57-4.23c-1.2,0.53-0.96-0.99-1.14-1.6c-0.68-2.21-1.21-4.47-1.8-6.71
		c-1.15-2.48-0.05-4.87,0.39-7.24c1.1-5.91-1.23-9.2-7.21-9.77c-1.65-0.16-3.31-0.12-4.97-0.17c-0.15-0.22-0.24-0.46-0.28-0.72
		c1.46-3.84,4.88-1.36,7.26-2.25c4.54,0.25,8.01,2.93,11.67,5.16c-3.21,1.87,0.25,4.52-0.88,6.93c-2.42,5.14,0.87,8.84,4.42,13.25
		c0.59-4.01-0.09-9.03,5.67-5.28c1.31,2.49,2.63,4.97,3.93,7.46c0.49,0.94,1.16,1.8,2.29,1.43c1.2-0.39,1.08-1.64,0.85-2.54
		C515.53,252.72,514.67,250.04,513.86,247.35z"/>
	<path class="st1" d="M461.92,379.28c-3.55,4.01-8.65,5.69-12.96,8.55c-3.17,0.03-4.3,3.38-6.93,4.27c-1.25-1.81-0.44-4-1.09-5.93
		c-0.11-2.3,0.37-4.85-0.45-6.86c-2.15-5.22,0.41-4.76,3.89-3.73c1.64,0.48,4.35,0.65,4.1-1.06c-0.48-3.21,2.79-5.37,1.62-8.44
		c0,0-0.03,0.02-0.03,0.02c4.97-1.45,10.31-0.33,15.22-2.19c0.2,0.11,0.41,0.19,0.63,0.26
		C467.64,370.01,465.02,374.71,461.92,379.28z"/>
	<path class="st3" d="M293.06,333.86c-0.48-2.65,0.69-5.81,3.07-8.62c0.32-0.38,0.77-0.78,0.84-1.22
		c0.96-6.24,6.85-8.08,10.54-11.87c1.05-1.08,2.22-2.21,3.88-1.15c1.5,0.95,3.76,1.67,3.52,3.78c-0.43,3.87-0.23,8.35-3.92,10.79
		c-3.47,2.3-4.77,5.3-4.92,9.14c-0.07,1.97-1.11,3.55-2.33,4.83c-1.95,2.05-4.33,3.97-7.41,2.99
		C292.53,341.31,293.51,337.77,293.06,333.86z"/>
	<path class="st1" d="M416.24,275.23c0.17-0.15,0.37-0.25,0.59-0.29c0.67,0.05,1.17-0.12,1.24-0.89c0,0-0.03,0.02-0.03,0.02
		c6.5-0.5,10.22-3.74,10.39-10.5c2.83-1.26,6.1-1.18,8.76-3.05c1.58-1.11,2.75,0.05,3.77,1.19c3.79,4.24,0.52,7.11-1.98,10.14
		c-2.58,0.93-4.65,3.07-7.65,3.07c-4.66,0-4.7,2.62-3.09,5.91c1.65,3.38,4.15,6.35,4.82,10.19c-7.19,3.67-12.31,1.89-14.4-5.21
		C417.63,282.34,417.03,278.76,416.24,275.23z"/>
	<path class="st3" d="M188.77,208.2c3.03,0.01,5.9-0.84,8.8-1.57c2.79-0.7,5.6-1.19,7.74,1.52c-0.05,1.23-2.5,1.52-1.36,3.09
		c0.9,1.24,2.35,0.85,3.66,0.63c3.72-0.63,7.13-2.63,11.02-2.54c-3.68,5.04-15.23,8.1-20.75,5.32c-1.62-0.81-2.71-0.53-4.08,0.37
		c-10.19,6.7-22.22,8.27-33.52,11.85c-0.75,0.24-1.79,0.32-2.44-0.01c-2.81-1.46-5.46-2.23-7.67,1.59
		c-1.63-6.92-0.98-7.71,7.57-10.5c-1.21,3.79,0.42,4.47,3.79,3.63c6.25-1.54,12.53-2.93,18.8-4.38c1.78-0.41,3.68-0.65,3.94-3.03
		c0,0-0.14,0.05-0.14,0.05c0.33-0.26,0.66-0.52,0.99-0.78C187.04,212.18,188.03,210.28,188.77,208.2z"/>
	<path class="st3" d="M690.19,232.57c0.57-9.23,6.02-14.02,12.9-17.69c5.29-2.82,9.55-0.06,13.85,2.57c2.79,1.71,2.8,3.51,0.17,5.32
		c-5.46,3.76-11.03,7.33-17.39,9.4c-1.59,0.52-3.13,0.93-4.4,2.15c-0.86,0.82-1.01,2.99-2.79,2.16
		C690.72,235.64,690.36,233.68,690.19,232.57z"/>
	<path class="st5" d="M408.02,308.27c-0.93-2.07-1.88-4.13-2.79-6.21c-3.17-7.2-2.8-13.96,2.49-20.11c1.97,1.46,3.04,3.92,5.57,4.79
		c1.73,0.6,1.96,2.06,1.55,3.68c-2.16-0.61-3.92-0.1-5.07,1.91c-0.49,0.85-0.15,1.65,0.55,2.18c1.6,1.22,3.09,0.61,4.52-0.41
		c1.64,1.35,3.19,2.84,4.94,4.03c8.61,5.85,13.98,3.74,15.33-5.95c2.17,2.94,2.19,6.43,2.52,9.84c-1.71,0.83-1.38,2.45-1.51,3.9
		c-0.09,1.04-0.84,2.57-1.56,1.9c-3.05-2.86-8.24,0.26-10.6-4.05c-0.6-1.09-1.52-1.81-2.86-1.4c-1.53,0.46-1.78,1.74-1.93,3.13
		c-0.24,2.25,0.73,4.66-0.84,6.74c-2.33-0.87-1.9-3.2-2.64-4.92c-1.01-2.34-2.33-4.5-5.36-4.12
		C406.93,303.6,408.68,306.52,408.02,308.27z"/>
	<path class="st5" d="M446.97,433.91c1.53,3.07,3.65,4.96,7.42,4.19c3.63-0.74,6.51-2.1,7.39-6.19c0.95-4.38,2.89-8.06,7.96-8.81
		c1.59,4.94-2.96,7.73-4.24,11.69c-1.51,4.67-4.32,8.9-6.34,13.43c-0.91,2.03-2.5,2.5-4.31,2.75c-1.69,0.23-3.53,0.5-4.4,1.95
		c-2.83,4.73-4.53,1.58-6.13-0.83C440.79,446.72,441.79,440.33,446.97,433.91z"/>
	<path class="st5" d="M636.41,47.31c-4.3,6.35-10.82,10.14-17.06,14.02c-3.89,2.42-4.41-1.48-4.95-4.25
		c3.25-4.27,1.23-8.75,0.5-13.17c1.91-7.35,5.2-9.21,15.24-8.62c-3.81,3.14-3.74,6.66,0.44,9.4
		C632.33,45.85,634.45,46.46,636.41,47.31z"/>
	<path class="st5" d="M382.47,158.3c6.06-1.92,8.21,0.05,10.82,5.72c3.61,7.86,2.63,15.85,2.84,23.89
		c-1.68-0.64-3.31-1.54-5.04-1.87c-5.02-0.93-7.44-4.15-7.79-8.9C382.83,170.87,382.73,164.58,382.47,158.3z"/>
	<path class="st3" d="M418.32,312.23c1.57-2.08,0.6-4.49,0.84-6.74c0.15-1.39,0.4-2.67,1.93-3.13c1.34-0.4,2.26,0.31,2.86,1.4
		c2.36,4.31,7.56,1.2,10.6,4.05c0.72,0.67,1.47-0.86,1.56-1.9c0.13-1.45-0.2-3.07,1.51-3.9c5.87,6.03,5.08,10.63-1.94,14.47
		c-3.56,1.95-8.22,2.33-10.26,6.95c-0.62,1.4-2.92,1.13-4.3-0.28c1.83-3.05,0.83-5.31-1.96-7.08
		C418.34,314.91,418.08,313.62,418.32,312.23z"/>
	<path class="st4" d="M311.44,279.22c-6.35,4.2-12.85,8.11-20.26,10.2c-1.33-2.3-5.52-0.55-5.9-4.19c1.83-3.36,5.87-5.02,6.94-8.98
		c3.61-1.44,7.64-1.77,10.92-4.09c2.67-1.03,6.81,2.28,8.14-2.75c0.58-0.12,1.16-0.24,1.73-0.36c2.35-0.01,4.7-0.02,7.05-0.03
		c-0.35,1.64-1.27,3.22-0.48,4.97c-0.58,1.01-1.37,1.75-2.56,1.97c-1.02-2.06-2.9-2-4.72-1.75c-1.66,0.23-4.25-1-4.72,1.34
		C307.09,277.9,309.52,278.62,311.44,279.22z"/>
	<path class="st4" d="M222.15,246.03c-0.11-6.38,3.16-12.41,1.96-18.92c-0.44-2.4,1.08-6.6-4.23-3.66c-2.16,1.19-2.53-1.25-3.13-2.7
		c0,0,0.09-0.01,0.09-0.01c0.43-0.17,0.86-0.35,1.29-0.53c1.25-0.44,2.48-0.92,3.74-1.3c7.05-2.14,8.86-1,10.15,6.12
		c0.88,4.86,1.83,9.71,2.97,14.51c0.62,2.63-0.02,4.02-2.7,4.74C228.95,245.21,225.76,246.76,222.15,246.03z"/>
	<path class="st2" d="M340.87,287.49c-1.3,0.91-2.97,1.63-2.98,3.49c-0.02,4.52-2.95,6.63-6.52,8.3c-3.8-1.59-7.04-3.45-5.34-8.56
		c0.23-0.7-0.55-1.75-0.87-2.63c-0.36-4.78,1.94-8.48,4.84-11.94c2.67-2.03,5.12-1.02,7.1,0.93
		C339.94,279.89,342.71,282.91,340.87,287.49z"/>
	<path class="st2" d="M555.03,44.13c-5.73,0.57-11.9-1.1-16.47-7.09c-1.63-2.14-2.07-3.56,1.2-3.9c3.96-0.42,7.93-0.76,11.9-1
		c7.21-0.44,10.46,4.46,13.44,9.26c1.02,1.64,0.62,2.85-1.7,2.76C561.08,44.07,558.75,44.13,555.03,44.13z"/>
	<path class="st4" d="M672.16,37.23c4.47,0.3,8.94,0.66,13.41,0.88c2.79,0.14,2.75,2.07,2.48,3.89c-0.65,4.39-2.69,8.18-5.65,11.46
		c-1.04,1.16-2.64,2.29-3.81,0.68c-2.78-3.85-7.06-3.85-10.98-4.87c-0.53-1.7-1.66-3.23-1.52-5.13
		C669.84,43.35,672.8,41.87,672.16,37.23z"/>
	<path class="st3" d="M105.19,218.59c3.11,6.14,3.35,6.34,13.63,10.77c-9.85,3.18-19.18,4.84-28.71,5.59
		c0.16-4.13,0.33-8.24-1.44-12.17c-0.67-1.49-1.28-3.47,0.75-4.28c2.43-0.96,2.36,1.3,2.92,2.8c0.85,2.26,1.29,5.82,3.59,6
		c2.85,0.23,5.24-2.34,6.85-4.98C103.56,221.07,104.39,219.84,105.19,218.59z"/>
	<path class="st5" d="M428.43,263.57c-0.17,6.76-3.89,10-10.39,10.5c0.32-2.83,3.33-2.24,4.75-3.71c0.83-0.86,1.76-1.72,1.71-2.89
		c-0.07-1.43-1.41-1.69-2.56-1.87c-5.45-0.86-7.09-6.13-10.64-9.18c-0.75-0.65-0.81-1.66,0.11-2.6c4.76-4.85,12.64-5.24,16.84-0.21
		c2.06,2.46,4.17,2.85,6.87,2.67c-1.28,1.38-3.09,0.79-4.64,1.21C425.07,258.94,424.9,259.34,428.43,263.57z"/>
	<path class="st4" d="M185.24,227.14c1.8-0.2,4.02,0.39,4.13,1.93c0.52,6.84,8.22,9.39,9.07,16.06c0.46,3.59,3.88,3.51,6.68,3.34
		c1.78-0.11,3.57-0.97,5.02,0.78c-4.96,1.3-9.9,2.67-14.88,3.86c-2.4,0.57-4.9,0.49-5.68-2.48c-1.86-7.05-3.56-14.13-5.21-21.23
		C184.22,228.75,184.93,227.9,185.24,227.14z"/>
	<path class="st3" d="M257.08,197.08c3.8,7.76,3.78,7.95-4.46,9.08c-2.35,0.32-4.08,1.96-6.5,2.14c-2.65,0.2-4.98,2.18-6.55-2.34
		c-0.85-2.45-4.38-0.34-6.74,0.25c0.65,1.59,2.74,0.61,3.25,2.43c-3.34,1.24-6.56,1.31-9.71-0.59c3.26-1.71,7.34-2.86,5.49-8.05
		c5.09-0.5,10.19-0.93,15.27-1.52c1.99-0.23,4.04-0.72,4.05-3.44c0.32,0.07,0.64,0.15,0.96,0.25c0.15,1.82-0.83,4.33,1.96,4.77
		c2.07,0.33,1.97-1.67,2.15-3.1l0.43-0.02L257.08,197.08z"/>
	<path class="st5" d="M340.87,287.49c1.84-4.58-0.93-7.6-3.77-10.4c-1.98-1.96-4.43-2.96-7.1-0.94c-1-4.6,3.78-6.48,4.77-10.14
		c1.38-0.74,2.58-1.66,3.36-3.06c1.72,0.17,3.45,0.34,5.17,0.51c-0.16,4.1,2.79,4.94,5.9,5.63l-0.03-0.03
		c-0.2,1.87,0.26,3.4,2.17,4.17c-0.3,1.84-0.99,3.56-2.31,4.83C346.03,280.97,341.48,282.51,340.87,287.49z"/>
	<path class="st4" d="M435.1,292.18c-1.34,9.69-6.72,11.81-15.33,5.95c-1.75-1.19-3.3-2.68-4.94-4.03c0-1.23,0-2.45,0-3.68
		c0.41-1.62,0.19-3.08-1.55-3.68c-2.53-0.87-3.6-3.33-5.57-4.79c1.83-3.53,5.44-4.8,8.53-6.72c0.79,3.53,1.39,7.11,2.41,10.57
		c2.09,7.1,7.22,8.88,14.4,5.21c0.68,0.38,1.35,0.76,2.03,1.13L435.1,292.18z"/>
	<path class="st2" d="M581.78,50.08c7.19,0.04,12.11,3.76,16.09,9.22c0.93,1.28,0.66,1.95-0.75,2.55
		c-7.16,3.05-21.35-1.26-25.44-7.63c-1.3-2.02,0.07-2.31,1.35-2.58C575.93,51.04,578.86,50.6,581.78,50.08z"/>
	<path class="st5" d="M277.28,314.34c0.01,0.17,0.09,0.45,0.03,0.48c-10.23,5.48-18.85,15.31-32.34,11.97
		c1.91-6.23,1.91-6.23-3.84-5.74c0.35-0.99,0.7-1.99,1.04-2.98c0.2-0.12,0.42-0.17,0.65-0.16c2.05,0.36,3.34,2.9,5.82,2.04
		c4.56-0.19,9.15-0.14,13.67-0.69c1.64-0.2,1.19-2.09,0.33-3.21c-0.78-1.02-1.79-1.87-2.69-2.79c2.06-1.54,4.59-1.61,6.96-2.19
		c1.72,4.03,3.83,0.3,5.76,0.29C273.85,312.91,275.47,313.77,277.28,314.34z"/>
	<path class="st5" d="M387.9,479.13c-0.19-2.57-2.55-5.64,1.17-7.4c3.51-1.66,6.31,0.05,8.82,2.55c2.94,2.92,3.62,6.48,3.4,10.43
		c-0.14,2.46-0.01,4.94-0.01,7.41c-2.02,1.01-3.69,2.73-6.09,2.96c0,0-0.02-0.01-0.02-0.01
		C392.82,489.72,392.92,483.26,387.9,479.13z"/>
	<path class="st4" d="M306.96,241.56c0.4-2.14,0.41-4.26-0.37-6.34c3.32-2.08,7.14-0.65,10.67-1.61
		c10.98-2.98,21.73-6.64,32.46-10.42c2.05-0.72,1.1-2,1.56-3.01c0.63,1.66,1.25,3.31,1.88,4.97c-3.69,1.42-7.4,2.8-11.07,4.29
		c-0.68,0.28-2.41,0.78-0.31,1.74c-9.47,2.66-18.95,5.31-28.41,8C311.18,239.8,308.85,240.09,306.96,241.56z"/>
	<path class="st2" d="M532.07,41.98c-7.17-0.37-13.75,1.66-19.9-2.49c-2.07-1.4-4.94-2.28-4.61-4.97c0.32-2.6,3.34-1.31,5.12-1.7
		C522.05,30.77,526.88,32.96,532.07,41.98z"/>
	<path class="st3" d="M313.01,269.05c-0.58,0.12-1.16,0.24-1.73,0.36c-0.96-0.62-1.91-1.25-2.89-1.84
		c-1.29-0.79-2.13-2.92-4.08-1.82c-1.73,0.97-1.06,2.9-1.19,4.46c-0.05,0.65,0.01,1.3,0.03,1.95c-3.28,2.32-7.31,2.65-10.92,4.09
		c-0.46-3.29,0.37-5.85,3.87-6.98c3.73-1.2,4.93-4.17,4.97-7.69c0.03-3.26,0.64-5.88,4.41-6.62c2.06-0.4,1.2-2.43,1.8-3.65
		c0.76,4.88,3.06,9.05,5.91,12.96c-0.02,0.22-0.02,0.45,0,0.68C313.11,266.32,313.06,267.68,313.01,269.05z"/>
	<path class="st3" d="M452.96,272.26c-1.61-2.06,0.35-6.92-4.85-6.15c2.54-1.94,2.95-4.01,0.39-6.27c-0.2-1.08-0.4-2.15-0.61-3.23
		c4.87-2.52,10.04,0.43,15.11-0.84c2.15-0.54,2.68,2.67,1.88,4.08c-1.43,2.49-1.61,4.65-0.79,7.33c0.59,1.94-0.5,3.51-2.67,4
		C457.01,266.88,455.47,267.07,452.96,272.26z M457.98,264.06c0.02-1.16-0.58-1.81-1.76-1.85c-1.14-0.04-1.89,0.53-1.97,1.71
		c-0.08,1.15,0.44,1.93,1.67,1.91C457.01,265.82,457.76,265.24,457.98,264.06z"/>
	<path class="st2" d="M231.86,199.99c1.85,5.19-2.23,6.34-5.49,8.05c-2.71-0.3-5.17,0.79-7.74,1.28c-3.89-0.09-7.3,1.9-11.02,2.54
		c-1.31,0.22-2.77,0.61-3.66-0.63c-1.14-1.57,1.32-1.86,1.36-3.09c2.59-1.99,4.6-4.94,8.33-5.03c0.85,0.36,1.97,0,2.58,1.03
		c0.59,1,1.36,2.06,2.68,1.41c1.66-0.82,0.54-2.26,0.49-3.45C223.28,199.79,227.58,199.94,231.86,199.99z"/>
	<path class="st3" d="M509,297.11c0.99,0.89,2.26,1.96,1.73,3.26c-0.62,1.52-1.95,0.43-2.93,0c-2.02-0.88-2.81,0.51-3.24,1.94
		c-0.62,2.04-1.73,4.41-1.2,6.22c1.26,4.31-0.54,7.51-2.54,10.84c-1.17-0.35-2.35-0.71-3.52-1.06c-0.81-5.67,0-11.12,2.08-16.45
		c2.2-5.62,4.25-11.3,6.37-16.95C506.91,288.95,504.42,293.97,509,297.11z"/>
	<path class="st3" d="M334.78,266.01c-0.99,3.66-5.77,5.54-4.77,10.14c-2.9,3.46-5.2,7.16-4.84,11.94c-0.25,0.92-0.23,2.39-0.8,2.68
		c-3.49,1.74-3.01,4.6-2.48,7.55c-4.09-0.6-4.17-3.23-3-6.26c1.02-2.63,1.68-5.35,2.48-8.03c1.61-5.4-1.02-6.7-5.47-6.93
		c0.37-0.38,0.74-0.76,1.11-1.13c1.19-0.22,1.98-0.96,2.56-1.97C325.06,272.15,329.6,268.47,334.78,266.01z"/>
	<path class="st3" d="M152.9,311.66c-4.93-0.8-8.3-3.48-9.93-8.26c0.71-1.1,1.42-2.2,2.13-3.3c0.25,1.19,0.78,2.04,1.72,0.55
		c1.5-2.38,2.77-4.9,4.22-7.31c0.72-1.21,1.1-3.26,2.94-2.84c1.87,0.42,0.91,2.56,1.44,3.85c-5.71,1.72-2.51,5.19-1.46,8.05
		c1.1,2.98,3.51,4.08,6.59,3.39c0.34-0.08,0.47-1.1,0.7-1.69c1.38,2.19,2.11,4.54,1.75,7.16c-0.63-0.33-1.25-0.66-1.88-1
		C158.27,310.07,155.33,309.35,152.9,311.66z"/>
	<path class="st3" d="M429.27,405.92c-1.65-0.55-3.34-1.72-5.03-0.42c-2.44,1.88-3.77,0.35-5.12-1.4c-2.85-8.4-5.7-16.79-7.33-25.54
		c2.65-1.04,3.1,0.46,3.31,2.65c0.25,2.6,0.27,5.52,3.97,5.85c0.73,3.88,4.66,5.65,6.03,9.1c-0.14,3.72,3.59,5.51,4.37,8.76
		C429.4,405.26,429.33,405.59,429.27,405.92z"/>
	<path class="st3" d="M397.95,381.83c-3.37-5.08-8.29-8.04-13.03-12.43c6.91,0.31,12.62,0.18,17.9-2.77
		c1.65-0.92,3.61-0.88,5.19,0.37c1.55,1.23,1.36,2.95,0.73,4.57c-1.06,2.73-2.58,5.55-5.81,5.39
		C399.38,376.79,397.87,377.91,397.95,381.83z M401.25,369.27c-1,0.25-1.98,0.83-1.94,2.19c0.05,1.53,1.3,1.71,2.47,1.65
		c1.16-0.06,2.44-0.32,2.16-1.92C403.73,369.93,402.76,369.32,401.25,369.27z"/>
	<path class="st2" d="M551.83,58.14c-4.78,0.26-8.47-1.87-11.66-5.22c-0.88-0.93-1.44-1.84-0.98-3.09c0.36-0.98,1.34-0.77,2.12-0.93
		c7.2-1.53,13.76-0.19,19.59,4.39C559.26,57.49,555.6,57.93,551.83,58.14z"/>
	<path class="st5" d="M672.16,37.23c0.64,4.64-2.32,6.12-6.07,6.92c-2.34,0.26-3.97-0.5-5.42-2.58c-2.56-3.66-6.26-3.67-10.25-2.5
		c-4.07,1.19,0.07,4.07-1.35,5.76c-0.18,0.22-0.11,0.64-0.16,0.97c-2.77-1.5-5.66-2.46-8.87-1.86c0.82-3.53,5.9-3.74,6.07-7.79
		C654.81,36.36,663.55,35.32,672.16,37.23z"/>
	<path class="st3" d="M379.13,182.15c-2.88,3.6-4.91,1.42-6.41-1.21c-3.01-5.27-0.76-20.25,3.52-24.6c0.42-0.43,1.13-0.93,1.61-0.85
		c0.9,0.15,1.23,1.06,1.22,1.92c-0.02,2.98-0.1,5.95-0.16,8.93C375.37,171.65,377.61,176.9,379.13,182.15z"/>
	<path class="st4" d="M654.18,398.69c2.37,2.31,4.79,4.57,7.1,6.94c1.7,1.75,1.07,3.62,0.07,5.5c-1,1.89-2.47,2.73-4.52,1.96
		c-1.62-0.61-3.1-0.59-4.82-0.26c-6.97,1.31-10.53-0.61-14.06-6.6c-1.74-2.95,1.12-5.39,0.32-8.12c1.83,2.07,0.58,5.7,3.61,7.17
		c1.49,4.4,4.24,6.04,8.08,4.82c3.5-1.12,4.74-5.07,3.11-9.93C653.44,399.67,653.81,399.18,654.18,398.69z"/>
	<path class="st5" d="M525.16,396.05c-6.6-0.15-13.12-0.88-19.58-2.36c-3.81-0.88-4.67-4.7-8.11-6.22
		c7.74-5.45,13.32,1.74,19.73,1.82c-0.41,2.92,0.48,4.83,3.8,4.8C522.71,394.07,524.25,394.38,525.16,396.05z"/>
	<path class="st4" d="M646.12,36.14c-0.16,4.04-5.24,4.25-6.07,7.79c-1.77,0.53-2.46,2.23-3.65,3.38c-1.96-0.86-4.08-1.47-5.84-2.62
		c-4.17-2.73-4.25-6.26-0.44-9.4C635.5,34.81,640.81,35.43,646.12,36.14z"/>
	<path class="st3" d="M354.93,229.27c1.09-0.39,2.52,0.46,3.35-0.9c4.81,5.4,3.9,9.11-2.83,11.33c-1.83,0.6-3.46,1.24-3.56,3.52
		c-4.01-1.05-2.09,2.45-2.94,3.83c-1.24-0.34-2.49-0.68-3.73-1.02c-0.34-0.32-0.67-0.65-1.01-0.97c-0.3-0.37-0.6-0.75-0.9-1.12
		c0.03-0.58,0.07-1.16,0.1-1.74c1.43-0.09,3.26-0.01,3.33-1.87c0.09-2.21-2.31-2.28-3.65-3.25c0.74-3.06,2.73-3.89,5.62-3.2
		c1.95,0.47,4.01,0.84,5.86-0.06C357.01,232.64,357.86,231.03,354.93,229.27z"/>
	<path class="st2" d="M184.26,214.16c-0.26,2.38-2.16,2.62-3.94,3.03c-6.27,1.45-12.55,2.84-18.8,4.38
		c-3.37,0.83-4.99,0.16-3.79-3.63c5.7-3.96,11.66-7.18,18.91-6.79C177.19,217.17,181.46,213.81,184.26,214.16z"/>
	<path class="st4" d="M448.5,259.84c2.56,2.26,2.15,4.33-0.39,6.27c-2.92,1.66-3.71,6.04-7.84,6.17c-0.43-0.15-0.86-0.29-1.29-0.44
		c2.49-3.02,5.77-5.9,1.98-10.14c-1.02-1.14-2.19-2.3-3.77-1.19c-2.65,1.87-5.93,1.79-8.76,3.05c-3.53-4.22-3.36-4.62,2.05-6.09
		c1.54-0.42,3.35,0.17,4.64-1.21c0.61-0.1,1.21-0.2,1.82-0.3C441.34,255.63,444.48,259.03,448.5,259.84z"/>
	<path class="st3" d="M126.86,230.22c3.23-2.27,6.52-4.46,9.66-6.85c1.46-1.11,3.51-1.94,3.38-4.36c2.66-0.43,5.33-0.54,6.68,2.34
		c1.04,2.21,0.71,4.54-0.56,6.66c-1.62,2.69-4.15,2.34-6.63,1.85c-1.29-0.26-2.53-0.96-3.68,0.28
		C132.79,233.32,129.83,232.32,126.86,230.22z"/>
	<path class="st1" d="M509.16,249.08c-5.76-3.75-5.08,1.27-5.67,5.28c-3.56-4.41-6.84-8.1-4.42-13.25c1.13-2.41-2.32-5.06,0.88-6.93
		c4.67,2.73,9.22,5.57,11,11.15C506.73,244.86,509.57,247.74,509.16,249.08z"/>
	<path class="st4" d="M145.1,300.1c-0.71,1.1-1.42,2.2-2.13,3.3c-4.9-3.76-8.23-8.88-11.93-13.69c-1.28-1.67-2.29-3.64-4.44-4.47
		c1.79-0.39,3.58-0.79,5.36-1.18c2.56,4.02,4.64,3.81,7.1-0.75c0.78,4.44,1.56,8.88,2.45,13.93c1.99-1.16,3.55-2.47,5.56-2.31
		C146.42,296.65,145.76,298.38,145.1,300.1z"/>
	<path class="st2" d="M577.94,41.93c-2.2-2.26-6.38-3.77-4.9-7.71c1.6-4.24,5.81-1.78,8.8-1.89c2.34-0.09,4.74,1.1,7.11,1.73
		C588.97,40.45,586.22,42.42,577.94,41.93z"/>
	<path class="st1" d="M345.21,246.03c1.24,0.34,2.49,0.68,3.73,1.02c0.09,0.48,0.3,0.97,0.25,1.43c-0.15,1.3-2.18,2.47-0.44,3.88
		c1.55,1.25,3.15,0.02,4.61-0.44c0.83-0.26,1.42-1.27,2.12-1.94c0.84,0.11,1.69,0.21,2.53,0.32c0.71,0.75,1.41,1.51,2.12,2.26
		c-1.96,0.88-3.92,1.75-5.88,2.63c-4.07,1.13-8.15,2.25-12.22,3.37c0.25-1.62-0.58-2.4-2.07-2.67c-0.04-0.21-0.05-0.42-0.03-0.63
		c2.04-0.41,4.27-0.42,5.9-2.67c-3.48-1.5-5.98,0.41-8.62,1.47c-0.73-0.03-1.45-0.05-2.18-0.08c-0.01-1.23-0.02-2.45-0.03-3.68
		C337.86,247.57,341.91,247.7,345.21,246.03z"/>
	<path class="st3" d="M481.29,232c1.66,0.05,3.32,0.02,4.97,0.17c5.98,0.57,8.3,3.86,7.21,9.77c-0.44,2.37-1.54,4.76-0.39,7.24
		c-5.82,1.43-7.17,0.11-6.08-6.07c0.43-2.4-0.05-4.31-2.41-5.27C481.88,236.73,480.89,234.79,481.29,232z"/>
	<path class="st1" d="M75.11,144.55c-2.89-7.15-5.85-14.27-8.59-21.48c-0.57-1.51-1.71-3.96,0.41-4.83c2.69-1.1,3.02,1.77,3.78,3.45
		c2.88,6.42,5.73,12.85,8.51,19.31c0.77,1.78,1.75,3.69-0.13,5.47c-0.24-1.61,0.36-3.69-2.16-4.06
		C75.22,142.14,75.45,143.6,75.11,144.55z"/>
	<path class="st1" d="M96.01,176.69c0.56,1.18,1.05,2.4,1.69,3.53c3.69,6.47,3.5,7.88-2.16,13.88c-3.85-5.77-5.57-12.27-7.35-18.75
		C90.79,175.79,93.4,176.24,96.01,176.69z"/>
	<path class="st4" d="M510.12,204.08c0.12,4.81-5.8,12.98-10.04,13.97c-1.39,0.33-3.05,0.88-4.12-0.63
		c-1.29-1.82,0.61-2.53,1.46-3.62c2.91-3.77,4.28-8.75,8.89-11.2c0.97-0.52,1.67-1.77,3.01-0.93
		C510.33,202.32,510.04,203.41,510.12,204.08z"/>
	<path class="st5" d="M343.08,237.07c1.35,0.97,3.75,1.04,3.65,3.25c-0.08,1.86-1.91,1.78-3.33,1.87
		c-3.64-0.89-7.36-2.58-10.55,1.06c-1.6-0.35-3.2-0.99-4.81-0.99c-2.44-0.01-5.39-1.42-6.98,1.88c-2.84-0.22-5.22,1.46-7.89,1.94
		c-1.39-1.64-3.77-0.48-5.26-1.84c3.16-0.04,6.2-0.38,8.82-2.48c0.71-0.57,1.91-1.01,2.77-0.85c4.49,0.84,8.06-0.37,11.64-3.35
		C334.65,234.64,339.12,238.7,343.08,237.07z"/>
	<path class="st5" d="M440.94,386.18c0.65,1.92-0.16,4.11,1.09,5.93c-0.28,0.69-0.57,1.38-0.86,2.07c-0.67,0.14-1.33,0.28-2,0.41
		c-1.56-5.94-2.32-12.14-5.57-17.54c-0.78-2.17-1.55-4.62-3.69-5.59c-4.43-1.99-4.7-5.3-3.7-9.28c2.97,0.72,6.24,0.77,8.15,3.78
		c-1.17,0.18-2.51,0.34-2.39,1.92c0.19,2.5,1.93,3.69,4.15,4.34c1.54,2.4,2.18,4.99,2.02,7.87
		C438,382.51,437.97,385.09,440.94,386.18z"/>
	<path class="st3" d="M580.01,248.27c7.22,2.52,14.41,5.11,21.11,8.87c-1.93,0.93-3.84,1.89-5.79,2.77
		c-2.84,1.27-5.4,1.14-7.49-1.52c-0.59-0.76-1.4-1.84-2.17-1.89C580.22,256.13,580.45,252,580.01,248.27z"/>
	<path class="st5" d="M509,297.11c-4.57-3.14-2.09-8.16-3.25-12.21c0.17-1.91,0.34-3.81,0.51-5.72c0.56-0.73,1.12-1.47,1.68-2.2
		c0.6,1.59,1.2,3.17,2.23,5.87c1.68-5.75-0.95-11.82,4.88-14.8c0.14,0.13,0.29,0.26,0.43,0.39c-1.57,6.88-3.43,13.78-2.95,20.86
		C512.75,292.86,509.44,294.21,509,297.11z"/>
	<path class="st1" d="M493.99,197.35c-1.16,0.98-2.33,1.97-3.49,2.95c-0.71-1.66-2.28-3.13-1.18-5.2c4.59-0.73,7.43-5.05,11.97-5.87
		c0.62,3.35,2.93,1.35,4.58,1.44c1.01,1.32,4.4,1.07,3.48,3.2c-1.23,2.87-2.96,6.06-6.67,6.65c-2.1,0.33-3.38-0.85-3.51-3.07
		c1.65-2.32,0.64-3.23-1.79-3.23C495.35,194.21,494.95,196.11,493.99,197.35z"/>
	<path class="st3" d="M433.6,377.05c3.25,5.41,4.01,11.6,5.57,17.54c-1.25,2.28-2.17,4.78-4.31,6.47c-2.12-2.32,2.12-4.65,0.48-6.17
		c-2.55-2.36-3.45,3-6.11,2.08c-0.03-0.27-0.08-0.53-0.15-0.79c0-0.67,0-1.33,0-2c2.44-1.75,2-4.35,1.95-6.8
		C430.96,383.69,430.87,380.02,433.6,377.05z"/>
	<path class="st3" d="M342.03,258.57c4.07-1.13,8.15-2.25,12.22-3.38c0.53,3.23,2.36,1.13,3.55,0.74c2.64-0.85,5.11-1.58,6.51,1.81
		c-1.87,0.86-3.74,1.73-5.61,2.59c-1.54-0.22-3.07-0.33-4.48,0.54c-3.64,0.86-7.28,1.72-10.92,2.59c-1.72-0.17-3.45-0.34-5.17-0.51
		c-0.51-0.66-1.03-1.32-1.55-1.98C338.4,260.17,340.21,259.37,342.03,258.57z"/>
	<path class="st4" d="M418.32,312.23c-0.24,1.39,0.03,2.68,0.84,3.84c-1.08,1.41-2.16,2.82-3.25,4.23
		c-4.87-2.54-7.24-6.73-7.89-12.03c0.67-1.75-1.09-4.67,2.3-5.09c3.03-0.37,4.36,1.78,5.36,4.12
		C416.42,309.03,415.99,311.36,418.32,312.23z"/>
	<path class="st3" d="M648.93,45.79c0.05-0.33-0.02-0.75,0.16-0.97c1.41-1.69-2.73-4.57,1.35-5.76c3.99-1.17,7.69-1.16,10.25,2.5
		c1.45,2.07,3.08,2.84,5.42,2.58c-0.14,1.9,0.99,3.43,1.52,5.13c-0.72,0.53-1.54,0.66-2.28,0.2
		C660.29,46.35,654.62,46.01,648.93,45.79z"/>
	<path class="st4" d="M411.79,378.57c1.63,8.75,4.48,17.14,7.33,25.54c-0.66-0.03-1.32-0.06-1.97-0.09
		c-1.34-1.72-2.41-3.76-4.94-4.01c-2.44-5.35-3.21-11.01-3.09-16.83C409.15,381.16,409.27,379.16,411.79,378.57z"/>
	<path class="st1" d="M147.08,294.93c-2.01-0.16-3.57,1.15-5.56,2.31c-0.89-5.05-1.67-9.49-2.45-13.93c0.07-1,0.14-2.01,0.22-3.02
		c1.21,1.4,2.42,2.8,3.53,4.09c2.21-0.64,0.34-3.27,2.95-4.11c0.01,2.48,0.67,4.62,3.35,5.09
		C149.39,288.75,149.7,292.15,147.08,294.93z"/>
	<path class="st5" d="M589.04,332.82c1.13-0.26,2.27-0.47,3.39-0.78c4.06-1.16,7.69-1.73,7.99,4.3c0.05,0.94,1.2,1.83,1.95,2.9
		c-5.83,1.74-11.52,1.92-17.25,1.77C587.62,338.85,590.29,336.77,589.04,332.82z"/>
	<path class="st3" d="M581.97,169.97c0.2,1.05-0.12,1.83-1.15,2.24c-6.33,0.13-7.66,1.41-7.63,7.41c0.01,1.81,0.02,3.61,0.02,5.42
		c-0.41,1.04-0.83,2.08-1.24,3.11c-2.16,0.16-3.23-0.88-3.95-2.91c-1.41-3.99-0.63-7.85,0.19-11.75c0.38-1.81,1.82-2.14,3.39-2.31
		C575.07,170.82,578.52,170.38,581.97,169.97z"/>
	<path class="st5" d="M489.32,195.1c-1.1,2.07,0.47,3.54,1.18,5.2c-0.55,0.82-1.05,1.69-1.67,2.46c-0.92,1.15-1.82,2.69-3.6,1.99
		c-2.13-0.84-1.52-2.86-1.1-4.33c0.79-2.78,1.04-5.42,0.11-8.24c-0.54-1.65,0.13-3.35,1.39-4.57c1.62-1.57,3.42-4.09,5.83-2.39
		c2.64,1.86,0.87,4.08-0.83,5.83C489.52,192.2,488.89,193.47,489.32,195.1z"/>
	<path class="st5" d="M429.08,394.18c0,0.67,0,1.33,0,2c-1.33-0.01-2.65-0.01-3.98-0.02c-1.37-3.45-5.29-5.22-6.03-9.1
		c0.14-2.13,0.22-4.26,0.46-6.38c0.15-1.25,0.99-2.14,2.27-2.27c1.34-0.14,2.02,0.68,2.47,1.93
		C425.94,384.93,426.66,389.85,429.08,394.18z"/>
	<path class="st3" d="M434.37,365.96c-1.91-3-5.18-3.06-8.15-3.78c-1.15-4.89,2.86-3.34,5.06-4.06c3.21-0.49,4.33-3.91,7.09-5.04
		c1.49,4.9,0.07,10.2,2.05,15.03C438.11,368.21,436.2,367.18,434.37,365.96z"/>
	<path class="st4" d="M149.12,285.35c-2.68-0.47-3.34-2.61-3.35-5.09c-2.6,0.84-0.74,3.48-2.95,4.11c-1.11-1.29-2.32-2.69-3.53-4.09
		c0.01-1.99,0.01-3.98,0.02-5.98c2.27-0.69,4.61,2.17,6.84-0.14c3.05-0.65,4.5,1.11,5.46,3.62
		C152.83,281,152.07,283.53,149.12,285.35z"/>
	<path class="st3" d="M273.55,203.23c-2.06-0.38-4.41,0.37-4.88-2.09c-0.55-2.9,6.48-8.86,10-8.47c3.04,0.34,3.55,3.02,3.33,5.25
		C281.46,203.37,276.61,202.18,273.55,203.23z"/>
	<path class="st1" d="M307.92,244.24c1.49,1.36,3.86,0.21,5.26,1.84c-2.52,3.52-0.82,7.46,0.61,10.16c1.8,3.38,1.56,5.5-0.62,8.04
		c-2.85-3.92-5.15-8.09-5.91-12.96c-0.36-0.9-0.48-2.07-1.13-2.65C302.37,245.35,303.72,244.26,307.92,244.24z"/>
	<path class="st5" d="M356.65,78.24c-2.38-6.08-4.47-11.24-6.38-16.46c-0.37-1.02-0.17-2.29-0.06-3.43c0.15-1.56,0.7-2.95,2.51-3.21
		c1.88-0.26,2.52,1.09,3.14,2.53c1.86,4.26,1.44,8.72,1.23,13.17C356.99,72.98,356.83,75.11,356.65,78.24z"/>
	<path class="st4" d="M399.78,38.89c0.49-1.86,1.71-3.74-0.03-5.58c-1.08-1.13-2.23-0.41-3.15,0.16c-2.24,1.39-3.05,3.4-2.06,5.97
		c0.69,1.79,1.35,3.99-1.31,4.24c-2.26,0.22-1.96-2.19-2.09-3.76c-0.13-1.65-0.02-3.32-0.2-4.97c-0.41-3.66-0.27-6.2,4.82-4.91
		c3.66,0.92,7-2.74,10.93-1.82c0.77,0.18,1.54,0.36,2.31,0.54c-3.79,0.21-5.84,2.44-7.25,5.77
		C401.14,35.98,401.58,37.97,399.78,38.89z"/>
	<path class="st2" d="M259.94,313.26c0.91,0.92,1.91,1.77,2.69,2.79c0.86,1.12,1.31,3.01-0.33,3.21c-4.52,0.55-9.11,0.5-13.67,0.69
		c-0.52-1.59-1.05-3.17-1.57-4.76c0.02-0.5,0.05-0.99,0.07-1.49c2.13-0.57,4.26-1.13,6.39-1.7
		C255.56,312.94,257.68,313.46,259.94,313.26z"/>
	<path class="st4" d="M414.1,37.18c0.56,3.37,1.01,6.73-2.99,8.47c-2.89,1.26-10-1.15-11.88-3.96c3.48,2.07,5.71,1.55,5.89-2.93
		c0.1-2.46,1.9-4.12,2.76-6.21C408.41,36.17,411,37.02,414.1,37.18z"/>
	<path class="st4" d="M541.95,474.17c0.55,6.22-0.09,7.8-5.15,11.85c0.74-6.81-2.23-13.09-0.67-19.84c2.75,1.34,2.81,3.96,4.02,5.82
		C540.75,472.73,541.35,473.45,541.95,474.17z"/>
	<path class="st3" d="M176.97,307.24c3.66,0.32,4.81,2.01,3.39,5.57c-0.93,2.35,0.04,5.25-1.94,7.37c-1.86-1.75-3.27-3.82-6.66-2.57
		c-2.48,0.92-2.58-1.68-2.69-3.5c0.45-0.76,0.9-1.53,1.35-2.29C172.8,310.57,176.29,310.91,176.97,307.24z"/>
	<path class="st5" d="M438.98,271.84c0.43,0.15,0.86,0.29,1.29,0.44c-3.4,1.68-3.49,6.81-7.83,7.51c0.21,0.93,0.3,1.92,0.66,2.79
		c1.27,3.07,2.49,6.13,1.98,9.56c-0.68-0.38-1.35-0.76-2.03-1.13c-0.66-3.84-3.16-6.82-4.82-10.19c-1.61-3.29-1.56-5.91,3.09-5.91
		C434.34,274.91,436.4,272.77,438.98,271.84z"/>
	<path class="st4" d="M440.94,386.18c-2.97-1.09-2.93-3.67-2.8-6.09c0.16-2.89-0.48-5.47-2.02-7.87c2-0.78,5.55,1.46,5.69-2.93
		c4.11,2.41,5.87-1.24,8.29-3.21c1.18,3.07-2.1,5.23-1.62,8.44c0.26,1.71-2.46,1.54-4.1,1.06c-3.48-1.02-6.04-1.49-3.89,3.73
		C441.31,381.32,440.83,383.87,440.94,386.18z"/>
	<path class="st1" d="M116.58,216.12c-5.12,3.24-6.64,2.89-12.27-2.81c1.56-2.68,1.79-7.36,4.72-7.66c2.54-0.26,2.68,4.54,4.35,6.8
		C114.34,213.75,115.51,214.9,116.58,216.12z"/>
	<path class="st5" d="M240.78,288.76c3.03,3.22,3.12,6.35-0.39,9.29c-1.76,1.48-3.6,2.93-5.58,4.07c-1.99,1.14-5.33,2.37-6.2,0.31
		c-1.19-2.8,2.58-2.54,4.3-3.39c2.86-1.4,4.73-3.49,5.73-6.5C239.08,291.21,238.88,289.45,240.78,288.76z"/>
	<path class="st5" d="M167.96,285.05c-1.15,0.46-2.3,0.92-3.58,1.43c-0.36-1.7-0.4-3.52-1.88-4.7c1.88,0.48,2.51-0.58,2.34-2.13
		c-0.23-2.05-1.46-2.87-3.51-2.18c1.74-2.7,3.11-5.89,7.29-5.14c2.71,0.48,4.58,1.72,4.51,4.8c-2.44,0.12-3.74-3.28-6.84-2.17
		c1.52,3.04,3.84,4.63,6.9,5.29c-0.71,0.57-1.43,1.14-2.14,1.71C169.18,282.16,168.03,283.06,167.96,285.05z"/>
	<path class="st1" d="M577.94,41.93c8.28,0.49,11.04-1.49,11.01-7.88c2.97-0.02,5.7,0.73,8.06,2.6c-4.15,1.64-5.3,6.63-9.36,8.37
		C584.04,45.15,580.23,45.91,577.94,41.93z"/>
	<path class="st1" d="M354.22,260.88c1.41-0.87,2.94-0.76,4.48-0.54c1.17,1.69,2.35,3.38,3.52,5.07c-0.99,4.3-5.2,3.31-7.89,4.81
		c-1.6-0.95-3.36-1.14-5.16-1.16c0,0,0.03,0.03,0.03,0.03C350.42,266.07,354.32,264.69,354.22,260.88z"/>
	<path class="st4" d="M465.28,363.91c-4.91,1.85-10.25,0.74-15.22,2.19c0.96-5.74,2.6-7.17,8.05-6.94c2.47,0.11,4.93,0.36,7.18,1.53
		C465.29,361.76,465.29,362.84,465.28,363.91z"/>
	<path class="st4" d="M543.77,346.61c-3.34,1.48-6.29,1.63-9.29-0.11c-1.69-0.98-3.26-1.87-2.48-4.13c0.83-2.42,2.77-3.68,5.17-4.05
		c2.54-0.39,2.22,1.48,2.48,3.18C540,343.75,542.58,344.51,543.77,346.61z"/>
	<path class="st4" d="M461.92,379.28c3.1-4.57,5.72-9.27,4-15.12c3.82,1.04,6.19,4.34,9.54,6.1
		C471.82,374.6,466.06,375.73,461.92,379.28z"/>
	<path class="st3" d="M387.9,479.13c5.02,4.13,4.92,10.59,7.27,15.94C386.74,492.85,384.92,488.86,387.9,479.13z"/>
	<path class="st4" d="M171.04,281.97c0.71-0.57,1.43-1.14,2.14-1.71c2.33-0.04,4.67-0.08,7-0.13c0.27,1.47-2.61,4,2.2,3.83
		c3.61-0.13,2.71,4.07,2.67,6.78c-5.21-4.03-6.1-3.97-7.04,0.47c-1.76-0.93,0.36-4.67-3.14-4.35
		C174.44,284.57,173.43,282.72,171.04,281.97z"/>
	<path class="st2" d="M407.88,32.55c-0.86,2.09-2.66,3.75-2.76,6.21c-0.18,4.48-2.4,5-5.89,2.93c0.05-0.99-0.27-2.05,0.57-2.84
		c1.77-0.89,1.34-2.88,1.95-4.33c1.41-3.33,3.46-5.56,7.25-5.77c0,0,0.07-0.12,0.07-0.12C408.68,29.94,408.28,31.25,407.88,32.55z"
		/>
	<path class="st4" d="M559.12,326.97c-2.8-1.87-5.28,0.35-7.95,0.87c-0.99,0.19-2.06,0.33-2.69-0.66c-0.68-1.07,0.15-1.74,0.79-2.55
		c3.15-4.03,6.77-4.61,11.33-1.83c1.24,0.75,2.33,1.39,1.64,3.04C561.66,327.23,560.42,327.03,559.12,326.97z"/>
	<path class="st4" d="M562.42,363.25c-4.18-0.33-6.98-2.69-9.64-5.16c-1.45-1.35-0.13-1.84,1.03-2.31
		c3.53-1.46,8.35,0.16,10.47,3.53c0.64,1.01,1.43,2.15,0.6,3.15C564.36,363.06,563.11,363.05,562.42,363.25z"/>
	<path class="st4" d="M497.29,318.31c1.17,0.35,2.35,0.71,3.52,1.06c1.64,4.77,3.86,9.16,8.36,12.13c-5.21,1.3-9.55-1.21-10.9-6.34
		C497.7,322.94,497.61,320.59,497.29,318.31z"/>
	<path class="st4" d="M589.04,332.82c1.25,3.95-1.42,6.03-3.93,8.18c-2.6,1.64-4.34-0.08-6.13-1.58c-2.31-4.6,2.54-3.74,4.1-5.38
		C584.79,332.25,586.68,331.36,589.04,332.82z"/>
	<path class="st5" d="M321.88,298.32c-0.53-2.95-1.01-5.81,2.48-7.55c0.57-0.28,0.55-1.75,0.8-2.68c0.31,0.89,1.1,1.93,0.87,2.63
		c-1.69,5.11,1.55,6.97,5.34,8.56c-0.78,2.13-1.98,3.87-4.54,3.57C324.19,302.54,322.3,301.17,321.88,298.32z"/>
	<path class="st1" d="M511.79,169.73c-0.16,2.21-6.72,7.28-8.84,6.69c-2.79-0.77-4.07-2.13-1.75-4.92c2.34-2.82,5.22-3.95,8.79-3.49
		C510.98,168.14,512.04,168.27,511.79,169.73z"/>
	<path class="st5" d="M169.08,314.11c0.11,1.82,0.21,4.42,2.69,3.5c3.39-1.25,4.8,0.82,6.66,2.57c-2.48,1.39-4.95,3.13-7.39-0.08
		c-0.58-0.77-1.28-1-2.03-0.16c-4.44,4.92-5.95,0.24-8.08-2.46C163.31,315.56,167.68,318.41,169.08,314.11z"/>
	<path class="st3" d="M395.18,495.08c2.4-0.23,4.07-1.95,6.09-2.96c1.61,1.24,2.89,2.79,3.45,4.73c0.78,2.73-0.43,5.18-2.57,6.46
		c-2.48,1.49-1.9-1.85-3-2.75C397.41,499.14,395.51,497.62,395.18,495.08z"/>
	<path class="st2" d="M505.87,190.67c-1.65-0.09-3.96,1.91-4.58-1.44c2.23-1.44,3.89-2.96,4-6.11c0.08-2.45,2.2-5.33,4.71-4.56
		c2.43,0.74,1.29,4.06,0.8,6.12C510.17,187.32,507.84,188.93,505.87,190.67z"/>
	<path class="st5" d="M493.22,363.27c-1.44,0.04-9.68-7.28-9.76-8.76c-0.07-1.34,0.31-2.22,2.03-1.87c2.56,0.51,8.8,6.28,9.22,8.64
		C494.94,362.54,494.48,363.18,493.22,363.27z"/>
	<path class="st1" d="M654.18,398.69c-0.37,0.49-0.74,0.98-1.11,1.47c-5.18-3.6-9.51-1.62-11.18,5.11
		c-3.03-1.47-1.78-5.09-3.61-7.17c-0.5-2.33,0.8-3.1,2.75-2.77C645.5,396.08,650.28,395.71,654.18,398.69z"/>
	<path class="st4" d="M575.7,408.86c-1.89-4.26-4.06-7.1-3.74-10.83c0.12-1.35,0.23-2.8,1.82-3.21c1.79-0.47,2.85,0.72,3.49,2.13
		C579.02,400.83,577.3,404.31,575.7,408.86z"/>
	<path class="st3" d="M614.89,43.92c0.74,4.42,2.75,8.9-0.5,13.17C607.32,52.17,607.48,48.06,614.89,43.92z"/>
	<path class="st3" d="M84.05,237.91c0.36,1.84,0.72,3.68,1.08,5.53c-2.99-0.85-2.9,1.95-3.93,3.37c-0.56,0.77-0.82,1.9-2.05,1.78
		c-0.98-0.1-1.1-1.09-1.46-1.8C74.69,240.76,76.25,238.58,84.05,237.91z"/>
	<path class="st4" d="M96.01,176.69c-2.61-0.45-5.22-0.9-7.83-1.35c-1.03-0.86-1.79-1.92-2-3.26c-0.38-2.36,1.16-3.66,2.94-4.6
		c1.82-0.97,2.65,0.61,3.49,1.76C94.24,171.49,95.68,173.85,96.01,176.69z"/>
	<path class="st5" d="M541.95,474.17c-0.6-0.72-1.2-1.44-1.8-2.17c1.9-1,0.76-2.57,0.65-3.88c-0.14-1.64-0.72-3.35,1.41-4.14
		c1.63-0.6,3.26-0.7,4.53,0.75c1.57,1.78,1.01,3.68,0.07,5.5C545.78,472.24,542.94,472.07,541.95,474.17z"/>
	<path class="st4" d="M525.16,396.05c-0.91-1.67-2.45-1.98-4.16-1.96c-3.32,0.04-4.2-1.87-3.8-4.8c5.66,1.57,11.45,2.84,16.08,7.62
		C530.12,398.48,527.72,396.39,525.16,396.05z"/>
	<path class="st2" d="M509.16,249.08c0.4-1.34-2.43-4.23,1.79-3.75c0.97,0.67,1.94,1.34,2.92,2.02c0.8,2.69,1.67,5.37,2.37,8.09
		c0.23,0.9,0.35,2.14-0.85,2.54c-1.13,0.37-1.8-0.49-2.29-1.43C511.79,254.05,510.47,251.57,509.16,249.08z"/>
	<path class="st4" d="M242.16,318.07c-0.35,0.99-0.7,1.99-1.04,2.98c-3.84,1.01-7.68,2.03-11.52,3.04c2.42-1.92,0.39-3.85,0.02-5.78
		c1.92-0.81,3.39-2.88,5.88-2.11C237.29,318.33,239.78,318.01,242.16,318.07z"/>
	<path class="st5" d="M475.46,370.27c-3.35-1.76-5.72-5.07-9.54-6.1c-0.22-0.07-0.43-0.15-0.63-0.26c0.01-1.07,0.01-2.15,0.01-3.22
		c2.91,1.08,5.74,2.45,8.74,3.18C479.19,365.14,478.67,367.32,475.46,370.27z"/>
	<path class="st1" d="M161.25,304.1c-0.23,0.59-0.35,1.61-0.7,1.69c-3.08,0.69-5.5-0.41-6.59-3.39c-1.05-2.86-4.25-6.33,1.46-8.05
		C156.33,298.23,158.76,301.18,161.25,304.1z"/>
	<path class="st3" d="M361.7,138.37c1.14,5.78-3.61,10.58,3.21,14.66c-4.81,0.06-7.72-1.05-8.34-3.89
		C355.68,145.13,358.87,142.43,361.7,138.37z"/>
	<path class="st3" d="M260.53,176.26c-1.83-5.16-2.51-9.5-2.39-13.99c0.04-1.36,0.04-2.83,1.88-2.92c1.85-0.09,2.14,1.31,2.08,2.71
		C261.88,166.46,263.03,171,260.53,176.26z"/>
	<path class="st1" d="M184.26,214.16c-2.8-0.35-7.07,3.02-7.61-3.02c3.82-1.91,7.82-3.07,12.13-2.94c-0.74,2.08-1.73,3.99-3.67,5.23
		c-0.33,0.26-0.66,0.52-0.99,0.78L184.26,214.16z"/>
	<path class="st2" d="M605.04,420.67c-0.04-3.5,1.26-5.37,4.34-5.47c2.04-0.07,2.93,1.18,2.88,3.21c-0.07,2.9-1.56,4.82-4.32,5.17
		C605.76,423.86,604.58,422.48,605.04,420.67z"/>
	<path class="st5" d="M587.64,45.02c4.06-1.74,5.21-6.73,9.36-8.37c2,1.59,3.09,3.76,4.36,6.6
		C596.36,42.79,592.14,44.73,587.64,45.02z"/>
	<path class="st3" d="M146.15,274.17c-2.23,2.31-4.57-0.55-6.84,0.14c0-2.32,0-4.63-0.02-6.95c-0.01-1.37,0.45-2.32,1.99-2.07
		c1.13,0.18,2.92,0.67,2.55,1.79c-0.98,2.94,0.34,4.03,2.74,4.84C146.67,271.96,146.3,273.39,146.15,274.17z"/>
	<path class="st5" d="M488.59,177.29c-2.29,0.21-2.36-1.04-2.3-2.19c0.17-3.19,1.85-5.2,5.01-5.73c1.75-0.3,3.25,0.84,3.03,2.39
		C493.84,175.16,490.15,175.45,488.59,177.29z"/>
	<path class="st3" d="M546.77,369.22c-0.95-0.02-2.63-0.16-2.34-2.31c0.45-3.34,3.32-3.92,5.91-4.38c1.81-0.32,3.68,0.82,3.24,2.72
		C552.88,368.2,550.27,369.15,546.77,369.22z"/>
	<path class="st5" d="M429.23,396.97c2.66,0.92,3.57-4.45,6.11-2.08c1.64,1.52-2.61,3.85-0.48,6.17c-0.01,0.16-0.02,0.32-0.01,0.48
		c0.44,6.51,0.44,6.51-5.58,4.38c0.07-0.33,0.13-0.66,0.2-0.99C433.31,402.16,430.19,399.6,429.23,396.97z"/>
	<path class="st2" d="M716.36,138.62c-0.09,0.98,0.19,2.7-1.83,2.44c-3.25-0.42-4.82-2.64-5.11-5.74c-0.12-1.32,0.14-3.06,1.89-2.8
		C714.47,132.97,716.14,135.12,716.36,138.62z"/>
	<path class="st5" d="M355.48,249.98c-0.7,0.67-1.29,1.68-2.12,1.94c-1.46,0.46-3.07,1.69-4.61,0.44c-1.74-1.4,0.29-2.58,0.44-3.88
		c0.05-0.46-0.16-0.96-0.25-1.43c0.85-1.38-1.07-4.88,2.94-3.83C353.51,245.25,355.14,247.27,355.48,249.98z"/>
	<path class="st3" d="M549.52,423.1c4.51,0.89,7.35,3.88,11.2,4.33c1.19,0.14,1.52,1.21,1.18,2.27c-0.47,1.43-1.82,1.48-2.89,1.21
		C554.92,429.89,551.25,428.22,549.52,423.1z"/>
	<path class="st2" d="M663.04,69.91c0.35-1.1-0.63-2.64,1.37-2.77c1.91-0.13,6.61,4.93,6.73,7.3c0.08,1.61-0.97,2.97-2.25,2.53
		C665.6,75.85,663.51,73.39,663.04,69.91z"/>
	<path class="st4" d="M485.79,219.04c-1.73,0.16-1.9-0.99-1.74-2.22c0.41-3.3,2.54-5.45,5.44-6.42c1.64-0.55,1.97,1.42,2.04,2.69
		C491.66,215.58,488.18,219.08,485.79,219.04z"/>
	<path class="st4" d="M452.31,410.95c-0.36,1.16,0.19,3.44-2.21,2.74c-1.98-0.58-5.49,0.46-5.38-2.9c0.06-1.92,1.98-3.8,4.62-3.64
		C451.68,407.28,452.41,408.72,452.31,410.95z"/>
	<path class="st5" d="M452.96,272.26c2.51-5.19,4.05-5.38,8.45-1.08c-0.85,1.26-1.7,2.52-2.56,3.78c-1.83,0-3.66,0.01-5.49,0.01
		C453.23,274.07,453.1,273.16,452.96,272.26z"/>
	<path class="st1" d="M277.28,314.34c-1.8-0.57-3.42-1.43-4.62-2.97c-0.82-1-1.83-1.89-2.39-3c-0.39-0.76-0.38-2.41,0.94-2.15
		c2.56,0.49,4.91,1.79,7.51,2.42c1.22,0.3,0.44,2.93,0.3,4.52c-0.77,0.1-1.6,0.12-1.82,1.12L277.28,314.34z"/>
	<path class="st1" d="M551.83,58.14c3.78-0.21,7.43-0.65,9.07-4.85c2.55,0.61,4.24,2.46,3.69,4.82c-0.63,2.67-3.25,1.33-5.06,1.21
		C556.93,59.14,554.23,59.53,551.83,58.14z"/>
	<path class="st5" d="M569.1,421.39c0.37-2.7,0.59-5.23,2.96-6.75c0.62-0.4,1.32-0.14,1.63,0.55c1.11,2.51,0.22,4.84-0.84,7.1
		c-0.54,1.14-1.06,2.76-2.73,2.27C568.37,424.04,569.29,422.35,569.1,421.39z"/>
	<path class="st1" d="M441.81,369.28c-0.14,4.39-3.69,2.15-5.69,2.93c-2.22-0.65-3.96-1.84-4.14-4.34
		c-0.12-1.57,1.22-1.73,2.39-1.92c1.84,1.22,3.75,2.25,6.05,2.16C440.88,368.51,441.34,368.9,441.81,369.28z"/>
	<path class="st4" d="M224.73,297.68c-0.72,1.56-0.71,4.53-2.77,3.9c-1.99-0.6-3.26-3.19-2.95-5.77c0.21-1.71,1.21-2.84,2.97-2.64
		C224.69,293.48,224.62,295.66,224.73,297.68z"/>
	<path class="st4" d="M259.94,313.26c-2.26,0.2-4.37-0.32-6.41-1.25c2.58-1.89,5.61-2.86,8.59-3.69c2-0.56,4.98-1.23,4.78,2.76
		C264.53,311.66,262,311.73,259.94,313.26z"/>
	<path class="st1" d="M399.22,54.03c1.82-4.2,4.9-3.33,7.8-2.83c1.5,0.26,2.22,1.3,2.06,2.86c-0.19,1.8-1.5,2.1-2.87,1.81
		C403.97,55.4,401.78,54.71,399.22,54.03z"/>
	<path class="st1" d="M341.78,231.18c-2.1-0.96-0.37-1.46,0.31-1.74c3.67-1.49,7.38-2.87,11.07-4.29c0.42,1.28,0.84,2.56,1.26,3.84
		C350.21,229.72,346,230.45,341.78,231.18z"/>
	<path class="st4" d="M169.08,314.11c-1.4,4.31-5.76,1.45-8.15,3.38c-0.27,0.03-0.4-0.1-0.4-0.37c1.1-2.21,0.43-4.57,0.59-6.85
		c0.63,0.33,1.25,0.66,1.88,1c1.86,1.45,2.77-0.56,4.08-1.12c0.22,2.35,1.94,1.69,3.34,1.67
		C169.98,312.58,169.53,313.34,169.08,314.11z"/>
	<path class="st1" d="M436.07,28.25c-0.26,0.85,0.2,2.64-2.13,1.72c-2.09-0.82-5.77,0.19-5.55-3.28c0.16-2.53,3.2-1.26,4.98-1.57
		C435.63,24.73,436.29,25.98,436.07,28.25z"/>
	<path class="st3" d="M453.37,274.97c1.83,0,3.66-0.01,5.49-0.01c0.08,0.98,0.26,1.97,0.21,2.95c-0.12,2.28-0.53,4.48-3.6,4.12
		c-2.96-0.34-2.31-2.68-2.3-4.59C453.17,276.61,453.3,275.79,453.37,274.97z"/>
	<path class="st3" d="M186.45,324.6c2.28-0.15,7.13,5.61,6.62,7.82c-0.17,0.74-0.56,1.15-1.33,1.11c-1.38-0.07-6.64-6.36-6.48-7.74
		C185.34,325.07,185.6,324.53,186.45,324.6z"/>
	<path class="st3" d="M407.78,404.82c-3.89-3.41-6.13-6.82-6.45-11.45C405.64,395.54,407.71,399.03,407.78,404.82z"/>
	<path class="st2" d="M161.12,310.26c-0.16,2.29,0.51,4.65-0.59,6.85c-2.22-2.27-6.09-2.25-7.63-5.46
		C155.33,309.35,158.27,310.07,161.12,310.26z"/>
	<path class="st3" d="M304.53,356.05c-4.19-0.73-7.4-0.82-8.16-4.83c-0.19-1.02,0.42-2.5,1.27-2.38
		C301.12,349.35,302.4,352.29,304.53,356.05z"/>
	<path class="st1" d="M229.62,318.31c0.37,1.93,2.4,3.86-0.02,5.78c-1.16,0.35-2.32,0.69-3.47,1.04c-1.29-1.32-2.02-2.88-2.09-4.74
		C224.95,317.16,227.52,318.37,229.62,318.31z"/>
	<path class="st5" d="M379.13,182.15c-1.51-5.25-3.76-10.5-0.22-15.82C379.23,171.6,381.08,176.85,379.13,182.15z"/>
	<path class="st4" d="M637.12,426.87c1.62-0.03,2.24,0.77,1.93,1.86c-0.84,3-2.76,5.21-5.72,6.26c-1.02,0.36-1.35-0.74-1.22-1.58
		C632.63,430.21,634.82,428.35,637.12,426.87z"/>
	<path class="st3" d="M507.93,276.98c-0.56,0.73-1.12,1.47-1.68,2.2c2.1-6.28-2.11-11.59-2.67-17.46c3.29,0.9,4.41,3.36,4.67,6.45
		C508.15,271.1,508.04,274.04,507.93,276.98z"/>
	<path class="st1" d="M317.01,275.96c-0.37,0.38-0.74,0.76-1.11,1.13c-1.95-0.27-2.61,2.18-4.46,2.13c-1.92-0.6-4.35-1.32-3.87-3.68
		c0.48-2.34,3.06-1.11,4.72-1.34C314.11,273.96,315.99,273.9,317.01,275.96z"/>
	<path class="st5" d="M448.5,259.84c-4.01-0.82-7.16-4.22-11.57-3.88c3.98-5.3,7.43-1.7,10.96,0.64
		C448.09,257.69,448.3,258.77,448.5,259.84z"/>
	<path class="st4" d="M257.08,197.08l-0.41-0.14c0,0-0.43,0.02-0.43,0.02c-0.4-2.94-2.54-1.61-4.11-1.68
		c-0.32-0.1-0.64-0.18-0.96-0.25c-0.7-1.39-2.51-2.67-0.86-4.39c1.12-1.17,2.55-0.59,3.62,0.25c1.21,0.95,4.15,0.11,3.37,3.21
		C257.06,195.05,257.14,196.09,257.08,197.08z"/>
	<path class="st2" d="M170.43,311.81c-1.4,0.01-3.13,0.68-3.34-1.67c2.36-4.17,6.49-2.3,9.89-2.9
		C176.29,310.91,172.8,310.57,170.43,311.81z"/>
	<path class="st5" d="M438.37,353.09c-2.76,1.13-3.89,4.54-7.09,5.04c-0.02-2.76,0.57-5.29,2.8-7.15c1.01-0.84,2.18-2.11,3.45-1.51
		C438.85,350.09,438.38,351.79,438.37,353.09z"/>
	<path class="st5" d="M488.28,229.02c-2.38,0.89-5.8-1.58-7.26,2.25c-2.75-1.5-5.83-2.41-9.09-5.26
		C478.17,226.01,483.07,228.56,488.28,229.02z"/>
	<path class="st3" d="M285.28,285.23c0.37,3.64,4.57,1.89,5.9,4.19c-1.08,1.85-2,4.7-4.75,2.58
		C284.36,290.42,281.2,288.21,285.28,285.23z"/>
	<path class="st4" d="M224.04,320.39c0.08,1.85,0.81,3.42,2.09,4.74c-0.99,0.53-1.94,1.17-2.98,1.57c-1.6,0.6-3.2,0.9-4.13-1.15
		c-0.97-2.13,0.23-2.92,2-3.56C222.08,321.6,223.04,320.93,224.04,320.39z"/>
	<path class="st2" d="M728.6,128.98c3.64,1.77,5.25,4.09,4.55,7.72c-0.21,1.09-0.89,1.43-1.76,0.9
		C728.27,135.69,727.33,132.94,728.6,128.98z"/>
	<path class="st4" d="M218.03,293.23c-2.29-1.79-3.47-3.29-2.61-5.22c1.19-2.66,3.83-1.97,6.19-2.24
		C221.2,288.7,218.02,289.82,218.03,293.23z"/>
	<path class="st2" d="M171.04,281.97c2.4,0.76,3.4,2.6,3.84,4.9c-3.24,2.96-5.17,0.94-6.91-1.82
		C168.03,283.06,169.18,282.16,171.04,281.97z"/>
	<path class="st3" d="M412.21,400c2.53,0.25,3.6,2.29,4.94,4.01c-1.37,1.71-2.38,3.57-2.31,6.27
		C411.74,407.11,412.08,403.53,412.21,400z"/>
	<path class="st1" d="M242.16,318.07c-2.38-0.06-4.87,0.26-6.66-1.88c3.88-0.83,7.76-1.65,11.63-2.48
		c-0.02,0.49-0.05,0.99-0.07,1.48c-1.42,0.91-2.83,1.81-4.25,2.72C242.58,317.9,242.36,317.95,242.16,318.07z"/>
	<path class="st3" d="M407.88,32.55c0.4-1.3,0.8-2.61,1.19-3.91c3.52,1.76,4.24,5.17,5.03,8.54C411,37.02,408.41,36.17,407.88,32.55
		z"/>
	<path class="st5" d="M475.96,388c1.32-3.86,4.03-3.95,6.58-4.09c0.96-0.05,1.33,1.18,0.99,1.86
		C481.88,388.97,478.91,387.68,475.96,388z"/>
	<path class="st5" d="M583.09,334.03c-1.57,1.64-6.42,0.78-4.1,5.38c-0.16-0.04-0.34-0.05-0.48-0.12c-2.11-1.07-5.83-1.56-5.02-4.4
		c0.77-2.71,3.99-0.74,6.16-0.64C580.79,334.32,581.94,334.12,583.09,334.03z"/>
	<path class="st3" d="M252.13,113.24c-1.22,3.27-4.03,3.92-7.57,4.66c1.38-4.18,4.3-5.67,7.56-6.79
		C252.12,111.83,252.13,112.53,252.13,113.24z"/>
	<path class="st5" d="M252.13,113.24c0-0.71-0.01-1.42-0.01-2.12c1.93-2.01,3.96-3.87,7.18-4.51
		C259.41,111.81,255.24,111.97,252.13,113.24z"/>
	<path class="st3" d="M180.19,280.13c-2.33,0.04-4.67,0.08-7,0.13c-3.06-0.66-5.37-2.26-6.9-5.29c3.1-1.12,4.4,2.29,6.84,2.17
		c0.3,2.28,1.99,1.98,3.61,2.13C177.89,279.37,179.58,277.81,180.19,280.13z"/>
	<path class="st5" d="M464.6,388.2c-1.85-0.19-3.23-0.98-3.12-3.04c0.07-1.31,1.01-2.16,2.36-1.95c1.84,0.28,3.75,0.99,3.77,3.17
		C467.63,388.06,465.95,388.13,464.6,388.2z"/>
	<path class="st2" d="M178.02,291.21c0.94-4.44,1.83-4.5,7.04-0.47c0,0.48,0,0.95,0,1.42c-1.57,1.55-3.53,0.72-5.33,0.87
		C179.16,292.42,178.59,291.82,178.02,291.21z"/>
	<path class="st5" d="M415.91,320.31c1.08-1.41,2.16-2.82,3.25-4.23c2.79,1.77,3.79,4.03,1.96,7.08
		C419.03,322.84,417.35,321.79,415.91,320.31z"/>
	<path class="st5" d="M128.03,276.21c1.72,3.73-3.24,4.98-3.03,8.15c-0.92-2.4-3.18-4.18-3.27-6.98
		C123.84,277.04,126.07,277.33,128.03,276.21z"/>
	<path class="st3" d="M268.74,108.8c-1.65-0.18-2.39-1.14-2.35-2.65c0.05-1.68,0.85-2.83,2.67-2.84c1.49-0.01,1.89,1.09,1.96,2.32
		C271.13,107.3,270.43,108.45,268.74,108.8z"/>
	<path class="st4" d="M362.22,265.41c-1.17-1.69-2.34-3.38-3.52-5.07c1.87-0.86,3.73-1.73,5.6-2.59
		C366.26,261.02,364.57,263.3,362.22,265.41z"/>
	<path class="st5" d="M179.73,293.03c1.8-0.15,3.76,0.68,5.33-0.87c-0.42,2.76-1.68,5.15-3.09,7.84
		C179.63,297.85,180.98,295.03,179.73,293.03z"/>
	<path class="st5" d="M226.84,195.93c-2.98-1.36-5.9-2.81-7.5-6.18c2.79,1.67,5.59,3.35,8.38,5.02
		C227.43,195.16,227.14,195.55,226.84,195.93z"/>
	<path class="st1" d="M438.02,39.28c0.03,1.8-1.02,1.88-2.02,1.82c-2.44-0.16-2.83-2.44-3.77-4.01c-0.46-0.76,0.59-1.65,1.39-1.6
		C436.14,35.65,436.61,38.18,438.02,39.28z"/>
	<path class="st1" d="M430.93,50.08c-1.49,0.07-2.61-0.4-2.86-2.05c-0.22-1.48,0.67-2.22,1.91-2.37c1.8-0.22,2.74,1.03,3.11,2.56
		C433.52,50.01,432.02,49.88,430.93,50.08z"/>
	<path class="st4" d="M631.04,414.45c3.11-0.72,5.55-0.93,6.76,2.14c0.37,0.93,0.63,2.27-0.68,2.42
		C634.13,419.35,633.02,416.79,631.04,414.45z"/>
	<path class="st4" d="M441.17,394.18c0.29-0.69,0.57-1.38,0.86-2.07c2.64-0.89,3.76-4.25,6.93-4.27c-0.98,2.6-1.31,5.7-4.81,6.42
		c-0.37,0.03-0.75,0.06-1.12,0.09C442.41,394.29,441.79,394.23,441.17,394.18z"/>
	<path class="st3" d="M652.61,55.3c1.74,0.16,2.62,1.66,2.91,3.54c0.17,1.08-0.48,2.11-1.65,1.8c-1.9-0.5-2.81-2.13-3.19-3.94
		C650.48,55.72,651.24,55.3,652.61,55.3z"/>
	<path class="st2" d="M426.07,38.06c-1.59,0.21-2.17-0.34-2.02-1.62c0.25-2.07,1.88-1.99,3.33-2.05c1.15-0.05,2.83,0.11,2.66,1.45
		C429.74,38.13,427.21,37.34,426.07,38.06z"/>
	<path class="st1" d="M602.01,257.15c5.2,0.45,9.91,2.03,13.66,5.85C610.78,261.83,606.25,259.83,602.01,257.15z"/>
	<path class="st4" d="M128.03,276.21c-1.96,1.12-4.19,0.83-6.3,1.17c-0.65-0.13-1.66-0.04-1.87-0.42c-0.65-1.14,0.69-1.16,1.23-1.54
		c1.9-1.33,5.17,0.08,6.18-3.08C128.34,273.47,127.96,274.89,128.03,276.21z"/>
	<path class="st4" d="M460.15,114.51c2.14-0.49,4.53-1.88,5.57,0.22c1.06,2.15-0.49,3.87-3.09,4.06
		C463.84,116.39,461.76,115.65,460.15,114.51z"/>
	<path class="st5" d="M236.03,284c-1.08,1.8-2.75,2.28-4.69,2.04c-1.05-0.13-1.44-0.86-1.06-1.77c0.87-2.06,2.67-2.27,4.59-2.06
		C235.93,282.33,236.19,283.02,236.03,284z"/>
	<path class="st5" d="M222.17,95.16c0.37-3.87,2.58-6.58,5.67-8.75c-0.94,3.51-2.06,6.91-5.74,8.67L222.17,95.16z"/>
	<path class="st1" d="M191.16,1.37c1.32-0.02,2.63-0.05,3.94-0.07c-0.04,0.16-0.03,0.36-0.13,0.47c-1.09,1.26,0.32,4.41-2.25,4.14
		C190.46,5.67,191.32,3.05,191.16,1.37z"/>
	<path class="st3" d="M337.19,34.78c2.83,2.22,3.06,4.21,2.59,6.33c-0.13,0.59-1.01,1.12-1.55,0.66
		C336.09,39.98,337.52,37.71,337.19,34.78z"/>
	<path class="st1" d="M466.08,108.56c-1.71-2.88,0.69-6.35-3.4-6.79c-0.82-0.09-0.48-1.12-0.2-1.68c0.42-0.85,1.27-0.93,2.13-0.92
		c1.05,0.01,1.46,0.63,1.47,1.57C466.09,103.04,466.08,105.34,466.08,108.56z"/>
	<path class="st1" d="M161.32,277.47c2.05-0.69,3.28,0.12,3.51,2.18c0.17,1.56-0.45,2.62-2.34,2.13
		C161.42,280.52,160.77,279.15,161.32,277.47z"/>
	<path class="st2" d="M75.11,144.55c0.34-0.95,0.11-2.41,1.82-2.15c2.52,0.38,1.92,2.45,2.16,4.06
		C76.61,148.24,75.74,146.65,75.11,144.55z"/>
	<path class="st5" d="M360.13,252.57c-0.71-0.75-1.41-1.51-2.12-2.26c1.96-0.82,3.92-1.67,6.16-0.69
		C363.85,252.18,361.63,251.87,360.13,252.57z"/>
	<path class="st3" d="M726.18,207.19c-1.57-0.12-2.58-0.68-2.6-2.08c-0.02-1.16,0.87-1.8,1.96-1.82c1.32-0.02,2.23,0.68,2.32,2.07
		C727.93,206.66,726.92,206.95,726.18,207.19z"/>
	<path class="st5" d="M493.99,197.35c0.96-1.24,1.36-3.14,3.4-3.14c2.43,0,3.44,0.91,1.79,3.23
		C497.46,196.96,495.73,196.95,493.99,197.35z"/>
	<path class="st4" d="M349.17,269.06c1.8,0.02,3.57,0.21,5.16,1.16c-1,1-2,2-3,3C349.43,272.45,348.97,270.92,349.17,269.06z"/>
	<path class="st1" d="M219.4,202.09c0.05,1.19,1.16,2.63-0.49,3.45c-1.32,0.65-2.08-0.4-2.68-1.41c-0.61-1.03-1.73-0.67-2.58-1.03
		C215.38,201.78,217.43,202.19,219.4,202.09z"/>
	<path class="st5" d="M515.05,266.09c0.29-0.02,0.58-0.03,0.86-0.04c0.01,0.82,0.4,1.72-0.45,2.38c-0.14-0.13-0.28-0.26-0.43-0.39
		C515.04,267.4,515.04,266.74,515.05,266.09z"/>
	<path class="st5" d="M277.19,314.27c0.22-1,1.05-1.01,1.82-1.12C278.78,314.15,278.33,314.76,277.19,314.27z"/>
	<path class="st5" d="M222.1,95.08c-0.06,0.12-0.11,0.24-0.17,0.36c0.08-0.09,0.16-0.19,0.25-0.28
		C222.17,95.16,222.1,95.08,222.1,95.08z"/>
	<path class="st5" d="M418.08,274.04c-0.07,0.78-0.57,0.95-1.24,0.89C417.07,274.39,417.37,273.93,418.08,274.04z"/>
	<path class="st3" d="M443.03,394.34c0.37-0.03,0.75-0.06,1.12-0.09C443.81,394.69,443.44,394.76,443.03,394.34z"/>
	<path class="st5" d="M218.14,220.23c-0.43,0.18-0.86,0.35-1.29,0.53C217.28,220.58,217.71,220.4,218.14,220.23z"/>
	<path class="st2" d="M573.23,185.05c-0.01-1.81-0.02-3.61-0.02-5.42c-0.03-6,1.29-7.29,7.63-7.41
		c20.71,5.91,41.38,11.94,62.17,17.58c2.9,0.79,4.58,2.24,6.2,4.32c-0.43,9.93-4.82,13.03-14.26,10.13
		c-16.96-5.21-33.83-10.68-51-15.22C580.27,188.07,576.79,186.4,573.23,185.05z"/>
	<path class="st1" d="M609.98,239.36c-6.28,1.11-7.69-0.17-6.5-5.57c1.42-6.49,3.29-12.91,2.94-19.67c-0.1-1.94,0.22-3.41,2.81-2.39
		c3.87,1.52,7.77,2.98,11.7,4.34c2.68,0.93,3.59,2.62,3.04,5.37c-1.22,6.02-2.31,12.08-3.56,18.09c-0.27,1.32,0.11,3.24-2.03,3.51
		c-1.05,0.13-2.02-0.14-2.54-1.16c-0.86-1.68,0.84-2.29,1.48-3.33c3.31-5.33,4.43-10.99,3.06-17.18c-0.84-3.81-3.42-4.99-6.86-5.29
		c-3.78-0.33-4.31,2.56-4.92,5.11C607.13,227.32,605.44,233.54,609.98,239.36z"/>
	<path class="st0" d="M351.28,220.18c-0.46,1.01,0.49,2.29-1.56,3.01c-10.72,3.79-21.47,7.44-32.46,10.42
		c-3.53,0.96-7.36-0.47-10.67,1.61c-0.12-0.11-0.25-0.22-0.36-0.34c-5.1-5.82-4.1-8.27,5.16-10.38c-4.63-3.67-14.23-1.42-12.45-10.9
		c2.02-0.6,4.79-1.55,5.99-0.17c3.18,3.67,2.89,3.9,6.86,0.06c1.62-1.57,3.6-2.7,5.84-2.31c8.1,1.4,15.39-1.25,22.71-4.07
		c1.67-0.64,3.56-0.71,5.34-1.04C347.75,210.69,350.66,214.98,351.28,220.18z"/>
	<path class="st4" d="M345.68,206.06c-1.79,0.33-3.68,0.4-5.34,1.04c-7.32,2.83-14.61,5.48-22.71,4.07
		c-2.24-0.39-4.22,0.75-5.84,2.31c-3.97,3.84-3.69,3.61-6.86-0.06c-1.19-1.38-3.97-0.43-5.99,0.17c-0.09-0.14-0.2-0.27-0.27-0.42
		c-3.67-8.82-3.39-9.15,5.96-10.18c10.51-1.16,21.03-2.33,31.28-5.07c7.04-1.88,7.44-1.66,9.15,5.22
		C345.31,204.12,345.48,205.09,345.68,206.06z"/>
	<path class="st4" d="M290.25,198.98c-0.72-2.94,1.4-4.27,3.33-5.5c10.87-6.96,22.98-8.07,35.45-7.26c1.37,0.09,2.5,0.84,3.33,1.97
		c-11.43,2.62-22.85,5.27-34.29,7.85C295.31,196.66,292.68,197.52,290.25,198.98z"/>
	<path class="st4" d="M121.07,239.14c-0.41-0.05-0.81-0.11-1.22-0.16c-0.45-3.9-3.26-3.17-5.64-2.66c-2.53,0.54-4.97,1.38-8.2,0.18
		c4.24-2.64,8.48-3.35,12.64-3.21C122.61,233.42,120.78,236.93,121.07,239.14z"/>
	<path class="st2" d="M218.92,235.14c0,6.24-3.49,10.29-9.71,9.62c-2.32-0.25-7.73,1.93-7.26-4.85c0.63-9.09,1.97-12.14,7.45-12.08
		C217.72,227.91,218.92,228.83,218.92,235.14z"/>
	<path class="st1" d="M515.05,266.09c0,0.65-0.01,1.3-0.01,1.96c-5.83,2.98-3.2,9.06-4.88,14.8c-1.02-2.7-1.63-4.29-2.23-5.87
		c0.11-2.94,0.22-5.88,0.33-8.81C509.99,265.74,512.12,264.61,515.05,266.09z"/>
	<path class="st2" d="M184.12,214.2c0.33-0.26,0.66-0.52,0.99-0.78C184.77,213.68,184.45,213.94,184.12,214.2z"/>
	<path class="st3" d="M414.83,290.42c0,1.23,0,2.45,0,3.68c-1.43,1.02-2.92,1.63-4.52,0.41c-0.69-0.53-1.03-1.33-0.55-2.18
		C410.92,290.32,412.67,289.81,414.83,290.42z"/>
	<path class="st1" d="M336.59,260.97c0.51,0.66,1.03,1.32,1.54,1.99c-0.78,1.39-1.98,2.32-3.36,3.06
		c-5.18,2.46-9.71,6.14-15.21,7.98c-0.78-1.75,0.14-3.33,0.49-4.97c4.59-1.89,10.49-1.36,13.03-7.05
		C334.05,260.91,335.42,261.29,336.59,260.97z"/>
	<path class="st5" d="M333.09,261.97c-2.54,5.69-8.44,5.16-13.03,7.05c-2.35,0.01-4.7,0.02-7.05,0.03c0.05-1.36,0.11-2.73,0.16-4.09
		c1.91,1.9,4.02,1.49,6.32,0.78C323.98,264.34,328.36,262.52,333.09,261.97z"/>
	<path class="st5" d="M303.14,272.16c-0.01-0.65-0.08-1.31-0.03-1.95c0.13-1.56-0.54-3.49,1.19-4.46c1.95-1.1,2.79,1.03,4.08,1.82
		c0.97,0.59,1.92,1.22,2.89,1.84C309.95,274.44,305.81,271.13,303.14,272.16z"/>
	<path class="st2" d="M252.13,195.28c1.57,0.07,3.71-1.26,4.11,1.68c-0.18,1.43-0.07,3.42-2.15,3.09
		C251.3,199.61,252.28,197.1,252.13,195.28z"/>
	<path class="st4" d="M354.22,260.88c0.09,3.82-3.8,5.2-5.02,8.21c-3.1-0.68-6.06-1.52-5.9-5.63
		C346.95,262.6,350.58,261.74,354.22,260.88z"/>
	<path class="st4" d="M242.81,317.92c1.42-0.91,2.83-1.81,4.25-2.72c0.52,1.58,1.05,3.17,1.57,4.76
		C246.15,320.82,244.86,318.27,242.81,317.92z"/>
	<path class="st2" d="M333.09,261.97c-4.72,0.55-9.1,2.36-13.59,3.76c-2.3,0.72-4.41,1.12-6.32-0.78c-0.02-0.23-0.02-0.45,0-0.68
		c2.17-2.54,2.42-4.65,0.62-8.04c-1.43-2.69-3.13-6.64-0.61-10.16c2.67-0.48,5.05-2.16,7.89-1.94c0.51,4.09,2.31,6.09,6.69,4.31
		c1.9-0.77,3.92-0.36,5.88-0.01c0.46,0.62,0.92,1.25,1.37,1.87c0.01,1.23,0.02,2.45,0.03,3.68c-4.1,1.37-8.44,2.11-12.74,4.6
		c6.53,0.47,11.96-1.96,17.67-2.69c1.49,0.26,2.32,1.05,2.07,2.67c-1.82,0.81-3.63,1.61-5.44,2.41
		C335.42,261.29,334.05,260.91,333.09,261.97z"/>
	<path class="st0" d="M457.98,264.06c-0.22,1.18-0.97,1.76-2.07,1.77c-1.23,0.02-1.75-0.76-1.67-1.91c0.09-1.18,0.83-1.75,1.97-1.71
		C457.4,262.25,458,262.9,457.98,264.06z"/>
	<path class="st4" d="M429.23,396.97c0.96,2.63,4.08,5.19,0.24,7.96c-0.78-3.26-4.51-5.05-4.37-8.76c1.33,0.01,2.65,0.01,3.98,0.02
		C429.14,396.44,429.19,396.71,429.23,396.97z"/>
	<path class="st5" d="M401.25,369.27c1.5,0.05,2.47,0.66,2.69,1.91c0.28,1.6-0.99,1.86-2.16,1.92c-1.17,0.06-2.42-0.11-2.47-1.65
		C399.27,370.1,400.26,369.51,401.25,369.27z"/>
	<path class="st2" d="M641.89,405.28c1.68-6.73,6.01-8.71,11.18-5.11c1.63,4.86,0.4,8.82-3.11,9.93
		C646.12,411.32,643.38,409.68,641.89,405.28z"/>
	<path class="st4" d="M335.01,250.31c-0.46-0.62-0.92-1.25-1.37-1.87c0.9-1.9-0.18-3.51-0.78-5.19c3.19-3.63,6.91-1.95,10.55-1.06
		c-0.03,0.58-0.07,1.16-0.1,1.74c0.3,0.37,0.6,0.75,0.9,1.12c0.34,0.32,0.67,0.65,1.01,0.97
		C341.91,247.7,337.86,247.57,335.01,250.31z"/>
	<path class="st5" d="M344.2,245.06c-0.3-0.37-0.6-0.75-0.9-1.12C343.6,244.31,343.9,244.69,344.2,245.06z"/>
	<path class="st4" d="M339.96,255.9c-5.7,0.73-11.13,3.16-17.67,2.69c4.3-2.49,8.64-3.22,12.74-4.6c0.73,0.02,1.45,0.05,2.18,0.08
		c0.42,1.49,1.79,0.86,2.72,1.2C339.91,255.48,339.92,255.69,339.96,255.9z"/>
	<path class="st3" d="M339.93,255.27c-0.93-0.34-2.3,0.29-2.72-1.2c2.64-1.06,5.14-2.97,8.62-1.47
		C344.2,254.85,341.97,254.86,339.93,255.27z"/>
	<path class="st1" d="M332.85,243.25c0.6,1.68,1.68,3.29,0.78,5.19c-1.96-0.34-3.98-0.76-5.88,0.01c-4.37,1.78-6.17-0.22-6.69-4.31
		c1.58-3.3,4.54-1.89,6.98-1.88C329.65,242.27,331.25,242.9,332.85,243.25z"/>
</g>
<g>
</g>
<g>
</g>
<g>
</g>
<g>
</g>
<g>
</g>
<g>
</g>
<g>
</g>
<g>
</g>
<g>
</g>
<g>
</g>
<g>
</g>
<g>
</g>
<g>
</g>
<g>
</g>
<g>
</g>
</svg>
