<?xml version="1.0" encoding="utf-8"?>
<!-- Generator: Adobe Illustrator 17.1.0, SVG Export Plug-In . SVG Version: 6.00 Build 0)  -->
<!DOCTYPE svg PUBLIC "-//W3C//DTD SVG 1.1//EN" "http://www.w3.org/Graphics/SVG/1.1/DTD/svg11.dtd">
<svg version="1.1" id="Layer_1" xmlns="http://www.w3.org/2000/svg" xmlns:xlink="http://www.w3.org/1999/xlink" x="0px" y="0px"
	 viewBox="0 0 718.79 363.81" style="enable-background:new 0 0 718.79 363.81;" xml:space="preserve">
<style type="text/css">
	.st0{fill:#FDF3F2;}
	.st1{fill:#3A0101;}
	.st2{fill:#DB0203;}
	.st3{fill:#890102;}
	.st4{fill:#FC4747;}
</style>
<g>
	<path class="st0" d="M459.75,254.25c-3.16-0.41-6.17-1.9-7.46-4.86c-1.35-3.08-3.57-3.96-6.41-4.49
		c-12.87-2.38-25.64-0.77-38.44,0.75c-3.74,0.45-8.1,2.33-10.07-3.57c-0.77-2.3-3.68-3.18-6.32-3.28c-7.59,0-15.17,0-22.76,0
		c-7.41,0.79-14.77,1.74-21.97,3.83c-2.05,0.59-4.01,1.4-4.25,3.42c-0.61,5.2-4.79,6.14-8.44,7.95c-3.47,1.71-4.66,0.31-4.51-2.99
		c0.22-4.82-0.43-9.46-2.25-13.93c-2.34,0.37-3.84,1.83-4.93,3.82c-1,1.83-2.1,3.55-4.61,2.84c-2.26-0.64-4.21-2.23-4.13-4.48
		c0.31-8.59-5.82-13.14-11.17-17.95c-4.13-3.72-7.82-7.65-10.84-12.29c-3.72-5.72-8.31-10.32-15.29-12.01
		c-3.77-0.91-6.3-3.66-8.21-6.88c-9.76-16.43-21.94-30.91-35.67-44.1c-1.71-1.64-3.38-6.38-7.09-1.94c0.37,2.29,2.55,4,2.06,6.56
		c5.31,12.13,14.21,22.15,19.98,34.02c4.13,8.32,10.5,15.16,15.2,23.11c2.27,0.97,2.66,3.29,3.63,5.16c0.62,1.2,2.17,2.65,0.06,3.78
		c-1.44,0.78-3.3,0.45-4.02-0.96c-2.24-4.41-6.73-4.43-10.43-6.25c-6.61-3.26-13.59-5.83-18.78-12.08
		c-3.24-3.92-9.12-5.95-14.15-7.99c-3.51-1.42-5.93-3.33-7.63-6.59c-2.38-4.56-5.24-8.89-6.29-14.05c-0.62-3.05-2.66-4.83-5.49-5.93
		c-14.23-5.53-26.03-14.6-36.65-25.36c-3.88-3.93-8.21-7.25-13.19-9.73c-3.96-1.97-7.92-3.05-11.65,0.14
		c-4.05,3.46-6.54,8.23-4.97,13.29c4.71,15.24,7.31,31.07,12.94,46.04c0.95,2.52,1.74,5.01,0.58,7.73
		c-0.78,1.84-0.33,3.52,0.95,5.09c2.04,2.5,1.33,4.61-1.22,6.26c-2.39,1.54-4.88,2.57-7.85,2.82c-4.11,0.35-4.21-2.66-5.39-5.13
		c-0.88-1.86-2.82-2.62-4.83-3.21c-10.52-3.1-17.27-10.17-20.92-20.35c-1.08-3-2.43-5.82-4.32-8.39c-2.78-3.76-4.72-7.96-6.84-12.11
		c-5.65-11.06-13.97-17.15-26.08-13.12c-6.2,2.06-6.76,4.29-2.13,9.01c1.16,1.18,2.23,2.45,3.34,3.68
		c5.48,0.83,10.52,3.25,16.13,3.87c4.96,0.55,7.18,4.65,8.06,9.34c1.56,0.74,2.77,1.97,3.39,3.48c3.54,8.69,8.76,16.66,11.28,25.79
		c1.75,2.05,2.9,4.36,3.16,7.08c5.81,12.23,13.14,22.92,27,27.18c7.94,2.44,19.27-1.42,23.46-8.48c3.13-5.25,2.11-10.76,0.04-16.16
		c-0.82-2.13-1.59-4.28-2.39-6.43c-8.18-13.76-15.77-27.76-17.84-43.99c-0.2-1.59-0.05-3.04,2.08-3.13c0.77-0.04,1.54-0.07,2.3-0.11
		c2.61-1.85,5.32-0.6,7.58,0.36c7.44,3.15,14.71,6.71,22.03,10.15c1.53,0.72,2.83,1.74,3.32,3.49
		c13.49,12.1,23.64,26.87,33.59,41.83c4.53,6.81,9.74,13.07,16.19,18.22c10.67,8.52,21.61,6.04,32.63,0.85
		c1.4-1.69,2.79-3.38,4.19-5.08c0.96-2.3,1.13-5.64,4.42-1.14c4.76,6.53,5.45,14.43,8.26,21.59c1.11,2.82-1.66,2.49-3.39,2.64
		c-9.48,0.83-19.03,0.68-28.44,2.68c-5.68,1.21-11,2.29-12.14,9.27c-0.14,0.85-1.07,1.18-1.98,1.17c-6.29,5.11-13.2,7.95-21.58,6.97
		c-5.97-0.7-11.88,0.98-17.82,1.55c-3.31,0.31-7.48,2.21-9.26-2.88c-2.36-5.67-7.18-5.44-12.32-5.91
		c-13.77-1.27-27.18,0.81-40.62,3.06c-4.38,0.73-7.31,2.53-8.13,7.69c-0.66,4.18-5.73,3.6-8.74,5.32c-2.74,4.57-6.93,5.81-11.96,5.3
		c-9.16-0.92-18.26,1.33-27.42,0.71c-4.57,0.55-8.99,1.74-11.08-4.71c-1.13-3.48-5.28-4.08-8.88-4.23
		c-15.64-0.66-31.07,1.01-46.41,3.96c-3.16,0.61-4.76,4.12-8.54,3.89c0-0.15,0-0.29,0-0.44c-0.35,0.36-0.68,0.73-1.02,1.09
		c0,18.5,0,37.01,0,55.51c0.39-0.33,0.79-0.65,1.18-0.98c0-4.66-0.01-9.32-0.01-13.98c0-3.52,0-7.03,0-11.93
		c4.21,5.61,5.32,11.48,8.94,15.86c3.57,1,7.14,2,10.71,3c5.72-2.12,11.88,0.09,17.66-1.77c2.14-0.69,4.44-0.61,2.81-4.01
		c-0.93-1.92,0.31-2.52,2.3-2.38c4.24,0.3,7.37,2.34,8.85,6.15c2.2,5.67,5.82,10.31,9.63,14.88c0.31,0.09,0.62,0.16,0.93,0.22
		c1.03,0.05,2.05,0.09,3.08,0.14c0.93,0.04,1.86,0.07,2.79,0.11c3.74-1.03,4.88-3.54,4.23-7.19c-0.7-3.98,1.69-4.6,4.75-3.99
		c4.19,0.84,7.19,3.27,8.67,7.38c2.79,7.77,10.43,12.26,18.85,11.02c1.94-0.29,3.9-1.01,5.67,0.52c0.98-0.37,1.97-0.75,2.95-1.12
		c-0.1-2.08,0.76-3.22,2.98-3.04c2.79-5.48,8.47-4.61,15.05-0.9c2.05,1.16,3.53,3.33,5.28,5.04c1.81,0.01,3.62,0.01,5.43,0.02
		c17.17-2.67,34.34-5.34,51.51-8.02c2.46-0.38,5.27-0.17,7.32-1.31c16.58-9.22,35.2-6.67,52.88-9.49c4.11-0.65,8.14-1.51,12.11-2.75
		c5.01-1.57,10.03-2.21,14.94,0.38c2.05,0.09,4.1,0.17,6.14,0.26c17.18-2.49,34.36-4.98,51.54-7.47c4.55-1.61,9.05-3.49,14.05-2.45
		c1.13-0.31,2.45-0.02,3.36-1.05c2.02-1.66,2.84-4.16,4.33-6.19c0.65-2.59,1.3-5.17,1.95-7.76c-0.5-0.43-0.99-0.85-1.49-1.28
		c-0.9-0.99-1.42-2.11-1.23-3.49c-2.3-1.92-4.2-4.34-7-5.62c-1.44-0.21-2.88-0.55-4.33-0.59c-4.66-0.11-6.68-2.73-7-7.08
		c-0.88-0.8-1.76-1.6-2.64-2.41c-0.95-0.09-1.96-0.02-2.85-0.31c-1.38-0.45-3.96-0.14-3.1-2.66c0.72-2.1,2.35-3.76,4.83-1.53
		c0.64-0.03,1.29-0.06,1.93-0.09c0.32-0.11,0.63-0.21,0.95-0.32c0.4-0.87-0.77-2.41,1.13-2.64c0.53-0.07,1.06-0.14,1.59-0.21
		c0.5-2.02,1-4.04,1.5-6.06c-0.35-2.38,0.63-3.39,3.04-4.1c5.76-1.69,11.69-2.39,17.57-2.66c8.85-0.41,17.67-1.98,26.63-0.43
		c4.16,0.72,7.07,2.16,8.58,6.07c2.17,5.61,4,6.54,9.9,4.58c5.05-1.68,10.24-2.56,15.47-3.49c6.29-1.12,12.78-0.32,18.94-2.76
		c6.38-2.53,13.14-4.24,12.86-13.15C458.06,256.52,460.17,256.13,459.75,254.25z"/>
	<path class="st1" d="M691.83,189.84c-5.38-0.2-9.14,3.61-13.69,5.45c-10.99,4.45-21.85,9.47-33.88,10.6
		c-3.09,0.29-5.99-0.71-8.57-2.25c-5.73-3.42-11.55-6.4-18.09-8.15c-6.36-1.7-9.13-8.27-8.33-17.8c2.09,0.7,2.51,2.5,2.75,4.34
		c0.63,4.8,3.09,7.68,7.99,8.81c4.02,0.93,7.84,2.7,11.81,3.86c2.72,0.79,6,2.99,8.17-0.24c2.03-3.03,1.53-6.69-0.21-9.96
		c-1.32-2.48-2.99-4.81-4.06-7.4c-2.67-6.47-6.86-11.74-12.35-15.9c-2.95-2.23-3.94-4.78-2.92-8.18c0.98-3.27,0.57-6.6,0.47-9.9
		c-0.08-2.6-1.75-4.35-4.13-5.03c-2.6-0.74-3.83,1.22-4.98,3.17c-4.31,7.31-6.27,14.83-3.22,23.26c0.66,1.83,2.52,4.22,0.22,6.4
		c-1.44-0.93-2.44-2.1-2.83-3.89c-2.23-10.29-1.42-20.06,4.36-29.19c1.66-2.62,3.43-4.48,6.77-3.89c3.73,0.66,7.38,1.82,8.57,5.82
		c1.46,4.88,3.72,9.58,3.42,14.93c-0.18,3.26,1.56,6.15,3.7,8.41c4.81,5.06,9.24,10.43,13.74,15.75c4.29,5.07,6.89,5.15,11.51,0.48
		c2.95-2.98,5.74-5.89,10.29-6.38c4-0.43,2.75-3.46,2.22-5.75c-0.52-2.23-2.52-3.95-2.41-6.45c1.96,0.42,2.81,2.14,4.13,3.35
		c2.41,2.2,5.95,3.28,7.93,0.56c4.43-6.08,10.21-11.42,12.26-18.99c0.89-3.28,2.07-7.22-3.63-7.58c-0.91-0.14-1.81-0.27-2.72-0.41
		c-2.85-4.22-3.29-10.29-9.68-11.78c-6.61-1.54-6.57-1.72-2.88-7.36c4.8-7.32,2.55-15.94-5.03-18.56
		c-5.57-1.92-10.54-4.84-15.26-8.24c-11.3-8.14-22.57-16.07-29.97-28.6c-5.59-9.45-14.27-16.29-24.67-20.26
		c-5.89-2.25-10.69-5.98-15.69-9.51c-8.56-6.03-16.43-12.95-24.69-19.32c-6.77-5.22-8.29-6.54-12.05,3.59
		c-2.45,6.61-0.62,13.56-1.33,20.32c-4.12-4.63-2.87-10.32-2.81-15.65c0.07-7.53,2.7-14.21,7.84-19.9c2.98-3.3,5.89-2.89,9.29-0.81
		c6.74,4.13,11.65,10.36,15.3,16.78c5.52,9.69,13.72,14.85,23.34,18.97c6.08,2.6,12,5.6,17.86,8.66c4.08,2.13,8.37,4.16,8.58,9.93
		c0.06,1.67,1.11,3.72,2.37,4.85c7.15,6.4,11.98,15.2,20.68,19.99c6.7,3.68,11.84,9.67,18.87,12.87c1.5,0.68,2.96,1.52,4.53,1.98
		c7.82,2.27,11.38,8.19,9.8,16.21c-1.48,7.49-0.46,9,6.5,10.31c5.51,1.03,9.03,7.12,8.43,13.57c-0.12,1.32-0.73,2.62,0.04,3.86
		c1.1,1.77,4.74,2.1,4.01,4.57c-2.09,7.04,1.13,14.47-2.22,21.44c-1.97,4.11-2.88,8.72-6.82,12.81c9.17-0.11,14.93-4.08,19.19-10.73
		c0.62-0.97,1.2-2.02,2-2.82c1.2-1.2,2.73-1.27,4.12-0.36c1.35,0.89,1.26,2.22,0.59,3.54c-2.66,5.26-3.36,11.09-4.78,16.7
		c-1.01,4-2.11,5.72-5.29,1.56c-0.23-0.29-0.93-0.22-1.42-0.32c-1.53-4.59-6.13-7.16-8.48-4.51
		C694.32,183.83,692.02,186.34,691.83,189.84z"/>
	<path class="st2" d="M597.79,95.1c-1.23,0.11-1.9-0.8-2.71-1.46c-1.55-2.29-4.12-2.83-6.49-3.33c-4.84-1.01-9.41-3-13.12-5.88
		c-18.25-14.17-27.11-32.99-26.43-56.16c0.12-4.11,3.2-3.8,5.81-3.23c4.62,1.02,8.55,3.5,12.28,6.39c4.85,3.76,9.64,7.88,15.8,9.16
		c3.35,0.69,6.04,2.17,8.1,4.48c4.23,4.72,9.49,7.91,15.15,10.23c6.02,2.46,9.87,7.06,13.91,11.68c4.26,4.87,8.42,9.87,13.12,14.3
		c5.18,4.88,12.75,7.23,15.03,15.14c0.52,1.81,2.78,2.89,4.8,3.27c2.76,0.52,5.6,1.16,8.37,1.04c5.54-0.25,7.81,3.3,9.12,7.58
		c1.29,4.24-0.36,7.89-4.04,10.37c-8.97,6.04-18.27,5.26-27.44,0.72c-10.74-5.32-20.25-12.66-30.27-19.15
		C605.4,98.06,602.22,95.16,597.79,95.1z M571.26,49.92c-4.46-0.05-6.84,2.51-6.14,7.01c0.67,4.24,1.55,8.46,2.62,12.62
		c2.53,9.85,14,17.03,23.83,14.96c1.35-0.28,2.55-0.18,3.88-0.05c5.07,0.5,8.91,3.4,12.83,6.17c4.89,3.45,9.64,7.15,15.57,8.7
		c3.5,0.91,6.63-1.02,5.86-3.73c-1.3-4.57-1.92-9.36-4.87-13.47c-4.83-6.71-11.9-11.13-17.18-17.22
		C597.88,53.62,584.37,52.49,571.26,49.92z"/>
	<path class="st3" d="M597.79,95.1c4.43,0.06,7.61,2.96,10.99,5.15c10.02,6.49,19.53,13.84,30.27,19.15
		c9.17,4.54,18.47,5.32,27.44-0.72c3.69-2.48,5.34-6.13,4.04-10.37c-1.31-4.28-3.58-7.83-9.12-7.58c-2.77,0.13-5.61-0.52-8.37-1.04
		c-2.01-0.38-4.27-1.47-4.8-3.27c-2.29-7.91-9.86-10.27-15.03-15.14c-4.7-4.42-8.86-9.42-13.12-14.3
		c-4.04-4.62-7.9-9.22-13.91-11.68c-5.66-2.32-10.92-5.51-15.15-10.23c-2.07-2.31-4.76-3.79-8.1-4.48
		c-6.16-1.27-10.95-5.39-15.8-9.16c-3.73-2.89-7.66-5.37-12.28-6.39c-2.61-0.58-5.69-0.88-5.81,3.23
		c-0.68,23.17,8.18,41.99,26.43,56.16c3.71,2.88,8.28,4.86,13.12,5.88c2.37,0.49,4.94,1.03,6.49,3.33
		c-9.27,1.24-16.94-2.59-23.75-8.14c-11.21-9.14-18.46-21.09-22.76-34.79c-1.32-4.21-3.77-8.13-3.68-12.75
		c0.71-6.76-1.13-13.71,1.33-20.32c3.76-10.12,5.28-8.81,12.05-3.59c8.26,6.38,16.13,13.3,24.69,19.32
		c5.01,3.53,9.81,7.26,15.69,9.51c10.4,3.97,19.08,10.8,24.67,20.26c7.4,12.52,18.67,20.46,29.97,28.6c4.73,3.4,9.7,6.32,15.26,8.24
		c7.58,2.61,9.83,11.23,5.03,18.56c-3.69,5.64-3.74,5.82,2.88,7.36c6.39,1.49,6.83,7.56,9.68,11.78c-4.28-0.18-8.02-1.24-10.44-5.27
		c-2.14-3.56-5.74-2.9-8.89-2.15c-3.14,0.75-5.03,3.04-4.8,6.54c0.2,3.09,0.46,6.18,0.7,9.27c-2.64-1.65-2.55-4.35-2.76-6.97
		c-0.77-9.98-1.54-10.96-11.06-13.73c-9.75-2.84-19.42-5.73-27.16-12.9c-1.48-1.37-3.52-2.56-5.87-2.32
		c-0.58-0.12-1.16-0.24-1.74-0.35c-2.46-5.05-6.68-7.76-11.98-9.03C600.43,99.06,598.46,97.58,597.79,95.1z"/>
	<path class="st0" d="M363.06,185.43c-11.14,14.76-27.85,14.77-43.89,16.57c-2.06-0.05-4.12-0.1-6.18-0.15
		c-1.05-2.3-2.1-4.6-3.15-6.9c-0.82-3.72-0.52-7.71-2.65-11.12c-0.78-4.62-1.56-9.24-2.34-13.87c-0.2-6.41,1.44-8.56,6.25-8.08
		c16.55,1.67,32.97,4.28,49.4,6.87l0.07,0.08c0.17,0.7,0.54,1.18,1.33,1.19l-0.04-0.05c-0.02,0.76,0.4,1.21,1.07,1.47
		C365.84,176.08,363.56,180.76,363.06,185.43z"/>
	<path class="st2" d="M341.78,290.01c-0.88-0.8-1.76-1.6-2.64-2.41c-0.37-1.5-0.75-3-1.12-4.5c0.64-0.03,1.29-0.06,1.93-0.09
		c0.52,0.51,0.86,0.45,0.95-0.32c0.4-0.87-0.77-2.41,1.13-2.64c0.06,3.24,2.43,5.24,4.91,5.42c14.82,1.07,28.86,7.81,44.04,6.05
		c2.38,5.24,4.28,2.98,6.11-0.39c1.37-0.87,2.68-1.9,4.14-2.57c2.11-0.97,3.94-1.76,5.56,1.4c1.66,3.23,5.43,3.99,8.84,4.71
		c2.73,0.58,5.47,1.05,8.21,1.57c7.07,5.42,15.5,6.2,23.83,6.11c7.36-0.08,14.7-2.1,22.11-0.37c3.03,4.48-0.55,5.17-3.51,5.63
		c-7.35,1.13-14.75,1.95-22.13,2.9c-3-4.47-6.67-4.86-11.37-1.29c1.26,1.71,4.55-0.82,5.13,2.49c-7.6,0.3-14.98,2.87-22.68,2.22
		c-1.79-0.15-3.75,0.22-4.65-1.97c0,0,0.31,0,0.31,0l0.31-0.06c3.41-0.12,5.57-2.23,5.26-5.27c-0.3-2.87-2.97-0.42-4.51-0.81
		c-0.04-0.58-0.08-1.16-0.12-1.74c1.48-0.88,3.78-1.38,2.95-3.75c-0.8-2.3-3.08-1.61-4.67-1.19c-2.41,0.63-4.82,0.73-7.26,0.82
		c-1.57-1.22-3.19-2.42-5.27-2.37c-1.37,0.03-3.36-0.41-3.72,1.45c-0.41,2.09,1.28,2.73,3.08,2.92c0.65,0.07,1.29,0.23,1.94,0.35
		c0.05,0.5,0.09,1.01,0.14,1.51c-5.99,0.91-3.55,6.05-4.71,9.39c-5.29,2.56-11.05,3.14-16.76,3.7c-7.26,0.71-13.86,3.99-21.01,5.12
		c2.02-1.66,2.84-4.16,4.32-6.19c2.76-0.09,5.55,0.5,8.27-0.51c2.13-0.8,3.12-2.21,2.88-4.52c-0.24-2.36-1.84-2.89-3.8-2.9
		c-1.8-0.01-3.6,0.11-5.4,0.17c-0.5-0.43-0.99-0.85-1.49-1.28c1.12-0.3,2.24-0.59,3.35-0.91c5.56-1.6,11.04-1.15,16.66-0.05
		c2.33,0.45,5.82,1.15,7.28-1.69c1.26-2.46-0.84-4.89-2.34-6.71c-2.16-2.64-4.58-0.17-6.76,0.56c-2.34,0.79-4.45,2.32-7.08,2.12
		c-4.48-0.33-8.36,1.63-12.35,3.19c-2.3-1.92-4.2-4.34-7-5.62c-0.73-2.62,1.63-2.55,3.48-3.51
		C350.99,293.88,347.35,288.75,341.78,290.01z"/>
	<path class="st1" d="M1.17,136.83c0-9.3-0.01-18.61-0.01-27.91c2.11-0.19,2.83-2,4.08-3.3c5.44-5.67,12.01-8.84,20.03-7.6
		c3.16,0.49,5.29,3.16,6.52,5.77c2.27,4.81,1.65,10.09,0.54,15.13c-0.53,2.4-2.91,3.1-5.22,2.97c-6.37-0.37-12.34,2.81-18.75,2.05
		c-0.82-0.1-1.73,0.06-2.04,1.03c-0.43,1.35,0.44,2.22,1.31,2.99c4.48,3.97,9.93,4.91,15.44,3.67c7.57-1.7,15.35-2.21,22.73-5.21
		c3.92-1.59,8.79-1.16,13.2,0.45c4.35,1.59,8.83,3.32,13.52,2.95c5.88-0.46,10.7,1.37,15.05,5.16c2.38,2.07,5.18,3.41,8.36,4
		c6.05,1.11,7.32,3.73,5.03,9.93c-3.14-5.91-9.38-6.84-14.74-9.19l-0.12,0.09c0.08-0.77-0.41-0.96-1.03-1.02
		c0,0,0.03,0.05,0.03,0.05c-0.37-0.33-0.73-0.67-1.1-1c0,0,0.06,0.04,0.06,0.04c-1.65-5.31-6.48-3.14-9.93-4.21
		c-0.32-1.06-1.01-1.59-2.13-1.73c-9.02-1.18-18.1-1.61-27.12-0.83c-3.3,0.29-7.28-0.59-10.06,2.44c-2.28,0.4-4.55,0.81-6.83,1.21
		c-0.26-0.2-0.53-0.57-0.78-0.56c-5.26,0.22-10.5,2.91-15.8-0.06c-0.69-0.39-1.6,0.41-1.9,1.23c-0.43,1.18,0.46,1.77,1.26,2.38
		c1.77,1.35,4.56,1.34,5.36,3.99c-2.57,0.28-4.67-0.92-6.91-1.92C6.63,138.64,4.37,136.39,1.17,136.83z M13.49,119.03
		c3.72,0.34,7.19-1.35,10.87-1.29c1.71,0.03,2.58-1.21,2.69-2.98c0.11-1.84-0.73-2.73-2.46-3.11c-4.69-1.02-9.37-2.05-14.23-1.76
		c-2.74,0.16-3.66,2.01-4.18,4.19c-0.51,2.1,0.6,3.71,2.42,4.38C10.09,119.02,11.85,118.87,13.49,119.03z"/>
	<path class="st4" d="M326.88,237.1c-2.34,0.37-3.84,1.83-4.93,3.82c-1,1.83-2.1,3.55-4.61,2.84c-2.26-0.64-4.21-2.23-4.13-4.48
		c0.31-8.59-5.82-13.14-11.17-17.95c-4.13-3.72-7.82-7.65-10.84-12.29c-3.72-5.72-8.31-10.32-15.29-12.01
		c-3.77-0.91-6.3-3.66-8.21-6.88c-9.76-16.43-21.94-30.91-35.67-44.1c-1.71-1.64-3.38-6.38-7.08-1.94c-2.19-1.47-2.6-3.81-3.02-6.15
		l0.37-0.01c1.41-1.14,3.11-1.05,4.77-1.12l0.07-0.03c2.99,5.38,9.32,7.41,12.57,12.56c2.33,3.7,5.51,6.56,9.07,9.12
		c8.5,6.12,16.64,12.71,23.72,20.49c0.98,1.07,2.78,2.03,2.28,3.62c-1.51,4.75,1.8,5.97,4.93,7.74c3.34,1.89,6.46,3.98,10.54,3.96
		c1,0,2.76,0.91,2.88,1.62c1.08,6.51,10.68,9.08,7.98,17.28c-0.12,0.36,0.19,1.13,0.52,1.32c7.22,4.15,8.99,12.58,14.32,18.3
		c3.58,3.84,5.28,2.53,6.8-0.85c0.98-2.19,1.92-1.72,3.36-1.08c0,0-0.05-0.06-0.05-0.06c0.24,0.37,0.47,0.74,0.71,1.11
		C326.8,233.64,326.84,235.37,326.88,237.1z"/>
	<path class="st2" d="M326.1,230.87c-1.44-0.65-2.38-1.11-3.36,1.08c-1.52,3.37-3.22,4.69-6.8,0.85c-5.33-5.72-7.1-14.15-14.32-18.3
		c-0.33-0.19-0.64-0.96-0.52-1.32c2.7-8.2-6.9-10.77-7.98-17.28c-0.12-0.71-1.88-1.62-2.88-1.62c-4.08,0.02-7.2-2.08-10.54-3.96
		c-3.13-1.77-6.44-2.99-4.93-7.74c0.51-1.6-1.3-2.55-2.28-3.62c-7.08-7.78-15.22-14.36-23.72-20.49c-3.56-2.56-6.74-5.42-9.07-9.12
		c-3.24-5.16-9.57-7.18-12.57-12.56c9.28,2.99,17.43,7.47,22.56,16.31c2.54,4.37,6.03,7.82,11.34,8.76
		c0.21,0.17,0.44,0.31,0.69,0.41c0.2,1.5,0.59,2.82,2.14,3.58c4.83,2.38,9.56,5.09,15.29,3.8c0.61,0.09,1.21,0.18,1.82,0.26
		c1,3.33,1.99,6.65,2.99,9.98c-0.45,0.59-0.9,1.17-1.35,1.76c-4.03,0.81-4.57,2.41-1.13,4.94c1.89,1.38,3.76,2.8,6.32,2.46
		c0.66,0.38,1.31,0.76,1.97,1.15c1.1,2.91,3.4,3.75,6.25,3.66c0.96,0.71,1.93,1.42,2.89,2.12c0.17,4.15,2.94,6.37,5.98,8.64
		c1.64,1.23,5.03,2.7,3.18,5.23c-1.95,2.66-1.66,4,0.26,6.25c1.74,2.03,3.06,4.59,5.79,5.2c2.61,0.58,4.36-0.48,3.2-3.57
		c-1.1-2.93-2.35-5.81-3.54-8.71c1.91,0.2,3.1-0.94,4.2-2.25C322.04,214.34,325.15,222.24,326.1,230.87z"/>
	<path class="st3" d="M608.81,170.92c2.3-2.18,0.44-4.57-0.22-6.4c-3.05-8.43-1.1-15.95,3.22-23.26c1.15-1.94,2.38-3.91,4.98-3.17
		c2.37,0.68,4.05,2.43,4.13,5.03c0.09,3.3,0.51,6.62-0.47,9.9c-1.02,3.4-0.03,5.95,2.92,8.18c5.49,4.16,9.69,9.43,12.35,15.9
		c1.06,2.58,2.73,4.91,4.06,7.4c1.75,3.28,2.25,6.93,0.21,9.96c-2.17,3.23-5.45,1.03-8.17,0.24c-3.98-1.16-7.79-2.93-11.81-3.86
		c-4.9-1.13-7.36-4.01-7.99-8.81c-0.24-1.83-0.66-3.64-2.75-4.34C609.12,175.43,608.97,173.18,608.81,170.92z M614.04,169.51
		c0.13,5.2,9.18,14.66,14.42,14.97c2.27,0.13,3.25-1.41,3.42-3.41c0.47-5.62-5.62-14.5-11.15-16.38
		C616.51,163.26,613.93,165.12,614.04,169.51z"/>
	<path class="st1" d="M227,150.65c5.31,12.13,14.21,22.15,19.98,34.02c-2.33,3.52-4.86,4.33-7.91,0.75c-3.66-4.31-8.48-7-13.71-8.73
		c-3.48-1.15-4.68-3.05-4.4-6.58c0.42-5.34-1.49-10.32-5.76-13.15c-6.17-4.1-12.78-7.79-20.41-8.76c-0.94-0.42-1.88-0.84-2.83-1.26
		c0.17-1.83,0.07-3.61-0.52-5.4c-0.86-2.61,0.27-6.39-4.18-6.8c-0.44-0.42-0.88-0.83-1.32-1.25c5.06-3.65,13.42-0.62,14.86,5.39
		c1.89,7.88,1.95,7.34,9.67,8.22c4.56,0.52,9.76,0.64,13.37,4.54C225.67,153.6,226.28,152.02,227,150.65z"/>
	<path class="st2" d="M191.96,146.93c0.94,0.42,1.88,0.84,2.83,1.26c2.69,4.81,7.62,6.16,12.32,7.63c7.1,2.22,10.55,7.33,9.19,14.7
		c-0.79,4.25,1.29,6.39,4.97,7.22c6.52,1.47,9.92,5.57,10.88,11.98c-3.72-3.88-8.48-6.09-13.22-8.38c-3.02-1.46-5.95-3.37-5.89-7.31
		c0.14-8.25-4.29-12.78-11.36-16.39c-14.99-7.67-30.89-13.88-42.71-26.84c-4.51-4.95-10.1-9.31-17.67-8.89
		c-3.4,0.19-7.3,0.65-8.47,4.09c-1.57,4.61-4.03,9.68-2.54,14.43c1.68,5.34,0.93,10.36,0.62,15.55c-4.16-0.74-4.65-3.39-3.51-6.83
		c0.49-1.49,1.79-2.77,1.13-4.54c0.1-1.2,0.19-2.39,0.29-3.59c0.42-1.84-0.02-3.3-1.84-4.14c-0.13-2.93-0.25-5.85-0.38-8.78
		c0.97-2.29,1.83-4.6,4.11-6.06c7.13-4.58,21.79-2.43,27.52,3.98c2.2,2.46,4.19,5.1,6.99,7.03c4,2.76,7.58,2.68,11.02-0.82
		c1.19-0.01,2.38-0.02,3.57-0.03c1.01,2.24,2.84,1.59,4.56,1.28c0.53,0,1.05-0.01,1.58-0.01c0.44,0.42,0.88,0.83,1.32,1.25
		C183.82,142.85,184.9,145.65,191.96,146.93z"/>
	<path class="st1" d="M280.99,169.9c-0.61-0.09-1.21-0.18-1.82-0.26c-4.58-5.37-11.23-5.84-17.43-7.38c-0.25-0.1-0.49-0.24-0.7-0.41
		c0.3-2.31-1.22-3.63-2.68-5.02c-5.78-5.5-9.43-12.68-14.56-18.69c6.15-0.33,11.67,1.92,17.06,4.43c1.73,0.81,3.09,2.42,3.16,4.73
		c0.12,3.69,2.23,6.2,5.39,7.75c4.67,2.29,8.59,5.52,12.37,9.02c2.92,2.7,6.19,5.05,10.23,5.79c2.03,0.37,3.25,1.48,4.01,3.28
		c-1.44,4.79-2.09,9.42,2.75,12.87c2.06,2.92,3.41,6.41,6.76,8.26c0.11,0.87,0.22,1.73,0.33,2.6c-2.31-0.3-4.63-0.61-6.94-0.91
		c-0.96-0.71-1.93-1.42-2.89-2.12c-0.74-3.51-3.02-4.4-6.25-3.66c-0.66-0.38-1.31-0.76-1.96-1.15c0.46-2.77,0.19-5.03-3.38-5.26
		c-1.18-0.08-1.46-1.2-1.81-2.13c0.45-0.59,0.9-1.17,1.35-1.76c1.94-0.17,3.44-1.1,2.7-3.15
		C285.63,173.87,285.82,169.71,280.99,169.9z"/>
	<path class="st1" d="M179.8,132.22c-1.19,0.01-2.38,0.02-3.58,0.03c-5.95-0.01-10.14-3.14-13.86-7.45
		c-4.54-5.27-10.35-7.78-17.42-8.01c-5.64-0.18-10.66,1.94-15.93,3.14c-5.5,1.25-6.01,3.22-2.43,8.19c0.13,2.93,0.25,5.85,0.38,8.78
		c-1.84,2.47-0.47,3.51,1.84,4.14c-0.1,1.2-0.19,2.39-0.28,3.59c-6.15,4.36-6.69,6.15-3.45,12.73c1.26,2.56,1.83,5.36,0.02,7.46
		c-2.23,2.58-5.48,3.52-9.04,2.91c-3.32-0.56-4.81-2.66-4.98-5.78c-0.11-1.94-0.67-3.2-2.81-3.26c-2.2-1.39-5.65-1.24-6.04-4.88
		c2.83,0.03,5.66,0.19,8.48,0.07c8.7-0.37,14.58-9.39,11.66-17.44c-3.74-10.33-1.12-20.37,12.19-21.69
		c8.56-0.85,17.15-2.67,25.3,1.63c2.17,1.14,4.07,2.83,5.96,4.43c4.79,4.05,8.98,8.94,15.28,10.86
		C180.67,131.85,180.24,132.03,179.8,132.22z"/>
	<path class="st1" d="M68.44,354.25c-0.82-0.52-1.92-0.63-2.65-1.23c-1.49-1.21-2.74-2.64-0.53-4.38c-0.51-0.62-1.02-1.25-1.53-1.87
		c-0.25-0.28-0.49-0.55-0.74-0.83c-0.31-0.06-0.62-0.14-0.93-0.22c-7.59-2.15-15.08-4.8-22.8-6.29c-6.57-1.27-12.86-2.77-18.44-6.58
		c-3.57-1-7.14-2-10.71-3c-4.07,1.18-5.58-3.48-8.94-3.93c0,4.66,0.01,9.32,0.01,13.98c3.18,1.13,6.28,2.58,9.81,1.99
		c1.39-3.3,4.31-2.92,7.06-2.93c3.09-0.18,5.02,2.28,7.57,3.29c3.18,1.26,6.45,2.3,9.68,3.44c2.82,0.41,5.78-0.23,8.48,1.09
		c7.03,0.24,13.02,2.88,18.39,7.42c2.55,2.15,2.18,3.5-0.22,5.1c0.03,4.09,3.45,3.93,5.99,4.44c2.01,0.4,3.4-1.13,3.9-3.04
		C72.63,357.61,70.79,355.73,68.44,354.25z"/>
	<path class="st4" d="M142.7,353.93c17.17-2.67,34.34-5.34,51.51-8.02c2.46-0.38,5.27-0.17,7.32-1.31
		c16.58-9.22,35.2-6.67,52.88-9.49c4.11-0.65,8.14-1.51,12.11-2.75c5.01-1.57,10.03-2.21,14.94,0.38c-2.91,2.37-6.84-0.18-9.77,2.05
		c-20.08,3.62-40.51,4.86-60.5,9.06c-2.52,0.53-4.84,1.34-5.94,3.95c-0.92,2.18-2.91,2.68-4.86,2.95
		c-12.81,1.8-25.63,3.5-38.45,5.23C155.32,357.19,149.14,354.34,142.7,353.93z"/>
	<path class="st3" d="M298.77,186.02c-4.85-3.45-4.2-8.08-2.75-12.87c3.97-1.15,4.75-4.08,3.44-7.38c-1.64-4.1-2.03-8.68-4.65-12.4
		c-0.94-1.33-0.87-2.8-0.64-4.31c1.97-0.43,3.94-0.85,5.91-1.27c14.65,7.21,30.55,9.26,46.44,11.45c5.67,0.78,11.27,1.49,16.18,5.42
		c5.42,4.35,6.04,16.29,0.37,20.77c0.5-4.66,2.78-9.35-0.12-13.98c0.1-0.82-0.25-1.31-1.07-1.47c0,0,0.04,0.05,0.04,0.05
		c-0.1-0.78-0.5-1.22-1.33-1.19c0,0-0.07-0.08-0.08-0.08c-0.68-2.91-2.84-3.57-5.47-4.12c-13.21-2.75-26.81-3.26-39.87-6.87
		c-4.13-3.55-9.78-3.6-14.34-6.25c-1.98-1.15-2,1-1.86,2.22c0.38,3.24,0.76,6.52,2.83,9.26c0.1,1.22,0.21,2.45,0.31,3.67
		C301.64,173.23,303.39,180.17,298.77,186.02z"/>
	<path class="st1" d="M403.78,57.86c-4.5,0.07-8.56,0.5-12.09-1.91c-4.06-2.78-6.38-8.79-5.17-13.07c1.33-4.7,4.96-7.41,10.84-7.94
		c9.2-0.83,18.17,0.76,26.96,3.13c4.08,1.1,6.46,4.41,6.65,8.91c0.18,4.4-2.46,7.03-6.23,7.64
		C417.6,55.78,410.71,58.82,403.78,57.86z M407.43,39.89c0-0.01,0-0.02,0-0.03c-2.99,0-5.99,0.06-8.98-0.02
		c-4.22-0.11-7.24,1.25-7.4,6c-0.18,5.33,2.11,7.67,7.25,8.08c7.29,0.59,14.17-0.86,20.89-3.57c2.38-0.96,5.26-1.69,4.58-4.85
		c-0.66-3.08-2.24-5.9-6.37-5.66C414.09,40.04,410.76,39.89,407.43,39.89z"/>
	<path class="st1" d="M524.95,279.94c8.12,1.28,16.25,2.56,24.37,3.83c5.32,0.83,10.51-0.83,15.78-0.85
		c11.38-0.05,22.83,0.81,33.86-3.04c0.01,0.68,0.03,1.36,0.04,2.04c-0.22,2.48-2.22,1.82-3.69,2.09c-2.95,0.54-5.13,1.89-5.58,5.13
		c-7.18-0.92-14.33-2.33-21.47,0.57c-1.52,0.62-3.57-0.1-5.38-0.21c-0.81-2.64-3.01-1.54-4.62-1.56
		c-10.12-0.11-20.23-0.09-30.35-0.11C526.93,285.19,524.31,283.18,524.95,279.94z"/>
	<path class="st0" d="M691.83,189.84c0.19-3.5,2.49-6,4.57-8.35c2.36-2.65,6.95-0.09,8.48,4.51c0.03,3.88,0.07,7.75,0.1,11.63
		c-1.77,1.61-2.08,3.37-1.44,5.79c1.01,3.77,0.53,7.55-1.4,11.08c-0.48,0.88-0.73,2.04-1.82,2.16c-1.51,0.17-1.62-1.33-2.22-2.26
		c-1.52-2.37-0.51-6.08-3.93-7.43C694.48,201.1,691.47,195.7,691.83,189.84z"/>
	<path class="st3" d="M562.87,289.49c1.81,0.1,3.87,0.82,5.38,0.21c7.15-2.9,14.3-1.49,21.47-0.57c0.87,2.51-0.83,2.7-2.59,2.95
		c-8.97,1.23-17.93,2.58-26.92,3.7c-7.52,0.94-15.08,1.55-22.6,2.47c-2.21,0.27-3.96,0.23-4.71-2.24c1.68-1,2.96-2.4,4.08-3.97
		c1.53-2.23,3.86-2.15,6.18-2.18C549.74,289.76,556.31,289.61,562.87,289.49z"/>
	<path class="st2" d="M486.27,290.83c-1.19-1.77-4.02-2.81-2.59-5.76c1.87-1.15,1.62-5.27,5.17-3.99c4.63,1.67,9.01,0.38,13.45-0.67
		c3.32,0.18,6.86-0.16,8.57,3.73c0.08,0.63,0.16,1.26,0.24,1.88c3.86,7.09,3.45,7.73-5.11,8.03c-1.31,0.05-2.61,0.18-3.92,0.27
		c-1.74-4.13-5.77-2.5-8.65-2.92c-2.35-0.34-1.07,2.81-1.5,4.39c-0.21,0.16-0.43,0.27-0.68,0.35c-0.86,0.04-1.72,0.07-2.58,0.11
		c-0.25-0.08-0.47-0.21-0.65-0.4C487.44,294.17,486.86,292.5,486.27,290.83z"/>
	<path class="st3" d="M688.86,138.08c5.7,0.36,4.52,4.3,3.63,7.58c-2.05,7.57-7.84,12.91-12.26,18.99
		c-1.98,2.72-5.52,1.64-7.93-0.56c-1.32-1.21-2.17-2.93-4.13-3.35c-0.43-0.92-0.86-1.84-1.29-2.77c-0.6-2.05-1.2-4.1-1.8-6.14
		c6.06,1.6,11.69-0.21,17.3-2.18C689.8,147.05,690.63,145.57,688.86,138.08z"/>
	<path class="st4" d="M287.6,333c17.18-2.49,34.36-4.98,51.54-7.47c0.67,1.49,1.34,2.97,2.01,4.45c0,0-0.06,0.03-0.06,0.03
		c-1.27-0.22-2.49-0.29-3.32,0.96c-14.11,2.66-28.35,4.44-42.61,6.12C292.42,336.13,287.51,339.16,287.6,333z"/>
	<path class="st3" d="M486.27,290.83c0.59,1.67,1.17,3.35,1.76,5.02c-6.55,0.65-12.6,2.8-18.25,6.15
		c-7.42-1.73-14.75,0.29-22.11,0.37c-8.32,0.09-16.76-0.69-23.83-6.11c3.71-0.88,7.31,0.38,10.84,0.93
		c12.78,1.98,25.16-0.17,37.5-2.89c3.42-0.75,6.73-1.71,10.29-1.37C484.11,293.08,485.94,293.21,486.27,290.83z"/>
	<path class="st1" d="M665.06,151.84c0.6,2.05,1.2,4.1,1.8,6.14c-1.66-0.14-3.03-1.15-3.58-2.45c-2.63-6.23-6.65-12.11-7.07-18.95
		c-0.25-4.11-2.02-5.92-5.34-6.48c-9.7-1.63-18.17-6.23-26.66-10.72c-3.78-2-7.42-4.5-8.37-9.24c2.35-0.24,4.39,0.95,5.87,2.32
		c7.74,7.17,17.41,10.05,27.16,12.9c9.52,2.78,10.29,3.75,11.06,13.73c0.2,2.62,0.11,5.33,2.76,6.97
		C663,148.18,663.98,150.03,665.06,151.84z"/>
	<path class="st3" d="M502.3,280.41c-4.44,1.05-8.82,2.34-13.45,0.67c-3.55-1.28-3.3,2.84-5.17,3.99c-2.94-2.05-5.49-5.06-9.73-3.82
		c-1.69,0.49-1.97-0.63-2.06-1.92c-0.14-1.9,0.35-3.35,2.59-3.38c4.65-0.05,9.31,0,13.96-0.08c6.9-0.12,13.99,0.98,20.17-3.61
		c1-0.74,2.91-0.26,4.39-0.35c2.79,4.3,2.14,5.61-2.9,5.99C507.32,278.12,504.05,276.92,502.3,280.41z"/>
	<path class="st4" d="M68.86,346.2c3.74-1.03,4.88-3.54,4.23-7.19c-0.7-3.98,1.69-4.6,4.75-3.99c4.19,0.84,7.19,3.27,8.67,7.38
		c2.79,7.77,10.43,12.26,18.85,11.02c1.94-0.29,3.9-1.01,5.67,0.52c-0.38,0.65-0.76,1.3-1.14,1.95c-4.36,0.41-8.72,0.83-13.08,1.24
		c-3.86-1.03-7.33-2.93-10.78-4.86c0.44-3.71-0.5-6.9-3.43-9.39c-1.13-0.96-2.42-1.29-3.69-0.63c-1.09,0.56-0.78,1.66-0.39,2.64
		c0.47,1.19,0.59,2.72-0.94,2.73C74.63,347.63,71.3,349.4,68.86,346.2z"/>
	<path class="st3" d="M243.8,138.14c5.14,6.01,8.78,13.18,14.56,18.69c1.45,1.39,2.98,2.71,2.68,5.02
		c-5.31-0.93-8.81-4.39-11.34-8.76c-5.13-8.84-13.28-13.32-22.56-16.31c0,0-0.07,0.03-0.07,0.03c-0.55-2.45-1.83-4.27-4.58-3.76
		c-2.09,0.38-1.32,2.15-1.06,3.52c-0.14,0.11-0.29,0.22-0.43,0.33c-3.06-2-2.96-5.48-3.42-8.4c-0.47-3.01,2.24-2.44,4.17-2.31
		c4.25,6.6,10.56,9.77,18.12,10.85C240.97,138.17,242.48,137.79,243.8,138.14z"/>
	<path class="st3" d="M511.11,286.02c-0.08-0.63-0.16-1.26-0.24-1.89c4.46-4.37,10.97-7.4,10.04-15.31c1.53-2.4,1.75-4.24-1.66-5.21
		c-1.5-0.43-3.05-1.28-3.84-3.51c4.44-0.11,8.24,1.88,10.74,4.37c2.54,2.53,0.33,6.14-1.41,9.13c-1.14,1.96-3.31,4.36,0.22,6.32
		c-0.64,3.24,1.97,5.26,2.95,7.89C522.15,288.69,516.67,286.97,511.11,286.02z"/>
	<path class="st3" d="M142.7,353.93c6.44,0.41,12.62,3.26,19.22,2.04c-7.04,2.88-14.69,2.24-21.95,3.84
		c-0.6,0.13-1.58,0.08-1.91-0.29c-4.55-5.15-11.69-3.09-16.96-6.15c-1.74-1.01-2.83-0.22-3.61,1.32c-0.94,1.87-2.02,3.5-4.49,3.21
		c0.32-1.69,0.65-3.39,0.97-5.08c-0.1-2.08,0.76-3.22,2.97-3.04c3.98-0.75,7.64-0.05,11.36,1.7c2.76,1.3,5.96,1.66,8.96,2.45
		C139.08,353.92,140.89,353.93,142.7,353.93z"/>
	<path class="st4" d="M694.17,206.95c3.42,1.35,2.41,5.06,3.93,7.43c0.6,0.94,0.72,2.43,2.22,2.26c1.09-0.12,1.34-1.28,1.82-2.16
		c1.93-3.53,2.41-7.31,1.4-11.08c-0.65-2.41-0.33-4.17,1.44-5.79c0.64,13.05-0.24,26.01-2.13,38.99
		C697.1,227.39,695.17,217.3,694.17,206.95z"/>
	<path class="st2" d="M43.77,346.78c7.03,0.24,13.02,2.88,18.39,7.42c2.55,2.15,2.18,3.5-0.22,5.1c-7.07-3.75-14.35-7.02-22.07-9.26
		C41.85,349.76,44.53,350.32,43.77,346.78z"/>
	<path class="st1" d="M520.9,268.83c0.94,7.91-5.58,10.93-10.04,15.31c-1.71-3.88-5.25-3.54-8.57-3.72c1.75-3.49,5.02-2.29,7.8-2.5
		c5.04-0.38,5.69-1.69,2.9-5.99C514.83,268.85,517.88,268.87,520.9,268.83z"/>
	<path class="st2" d="M102.23,153.82c0.39,3.64,3.83,3.48,6.03,4.88c-0.1,2.47-0.2,4.94-0.3,7.41c-3.39-5.75-9.43-9.81-10.75-16.87
		c-0.46-2.47-2.35-2.84-4.35-3.35c-3.27-0.84-6.34-2.07-6.62-6.18c5.36,2.35,11.6,3.29,14.74,9.19
		C101.4,150.54,101.81,152.18,102.23,153.82z"/>
	<path class="st3" d="M411.83,304.09c0.04,0.58,0.08,1.16,0.12,1.74c-3.09,1.68-1.41,3.94-0.75,6.07l-0.31,0.06c0,0-0.31,0-0.31,0
		c-5.71-3.41-11.23-4.28-16.26,1.24c1.16-3.33-1.28-8.48,4.71-9.38C403.29,303.92,407.56,304.01,411.83,304.09z"/>
	<path class="st2" d="M68.86,346.2c2.44,3.2,5.77,1.43,8.71,1.41c1.52-0.01,1.4-1.54,0.94-2.73c-0.38-0.97-0.7-2.07,0.39-2.64
		c1.27-0.66,2.56-0.32,3.69,0.63c2.93,2.49,3.87,5.68,3.43,9.39c-6.92-1.2-13.84-2.41-20.76-3.62c-0.51-0.63-1.02-1.25-1.52-1.87
		c0.78-0.23,1.56-0.46,2.33-0.69C67,346.13,67.93,346.16,68.86,346.2z"/>
	<path class="st1" d="M300.08,147.78c-1.97,0.42-3.94,0.85-5.91,1.27c0.58-3.81-1.96-6.53-3.37-9.65c-0.68-1.5-1.34-3.04-1.71-4.64
		c-0.31-1.33-0.05-2.82,1.42-3.39c1.34-0.52,2.39,0.56,2.79,1.56C295.34,137.99,299.23,142.19,300.08,147.78z"/>
	<path class="st3" d="M343.62,279.84c0.5-2.02,1-4.04,1.5-6.06c3.54,0.72,7.08,1.5,10.64,2.13c1.65,0.29,2.19,1.21,2.21,2.73
		c0.02,1.52-0.65,2.86-2.08,2.95C351.71,281.85,347.28,283.33,343.62,279.84z"/>
	<path class="st1" d="M239.87,137.03c-7.56-1.08-13.86-4.25-18.12-10.85C228.52,125.62,238.34,130.61,239.87,137.03z"/>
	<path class="st2" d="M18.05,338.97c3.09-0.18,5.02,2.28,7.57,3.29c3.18,1.26,6.45,2.3,9.67,3.44c-2.2,0.21-4.64,0.02-5.17,3.06
		c-4.33-0.46-8.37-1.93-12.35-3.61C18.75,343.12,15.97,340.94,18.05,338.97z"/>
	<path class="st3" d="M341.15,329.99c-0.67-1.48-1.34-2.97-2.01-4.45c4.55-1.61,9.05-3.49,14.06-2.45
		C350.13,327.04,346.88,330.68,341.15,329.99z"/>
	<path class="st3" d="M287.6,333c-0.08,6.16,4.82,3.13,7.56,4.1c-3.84,1.7-8.11,0.43-12.05,1.69c-0.75,0.24-2.43-0.24-2.63-0.78
		c-1.72-4.63-5.67-2.75-8.8-3.22c2.93-2.22,6.86,0.33,9.77-2.05C283.5,332.83,285.55,332.91,287.6,333z"/>
	<path class="st3" d="M599,281.9c-0.01-0.68-0.03-1.36-0.04-2.04c3.24-1.46,3.33-4.51,3.51-7.9c3.51,1.46,5.13,3.77,4.37,7
		C605.77,283.43,601.86,281.55,599,281.9z"/>
	<path class="st4" d="M30.13,348.75c0.53-3.04,2.96-2.85,5.17-3.06c2.82,0.41,5.78-0.23,8.48,1.09c0.76,3.54-1.92,2.98-3.9,3.26
		C36.66,349.43,33.14,351.02,30.13,348.75z"/>
	<path class="st3" d="M96.8,357.13c4.36-0.41,8.72-0.83,13.08-1.24c0.71,0.69,1.42,1.37,2.13,2.06
		C106.86,359.12,101.6,362.35,96.8,357.13z"/>
	<path class="st1" d="M602.13,100.76c5.31,1.27,9.53,3.98,11.98,9.03C609.12,108.1,603.86,106.77,602.13,100.76z"/>
	<path class="st3" d="M491.93,295.79c0.42-1.57-0.85-4.73,1.5-4.39c2.87,0.42,6.91-1.21,8.65,2.92
		C499.1,297.63,495.32,295.31,491.93,295.79z"/>
	<path class="st3" d="M437.9,311.72c-0.58-3.31-3.87-0.77-5.13-2.49c4.7-3.58,8.37-3.19,11.37,1.29
		C442.25,311.92,440.14,312.13,437.9,311.72z"/>
	<path class="st4" d="M318,206.75c-1.1,1.31-2.29,2.45-4.19,2.25c-1.2-1.04-0.61-2.59-1.09-3.84c0.09-1.1,0.19-2.2,0.28-3.3
		c2.06,0.05,4.12,0.1,6.18,0.15C317.76,203.33,318,205.07,318,206.75z"/>
	<path class="st3" d="M18.05,338.97c-2.08,1.97,0.69,4.15-0.27,6.17c-2.46-0.66-5.06-1.03-6.79-3.24
		C12.38,338.6,15.3,338.98,18.05,338.97z"/>
	<path class="st3" d="M479.23,251.08c8.89,0,17.78,0,26.67,0c0,0.17,0,0.34,0,0.52c-8.92,0-17.84,0-26.76,0
		C479.17,251.42,479.2,251.25,479.23,251.08z"/>
	<path class="st1" d="M716.15,198.06c1.67,0.01,2.7,0.82,2.64,2.33c-0.08,1.8-1.26,3.04-3.05,3.29c-1.55,0.22-2.58-0.78-2.53-2.28
		C713.27,199.58,714.54,198.55,716.15,198.06z"/>
	<path class="st4" d="M391.04,238.81c-7.59,0-15.17,0-22.76,0C375.87,237.6,383.46,237.04,391.04,238.81z"/>
	<path class="st3" d="M397.08,291.14c-1.83,3.37-3.73,5.63-6.11,0.39C392.83,288.47,395.04,291.18,397.08,291.14z"/>
	<path class="st2" d="M536.99,292.03c-1.12,1.57-2.41,2.97-4.08,3.97c-3.51-1.04-2.44-2.63-0.21-3.71
		C533.89,291.7,535.54,292.08,536.99,292.03z"/>
	<path class="st2" d="M112.01,357.95c-0.71-0.69-1.42-1.37-2.13-2.06c0.38-0.65,0.76-1.3,1.14-1.95c0.98-0.37,1.97-0.75,2.95-1.12
		c-0.32,1.69-0.65,3.39-0.97,5.08c0,0-0.49,0.07-0.49,0.07S112.01,357.95,112.01,357.95z"/>
	<path class="st3" d="M179.8,132.22c0.43-0.18,0.87-0.36,1.3-0.54c1.26,0.3,2.82,0.07,3.26,1.83
		C182.64,133.8,180.81,134.46,179.8,132.22z"/>
	<path class="st3" d="M337.76,330.98c0.84-1.25,2.06-1.18,3.32-0.96C340.51,332.18,339.3,332.14,337.76,330.98z"/>
	<path class="st3" d="M488.68,296.24c0.86-0.04,1.72-0.07,2.58-0.11C490.48,298.27,489.62,298.15,488.68,296.24z"/>
	<path class="st3" d="M221.92,137.94c-0.31-0.35-0.61-0.69-0.92-1.04c0.14-0.11,0.29-0.22,0.43-0.32c0.29,0.45,0.57,0.91,0.86,1.36
		L221.92,137.94z"/>
	<path class="st2" d="M326.76,231.92c-0.24-0.37-0.47-0.74-0.71-1.11C326.29,231.18,326.53,231.55,326.76,231.92z"/>
	<path d="M279.72,248.24c-2.81-7.16-3.5-15.06-8.26-21.59c-3.28-4.51-3.46-1.16-4.42,1.14c0.3,1.61,1.05,3.3,0.76,4.79
		c-0.3,1.51-0.07,4.12-2.63,4.06c-2.21-0.05-2.07-2.18-2.32-3.77c-11.02,5.2-21.96,7.68-32.63-0.85
		c-6.44-5.15-11.66-11.41-16.19-18.22c-9.94-14.96-20.1-29.73-33.59-41.83c-2.15,0.02-4.28,0.09-6.34-0.85
		c-7.54-3.43-15.13-6.72-22.64-10.2c-1.46-0.67-2.64-1.95-3.95-2.94c-0.77,0.04-1.54,0.07-2.31,0.11
		c0.79,13.03,5.72,24.71,11.78,36.03c1.86,3.48,3.88,6.95,3.98,11.09c0.79,2.14,1.57,4.29,2.39,6.43c2.07,5.4,3.09,10.91-0.04,16.16
		c-4.2,7.05-15.53,10.92-23.46,8.48c-13.85-4.27-21.18-14.96-27-27.18c-3.34-1.79-6.85-3.08-10.66-3.4
		c-3.21,0.39-6.1,0.11-7.31-3.59c-3.55-0.66-4.85-4.4-7.89-5.77c-4.93-2.22-9.85-4.45-14.78-6.67c-3.5,0.5-6.97,0.5-10.28-0.91
		c-2.22-0.95-3.84-0.35-5.18,1.5c1.66,3.02,0.16,6.75,2.19,9.68c3.34,1.64,6.96,8.2,5.92,11.39c-1.36,4.18-4.7,2.4-7.49,2.05
		c-1.41,0.34-3.41,0.21-4.13,1.11c-2.95,3.68-6.78,3.37-10.72,3.02c-2.87,0.76-5.71,1.68-8.62,2.22c-2.88,0.53-5.87,0.71-6.06-3.57
		c-1.76-2.42-0.73-4.38,1.58-5.16c3.59-1.22,6.57-2.78,7.93-6.6c0.16-0.44,1.48-0.47,2.27-0.69c0.02-0.52,0.04-1.04,0.05-1.55
		c-0.64-1.46-1.48-2.94,0.33-4.22c0.1-0.62,0.19-1.24,0.29-1.86c-0.3-2.08-0.64-4.16,0.88-5.97c0.23-0.95,0.27-2,0.71-2.84
		c1.86-3.57,0.96-5.35-3.16-5.33c-6.48,0.04-6.75-5.61-8.31-9.65c-1.49-3.83,2.19-5.46,4.6-7.3c3.41-2.6,7.6-3.25,11.68-3.73
		c4.42-0.52,8.29-2.13,11.92-4.54c-4.69-3.92-7.99-8.76-9.76-14.62c-2.71-2.17-5.39-1.81-8.71-0.97
		c-7.86,1.98-15.97,0.84-23.99,0.65c-2.57,0.28-4.67-0.92-6.91-1.92c-2.6-1.17-4.86-3.41-8.06-2.98c-0.05,1.5-0.14,2.99-0.14,4.49
		c-0.01,45.48,0,90.96,0,136.44c0,2.14,0,4.29,0,6.54c3.45-3.59,7.09-7.06,10.98-10.39c-3.89,3.33-7.53,6.8-10.98,10.39
		c0,0.15,0,0.29,0,0.44c3.78,0.23,5.38-3.28,8.54-3.89c15.34-2.95,30.77-4.62,46.41-3.96c3.6,0.15,7.75,0.76,8.88,4.23
		c2.09,6.44,6.52,5.25,11.08,4.71c2.82-2.77,6.61-3.37,10.14-3.56c9.77-0.53,19.35-3.41,29.23-2.45c3.01-1.72,8.07-1.14,8.74-5.32
		c0.82-5.16,3.75-6.96,8.13-7.69c13.44-2.25,26.85-4.34,40.62-3.06c5.13,0.48,9.96,0.24,12.32,5.91
		c10.55,1.05,20.61-2.55,30.98-3.32c5.92-0.44,11.79-1.53,17.68-2.33c0.9,0.01,1.84-0.32,1.98-1.17c1.13-6.97,6.45-8.06,12.14-9.27
		c9.4-2,18.95-1.85,28.44-2.68C278.06,250.73,280.83,251.06,279.72,248.24z"/>
	<path class="st4" d="M86.24,139.7c0.29,4.11,3.35,5.34,6.62,6.18c2,0.51,3.89,0.89,4.35,3.35c1.32,7.06,7.36,11.12,10.75,16.87
		c1.09,2.09,1.4,4.71,3.89,5.87c3.66,3.13,4.26,7.08,3.05,11.49c-0.74,2.72-0.25,4.57,3.09,4.46l-0.03-0.02
		c0.48,0.78,1.24,0.93,2.07,0.93l0.03,0c-0.24,3.64,2.29,4.13,4.88,3.87c3.62-0.36,7.23-1.08,9.27-4.71
		c0.23-0.01,0.44-0.07,0.64-0.17c5.56-2.02,6.98-5.39,3.67-10.03c-2.94-4.13-6.2-8-7.43-13.07c0.43-2.92,0.94-5.84-0.18-8.73
		c0.3-5.19,1.06-10.22-0.62-15.55c-1.5-4.75,0.96-9.82,2.54-14.43c1.17-3.44,5.07-3.9,8.47-4.09c7.57-0.42,13.16,3.94,17.67,8.89
		c11.82,12.96,27.73,19.17,42.71,26.84c7.06,3.61,11.49,8.14,11.36,16.39c-0.06,3.93,2.87,5.84,5.89,7.31
		c4.74,2.3,9.5,4.5,13.22,8.38c2.29,0.3,5.27,0.21,5.66,3.04c0.77,5.59,5,7.48,9.15,9.51c3.43,1.68,6.71,3.31,9.36,6.33
		c1.59,1.81,4.66,4.48,5.88-0.83c2.27,0.97,2.66,3.29,3.63,5.16c0.62,1.2,2.17,2.65,0.06,3.78c-1.44,0.78-3.3,0.45-4.02-0.96
		c-2.24-4.41-6.73-4.43-10.43-6.25c-6.61-3.26-13.6-5.83-18.78-12.08c-3.24-3.92-9.12-5.95-14.15-7.99
		c-3.51-1.42-5.93-3.33-7.63-6.59c-2.38-4.56-5.24-8.89-6.29-14.05c-0.62-3.05-2.66-4.83-5.49-5.93
		c-14.23-5.53-26.03-14.6-36.65-25.36c-3.88-3.93-8.21-7.25-13.19-9.73c-3.96-1.97-7.92-3.05-11.65,0.14
		c-4.05,3.46-6.54,8.23-4.97,13.29c4.71,15.24,7.31,31.07,12.94,46.04c0.95,2.52,1.74,5.01,0.58,7.73
		c-0.78,1.84-0.33,3.52,0.95,5.09c2.04,2.5,1.33,4.61-1.22,6.26c-2.39,1.54-4.88,2.57-7.85,2.82c-4.11,0.35-4.21-2.66-5.39-5.13
		c-0.88-1.86-2.82-2.62-4.83-3.21c-10.52-3.1-17.27-10.17-20.92-20.35c-1.08-3-2.43-5.82-4.32-8.39c-2.78-3.76-4.72-7.96-6.84-12.11
		c-5.65-11.06-13.97-17.15-26.08-13.12c-6.2,2.06-6.76,4.29-2.13,9.01c1.16,1.18,2.23,2.45,3.34,3.67
		c-1.64-0.16-3.28-0.32-4.91-0.48c0,0-0.03-0.08-0.03-0.08c-0.36-0.94-1.1-0.99-1.94-0.85c-0.67-0.52-1.33-1.05-2-1.57
		c-1.48-1.73-2.47-3.81-4.51-5.14c-2.97-1.94-3.51-5.3-3.06-8.34c0.43-2.94,3.34-3.67,6.03-4.26c7.84-1.72,15.79-0.31,23.66-0.94
		c0,0-0.06-0.04-0.06-0.04c0.37,0.33,0.73,0.67,1.1,1c0,0-0.03-0.05-0.03-0.05c0.34,0.34,0.69,0.68,1.03,1.02L86.24,139.7z"/>
	<path class="st3" d="M65.92,159.04c1.64,0.16,3.27,0.32,4.91,0.48c5.48,0.83,10.53,3.26,16.13,3.87c4.96,0.55,7.18,4.65,8.06,9.34
		c-2.74,2.73-2.95,7.62-7.44,8.83c-2.32,0.62-3.73,1.61-3.71,4.37c0.02,2.7,1.62,3.71,3.61,4.74c3.36,1.74,7.54,2.59,9.82,5.57
		c3.29,4.31,7.29,5.92,12.39,5.76c1.75,2.05,2.9,4.36,3.16,7.08c-3.34-1.79-6.85-3.08-10.66-3.4c-1.23-3.65-4.12-3.93-7.31-3.59
		c-3.55-0.66-4.85-4.4-7.89-5.77c-4.93-2.22-9.85-4.45-14.78-6.67c-2.04-3.27-5.58-3.77-8.82-4.91c-2.15-0.75-4.82-0.35-6.38-2.42
		c-3.08-4.07-7.28-4.82-12.01-4.49c-2.31,0.16-4.74,0.3-6.96-0.21c-2.91-0.67-5.18-2.82-3.18-5.81c4.26-6.4,14.37-12.3,22.36-4.33
		c1.73,1.73,4.05,2.36,6.39,2.38c6.3,0.05,12.65-0.49,17.88,4.24c1.57,1.42,3.24,0.29,4.32-1.06c1.23-1.52,2.67-3.07,2.15-5.35
		c-0.55-2.4-2.54-1.54-4.05-1.83c-4.68-0.92-9.37-1.84-14.02-2.88C67.83,162.52,66.24,161.36,65.92,159.04z"/>
	<path class="st3" d="M262.18,207.77c-1.22,5.31-4.29,2.64-5.88,0.83c-2.65-3.02-5.93-4.65-9.36-6.33
		c-4.15-2.03-8.37-3.92-9.15-9.51c-0.39-2.83-3.37-2.73-5.66-3.04c-0.96-6.41-4.36-10.51-10.88-11.98
		c-3.68-0.83-5.75-2.97-4.97-7.22c1.37-7.37-2.08-12.48-9.19-14.7c-4.69-1.47-9.62-2.82-12.32-7.63c7.63,0.97,14.24,4.66,20.41,8.76
		c4.26,2.83,6.17,7.82,5.76,13.15c-0.28,3.53,0.93,5.43,4.4,6.58c5.24,1.73,10.05,4.42,13.71,8.73c3.05,3.58,5.58,2.77,7.91-0.75
		C251.11,192.98,257.48,199.83,262.18,207.77z"/>
	<path class="st2" d="M109.7,202c-5.1,0.16-9.1-1.45-12.39-5.76c-2.28-2.98-6.46-3.83-9.82-5.57c-1.99-1.03-3.59-2.04-3.61-4.74
		c-0.02-2.76,1.39-3.75,3.71-4.37c4.49-1.2,4.7-6.1,7.44-8.83c1.56,0.74,2.77,1.97,3.39,3.48C101.96,184.91,107.17,192.87,109.7,202
		z"/>
	<path class="st4" d="M62.06,345.73c-7.59-2.15-15.08-4.8-22.8-6.29c-6.57-1.27-12.86-2.77-18.44-6.58
		c5.72-2.12,11.88,0.09,17.66-1.77c2.14-0.69,4.44-0.61,2.81-4.01c-0.93-1.92,0.31-2.52,2.3-2.38c4.24,0.3,7.37,2.34,8.85,6.15
		C54.64,336.52,58.26,341.16,62.06,345.73z M39.43,333.36c-2.77-0.43-5.63-1.23-8.35,1.2C34.59,336.81,36.91,334.45,39.43,333.36z"
		/>
	<path class="st1" d="M360.1,303.31c3.99-1.55,7.87-3.52,12.35-3.19c2.64,0.2,4.74-1.34,7.08-2.12c2.18-0.73,4.6-3.2,6.76-0.56
		c1.49,1.82,3.6,4.25,2.34,6.71c-1.46,2.84-4.95,2.14-7.28,1.69c-5.63-1.1-11.11-1.55-16.66,0.05c-1.11,0.32-2.23,0.61-3.35,0.91
		C360.44,305.81,359.91,304.69,360.1,303.31z"/>
	<path class="st2" d="M185.12,269.65c10.55,1.05,20.61-2.55,30.98-3.32c5.92-0.44,11.79-1.53,17.68-2.33
		c-6.29,5.11-13.2,7.95-21.58,6.97c-5.97-0.7-11.88,0.98-17.82,1.55C191.07,272.84,186.9,274.74,185.12,269.65z"/>
	<path class="st3" d="M75.94,285.82c2.82-2.77,6.61-3.37,10.14-3.56c9.77-0.53,19.35-3.41,29.23-2.45
		c-2.74,4.57-6.92,5.81-11.96,5.3C94.19,284.19,85.1,286.44,75.94,285.82z"/>
	<path class="st3" d="M180.45,171.97c-2.15,0.02-4.28,0.09-6.34-0.85c-7.54-3.43-15.13-6.72-22.64-10.2
		c-1.46-0.67-2.64-1.95-3.95-2.94c2.61-1.85,5.31-0.6,7.58,0.36c7.44,3.15,14.71,6.71,22.03,10.15
		C178.67,169.2,179.96,170.22,180.45,171.97z"/>
	<path class="st3" d="M145.22,158.08c0.79,13.03,5.72,24.71,11.78,36.03c1.86,3.48,3.88,6.95,3.98,11.09
		c-8.18-13.76-15.77-27.76-17.84-43.99C142.93,159.62,143.08,158.16,145.22,158.08z"/>
	<path class="st4" d="M362.83,308.08c1.8-0.06,3.6-0.18,5.4-0.17c1.96,0.01,3.56,0.54,3.8,2.9c0.24,2.3-0.75,3.72-2.88,4.52
		c-2.72,1.01-5.51,0.43-8.27,0.51C361.53,313.25,362.18,310.66,362.83,308.08z"/>
	<path class="st4" d="M137.27,353.92c-3-0.78-6.2-1.15-8.96-2.45c-3.72-1.74-7.38-2.44-11.36-1.7c2.79-5.48,8.47-4.61,15.05-0.9
		C134.05,350.04,135.53,352.21,137.27,353.92z"/>
	<path class="st4" d="M341.78,290.01c5.57-1.26,9.21,3.87,14.8,4.16c-1.85,0.96-4.21,0.89-3.48,3.51c-1.44-0.21-2.88-0.55-4.33-0.59
		C344.11,296.98,342.09,294.36,341.78,290.01z"/>
	<path class="st2" d="M1.17,325.94c3.36,0.45,4.87,5.11,8.94,3.93c-3.62-4.38-4.73-10.25-8.94-15.86
		C1.17,318.91,1.17,322.42,1.17,325.94z"/>
	<path class="st1" d="M267.04,227.79c0.3,1.61,1.05,3.3,0.76,4.79c-0.3,1.51-0.07,4.12-2.63,4.06c-2.21-0.05-2.07-2.18-2.32-3.77
		C264.25,231.17,265.65,229.48,267.04,227.79z"/>
	<path class="st4" d="M338.02,283.11c0.37,1.5,0.74,3,1.12,4.5c-0.95-0.09-1.96-0.02-2.85-0.31c-1.38-0.45-3.96-0.14-3.1-2.66
		C333.91,282.54,335.55,280.88,338.02,283.11z"/>
	<path class="st4" d="M66.07,346.09c-0.78,0.23-1.55,0.46-2.33,0.69c-0.25-0.28-0.5-0.55-0.74-0.83
		C64.02,346,65.05,346.04,66.07,346.09z"/>
	<path class="st4" d="M340.9,282.7c-0.1,0.77-0.43,0.83-0.95,0.32C340.26,282.91,340.58,282.8,340.9,282.7z"/>
	<path class="st2" d="M665.06,151.84c-1.08-1.81-2.06-3.65-2.36-5.78c-0.24-3.09-0.5-6.17-0.7-9.26c-0.23-3.5,1.66-5.79,4.8-6.54
		c3.15-0.75,6.75-1.41,8.89,2.15c2.42,4.03,6.16,5.1,10.44,5.27c0.91,0.13,1.81,0.27,2.72,0.41c1.77,7.49,0.94,8.96-6.5,11.57
		C676.75,151.63,671.12,153.43,665.06,151.84z M677.2,147.93c1.88,0.13,4.25-0.65,4.47-3.43c0.22-2.69-2.03-3.55-4.42-3.47
		c-2.57,0.09-4.68,1.25-4.92,3.96C672.09,147.85,674.45,147.84,677.2,147.93z"/>
	<path class="st4" d="M571.26,49.92c13.11,2.58,26.62,3.7,36.39,14.98c5.28,6.09,12.35,10.51,17.18,17.22
		c2.95,4.11,3.57,8.89,4.87,13.47c0.77,2.72-2.36,4.65-5.86,3.73c-5.92-1.55-10.68-5.25-15.57-8.7c-3.92-2.77-7.77-5.67-12.83-6.17
		c-1.33-0.13-2.53-0.24-3.88,0.05c-9.83,2.07-21.3-5.11-23.83-14.96c-1.07-4.16-1.95-8.38-2.62-12.62
		C564.41,52.42,566.8,49.87,571.26,49.92z"/>
	<path class="st4" d="M315.17,157.77c13.06,3.6,26.65,4.12,39.87,6.87c2.63,0.55,4.79,1.21,5.47,4.12
		c-16.42-2.58-32.84-5.2-49.39-6.87c-4.8-0.48-6.44,1.67-6.25,8.08c-0.92-1.1-1.84-2.2-2.75-3.29c-0.1-1.22-0.21-2.45-0.31-3.67
		c0.68-6.97,0.79-6.97,7.58-5.46C311.23,157.95,313.23,157.71,315.17,157.77z"/>
	<path class="st2" d="M302.11,166.67c0.92,1.1,1.84,2.19,2.75,3.29c0.78,4.62,1.56,9.24,2.34,13.87c-2.43,3.1-0.86,6.65-1.14,10
		c-0.17,0.15-0.35,0.3-0.53,0.45c-3.36-1.85-4.71-5.35-6.76-8.26C303.39,180.17,301.64,173.23,302.11,166.67z"/>
	<path class="st2" d="M313,201.85c-0.09,1.1-0.19,2.2-0.28,3.3c-4.2-1.18-3.11-6.72-6.85-8.28c-0.11-0.87-0.22-1.73-0.33-2.6
		c0.18-0.15,0.35-0.3,0.53-0.45c1.37,0,2.66,0.27,3.79,1.12C310.9,197.25,311.95,199.55,313,201.85z"/>
	<path class="st4" d="M309.85,194.95c-1.12-0.84-2.41-1.12-3.79-1.12c0.28-3.34-1.29-6.9,1.14-10
		C309.33,187.24,309.04,191.23,309.85,194.95z"/>
	<path class="st4" d="M361.87,169.98c0.82,0.15,1.16,0.65,1.07,1.47C362.27,171.19,361.85,170.74,361.87,169.98z"/>
	<path class="st4" d="M360.58,168.83c0.83-0.03,1.23,0.42,1.33,1.19C361.12,170.02,360.75,169.53,360.58,168.83z"/>
	<path class="st4" d="M411.83,304.09c-4.27-0.09-8.54-0.18-12.8-0.27c-0.05-0.5-0.09-1.01-0.14-1.51c1.3-0.82,3.66,0.15,3.96-2.35
		c2.44-0.09,4.85-0.19,7.26-0.82c1.59-0.42,3.86-1.1,4.67,1.19C415.61,302.71,413.31,303.22,411.83,304.09z"/>
	<path class="st0" d="M402.85,299.97c-0.31,2.5-2.66,1.53-3.96,2.35c-0.65-0.12-1.29-0.28-1.94-0.35c-1.8-0.19-3.49-0.83-3.08-2.92
		c0.36-1.86,2.35-1.42,3.72-1.45C399.66,297.54,401.28,298.75,402.85,299.97z"/>
	<path class="st4" d="M411.2,311.91c-0.67-2.14-2.34-4.4,0.75-6.07c1.54,0.38,4.21-2.07,4.51,0.81
		C416.77,309.69,414.61,311.8,411.2,311.91z"/>
	<path class="st3" d="M48.85,142.05c-2.71-2.17-5.39-1.81-8.71-0.97c-7.86,1.98-15.97,0.84-23.99,0.65c-0.8-2.65-3.59-2.64-5.35-4
		c-0.8-0.61-1.69-1.2-1.26-2.38c0.3-0.82,1.21-1.62,1.9-1.23c5.29,2.98,10.54,0.28,15.8,0.06c0.25-0.01,0.52,0.36,0.78,0.56
		c-0.01,1.32-0.08,2.66,1.03,3.65c2.57,2.3,5.44,1.78,8.3,0.77c1.67-0.59,3.03-1.73,2.52-3.66c-0.72-2.72-3.44-1.04-5.02-1.97
		c2.78-3.04,6.77-2.16,10.06-2.44c9.02-0.78,18.11-0.35,27.12,0.83c1.12,0.15,1.81,0.68,2.13,1.73c-5.45,0.08-10.89,0.25-16.34,0.21
		C49.3,133.8,49.3,133.74,48.85,142.05z"/>
	<path class="st2" d="M48.85,142.05c0.46-8.31,0.46-8.25,8.97-8.19c5.44,0.04,10.89-0.13,16.34-0.21c3.45,1.07,8.28-1.1,9.93,4.21
		c-7.87,0.63-15.82-0.78-23.66,0.94c-2.69,0.59-5.6,1.32-6.03,4.26c-0.45,3.04,0.08,6.39,3.06,8.34c2.04,1.33,3.03,3.42,4.51,5.14
		c-1.06,1.44-2.26-0.56-3.35,0.13C53.92,152.75,50.62,147.92,48.85,142.05z"/>
	<path class="st3" d="M13.49,119.03c-1.64-0.16-3.4-0.01-4.9-0.56c-1.82-0.67-2.93-2.28-2.42-4.38c0.53-2.18,1.44-4.03,4.18-4.19
		c4.87-0.28,9.54,0.75,14.23,1.76c1.73,0.37,2.57,1.27,2.46,3.11c-0.11,1.77-0.97,3-2.69,2.98
		C20.68,117.68,17.21,119.37,13.49,119.03z"/>
	<path class="st2" d="M34.83,133.53c1.58,0.93,4.3-0.75,5.02,1.97c0.51,1.94-0.85,3.07-2.52,3.66c-2.86,1.01-5.73,1.54-8.3-0.77
		c-1.11-0.99-1.03-2.34-1.03-3.65C30.28,134.34,32.55,133.94,34.83,133.53z"/>
	<path class="st2" d="M86.11,139.79c-0.34-0.34-0.69-0.68-1.03-1.02C85.7,138.83,86.19,139.02,86.11,139.79z"/>
	<path class="st2" d="M85.11,138.82c-0.37-0.33-0.73-0.67-1.1-1C84.38,138.15,84.74,138.49,85.11,138.82z"/>
	<path class="st2" d="M222.29,137.93c-0.29-0.45-0.58-0.9-0.86-1.36c-0.26-1.38-1.03-3.14,1.06-3.53c2.75-0.5,4.02,1.32,4.58,3.76
		C225.4,136.88,223.7,136.79,222.29,137.93z"/>
	<path class="st3" d="M305.87,196.88c3.73,1.56,2.65,7.1,6.85,8.28c0.47,1.25-0.11,2.8,1.09,3.85c1.18,2.9,2.43,5.78,3.53,8.71
		c1.16,3.1-0.59,4.16-3.2,3.57c-2.74-0.61-4.06-3.17-5.79-5.2c-1.93-2.25-2.21-3.59-0.26-6.25c1.85-2.52-1.54-4-3.18-5.23
		c-3.03-2.27-5.81-4.49-5.98-8.64C301.25,196.27,303.56,196.57,305.87,196.88z"/>
	<path class="st3" d="M261.74,162.26c6.2,1.55,12.85,2.02,17.43,7.38c-5.73,1.29-10.46-1.42-15.29-3.8
		C262.33,165.08,261.94,163.75,261.74,162.26z"/>
	<path class="st3" d="M282.64,181.64c0.35,0.93,0.64,2.06,1.81,2.13c3.57,0.24,3.84,2.49,3.38,5.26c-2.56,0.34-4.43-1.07-6.32-2.46
		C278.07,184.05,278.61,182.45,282.64,181.64z"/>
	<path class="st3" d="M280.99,169.9c4.83-0.2,4.64,3.96,5.69,6.83c0.75,2.04-0.76,2.97-2.7,3.15
		C282.99,176.55,281.99,173.23,280.99,169.9z"/>
	<path class="st3" d="M289.79,190.19c3.23-0.74,5.51,0.15,6.25,3.66C293.2,193.93,290.89,193.09,289.79,190.19z"/>
	<path class="st2" d="M614.04,169.51c-0.11-4.39,2.47-6.25,6.7-4.81c5.52,1.88,11.61,10.76,11.15,16.38c-0.17,2-1.15,3.54-3.42,3.41
		C623.22,184.17,614.18,174.71,614.04,169.51z"/>
	<path class="st3" d="M191.96,146.93c-7.06-1.28-8.14-4.08-4.69-12.2c4.44,0.41,3.31,4.19,4.18,6.8
		C192.03,143.32,192.13,145.1,191.96,146.93z"/>
	<path class="st3" d="M111.85,171.97c-2.49-1.16-2.8-3.78-3.89-5.87c0.1-2.47,0.2-4.93,0.31-7.4c2.14,0.06,2.71,1.32,2.81,3.26
		c0.17,3.12,1.66,5.22,4.98,5.78c3.56,0.6,6.81-0.34,9.04-2.91c1.81-2.1,1.24-4.89-0.02-7.46c-3.24-6.58-2.7-8.37,3.45-12.73
		c0.66,1.77-0.64,3.05-1.13,4.54c-1.14,3.44-0.65,6.09,3.51,6.83c1.12,2.89,0.61,5.81,0.18,8.73c-0.37,2.62-2.39,3.68-4.41,4.86
		C122.02,172.31,116.9,171.84,111.85,171.97z"/>
	<path class="st3" d="M126.59,128.12c-3.58-4.97-3.07-6.95,2.43-8.19c5.27-1.19,10.29-3.32,15.93-3.14
		c7.07,0.23,12.88,2.74,17.42,8.01c3.71,4.31,7.9,7.44,13.86,7.45c-3.43,3.5-7.02,3.58-11.02,0.82c-2.8-1.93-4.79-4.58-6.99-7.03
		c-5.73-6.41-20.39-8.56-27.52-3.98C128.43,123.51,127.56,125.82,126.59,128.12z"/>
	<path class="st3" d="M128.81,141.04c-2.31-0.63-3.68-1.67-1.84-4.14C128.79,137.74,129.23,139.2,128.81,141.04z"/>
	<path class="st2" d="M315.17,157.77c-1.94-0.06-3.94,0.19-5.8-0.23c-6.79-1.52-6.89-1.51-7.58,5.46c-2.07-2.74-2.44-6.02-2.83-9.26
		c-0.14-1.21-0.12-3.36,1.86-2.22C305.39,154.17,311.04,154.22,315.17,157.77z"/>
	<path class="st3" d="M407.43,39.89c3.32,0,6.66,0.16,9.97-0.04c4.13-0.24,5.71,2.58,6.37,5.66c0.68,3.16-2.21,3.89-4.58,4.85
		c-6.72,2.7-13.6,4.15-20.89,3.57c-5.13-0.41-7.43-2.75-7.25-8.08c0.16-4.76,3.17-6.11,7.4-6c2.99,0.08,5.98,0.02,8.98,0.02
		C407.43,39.86,407.43,39.88,407.43,39.89z"/>
	<path class="st1" d="M58.61,156.67c1.09-0.7,2.29,1.31,3.35-0.13c0.66,0.52,1.33,1.04,2,1.57c0.48,0.66,1.09,1.01,1.94,0.85
		c0,0,0.03,0.08,0.03,0.08c0.32,2.32,1.91,3.47,3.96,3.93c4.66,1.04,9.34,1.96,14.02,2.88c1.51,0.3,3.5-0.56,4.05,1.83
		c0.52,2.27-0.92,3.83-2.15,5.35c-1.08,1.34-2.75,2.47-4.32,1.06c-5.24-4.73-11.59-4.19-17.88-4.24c-2.34-0.02-4.66-0.65-6.39-2.38
		c-7.99-7.96-18.1-2.07-22.36,4.33c-1.99,2.99,0.27,5.14,3.18,5.81c2.22,0.51,4.65,0.37,6.96,0.21c4.73-0.34,8.93,0.42,12.01,4.49
		c1.57,2.07,4.24,1.67,6.38,2.42c3.24,1.14,6.79,1.63,8.82,4.91c-3.5,0.5-6.97,0.5-10.28-0.92c-2.22-0.95-3.84-0.35-5.18,1.5
		c-1.2-0.18-2.41-0.36-3.61-0.54c-2.77-4.73-4.65-5.11-8.71-1.7c-1,0.84-1.87,1.86-3.26,2.06c0.23-0.95,0.27-2,0.71-2.84
		c1.86-3.57,0.96-5.35-3.16-5.33c-6.48,0.04-6.75-5.61-8.31-9.65c-1.49-3.83,2.19-5.46,4.6-7.3c3.41-2.6,7.6-3.25,11.68-3.73
		C51.11,160.69,54.97,159.08,58.61,156.67z"/>
	<path class="st2" d="M53.14,189.7c1.2,0.18,2.41,0.36,3.61,0.54c1.66,3.02,0.16,6.75,2.19,9.68c1.08,4.66,1.39,9.24-1.56,13.43
		c-1.41,0.34-3.41,0.21-4.13,1.11c-2.95,3.68-6.78,3.37-10.72,3.02c-0.49-1.23-0.97-2.45-1.45-3.68c0.14-1.65-2.04-3.29-0.05-4.96
		c2.96,3.64,6.62,4.2,10.4,1.74c3.84-2.5,4.41-6.51,3.04-10.53c-1.68-4.91-5.83-6.32-10.63-6.34
		C45.27,188.47,49.81,190.47,53.14,189.7z"/>
	<path class="st3" d="M41.04,208.84c-1.99,1.67,0.19,3.3,0.05,4.96c-4.63-0.5-8.3,4.53-13.23,2.33c-1.76-2.42-0.73-4.38,1.58-5.16
		c3.59-1.22,6.57-2.78,7.93-6.6c0.16-0.44,1.48-0.47,2.27-0.69c0.42,0.46,0.84,0.93,1.25,1.39
		C40.93,206.32,40.98,207.58,41.04,208.84z"/>
	<path class="st1" d="M57.39,213.35c2.95-4.2,2.64-8.77,1.56-13.43c3.34,1.64,6.96,8.2,5.92,11.39
		C63.51,215.48,60.18,213.7,57.39,213.35z"/>
	<path class="st3" d="M53.14,189.7c-3.34,0.78-7.88-1.23-9.29,4.01c-0.36,0.37-0.72,0.74-1.08,1.11c-0.27,0.36-0.54,0.72-0.81,1.08
		c0,0,0.02-0.04,0.02-0.04c-0.56,0.06-1.12,0.12-1.69,0.17c-0.3-2.08-0.64-4.16,0.88-5.97c1.39-0.21,2.26-1.22,3.26-2.06
		C48.49,184.58,50.37,184.96,53.14,189.7z"/>
	<path class="st1" d="M27.85,216.12c4.93,2.2,8.6-2.82,13.23-2.33c0.48,1.23,0.97,2.45,1.45,3.68c-2.87,0.75-5.71,1.68-8.62,2.22
		C31.03,220.22,28.04,220.41,27.85,216.12z"/>
	<path class="st1" d="M94.88,202.09c3.19-0.34,6.08-0.06,7.31,3.59C98.98,206.07,96.09,205.79,94.88,202.09z"/>
	<path class="st2" d="M40.3,196.03c0.56-0.06,1.12-0.12,1.69-0.17c-0.55,3.04,1.09,6.35-1.1,9.2c-0.42-0.46-0.83-0.93-1.25-1.39
		c0.02-0.52,0.04-1.04,0.05-1.55c0.16-1.4,1.99-2.68,0.32-4.22C40.1,197.27,40.2,196.65,40.3,196.03z"/>
	<path class="st3" d="M40.01,197.9c1.66,1.54-0.16,2.81-0.32,4.22C39.04,200.65,38.2,199.17,40.01,197.9z"/>
	<path class="st2" d="M111.85,171.97c5.05-0.14,10.17,0.33,14.83-2.39c2.02-1.18,4.04-2.24,4.41-4.86
		c1.22,5.07,4.48,8.94,7.43,13.07c3.31,4.65,1.9,8.01-3.67,10.03c0.07-1.66,0.1-3.32,0.21-4.98c0.28-4.41-1.3-7.17-6-8.2
		c-4.65-1.01-7.63,0.41-9.79,4.53c-1.49,2.83-1.27,5.78-1.28,8.75c-3.34,0.11-3.83-1.74-3.09-4.46
		C116.11,179.05,115.51,175.1,111.85,171.97z"/>
	<path class="st3" d="M117.99,187.93c0.01-2.98-0.21-5.92,1.28-8.75c2.16-4.11,5.14-5.54,9.79-4.53c4.7,1.02,6.28,3.79,6,8.2
		c-0.11,1.66-0.14,3.32-0.21,4.98c-0.2,0.1-0.42,0.16-0.64,0.17c-4.72,0.23-9.38,1.47-14.15,0.84c0,0-0.03,0-0.03,0
		c-0.4-0.96-1.23-0.95-2.07-0.93L117.99,187.93z M129.05,178.08c-3.89-0.61-6.06,0.66-7.5,3.13c-0.73,1.25,0.26,2.23,1.23,2.85
		c3.1,2,4.23-1.21,6.12-2.42c0.14-0.09,0.26-0.2,0.39-0.3c0.89-0.66,2.48-1.07,2.19-2.35C131.09,177.25,129.31,178.14,129.05,178.08
		z"/>
	<path class="st2" d="M120.06,188.84c4.77,0.63,9.43-0.61,14.15-0.84c-2.03,3.63-5.65,4.35-9.27,4.71
		C122.35,192.97,119.82,192.47,120.06,188.84z"/>
	<path class="st3" d="M65.89,158.96c-0.84,0.16-1.46-0.19-1.94-0.85C64.78,157.96,65.53,158.02,65.89,158.96z"/>
	<path class="st2" d="M117.96,187.9c0.84-0.02,1.67-0.03,2.07,0.93C119.21,188.83,118.44,188.68,117.96,187.9z"/>
	<path class="st0" d="M39.43,333.36c-2.52,1.1-4.84,3.45-8.35,1.2C33.8,332.13,36.66,332.93,39.43,333.36z"/>
	<path class="st4" d="M677.2,147.93c-2.75-0.09-5.12-0.08-4.87-2.94c0.24-2.71,2.34-3.87,4.92-3.96c2.39-0.08,4.64,0.79,4.42,3.47
		C681.45,147.28,679.09,148.06,677.2,147.93z"/>
	<path class="st4" d="M40.88,205.05c2.2-2.85,0.55-6.15,1.1-9.2c0,0-0.02,0.04-0.02,0.04c0.27-0.36,0.54-0.72,0.81-1.08
		c0.36-0.37,0.72-0.74,1.08-1.11c4.79,0.02,8.95,1.43,10.63,6.34c1.37,4.02,0.79,8.03-3.04,10.53c-3.78,2.46-7.44,1.9-10.4-1.74
		C40.98,207.58,40.93,206.32,40.88,205.05z"/>
	<path class="st2" d="M42.78,194.82c-0.27,0.36-0.54,0.72-0.81,1.08C42.24,195.54,42.51,195.18,42.78,194.82z"/>
	<path class="st1" d="M129.05,178.08c0.25,0.06,2.03-0.84,2.43,0.91c0.29,1.28-1.3,1.68-2.19,2.35c-0.13,0.1-0.25,0.21-0.39,0.3
		c-1.88,1.22-3.02,4.42-6.12,2.42c-0.96-0.62-1.96-1.6-1.23-2.85C122.99,178.75,125.17,177.47,129.05,178.08z"/>
</g>
<g>
</g>
<g>
</g>
<g>
</g>
<g>
</g>
<g>
</g>
<g>
</g>
<g>
</g>
<g>
</g>
<g>
</g>
<g>
</g>
<g>
</g>
<g>
</g>
<g>
</g>
<g>
</g>
<g>
</g>
</svg>
