<?xml version="1.0" encoding="utf-8"?>
<!-- Generator: Adobe Illustrator 17.1.0, SVG Export Plug-In . SVG Version: 6.00 Build 0)  -->
<!DOCTYPE svg PUBLIC "-//W3C//DTD SVG 1.1//EN" "http://www.w3.org/Graphics/SVG/1.1/DTD/svg11.dtd">
<svg version="1.1" id="Layer_1" xmlns="http://www.w3.org/2000/svg" xmlns:xlink="http://www.w3.org/1999/xlink" x="0px" y="0px"
	 viewBox="308.2 198.2 305.5 396.8" style="enable-background:new 308.2 198.2 305.5 396.8;" xml:space="preserve">
<style type="text/css">
	.st0{fill:#170100;}
	.st1{fill:#FEDEDE;}
	.st2{fill:#FC8282;}
	.st3{fill:#FB1F20;}
	.st4{fill:#620101;}
	.st5{fill:#BC0102;}
</style>
<g>
	<path class="st0" d="M607.3,200.8c0.1,0,0.2,0.1,0.4,0.1C607.6,200.9,607.5,200.9,607.3,200.8z"/>
	<path class="st0" d="M332.1,221.3C333.1,222.3,330.8,218.8,332.1,221.3L332.1,221.3z"/>
	<path class="st0" d="M607.6,201c-0.1-0.1-0.2-0.1-0.4-0.1C605.1,202.5,608.5,201.5,607.6,201z"/>
	<path class="st0" d="M326.9,416.7c0,0.3,0.1,0.5,0.2,0.7C327.1,417,327.1,416.2,326.9,416.7z"/>
	<path class="st0" d="M311.3,237.3C317.3,236.9,312.1,232.7,311.3,237.3L311.3,237.3z"/>
	<path class="st0" d="M327,417.4c0,0.3-0.1,0.3-0.2-0.7c1.3-2.9-2.3-6.2-3.8-8.6c-0.4,5.1-0.7,10.2-1,15.2c4.3-1.9,9.2-4,13.3-5.7
		C331.8,418.7,327.9,419.1,327,417.4z"/>
	<path class="st0" d="M340.1,415.9c-1.3,0.5-2.9,1.1-4.7,1.8C337.2,417.2,338.9,416.5,340.1,415.9z"/>
	<path class="st0" d="M344,402.1c0.1,0,0.2,0,0.2,0C345.3,401.9,344.3,402.1,344,402.1z"/>
	<path class="st0" d="M309.9,233.3c0-0.1,0-0.2,0-0.3c0,0,0-0.1-0.1-0.1C309.9,233.1,309.9,233.4,309.9,233.3z"/>
	<path class="st0" d="M312.3,428.2C313.6,425.2,311.4,429.3,312.3,428.2L312.3,428.2z"/>
	<path class="st0" d="M360.5,223.8C354.3,224.4,365.1,223.7,360.5,223.8L360.5,223.8z"/>
	<path class="st0" d="M371.5,308.1c0,0-0.1-0.9-0.3-2.2C371.2,306.5,371.3,307.3,371.5,308.1z"/>
	<path class="st0" d="M365.6,567.1C365.2,568.7,366.8,566.8,365.6,567.1L365.6,567.1z"/>
	<path class="st0" d="M452.9,558.6C452.3,559.7,457.7,556.4,452.9,558.6L452.9,558.6z"/>
	<path class="st0" d="M492.1,574.9c-0.1,0,0,0.1,0.2,0.2C492.2,575,492.1,574.9,492.1,574.9z"/>
	<path class="st0" d="M309.6,507.1c0.1,0,0.1,0,0.2,0C311.4,506.6,309,507,309.6,507.1z"/>
	<path class="st0" d="M412.9,512.7C416.3,507.3,407.4,517.9,412.9,512.7L412.9,512.7z"/>
	<path class="st0" d="M602.8,421.6C602.3,419.9,602.6,423.4,602.8,421.6L602.8,421.6z"/>
	<path class="st0" d="M540,220.6c0,0-0.1-0.1-0.1-0.1C539.6,220.6,539.5,220.7,540,220.6z"/>
	<path class="st0" d="M591,333.8c0.1,0.1,0.2,0.1,0.4,0.2c0.1-0.1,0.1-0.2,0.2-0.2C591.5,333.8,591.2,333.8,591,333.8z"/>
	<path class="st0" d="M607.6,374.9C607.1,375.7,608,375.6,607.6,374.9L607.6,374.9z"/>
	<path class="st0" d="M390.1,308.5C392,308.3,386.4,307.7,390.1,308.5L390.1,308.5z"/>
	<path class="st0" d="M611.1,416.8c0-29.8,0-59.7,0-89.5c0-16.4,6.9-121.7-3.4-126.4c0.8,0.5-2.6,1.5-0.4-0.1
		c-2.7,0.8-5.4,1.2-8.2,1.1c1.8,3.6,2.5,7.3,2.1,11.2c-4.6,5.8-17.6-5.5-19.4-8.9c-3.6-6.9-30.2-2.6-36.1-2.6
		c-17.1,0-33.3-0.1-50.4,0c-18.8,0-34.2,3.9-51.7,4.7c-3.7,0.2-14.4-4.6-19.2-4.6c-10.1-3.7-15.8-0.5-17.1,9.6
		c0-12.5-2.3,3.3-9.1,2.9c-8.2-0.5-7.2-12.7-15.9-12.6c-18.9,0-37.9,0-56.8,0.1c1.3,6.3,2.6,12.5,3.7,18.8c0.9,0.3,1.8,0.5,2.8,0.8
		c-1.3-2.4,1,1.1,0,0c5.7,5.8,4.6-8.2,10-7.7c10.1,1-3.5,21.9-10.5,17.2c-0.1-0.1-0.4-0.2-0.7-0.4c3.4,22.4,4.9,44.9,2,68.6
		c-2.3,20.4-4.3,40.7-6.1,61c7.3-4,14.1-6.8,15.8-6.5c7.2,1.2-0.3,14,10.7,6c2-1.5,6.8-3.6,4.3-6.9c0.1,0.1,8-17,11.7-5.6
		c-3.6-1.3-5.9-0.4-6.9,2.6c1.9,7.3,8.1-0.2,9.4,0.2c1.5,1.4,2.2,3.1,2.1,5.2c15.7-13.7,9.1-27.5,33.1-10.8
		c-33,20.7,34.3,40.3-18.3,56.3c-8.3,2.5-24-9.7-26.2-7.3c-7.6,8.4-8.8,7.2-18.3,8.9c-0.4,0.1-0.4,0.1-0.2,0
		c-12,1.8-16.6-1.7-20.1-6.5c-0.2,3.3-0.5,6.6-0.7,9.9c1-0.4,3.1-0.5,6.8-0.1c-1.6,0.9-3,2-4.3,3.4c0,2.1,11.6,0.5,10.7,3.7
		c-0.3,1.1-5.5,0.7-4.9,2.3c3.3,1.1,6.6,1,10.1-0.2c-0.2,0.4-0.8,0.8-1.6,1.2c2-0.8,3.4-1.2,3.8-1.2c25.8,1.3,32.1-0.4,52.4,24.1
		c15.1,18.1-18.6,8.5-21.7,14.3c-2.5,4.8,6.1,14.2-5.9,13.1c-15.9,1.5-6,5.4-15.2,8.8c-6.1,2.3-16.7-24.3-23.5-21.5
		c-2.9,1.2-3.2,19.6-7.4,20.5c-1.1,0.2-2.1,0.1-3-0.2c-0.7,18.7-1.1,37.4-1.2,56.2c2.5-0.7,4.9-1,6.9-0.9c2.2-2.4,1.4-14.2,3.9-15.1
		c3.6-1.2,26.7,11.6,28.6,15.1c12.9,7.6,15,16,7.8,27.3c-2.8,16.5-34.6,22.8-37.5,34.2c20.4,0,40.8,0,61.1,0
		c1-13.1-19.9-23.5-8.7-39.9c5.8-8.5,26.9-19.4,34.5-8.9c4.8,6.6,13.4,11.5,17.8,17.8c3.4,4.9,13,13.7,10.5,20.5
		c-3,3.8-6.3,7.3-10,10.5c9.2,0,81.4,5.4,83.9-1.3c-3.3-13.5-13.9-4.8-24.2-1.6c0.8-2.4-0.1-11-0.8-12.4c-0.2-0.1-0.3-0.2-0.2-0.2
		c0.1,0,0.1,0,0.2,0.2c1.8,1,13.6,4.6,5.9-2.4c-6-5.4-8.4-8.3-12.9-13.7c-3.6-4.3-28,24.7-31.4,17.6c-2.6-5.5,31.1-16.6,15.9-34.6
		c-2.4-2.8-23.3-13.6-19.1-20c1.9-2.9,4.4,2.4,6.4,0.8c1.9-1.5,0.7-22.9-2-24.4c-5.9-3.2-15.6-2-21.6-0.2c6.7-5-16.2-19.2-18.4-18.5
		c-8.9,3-2-14.9,3.7-11.7c3.7,2.1-3.7,8.2-1.4,10.8c5.2,5.7,24.6-6.8,31.9-4.4c0.7-1.3,1.4-2.5,2.3-3.7c-0.2-0.1-29.9-7.9-14-13.8
		c1.3-3.6,7.6-10.5,6.2-14.3c-12.3,2.5,4.7-41.5,7.1-49.6c6.4-21.3,12.9-42.7,17-64.7c3.4-18,7.5-7.2,10.4-14.7
		c-6.1-9.7-0.8-4.5,1.8-5.2c0.1-2.6-0.4-5.1-1.4-7.5c3.2,2.7,6.6,5.2,10.2,7.5c2.9-4.3,6.8-7.3,11.7-8.7c12.9,2.3,26.6,5.6,38.9,9.8
		c15.9,5.4,27.9,11.9,44.1,16.1c-4.2,1.1-8.4,1.7-12.7,1.8c-4.3,9.8,73.1,45.7,13.1,36.5c-6.9-1.1-13.6,7.2-19.3,0.9
		c-8.1-9.2-14.5,1-8.5,3.1c9.3,3.3,11.6,38.4,13,38.5c3.8,0.3-4-7,4.7-5c1.2,0.3,11.1,32.8,13.6,35.8c18.2-9.8-15.4,40.7-1,40.3
		c3.9-0.1,7.9-13.3,12.2-15.1c10.4-4.4,0.6,21.7,7.5,24.9C619.5,478.6,611.1,430.9,611.1,416.8z M360.5,223.8
		C365.1,223.7,354.3,224.4,360.5,223.8c-6,0.6-10.7-7.1-9.2-12.4c2.1-7.3,9.9-0.9,14.2-4.6C371.9,201.2,378.6,223.5,360.5,223.8z
		 M370.7,325.7c-1.7-2.8-1.7-4.7-0.1-7.3C371.1,321,371,322.9,370.7,325.7z M372.6,302.4c-0.9,0.9-1.4,2.1-1.4,3.5
		c0.1,1.3,0.2,2.2,0.3,2.2c-0.2-0.8-0.3-1.5-0.3-2.2c-0.4-3.8-1.1-11.1-0.5-11.4C373.6,293,373,301.7,372.6,302.4z M369,573.7
		c-0.2,4.5-20.4,7.3-16.6,0.9c2-3.3,13.8-14.2,15.5-12c1,2.2,0.3,3.7-2.2,4.5c1.2-0.3-0.5,1.5,0,0C363.9,573,369.2,568.2,369,573.7z
		 M452,545.2c2.7-1.5,8,10.2,0.9,13.4c4.8-2.2-0.6,1.2,0,0C447.9,569,452.8,544.7,452,545.2z M412.9,512.7c3.5-5.4,8.3-9.4,14.2-12
		c6,10-29.7,28.4-30.6,27.4C401.9,523,407.4,517.9,412.9,512.7C407.4,517.9,416.3,507.3,412.9,512.7z M403.4,333.7
		c-11.3-2.7-24.4-27.5-13.3-25.2c-3.7-0.8,1.9-0.2,0,0c16.2-1.5,21.5,8,27.7,21.1c2.3-1.5-2.4-4.4,0.3-5.6
		C416.7,324.7,426.9,339.3,403.4,333.7z M428.1,354.1c2.9,1.6,0.3,0.6-0.7,0c-6,0.3-10.2-1.9-12.6-6.5c0.7-2,36.7,11.3,36.5,13.2
		C450.9,363.9,429.9,355.1,428.1,354.1z M542.8,213.5c-0.4,0.4-0.8,0.5-1.1,0.5c-2.9,1.2-4.4,0.8-4.4-1.4c1.3,0.2,2.7,0.4,4,0.6
		C541.6,213.2,542,213.2,542.8,213.5z M534.9,219.4c1.8-0.4,3.4-0.1,4.9,1.1c0.6-0.4,2.3-1.3,0.1,0.1c9.3-6,18.1,5.7,18.6,5.6
		C556.4,226.5,529,222.8,534.9,219.4z M591.4,334c-0.5-0.1-0.5-0.2-0.4-0.2c-2.3-1.3-2.6-2.8-0.9-4.7c2.8,1.3,3.3,2.8,1.5,4.7
		C591.8,333.8,591.8,333.9,591.4,334z M600.3,424.5c-0.5-2.2-3.2-10.3-0.4-10.5c2.2,1.8,3.2,4.3,2.9,7.5
		C603,425.1,602.2,426.1,600.3,424.5z M607.6,381.3c-1.6-2.4-1.6-4.5-0.1-6.4C608.4,376.1,609.3,383.3,607.6,381.3z"/>
	<path class="st0" d="M428.1,354.1c-0.2,0-0.4,0-0.7,0C428.4,354.7,430.9,355.7,428.1,354.1z"/>
	<path class="st0" d="M427.4,354.1c0.2,0,0.4,0,0.7,0C426.8,353.7,426.9,353.9,427.4,354.1z"/>
	<path class="st0" d="M541.7,214c0.4-0.2,0.7-0.3,1.1-0.5c-0.5-0.1-1-0.2-1.5-0.2C541,213.5,541.2,214,541.7,214z"/>
	<path class="st0" d="M539.8,220.5c0,0,0.1,0.1,0.1,0.1C542.1,219.2,540.4,220.1,539.8,220.5z"/>
	<path class="st1" d="M422.1,585.3c0.3-16.9-28.4-7.3-30,4c-0.1,0.8-2.8,1.5-7.7,2c15.5,0,31.1,0,46.6,0
		C425.9,590.6,422.1,588.9,422.1,585.3z"/>
	<path class="st1" d="M319,591.3c0,0.2,0,0.5,0,0.7c0,0.4,0,0.8,0,1.2c29.6-0.1,53.7-0.6,65.4-1.9c-17.9,0-35.8,0-53.7,0
		C328.6,591.3,324.5,591.3,319,591.3z"/>
	<path class="st1" d="M460.3,590.4c-1.9,0-6.2,0.5-11.3,0.9c17.1,0,34.3,0,51.4,0c15.9,0,104.4,9.2,111.4-1.5
		c-24,8.6-67.8,0.6-92.3,0.6c2-2.5,4.9-4.9,8.4-7.1C510.6,593.4,473.8,590.4,460.3,590.4z"/>
	<path class="st1" d="M529.7,582.2c-0.6,0.4-1.2,0.7-1.7,1.1C528.5,583,529.1,582.6,529.7,582.2z"/>
	<path class="st1" d="M449,591.3c-6,0-11.9,0-17.9,0C436.4,592,443.2,591.7,449,591.3z"/>
	<path class="st1" d="M598.9,519.6C598.5,521.5,601.8,518.1,598.9,519.6L598.9,519.6z"/>
	<path class="st1" d="M611.1,267.7c0,19.9,0,39.8,0,59.7c0,44.8,0,89.5,0.1,134.3c0,22.8-21.8,62.1-51.1,57.2
		c-14.7,4.8-18-4.7-19.9-11.6c-2.3,7.9-41.5,2.8-42.9,5c-3.2,5.2,14.1,4.5,15,7c-0.4-1.2-3.8,17-3.1,16.1c-7.4,9.5,0.2,6.4,2.2,15.7
		c12.4,6.4-0.5,10.9,6.5,17.6c6.5-4.3,10.1-3.8,15.9-12.5c6.3,12.9,3.4,21.1-4.2,26.3c13.8-8.4,33.9-15.7,34.3-28.4
		c-2.4-3.4-5.4,3.3-6.9,0.9c0-0.1,18.4-27.9,18.7-28.2c11.4-13.9,23.1-26.9,35.3-39.3c-0.3,4.1-0.3,23.3-3,22.9
		c-0.4-1.6-0.7-3.3-0.9-4.9c-3,0.6-38.7,42.1-39.3,45.6c-1.2,8,40.9-26,42.2-25.6c7.8,2.7-26.3,31.2-30.2,32.2
		c1.2,11,27.5-10.8,30.5-9.6c0.7,0.3,1.1,0.8,1.5,1.6c0-115.1,0-230.3,0-345.4C605.5,208.4,611.1,259,611.1,267.7z M541.7,562.2
		C543.8,562.4,540.2,562.3,541.7,562.2c-3.3-1.7-3-3.6,0.9-5.6C546.4,558.7,546.1,560.6,541.7,562.2z M561.8,529
		c0.1-2.7,1.8-4.2,4.8-4.5c0.2-0.1,0.5-0.1,0.8-0.1c-0.1,0.2-0.1,0.4-0.2,0.6C566.3,527.8,564.5,529.1,561.8,529z M605.2,512.5
		c-4.2,5.2,0.1,4-6.3,7.1c3-1.4-0.4,1.9,0,0c-1.2,1.4-2.4,2.9-3.7,4.3C595.5,522.5,605.5,511.8,605.2,512.5z"/>
	<path class="st1" d="M611.9,549.3c0,4.5,0,8.9,0,13.4C612.6,557,613,551.9,611.9,549.3z"/>
	<path class="st1" d="M611.9,587.5c0-8.3,0-16.5,0-24.8C610.6,572.5,608.4,584,611.9,587.5z"/>
	<path class="st1" d="M566.7,524.4c-1.1,0.3,0,1.6,0.6,0.5c0.1-0.2,0.1-0.4,0.2-0.6C567.2,524.4,566.9,524.4,566.7,524.4z"/>
	<path class="st1" d="M539.1,503.5c0.3,1,0.7,2.3,1,3.6C540.5,506.1,540.2,504.9,539.1,503.5z"/>
	<path class="st1" d="M536.5,500.6c1.1,1,2,2,2.6,2.8C538.5,501.5,537.8,500.2,536.5,500.6z"/>
	<path class="st1" d="M541.7,562.2C540.2,562.3,543.8,562.4,541.7,562.2L541.7,562.2z"/>
	<path class="st1" d="M324.9,198.3c0.4,1.6,0.7,3.3,1.1,4.9c17.3-0.9,35.4-1.9,52.5-2.8C366.5,198.3,346.3,197.9,324.9,198.3z"/>
	<path class="st1" d="M378.4,200.5c6.2,1.1,10.2,2.7,10.9,5c7.5,21.7,15.7-3.8,22.7-3.7c4.1,0,48.2,5.9,48.8,0.3c0,0,0-0.1,0-0.1
		C460.7,196.9,422.8,198.2,378.4,200.5z"/>
	<path class="st1" d="M460.8,202C460.8,202,460.8,202,460.8,202C460.8,202,460.8,202,460.8,202C460.8,202,460.8,202,460.8,202z"/>
	<path class="st1" d="M460.8,202C460.8,202,460.8,202,460.8,202C460.8,202.4,460.8,203.2,460.8,202z"/>
	<path class="st1" d="M460.8,202C460.8,202,460.8,202,460.8,202C460.8,201.9,460.8,201.9,460.8,202z"/>
	<path class="st1" d="M607.3,200.8c-2.7,0.8-5.4,1.2-8.2,1.1c1.8,3.6,2.5,7.3,2.1,11.2c-0.5,0.6-35.2-11.5-39.9-11.5
		c-1.9,0-50.5,2.9-51-0.8C542.7,200.8,575,200.8,607.3,200.8C604.8,202.7,575,200.8,607.3,200.8z"/>
	<path class="st2" d="M510.4,200.8c0.2,1.6-45.2-0.8-49.6,1.1C460.8,199.9,505.2,200.8,510.4,200.8
		C510.5,201.1,493.9,200.8,510.4,200.8z"/>
	<path class="st3" d="M611.9,589.8c-8.3,3-3.1-7.9-0.9-8.4C611.6,583.6,611.9,587.4,611.9,589.8C610.6,590.2,611.9,589,611.9,589.8z
		"/>
	<path class="st4" d="M606.4,487.4c-5.4,10.5-18.9,20.3-28.6,26.1c-7.7-11.1-35.1-0.8-18-16.1c-3.9-2.2-7.3-5.1-10.1-8.6
		c-4.5,15.9-25,0.4-36.2-3.6c-3.5-15.9-39.1-17-33.5-37.3c1.1-2.6,14.9-44,20.3-34.7c3.9,6.7-17.8,29-10,33.3
		c5.6,3.1,19.2,26.3,27.8,22.8c7.9-3.2-5.3-8.7-1.6-12c18.9,2.7,7.7,11.5,11.5,20.1c3,6.7,22.5,12.6,22.9,0.7
		c-0.2,0.3,19.7-58.6,25-37.9c1.1,4.3-10.3,3.7-7.2,11c0.7,1.6,22.7-6.1,25.3-7.6c5.8,16.3-40.9,14.3-34.5,24.6
		c3.2,0.7,6.3,0.4,9.4-1.1c0,0.4-18.5,19.4-9.4,16.4c8.4-2.7,17.4-1.4,20.3-11.8c-4.9-2.6-3-8.3,2.4-8.3c-0.2,3.2-1.9,14.4,4.5,14.3
		c3.9-0.1,7.9-13.2,12.2-15.1C609.3,458.1,599.5,484.2,606.4,487.4C604.2,491.7,602.4,485.6,606.4,487.4z"/>
	<path class="st5" d="M325.2,528.9c-3.5-0.3-5.7-0.1-6.9,0.4c0,1.6,0,3.1,0,4.7c1.6,2.6,3.8,5.4,0.4,6.6c-0.2-0.1-0.3-0.2-0.4-0.3
		c0,4.7,0,9.4,0,14.1C320.5,547,323.3,538.4,325.2,528.9z"/>
	<path class="st5" d="M318.3,533.9c0-1.6,0-3.1,0-4.7C316.1,530.1,317,531.9,318.3,533.9z"/>
	<path class="st5" d="M313.9,581.2C312.1,581.7,314.7,582.8,313.9,581.2L313.9,581.2z"/>
	<path class="st5" d="M344.9,578.3c-14.1,3-22.1,2.9-26.3,0.4c0.1,3.5,0.2,6.9,0.3,10.4C334.9,587.5,347.2,584.4,344.9,578.3z"/>
	<path class="st1" d="M583,342.6c2,1,3.9,2,5.9,3.1c2.3,6.6-38.1,3.8-41.6,4.4c-10.9,1.8-37.3-24.8-35.8,1.3
		c0.8-2.8,1.6-5.6,2.3-8.4c3.1,11.7-2.6,23.5-6.9,33.7c-5.3,0.8,3.2-16,2.7-19.7c-3.1,8.5-31.5,35.8-32.6,33.3
		c1,2.2,3.7-0.4,5.3,0.5c1.4,0.8-1.5,7.8-2.9,8.2c0.2-0.1-9.5-3.7-9.8-3.8c-0.8-17.1,30-18.7,35.8-35.4c7.2-20.8-15-38.9-29.3-51.5
		c2.3-6.3,13.3,12.6,16.1,10.4c2.2-1.7-3-6.4-3.1-7.3c6.9-2.9,8.6,15.4,15.4,1.7c2.8-5.6,12.6-2.7,16.6-0.1
		C541.3,325.9,554.4,345.6,583,342.6C584.9,343.6,581.2,342.8,583,342.6z M506.6,328.2c0.8,5.3,3.3,8.5,7.5,9.6
		C519.3,335.4,507.6,328.4,506.6,328.2C507.8,332,511.4,329.1,506.6,328.2z"/>
	<path class="st5" d="M555.5,351.9c4.5-0.4,8.9-0.9,13.4-1.3c-2,6.6-8.5,4.3-5.1,13.4c-11-1.3-17.7-14.5-20.1,2.2
		c0.4,1.6,1.5,2.5,3.2,2.7c10.6,4.9-5,8.1-5.4,8.8c2.4,5.7,8.4,15.5-4.3,15.1c14.5,10.7,8.1-22,18.7-20.9c7.1,0.7-2,12.2-2,12.6
		c0,1.8,13.3,12.9-0.3,13.9c-1.8,0.1-16.3,0.5-14.7,0c1.3-0.4-4.5-8.4-6.3-9.4c-3.9-2-14.7,1.5-19.3,0.3c-2.7-0.7-10.5,37-11.3,41.1
		c-11.4-6.1,2.5,12.5,2.7,10.7c-0.2,2-17.2,4.7-10.1-11.7c2.2-5.1,10.8-16.9,0.6-17.4c0.2-12.1,18.5-34.7,17.4-41.9
		c-1.1-7.1,14.6-10.4,17.8-13.4c-2.4-2.5-15.3-2.2-10.9-8.7C524.6,340.2,545.2,364.1,555.5,351.9
		C559.9,351.5,551.6,356.5,555.5,351.9z M531.1,366.2c3.1,0.1,6.3-7.7,3.5-8.3c1.3,0.3-9.5,1.7-8.4,0.6
		C526.2,362,527.9,364.6,531.1,366.2C535.5,366.3,529.6,365.2,531.1,366.2z M528.7,376.8c2.7-1.2,3-2.6,1.1-4.2
		C526.8,374.1,526.5,375.5,528.7,376.8C529.9,376.5,527.6,376.9,528.7,376.8z"/>
	<path class="st3" d="M344.9,578.3C345.2,577.7,340.4,579.3,344.9,578.3L344.9,578.3z"/>
	<path class="st3" d="M311.9,577.2c0.3,2.6,3,3.8,6.8,4.2c-0.3-12.3-0.5-24.6-0.5-36.9C314.3,556.4,311.1,569.7,311.9,577.2z"/>
	<path class="st3" d="M363.4,545.9c0.5-0.2,0.9-0.2,1.2,0C364.4,545.7,364,545.7,363.4,545.9z"/>
	<path class="st3" d="M362,538.9c-1.7,0.2-0.2,5.6-2.6,6.4c0.7-0.2-25.1-11.9-25-13.5c1.6-0.9,2.9-2.1,4.1-3.5
		c-3.2-2.6-7-4.3-11.2-5c-2.6,4.3-6,12.4-8.9,21.2c0,12.3,0.2,24.6,0.5,36.9c8.9,1,23.7-2.6,26.2-3.1c-4.6,1,0.2-0.6,0,0
		c-0.9,2.4,23-30.2,19.7-32.4c-0.3-0.1-0.7-0.1-1.2,0c0.6-0.2,1-0.2,1.2,0c3.4,1.3,0.6,15,6.9-1.8
		C368.2,544.1,361.8,538.9,362,538.9z M353.2,560.4c0,1.7-6.1,17.5-10.5,10.4C337.2,561.9,353.3,549.3,353.2,560.4
		C353.3,556.9,353.4,566.2,353.2,560.4z"/>
	<path class="st3" d="M353.2,560.4C353.4,566.2,353.3,556.9,353.2,560.4L353.2,560.4z"/>
	<path class="st1" d="M465.6,338.8c1.2-3.8,2.3-22.8,5.9-24.8c3.4-1.9,37.4,36.1,30.5,44.7c-11.9,3.7-11,14-26.9,8.8
		c-7.7-2.6-9.7,7.5-13.3,6.1C460.5,373,466.9,344.5,465.6,338.8C467.8,332,467,344.6,465.6,338.8z"/>
	<path class="st4" d="M501.3,373.9c1-1.5,2.1-2.9,3.1-4.4c4,0.4-14.4,45-16.3,49.7c-3.5,9.1-6.8,19.4-10.1,27.9
		c-4.4,11.3,20.4,29.3,18.6,30.5c-6.6-3.4-16.1-15.9-23.9-15.6c-8.8,0.3-17.9,13-27.8,7.3c4.5-3,31.3-6.8,29.2-11.8
		c-4-9.5-41.4,30.3-32.3-7.8c0.5-1.6,23.7-33.2,24.2-33.2c3.1,5.1-3.6,18.7,1.4,21.7C479.9,445.9,502.5,382,501.3,373.9
		C502.4,372.5,501.7,376.6,501.3,373.9z"/>
	<path class="st3" d="M451.7,470.8c5.6-2.8,11.4-5,17.4-6.5c0.4,2.4,0.1,13.9,0.1,13.9c-2.2,0.1,8.8-5,5.4-1.9
		c-2.8,2.6,2.8-11,2.3-7.4c-1.5-2.7-3.8-4.4-7-5c4.7-6.7,26.7,11.4,25.2,18.3c-10.7,2-6.8-10.1-15.2-10.7
		c5.1,6.2-13.6,19.3-14.2,21.1c-2.8,8.2,4.6,9.4-8.6,8.7c-2-7.7-19.2-4.2-23.6-2.8c6.7-5-16.2-19.2-18.4-18.5
		c-8.9,3-2-14.9,3.7-11.7c3.7,2.1-3.6,8.2-1.4,10.8c0.5,0.6,23.9,4.9,24.3,4.2c-0.7-2.9-2.3-5.2-4.7-7.1c0.8-0.6,21.2-4.6,13.8,3.7
		c-1.9-0.9-8.2-0.5-5.8,0.6c7.6,3.5,4.6-0.4,11.3,0.4c-0.2,2.3-2,9.9-4.8,8.8c1.4,1.9,3.2,3.3,5.5,4.1c-0.4,0.1,17-4.7,9.6-10.6
		c-4.7-3.7-3.1,5-6.3,3C462.3,487.4,453.2,468.6,451.7,470.8C457.4,468.3,451.4,471.3,451.7,470.8z M444.8,485
		c-0.9-2.2-1.9-1.9-2.9,1C443,488.1,444,487.7,444.8,485C444.6,484.3,444.5,486,444.8,485z"/>
	<path class="st4" d="M515.9,390.2c2.3-6.6,19.6,3.6,22.8,6.3c6.7,5.6,4.2,2.8,14.9,2c10.6-0.8,2.8-13.9,4-17.3
		c7.7-20.6-15.1,15.5-20.4,11.5c12.7,0.3,6.8-9.4,4.3-15.1c2.2-3.2,14.1-3.6,3.2-9.7c-6.4-3.6,3.5-17.1,11.7-7.2
		c-1,0.2,15.9,45.9,13,45.7c3.7,0.3-4-7,4.7-5c-4.2-1,10.4,25.8,10.4,23.4C575.5,426.1,521.9,398.9,515.9,390.2
		C516.6,388.1,516.1,390.6,515.9,390.2z"/>
	<path class="st4" d="M526.3,582.8c-3,2.1-6.1,4.2-9.1,6.3c-2.1-8.9,0.7-5.6-8.4-5.4c-1.6,0-24.8-3.1-16.7-8.8
		c2.2-1.6,14.2,6.4,2.6-5.2c-6.8-6.8-12.2-6.1-17-9.6c1.6-4.9,3-15.6,6.8-17.6c6.6,2.1,13,12.7,19.1,16.9
		C506.8,564.6,526.6,577,526.3,582.8C523.3,584.9,526.4,580.8,526.3,582.8z"/>
	<path class="st4" d="M457.1,501.2c22.4,1.3,28.6,37.2,18.4,53.6c-9-4.5-6-15.5-18-19.3c-1.8-0.6-7.1-13-6.8-13.5
		c1.9-2.9,4.4,2.4,6.4,0.8C458.4,521.8,457.3,503.1,457.1,501.2C459.2,501.3,457.6,507.5,457.1,501.2z M461,503.6
		c-0.6,6.9,4.8,12.8,13.1,14.5C471.4,511.9,466.9,507.5,461,503.6z"/>
	<path class="st4" d="M319,424.2c0.2,4.1-16.7,20.1-6,25.2c1.5-1.6,4.4-2.8,7.8-3.7c0.4-7.6,0.8-15.2,1.3-22.8
		C320.8,423.2,319.7,423.6,319,424.2z"/>
	<path class="st4" d="M339.6,419.7c0,0,0.1-0.1,0.2-0.2C339.7,419.6,339.7,419.6,339.6,419.7z"/>
	<path class="st4" d="M339.8,419.5c-0.1,0.1-0.2,0.2-0.2,0.2C340.6,422.2,340.4,419.1,339.8,419.5z"/>
	<path class="st4" d="M342.4,441.2c-0.6-2.7-1.8-5.1-3.6-7.2c-0.5,0-1-0.4-1.2-1.3c0.4,0.4,0.8,0.8,1.2,1.3c4,0.3,14.8-18.9,5-19.4
		c0.5,0-3.2,3.9-4.1,4.9c0.7-0.4,0.8,2.7-0.2,0.2c2.1,5.5-10.6,2-17.5,3.3c-0.5,7.6-0.9,15.2-1.3,22.8
		C329.5,443.5,341.7,443.1,342.4,441.2z"/>
	<path class="st4" d="M338.9,434c-0.4-0.4-0.8-0.9-1.2-1.3C337.9,433.6,338.3,434,338.9,434z"/>
	<path class="st5" d="M428.6,556.4c1.5,3.8,17.4,22.2,10.6,25.2c-5.7-27.3-42.2-26-53.9-4c-5.6-12.3,7.7-18.1,11.9-28
		C403.1,535.6,423.3,555.9,428.6,556.4C428.6,556.6,426.3,556.2,428.6,556.4z"/>
	<path class="st2" d="M465.6,338.8c1.4,5.7-5.1,34.2-3.8,34.7c3.6,1.4,5.6-8.7,13.3-6.1c15.9,5.3,15-5.1,26.9-8.8
		c7.2,12.5-20.7,22.2-26.7,25.4c-4.8-1.2-10.6-8.3-13.1-9.1c-3.6-1.2-4.8,12.3-7.5,7.6C458.8,368.1,462.6,353.5,465.6,338.8
		C467,344.6,462.6,353.5,465.6,338.8z"/>
	<path class="st4" d="M428.6,556.4c-5.3-0.6-25.5-20.8-31.4-6.8c-6.3,14.8-11.8,15.9-11.9,32.6C344.9,542,434.4,526.5,428.6,556.4
		C426.3,556.2,429,554.4,428.6,556.4z"/>
	<path class="st2" d="M374,354.9c8.4-7.2,20.1,6.9,20.6,15c0.6,10.3-22.6,32-28.7,17.7c6.4-2,17.6-3.7,15.6-14.9
		c-1.4-3.6-4-5-7.8-4.2C373.7,368.2,375,357.7,374,354.9C374.4,354.5,374.3,356,374,354.9z"/>
	<path class="st4" d="M314.5,382.2c0.6-0.1,1.2-0.2,1.9-0.4C316.4,381,314.1,382,314.5,382.2z"/>
	<path class="st4" d="M358.6,351c-0.6,0.3-2.7,6.7-5.2,8.5c-11,8-3.5-4.8-10.7-6c-1.5-0.3-8.7,3.2-15.9,7c-0.2,2-0.3,3.9-0.5,5.9
		c9.5-0.6,23.7,6.1,32.2,8.3C364.7,372.4,360.6,353.1,358.6,351z"/>
	<path class="st4" d="M316.4,381.8c-0.7,0.2-1.3,0.3-1.9,0.4C314.7,382.3,315.2,382.2,316.4,381.8z"/>
	<path class="st3" d="M385.2,582.2c0.2-18.2,17.9-21.1,32.4-18.7c5.4,0.9,10.7-3.3,14.2,2.8c2.1,3.7,14.1,18.4,1.9,19.3
		c6.3-9.4-22.8-17.1-25.3-17.8c-16-3.9-15.3,14.9-16.2,21.5C391.4,594.7,385.4,582.6,385.2,582.2
		C385.2,580.7,386.9,584.8,385.2,582.2z"/>
	<path class="st3" d="M369.1,413c6.5-1.6,22.7,19.5,24.6,23.5C365.8,451.7,371.6,433.9,369.1,413C372.4,412.2,369.8,418.8,369.1,413
		z"/>
	<path class="st5" d="M313,449.5C313.2,452,314,448.4,313,449.5L313,449.5z"/>
	<path class="st5" d="M328.1,455.7c2.2-5.8,7.2,2.1,10.8,2.1c-0.5-1.9-4.7-6-4.4-7.6c4.3-3.2,9.2-4.7,14.9-4.7
		c-4.7-9.6,7.6-9.4-1.3-18.1c-1.6,1.8-10.9,3.7-10.5,5.4c2.4,2.3,4,5.1,4.8,8.4c-0.7,1.9-12.9,2.3-21.7,4.6c-0.2,4-0.4,8.1-0.6,12.1
		C322,456.4,323.4,454.9,328.1,455.7z"/>
	<path class="st5" d="M313,449.5C314,448.4,313.2,452,313,449.5c0.3,3.5,0.4,7.2,0.8,10.7c3.5,0,5-1.2,6.4-2.3
		c0.2-4,0.4-8.1,0.6-12.1C317.4,446.7,314.5,447.8,313,449.5z"/>
	<path class="st3" d="M369,390.7c26.4,0.3,34.6-37.4,6.4-36.9c-0.2-13.7,19.6,0.2,21.8,0.5c1.4-1.1,2.4-2.4,3-4
		c-0.1,7.2,2.3,23.8,0.6,28.2C398.4,384.3,370.6,404.9,369,390.7C371.2,390.7,369.1,392.3,369,390.7z"/>
	<path class="st3" d="M578.3,341c0.3,0-51.7-4.8-40.8-16.8c2.1-2.4-17.3-10.6-16.7-19.9c13.8,3.8,23.6,23.7,43,23.8
		c0.5,3.3-2.6-1.5-3.1,2.2C559.2,343.8,578.6,323.5,578.3,341C573.5,340.6,578.4,338.2,578.3,341z M556.3,333.5
		c7.9-0.3-6-6.9-5.8-4.5c0.1,1.1-2.6,4.2,0.2,5.5C552.6,334.2,554.4,333.9,556.3,333.5C557.1,333.5,554.8,335.6,556.3,333.5z"/>
	<path class="st2" d="M568.5,417.4c5.3-0.5,22.4,10.1,19.2,16.7c-0.1,3.6,0.2,7.2,0.8,10.8c-28.8,15.3-3.8-0.2-17.6,1.1
		c0.5-2.3,5.3-4.3,4.9-5.8c-0.5-2-10.5-6.2-12.2-7.5c0.8-2.1,8.7-5.3,8.5-7.2c-0.2-1.4-5.3-1.7-6-1.9
		C566.9,421.4,567.7,419.4,568.5,417.4C571.1,417.1,567.3,419.2,568.5,417.4z M578.7,442c3.9,0.3,6-1,6.2-4.1
		C582.1,437,580,438.4,578.7,442C580.9,441,579.6,439.3,578.7,442z"/>
	<path class="st5" d="M369.8,541.3c0.7,1,1.3,1.9,1.8,2.8C370.3,541.7,369.8,541.1,369.8,541.3z"/>
	<path class="st5" d="M371.5,544.1c-0.4-0.9-1-1.8-1.8-2.8C369.6,541.6,370.6,544.1,371.5,544.1z"/>
	<path class="st5" d="M369.8,541.3c-7.8-10.5-30.5-24.1-41.7-24.2c-5.2,12.1,8.5,3.5,10.4,11.2c-1.1,1.4-2.5,2.6-4.1,3.5
		c0,1.6,25.7,13.3,25,13.5c2.3-0.8,0.9-6.2,2.6-6.4c-0.3,0,6.2,5.1,9.5,5.2C370.6,544.1,369.6,541.6,369.8,541.3z"/>
	<path class="st4" d="M336.9,458.6c-0.2-0.3-0.3-0.6-0.3-0.8C336.6,458.8,336.8,458.8,336.9,458.6z"/>
	<path class="st4" d="M336.6,457.8c0,0.2,0.1,0.5,0.3,0.8C337,458.3,337,457.8,336.6,457.8z"/>
	<path class="st4" d="M382.4,449.3c-3.4-7.4-7.8-5.2-16-5.1c-0.8,9.8-5.7,9.3-9.6,18.6c-5.5,13.2-14.2-5.1-20.3-5.1
		c0.4,0,0.4,0.6,0.3,0.8c2,3.9,14.6,17,16.6,16.3c4.3-1.6,13.6-16.1,20.5-10.1C379.9,462.3,370.9,452.9,382.4,449.3z"/>
	<path class="st4" d="M369,390.7c1.8,16.1,27.7-0.5,32.3-2.8c5.2-2.5,1.4-8.9,4.4-10.7c2.8-1.7,11.3,2.1,7.5,6.6
		c-7.3,8.9-20.5,20.9-33.9,18.3c-6.3-1.2-8.8-9.6-14.2-10.3c-4.5-0.6-5.6,9.2-10.8,6.4c4.2-4.6,6.7-8,7.6-14.3
		C363.7,384,368,389.7,369,390.7C369.1,392.3,367.9,389.6,369,390.7z"/>
	<path class="st5" d="M413.6,335.9c-6.8-1.3-13.6-2.9-20.2-4.9c-10.6-3.3,4.3-14.9-3.3-22.4C399.7,307.6,411.4,328.4,413.6,335.9
		C406.8,334.5,412.5,332.4,413.6,335.9z"/>
	<path class="st3" d="M324.3,377.1c-3.4,1.6-6.2,1.4-8.7-0.8c0.1,2.5,0.8,5.7,2.4,9.6C318.4,381.7,320.5,378.8,324.3,377.1z"/>
	<path class="st3" d="M315.7,376.3c0-0.4,0-0.8,0-1.2c-0.2,0.3-0.3,0.7-0.3,1C315.5,376.1,315.6,376.2,315.7,376.3z"/>
	<path class="st3" d="M361.9,384C360.1,383.9,361.8,384.4,361.9,384L361.9,384z"/>
	<path class="st3" d="M361.9,384c-7.7-0.2-13.1-5.9-3.3-9.3c-7.7-1.9-22.3-7.4-32.3-7.3c-0.1,1.6-0.3,3.2-0.4,4.8
		c6.8-0.8,14.7-0.8,15.8-0.8c8.3-0.2,9.6,17.7,10.4,20.5C354.1,388.4,361.5,386.3,361.9,384C361.8,384.4,360.1,383.9,361.9,384z"/>
	<path class="st3" d="M315.7,375c1.1-1.6,5.4-2.5,10.1-3c0.1-1.6,0.3-3.2,0.4-4.8C320.4,367.3,316.1,369.3,315.7,375z"/>
	<path class="st1" d="M360.5,223.8c-10.7,1.1-13.1-19.6-1.3-16c3.8,1.1,12.6-5.2,14,2.2C374.4,216.5,366.6,223.7,360.5,223.8
		C354.3,224.4,365.1,223.7,360.5,223.8z"/>
	<path class="st4" d="M563.7,364c-7.5-20.1,18.5-9.9,25.3-2.2C588.1,366.6,566.6,366,563.7,364C563.4,362.9,564.1,364.2,563.7,364z
		 M574.5,357.8c-1.5-1.8-2.8-1.8-4-0.2C572.1,360,573.4,360.1,574.5,357.8C574.3,356.1,574.5,358.8,574.5,357.8z"/>
	<path class="st3" d="M318.3,387c1.9,9.5,3.1,11.8,5.4,12.1c0.3-4,0.6-8.1,0.9-12.2C321.4,387.3,318.8,387.4,318.3,387z"/>
	<path class="st3" d="M337.2,400C337.5,399.9,334.3,399,337.2,400L337.2,400z"/>
	<path class="st3" d="M332.8,387.7c-0.1,0-0.1,0-0.2,0c-0.1,0-0.3,0-0.4,0C332.3,387.7,333,387.8,332.8,387.7z"/>
	<path class="st3" d="M337.2,400C334.3,399,337.5,399.9,337.2,400c4.3-1.2,2.4-12.4,1-14.7c-0.1,0.2-7.8,1.2-13.6,1.7
		c-0.3,4.1-0.6,8.1-0.9,12.2C326.2,399.5,330,397.4,337.2,400z M332.2,387.7c-0.1,0,0,0,0.4,0c0.1,0,0.1,0,0.2,0
		c3.8,0.8,1.2,2.7-1.6,2.9C327.8,391,329.9,388.1,332.2,387.7z"/>
	<path class="st4" d="M413.6,335.9c-2.8-9.5-17.6-18.4-18.2-26c15.5,6.4,13.4,0.8,22.5,19.7c2.3-1.5-2.4-4.3,0.3-5.6
		C421.7,322.5,425.8,341.5,413.6,335.9C412.5,332.4,417.9,337.8,413.6,335.9z"/>
	<path class="st5" d="M454.7,382.5c0,0-7,31.2-6.8,31.3c4.7,2.7,9.6-20.8,11.6-23.1c6.6,8.3-4.6,33.2-18.4,36.6
		c1.9-30,4.4,4.2,8.9-9.5c1.4-4.4-4.9-0.1-5.1,0C442.3,410.2,451.8,389.8,454.7,382.5C455.1,383.2,450.6,392.9,454.7,382.5z"/>
	<path class="st1" d="M369.1,413c-14.8,3.8-3.9,16.1-11.1,18c-3,0.8-6-6.4-10.1-5.6c-0.1,2.9,1.4,5,4.6,6.3c-1.5-1.5,3.2,1.5,0,0
		c3.2,3.6,7,6.2,11.3,7.7C366.8,431.6,370.1,421.4,369.1,413z"/>
	<path class="st1" d="M352.6,431.7C355.8,433.2,351.1,430.2,352.6,431.7L352.6,431.7z"/>
	<path class="st4" d="M441,427.3c3.9-1.8,7.7-3.9,11.4-6.2C456.9,442.8,426.1,448.6,441,427.3C445.4,426.3,439.3,429.8,441,427.3z"
		/>
	<path class="st5" d="M382.4,449.3c-3.1-6.8,10.1-15.1,13.8-10.6C405.5,449.7,390.2,454.7,382.4,449.3
		C381.8,447.9,383.4,449.9,382.4,449.3z"/>
	<path class="st5" d="M504.3,349c-5.7-8.5-29-30.2-28.2-40.7C488.3,319,507.2,336.3,504.3,349C500.9,344,504.7,347.2,504.3,349z"/>
	<path class="st5" d="M533.4,315.2c-3.5-0.4-6.4-5.3-5.5-9c8.1,1.7,15.8,4.4,23.2,8.1c-1.6,4-0.9,7.6,2.2,10.7
		C550.3,324.9,534.3,309.4,533.4,315.2C530.5,314.9,533.6,313.6,533.4,315.2z"/>
	<path class="st2" d="M520.8,304.3c-0.3,4.8,7.3,9.3,6.2,12.6c-2.3-1.4-14.4-11.3-17.2-6.2c-0.4,0.7-11.7,8-12.4,6.9
		c1.2-0.6,12.3-9.5,12.5-9.7c-2-0.2-3.3-1.2-3.7-3.2C507.2,298.9,521.9,304.9,520.8,304.3C520.6,308.2,517.8,302.5,520.8,304.3z"/>
	<path class="st5" d="M337.9,383.4c0.1,0.6,0.2,1.2,0.2,1.9C337.8,379.1,337.8,381.4,337.9,383.4z"/>
	<path class="st5" d="M318.1,385.9c0.3,1.1,3.1,1.4,6.5,1.3c0.3-3.6,0.6-7.2,0.9-10.7C321.1,377.7,317.5,381.2,318.1,385.9z"/>
	<path class="st5" d="M338.2,385.3c0-0.7-0.1-1.3-0.2-1.9C338,384.4,338.1,385.4,338.2,385.3z"/>
	<path class="st5" d="M337.9,383.4c-1.3-6.7-7.4-8.5-12.5-7c-0.3,3.6-0.6,7.2-0.9,10.7c5.8-0.2,13.4-1.6,13.6-1.9
		C338.1,385.4,338,384.4,337.9,383.4z"/>
	<path class="st5" d="M511,302.2c-1.8,0.3-3.4,1.1-4.8,2.6c0.4,2,1.6,3,3.7,3.2c-10.3,7.3-10.2-2.1-14.7,7.3
		C482.8,303.8,500.1,297.1,511,302.2C510.9,302.2,507.7,300.7,511,302.2z"/>
	<path class="st5" d="M407.6,377c-2.3-0.2-24.6,35.5-36.1,16.9C383.1,396.2,406.3,374.8,407.6,377C406,376.9,406.6,375.3,407.6,377z
		"/>
	<path class="st5" d="M400.2,350.3c-0.7,1.6-1.7,2.9-3,4c-2.5-3.5-5.9-5.8-10.1-7c-3.4,0.9-6.9,1.9-10.3,3
		C382.1,340.8,403,336.9,400.2,350.3C398.2,351,400.3,349.5,400.2,350.3z"/>
	<path class="st4" d="M400.6,348c-9.1-3.7-6.4-6.5-19.7-5.2c1.4-17.4,19.8-3.1,26.1,1.3C404.5,344.8,402.4,346.1,400.6,348
		C398.6,347.2,401.9,345.5,400.6,348z"/>
	<path class="st4" d="M564,329.2c-0.4-2.5-2.1-11.3-1.7-9.4c7.5,0,14.5,4,21.6,5.8c-4.2,1.1-8.4,1.7-12.7,1.8c1.2,2.1,2.6,4.1,4.2,6
		C573.6,333.7,565.2,331.1,564,329.2C563.9,328.9,564.1,329.4,564,329.2z"/>
	<path class="st4" d="M424.9,504.3c3.3,8.4-27.1,25.3-28.4,23.9C405.8,519.4,415.4,512.5,424.9,504.3
		C425.3,505.3,422.3,506.6,424.9,504.3z"/>
	<path class="st4" d="M355.7,526.9c-6.2-4.9-23.4-14.1-26.6-13c-4.9,1.6,14,10.2,23.7,13.6C352.2,526.6,353.9,526,355.7,526.9z"/>
	<path class="st4" d="M357.7,528.9c-0.6-1-1.3-1.7-2.1-2.1C356.7,527.7,357.5,528.4,357.7,528.9z"/>
	<path class="st4" d="M357.7,528.9c-0.8-0.1-2.6-0.6-4.9-1.5C353.2,528,354.6,528.6,357.7,528.9z"/>
	<path class="st4" d="M355.7,526.9c-1.7-0.9-3.4-0.2-2.9,0.6c2.3,0.8,4.1,1.4,4.9,1.5C357.5,528.4,356.7,527.7,355.7,526.9z"/>
	<path class="st2" d="M582.2,463.3c-2.8,1.3-5.6,1.7-8.6,1.2c-4.6-8.4,9.2-12.8,15.3-11.3C594.1,454.4,583.4,463.2,582.2,463.3
		C580.6,463.3,587.1,462.7,582.2,463.3z"/>
	<path class="st1" d="M335.8,222.3C334.3,224.3,338.2,220.7,335.8,222.3L335.8,222.3z"/>
	<path class="st1" d="M335.8,222.3C338.2,220.7,334.3,224.3,335.8,222.3c-3.9,2.2-5.3,5-4.1,8.4C336,233.7,358.3,207.8,335.8,222.3z
		"/>
	<path class="st4" d="M433.7,585.6c17.1-1.2-3-24.2-4.9-28.6c13.7-1.1,21.7,33.3-1,33.4C427.8,587.1,431.4,586.6,433.7,585.6
		C436.3,585.4,433.1,585.8,433.7,585.6z"/>
	<path class="st4" d="M478.4,313.7c3.2,2.6,15.4,13.3,14.6,18.3C492.1,337.3,476.7,318.2,478.4,313.7
		C483.7,318,477.8,315.3,478.4,313.7z"/>
	<path class="st4" d="M365.6,567.1c-1.7,5.9,3.6,1.1,3.3,6.6C367.9,595.9,337.6,559.6,365.6,567.1
		C365.2,568.7,364.5,566.8,365.6,567.1z"/>
	<path class="st2" d="M549.6,219.2C581.5,225.2,526.2,226.9,549.6,219.2C551.1,219.5,546.7,220.2,549.6,219.2z"/>
	<path class="st4" d="M553.2,325c-3.1-3.1-3.8-6.7-2.2-10.7c10,0.7,7.2,0.8,11.2,5.5c-5.6,2.3-3.2,3.8-2.2,8.3
		C534.2,325.5,558.9,327.3,553.2,325z"/>
	<path class="st2" d="M598.2,353.5c15.5-0.4,11.8,10.9-4.4,2.2C594.9,354.4,596.4,353.7,598.2,353.5
		C600.4,353.4,597.1,355,598.2,353.5z"/>
	<path class="st5" d="M352,391.7C354.3,388.1,353.1,396.8,352,391.7c1.5,6.8-2.8,5.8-7.9,7.5c1.6,10.1,17.2-9.9,17.5-13.9
		C357.3,385.8,354.1,387.9,352,391.7z"/>
	<path class="st5" d="M352,391.7C353.1,396.8,354.3,388.1,352,391.7L352,391.7z"/>
	<path class="st4" d="M390.1,308.5c2.5,6.9,2.4,13.7-0.4,20.6C385.2,327.3,382.6,306.9,390.1,308.5
		C392.8,311.2,386.4,307.7,390.1,308.5z"/>
	<path class="st1" d="M311.3,237.3C317.3,236.9,312.1,232.7,311.3,237.3L311.3,237.3z"/>
	<path class="st1" d="M311.3,237.3C312.1,232.7,317.3,236.9,311.3,237.3C331.4,235.8,315.2,214,311.3,237.3z"/>
	<path class="st2" d="M327.4,455.6C326.3,457.6,327.7,455.6,327.4,455.6L327.4,455.6z"/>
	<path class="st2" d="M318.3,469.5c-0.1,0.3,0.5,0.2,1.4-0.3c0.1-2.5,0.2-4.9,0.3-7.4C317.3,463.8,315.7,466,318.3,469.5z"/>
	<path class="st2" d="M327.4,455.6C327.7,455.6,326.3,457.6,327.4,455.6c-1.6,2.7-4.9,4.4-7.4,6.3c-0.1,2.5-0.2,4.9-0.3,7.4
		C324.1,467,336.5,457.5,327.4,455.6z"/>
	<path class="st3" d="M329.3,415.5c-0.2,0-0.3,0-0.4,0C329.1,415.5,329.3,415.5,329.3,415.5z"/>
	<path class="st3" d="M323,408.1c0.1-0.9,0.1-1.8,0.2-2.7C321.6,405.8,321.9,406.8,323,408.1z"/>
	<path class="st3" d="M329.3,415.5c1.5-0.2,6.6-1.1,7.1-2.9c0.9-3.2-10.7-1.7-10.7-3.7c1.2-1.4,2.7-2.5,4.3-3.4
		c-3.5-0.3-5.6-0.3-6.8,0c-0.1,0.9-0.1,1.8-0.2,2.7c1.7,1.9,5,4.7,5.9,7.5C328.7,414.6,330,415.3,329.3,415.5z"/>
	<path class="st3" d="M329,415.5c0,0,0.2,0,0.4,0C330,415.3,328.7,414.6,329,415.5z"/>
	<path class="st5" d="M475.5,554.8c1.2-3.7,2.5-7.4,3.7-11.1c5.3,5.5-3.4,25-12.4,23.2C469.9,563,472.8,559,475.5,554.8
		C477.6,551.4,475,557.2,475.5,554.8z"/>
	<path class="st5" d="M437.1,476c2.5,1.9,4.1,4.2,4.7,7.1c-2.2,3.7-14.1-0.1-15.3-4.7C430,477.6,433.5,476.8,437.1,476
		C438.3,477.7,433.3,476,437.1,476z"/>
	<path class="st4" d="M466.8,566.9c2.8-0.7,5.6-1.5,8.3-2.5c1,3-19.6,15.5-21.2,12.2C453.2,575.1,465.5,567.2,466.8,566.9
		C470,567.5,462.6,567.9,466.8,566.9z"/>
	<path class="st3" d="M598.2,359.4c5.8,8.5-20.5,1.4-15.2-4.4C588,356.5,593.1,358,598.2,359.4C598.7,360.1,595.4,359.7,598.2,359.4
		z"/>
	<path class="st4" d="M428.3,351.7c1.6,0.3,23.3,6.6,23,9.1C451.2,361.6,427.6,358,428.3,351.7C435.9,353.4,428.2,352.5,428.3,351.7
		z"/>
	<path class="st3" d="M316,466.4c0.9-0.6,2.4-1.8,4-3.2c0.1-2.5,0.2-5.1,0.4-7.6C315,457.8,310.1,463.3,316,466.4z"/>
	<path class="st3" d="M325.8,454.7c0.7,0.2,1.2,0.5,1.7,0.9C326.2,454.2,325.8,454.2,325.8,454.7z"/>
	<path class="st3" d="M327.4,455.6c-0.7,1.2-1.7-0.3-1.7-0.9c-1.5-0.4-3.5,0-5.5,0.9c-0.1,2.5-0.2,5.1-0.4,7.6
		C323,460.5,326.5,457.2,327.4,455.6z"/>
	<path class="st3" d="M327.4,455.6c-0.4-0.5-1-0.8-1.7-0.9C325.8,455.3,326.7,456.8,327.4,455.6z"/>
	<path class="st2" d="M360.2,415.2c-1,3.4,2.1,14.6-2.2,15.8c-4,1.1-2.3-11.5-3.7-14.3C356.3,416.2,358.3,415.7,360.2,415.2
		C360.1,415.9,358.3,415.7,360.2,415.2z"/>
	<path class="st3" d="M354.3,416.7C352.9,416.5,356.3,420.7,354.3,416.7L354.3,416.7z"/>
	<path class="st3" d="M354.3,416.7C356.3,420.7,352.9,416.5,354.3,416.7c-9-1.4-4.4,10.1,0.5,12.2
		C357.1,424.7,356.9,420.6,354.3,416.7z"/>
	<path class="st1" d="M329.8,227.6c-0.1,0.2-0.1,0.3-0.2,0.5C330.1,227.4,330,227.4,329.8,227.6z"/>
	<path class="st1" d="M329.6,228.1c-0.2,0.2-0.4,0.3-0.6,0.4C329,228.5,329.2,228.3,329.6,228.1z"/>
	<path class="st1" d="M329,228.5c-0.3,0.1,0.4-0.6,0.8-0.9c0.2-0.5,0.4-1,0.5-1.5c-0.4-2.6-0.9-5.3-1.4-7.9
		C324.8,218.1,322.9,232.5,329,228.5z"/>
	<path class="st1" d="M329,228.5c0.2-0.1,0.4-0.3,0.6-0.4c0.1-0.2,0.1-0.3,0.2-0.5C329.4,227.9,328.7,228.6,329,228.5z"/>
	<path class="st1" d="M328.9,218.2c0.5,2.6,0.9,5.3,1.4,7.9c0.6-1.6,1.2-3.2,1.8-4.9C331,219.1,329.9,218.3,328.9,218.2z"/>
	<path class="st1" d="M363.3,355.9c-7.3-7.6-3.6-5.1,1.1-11.5C364.1,344.2,373.7,359.7,363.3,355.9
		C361.7,354.2,364.6,356.4,363.3,355.9z"/>
	<path class="st4" d="M598.2,353.5c-3.3,4.9-10.6-1.5-12.6-4.6C589.5,342.1,594.3,350.2,598.2,353.5
		C597.1,355,596.4,351.9,598.2,353.5z"/>
	<path class="st1" d="M588.5,444.8C588.5,424.1,600.8,446,588.5,444.8C588.5,442.3,590.5,445,588.5,444.8z"/>
	<path class="st5" d="M428.3,351.7c-0.9,8.1-14.7-0.9-13.5-4.1C416.1,343.8,434.2,354.9,428.3,351.7
		C428.2,352.5,425,349.9,428.3,351.7z"/>
	<path class="st1" d="M451.6,467.6c-6.4,2.4-15.9,1.9-13.5-8.4C441.7,460.7,451.6,467.6,451.6,467.6
		C449.4,468.4,451.9,466.9,451.6,467.6z"/>
	<path class="st5" d="M424.9,504.3c-3.1,4.3-7.1,7.2-12,8.5C413.7,511.5,433.3,494.6,424.9,504.3
		C422.3,506.6,425.4,503.7,424.9,504.3z"/>
	<path class="st5" d="M449.4,560c-0.8-2.6,2.8-6.5,3.3-9.7C464.6,552.3,451,557.6,449.4,560C448.7,557.6,450.2,558.8,449.4,560z"/>
	<path class="st5" d="M365.6,567.1c-4-1.1-2.7,5.2-7.9,2.8c2.2-5.7,5.6-8.1,10.2-7.3C368.9,564.8,368.2,566.3,365.6,567.1
		C364.5,566.8,366.8,566.8,365.6,567.1z"/>
	<path class="st3" d="M367.7,358c0,0.1,1.1-9.2,4.1-8.2c3.2,1,1.9,6.6,2.1,8.2C372.1,356.3,370,356.3,367.7,358
		C367.2,356.1,369.3,358.1,367.7,358z"/>
	<path class="st2" d="M341.6,414.7c-4.2,0.4-8.4,0.7-12.7,0.9C325.8,414.8,337.3,421.4,341.6,414.7z"/>
	<path class="st1" d="M544.7,225.2c-0.1,10.2-8.2-6.7-9.8-5.8C538.3,217.5,543.4,223.9,544.7,225.2
		C544.7,226.4,543.1,223.7,544.7,225.2z"/>
	<path class="st5" d="M485.1,313.2c-3.2-3.1-6.9-7.1-6.3-12.2C483.7,301.7,486,309.9,485.1,313.2
		C483.5,311.6,485.4,312.1,485.1,313.2z"/>
	<path class="st5" d="M544.7,225.2c-1.6-1.5-3.2-3.1-4.8-4.6c3-2.3,6.2-2.8,9.7-1.4C548,221.2,546.4,223.2,544.7,225.2
		C543.1,223.7,547.7,224.3,544.7,225.2z"/>
	<path class="st2" d="M406,206.5c0.1-7.3,14.8-8.1,1.5,4.9C409,207.5,408.5,205.9,406,206.5C406.1,201.6,406.4,206,406,206.5z"/>
	<path class="st1" d="M318.6,469.1c-0.1,0.1-0.2,0.3-0.3,0.4C318.6,470,318.7,469.4,318.6,469.1z"/>
	<path class="st1" d="M318.3,469.5c0.1-0.1,0.2-0.3,0.3-0.4C318.6,468.8,318.4,468.7,318.3,469.5z"/>
	<path class="st1" d="M322.5,473.9c2.3-0.5,1.9-9-1.3-8.2c-0.5,0.6-1,1.3-1.5,1.9c-0.1,1.4-0.1,2.8-0.2,4.2
		C320.4,472.7,321.3,473.4,322.5,473.9z"/>
	<path class="st1" d="M318.6,469.1c0.1,0.3,0,0.9-0.3,0.4c0.3,0.9,0.8,1.7,1.3,2.4c0.1-1.4,0.1-2.8,0.2-4.2
		C319.4,468.1,319,468.6,318.6,469.1z"/>
	<path class="st5" d="M309.8,507.1c-0.1,0-0.1,0-0.2,0C309.7,507.1,309.7,507.1,309.8,507.1z"/>
	<path class="st5" d="M309.6,507.1c-0.6-0.1,1.8-0.4,0.2,0c4.7,0.4,6.8-1.6,6.2-6C315.5,500.4,304.4,506.6,309.6,507.1z"/>
	<path class="st5" d="M309.6,507.1c0.1,0,0.1,0,0.2,0C311.4,506.6,309,507,309.6,507.1z"/>
	<path class="st4" d="M438.1,459.2c-0.5,4.2,1,7.6,4.5,10C432.1,469.9,437.4,454.9,438.1,459.2C437.1,463.7,438,458.5,438.1,459.2z"
		/>
	<path class="st4" d="M602.8,421.6c0.2,3.5-0.6,4.5-2.5,2.9c-0.5-2.2-3.2-10.3-0.4-10.5C602.1,415.8,603,418.3,602.8,421.6
		C602.6,423.4,602.3,419.9,602.8,421.6z"/>
	<path class="st4" d="M578.3,341c-0.8-2.5-1.5-5-2.3-7.5c4.5,1.2,6.8,4.2,6.9,9.1C581.4,342.1,579.9,341.5,578.3,341
		C578.4,338.2,579.7,342,578.3,341z"/>
	<path class="st3" d="M443.9,442.7c1.6-4.8,4.1-6.1,7.4-3.9C450.2,441.4,445.7,447.7,443.9,442.7C445,440.6,444,442.9,443.9,442.7z"
		/>
	<path class="st5" d="M317.7,425c0.4-0.3,0.9-0.5,1.3-0.8C317.7,424.1,317.5,424.6,317.7,425z"/>
	<path class="st5" d="M319,424.2c-0.1,0.5-0.3,0.9-0.4,1.3C318.8,425.4,319.1,425.1,319,424.2z"/>
	<path class="st5" d="M318.6,425.6c0.1-0.4,0.3-0.8,0.4-1.3c-0.4,0.3-0.9,0.5-1.3,0.8C317.8,425.4,318.3,425.7,318.6,425.6z"/>
	<path class="st5" d="M317.7,425c-1.8,1.1-3.6,2.1-5.3,3.2c2.6,2.7,4.7,1.8,6.2-2.7C318.3,425.7,317.8,425.4,317.7,425z"/>
	<path class="st1" d="M350.3,417.5C348.6,417.8,350,418.7,350.3,417.5L350.3,417.5z"/>
	<path class="st1" d="M350.3,417.5C350,418.7,348.6,417.8,350.3,417.5c-1.7,0.2-3.4,0.5-5,0.7c0,2.1,0.4,4.1,1.1,6
		C348.4,423.1,349.7,419.6,350.3,417.5z"/>
	<path class="st4" d="M317.6,531.2C317,531.4,317.6,533.6,317.6,531.2L317.6,531.2z"/>
	<path class="st4" d="M318.3,532.3c-0.2-0.4-0.4-0.7-0.7-1.1c0,2.5-0.6,0.2,0,0c-3.8,1.6-1.7,9.4,0.6,9.5
		C318.2,537.8,318.3,535,318.3,532.3z"/>
	<path class="st4" d="M318.3,532.3c0,2.8,0,5.6,0,8.4c0.1,0,0.3,0,0.4-0.1C319.9,537.8,319.8,535,318.3,532.3z"/>
	<path class="st1" d="M444.8,417.8c0.2-0.1,6.5-4.3,5.1,0C447.4,425.6,445.6,417.9,444.8,417.8z"/>
	<path class="st2" d="M486,309.7c-1.9-1.2-2.9-3-2.8-5.3c3.5,1.1,5.9,3.3,7.2,6.4C488.9,311.9,487.4,311.6,486,309.7
		C485.1,308,487.1,310.3,486,309.7z"/>
	<path class="st4" d="M456.3,550.9c-0.6-0.1-9.3-2.9-4.3-5.7C455,545.7,456.4,547.6,456.3,550.9
		C455.1,550.7,456.3,549.2,456.3,550.9z"/>
	<path class="st5" d="M365.6,556.2c0.4-1.6-4.3-9.6-2.2-10.3C369.2,543.9,364.3,558.2,365.6,556.2
		C366.4,553.3,366.8,554.2,365.6,556.2z"/>
	<path class="st4" d="M343.6,399.2c0.2,0,0.4,0,0.6,0C342.9,399,343.2,399.1,343.6,399.2z"/>
	<path class="st4" d="M344.1,399.2c0,0.1-0.3,0.1-0.6,0c-2.2-0.1-4.3,0.2-6.4,0.8C337.1,402.6,344.9,405.1,344.1,399.2z"/>
	<path class="st4" d="M344.1,399.2c-0.2,0-0.4,0-0.6,0C343.9,399.3,344.2,399.3,344.1,399.2z"/>
	<path class="st3" d="M338.9,419.9c-1.5,0.4-3,0.9-4.5,1.4c-0.4,2.1,0.4,3.1,2.4,3.1c2.2-0.5,3.1-1.8,2.9-3.8
		C339.6,421.1,338.9,420.3,338.9,419.9z"/>
	<path class="st3" d="M339.6,419.7c0.1,0.4,0.2,0.7,0.2,1C339.8,420.6,339.8,420.3,339.6,419.7z"/>
	<path class="st3" d="M339.8,420.7c0-0.3-0.1-0.6-0.2-1c-0.2,0.1-0.5,0.1-0.7,0.2C338.9,420.3,339.6,421.1,339.8,420.7z"/>
	<path class="st3" d="M339.6,419.7c-0.5-0.1-0.7,0-0.7,0.2C339.1,419.9,339.4,419.8,339.6,419.7z"/>
	<path class="st3" d="M438.1,459.2c-0.5-3.2,0.5-7.6,3.7-9.3C443.2,458.2,442,461.3,438.1,459.2C438,458.5,438.5,459.4,438.1,459.2z
		"/>
	<path class="st3" d="M363.9,347.2c1.3-0.8,0.2-6.1,3.5-4.4C371,347.1,369.8,348.6,363.9,347.2C365.1,346.4,365.7,347.1,363.9,347.2
		z"/>
	<path class="st4" d="M591.4,334c-2.6-1.3-3-3-1.2-4.9C593.1,330.4,593.5,332,591.4,334C589.9,333.7,592.6,333.6,591.4,334z"/>
	<path class="st3" d="M329.6,228.1C330.1,228.2,331.2,226.1,329.6,228.1L329.6,228.1z"/>
	<path class="st3" d="M329.6,228.1C331.2,226.1,330.1,228.2,329.6,228.1c0.4,0.1,0.7,0.2,1.1,0.2c-0.2-1.5-0.5-2.9-0.7-4.4
		C329.6,225,329.5,226.3,329.6,228.1z"/>
	<path class="st3" d="M335.8,222.3c-3.2-1.9-5.1-1.3-5.9,1.6c0.3,1.5,0.5,2.9,0.7,4.4C333.3,228.6,335,226.6,335.8,222.3z"/>
	<path class="st2" d="M607.6,374.9c0.9,1.3,1.6,8.4,0.1,6.4C606,379,606,376.8,607.6,374.9C608,375.6,607.1,375.7,607.6,374.9z"/>
	<path class="st4" d="M450.7,472.3c0.4,1.4,6.5,7.3,1,7.8C451.7,480.1,448.9,473.3,450.7,472.3C451.2,474.2,449.8,472.8,450.7,472.3
		z"/>
	<path class="st3" d="M312.3,428.2C311.4,429.3,313,428.7,312.3,428.2L312.3,428.2z"/>
	<path class="st3" d="M312.3,428.2C313,428.7,311.4,429.3,312.3,428.2c-4.4,2.9-4,4.1,1.3,3.5C315.1,430,314.7,428.8,312.3,428.2z"
		/>
	<path class="st5" d="M496.1,583.8c6.2-3.1,5.2-1.8-3,3.8C494.1,586.3,495.1,585,496.1,583.8C497.2,583,495.2,584.9,496.1,583.8z"/>
	<path class="st5" d="M368.7,466.1c1-3.4,2.9-3.5,5.3-1.4C372.6,466.6,370.6,466.3,368.7,466.1z"/>
	<path class="st5" d="M370.8,298.5C365.5,294,377.6,294.1,370.8,298.5C369.2,297.2,371.5,298,370.8,298.5z"/>
	<path class="st3" d="M542.8,213.5c-3.6,1.9-5.5,1.6-5.5-0.9C539.2,212.9,541,213.2,542.8,213.5
		C541.1,215.1,540.2,212.3,542.8,213.5z"/>
	<path class="st3" d="M338.6,215.6c2.2,0.2,4.4,0.4,6.6,0.6C342.8,212.9,341.6,212.8,338.6,215.6z"/>
	<path class="st3" d="M351.1,401.3c1.2-3.1,2.8-3.8,4.7-2.2C355,401.6,353.5,402.3,351.1,401.3C351.7,399.9,353,401.2,351.1,401.3z"
		/>
	<path class="st3" d="M370.8,298.5c4.3-2.8,3,0.9,1.8,3.9C370.3,302.5,369.8,301.2,370.8,298.5C371.5,298,370.8,299.7,370.8,298.5z"
		/>
	<path class="st5" d="M370.5,318.4c0.6,2.6,0.5,4.5,0.1,7.3C369,322.9,369,321,370.5,318.4z"/>
	<path class="st4" d="M371,302.1c3,0.2,3.1,2.1,0.5,5.9C371.3,306.1,371.1,304.1,371,302.1C371.5,302.2,370.5,304,371,302.1z"/>
	<path class="st5" d="M577.6,323.6c-2.1,1.3-3.9,0.9-5.4-1.3C574,322.7,575.8,323.1,577.6,323.6
		C577.3,325.3,576.1,322.2,577.6,323.6z"/>
	<path class="st3" d="M449.4,560C454.9,551.7,448.1,565.6,449.4,560C450.2,558.8,449.2,561,449.4,560z"/>
	<path class="st3" d="M344.3,402.1C344.3,401.4,345.7,401.8,344.3,402.1C353.7,400.4,344.3,398.7,344.3,402.1z"/>
	<path class="st3" d="M344.3,402.1C345.7,401.8,344.3,401.4,344.3,402.1L344.3,402.1z"/>
	<path class="st4" d="M594,443.5c0.2-1.1,0.3-2.1,0.5-3.1C595.9,443.3,595.9,443.5,594,443.5z"/>
	<path class="st3" d="M329,415.5c-0.7,0.4-1.7,0.3-2.1,1.2C327.8,416.7,328.7,416.7,329,415.5z"/>
	<path class="st4" d="M372.6,302.4c0.2-0.3,0.3-0.6,0.5-0.9C372.9,301.7,372.8,302,372.6,302.4z"/>
	<path class="st4" d="M313.5,457C313.5,457.1,313.5,457.3,313.5,457L313.5,457z"/>
	<path class="st4" d="M313.5,457C313.3,457.4,313.6,458.9,313.5,457C313.5,457.3,313.5,457.1,313.5,457z"/>
	<path class="st2" d="M505.1,511.3c-1.9,4.3-5.6-2.9-7.8,0.8c-3.2,5.2,14.1,4.5,15,7c2.6,7.6-6.5,14.9-9.9,17.8
		c-5.7,4.9-6.9,12.6,2.8,14.8c1.9,0.4,18.5,8.2,6,10.8c-14.2-12.1-26.2-19.3-28.3-38.1c6.7-3.4,14.3-6.3,6.8-17.5
		c9.8-2.4-0.7-3.5,1.6-5.8c2.3-1.2,4.4-2.6,6.2-4.4c0,2.7,1.7,11.5,5,12.1c1.9,0.3,2.6-6.8,5.3-3
		C507.3,507.9,506.4,509.7,505.1,511.3C504,513.8,505.2,509.9,505.1,511.3z"/>
	<path class="st5" d="M528.8,584.4c21.2-22.9,34.9,3.3,35.9-30.5c10.5-0.3,4.3,19.4,5,24.6C572.5,599.3,528.6,592.9,528.8,584.4
		C531.9,581,528.7,586.4,528.8,584.4z M567,575.3c-3.2,2.5-5,5.5-5.6,9.2C565.1,588.3,567.7,577.1,567,575.3
		C566.3,578.4,568.4,579,567,575.3z"/>
	<path class="st2" d="M433.7,585.6c-2.5,1.2-3.8-2.4-5.8-0.3c0.3-0.3,1.6,11.1-5.2,4.6c-4.3-4.2,1.1-15.8-10.9-13.7
		c-7.8,1.3-15.1,3.3-19.9,10.1C369.6,566.3,448.1,564.1,433.7,585.6C433.1,585.8,434.8,583.8,433.7,585.6z"/>
	<path class="st3" d="M567.5,553.9c-1.5,0-10.7,0.3-10.4,0.8c-1.1-1.8,43.5-51.3,47.9-58.7C602.3,514.3,581.4,543.1,567.5,553.9
		C566.6,553.9,568.1,553.4,567.5,553.9z"/>
	<path class="st2" d="M571.4,567.7c-0.1-3-2.9-11.7,0.6-12.9c0.6,2.1,1.4,4.1,2.4,6c1.2-1.8,2.8-3.3,4.6-4.6
		c4.3,0.8,29.1-9.4,31.3-8.5c13,5.3-18.2,35.7-22.7,25.9c-1.7-3.7,14.6-10.4,10.4-14.6C597.7,558.7,569.6,565.9,571.4,567.7
		C571.4,567.1,571.7,567.9,571.4,567.7z"/>
	<path class="st3" d="M576,562.4c1-0.2,25.3-0.2,22.1-3.4c4.2,4.2-12.1,10.9-10.4,14.6c3.7,8,21.2-12.1,23.3-12.7
		c0,2.7-5.1,26.7-10.2,24.9c-8.6-3.1,6-5.4-12.3-5.3c-0.2-1.1-0.1-2.1,0.4-3.1c-1.3,1.1-2.8,1.7-4.5,1.8c-0.5-4.3-1.9-8.4-4.1-12.1
		C583.9,584.4,574.5,561.5,576,562.4C578.3,561.9,578.7,564.1,576,562.4z"/>
	<path class="st5" d="M496.6,477.7c4.5-2.8,27.9,10.6,19.9,14c1.2,3.1,16.3,6.7,20.1,9c8,7.2-5.2,10.2-8.8,3.5
		C521.6,492.8,502.3,489.7,496.6,477.7C497.5,477.1,496.9,478.4,496.6,477.7z"/>
	<path class="st2" d="M601,502.7c1.1,6.3-30,40.5-36.3,42.2C563.9,534.6,590.8,503.2,601,502.7C601.7,506.4,597.8,502.9,601,502.7z"
		/>
	<path class="st5" d="M588.5,580.5c18.3-0.1,3.7,2.1,12.3,5.3c3.4,1.2,7.2-7.9,10.2-8.7C610.9,594.7,582.7,597.7,588.5,580.5
		C591.3,580.5,588,582,588.5,580.5z"/>
	<path class="st5" d="M552.6,505.8c8.6,0.2,20.6,1.1,25.2,7.7C570.5,518.8,544.6,516,552.6,505.8
		C554.2,505.8,550.8,508.1,552.6,505.8z"/>
	<path class="st3" d="M579.9,557.3c0.6-2.5-7.8-4-9.1-4.8c8.2-1.1,27.3-22.3,36-17.5C601,541.1,588,555.2,579.9,557.3
		C580.1,556.6,580.4,557.2,579.9,557.3z"/>
	<path class="st5" d="M537,496.9c6.2-3,10.6-0.8,12.7-8.1c2.8,3.6,6.1,6.4,10.1,8.6c1.1-1-14.6,11.2-14,11
		C545.3,503.4,540.4,501.5,537,496.9C537.4,496.7,538.2,498.6,537,496.9z"/>
	<path class="st3" d="M505.1,511.3c0.1-0.8,2.1-17.6,1.1-17.1c3.5,0.6,7,1.4,10.4,2.5c-1.8,1.7-3.5,3.6-4.9,5.6
		c2.9,3.9,6.7,4.9,11.7,3.1C520.5,512.8,514.5,514.8,505.1,511.3C505.2,509.9,510.1,511,505.1,511.3z"/>
	<path class="st3" d="M540.6,502.9c4.2-1.2,5.9,0.7,5.1,5.5c2-2.7,4.2-5.3,6.5-7.8c0.5,9.6,0.8,10.3,7.8,18.2
		C551.9,521.4,541.7,511.3,540.6,502.9C545,502.1,540.8,504.4,540.6,502.9z"/>
	<path class="st3" d="M511.4,550.9c-19,8.4-12.8-19.3-5.2-13.6C501.2,544.7,510.2,545,511.4,550.9C506.8,552.9,511,549,511.4,550.9z
		"/>
	<path class="st2" d="M564,553.8c4.1,0.3,3.5,19.5-2.5,21.4c-3.9,1.3-3.9-7.9-9.2-8.7C558.8,558.5,563.6,565.6,564,553.8
		C564.2,553.8,563.9,554.9,564,553.8z"/>
	<path class="st2" d="M541.2,507.3c2.5,6.6,11.9,6.6,13.7,12.9C543.6,527.9,539.4,516.1,541.2,507.3
		C542.9,511.9,540.8,508.9,541.2,507.3z"/>
	<path class="st5" d="M535.8,563c2.4,3.2,2.8,6.6,1.1,10.1c-4-4.5-5-1-13.1-2.4C524.7,562.8,529.5,562.4,535.8,563
		C538.6,564.1,533.7,562.8,535.8,563z"/>
	<path class="st4" d="M523.9,570.7c6.4,1.1,25.1,2.5,4.3,10.6C521.7,577.4,520.3,573.8,523.9,570.7
		C527.2,571.3,523.4,571.2,523.9,570.7z"/>
	<path class="st2" d="M606.8,535c-8-4.4-10.6,7.6-17.9,6.6c2.3-3.5,18.4-17.5,21.3-16.4C613.9,526.4,610.3,534.6,606.8,535
		C602.3,532.6,611.4,534.5,606.8,535z"/>
	<path class="st4" d="M571.4,567.7c7.3,7.1,7.3,22.7-5.3,22.7C575.3,584.5,564.1,573.8,571.4,567.7
		C571.7,567.9,567.7,570.8,571.4,567.7z"/>
	<path class="st3" d="M537,496.9c1.8,1.3,2.9,3,3.1,5.3c-4.9-2.9-24.3-7.5-24.4-16.1C521.1,485.4,532.6,494.4,537,496.9
		C538.2,498.6,531.2,493.7,537,496.9z"/>
	<path class="st5" d="M606.6,505.2c-3.5-7.1-2-13.1,4.5-18.1C610.9,490.1,612.7,504.5,606.6,505.2
		C605.6,502.2,606.8,505.2,606.6,505.2z"/>
	<path class="st5" d="M522.6,572.2c6.9,4.5,8.1,8.1,3.7,10.6c0.3-4.7-12.9-12.2-14.4-18.1C515.3,565.9,518.9,571.4,522.6,572.2
		C524.4,575.2,520.4,571.7,522.6,572.2z"/>
	<path class="st2" d="M520.2,510.3c1.8-2.9,3.6-5.9,5.4-8.9c2.9,1.9,4.1,8.1,6.3,9.6C527.9,512.3,524,512.1,520.2,510.3
		C521.4,508.7,524.1,509.9,520.2,510.3z"/>
	<path class="st0" d="M586.1,584.5c0.2,1.9,0.4,3.9,0.7,5.8c-8.2,0-5-16.4-6.5-23.4C584.7,571.8,582.6,579.4,586.1,584.5
		C586.3,586.5,585,582.9,586.1,584.5z"/>
	<path class="st3" d="M552.3,566.5c3.8-0.5,5.6,1.2,5.5,5c-4.6-0.5-5.4,3.9-9.9-0.1C549.3,569.8,550.8,568.2,552.3,566.5
		C555.2,566.9,549.7,567.2,552.3,566.5z"/>
	<path class="st2" d="M611,577c-9.3,2.6-5.5-6.9-0.1-8C610.9,571.7,610.9,574.4,611,577C609.3,577.5,610.9,574.3,611,577z"/>
	<path class="st3" d="M531.9,511c-7.2-5,5.3-2,6.8-5.2C543.8,510.5,536.1,513.3,531.9,511C530.4,509.9,532.5,511.3,531.9,511z"/>
	<path class="st3" d="M514.1,564.8c-6.1-0.7-0.1-6.3,0.9-9.6C521.7,558,517,560.9,514.1,564.8C513.4,564.7,514.9,563.7,514.1,564.8z
		"/>
	<path class="st3" d="M528.8,584.4c2.8,7.3-0.2,9.2-9.2,6C522.6,588.4,525.7,586.4,528.8,584.4C528.7,586.4,525.3,585.5,528.8,584.4
		z"/>
	<path class="st4" d="M570.8,552.5c2,1.2,0.5,12.5,0.5,13.5C567.6,565.7,563.8,552.1,570.8,552.5
		C571.2,552.8,570.3,552.5,570.8,552.5z"/>
	<path class="st0" d="M574.4,590.4c-0.3-4.8-0.6-9.5-0.9-14.3c0.2,0.5,7.8,13.8,7.9,14.3C579.1,590.4,576.8,590.4,574.4,590.4
		C574,585.6,576.8,590.4,574.4,590.4z"/>
	<path class="st2" d="M541.7,562.2c-3.3-1.7-3-3.6,0.9-5.6C546.4,558.7,546.1,560.6,541.7,562.2
		C540.2,562.3,543.8,562.4,541.7,562.2z"/>
	<path class="st3" d="M535.8,563c-7.9,1.1-8.6-1.2-2-7C534.5,558.3,535.2,560.6,535.8,563C533.7,562.8,534.5,561,535.8,563z"/>
	<path class="st4" d="M581.5,590.4c-0.6-2.4-3.5-5.1-2.4-9.7C581.3,582.3,586.4,590.3,581.5,590.4
		C581.1,589,582.2,590.4,581.5,590.4z"/>
	<path class="st3" d="M547,571.6c-1.1,3.4-2.5,6.5-7.1,5.1C542.4,575.1,542.9,570.8,547,571.6z"/>
	<path class="st2" d="M607.2,505.1c4.1-3.9,5.7,5.6,0.9,4.9C607.7,508.4,607.4,506.8,607.2,505.1C607.5,504.9,608,505.8,607.2,505.1
		z"/>
	<path class="st2" d="M522.6,572.2c-1.6-1.2-3.1-2.4-4.7-3.7C521.4,566.2,526.1,568.1,522.6,572.2
		C520.4,571.7,523,571.7,522.6,572.2z"/>
	<path class="st2" d="M567.5,524.4c-1,3.2-2.9,4.8-5.7,4.6C562,526,563.8,524.5,567.5,524.4C567,526.7,564.9,524.2,567.5,524.4z"/>
	<path class="st2" d="M605,512.7c-0.7,3.4-2.8,5.7-6.1,6.9C601,519.3,604.9,512.8,605,512.7z"/>
	<path class="st2" d="M598.9,519.6c-1.2,1.4-2.4,2.9-3.7,4.3C599.1,522.2,600.4,520.8,598.9,519.6z"/>
	<path class="st2" d="M605,512.8C605.4,512.1,605,512.7,605,512.8C605.1,512.7,605,512.8,605,512.8z"/>
	<path class="st5" d="M563.7,432.6c8.9,7.2-9,28.6-14.3,38.4C540.2,465.2,558.2,438.9,563.7,432.6
		C565.2,433.8,560.6,436.1,563.7,432.6z"/>
	<path class="st2" d="M498.2,442.7c9.5-3.7,18.9,9.2,17.4,17.2C505.8,462.2,496.4,451,498.2,442.7
		C499.4,442.3,497.8,444.9,498.2,442.7z"/>
	<path class="st2" d="M547.9,470c3.2,2,4.9,4.1,3,8c0.2,1.7-25.4-3.9-22.2-3.1C533.4,458.6,536.3,471.5,547.9,470
		C548.4,470.3,545,470.4,547.9,470z"/>
	<path class="st1" d="M579.8,471.7C571.3,501.5,536.3,465.1,579.8,471.7C578.1,477.4,578.7,471.5,579.8,471.7z"/>
	<path class="st5" d="M537.7,466.5c-4.8-0.9-27.8-17.2-21.3-18C522.3,447.9,540.3,461.2,537.7,466.5
		C535.5,466.1,538.3,465.3,537.7,466.5z"/>
	<path class="st2" d="M513.5,485.2c-7-2.1-18.1-12.2-24-16.6c0.4,0.3-22.9-23.7-9.7-23.1C482,468.1,509.5,466.7,513.5,485.2
		C509.6,484,512.9,482.6,513.5,485.2z"/>
	<path class="st1" d="M528.7,474.9c16.7,4.3,9.7,3.5,21.4,1.9c5.9-0.8-14.8,15.3-1.8,8.1C544.9,486.8,524.9,479.7,528.7,474.9
		C533.4,476.1,527.1,476.9,528.7,474.9z"/>
	<path class="st3" d="M485.9,426.5c1.5-6.8,6.9-28,12.5-32.1C501.4,401.7,487.2,429.1,485.9,426.5
		C487,421.5,486.2,427.1,485.9,426.5z"/>
	<path class="st1" d="M573.6,457.9c1.7,6.8-10.7,15.7-14.2,10.2C555.4,461.7,570.8,458.6,573.6,457.9
		C574.1,460.1,572,458.3,573.6,457.9z"/>
	<path class="st1" d="M496.1,448.9c1.9,1.6,18.9,11.2,18.9,11.3C511.8,468.6,491.6,457,496.1,448.9
		C499.4,451.7,495.4,450.1,496.1,448.9z"/>
	<path class="st0" d="M496.1,448.9c-4,7.2-8.1-2.2-7.6-5.6C489.7,434.7,502.1,440.3,496.1,448.9C495.4,450.1,497.4,447,496.1,448.9z
		"/>
	<path class="st5" d="M568.8,467c2.6-2.4,5.6-3.2,9-2.4c-0.6,3.6-1.8,5,2,7c-3.6,0.3-7.2,0.6-10.7,0.8
		C569,470.6,568.9,468.8,568.8,467C570.1,465.6,568.9,468.8,568.8,467z"/>
	<path class="st5" d="M510.4,464c-2.3-0.1,21.9-0.6,7.8,5.2C514.6,469.1,512,467.4,510.4,464C513.1,464.2,511.8,465.6,510.4,464z"/>
	<path class="st5" d="M485.9,426.5c3.2,6.1-3.3,15.3-5.8,21.4C479.4,441,482.8,432.6,485.9,426.5
		C486.2,427.1,482.8,432.5,485.9,426.5z"/>
	<path class="st1" d="M570.9,445.9c2.9-0.7,4.5,0.5,4.9,3.4c-2.2,1.6-4.6,2.2-7.2,1.7C568.6,449,569.4,447.3,570.9,445.9
		C573.5,445.7,570.3,446.9,570.9,445.9z"/>
	<path class="st0" d="M570.9,445.9c-1.3,3.5-2.3,3.6-3,0.3C570.9,443.3,571.9,443.2,570.9,445.9
		C570.3,446.9,571.1,445.4,570.9,445.9z"/>
	<path class="st5" d="M568.9,435.9c0.4,0.2,0.7,0.4,1.1,0.6C569.6,436.3,569.3,436.1,568.9,435.9z"/>
	<path class="st3" d="M313.9,581.2C312.1,581.6,314.7,582.8,313.9,581.2L313.9,581.2z"/>
	<path class="st3" d="M313.9,581.2C306.6,583.1,317.9,589.7,313.9,581.2C314.7,582.8,312.1,581.6,313.9,581.2z"/>
	<path class="st3" d="M499.6,381.4c-1.9,8.5-5.1,16.5-9.6,23.9c-1-1.7-2.4-2.9-4.4-3.4c-7,2.9-1.1,13.8-10.3,11.7
		c3.8-10.2,1-8,2.4-16.7c1.9,0,8.3-6.3,3-6.4C481,390.1,498.5,381.8,499.6,381.4C497.5,389.8,497.1,382.2,499.6,381.4z"/>
	<path class="st3" d="M522.6,345.8c-12.9,4.1,6,9.2,7.6,10.9c0.3-0.3-19.8,7.3-13.9,7.5c-1.9-0.1-3.2,6.3-7.2,7.6
		c3.5-8.8,7.5-18.7,4.8-28.7c-0.8,2.8-1.5,5.6-2.3,8.4C510.8,338.1,522.3,337.7,522.6,345.8C519.6,346.7,522.6,345,522.6,345.8z"/>
	<path class="st2" d="M522.6,345.8c-0.3-8.9,27.9,2.8,29.1,5C547.8,358.2,526.1,350.2,522.6,345.8
		C522.6,345,524.6,348.2,522.6,345.8z"/>
	<path class="st5" d="M499.6,381.4c-1.7,0.6-19.9,14.8-22.5,8.9c0.1,0.2,21.4-14.2,24.3-16.4C500.7,376.4,500.2,378.9,499.6,381.4
		C497.1,382.2,500.2,378.9,499.6,381.4z"/>
	<path class="st0" d="M456.9,409.8c0.2-8.6,4.8-15.8,13.8-14.4C465.3,393.6,466.5,414.1,456.9,409.8
		C456.9,405.7,457.4,410,456.9,409.8z"/>
	<path class="st0" d="M585.6,348.8c2.6,4.2,10.5,6.1,12.6,10.5c-4.3,0.5-20.8-3.7-20.7-9.7C580.2,349.4,582.9,349.1,585.6,348.8
		C587.6,352,582.8,348.4,585.6,348.8z"/>
	<path class="st2" d="M499.8,396.2c-4.6-1.4,4.5-18.3,5.3-20.2C506.9,381.2,503.1,389.8,499.8,396.2
		C498.9,395.9,503,390,499.8,396.2z"/>
	<path class="st3" d="M537.9,352.6c2.1,0,14.9-2.8,17.6-0.7C549.8,358.6,544.4,355.8,537.9,352.6
		C541.1,352.6,539.6,353.5,537.9,352.6z"/>
	<path class="st5" d="M471.1,397.5c-1.1-2-0.4-3.3,2-3.9c2.1-0.8,5.9,6.4,4.5,8.5C474.2,402.3,472.1,400.8,471.1,397.5
		C471.3,396.7,471.9,401.1,471.1,397.5z"/>
	<path class="st2" d="M506.6,328.2c1,0.2,12.7,7.2,7.5,9.7C509.9,336.7,507.4,333.5,506.6,328.2C511.4,329.1,507.8,332,506.6,328.2z
		"/>
	<path class="st4" d="M504.3,349c-0.8-2.7,0.2-4.1,3-4c2.4,5.8,1.4,9.3-2.9,10.6C504.3,353.4,504.3,351.2,504.3,349
		C504.7,347.2,504.3,351.2,504.3,349z"/>
	<path class="st4" d="M493.5,380c0.4,3.1-11,9.9-12,5.7C485.5,383.8,489.5,381.9,493.5,380C493.8,382.7,489.4,381.7,493.5,380z"/>
	<path class="st3" d="M495.2,315.2c1.7-3.7,0.1-6.6,5.5-4.4C499.3,312.8,498.5,321.7,495.2,315.2
		C495.4,314.7,495.7,316.2,495.2,315.2z"/>
	<path class="st5" d="M504.4,355.6c3.7,0.6,2.2,5.7-2.2,8.6C499.9,361.6,503,357.3,504.4,355.6C505.4,355.8,503.6,356.6,504.4,355.6
		z"/>
	<path class="st3" d="M486,309.7c4.5,2.5,3.2,1.5,3.1,7.5C485.1,315.6,484.1,313,486,309.7C487.1,310.3,485.7,310.9,486,309.7z"/>
	<path class="st4" d="M470.8,390.2c-0.9,2.6-2.8,3.5-5.8,2.7C464.8,390.6,469.4,387.2,470.8,390.2
		C470.9,391.3,470.5,389.6,470.8,390.2z"/>
	<path class="st2" d="M465,393c3.9-2,5.4-1.3,4.6,2.3C461.8,403.3,464.3,394.6,465,393C466.5,392.8,464.7,393.8,465,393z"/>
	<path class="st3" d="M505.2,374.4c-0.6-2.5-1.2-9.3,2.6-9.6C506.9,368.1,506,371.3,505.2,374.4
		C504.9,373.2,506.7,371.4,505.2,374.4z"/>
	<path class="st2" d="M489.2,317.3c0-1.7,0-3.4,0.1-5.2C491,313.4,495,322.6,489.2,317.3C489.2,315.6,490,318.1,489.2,317.3z"/>
	<path class="st5" d="M470.8,390.2c-1-2.1,0.1-7.4,4.5-6.3C473.8,386.1,472.3,388.2,470.8,390.2
		C470.5,389.6,472.9,388.6,470.8,390.2z"/>
	<path class="st2" d="M507.8,364.9c-3.6,0.6-3-2,1.9-7.9C510.5,360,509.9,362.6,507.8,364.9C507.4,364.9,510.3,362.8,507.8,364.9z"
		/>
	<path class="st3" d="M516.6,391.3c11.3,3.3,46.5,21.1,46.5,33.6c-6.2-4.2-39-26.4-46.7-24.6c-7.2,1.7-5.7,24-14.3,30.7
		c-2.5-4.3,12.6-23.5,6.2-26.1C498.7,401,511.3,391.7,516.6,391.3C521.8,392.8,514.4,391.5,516.6,391.3z"/>
	<path class="st3" d="M533.4,458.5c-7.5-3.2-39.4-18.6-33-23.8c8.9,9.1,15.2-1.7,16.2-0.5c7,8.1-9.3,3.8,5.6,9.2
		c-0.3-0.1,8.6,16.8,11.2,6.6C535.5,452.6,535.5,455.4,533.4,458.5C527.9,456.2,532.9,456.3,533.4,458.5z"/>
	<path class="st3" d="M527.1,362.5c-2.9-3.4,7.6-8.4,4.1,2.1C530.4,362.9,529,362.3,527.1,362.5
		C526.1,361.3,529.5,361.2,527.1,362.5z"/>
	<path class="st1" d="M531.3,364.6c0.1-2.9,1.2-5.1,3.4-6.7C538.8,358.9,530.7,370.7,531.3,364.6
		C531.8,362.9,531.2,365.1,531.3,364.6z"/>
	<path class="st4" d="M500.4,434.8c-5.3,4.2-4-7.3,1.5-4.4C502.7,431.9,502.2,433.4,500.4,434.8
		C499.6,435.4,500.6,433.4,500.4,434.8z"/>
	<path class="st1" d="M515.1,367.8c-4.4-3.2,2.3-3.7,3.7-3.8C518.9,366.6,517.7,367.9,515.1,367.8
		C514.3,367.1,516.6,366.8,515.1,367.8z"/>
	<path class="st3" d="M528.7,376.8c-2.2-1.3-1.9-2.7,1.1-4.2C531.7,374.2,531.3,375.6,528.7,376.8
		C527.6,376.9,529.9,376.5,528.7,376.8z"/>
	<path class="st2" d="M524.1,354.1c-2.8,1.5-4.5,0.7-5.4-2.3C520.9,351.9,522.8,352.3,524.1,354.1z"/>
	<path class="st2" d="M516.6,391.3c-2.3,0.8-4.4,0.4-6.1-1.3C512.3,388.3,515.5,389.6,516.6,391.3
		C514.4,391.5,516.4,390.9,516.6,391.3z"/>
	<path class="st2" d="M531.3,364.6c0.1,3.3-1.3,2.6-4.1-2.1C529,362.3,530.4,363,531.3,364.6C531.2,365.1,529.8,364,531.3,364.6z"/>
	<path class="st2" d="M353.2,560.4C353.4,566.2,353.3,556.9,353.2,560.4L353.2,560.4z"/>
	<path class="st2" d="M342.8,570.8c4.4,7.1,10.5-8.7,10.5-10.4C353.3,549.3,337.2,561.9,342.8,570.8z"/>
	<path class="st5" d="M475.2,413.6c9.3,2.1,3.4-8.8,10.3-11.7c8.2-3.4-4.4,44.7-18.2,36.5C457.4,432.4,469.9,417.3,475.2,413.6
		C479.6,414.6,474.5,414.1,475.2,413.6z"/>
	<path class="st2" d="M451.3,438.7c-5.9-0.8,11.6-20.7,12.4-20.6C463,426.8,457.2,433,451.3,438.7
		C450.3,438.6,457.2,432.9,451.3,438.7z"/>
	<path class="st2" d="M453.1,466.9c-0.1-1.3,19.5-12.8,20.9-9.2C475.5,460.9,454.5,466.6,453.1,466.9
		C453.1,466.2,460.2,465.6,453.1,466.9z"/>
	<path class="st2" d="M469.9,463.9c3.1,0.7,5.4,2.4,7,5c0.5-3.6-5.1,10-2.3,7.4C470.1,480.5,469.2,464.3,469.9,463.9
		C471.8,464,469.7,464,469.9,463.9z"/>
	<path class="st2" d="M473.1,415.1c-1.8,1.5-4.6,5.6-7.1,1.6C467.6,413.2,469.7,415.1,473.1,415.1
		C471.6,416.3,472.5,415.1,473.1,415.1z"/>
	<path class="st2" d="M496.6,477.7c1.1,1.4,1.4,2.9,0.8,4.6C493.9,482.1,490.8,474.7,496.6,477.7
		C496.9,478.4,495.7,477.2,496.6,477.7z"/>
	<path class="st1" d="M466.9,414.7c-1.3,2.6-2.2,3.6-5.1,3.1C460.4,416.1,465.3,412.1,466.9,414.7
		C466.6,415.4,464.7,411.1,466.9,414.7z"/>
	<path class="st2" d="M451.6,467.6c0.3-0.7,0.8-1,1.5-0.7C452.6,467.1,452.1,467.4,451.6,467.6z"/>
	<path class="st1" d="M497.5,496.7c-1.9,1.8-3.9,3.3-6.2,4.4c1.2-1.3-2.4,14.8-11.5,6.5c3.3-8.1,0.6-15.2-10.5-5.6
		c-12.2-5.7,14.1-23.3,16.9-23.7C490.6,482.5,492.4,491.4,497.5,496.7z M484.1,496.7C491.9,495.5,476.2,496.5,484.1,496.7
		C485.3,496.5,482.9,496.6,484.1,496.7z"/>
	<path class="st2" d="M456.5,477.7c8.4-4.9,3.1,8.1,3.8,8.5c3.2,1.9,1.6-6.8,6.3-3c5.6,4.5-8,9.9-9.6,10.6
		C456.8,489.1,458.2,479.7,456.5,477.7C459,476.2,457.2,478.5,456.5,477.7z"/>
	<path class="st2" d="M474.7,488.2c-7.4,0.2,8-13.4,5.2-16.8C496.7,472.7,475.5,484.1,474.7,488.2
		C474.1,488.3,475.2,485.2,474.7,488.2z"/>
	<path class="st2" d="M489.1,486.1c-2.2-1.6-2.4-3.4-0.6-5.5c2.6-0.5,9.8,5.3,10.6,6.9C495.5,488.3,492.2,487.8,489.1,486.1
		C484.4,484.7,490.7,485.8,489.1,486.1z"/>
	<path class="st1" d="M450.9,479.8c2.8,1.1-0.1,3.2-5.8,0.6C442.7,479.3,449,478.9,450.9,479.8C451.1,479.9,449.8,479.3,450.9,479.8
		z"/>
	<path class="st1" d="M457,493.7c1.6-2.3,3.8-3,6.5-2.2C463,496.1,460.8,496.8,457,493.7C459.2,493.2,458.1,495.7,457,493.7z"/>
	<path class="st2" d="M466.9,500.5c2.7,1,3.7,3.1,3,6.2C461.7,503.2,460.7,501.1,466.9,500.5C467.4,501.4,465.7,501.1,466.9,500.5z"
		/>
	<path class="st1" d="M455.5,488.4c-0.4,2,0.1,3.8,1.5,5.4c-2.2-0.8-4.1-2.2-5.5-4.1C448.8,488.7,455.8,488.4,455.5,488.4
		C453.8,490.8,454.3,488.3,455.5,488.4z"/>
	<path class="st5" d="M456.5,477.7c3.6,4.4-1.7,4.1-3.3,2.3C452.9,476.9,454,476.1,456.5,477.7C457.2,478.5,455.6,477.4,456.5,477.7
		z"/>
	<path class="st1" d="M497.5,484.5c-3.3,1.9-4.6,1.2-3.8-2.1C496.5,481.9,497.3,481.4,497.5,484.5
		C493.4,486,497.5,483.8,497.5,484.5z"/>
	<path class="st4" d="M470.3,474.1c0.5,1.2,1.4,4.1-1.1,4.1C466.8,478.3,467.9,473.9,470.3,474.1C470.5,474.5,468.1,474,470.3,474.1
		z"/>
	<path class="st5" d="M444.8,485c-0.8,2.8-1.7,3.1-2.9,1C442.9,483.1,443.8,482.8,444.8,485C444.5,486,444.6,484.3,444.8,485z"/>
	<path class="st5" d="M563.1,424.9c-0.1-14.6-19.9-11-21.9-21.4c10.3,2.2,17.5,10.6,27.2,13.9C570.4,414.5,565.2,428.3,563.1,424.9
		C563.1,423.4,563.2,425.1,563.1,424.9z"/>
	<path class="st2" d="M541.2,403.5c2.2,11-11.5-3.9-10.1-5.2C534.4,400.3,537.7,402.1,541.2,403.5
		C541.5,404.9,538.4,400.9,541.2,403.5z"/>
	<path class="st1" d="M482.8,524.5c1.6,14.4,3.4,17.6-3.5,30.4C476.3,553.3,484.2,524.8,482.8,524.5
		C483.4,529.1,480.2,523.8,482.8,524.5z"/>
	<path class="st5" d="M511.1,562.6c3.2,6.7-19.8-11.1-15.8-14.1C501,551.6,506.1,558.3,511.1,562.6
		C511.4,563.2,509.7,561.4,511.1,562.6z"/>
	<path class="st3" d="M495.3,548.5c-0.1,2.1,0.6,3.9,2.2,5.5c-2.3-1.1-13.1-9.4-13-12.2C489.8,540.4,491.2,543.3,495.3,548.5
		C494,549.5,493.2,545.8,495.3,548.5z"/>
	<path class="st3" d="M503.5,559.3c4.2,0.4,14.6,10.6,14.5,14.7C512.1,570.2,507.2,565.3,503.5,559.3
		C505.7,559.5,506.8,565.8,503.5,559.3z"/>
	<path class="st3" d="M502.4,558.5c0.4,0.3,0.8,0.5,1.2,0.8C503.2,559,502.8,558.8,502.4,558.5z"/>
	<path class="st5" d="M484.4,541.8C484.4,542.6,482.9,543.9,484.4,541.8C484.4,542,484.2,542.1,484.4,541.8z"/>
	<path class="st3" d="M497.4,553.9c0.3,0.3,0.5,0.7,0.8,1C497.9,554.6,497.7,554.3,497.4,553.9z"/>
	<path class="st3" d="M482.8,524.5c-5.5-1.4,0.6,19.3-1.9,17.4c-2.8-2.2-5.9-23.3-5.5-27.8c3,0.8,4.6,3.2,4.9,7.3
		c-0.4-22.8-2.8,2.2,2.7-6.5C491.5,501.1,495.9,517.9,482.8,524.5C480.1,523.8,484.1,523.8,482.8,524.5z"/>
	<path class="st3" d="M469.9,506.7c2.9-8.9,6.8-13.4,15.3-3.5C480.5,505.9,476.5,513,469.9,506.7C470.4,505.1,470.2,507,469.9,506.7
		z"/>
	<path class="st2" d="M461,503.6c5.9,3.9,10.3,8.3,13.1,14.5C465.9,516.4,460.5,510.5,461,503.6z"/>
	<path class="st1" d="M470.8,507.7c2.6,0.2,5.3,0.4,7.9,0.5C477.5,513.8,474.4,519,470.8,507.7C473.5,507.3,471.7,510.3,470.8,507.7
		z"/>
	<path class="st2" d="M346.4,424.3C346.6,425.1,347.7,423.5,346.4,424.3L346.4,424.3z"/>
	<path class="st2" d="M346.4,424.3C347.7,423.5,346.6,425.1,346.4,424.3C347.2,426.9,353.8,420,346.4,424.3z"/>
	<path class="st3" d="M472.4,384.8c-0.8,4.4-6.6,6.1-8.4,10.7c-0.1-7.4-7.8,0.2-3.1-9.9C462.9,381.3,472,378,472.4,384.8
		C472,386.8,472.2,381.8,472.4,384.8z"/>
	<path class="st1" d="M462.9,380.5c-1.3,5.8-3.3,15.4-9.7,15.5c-0.3,0.7,4.9-22.4,8.9-21.1C463.6,376.6,463.9,378.5,462.9,380.5
		C462.2,384.1,463.1,379.6,462.9,380.5z"/>
	<path class="st1" d="M361.9,384c-19.2-0.7,10.8-33.6,9.3-11.4c12.3-8.2,13.8,8.8,4.5,12.6C369,387.9,366.5,384.1,361.9,384
		C360.1,383.9,364.3,384,361.9,384z"/>
	<path class="st5" d="M373.7,368.5c-0.8,1.3-1.7,2.7-2.5,4c0.5-8,0.4-8.8,2.7-14.6C373.8,361.5,373.7,365,373.7,368.5
		C372.7,369.5,373.7,365,373.7,368.5z"/>
	<path class="st2" d="M373.9,358c-1.3,0.4-11.5,9.2-13.6,11C360.4,365,373.1,352.3,373.9,358C371.1,358.9,373.8,356.8,373.9,358z"/>
	<path class="st3" d="M365.9,358.6c-1.9,2.6-3.7,5.2-5.6,7.8C359.9,362.4,360.8,353,365.9,358.6C365,361.9,365.1,357.7,365.9,358.6z
		"/>
	<path class="st5" d="M363.9,439.4c0.8-2.2,1.6-4.5,2.4-6.7c3.7,3.4,7,7.2,10,11.3C369.5,447.1,365.3,445.6,363.9,439.4
		C364.7,437.2,363.7,441.6,363.9,439.4z"/>
	<path class="st3" d="M363.9,439.4c-4.4-1.6-8.1-4.2-11.3-7.7c-1.3,6.3-6.5,6.9-3.2,13.8c2.4-0.9,4.6-0.8,6.8,0.3
		c1.7,4.9-16,7-18.2,8.6C343.3,474.1,363.1,448.1,363.9,439.4C363.7,441.6,362.3,440.3,363.9,439.4z"/>
	<path class="st3" d="M363.9,439.4C362.3,440.3,363.7,441.6,363.9,439.4L363.9,439.4z"/>
	<path class="st2" d="M349.4,445.5C345.2,446.5,350.9,445.3,349.4,445.5L349.4,445.5z"/>
	<path class="st2" d="M356.2,445.7c-2.2-1.1-4.4-1.2-6.8-0.3c1.5-0.2-4.2,1.1,0,0c-5.7-0.1-10.7,1.5-14.9,4.7
		C332.9,458.6,357.8,450.2,356.2,445.7z"/>
	<path class="st0" d="M560.1,328.1c-0.9-4.5-3.3-6,2.2-8.3C566.3,326.6,565.6,329.4,560.1,328.1
		C559.9,327.5,561.3,328.1,560.1,328.1z"/>
	<path class="st0" d="M533.4,315.2c0.7-4.8,9.1-0.3,9.1,3.2C539.4,317.4,536.4,316.3,533.4,315.2
		C533.6,313.6,536.4,316.3,533.4,315.2z"/>
	<path class="st1" d="M556.3,333.5c-3.9,2.6-6.2,2-7-1.7C551.7,329.3,554,329.9,556.3,333.5C554.8,335.6,555.2,331.8,556.3,333.5z"
		/>
	<path class="st2" d="M568.2,331.5c7,0.1-1.1,11.2-3.8,3.1C566.3,334.3,567.6,333.3,568.2,331.5C569.2,331.5,568.2,334,568.2,331.5z
		"/>
	<path class="st5" d="M556.3,333.5c-2.2-1.1-4.2-2.6-5.8-4.5C550.2,326.7,564.2,333.2,556.3,333.5
		C555.2,331.8,557.1,333.5,556.3,333.5z"/>
	<path class="st2" d="M564,329.2c0.3,0.5,0.3,4.5-0.1,5C559.6,333.7,559.7,328.2,564,329.2C564.1,329.4,562.7,328.9,564,329.2z"/>
	<path class="st1" d="M563.9,334.3c2-2.4-1.2-6.8,4.3-2.8C568.2,332.9,565.3,335.4,563.9,334.3C565.1,332.8,564,334.4,563.9,334.3z"
		/>
	<path class="st5" d="M553.2,325.1c0.3,0.3,0.5,0.5,0.8,0.7C553.7,325.6,553.5,325.3,553.2,325.1z"/>
	<path class="st1" d="M563.1,424.9c5.1,8.6-11.6,29-17,38.8c-13.6,13-8.3-30.2-17.9-22.5c0.9,3.4,2.6,6.4,5.2,9
		c-2.6,10.2-11.4-6.7-11.2-6.6c-14.9-5.4,1.4-1.2-5.6-9.2c-1.1-1.2-7.3,9.7-16.2,0.5c1.5-10.1,12-6.2,18.3-6.9
		c-22.4-14.7,4.6-8.8,5.3-13.3c0.1-0.5-23.3-10.6-7.7-14.2C524.1,398.5,556.9,420.7,563.1,424.9
		C563.2,425.1,555.3,419.6,563.1,424.9z M544.2,420.2c-12.5,7.2,11.2,20.8,13.5,17.5C564.1,428,552.1,423.7,544.2,420.2
		C542.3,421.3,544.8,420.5,544.2,420.2z M538.3,425.9c-1.9,1.5-7.7,2.4-8.2,5c1,2.3,2.7,4,5.1,4.8
		C538.4,433.2,539.5,429.9,538.3,425.9C536.5,427.3,538.4,428.1,538.3,425.9z M543.1,457.8c-2.6,0.2-3.9,3.5,0.7,3.8
		C547.2,461.8,545.6,458,543.1,457.8C542,457.9,544.3,457.9,543.1,457.8z M525.1,409.4c0.5,3.5,1.5,4,5.6,2.8
		C529,410.9,527.4,409.6,525.1,409.4z M542.4,436.7c-1.5-2.3-2.7-2.2-3.6,0.5C540.1,439.4,541.3,439.2,542.4,436.7
		C542.1,435.9,542.3,438,542.4,436.7z M539.4,443.5C538.9,435.6,538.4,452.7,539.4,443.5C539.3,442.4,539.3,444.5,539.4,443.5z"/>
	<path class="st3" d="M566.6,428.9c-0.6-1.5-1.6-2.7-3-3.6c1.1-1.9,8.1-2.2,8.5,0.2C571,427.7,569.1,428.9,566.6,428.9
		C567.1,426.4,567.6,428.6,566.6,428.9z"/>
	<path class="st1" d="M578.7,442c1.3-3.6,3.4-5,6.2-4.1C584.7,441,582.6,442.3,578.7,442C579.6,439.3,580.9,441,578.7,442z"/>
	<path class="st5" d="M343.5,458.5c-0.8,0.3-1.7,0.6-2.5,1C342.1,460.8,344.5,458.5,343.5,458.5z"/>
	<path class="st5" d="M341,459.4c0.8-0.4,1.7-0.7,2.5-1C343.2,458.4,342.4,458.7,341,459.4z"/>
	<path class="st5" d="M357.8,457.7c-4.9-1.1-9.7-0.9-14.3,0.7c1,0.1-1.4,2.3-2.5,1C345.6,464.9,360.2,472.3,357.8,457.7z"/>
	<path class="st5" d="M361,454.8c0.3-4,2-7.1,5.4-9.2C369.4,450.8,368.3,452.7,361,454.8z"/>
	<path class="st1" d="M315.4,376.1c0.4,2.8,4.9,2.4,9.8,2.5c0.2-2.8,0.5-5.7,0.7-8.5C319.5,369.5,314.7,371.1,315.4,376.1z"/>
	<path class="st1" d="M344.1,399.2C345.4,398.8,342.1,398.8,344.1,399.2L344.1,399.2z"/>
	<path class="st1" d="M344.1,399.2C342.1,398.8,345.4,398.8,344.1,399.2c29.5-10-0.7-27.5-18.2-29.1c-0.2,2.8-0.5,5.7-0.7,8.5
		c8.3,0.2,17.9,1.8,12.9,21.1C340.1,399.6,342.1,399.4,344.1,399.2z M347.2,381.4c0.9,2.9-0.8,3.4-2.9,4c-2.1,0.6-3.3-0.1-3.6-2.1
		C340.9,381.1,346.5,379.4,347.2,381.4z"/>
	<path class="st1" d="M344.3,385.4C345.3,385.1,342.2,385.5,344.3,385.4L344.3,385.4z"/>
	<path class="st2" d="M574.5,357.8c-1.1,2.3-2.5,2.3-4-0.2C571.7,355.9,573,356,574.5,357.8C574.5,358.8,574.3,356.1,574.5,357.8z"
		/>
	<path class="st1" d="M332.2,387.7c0.1,0,0.3,0,0.4,0C332.2,387.7,332.1,387.7,332.2,387.7z"/>
	<path class="st1" d="M331.2,390.7c2.8-0.3,5.4-2.1,1.6-3c0.2,0.1-0.5,0-0.6,0C329.9,388.1,327.8,391,331.2,390.7z"/>
	<path class="st1" d="M332.6,387.7c0.1,0,0.1,0,0.2,0C332.7,387.7,332.7,387.7,332.6,387.7z"/>
	<path class="st1" d="M332.8,387.7c-0.1,0-0.1,0-0.2,0c-0.1,0-0.3,0-0.4,0C332.3,387.7,333,387.8,332.8,387.7z"/>
	<path class="st0" d="M462.4,415.5c-3.2,3.1-5.2,11.6-8.8,15.7C442.5,429.8,462.4,404.6,462.4,415.5
		C461.7,416.1,462.4,414.6,462.4,415.5z"/>
	<path class="st2" d="M453.2,396c9.1-0.2,3.5,11.8-3.2,11.4C450,403.4,451.1,399.5,453.2,396C454.5,396,452.1,399.8,453.2,396z"/>
	<path class="st4" d="M458.9,413.3c-1.9,1.7-3.7,3.3-5.6,5C453.1,414.2,457.7,405.1,458.9,413.3
		C457.1,414.9,458.8,412.4,458.9,413.3z"/>
	<path class="st1" d="M450,407.5c7.1,0.4-0.3,7.5-2.2,6.4C446.8,413.2,449.4,407.7,450,407.5C451.1,407.5,448,408.2,450,407.5z"/>
	<path class="st2" d="M568.2,331.4c-0.7,0.2-1.2-0.2-1.6-0.7C567.3,330.4,567.9,330.6,568.2,331.4z"/>
	<path class="st1" d="M429.3,587.5c-1.7-0.9-2.1-4.1,0.8-2.7C432.8,586.1,432.5,587,429.3,587.5C428.4,587,430.3,587.5,429.3,587.5z
		"/>
	<path class="st1" d="M493,487.6c5.6-0.1,25.3-3.3,23.5,9.2c0.7,0.4-9.3-3-10.3-2.6c0.7-0.3,0.9,15.4-3.6,14.7
		c-3.5-0.6-4.8-9.5-5.1-12.1C507.1,494.3,493.9,493,493,487.6C495,487.6,493.2,488.8,493,487.6z"/>
	<path class="st5" d="M488,541.5c-2.7,1.2-3.9,0.8-3.6-1.4C484,537.1,485.2,537.6,488,541.5C486.8,541.6,486.8,540.5,488,541.5z"/>
	<path class="st3" d="M567,575.3c0.7,1.7-1.9,13-5.6,9.2C562,580.9,563.9,577.8,567,575.3C568.4,579,566.3,578.4,567,575.3z"/>
	<path class="st3" d="M579.1,580.7c0.8,2.8,0.7,5.5-0.2,8.2c-5.9,0.6-6.1-17.1-6.7-20.4C577.9,564.1,579,577.4,579.1,580.7
		C578.7,582.3,579.1,580.2,579.1,580.7z"/>
	<path class="st5" d="M572.1,554.7c0.1-3.6,6.1,0.2,7,1.5c-1.8,1.2-3.3,2.7-4.6,4.6C573.4,558.9,572.6,556.8,572.1,554.7
		C572.1,554.3,573.5,556.3,572.1,554.7z"/>
	<path class="st5" d="M576,567.6c-4.1-0.1-3.1-4.6,0-5.2C577.7,564.1,577.7,565.9,576,567.6C575.1,567.6,576.8,565.9,576,567.6z"/>
	<path class="st4" d="M586.1,584.5c-3.3-4.1-2.9-6.2,1.3-6.2C589.2,579.7,589.3,583.5,586.1,584.5C585,582.9,588,583.9,586.1,584.5z
		"/>
	<path class="st5" d="M578.5,573.8c-1.9-1.6-2.7-3.7-2.5-6.1C575.4,567.7,584.9,574,578.5,573.8C577,573.6,579.2,573.8,578.5,573.8z
		"/>
	<path class="st5" d="M588.4,579.1C585.7,576.9,591,577,588.4,579.1C588.1,578.8,589,578.6,588.4,579.1z"/>
	<path class="st1" d="M525.6,501.4c0.7,6.9-13.6,6-14,0.9c1.5-2,3.1-3.9,4.9-5.6C518.6,497.1,524.2,499.1,525.6,501.4
		C525.8,503.3,523.7,498.3,525.6,501.4z"/>
	<path class="st3" d="M502.9,485.4c-1.5,7.7-5.5-3.2-5.3-5.6C500.4,480.7,502.2,482.6,502.9,485.4
		C502.5,487.7,501.7,483,502.9,485.4z"/>
	<path class="st4" d="M520.8,492.4C522.7,496.3,509.4,491.4,520.8,492.4C520.9,492.8,519.3,492.3,520.8,492.4z"/>
	<path class="st3" d="M517.4,496.8C516.2,496.7,516.1,495.4,517.4,496.8C517.1,496.8,517.1,496.5,517.4,496.8z"/>
	<path class="st5" d="M579.1,580.7c-0.1-2.3,1.1-4.1,1.5-6.6C599,605.7,579,580.6,579.1,580.7C579.1,580.2,581.2,582.2,579.1,580.7z
		"/>
	<path class="st4" d="M580.6,574.2c0.4,1.9-0.1,3.6-1.6,4.9C573.9,576.4,581.1,573.4,580.6,574.2z"/>
	<path class="st3" d="M539.4,463c4.2-0.9,9.7,1.3,8.5,7C539.2,471.1,536.2,469.5,539.4,463C541.7,462.5,538.8,464.2,539.4,463z"/>
	<path class="st1" d="M473.1,415.1c-5-0.1,2.5-3.9,1.8-5.8c-2.6-6.3-7.9,0.3-10.1,1.2c-6.1-2.1,5.6-12.6,6.4-13
		C472.4,403.8,487.3,405.4,473.1,415.1C472.5,415.1,473.8,414.6,473.1,415.1z"/>
	<path class="st3" d="M463.8,408c1.5,4-1.3,5.4-4.9,5.3C457.5,409.9,459.1,408.1,463.8,408C464.1,408.8,461.7,408,463.8,408z"/>
	<path class="st5" d="M513.5,409c1.5,0.2,10.9,3.2,10.5,5.6c0,0.2-11.3,0.9-12.8,0.6C512,413.1,512.8,411,513.5,409
		C517.1,409.5,511.9,410.7,513.5,409z"/>
	<path class="st5" d="M509.1,423.6c3,1.9,6.2,3.3,9.6,4.3C507.1,430.9,503.8,429.5,509.1,423.6C511.4,426.4,507.4,424.3,509.1,423.6
		z"/>
	<path class="st5" d="M533.4,450.2c-2.6-2.6-4.3-5.6-5.2-9C535.9,435.1,537.5,457.3,533.4,450.2
		C532.4,447.5,533.9,450.9,533.4,450.2z"/>
	<path class="st4" d="M462.4,412.9C480.9,394.4,462.5,426.2,462.4,412.9C463.1,412.1,462.4,413.8,462.4,412.9z"/>
	<path class="st3" d="M474.7,488.2c1-2.5,2.8-4.3,5.3-5.4C482.6,486.2,480.8,488,474.7,488.2C475.2,485.2,477.3,488.2,474.7,488.2z"
		/>
	<path class="st3" d="M494.4,490.6c4.9,0.1,7.1,1.8,6.6,5.2C497.5,497.4,494.7,494.2,494.4,490.6C497,490.8,494.6,493,494.4,490.6z"
		/>
	<path class="st3" d="M493,487.6c2.7,3.5,1.8,4.3-2.6,2.4C487.8,485.5,488.6,484.7,493,487.6C493.2,488.8,491.7,486.9,493,487.6z"/>
	<path class="st5" d="M477.8,512.6c0.8-3.9,0.5-6.3,3.6-3.5C485.2,511.4,476.6,514.1,477.8,512.6z"/>
	<path class="st2" d="M484.1,496.7C476.2,496.5,491.9,495.4,484.1,496.7C482.9,496.7,485.3,496.5,484.1,496.7z"/>
	<path class="st2" d="M476.1,514.3c2.3-7.8,4.2,11.6,4.2,7C478.9,519,477.5,516.6,476.1,514.3C476.4,513.4,476.4,517.3,476.1,514.3z
		"/>
	<path class="st1" d="M478.5,514.4c-2.5-5.4,5.9-2,4.4,0.3C481.3,516.1,479.9,515.9,478.5,514.4C478.2,513.8,480,514.9,478.5,514.4z
		"/>
	<path class="st5" d="M544.2,420.2c7.9,3.5,20,7.7,13.5,17.5C555.4,441.1,531.6,427.5,544.2,420.2
		C544.8,420.5,542.3,421.3,544.2,420.2z"/>
	<path class="st5" d="M538.3,425.9c1.1,4,0.1,7.2-3.1,9.9c-2.4-0.9-4.1-2.5-5.1-4.8C530.6,428.3,536.4,427.4,538.3,425.9
		C538.4,428.1,536.5,427.3,538.3,425.9z"/>
	<path class="st3" d="M543.1,457.8c2.5,0.1,4.1,4,0.7,3.8C539.2,461.3,540.5,458,543.1,457.8C544.3,457.9,542,457.9,543.1,457.8z"/>
	<path class="st3" d="M525.1,409.4c2.3,0.1,3.9,1.5,5.6,2.8C526.6,413.4,525.6,412.9,525.1,409.4z"/>
	<path class="st3" d="M542.4,436.7c-1.1,2.5-2.3,2.7-3.6,0.5C539.7,434.6,540.9,434.4,542.4,436.7
		C542.3,438,542.1,435.9,542.4,436.7z"/>
	<path class="st5" d="M539.4,443.5C538.4,452.7,538.9,435.6,539.4,443.5C539.3,444.5,539.3,442.4,539.4,443.5z"/>
	<path class="st3" d="M344.3,385.4C345.3,385.1,342.3,385.5,344.3,385.4L344.3,385.4z"/>
	<path class="st3" d="M344.3,385.4C342.3,385.5,345.3,385.1,344.3,385.4c2.1-0.5,3.8-1.1,2.9-4c-0.6-2-6.3-0.3-6.5,1.9
		C341,385.2,342.2,385.9,344.3,385.4z"/>
	<path class="st4" d="M459.8,413.3c0.4-0.1,0.7-0.2,1.1-0.3C460.5,413.1,460.1,413.2,459.8,413.3z"/>
	<path class="st5" d="M472.9,412.3c-0.3-1.9-2.3-3.1-2.1-5.1C475.8,409.2,475.9,409.4,472.9,412.3z"/>
</g>
</svg>
