<?xml version="1.0" encoding="utf-8"?>
<!-- Generator: Adobe Illustrator 17.1.0, SVG Export Plug-In . SVG Version: 6.00 Build 0)  -->
<!DOCTYPE svg PUBLIC "-//W3C//DTD SVG 1.1//EN" "http://www.w3.org/Graphics/SVG/1.1/DTD/svg11.dtd">
<svg version="1.1" id="Layer_1" xmlns="http://www.w3.org/2000/svg" xmlns:xlink="http://www.w3.org/1999/xlink" x="0px" y="0px"
	 viewBox="0 0 540.67 297" style="enable-background:new 0 0 540.67 297;" xml:space="preserve">
<style type="text/css">
	.st0{fill:#FD807F;}
	.st1{fill:#8B0101;}
	.st2{fill:#590101;}
	.st3{fill:#CB0103;}
	.st4{fill:#F82022;}
	.st5{fill:#180000;}
</style>
<g>
	<path class="st0" d="M363.97,58.3c8.66,6.03,17.06,12.54,26.69,16.98c5.22,2.41,8.42,5.95,9.33,11.59
		c1.71,6.47,1.69,6.52-3.87,7.74c-1.14-8.49-1.47-9.01-7.87-12.33c-0.24-0.77-0.6-1.53-0.7-2.32c-0.27-2.13-0.44-4.92-3.2-4.48
		c-2.61,0.42-1.03,3.19-1.27,4.94c-0.21,1.15-0.81,1.81-2.07,1.65c-0.31-1.31,0.21-2.81-0.89-3.95c-0.95-5.34-3.48-4.26-6.41-1.58
		c-2.52-0.12-4.87,3.47-6.16,2.38c-2.8-2.36-5.94-1.51-8.8-2.41c-2.63-0.99-3.99,0.75-5.34,2.51c-1,1.3-0.62,2.41,0.4,3.53
		c1.09,1.19,2.07,2.49,3.09,3.74c6.16,9.64,12.33,19.27,18.49,28.91c0.94,2.75,1.84,5.51,1.5,8.48c-0.99,1.83-1.98,3.67-2.97,5.5
		c-0.62,0.32-1.23,0.64-1.85,0.97c-0.34-0.93-1-1.88-0.96-2.79c0.28-5.94-3.21-7.87-8.37-8.15c-1.21-2.71-3.28-5.48-2.83-8.35
		c1.15-7.44-3.91-11.74-7.55-16.83c-2.42-3.39-5.1-6.55-8.2-9.36c-1.48-1.35-3.25-2.86-1.61-5.06c1.9-2.54,0.79-3.81-1.51-4.98
		c-3.09-1.57-2.82,1.64-4.04,2.74c-2.88-2.17-4.98-5.04-7.06-7.92c0.42-2.34-1.18-3.68-2.56-5.11c-2.46-2.54-4.57-5.36-5.63-8.75
		c-0.9-2.9-1.86-5.09-5.65-4.75c-2.38,0.21-3.22-1.95-3.55-4.08c-0.27-1.8-0.47-3.63-0.89-5.4c-0.12-0.5-0.86-0.94-1.42-1.2
		c-0.18-0.08-0.99,0.54-0.97,0.78c0.6,5.32-4.63,7.13-6.51,10.93c-1.28-1.77-1.08-3.84-0.96-5.79c0.19-3.08-1.39-6.77,1.01-9.1
		c2-1.94,4.96,0.5,7.58,0.44c5.28-0.12,10.64-1.09,15.83,0.79c7.45,5.22,16.27,7.7,24.13,12.1c2.43,1.36,4.53,3.3,7.34,3.94
		C358.94,56.94,361.64,57.34,363.97,58.3z M352.97,74.25c-0.04-1.6-1.71-2.44-3.53-2.85c-1.31-0.3-2.5,0.59-2.2,1.94
		c0.49,2.18,1.92,4.07,4.21,4.36C352.63,77.84,352.93,76.16,352.97,74.25z"/>
	<path class="st1" d="M372.07,130.16c0.62-0.32,1.23-0.64,1.85-0.97c0.03,0.66,0.03,1.33,0.09,1.99c0.17,1.89-0.47,4.58,2.46,4.53
		c2.37-0.04,2.72-2.49,3.31-4.42c1.02-3.34-2.59-4.83-2.9-7.61c0.33-2.97-0.56-5.73-1.5-8.48c1.47-1.01,2.95-2.02,4.43-3.03
		c3.07-0.75,6.74-0.68,7.07-5.18c3.95-4.82,9.51-4.49,14.91-4.65c0.8,4.83,6.4,5.12,8.37,8.83c0.81,1.58,2.17,2.39,3.82,2.89
		c6.49,1.99,8.47,8.81,3.63,13.62c-5.18,5.15-8.1,11.57-11.4,17.85c-1.84,3.5-1.52,6.6,0.76,9.65c-3.36,0-6.72-0.01-10.07-0.01
		c0.86-5.59-2.96-6.7-7.15-7.87c-2.15-0.6-4.13-2.02-6.03-3.31c-3.35-2.27-6.68-4-11.02-3.34c-2.43,0.37-4.86-0.65-6.82-2.36
		c-0.19-1.46,0.3-2.73,1.16-3.87C368.91,133.22,370.96,132.24,372.07,130.16z M403.96,131.87c0.03,1.55,0.16,3.24,2.23,3.05
		c2.37-0.22,3.17-2.17,3.41-4.21c0.2-1.62-0.85-2.43-2.41-2.38C404.97,128.4,404.04,129.77,403.96,131.87z M393.78,125.81
		c-0.12-1.05-0.37-2.14-1.69-1.9c-1.89,0.34-3.45,1.38-3.66,3.43c-0.16,1.53,1.14,1.84,2.37,1.73
		C392.75,128.9,393.67,127.69,393.78,125.81z"/>
	<path class="st2" d="M329.94,69.45c2.08,2.88,4.18,5.75,7.06,7.92c2.12,2.55,1.95,4.94-0.39,7.29c-1.6,1.6-3.09,3.3-4.64,4.95
		c-3.29-5.87-8.94-8.58-14.8-10.99c-0.75-0.31-1.69-0.53-2.29,0.26c-0.6,0.81,0,1.51,0.47,2.2c1.18,1.71,3.48,2.57,3.89,5.28
		c-2.84,0.36-5.2-0.63-7.55-1.75c-7.02-3.36-13.62-7.42-20.05-11.77c1.43-2.67,1.38-4.9-1.84-6.18c-0.01-1.51,0.4-2.87,1.22-4.15
		c2.95-4.65,3.43-9.72,2.41-15.01c-0.09-1.76,0.92-2.25,2.48-2.34c4.53-0.25,5.05-2.4,2.7-5.87c-1.21-1.79-1.18-3.85-0.68-5.79
		c1.21-4.75,1.12-9.57,1.13-14.39c1.65,4.09,4.22,7.24,8.93,7.56c6.45,0.43,12.64,2.64,19.15,2.64c2.47,0,5.22-0.34,5.57,3.31
		c0.34,3.58-1.68,4.65-4.82,4.69c-0.56,0.01-1.11,0.59-1.66,0.91c-5.19-1.87-10.54-0.9-15.83-0.79c-2.62,0.06-5.58-2.38-7.58-0.44
		c-2.4,2.33-0.82,6.01-1.01,9.1c-0.12,1.95-0.32,4.02,0.96,5.8c1.91,2.42,3.96,1.67,5.84,0.09c0.92-0.77,1.83-2.04,2.64-0.43
		C315.4,59.73,323.41,63.81,329.94,69.45z"/>
	<path class="st0" d="M220.92,282.6c-1.32,2.08-3.34,2.99-5.61,3.78c-20.02,6.96-40.62,9.25-61.68,7.78
		c-18.33-1.29-36.85-0.11-54.97-4.12c-0.36-0.33-0.84-0.61-1.05-1.02c-0.38-0.74,0.37-0.75,0.71-0.7c4.84,0.72,7.06-2.84,9.63-5.84
		c3-0.75,6.3,0.48,9.12-1.43c3.19,1.19,6.45,1.61,9.82,0.95c0.93,0,1.39-2.03,2.64-0.62c3.74,3.28,8.14,1.73,12.33,1.7
		c1.24,0.38,2.53-1.54,3.75,0.08c-1.01,0.91-3.08,1.45-1.89,3.31c0.82,1.27,2.4,0.75,3.66,0.27c2.15-0.82,4.28-1.69,6.42-2.54
		c3.83-2.43,8.02-3.42,12.53-3.12c1.4-0.21,2.93,0.44,4.19-0.66c2.51-0.49,4.58-2.35,7.25-2.34c5.41-1.34,10.82,1.08,16.24,0.03
		c0.8-0.16,2.11-0.13,2.12,0.69c0.08,3.44,2.44,2.23,4.19,2.24c1.51,0.01,3.06-0.04,4.26,1.02c2.39,2.11,5.04,1.99,7.96,1.44
		C215.29,282.96,218.12,282.87,220.92,282.6z M138.86,288.01c-4.91-2.14-8.51-1.96-12.45,1.8
		C130.86,290.18,134.49,290.84,138.86,288.01z"/>
	<path class="st2" d="M250.88,35.17c0.02-5.45,0.12-10.89,0.03-16.34c-0.07-4.35,1.27-7.76,5.43-9.66c3.07,1.02,6.13,0.89,9.3,0.33
		c6.49-1.15,12.11,0.8,16.68,5.56c2.88,3.01,3.29,6.37,1.15,9.99c-0.91,1.54-2.5,2.89-1.97,4.9c0.79,2.98-0.79,3.43-3.15,3.38
		c-3.17-0.07-5.88,0.86-7.61,3.74c-3.04-0.03-5.94,0.27-8.12,2.84c-0.77,0.91-1.92,1.35-3.14,0.71c-1-0.52-1.6-1.51-1.15-2.47
		c3.12-6.56-1.22-3.93-4.01-3.35C253.2,35.04,252.03,35.06,250.88,35.17z"/>
	<path class="st3" d="M292.55,99.04c-4.71,28.22-10.21,56.18-25.83,80.94c-1.49,2.35-3.17,4.23-5.82,5.13
		c-0.71-3.05-1.82-6.48,0.28-9.03c4.05-4.95,3.77-10.97,5.07-16.62c8.67-5.56,11.34-14.1,11.57-23.72c0.06-2.78-1.71-4.89-3.91-6.54
		c0.09-0.94,0.19-1.89,0.28-2.83c3.05-1.92,3.61-4.99,3.71-8.22c0.22-7.13,1.94-13.77,6.27-19.58
		C286.96,98.71,289.75,98.87,292.55,99.04z"/>
	<path class="st1" d="M339.87,209.19c-2.34-5.3-1.05-11.1-2.23-16.5c-1.23-5.64-0.94-10.67,2.58-15.34c2.43-1.3,3.04-3.86,4.08-6.07
		c7.62-16.26,11.75-33.4,12.9-51.29c1.82,0.61,2.69,1.97,2.62,3.79c-0.35,8.92,2.06,18.22-4.2,26.3c-1.45,1.87-1.78,4.59-2.72,6.88
		c-2.39,5.84-2.31,12.45-7.2,17.59c-3.55,3.74-1.48,7.15,4.21,8.65c-0.56,4.35-0.08,8.42,1.99,12.47
		c2.81,5.51,2.48,12.18,6.08,17.47c-2.77,0.66-3.12,2.77-3.07,5.13c-0.07,0.66-0.14,1.32-0.21,1.97c-1.87-1.12-3.65-1.5-5.29,0.44
		c-0.77,0.91-0.25,3.15-2.17,2.72c-1.82-0.4-2.22-2.28-2.49-3.94c-0.35-2.11-0.71-4.22-0.85-6.35
		C343.71,210.51,342.55,209.13,339.87,209.19z M352.64,209.74c-0.18-1.08-0.69-2.14-2.06-2.14c-0.94,0-1.38,0.8-1.21,1.73
		c0.22,1.16,0.7,2.32,2.05,2.34C352.36,211.68,352.64,210.76,352.64,209.74z"/>
	<path class="st2" d="M292.55,99.04c-2.8-0.16-5.59-0.33-8.39-0.5c-4.07-0.49-7.89-2.27-12.05-2.23c-1.27-4.37-0.57-8.53,0.17-13.02
		c1.13-6.9,0.54-14.09,0.68-21.15c0.96,0.03,1.91,0.06,2.87,0.1c0.68,0.2,1.37,0.41,2.05,0.61c1.86,2.38,4.65,2.96,7.33,3.75
		c-0.19,3.52,1.64,5.63,4.8,6.79c0.24,0.95,0.31,1.98,0.74,2.84c1.65,3.32,4.43,5.72,6.99,8.29c2.69,2.71,4.16,5.24-0.25,7.81
		c-1.58,0.92-2.61,2.53-2.43,4.59C294.22,97.63,293.39,98.33,292.55,99.04z"/>
	<path class="st3" d="M349.9,183.19c-5.69-1.5-7.76-4.91-4.21-8.65c4.89-5.15,4.81-11.76,7.2-17.59c0.94-2.29,1.27-5.01,2.72-6.88
		c6.26-8.07,3.85-17.38,4.2-26.3c0.07-1.81-0.8-3.18-2.62-3.78c-0.36-0.73-0.73-1.47-1.09-2.2c-1.24-5.81-2.24-11.68-3.79-17.41
		c-1.22-4.51-3.52-8.53-7.53-11.35c-2.07-1.46-3.66-1.47-4.66,1.08c-1.27,3.25-3.77,5.36-6.45,7.34c-1.77-1.4-3.21-3.06-4.07-5.18
		c1.31-0.41,2.06-1.32,2.37-2.63c1.54-1.65,3.04-3.35,4.64-4.95c2.34-2.34,2.51-4.74,0.39-7.29c1.22-1.1,0.96-4.31,4.04-2.74
		c2.29,1.17,3.41,2.44,1.51,4.98c-1.64,2.2,0.13,3.71,1.61,5.06c3.09,2.81,5.77,5.97,8.2,9.36c3.64,5.09,8.7,9.39,7.55,16.83
		c-0.44,2.87,1.62,5.64,2.84,8.35c2.12,4.88,0.9,10.7,4.31,15.21c-0.87,1.15-1.35,2.41-1.16,3.87c-3.54,2.48-2.54,6.46-3.28,9.87
		c-3.96,2.6-3.75,5.67-1.01,9.02C359.04,166.46,354.47,174.82,349.9,183.19z"/>
	<path class="st1" d="M285.21,66.6c-2.68-0.79-5.46-1.37-7.33-3.75c0.19-1.42,1.16-2.36,2.07-3.34c2.38-2.56,2.6-5.26,0.52-8.12
		c-2.27-3.12-5.31-3.82-8.85-2.79c-1.56,0.45-2.75,1.43-2.35,3.27c0.4,1.86,1.76,2.49,3.4,1.67c3.34-1.68,3.24,0.6,3.27,2.7
		c0.03,2-0.06,4-0.1,6c-0.96-0.03-1.91-0.06-2.87-0.1c-4.98-2.74-8.9-7.57-15.31-7.57c-0.91,0-2.31-1.1-2.66-2.01
		c-2.19-5.59-4.03-11.29-4.1-17.39c1.15-0.12,2.32-0.13,3.44-0.37c2.79-0.58,7.13-3.22,4.01,3.35c-0.45,0.95,0.14,1.95,1.15,2.47
		c1.23,0.64,2.37,0.2,3.14-0.71c2.18-2.58,5.07-2.87,8.12-2.84c-0.35,2-2.68,3.92-0.9,5.96c2.05,2.36,4.18-0.08,6.31-0.4
		c4.39-0.65,8.98-1.52,11.57,3.67c1.61,1.8,3.45,2.53,5.72,1.2c1.02,5.3,0.54,10.36-2.41,15.01c-0.81,1.28-1.23,2.65-1.22,4.15
		C288.27,67.37,286.74,66.63,285.21,66.6z"/>
	<path class="st2" d="M417.12,165.18c6.02,2.76,8.69,8.47,11.91,13.66c6.74,10.86,14.33,21.2,20.08,32.67
		c0.62,1.24,2.33,2.53,0.81,3.93c-1.31,1.2-2.84-0.11-4.17-0.62c-1.06-0.41-2.26-0.99-2.92-1.86c-4.74-6.27-11.83-10.21-16.36-16.67
		c-8.21-11.69-16.43-23.36-24.64-35.05C407.38,160.78,411.86,164.51,417.12,165.18z"/>
	<path class="st2" d="M377.84,261.97c-4.07-6.04-10.68-4.22-16.36-5.3c-1.35-0.26-3.36,1.19-3.96-0.83c-0.64-2.16,1.6-2.76,3-3.32
		c8.94-3.57,18.42-4.51,27.82-3.86c7.06,0.49,13.91,0.18,20.81-1.01c2.5-0.43,4.99-1.07,6.72,1.62c-4.49,2.14-9.62-0.1-14.11,2.07
		c-5.4-0.14-10.83-0.67-16.07,1.8c5.39,0.26,10.79,0.52,16.18,0.79c2.96,2.87,6.78,3.02,10.52,3.19c4.9,0.23,9.81,0.22,14.71,0.31
		c-0.18,2.08-2.03,3.08-3.03,4.63c-1.41,0.03-2.83,0.06-4.24,0.09c-5.21-3.44-10.49-1.26-15.75-0.18c-0.47,0.32-0.94,0.64-1.41,0.96
		c-7.4,0.18-14.82,0.98-22.16-0.72c-0.94,0.06-1.89,0.11-2.83,0.17C377.68,262.38,377.84,261.97,377.84,261.97z"/>
	<path class="st4" d="M107.96,282.47c-2.57,3-4.79,6.57-9.63,5.84c-0.35-0.05-1.1-0.04-0.71,0.7c0.21,0.41,0.69,0.68,1.05,1.02
		c-2.92,0-5.83,0.01-8.75,0.01c-0.08-2.24-0.98-3.79-3.42-4.03c1.96-2.12,1.72-3.62-1.37-3.53c-2.4,0.07-4.85,0.55-6.95,1.95
		c-3.23,0.2-6.46,0.39-9.69,0.59c-7.11-3.91-20.81-2.18-25.24,3.18c-9.15,0-18.21-1.01-27.27-2.11c1.44-1.24,3.25-1.93,4.99-1.72
		c4.91,0.6,7.82-1.34,8.92-6.11c2.11-0.27,4.22-0.55,6.33-0.82c5.56,1.67,11.13,5.17,16.64-0.11c1.82-1.47,3.92-1.18,6.01-0.98
		c6.49,0.6,12.97,1.4,19.47,1.73c6.01,0.3,12.43-2.73,17.74,2.63c0.55,0.56,1.9,0.33,2.88,0.46c2.85,2.18,5.99-1.25,8.87,0.47
		C107.86,281.93,107.91,282.2,107.96,282.47z"/>
	<path class="st1" d="M331.98,89.62c-0.31,1.31-1.06,2.22-2.37,2.63c-3.61-1.28-6.71-4.23-11.22-2.07
		c-5.39,2.57-7.81,6.53-7.36,12.31c0.36,4.56-1.43,4.69-4.86,2.81c-4.14-2.26-7.82-5.06-11.12-8.38c-0.18-2.06,0.85-3.67,2.43-4.59
		c4.41-2.58,2.94-5.11,0.25-7.81c-2.56-2.57-5.35-4.97-6.99-8.29c-0.43-0.86-0.5-1.89-0.74-2.84c0.55-0.18,1.1-0.35,1.66-0.53
		c6.43,4.35,13.03,8.41,20.05,11.77c2.34,1.12,4.7,2.1,7.55,1.75c-0.42-2.71-2.72-3.57-3.89-5.28c-0.48-0.69-1.07-1.39-0.47-2.2
		c0.59-0.8,1.54-0.57,2.29-0.26C323.04,81.04,328.69,83.75,331.98,89.62z"/>
	<path class="st2" d="M497.57,257.94c0.72,1.88,2.31,2.18,4.03,2.25c1.87,0.07,3.58,0.51,4.82,2.01c-0.26,1.7-2.87,0.43-2.73,2.24
		c0.13,1.68,1.83,1.66,2.98,2.17c1.36,0.6,2.88,0.92,4.11,1.72c2.12,1.38,2.75,3.61-0.06,4.34c-3.64,0.94-3.28,2.29-1.61,4.67
		c1.01,1.43,0.8,3.16,0.8,4.82c-2.05-0.97-4.47-1.12-6.22-2.78c-0.27-5.38-7.43-13.77-12.56-14.56c-2.82-0.44-3.62,1.12-2.98,3.59
		c0.66,2.56,1.94,4.97,1.6,7.73c-0.6,0.11-1.21,0.22-1.81,0.34c-0.83-3.57-3.42-4.9-6.75-5.28c-1.45,0.01-2.9,0.02-4.36,0.03
		l0.03,0.05c-3.54-3.62-7.32-7.07-8.97-12.09c3.29,0,6.58,0,9.87,0c2.41-0.35,5.85,1.29,6.11-3.18c-0.04-0.54-0.08-1.07-0.12-1.61
		c2.36-0.92,4.14-3.06,6.84-3.28c1.39,1.28,2.31,2.71,2.41,4.73C493.19,259.22,494.81,259.92,497.57,257.94z"/>
	<path class="st3" d="M287.73,46.3c-2.59-5.19-7.18-4.32-11.57-3.67c-2.13,0.32-4.26,2.76-6.31,0.4c-1.78-2.05,0.55-3.96,0.9-5.96
		c1.73-2.88,4.45-3.81,7.61-3.74c2.36,0.05,3.94-0.4,3.15-3.38c-0.53-2.01,1.06-3.36,1.97-4.9c2.14-3.61,1.73-6.98-1.15-9.99
		c-4.57-4.77-10.18-6.71-16.68-5.56c-3.18,0.56-6.23,0.7-9.3-0.33c0.25-4.09,2.82-5.86,6.5-6.51c1.13,2.35,3.36,1.86,5.25,1.87
		c7.01,0.03,12.09,3.52,16.93,8.27c7.19,7.05,8.02,16.02,8.76,25.15c0.19,2.34-1.05,3.8-3.31,4.28
		C288.18,42.72,287.73,44.33,287.73,46.3z"/>
	<path class="st0" d="M287.73,46.3c0-1.97,0.45-3.59,2.75-4.07c2.25-0.48,3.5-1.94,3.31-4.28c-0.74-9.13-1.57-18.1-8.76-25.15
		c-4.84-4.74-9.91-8.24-16.93-8.27c-1.89-0.01-4.12,0.48-5.25-1.87c3.02-0.89,6.04-1.78,9.07-2.67c3.34,0.01,6.68,0.01,10.03,0.02
		c10.82,1.78,14.32,10.13,17.13,19.1c-0.01,4.83,0.08,9.65-1.13,14.39c-0.5,1.94-0.53,4,0.68,5.79c2.35,3.48,1.84,5.62-2.7,5.87
		c-1.57,0.09-2.58,0.58-2.48,2.34C291.18,48.83,289.34,48.1,287.73,46.3z"/>
	<path class="st2" d="M266.24,159.45c-1.3,5.64-1.02,11.66-5.07,16.62c-2.09,2.56-0.98,5.98-0.28,9.03
		c-0.87,2.16-2.56,2.41-4.51,1.83c-2.18-0.65-2.48-2.46-2.46-4.38c0.05-5.24,2.65-9.88,3.54-14.95c1.32-7.5,3.13-14.91,4.6-22.39
		c0.77-3.92,1.82-7.63,3.66-11.25c5.55-10.95,6.01-22.95,6.45-34.9c3.09,1.33,3.68,4.01,3.73,6.97c0.07,4.54-1.22,8.85-2.28,13.18
		c-0.61,2.5-1.05,4.87,0.56,7.15c-0.09,0.94-0.19,1.89-0.28,2.83c-3.05,1.21-4.19,3.62-3.93,6.69c0.39,4.75-0.97,9.11-2.6,13.44
		C266.12,152.6,265.42,155.94,266.24,159.45z"/>
	<path class="st2" d="M255.93,213.14c-3.43,0.55-4.41,3.16-4.98,6.04c-0.65,3.25-1.17,6.52-1.84,9.76c-0.23,1.12-0.6,2.41-1.98,2.57
		c-1.55,0.18-1.83-1.1-2.08-2.27c-0.78-3.72-1.94-3.03-3.28-0.29c-0.54,1.1-1.24,2.2-2.61,1.67c-1.65-0.64-1.15-2.19-0.96-3.46
		c1.03-6.97,3.66-13.41,6.6-19.75c1.18-2.56,2.44-5.09,3.45-7.72c1.44-3.72,2.9-7.17,7.94-6.54c4.92,0.62,5.14,4.42,5.68,8.06
		C259.42,204.95,254.21,207.32,255.93,213.14z"/>
	<path class="st2" d="M241.85,267.34c0.11,1.97,0.95,3.57,2.44,4.83c0,0-0.15,0.25-0.15,0.25c-4.16-0.65-8.15-0.64-11.25,2.88
		c-7.12-0.8-14.51-0.37-21.13,1.3c-6.01,1.52-11.53,0.04-16.94-0.27c-5.77-0.33-11.3-4.07-16.76,0.93c-1.45-0.97-2.89-1.94-4.4-2.95
		c1.36-1.6,3.04-1.32,4.37-1.2c8.93,0.8,17.83-1.33,26.78-0.14c2.31,0.31,6.37,1.52,5.19-3.72c1.93-0.09,3.19-0.96,3.42-2.99
		C222.92,266.08,232.43,265.42,241.85,267.34z"/>
	<path class="st4" d="M328.01,281.08c-3.64,0.11-7.22,0.9-10.59-1.87c-1.72-1.41-4.61-1.98-6.38,0.88
		c-2.67,0.67-5.98-1.28-8.03,1.95c-5.05,1.37-10.21,1.24-15.38,1.23c-2.27,0-4.33-0.46-5.9-2.15c-2.56-2.74-5.42-2.4-8.11-0.56
		c-3.99,2.73-8.26,3.3-12.86,2.51c1.06-0.91,2.11-1.82,3.16-2.73c6.34-4.35,13.58-4.99,20.91-4.77c15.07,0.47,30.08-0.49,45.1-1.29
		c0.02,0.67,0.05,1.34,0.07,2C326.95,276.89,326.66,278.64,328.01,281.08z"/>
	<path class="st1" d="M333.68,97.43c2.68-1.98,5.19-4.09,6.45-7.34c0.99-2.55,2.59-2.54,4.66-1.08c4,2.82,6.31,6.84,7.53,11.35
		c1.54,5.73,2.55,11.6,3.79,17.41c-1.8,0.21-3.61,0.41-5.41,0.62C344.06,112.19,337.61,105.83,333.68,97.43z"/>
	<path class="st1" d="M481.21,271.18c3.33,0.38,5.92,1.71,6.75,5.28c-1.54,3.33-4.3,4.07-7.69,3.87c-2.55-0.15-5.21-0.89-7.6,0.75
		c-1.36-0.3-2.71-0.6-4.07-0.9c0.79-0.55,1.9-0.91,1.71-2.16c-0.15-0.98-0.96-1.29-1.84-1.26c-3.8,0.14-7.6,0.23-11.39,0.54
		c-1.61,0.13-0.58,1.08-0.22,1.72c-5.18-1.03-10.34,1.81-15.52,0.06c1.52-3.75,5.96-5.05,7.45-8.83c9.38,0.05,18.76-0.19,28.1,1
		c0,0-0.03-0.05-0.03-0.05C478.32,273.7,479.77,273.25,481.21,271.18z"/>
	<path class="st2" d="M381,82.08c1.26,0.16,1.86-0.51,2.07-1.66c1.71,0.67,0.82,8.54,5.17,1.86c6.4,3.32,6.73,3.84,7.87,12.33
		c5.56-1.21,5.59-1.27,3.87-7.74c3.41,0.57,5.83,2.64,7.87,5.27c0.28,3.73,3.65,4.37,6.01,6.02c-3.55,2.76-7.77,1.46-11.14,0.61
		c-6.54-1.66-12.33,0.35-18.34,1.74c-2.24,0.52-4.41,1.7-6.52-0.24c1.47-0.65,1.1-2.02,1.25-3.19c2.11-0.88,2.9-2.54,2.74-4.73
		C381.59,88.92,381.29,85.5,381,82.08z"/>
	<path class="st0" d="M241.85,267.34c-9.42-1.93-18.93-1.27-28.43-1.07c-3,0.06-6.05-0.51-8.96,0.7
		c-7.69,2.16-15.48,3.71-23.49,3.86c-1.43,0.03-3.88,1.63-3.97-1.72c0.79-0.68,1.58-1.35,2.37-2.03c2.53-0.87,5.79,2.1,7.8-1.48
		c-1.81-2.51-5.17-0.15-7.11-2.27c2.51-0.1,5.02-0.19,7.53-0.29c2.97,0.06,6,0.75,8.85-0.76c0,0,0.03,0,0.03,0
		c6.41,1.52,12.82,1.25,19.23,0.03c8.82-0.92,17.76,0.78,26.54-1.49c2.21-0.57,4.54,0.44,6.64,1.46c0.27,2.2-1.34,3.39-2.56,4.8
		C244.82,267.17,243.33,267.26,241.85,267.34z"/>
	<path class="st0" d="M330.01,276.3c-0.02-0.67-0.05-1.34-0.07-2c0.58-0.1,1.15-0.2,1.73-0.3c1.29-1.37,2.95-2.77,1.81-4.84
		c-0.95-1.72-2.92-2.06-4.78-2.09c-1.31-0.03-2.63,0.15-3.94,0.23c-1.69-0.29-3.8-0.31-1.98-2.95c3.8-0.06,7.61-0.08,11.41-0.19
		c7.07-0.22,14.18,0.65,21.19-0.91c4.01,0.3,7.94-0.3,11.83-1.17c2.1-0.47,4.03-0.65,4.72,2.06c-2.12,1.32-4.39,2.07-6.92,1.97
		c-2.04-0.08-3.54,0.55-3.51,2.96c-5.24-0.44-9.35,2.88-14.06,4.22c-1.33-0.12-2.62-0.09-3.52,1.12l0.17-0.07
		c-3.64,1.73-7.99,0.03-11.5,2.36C331.74,276.56,330.88,276.43,330.01,276.3z"/>
	<path class="st2" d="M350.69,118.4c1.8-0.21,3.61-0.41,5.41-0.62c0.36,0.73,0.73,1.47,1.09,2.2c-1.15,17.89-5.28,35.04-12.9,51.29
		c-1.03,2.21-1.65,4.77-4.08,6.07c-0.7-7.83,3.49-14.43,5.5-21.57c2.09-7.39,2.64-15.09,4.64-22.44c1.02-3.74-5.3-4.23-2.61-7.03
		C350.13,123.85,351.15,121.58,350.69,118.4z"/>
	<path class="st1" d="M427.1,257.43c-4.9-0.09-9.81-0.08-14.71-0.31c-3.74-0.18-7.56-0.33-10.52-3.19
		c-0.04-0.86-0.07-1.73-0.11-2.59c4.49-2.17,9.62,0.07,14.11-2.07c7.23,0.57,14.77-1.54,21.59,2.76c1.04,0.65,2.87,0.05,4.33,0.03
		c1.01,2.94,3.82,3.21,6.17,4.17c-1.53,2.21-3.84,1.92-6.07,1.86c-2.48-2.72-4.53-2.5-6.1,0.91
		C432.89,258.48,430,257.95,427.1,257.43z"/>
	<path class="st2" d="M465.1,241.8c-2.08,0.54-4.14,1.17-6.24,1.6c-1.2,0.25-2.87,1.09-3.42-0.71c-0.45-1.47,0.87-2.55,2.09-3
		c5.43-1.98,3.53-3.26-0.06-5.46c-5.91-3.63-11.47-7.83-17.15-11.83c-0.77-0.54-2.04-1.14-1.43-2.26c0.74-1.35,2.06-0.74,3.01-0.1
		c1.51,1.03,2.98,2.06,4.78,2.57c4.62,1.32,7.35,0.01,8.76-4.59c0.85-2.77,1.41-5.58,5.05-5.85c1.13,0.49,2.26,0.98,3.4,1.47
		c1.33,0.24,2.66,0.48,3.98,0.71c-0.26,1.27-1.26,1.82-2.26,2.41c-8.04,4.76-8.47,7.04-2.72,14.34
		C461.96,235.03,464.89,238.14,465.1,241.8z"/>
	<path class="st2" d="M540.62,231.35c-0.01,6.31-0.02,12.63-0.04,18.94c-4.05-2.39-7.45-6.87-13.11-4.02
		c-2.31-0.95-2.67-2.9-2.58-5.07c2.52-2.08,5.1-4.12,6.81-8.82c-3.82,2.23-6.74,5.4-7.83-0.24c1.98-7.16,5.4-8.48,11.43-4.39
		C537.08,228.94,538.85,230.15,540.62,231.35z"/>
	<path class="st2" d="M99.41,296.9c-27.09-0.01-54.18-0.02-81.27-0.02c1.1-3.34,3.82-3.86,6.77-3.74c7.11,0.29,14.31,1.57,21.3,0.81
		c11.81-1.29,23.49,0.04,35.2,0.45C87.41,294.6,93.68,294.19,99.41,296.9z"/>
	<path class="st3" d="M107.96,282.47c-0.05-0.27-0.1-0.55-0.15-0.82c0.34-0.89,1.13-1.92,0.9-2.63c-0.37-1.18-1.63-0.59-2.48-0.32
		c-2.44,0.78-4.86,1.65-7.28,2.48c-0.98-0.13-2.33,0.1-2.88-0.46c-5.31-5.36-11.73-2.33-17.74-2.63c-6.5-0.33-12.98-1.13-19.47-1.73
		c3.98-0.81,8.14,0.61,12.05-1.02c13.8-1.87,27.74-0.89,41.57-2.19c1.18,0.04,2.37,0.08,3.56,0.13c0.64,0.58,1.29,1.16,1.93,1.75
		c-4.67,0.94-0.5,3.58-1.03,5.32c0.05,0.23,0.09,0.47,0.14,0.7C114.26,282.95,110.95,281.72,107.96,282.47z"/>
	<path class="st2" d="M70.9,275.33c-3.91,1.63-8.07,0.21-12.05,1.02c-2.09-0.21-4.19-0.49-6.01,0.98
		c-5.55,0.04-11.1,0.08-16.64,0.11c-2.11,0.27-4.22,0.55-6.33,0.82c-0.67-0.05-1.34-0.11-2.02-0.16c-2.66-2.11-1.4-4.07,0.23-6.01
		c8.29,0.67,16.41-0.95,24.57-1.91c3.61,0.66,7.22,1.27,10.91,1.03C66.91,270.99,69.36,272.35,70.9,275.33z"/>
	<path class="st4" d="M116.03,273.27c-1.19-0.04-2.37-0.08-3.56-0.13c-0.13-1.93,0.35-3.21,2.71-3.01
		c5.54,0.46,10.73-1.44,16.04-2.53c6.17-1.28,12.46-1.21,18.72-1.43c-1.51,1.27-2.24,2.51,0.6,2.59c3.45,0.1,6.89,0.55,10.33-0.83
		c3.55-1.42,7.33-2.33,11.16-0.67c-1.73,1.3-3.46,2.59-5.2,3.89c-4.51,1.24-9.13,0.84-13.72,1.08c-4.39,0.23-8.79-1.54-13.13,0.16
		C131.99,272.35,123.96,271.36,116.03,273.27z"/>
	<path class="st3" d="M463.88,213.66c-1.13-0.49-2.27-0.98-3.4-1.47c0.77-2.71,3.08-2.13,4.96-2.21c21.1-0.89,42.17-2.89,63.33-2.03
		c1.08,0,2.17-0.01,3.25-0.01c2.89,0.67,5.69-0.2,8.53-0.44c0,0.86,0,1.72-0.01,2.58c-11.58,0.65-23.16,1.31-34.74,1.96
		c1.6-1.56,0.5-1.89-0.93-1.9c-4.33-0.03-8.65-0.04-12.98,0.03c-2.77,0.05-5.75-0.54-7.9,2.02c-3.34,0.36-6.69,0.72-10.03,1.07
		C470.47,209.73,467.17,211.42,463.88,213.66z"/>
	<path class="st4" d="M178.06,277.28c5.45-5,10.98-1.26,16.76-0.93c5.41,0.31,10.94,1.78,16.94,0.27c6.62-1.67,14.01-2.1,21.13-1.3
		c0.63,0.61,1.26,1.22,1.89,1.83c-2.34,0.27-4.75,0.35-6.22,2.66c-2.78,0.3-5.1,1.84-7.64,2.79c-2.8,0.28-5.63,0.36-8.38,0.88
		c-2.91,0.56-5.56,0.68-7.96-1.44c-1.2-1.06-2.75-1.01-4.26-1.02c-1.75-0.01-4.1,1.2-4.19-2.24c-0.02-0.82-1.32-0.85-2.12-0.69
		c-5.42,1.06-10.83-1.37-16.24-0.03C177.87,277.8,177.97,277.54,178.06,277.28z M214.2,280.32c-2.84-0.61-5-1.63-7.29-0.12
		C209.06,281.38,211.21,282.53,214.2,280.32z"/>
	<path class="st4" d="M448.79,270.26c-1.49,3.78-5.93,5.08-7.45,8.83c-3.45,1.28-6.8-1.81-10.25-0.26c6.87-5.41,6.87-5.41-1.12-9.55
		c0.04-0.65,0.08-1.3,0.12-1.95c0.3-0.07,0.6-0.16,0.88-0.27c1.64,0.3,3.27,0.62,4.91,0.88c1.54,0.25,3.28,0.39,3.43-1.7
		c0.12-1.75-1.44-2-2.84-2c-1.83-0.01-3.66,0.07-5.49,0.11c-1.05-0.65-2.39-0.88-3.03-2.11c2.97-0.06,5.94-0.12,8.91-0.17
		c3.03,0.24,5.96,1.33,9.06,0.93c2.79,0.15,4.62,0.96,2.51,4.07C447.58,268.32,447.26,269.35,448.79,270.26z"/>
	<path class="st2" d="M482.04,241.05c-3.79,0.77-7.56,0.72-11.32-0.2c0.06-2.22,0.12-4.45,0.17-6.68c5.49-0.69,6.15-2.7,3-9.16
		c0.13-2.6,1.75-3.61,4.09-3.87c-0.75,2.35,0.77,3.66,2.27,5c4.5,4.03,9,8.07,13.5,12.1c0.8,2.39,2.49,4.15,4.15,5.93
		c-1.34-0.05-2.68-0.1-4.03-0.14c-0.62-3.29-2.58-5.87-5.26-7.49c-2.69-1.63-5.05-6.48-7.83-4.56
		C478.04,233.88,481.49,237.93,482.04,241.05z"/>
	<path class="st4" d="M472.67,281.09c2.39-1.64,5.06-0.91,7.6-0.75c3.39,0.2,6.15-0.54,7.69-3.87c0.61-0.11,1.21-0.22,1.81-0.34
		c4.78,0.52,9.57,0.96,13.94,3.24c1.74,1.66,4.17,1.8,6.22,2.78c0.66,2.08,2.58,2.83,4.17,3.93c0.25,1.29,0.03,2.7,0.99,3.8
		c-9.25-6.81-19.76-7.23-30.7-6.58C480.54,283.52,476.58,281.88,472.67,281.09z"/>
	<path class="st4" d="M358.73,76.52c2.87,0.9,6,0.05,8.8,2.41c1.29,1.09,3.64-2.5,6.16-2.38c-0.08,3.99-3.02,7.63-1.45,11.82
		c-1.07,1.45-1.39,3.13-1.46,4.88c-5.01-1.21-7.09-6.35-11.4-8.5C357.83,82.12,357.83,79.35,358.73,76.52z"/>
	<path class="st1" d="M540.6,287.41c0.27,9.55,0.27,9.55-9.36,9.56c-1.99,0-3.98,0.01-5.97,0.01c-6.16-0.01-6.16-0.01-5.63-6.15
		c1.15-0.29,2.3-0.59,3.45-0.89c1.66,0.77,3.33,1.52,4.97,2.33c3.38,1.66,4.29,0.36,3.55-2.94
		C534.43,287.85,537.46,287.38,540.6,287.41z"/>
	<path class="st3" d="M339.87,209.19c2.68-0.06,3.84,1.32,4.02,3.92c0.14,2.13,0.5,4.24,0.85,6.35c0.27,1.65,0.67,3.53,2.49,3.94
		c1.92,0.42,1.4-1.82,2.17-2.72c1.64-1.94,3.42-1.56,5.29-0.44c0.19,1.23,0.37,2.45,0.55,3.68c-0.91,0.96-1.72,2.09-3.34,1.7
		c-0.94-0.23-2.12-0.66-2.64,0.52c-0.55,1.24,0.4,2.2,1.14,3.09c0.88,1.04,1.94,1.82,3.36,1.95c-0.04,1.71,1.16,4.01-1.31,4.72
		c-2.07,0.59-2.48-1.8-3.52-2.97C342.94,226.16,340.35,218.08,339.87,209.19z"/>
	<path class="st1" d="M274.18,126.35c-1.61-2.28-1.16-4.65-0.56-7.15c1.05-4.34,2.35-8.65,2.28-13.18
		c-0.05-2.95-0.64-5.63-3.73-6.97c-0.02-0.91-0.04-1.82-0.06-2.74c4.16-0.05,7.99,1.74,12.06,2.23c-4.34,5.81-6.05,12.45-6.27,19.59
		C277.79,121.36,277.23,124.43,274.18,126.35z"/>
	<path class="st3" d="M27.85,278.1c0.67,0.05,1.35,0.11,2.02,0.16c-1.1,4.77-4.01,6.71-8.92,6.11c-1.73-0.21-3.55,0.48-4.99,1.72
		c-4.3,0.01-8.61,0.08-12.91,0c-1.25-0.02-3.01-0.09-3.06-1.77c-0.04-1.35,1.64-1.35,2.67-1.72c4.46-1.6,9.22-0.17,13.75-1.37
		C20.24,280.21,24.26,279.95,27.85,278.1z"/>
	<path class="st1" d="M324.76,267.28c1.32-0.08,2.63-0.26,3.95-0.23c1.86,0.04,3.83,0.37,4.78,2.09c1.14,2.07-0.51,3.47-1.81,4.84
		c-0.54-3.06-3.16-2.52-5.13-2.77c-4-0.51-7.95,0.37-11.93,0.73c-3.43,0.31-6.92,0.19-10.26-2.13c2.22-2.22,4.48-3.79,7.18-4.72
		C315.51,268.42,319.92,269.19,324.76,267.28z"/>
	<path class="st3" d="M512.96,241.28c-1.32,0-2.64,0-3.97,0c-1.48-1.26-3.53-1.93-4.1-4.1c0.16-2.34-0.55-4.32-2.66-5.52
		c-1.82-1.03-3.04-2.54-3.96-4.35c3.45,1.86,7.02,2.28,10.86,1.32c3.19-0.79,6.15-0.19,8.44,2.43
		C512.35,232.8,511.22,236.39,512.96,241.28z"/>
	<path class="st1" d="M228.57,279.8c1.46-2.31,3.88-2.4,6.22-2.66c3.54,0.56,5.63-3.42,9.15-2.93c-0.44,2.24-1.44,3.96-3.85,4.63
		c-1.69,0.47-3.78,0.62-4.18,2.89c-0.44,2.51,1.65,3.33,3.24,4.45c-3.62,1.36-7.33,2.53-10.83,4.14c-2.78,1.28-3.89,0.05-4.73-2.24
		c1.04-1.27,2.42-1.39,3.96-1.38c1.55,0,4.36,1.61,4.33-0.8C231.85,283.99,232.34,280.31,228.57,279.8z"/>
	<path class="st4" d="M504.89,237.18c0.57,2.16,2.63,2.84,4.11,4.1c-0.11,3.18-2.48,3.05-4.64,3.08c-2.15,0.03-4.3-0.11-6.46-0.17
		c-1.66-1.79-3.35-3.55-4.15-5.93c0.8-0.13,1.98-0.4,1.24-1.38c-1.86-2.45-0.61-4.24,0.86-6.1
		C499.08,232.6,501.29,235.88,504.89,237.18z"/>
	<path class="st2" d="M410.17,111.18c-1.98-3.71-7.58-4-8.37-8.83c4.73-2,9.48-0.62,14.22-0.06c1.73,0.2,2.59,1.32,2.68,3.05
		c-1.97,0.45-3.32,1.52-3.64,3.63C413.76,110.44,412.19,111.3,410.17,111.18z"/>
	<path class="st0" d="M43.24,288.2c4.43-5.36,18.13-7.09,25.24-3.18c-3.57,1.34-8.44-0.81-10.71,4.01
		C52.89,289.32,48.06,288.8,43.24,288.2z"/>
	<path class="st3" d="M527.47,246.27c5.65-2.85,9.06,1.63,13.11,4.02c0,2.17,0,4.34-0.01,6.51c-4.04-2.05-7.49-5.22-12.08-6.28
		C525.62,249.85,526.92,247.91,527.47,246.27z"/>
	<path class="st2" d="M355.38,263.23c-7.01,1.56-14.12,0.69-21.19,0.91c-3.8,0.12-7.61,0.13-11.41,0.19
		c-3.33,0.04-6.72,1.66-9.98-0.35c1.66-4.4,5.3-6.51,9.15-3.92c5.65,3.8,11.6,2.95,17.59,3.06
		C344.83,263.21,350.11,263.19,355.38,263.23z"/>
	<path class="st0" d="M172.04,267.26c-3.83-1.66-7.6-0.75-11.16,0.67c-3.44,1.38-6.88,0.93-10.33,0.83
		c-2.84-0.08-2.11-1.32-0.6-2.59c6.1-1.14,12.23-2.04,18.46-2.04c2.17,0.01,4.35,0.02,6.53,0.04c-0.03,0.98-0.06,1.95-0.09,2.93
		C173.9,267.14,172.97,267.2,172.04,267.26z"/>
	<path class="st1" d="M255.93,213.14c-1.72-5.82,3.48-8.19,5.94-11.92c0.22,5.09,0.49,10.18-1.53,15.04
		c-0.75,1.8-1.33,4.27-3.87,3.47c-2.52-0.8-1-2.97-0.69-4.63C255.9,214.45,255.89,213.79,255.93,213.14z"/>
	<path class="st3" d="M482.04,241.05c-0.55-3.13-4-7.18-1.25-9.07c2.78-1.91,5.14,2.93,7.83,4.56c2.68,1.62,4.64,4.2,5.26,7.49
		C489.79,243.58,486.34,240.64,482.04,241.05z"/>
	<path class="st4" d="M361.51,269.05c-0.03-2.41,1.47-3.03,3.51-2.96c2.53,0.09,4.8-0.66,6.92-1.97c2.35,0.34,3.68-2.14,5.9-2.15
		c0,0-0.16,0.41-0.16,0.41c-1.03,1.73-1.04,3.38,0.36,4.93c-0.02,0.41-0.04,0.82-0.06,1.22c-2.93,1.31-6.44-0.48-9.2,1.71
		C366.08,271.57,363.59,271.55,361.51,269.05z"/>
	<path class="st0" d="M244.14,272.43c0,0,0.15-0.25,0.15-0.25c7.62-1.58,15.29-2.33,23.16-1.8c-3.73,3.09-9.25,4.34-12.11,2.8
		C251.63,272.64,247.77,274.14,244.14,272.43z"/>
	<path class="st1" d="M221.72,294.37c6.79,0,13.58,0,20.37,0c1.74,1.21,4.34,0.41,5.72,2.46c-9.69,0-19.38,0-29.07,0
		C219.74,296.02,220.73,295.19,221.72,294.37z"/>
	<path class="st3" d="M57.76,289.03c2.27-4.81,7.15-2.67,10.71-4.01c3.23-0.2,6.46-0.39,9.69-0.59c0.45,1.71,1.98,1.57,3.24,1.89
		c-2.68,1.43-6.03,0.84-8.54,2.78C67.83,289.08,62.8,289.05,57.76,289.03z"/>
	<path class="st1" d="M417.12,165.18c-5.26-0.67-9.73-4.4-15.29-3.93c-0.33-0.69-0.65-1.37-0.98-2.06c2.27-1.17,5.02-1.24,7.04-2.99
		C413.08,157.03,415.17,161.03,417.12,165.18z"/>
	<path class="st3" d="M523.87,232.14c1.1,5.64,4.01,2.47,7.83,0.24c-1.71,4.7-4.29,6.74-6.81,8.82c-2.09-1.86-4.51-1.66-6.99-1.13
		c-0.39-3.03,0.98-5.33,3.05-7.34C521.93,232.52,522.9,232.33,523.87,232.14z"/>
	<path class="st2" d="M540.6,287.41c-3.14-0.03-6.17,0.44-8.99,1.92c-1.45-0.76-3.28-1.41-2.99-3.4c0.28-1.93,2.2-2.24,3.77-2.61
		c2.69-0.65,5.37-1.59,8.21-0.87C540.61,284.1,540.6,285.75,540.6,287.41z"/>
	<path class="st1" d="M470.89,234.18c-0.06,2.23-0.12,4.45-0.17,6.68c-1.87,0.32-3.75,0.64-5.62,0.95
		c-0.21-3.67-3.14-6.78-2.21-10.68c0.45-0.06,0.91-0.12,1.36-0.18C466.11,232.76,468.46,233.55,470.89,234.18z"/>
	<path class="st1" d="M520.95,232.72c-2.07,2.01-3.44,4.31-3.05,7.34c-1.42,1.35-3.16,1.36-4.95,1.22
		c-1.74-4.89-0.61-8.48,4.62-10.22C518.89,231.22,520.32,231.17,520.95,232.72z"/>
	<path class="st0" d="M72.87,289.1c2.52-1.94,5.86-1.35,8.54-2.78c1.7-0.1,3.39-0.2,5.09-0.31c2.44,0.24,3.34,1.79,3.42,4.03
		C84.18,290.81,78.51,290.1,72.87,289.1z"/>
	<path class="st3" d="M497.57,257.94c-2.76,1.98-4.39,1.28-4.55-2.11c-0.1-2.02-1.02-3.45-2.41-4.73c2.91-3.08,4.78-2.93,6.6,0.54
		C498.28,253.69,498.04,255.81,497.57,257.94z"/>
	<path class="st1" d="M353.78,231.18c-1.42-0.13-2.48-0.91-3.36-1.95c-0.75-0.89-1.69-1.85-1.14-3.09c0.52-1.18,1.69-0.75,2.64-0.52
		c1.62,0.39,2.42-0.74,3.34-1.7c2.1,0.92,3.72,2.29,3.22,4.82C357.96,231.32,355.73,231.09,353.78,231.18z"/>
	<path class="st1" d="M302.07,247.57c-2.5-4.01-3.56-7.5-2.13-11.37c0.2-0.55,0.72-1.24,1.21-1.36c1.05-0.25,1.39,0.76,1.5,1.51
		C303.13,239.87,303.96,243.43,302.07,247.57z"/>
	<path class="st4" d="M379.11,97.08c-0.15,1.17,0.22,2.54-1.25,3.19c-2.66-1.2-3.44-4.08-5.33-5.97c3.69-0.92,3.68-4.2,4.46-6.98
		c0.59,0.35,1.18,0.71,1.77,1.06C378.89,91.28,379,94.18,379.11,97.08z"/>
	<path class="st3" d="M244.14,272.43c3.64,1.71,7.49,0.21,11.19,0.75c-3.75,1.03-7.58,0.95-11.39,1.03
		c-3.52-0.48-5.61,3.49-9.15,2.93c-0.63-0.61-1.26-1.22-1.89-1.83C235.98,271.79,239.98,271.78,244.14,272.43z"/>
	<path class="st2" d="M532.03,207.94c-1.08,0-2.17,0.01-3.25,0.01c0.08-3.24,1.34-5.67,4.53-6.88c1.64-0.62,3.03-0.33,3.74,1.24
		c0.76,1.67-0.62,2.29-1.87,2.82C533.81,205.7,532.44,206.28,532.03,207.94z"/>
	<path class="st2" d="M358.73,76.52c-0.91,2.84-0.9,5.6,0.65,8.24c-0.83,0.51-1.67,1.03-2.5,1.54c-1.03-1.25-2-2.54-3.09-3.74
		c-1.02-1.12-1.4-2.23-0.4-3.53C354.74,77.27,356.1,75.53,358.73,76.52z"/>
	<path class="st2" d="M445.93,262.98c-3.09,0.39-6.03-0.69-9.06-0.93c1.18-1.56,2.57-3.2-1.08-3.05c1.57-3.41,3.62-3.63,6.1-0.91
		C441.24,261.37,444.54,261.39,445.93,262.98z"/>
	<path class="st2" d="M523.09,289.94c-1.15,0.3-2.3,0.6-3.45,0.89c-1.53-0.33-3.05-0.65-4.56-0.96c-0.95-1.1-0.73-2.51-0.98-3.79
		C517.58,286.25,521.37,285.68,523.09,289.94z"/>
	<path class="st3" d="M246.3,267.09c1.21-1.41,2.82-2.61,2.56-4.8c2.22,0.63,4.43,1.3,6.67,1.89c0.88,0.23,1.66,0.55,1.54,1.56
		c-0.11,0.93-0.88,1.4-1.78,1.41C252.29,267.15,249.3,267.11,246.3,267.09z"/>
	<path class="st1" d="M291.89,263.27c-1.23-4.63,3.27-5.11,5.33-5.54c2.92-0.61,2.02,2.82,2.31,4.73
		C296.83,261.4,294.31,261.89,291.89,263.27z"/>
	<path class="st4" d="M312.81,263.98c3.26,2.02,6.65,0.39,9.98,0.35c-1.82,2.65,0.29,2.66,1.98,2.95c-4.85,1.91-9.25,1.13-13.23-2.2
		C311.96,264.72,312.39,264.35,312.81,263.98z"/>
	<path class="st2" d="M512.95,257.69c-4.35,1.25-6.5-1.21-8.64-4.8C509.44,251.13,509.93,256.72,512.95,257.69z"/>
	<path class="st0" d="M377,87.32c-0.78,2.78-0.77,6.06-4.46,6.98c-0.76-0.06-1.49-0.16-1.75-1.05c0.07-1.75,0.38-3.43,1.46-4.88
		C373.62,87.06,375.25,86.94,377,87.32z"/>
	<path class="st2" d="M407.9,156.2c-2.03,1.76-4.77,1.82-7.04,2.99c-2.18-0.48-3.48-1.84-3.95-4.01c3.36,0,6.72,0.01,10.07,0.01
		C407.28,155.53,407.59,155.86,407.9,156.2z"/>
	<path class="st1" d="M361.6,157.19c-2.74-3.35-2.96-6.42,1.01-9.02C364.67,151.44,363.79,154.39,361.6,157.19z"/>
	<path class="st3" d="M447.96,256.23c-2.35-0.96-5.16-1.23-6.17-4.17c2.09-0.99,4.31-1.79,6.26-0.05
		C449.36,253.19,449.38,254.85,447.96,256.23z"/>
	<path class="st4" d="M291.89,263.27c2.43-1.38,4.95-1.87,7.63-0.81c0.49,1.3,0.72,2.48-0.99,3.12
		C295.66,266.65,293.63,265.4,291.89,263.27z"/>
	<path class="st4" d="M174.84,267.09c0.03-0.98,0.06-1.95,0.09-2.93l-0.07,0.07c0.25-0.29,0.5-0.59,0.75-0.88
		c1.48-0.01,2.95-0.01,4.43-0.02c1.93,2.12,5.3-0.24,7.11,2.26c-2.62,0.4-5.89-2.61-7.8,1.49c-0.79,0.68-1.58,1.35-2.37,2.03
		C176.27,268.44,175.56,267.76,174.84,267.09z"/>
	<path class="st3" d="M263.93,280.35c-1.05,0.91-2.11,1.82-3.16,2.73c-1.24-0.02-2.47-0.03-3.71-0.05
		C257.2,277.13,257.2,277.13,263.93,280.35z"/>
	<path class="st1" d="M483.77,254.38c0.04,0.54,0.08,1.07,0.12,1.61c-3.03,0.19-5.7-0.51-8.24-3.27
		C479.07,251.67,481.38,253.23,483.77,254.38z"/>
	<path class="st3" d="M386.88,107c-0.33,4.49-4,4.43-7.07,5.18C380.89,108.71,384.03,108.05,386.88,107z"/>
	<path class="st3" d="M477.78,259.17c-3.29,0-6.58,0-9.87,0c0,0-0.01,0-0.01,0c-0.37-0.24-0.73-0.49-1.1-0.73
		C469.27,256.14,473.3,256.41,477.78,259.17z"/>
	<path class="st3" d="M215.68,262.31c-6.41,1.22-12.82,1.5-19.23-0.03C202.86,262.29,209.27,262.3,215.68,262.31z"/>
	<path class="st1" d="M415.05,108.96c0.32-2.11,1.67-3.17,3.64-3.63c0.31,1.33,1.46,2.7,0.21,4.02
		C417.54,110.81,416.3,109.51,415.05,108.96z"/>
	<path class="st3" d="M354.91,218.25c-0.06-2.35,0.3-4.46,3.07-5.13C360.05,216.69,358.19,217.9,354.91,218.25z"/>
	<path class="st1" d="M413.87,98.16c-2.36-1.65-5.73-2.29-6.01-6.02C410.7,93.31,413.38,94.64,413.87,98.16z"/>
	<path class="st3" d="M196.42,262.29c-2.84,1.51-5.87,0.82-8.85,0.76C190.35,260.66,193.46,262.34,196.42,262.29z"/>
	<path class="st4" d="M174.93,264.16c-2.18-0.01-4.35-0.02-6.53-0.04c2.18-0.81,4.43-1.03,6.73-0.79c-0.07,0.3-0.16,0.6-0.27,0.89
		L174.93,264.16z"/>
	<path class="st2" d="M466.8,258.44c0.37,0.24,0.74,0.49,1.1,0.73C467.54,258.93,467.17,258.68,466.8,258.44z"/>
	<path class="st0" d="M174.86,264.23c0.12-0.29,0.21-0.58,0.27-0.89c0.16-0.09,0.32-0.09,0.48,0.01
		C175.37,263.64,175.12,263.94,174.86,264.23z"/>
	<path class="st5" d="M520.95,232.72c-0.64-1.55-2.06-1.49-3.38-1.66c-2.29-2.61-5.25-3.22-8.44-2.43
		c-3.84,0.96-7.42,0.54-10.86-1.32c-1.6-0.04-3.2-0.09-4.8-0.13c-5.56-0.99-9.81-5.36-15.49-6.03c-2.34,0.26-3.96,1.27-4.09,3.87
		c-2.04,0.03-4.07,0.06-6.11,0.09c-1.95,0.26-2.66,1.52-2.66,3.34c-0.29,0.83-0.58,1.67-0.87,2.5c-0.45,0.06-0.91,0.12-1.36,0.18
		c-5.75-7.3-5.32-9.58,2.72-14.34c1-0.59,2-1.15,2.26-2.41c2.04-0.37,4.07-0.74,6.11-1.11c3.34-0.36,6.69-0.72,10.03-1.07
		c7.28,1.24,14.55,0.67,21.81-0.15c11.58-0.65,23.16-1.31,34.74-1.96c0.02,7.09,0.04,14.18,0.06,21.27c-1.77-1.2-3.54-2.4-5.31-3.6
		c-6.03-4.08-9.46-2.77-11.43,4.39C522.9,232.33,521.93,232.52,520.95,232.72z"/>
	<path class="st4" d="M332.6,276.69c3.52-2.33,7.86-0.63,11.5-2.36c5.23,3.47,10.83,3.9,16.7,1.97c3.89,2.3,7.77-0.15,11.67-0.02
		c11.26,0.37,22.53,0.61,33.8,0.93c2.14,0.06,4.39,0.63,5.67-1.86c1.46,0.18,1.81,1.32,1.84,2.47c0.07,2.86,1.94,3.42,4.24,3.53
		c-3.55,1.86-6.63-0.27-9.96-0.96c-9.48-1.94-19.18-2.41-28.77-1.94c-14.44,0.7-28.87,0.88-43.3,1.02
		C334.85,278.55,333.73,277.62,332.6,276.69z"/>
	<path class="st2" d="M418.02,281.35c-2.3-0.11-4.16-0.67-4.24-3.53c-0.03-1.15-0.38-2.28-1.84-2.47c-1.39-0.3-2.9-0.36-4.13-0.97
		c-1.94-0.96-1.23-1.8,0.45-2.25c4.91-0.49,9.8,2.08,14.72,0.09c1.29-1.27,1.12-2.63,0.25-4.03c-0.09-0.33-0.01-0.62,0.24-0.86
		c0.73,0.32,1.45,0.63,2.17,0.95c1.05,1.18,0.41,3.66,2.29,3.89c1.45,0.18,1.77-1.61,2.04-2.9c7.99,4.14,7.99,4.14,1.12,9.55
		C427.34,282.83,422.26,279.88,418.02,281.35z"/>
	<path class="st5" d="M247.82,296.84c-1.38-2.05-3.98-1.25-5.72-2.46c18.43-1.45,36.86-1.87,55.29-0.17
		c-2.77,1.6-6.27,0.74-8.94,2.69C274.91,296.88,261.36,296.86,247.82,296.84z"/>
	<path class="st2" d="M288.45,296.9c2.66-1.95,6.17-1.1,8.94-2.69c17.91-1.6,35.71,0.84,53.57,1.87
		C330.14,297.43,309.29,296.89,288.45,296.9z"/>
	<path class="st4" d="M399.93,294.22c0.44-2.85,1.83-5.24,3.87-7.17c1.28-1.21,3.17-1.49,4.45-0.16c1.21,1.25-0.19,2.42-1.02,3.33
		c-1.96,2.17-3.84,4.62-7.35,3.94L399.93,294.22z"/>
	<path class="st2" d="M456.87,279.03c-0.36-0.64-1.39-1.58,0.22-1.72c3.78-0.31,7.59-0.4,11.39-0.54c0.88-0.03,1.69,0.28,1.84,1.26
		c0.19,1.25-0.92,1.61-1.71,2.16C464.62,280.46,460.76,279.59,456.87,279.03z"/>
	<path class="st3" d="M332.6,276.69c1.13,0.93,2.25,1.86,3.38,2.79c-2.2,2.83-4.93,2.98-7.97,1.61c-1.35-2.44-1.06-4.19,2-4.79
		C330.88,276.43,331.74,276.56,332.6,276.69z"/>
	<path class="st3" d="M303.01,282.05c2.05-3.23,5.36-1.28,8.03-1.95c1.67,0.47,2.12,1.49,0.19,1.8
		C308.55,282.32,305.76,282.03,303.01,282.05z"/>
	<path class="st4" d="M327.13,286.63c-0.4,1.31-1.47,1.7-2.67,1.82c-0.7,0.07-1.5-0.2-1.34-1c0.3-1.47,1.41-2.19,2.9-2.15
		C326.77,285.32,327.16,285.85,327.13,286.63z"/>
	<polygon class="st4" points="399.88,294.16 399.64,294.37 399.93,294.22 	"/>
	<path class="st4" d="M329.94,69.45c-6.53-5.64-14.54-9.72-18.69-17.91c-0.81-1.61-1.72-0.34-2.64,0.43
		c-1.89,1.58-3.94,2.32-5.84-0.09c1.88-3.81,7.11-5.62,6.51-10.94c-0.03-0.24,0.79-0.87,0.97-0.78c0.55,0.26,1.3,0.7,1.42,1.2
		c0.42,1.77,0.61,3.59,0.89,5.4c0.32,2.13,1.17,4.3,3.55,4.08c3.8-0.34,4.75,1.86,5.65,4.75c1.06,3.39,3.17,6.2,5.63,8.75
		C328.77,65.78,330.36,67.12,329.94,69.45z"/>
	<path class="st4" d="M367.05,134.43c-3.41-4.51-2.19-10.33-4.31-15.21c5.15,0.28,8.65,2.21,8.37,8.15
		c-0.04,0.91,0.62,1.86,0.96,2.79C370.96,132.24,368.91,133.22,367.05,134.43z"/>
	<path class="st1" d="M377,87.32c-1.75-0.38-3.38-0.26-4.75,1.05c-1.57-4.19,1.38-7.83,1.45-11.82c2.93-2.68,5.46-3.76,6.4,1.57
		c-2.25,3.18-0.34,6.91-1.33,10.26C378.18,88.03,377.59,87.68,377,87.32z"/>
	<path class="st3" d="M376.88,123.69c0.31,2.78,3.93,4.26,2.9,7.61c-0.59,1.93-0.94,4.38-3.31,4.42c-2.93,0.05-2.29-2.64-2.46-4.53
		c-0.06-0.66-0.06-1.33-0.09-1.99C374.91,127.35,375.89,125.52,376.88,123.69z"/>
	<path class="st5" d="M378.77,88.38c0.99-3.35-0.92-7.08,1.33-10.26c1.11,1.15,0.59,2.64,0.9,3.96c0.28,3.42,0.58,6.85,0.85,10.27
		c0.17,2.18-0.63,3.85-2.74,4.73C379,94.18,378.89,91.28,378.77,88.38z"/>
	<path class="st3" d="M388.24,82.28c-4.35,6.68-3.46-1.2-5.17-1.86c0.24-1.74-1.33-4.52,1.27-4.94c2.76-0.44,2.93,2.34,3.2,4.48
		C387.64,80.75,388,81.51,388.24,82.28z"/>
	<path class="st3" d="M352.97,74.25c-0.04,1.91-0.34,3.6-1.52,3.45c-2.29-0.29-3.72-2.17-4.21-4.36c-0.3-1.35,0.89-2.24,2.2-1.94
		C351.25,71.8,352.93,72.64,352.97,74.25z"/>
	<path class="st3" d="M403.96,131.87c0.08-2.1,1.01-3.47,3.24-3.54c1.55-0.05,2.6,0.76,2.41,2.38c-0.25,2.04-1.04,3.99-3.41,4.21
		C404.11,135.11,403.98,133.42,403.96,131.87z"/>
	<path class="st3" d="M393.78,125.81c-0.11,1.88-1.03,3.09-2.98,3.26c-1.23,0.11-2.53-0.2-2.37-1.73c0.21-2.05,1.77-3.09,3.66-3.43
		C393.41,123.67,393.66,124.76,393.78,125.81z"/>
	<path class="st5" d="M291.66,72.85c-0.55,0.18-1.1,0.35-1.66,0.53c-3.16-1.16-4.99-3.26-4.8-6.78c1.54,0.04,3.06,0.77,4.61,0.08
		C293.04,67.95,293.09,70.18,291.66,72.85z"/>
	<path class="st4" d="M116.94,280.34c0.52-1.74-3.65-4.38,1.03-5.32c5.67-0.14,11.26,0.07,16.95,0.81
		c4.21,0.55,8.94,2.35,13.19-0.53c6.08,1.93,12.16,3.86,18.23,5.78c-4.51-0.3-8.7,0.68-12.53,3.12c-2.26-4.07-5.21-2.68-8.19-1.04
		c-1.22-1.61-2.51,0.3-3.75-0.08c-3.44-5.43-8.11-1.93-12.33-1.7c-1.26-1.41-1.71,0.62-2.65,0.62c-0.06-2.08-1.09-3.25-3.14-2.48
		C121.5,280.36,119.19,279.97,116.94,280.34z"/>
	<path class="st1" d="M174.84,267.09c0.72,0.68,1.43,1.35,2.15,2.03c0.09,3.35,2.54,1.75,3.97,1.72c8.01-0.14,15.8-1.7,23.49-3.86
		c1.85,0.76,3.7,1.52,5.54,2.29c1.18,5.24-2.88,4.03-5.19,3.72c-8.95-1.19-17.85,0.94-26.78,0.14c-1.33-0.12-3.01-0.4-4.37,1.2
		c1.5,1.01,2.95,1.98,4.4,2.95c-0.09,0.26-0.19,0.53-0.28,0.79c-2.67-0.01-4.74,1.86-7.25,2.34c-0.16-3.52,0.29-7.28-3.69-9.27
		c1.73-1.3,3.46-2.59,5.2-3.89C172.97,267.2,173.9,267.14,174.84,267.09z"/>
	<path class="st2" d="M166.84,271.14c3.98,1.99,3.53,5.75,3.69,9.27c-1.26,1.1-2.8,0.45-4.19,0.67c-6.08-1.93-12.15-3.86-18.23-5.78
		c-2.76-0.83-6.26,0.44-8.11-2.91c4.35-1.7,8.75,0.07,13.13-0.16C157.71,271.98,162.33,272.38,166.84,271.14z"/>
	<path class="st3" d="M145.62,283.15c2.98-1.64,5.93-3.03,8.19,1.04c-2.14,0.85-4.27,1.73-6.42,2.55c-1.26,0.48-2.84,1-3.66-0.27
		C142.54,284.6,144.61,284.07,145.62,283.15z"/>
	<path class="st4" d="M138.86,288.01c-4.37,2.83-8,2.16-12.45,1.8C130.36,286.06,133.95,285.87,138.86,288.01z"/>
	<path class="st3" d="M129.54,281.37c4.22-0.23,8.89-3.73,12.33,1.7C137.68,283.1,133.28,284.66,129.54,281.37z"/>
	<path class="st1" d="M116.94,280.34c2.26-0.37,4.57,0.02,6.82-0.83c2.05-0.77,3.08,0.4,3.14,2.48c-3.37,0.66-6.63,0.24-9.82-0.95
		C117.03,280.81,116.98,280.57,116.94,280.34z"/>
	<path class="st1" d="M266.24,159.45c-0.82-3.51-0.12-6.85,1.12-10.14c1.63-4.33,2.99-8.69,2.6-13.44
		c-0.26-3.07,0.89-5.48,3.93-6.69c2.19,1.65,3.97,3.76,3.91,6.54C277.59,145.36,274.91,153.89,266.24,159.45z"/>
	<path class="st2" d="M352.64,209.74c0,1.02-0.28,1.94-1.22,1.93c-1.35-0.02-1.84-1.18-2.05-2.34c-0.17-0.92,0.28-1.72,1.21-1.73
		C351.96,207.6,352.46,208.66,352.64,209.74z"/>
	<path class="st3" d="M275.83,62.24c0.04-2,0.13-4,0.1-6c-0.04-2.1,0.06-4.39-3.27-2.7c-1.64,0.83-3,0.19-3.4-1.67
		c-0.4-1.84,0.8-2.82,2.35-3.27c3.54-1.03,6.58-0.33,8.85,2.79c2.08,2.86,1.86,5.56-0.52,8.12c-0.91,0.98-1.87,1.92-2.07,3.34
		C277.19,62.64,276.51,62.44,275.83,62.24z"/>
	<path class="st4" d="M422.98,272.22c-4.92,1.99-9.81-0.58-14.72-0.09c-7.72-0.89-15.46-1.78-23.19-2.66
		c-1.17-2-3.12-2.26-5.17-2.33c0.78-1.57,1.16-3.19,0.59-4.92c7.34,1.7,14.76,0.9,22.16,0.72c2.71,0.07,4.91,1.74,7.44,2.36
		c3.89,3.92,8.49,1.66,12.85,1.5c0.22,0.13,0.39,0.31,0.51,0.53c-0.24,0.24-0.32,0.53-0.24,0.86
		C423.15,269.53,423.07,270.87,422.98,272.22z"/>
	<path class="st1" d="M425.65,268.28c-0.72-0.32-1.45-0.63-2.17-0.95c-0.12-0.23-0.29-0.4-0.51-0.53c-0.29-0.57-0.58-1.15-0.87-1.73
		c-1.87-1.39-4.54-1.04-6.23-2.83c1.32-0.03,2.65-0.07,3.97-0.1c1.41-0.03,2.83-0.06,4.24-0.09c1.3,0.06,2.59,0.11,3.89,0.17
		c0.64,1.23,1.98,1.47,3.03,2.11c0,0.91-0.01,1.81-0.01,2.72c-0.29,0.12-0.58,0.21-0.89,0.27
		C428.52,267.23,426.94,267.06,425.65,268.28z"/>
	<path class="st5" d="M427.96,262.22c-1.3-0.06-2.59-0.11-3.89-0.17c1-1.55,2.84-2.55,3.03-4.63c2.9,0.53,5.8,1.05,8.69,1.57
		c3.65-0.15,2.26,1.49,1.08,3.05C433.9,262.11,430.93,262.17,427.96,262.22z"/>
	<path class="st3" d="M401.76,251.34c0.04,0.86,0.07,1.73,0.11,2.59c-5.39-0.26-10.79-0.53-16.18-0.79
		C390.92,250.66,396.36,251.2,401.76,251.34z"/>
	<path class="st3" d="M415.86,262.25c1.69,1.79,4.36,1.43,6.23,2.83c-4,0.07-7.99,0.15-11.98,0.22c-2.53-0.63-4.73-2.3-7.44-2.36
		c0.47-0.32,0.94-0.64,1.41-0.96C408.01,262.06,411.94,262.15,415.86,262.25z"/>
	<path class="st5" d="M415.86,262.25c-3.93-0.09-7.86-0.19-11.78-0.28c5.26-1.08,10.54-3.26,15.75,0.18
		C418.51,262.18,417.19,262.21,415.86,262.25z"/>
	<path class="st0" d="M380.51,262.21c0.56,1.73,0.19,3.35-0.6,4.92c-0.62,0.06-1.25,0.11-1.87,0.17c-1.4-1.55-1.39-3.2-0.37-4.93
		C378.62,262.32,379.57,262.27,380.51,262.21z"/>
	<path class="st0" d="M36.2,277.45c5.55-0.04,11.1-0.08,16.64-0.11C47.33,282.62,41.76,279.12,36.2,277.45z"/>
	<path class="st1" d="M86.5,286.01c-1.7,0.1-3.39,0.2-5.09,0.31c-1.26-0.31-2.79-0.17-3.24-1.89c2.11-1.4,4.55-1.87,6.96-1.95
		C88.22,282.39,88.46,283.89,86.5,286.01z"/>
	<path class="st1" d="M98.94,281.18c2.43-0.83,4.84-1.7,7.28-2.48c0.85-0.27,2.11-0.86,2.48,0.32c0.23,0.71-0.57,1.74-0.9,2.63
		C104.93,279.93,101.79,283.36,98.94,281.18z"/>
	<path class="st3" d="M503.71,279.37c-4.37-2.28-9.16-2.72-13.94-3.24c0.34-2.76-0.94-5.18-1.6-7.73c-0.64-2.47,0.16-4.03,2.98-3.59
		C496.28,265.6,503.45,273.99,503.71,279.37z"/>
	<path class="st5" d="M481.21,271.18c-1.44,2.07-2.89,2.51-4.36,0.03C478.31,271.2,479.76,271.19,481.21,271.18z"/>
	<path class="st4" d="M210,269.26c-1.85-0.76-3.69-1.52-5.54-2.29c2.91-1.21,5.96-0.65,8.96-0.7
		C213.19,268.31,211.94,269.18,210,269.26z"/>
	<path class="st2" d="M179.36,267.09c1.91-4.1,5.18-1.09,7.8-1.49C185.15,269.19,181.89,266.21,179.36,267.09z"/>
	<path class="st2" d="M360.8,276.3c-5.87,1.93-11.46,1.5-16.7-1.97c0,0-0.17,0.07-0.17,0.07c1.28-0.04,2.5-0.26,3.52-1.12
		c4.71-1.35,8.82-4.67,14.06-4.22c2.08,2.5,4.56,2.52,7.26,1.19c3.66,0.2,7.22,0.97,10.71,2.12c-0.04,0.21-0.04,0.42,0.02,0.62
		c-5.64,0.4-11.28,0.78-16.92,1.2C360.92,274.31,360.93,274.36,360.8,276.3z"/>
	<path class="st4" d="M347.45,273.27c-1.02,0.86-2.24,1.08-3.52,1.12C344.84,273.18,346.12,273.15,347.45,273.27z"/>
	<path class="st0" d="M473.98,213.26c-2.04,0.37-4.07,0.74-6.11,1.11c-1.33-0.24-2.66-0.48-3.99-0.71
		C467.17,211.42,470.47,209.73,473.98,213.26z"/>
	<path class="st1" d="M139.99,272.38c1.85,3.35,5.36,2.09,8.11,2.91c-4.25,2.89-8.98,1.08-13.19,0.53
		c-5.68-0.74-11.28-0.95-16.95-0.81c-0.64-0.58-1.29-1.16-1.93-1.75C123.96,271.36,131.99,272.35,139.99,272.38z"/>
	<path class="st4" d="M505.82,212.04c-7.27,0.82-14.53,1.39-21.81,0.15c2.15-2.55,5.13-1.97,7.9-2.01
		c4.33-0.07,8.65-0.06,12.98-0.03C506.31,210.15,507.42,210.47,505.82,212.04z"/>
	<path class="st0" d="M214.2,280.32c-2.99,2.21-5.14,1.06-7.29-0.12C209.21,278.69,211.37,279.71,214.2,280.32z"/>
	<path class="st2" d="M430.98,267.06c0-0.91,0.01-1.81,0.01-2.72c1.83-0.04,3.66-0.11,5.49-0.11c1.4,0,2.96,0.25,2.84,2
		c-0.15,2.1-1.89,1.95-3.43,1.7C434.25,267.68,432.62,267.35,430.98,267.06z"/>
	<path class="st3" d="M425.65,268.28c1.29-1.22,2.87-1.05,4.45-0.95c-0.04,0.65-0.08,1.3-0.12,1.95c-0.27,1.29-0.58,3.08-2.04,2.9
		C426.06,271.94,426.69,269.46,425.65,268.28z"/>
	<path class="st0" d="M477.98,221.15c5.68,0.67,9.93,5.04,15.5,6.03c0.79,1.2,1.58,2.4,2.37,3.6c-1.47,1.86-2.72,3.65-0.86,6.1
		c0.74,0.97-0.43,1.24-1.24,1.38c-4.5-4.03-9-8.07-13.5-12.1C478.76,224.81,477.23,223.5,477.98,221.15z"/>
	<path class="st3" d="M464.25,230.94c0.29-0.83,0.58-1.67,0.87-2.5c1.66-0.5,2.47-1.67,2.66-3.34c2.04-0.03,4.07-0.06,6.11-0.09
		c3.14,6.46,2.49,8.46-3,9.16C468.46,233.55,466.11,232.76,464.25,230.94z"/>
	<path class="st2" d="M495.85,230.78c-0.79-1.2-1.58-2.4-2.37-3.6c1.6,0.04,3.2,0.09,4.79,0.13c0.92,1.82,2.13,3.32,3.96,4.35
		c2.11,1.19,2.82,3.17,2.66,5.52C501.29,235.88,499.08,232.6,495.85,230.78z"/>
	<path class="st3" d="M379.5,272.98c-0.06-0.21-0.06-0.41-0.02-0.62c1.74-2.15,0.46-3.13-1.5-3.84c0.02-0.41,0.04-0.82,0.06-1.22
		c0.62-0.06,1.25-0.11,1.87-0.17c2.04,0.07,3.99,0.34,5.17,2.33C386.5,275.82,381.54,272.1,379.5,272.98z"/>
	<path class="st0" d="M377.99,268.53c1.96,0.71,3.24,1.68,1.5,3.84c-3.49-1.16-7.05-1.92-10.71-2.12
		C371.55,268.05,375.06,269.84,377.99,268.53z"/>
	<path class="st2" d="M467.78,225.11c-0.19,1.66-1,2.84-2.66,3.34C465.13,226.63,465.83,225.37,467.78,225.11z"/>
	<path class="st0" d="M379.5,272.98c2.04-0.89,6.99,2.84,5.58-3.52c7.73,0.89,15.46,1.78,23.19,2.66c-1.69,0.45-2.39,1.29-0.46,2.25
		c1.23,0.61,2.74,0.67,4.13,0.97c-1.28,2.5-3.53,1.93-5.67,1.87c-11.27-0.33-22.53-0.56-33.8-0.93c-3.89-0.13-7.78,2.32-11.67,0.02
		c0.13-1.94,0.12-1.99,1.78-2.11C368.22,273.77,373.86,273.38,379.5,272.98z"/>
	<path class="st1" d="M422.98,272.22c0.08-1.34,0.17-2.69,0.25-4.03C424.11,269.59,424.28,270.95,422.98,272.22z"/>
	<path class="st0" d="M410.11,265.3c3.99-0.07,7.99-0.15,11.98-0.22c0.29,0.58,0.58,1.16,0.87,1.73
		C418.6,266.96,413.99,269.22,410.11,265.3z"/>
</g>
<g>
</g>
<g>
</g>
<g>
</g>
<g>
</g>
<g>
</g>
<g>
</g>
<g>
</g>
<g>
</g>
<g>
</g>
<g>
</g>
<g>
</g>
<g>
</g>
<g>
</g>
<g>
</g>
<g>
</g>
</svg>
