<?xml version="1.0" encoding="utf-8"?>
<!-- Generator: Adobe Illustrator 17.1.0, SVG Export Plug-In . SVG Version: 6.00 Build 0)  -->
<!DOCTYPE svg PUBLIC "-//W3C//DTD SVG 1.1//EN" "http://www.w3.org/Graphics/SVG/1.1/DTD/svg11.dtd">
<svg version="1.1" id="Layer_1" xmlns="http://www.w3.org/2000/svg" xmlns:xlink="http://www.w3.org/1999/xlink" x="0px" y="0px"
	 viewBox="0 0 802.15 343.2" style="enable-background:new 0 0 802.15 343.2;" xml:space="preserve">
<style type="text/css">
	.st0{fill:#FEF1F2;}
	.st1{fill:#3E0001;}
	.st2{fill:#FE3231;}
	.st3{fill:#F30102;}
	.st4{fill:#B10000;}
	.st5{fill:#760000;}
</style>
<g>
	<path class="st0" d="M779.98,94.66c-4.61-11.07-9.22-22.14-13.7-33.27c-2.22-5.5-6.05-2.02-9.2-2.46
		c-9.31,0.17-18.59,0.63-27.79-1.71c-3.67-0.93-7.61-0.34-11.39,0.56c-9.22,2.19-18.39,1.31-27.75,0.38
		c-8.43-0.84-17.03-2.03-25.62-0.54c-7.79,1.35-15.58,1.15-23.32-0.58c-3.35-0.75-5.68-2.04-7.12-5.81
		c-2.29-6-5.68-11.58-8.76-17.26c-1.12-2.06-2.22-4.03-2.7-6.37c-0.71-3.46-0.01-5.58,4.03-5.55c1.84,0.01,3.77-0.26,4.51-2.37
		c0.7-1.99-0.27-3.54-1.62-4.9c-1.75-1.77-3.43-3.62-5.3-5.26c-0.9-0.79-2.2-0.85-3.24-0.03c-0.99,0.78-0.63,1.71-0.15,2.67
		c0.55,1.09,1.83,2.43-0.41,3.11c-1.96,0.59-3.38-0.33-3.78-2.21c-0.88-4.11-3.57-5.32-7.35-4.92c-2.9,0.3-4.11,1.5-2.98,4.68
		c2.85,7.97,2.04,9.97-3.96,15.73c-2.68,2.58-5.22,3.22-8.96,3.73c-10.48,1.43-20.92,0.31-31.35,1.01c-1.51,0.1-3.42-0.02-3.1,2.15
		c0.29,1.96,2.16,1.73,3.66,1.49c9.11-1.45,18.33-0.88,27.42-0.51c4.94,0.2,11.71-0.23,13.27,7.49c0.39,1.93,2.46,3.1,4.26,4.01
		c3.81,1.93,2.69,4.26,1.3,7.39c-1.61,3.64-3.14,1.55-5.27,1.02c-8.15-2.03-16.55-2.07-24.74-0.81c-14.6,2.24-29.16,1.94-43.78,0.8
		c-1.8-0.14-3.64,0.02-5.46,0.17c-0.98,0.08-2.06,0.81-2.9,0.57c-12.92-3.67-25.86,2.32-38.79-0.07c-1.94-0.36-3.87-0.31-5.74-1.29
		c-3.43-1.79-7.01-2.14-10.42,0.13c-2.42,1.61-4.72,1.29-6.98-0.24c-2.63-1.78-5.31-1.82-7.99-0.24c-4.1,2.41-8.27,2.33-12.41,0.32
		c-3.89-1.89-7.56-2.03-11.39,0.23c-2.03,1.2-4.46,1.21-6.82,1.21c-20.15,0.04-40.3,0.11-60.46,0.14c-2.15,0-4.36,0.17-6.4-0.75
		c-3.52-1.59-6.96-2.15-10.43,0.2c-0.64,0.43-1.71,0.73-2.39,0.5c-7.87-2.59-15.92,1.07-23.52-0.37c-7.29-1.38-14.5-1.3-21.74-1.89
		c-5.25-0.43-10.17,1.3-15.24,2.06c-14.79,2.23-29.5,1.11-44.12-1.78c-1.49,1.03-3.25,0.6-4.88,0.9c-0.99,2.53-3.07,2-5.03,1.8
		c-0.65,0.01-1.29,0.02-1.94,0.02c-8.28,0.37-16.57,0.78-24.85,1.08c-1.75,0.06-3.66,0.63-5.22-0.78
		c-7.71-2.74-15.33-1.38-22.95,0.46c-12.69,0.35-25.38,1.11-38.07,0.18c-0.92,0.1-1.54-0.28-1.84-1.16
		c-0.34-0.22-0.67-0.44-1.01-0.66c-5.11-4.36-5.11-4.36,0.14-8.19c5.37-3.91,5.56-5.42,1.46-10.76c-1.61-2.1-3.11-4.28-4.77-6.33
		c-0.9-1.11-0.84-2.03-0.02-3.09c1.11-1.42,1.62-0.14,2.63,0.24c2.87,1.07,5.73,0.17,8.45-1.19c5.66-2.82,11.42-5.31,17.99-4.57
		c8.02,0.05,16.04,0.09,24.06,0.14c1.25-0.56,3.72,0.39,3.62-1.64c-0.12-2.43-2.52-1.28-3.99-1.39c-10.58-0.78-21.25,0.85-31.8-1.16
		c-3.02-0.58-5.75,0.77-7.5,3.01c-2.28,2.92-4.49,2.94-7.24,1.05c-2.88-1.98-4.46-4.45-3.1-8.05c0.17-0.46,0.44-0.89,0.68-1.32
		c1.17-2.14,4.29-4.61,0.16-6.39c-3.26-1.41-6.85-0.71-8.28,3.17c-1.28,3.46-3.38,5.61-6.93,6.39c-1.41,0.31-2.86,0.19-3.24-1.42
		c-0.33-1.39,0.96-1.93,2.06-2.38c1.37-0.56,4.1-0.14,3.28-2.57c-0.89-2.63-3.34-1.31-5.18-0.77c-2.74,0.8-4.42,2.85-5.73,5.24
		c-2.52,4.59-1.2,7.63,4.03,7.83c5.24,0.2,4.62,2.62,3.45,6.13c-3.26,9.71-9.59,17.76-14.33,26.66c-1.71,3.21-5.02,5.33-8.82,4.29
		c-7.84-2.15-15.59-2.15-23.41-0.22c-1-0.57-0.54-1.17-0.03-1.76c-0.07-0.56-0.15-1.12-0.22-1.68c-4.49-1.27-5.64-3.27-4.02-7.99
		c1.53-4.47,3.43-8.82,5.17-13.22c0.7-1.68,1.46-3.34,2.08-5.05c1.23-3.42,3.65-3.81,6.32-2.13c2.73,1.73,4.79,1.26,7.19-0.61
		c3.79-2.95,9.28-3.8,10.46-9.82c0.68-3.45-0.74-4.22-3.48-4.35c-4.46-0.22-8.7,3.18-9.98,8.21c-0.56,2.21-0.87,4.9-3.88,3.37
		c-1.89-0.96-4.61-2.53-2.34-5.87c1.61-2.37,1.83-5.54,5.31-6.73c2.14-0.73,1.95-3.38,1.53-5.32c-0.49-2.25-2.56-1.58-4.14-1.73
		c-3.88-0.37-7.02,0.48-8.05,5.31c-2.29-3.28-5.09-4.58-8.74-4.15c-2.62,0.31-3.52,1.89-4.26,4.16c-1.07,3.32,1.68,4.77,3.08,6.72
		c1.43,1.99,3.2,0.42,4.79-0.51c1.71-1.01,3.62-4.07,5.35-1.96c1.82,2.23,0.07,5.29-2.24,6.8c-2.07,1.36-5,6.7-6.82-0.4
		c-0.25-0.96-1.1-0.62-1.59-0.26c-2.07,1.51-4.91,2.57-3.37,6.17c1.22,2.85,2.43,3.84,5.58,1.87c3.11-1.95,4.53,0.59,3.82,3.19
		c-1.82,6.71-3.35,13.6-7.26,19.54c-3.7,5.62-9.33,7.14-15.63,7.01c-1.83-0.04-3.65-0.24-5.47-0.37
		c-8.69,2.93-17.39,4.97-26.39,1.06c-1.32-0.57-2.96-0.44-4.28,0.5c-2.51,1.78-5.38,1.18-8.15,1.37c-0.95,0.07-1.67-0.02-2.19-0.31
		c-0.63,0.15-1.27,0.29-1.9,0.43c0,37.95,0,75.9,0,113.85c0.31,0.02,0.62,0,0.93-0.05c0.08-2.31,0.17-4.63,0.25-6.94
		c0-3.04-0.01-6.08-0.01-9.12c0-8.96,0-17.92,0-26.88c-0.38-1.45,0.17-2.05,1.66-2.01c3.04,0.1,6.08,0.12,9.12,0.17
		c1.01,0,2.03,0,3.04,0c10.34,0,20.68,0,31.02,0.01c4.32,0,8.65,0,12.97-0.01c14.42-0.09,28.82-0.55,43.27,0.41
		c10.04,0.67,20.2-0.64,30.31-0.91c7.78-0.21,15.57-0.17,23.35-0.24c10.81-0.75,21.63-0.41,32.45-0.44
		c45.48-0.14,90.95-0.34,136.43-0.53c43.81-0.19,87.62-0.37,131.43-0.61c54.97-0.3,109.94-0.24,164.9-1.12
		c45.31-0.72,90.61-0.38,135.92-0.86c0.66-0.01,1.32,0.13,1.98,0.2c7.62-0.08,15.25-0.15,22.87-0.22c-0.05-0.09-0.1-0.18-0.15-0.28
		C777.81,117.08,779.51,105.88,779.98,94.66z M126.01,52.3c-0.78,0.79-1.03,1.69-0.38,2.66c3.22,4.78,0.51,5.27-3.17,4.76
		c-2.74,0.78-4.87,0.05-6.95-1.15c-3.18-1.84-3.63-4.48-1.34-6.99c3.36-3.67,6.76-7.2,9.05-11.72c1.05-2.07,3.02-2.33,5.03-0.7
		c1.01,0.82,2.2,1.44,3.37,2.02c2.69,1.32,3.76,2.54,0.66,4.87C129.95,47.79,128.09,50.19,126.01,52.3z M629,57.05
		c-1.42,1.48-2.91,0.26-4.39,0.26c-7.86,0.02-7.58-7.93-11.76-11.46c-3.77-3.19-3.43-5.34,0.42-8.54c0.61-0.51,1.33-0.89,1.77-1.18
		c1.65,0.17,2.32,1.19,3.14,1.98c4.47,4.3,7.74,9.47,10.75,14.83C629.67,54.26,630.32,55.68,629,57.05z"/>
	<path class="st0" d="M790.19,119.38c-3.36-8.26-6.78-16.49-10.21-24.72c-0.47,11.22-2.17,22.42,1.79,31
		c0.05,0.09,0.1,0.18,0.15,0.28c1.19-0.01,2.39-0.03,3.58-0.03C791.53,125.86,792.44,124.92,790.19,119.38z"/>
	<path class="st1" d="M10.03,343.1c-2.83,0-5.68-0.18-8.49,0.06c-2.06,0.18-1.43-1.08-1.51-2.06c1.13-0.15,1.07-1.03,1.07-1.82
		c-0.06-6.2-0.14-12.39-0.22-18.59c0.11-14.54,0.22-29.07,0.33-43.61c16.3-0.02,32.59-0.04,48.89-0.06
		c12.96,0.3,25.89,1.39,38.87,1.04c7.37-0.2,8.19,0.98,6.53,8.12c-3.57,15.34-7.01,30.72-10.8,46.01c-1.03,4.16-0.38,5.98,4.18,5.86
		c29.6-0.81,59.12,2.24,88.71,2.06c1.95-0.01,4.1-0.43,5.31,1.8c-8.49,0.06-16.97,0.17-25.46,0.16
		c-33.79-0.03-67.58-0.1-101.37-0.16c4.07-3.78,0.71-5.05-2.24-5.89c-2.76-0.79-3.92-1.73-4.19-5.01c-0.37-4.56,1.24-8.92,0.7-13.39
		c-1.48-0.22-1.94,0.74-2.34,1.62c-3.24,7.09-3.92,15.36-9.83,21.24c-0.25,0.25-0.03,0.96-0.03,1.46c-7.9,0.05-15.8,0.04-23.7,0.2
		C12.98,342.16,11.13,341.16,10.03,343.1z M56.07,303.06c-0.92,0.05-2.01-0.14-2.88,0.21c-2.12,0.84-5.86,0.76-4.82,4.22
		c0.72,2.39,3.92,2.71,6.29,2.04c1.29-0.37,2.15-1.01,3.51-0.06c1.48,1.03,3.25,1,4.33-0.71c1.17-1.85-0.54-3.02-1.39-4.35
		C59.87,302.45,57.86,303.31,56.07,303.06z"/>
	<path class="st1" d="M1.21,168.1c0-3.04-0.01-6.08-0.01-9.12c21.9-2.38,43.86,0.36,65.77-0.81c-1.83,5.31-3.21,10.5,2.61,14.51
		c0.55,0.38,0.36,1.87,0.45,2.85c0.42,4.41,4.22,6.26,8.03,3.79c1.08-0.7,1.9-1.84,2.75-2.85c1.61-1.92,3.64-2.14,5.01-0.27
		c1,1.37,4.05,3.44-0.18,5.3c-2.53,1.11-2.75,3.94-2.63,6.53c-5.26,1.66-10.67,2.51-16.15,1.95c-15.9-1.64-31.83-0.43-47.74-0.76
		c-5.97-0.06-11.94-0.12-17.91-0.18c-0.69-1.23,0.78-3.1-1.19-3.94c0-3.33,0-6.67,0-10c0.31,0.02,0.62,0,0.93-0.05
		c2.65,1.2,6.02,1.03,6.62-1.52c0.71-3.03-1.58-5.56-5.37-5.41C1.87,168.13,1.54,168.11,1.21,168.1z"/>
	<path class="st0" d="M800.86,155.96c-0.01,3.74-0.02,7.48-0.03,11.21c0.01,6.36,0.01,12.72,0.02,19.09
		c0,16.96-0.01,33.93-0.01,50.89c0.01,6.65,0.01,13.29,0.02,19.94c-0.01,2-0.01,3.99-0.02,5.99c0,11.68,0,23.37,0,35.05
		c0.01,3.32,0.01,6.64,0.02,9.96c-0.01,7.35-0.02,14.69-0.02,22.04c0.59,11.97,0.59,11.98-11.39,11.94c-1.49,0-2.98-0.1-4.48-0.16
		c-2.64,0-5.28,0-7.92,0.01c-2.39,0-4.78,0-7.17,0c-6,0-12.01,0-18.01-0.01c-0.49-0.01-0.97-0.01-1.46-0.02
		c-10.49,0.01-20.97,0.02-31.46,0.02c-3.02,0-6.03-0.01-9.05-0.01c-3.18,0.01-6.36,0.02-9.54,0.03
		c-30.49,0.05-60.98,0.14-91.47,0.14c-137.97,0.01-275.94,0.01-413.91,0c-1.66,0-3.33-0.1-4.99-0.15c-2.37,0-4.73-0.01-7.1-0.01
		c-8.49,0.06-16.97,0.17-25.46,0.16c-33.79-0.03-67.58-0.1-101.37-0.16c-5.98,0.01-11.96,0.01-17.94,0.02
		c-7.9,0.05-15.8,0.04-23.7,0.2c-1.46,0.03-3.3-0.97-4.4,0.96c262.4,0,524.8-0.01,787.2,0.1c3.94,0,4.93-0.62,4.92-4.8
		c-0.05-62.9-0.08-125.81-0.09-188.71c-0.4-0.31-0.8-0.62-1.19-0.94C800.87,151.16,800.87,153.56,800.86,155.96z"/>
	<path class="st0" d="M0.03,185.1c1.97,0.84,0.5,2.72,1.19,3.94c0,29.35-0.01,58.69-0.01,88.04c-0.11,14.54-0.22,29.07-0.33,43.6
		c-0.28-0.2-0.57-0.39-0.85-0.58C0.03,275.1,0.03,230.1,0.03,185.1z"/>
	<path class="st2" d="M0.03,320.1c0.28,0.19,0.57,0.38,0.85,0.58c0.07,6.2,0.16,12.4,0.22,18.6c0.01,0.79,0.06,1.67-1.07,1.82
		C0.03,334.1,0.03,327.1,0.03,320.1z"/>
	<path class="st2" d="M155.95,129.52c10.81-0.75,21.63-0.41,32.45-0.44c45.48-0.14,90.95-0.34,136.43-0.53
		c43.81-0.19,87.62-0.37,131.43-0.61c54.97-0.3,109.94-0.24,164.9-1.12c45.31-0.72,90.61-0.38,135.92-0.86
		c0.66-0.01,1.32,0.13,1.98,0.2c-0.23,7.41-2.3,9.57-9.83,9.92c-2.45,0.12-4.55,0.8-6.25,2.55c-7.11,7.28-14.03,14.8-24.25,17.86
		c-5.87,0.23-11.74,0.46-17.61,0.69c-1.62-0.22-3.23-0.61-4.85-0.63c-18.48-0.24-36.91,1.89-55.4,1.48
		c-3.46-0.08-6.39-2.23-10.04-1.69c-9.2,1.35-18.47,1.78-27.78,1.73c-12.15-0.07-24.3,0.04-36.45,0.1
		c-5.58,0.03-11.06,1.72-16.69,1.03c-4.24-0.01-8.49-0.03-12.73-0.04c-3.73,0.02-7.46,0.05-11.19,0.07
		c-3.91,0.02-7.83,0.04-11.74,0.06c-16.1-0.06-32.24,0.5-48.29-0.43c-8.76-0.51-19.7,0.5-22.02-12.44
		c-0.01-0.07-0.45-0.06-0.67-0.09c-0.84,2.92,0.37,5.6,0.75,8.37c0.41,3.02-0.37,4.57-3.92,4.5c-11.29-0.22-22.58-0.14-33.87-0.18
		c-0.96-2.63-2.75-3.16-5.11-1.92c-1.85,0.98-3.96,1.6-5.79,0.95c-8.31-2.98-17.18,2.17-25.4-1.85c-0.78-0.38-1.97-0.02-2.95,0.14
		c-5.36,0.86-10.67,1.6-16.16,0.86c-5.6-0.76-7.4-2.66-5.14-7.77c1.67-3.78,0.2-4.64-2.84-5.2c-1.44-0.27-2.71-1.38-4.32-0.79
		c-1.36,0.49-3.01,0.68-2.9-1.24c0.09-1.61,1.79-1.05,2.84-0.75c1.37,0.4,3.46,0.57,2.99-0.96c-0.61-1.97-2.5-3.85-4.31-5.07
		c-1.7-1.15-2.89,0.62-3.95,1.99c-6.65,8.63-17.11,9.22-24.45,1.6c-1.63-0.07-0.92,3.82-3.65,1.8c-1.81-1.34-3.34,0.25-5.02,0.5
		c-5.08,0.75-10.55,4.24-15.24-1.07c-0.77-0.87-1.37-1.89-2.17-2.71c-2.49-2.55-6.6-1.93-7.46,1.39c-0.8,3.11-2.73,4.7-5.48,4.97
		c-2.82,0.28-2.87-2.75-3.98-4.47c-0.36-0.56-0.58-1.21-0.95-1.75c-3.83-5.62-9.2-2.66-14.13-2.69c-3.29-0.03-3.72,2.05-4.47,4.26
		c-1.47,4.35-4.49,3.18-7.24,1.76c-2.78-1.44-5.08-3.8-8.26-4.5c-2.75-0.61-5.84-0.84-6.59,2.51c-1.33,5.92-4.83,5.79-9.34,4.28
		c-5.01-1.68-9.56-4.09-11.99-8.98c-1.35-2.72-2.59-2.93-4.78-1.18c-0.76,0.61-1.73,1.04-2.68,1.32
		c-5.45,1.67-10.54,6.87-16.69,1.74c-6.38,3.88-11.74-1.19-17.61-1.87C157.64,133.89,156.1,132.73,155.95,129.52z"/>
	<path class="st3" d="M155.95,129.52c0.15,3.21,1.69,4.36,5.02,4.75c5.86,0.68,11.22,5.75,17.61,1.87
		c6.15,5.13,11.25-0.07,16.69-1.74c0.94-0.29,1.92-0.71,2.68-1.32c2.19-1.75,3.43-1.55,4.78,1.18c2.43,4.89,6.97,7.3,11.99,8.98
		c4.5,1.51,8.01,1.64,9.34-4.28c0.75-3.35,3.85-3.12,6.59-2.51c3.18,0.71,5.48,3.06,8.26,4.5c2.75,1.42,5.77,2.59,7.24-1.76
		c0.75-2.21,1.17-4.28,4.47-4.26c4.93,0.04,10.3-2.92,14.13,2.69c0.37,0.55,0.59,1.2,0.95,1.75c1.11,1.71,1.16,4.74,3.98,4.47
		c2.75-0.27,4.67-1.86,5.48-4.97c0.86-3.32,4.98-3.94,7.46-1.39c0.81,0.83,1.41,1.84,2.17,2.71c4.69,5.31,10.15,1.82,15.24,1.07
		c1.68-0.25,3.2-1.84,5.02-0.5c2.73,2.01,2.02-1.87,3.65-1.8c7.34,7.62,17.8,7.04,24.45-1.6c1.06-1.37,2.25-3.14,3.95-1.99
		c1.81,1.22,3.7,3.09,4.31,5.07c0.48,1.53-1.62,1.36-2.99,0.96c-1.05-0.3-2.75-0.86-2.84,0.75c-0.11,1.92,1.54,1.73,2.9,1.24
		c1.61-0.58,2.89,0.52,4.32,0.79c3.05,0.57,4.51,1.42,2.84,5.2c-2.26,5.11-0.46,7.01,5.14,7.77c5.49,0.75,10.8,0.01,16.16-0.86
		c0.98-0.16,2.17-0.52,2.95-0.14c8.22,4.02,17.08-1.13,25.4,1.85c1.83,0.66,3.93,0.03,5.79-0.95c2.35-1.24,4.15-0.71,5.11,1.92
		c-5.08,0.07-10.16,0.14-15.24,0.21c-7.28-0.02-14.56-0.04-21.85-0.06c-4.73,0.02-9.46,0.04-14.19,0.06
		c-18.26,0-36.53-0.01-54.79-0.01c-6.63-0.03-13.27-0.25-19.89-0.07c-12.73,0.35-25.5-1.11-38.18,0.96c-4.91-0.33-9.82-0.66-14.72-1
		c-16.34-1.12-32.67,0.25-49.12-1.37c-19.39-1.91-39.14-0.96-58.69-0.21c-9.42,0.36-18.91-0.07-28.29,1.25
		c-1.34-8.42-1.34-8.41,5.83-12.68c0.43-0.25,0.91-0.48,1.22-0.85c0.51-0.61,1.31-1.36,1.27-1.99c-0.09-1.33-1.42-1.26-2.34-1.13
		c-3.26,0.46-5.28-1.35-7.21-3.58c-2.9-3.35-7.28-3.02-10.15,0.65c-2.03,2.6-5.77,2.51-6.53-0.56c-0.94-3.8-3.37-3.52-6.03-3.52
		c-3.7,0-7-0.67-8.24-4.84c14.42-0.09,28.82-0.55,43.27,0.41c10.04,0.67,20.2-0.64,30.31-0.91
		C140.38,129.56,148.16,129.6,155.95,129.52z"/>
	<path class="st3" d="M756.38,57.55c0.23,0.46,0.46,0.92,0.7,1.38c3.15,0.45,6.98-3.04,9.2,2.46c7.81,19.39,16.04,38.62,23.91,57.99
		c2.25,5.54,1.35,6.47-4.68,6.52c-8.82,0.07-17.63,0.17-26.45,0.26c-0.23,7.41-2.3,9.57-9.83,9.92c-2.45,0.12-4.55,0.8-6.25,2.55
		c-7.11,7.28-14.03,14.8-24.25,17.86c0.7,0.4,1.46,1.23,2.1,1.14c12.12-1.65,24.46,0.73,36.56-2.19c3.92-0.95,8.37-0.92,12.35-0.15
		c5.59,1.08,10.81-0.08,16.15-0.96c1.32-0.09,2.65-0.3,3.97-0.24c2.27,0.11,4.15-0.63,4.53-2.93c0.4-2.42,0.26-5.04-1.91-6.76
		c-2.99-2.37-4.02,0.42-5.14,2.31c-0.79,1.33-0.85,3.92-3.09,2.79c-2.6-1.32-6.15-2.01-6.27-6.19c-0.08-2.83,1.63-2.77,3.65-3.45
		c6.51-2.18,12.84-1.48,19.24,0.16c0-17.97-0.01-35.94-0.01-53.91c-1.67-0.79-2.17-2.44-2.79-3.95
		c-3.62-8.82-7.22-17.65-10.82-26.48C776.96,55.41,766.67,56.83,756.38,57.55z"/>
	<path class="st4" d="M59.02,130.27c1.24,4.18,4.54,4.84,8.24,4.84c2.66,0,5.1-0.29,6.03,3.52c0.76,3.07,4.5,3.16,6.53,0.56
		c2.87-3.67,7.25-3.99,10.15-0.65c1.93,2.23,3.94,4.04,7.21,3.58c0.92-0.13,2.25-0.2,2.34,1.13c0.04,0.64-0.75,1.38-1.27,1.99
		c-0.31,0.37-0.79,0.6-1.22,0.85c-7.18,4.26-7.18,4.26-5.83,12.68c-8.06-0.99-16.15-0.69-24.24-0.59
		c-21.91,1.17-43.87-1.58-65.77,0.81c0-8.96,0-17.92,0-26.88c3.5,0.01,7,0.09,10.5,0c2.93-0.07,0.51-1.17,0.29-1.83
		c1.01,0,2.03,0,3.04,0c2.44,1.65,5.2,0.88,7.77,0.78c7.75-0.32,15.56,1.13,23.25-0.77C50.37,130.27,54.7,130.27,59.02,130.27z
		 M73.02,148.01c-0.21-1.44-0.7-2.81-2.39-2.48c-1.38,0.27-3.17,0.8-3.12,2.61c0.04,1.59,1.31,2.73,2.93,2.8
		C72.29,151.01,72.88,149.62,73.02,148.01z"/>
	<path class="st5" d="M1.21,168.1c0.33,0.01,0.66,0.03,0.99,0.01c3.8-0.14,6.09,2.38,5.37,5.41c-0.6,2.55-3.97,2.72-6.62,1.52
		C1.04,172.73,1.13,170.42,1.21,168.1z"/>
	<path class="st3" d="M46.05,130.27c-7.69,1.9-15.5,0.45-23.25,0.77c-2.57,0.11-5.33,0.87-7.77-0.78
		C25.37,130.27,35.71,130.27,46.05,130.27z"/>
	<path class="st5" d="M11.99,130.27c0.22,0.67,2.64,1.76-0.29,1.83c-3.5,0.09-7,0.01-10.5,0c-0.38-1.45,0.17-2.05,1.66-2.01
		C5.91,130.19,8.95,130.22,11.99,130.27z"/>
	<path class="st2" d="M232.01,57.92c1.4-1.38,2.29-4.19,5.03-1.8C236.05,58.65,233.97,58.12,232.01,57.92z"/>
	<path class="st4" d="M73.75,58.01c0.01,0.59,0.02,1.18,0.03,1.77C72.78,59.2,73.25,58.6,73.75,58.01z"/>
	<path class="st2" d="M136.13,57.06c0.34,0.22,0.67,0.44,1.01,0.66C136.8,57.5,136.46,57.28,136.13,57.06z"/>
	<path class="st4" d="M190,341.92c-2.37,0-4.73-0.01-7.1-0.01c-1.21-2.23-3.36-1.82-5.31-1.8c-29.59,0.18-59.1-2.87-88.71-2.06
		c-4.56,0.12-5.21-1.7-4.18-5.86c3.79-15.29,7.23-30.67,10.8-46.01c1.66-7.13,0.84-8.32-6.53-8.12
		c-12.98,0.35-25.91-0.74-38.87-1.04c-1.41-4.91-3.02-9.51-6.56-13.63c-3.1-3.6-5.25-4.66-8.52-1.14c-0.95,1.03-1.91,2.39-3.24,1.49
		c-2.2-1.49-3.7-1.62-5.3,0.79c-0.59,0.89-2.23,0.59-1.98-0.77c1.09-5.99-3.22-7.74-7.3-9.68c-0.73-0.35-1.79-0.28-1.66-1.35
		c0.06-0.51,0.95-1.4,1.25-1.31c3.63,0.97,7.37-1.19,10.66-0.14c2.88,0.92,4.28-0.62,4.71-2.09c1.34-4.52,2.99-4.03,5.55-1.05
		c0.61,0.71,1.64,1.16,2.57,1.48c2.3,0.8,4.85,1.04,6.64-0.67c1.96-1.87-0.58-3.51-1.12-5.25c-0.34-1.1-0.99-2.11-1.54-3.13
		c-1.5-2.79-3.35-4.78-6.68-2.43c-1.24,0.87-2.09,0.75-2.82-0.56c-2.65-4.79-7.48-5.59-12.16-6.83c-2.4-0.64-6.47-0.05-4.67-4.97
		c0.36-0.99-0.9-1.73-1.82-2.11c-4.89-2.01-3.67-3.95-0.43-6.8c5.63-4.95,5.5-7.69,0.45-13.23c-1.17-1.29-2.98-2.12-3.31-4.1
		c5.74-1.28,4.59-6.66,6.31-10.3c15.91,0.33,31.84-0.88,47.74,0.76c5.48,0.57,10.89-0.29,16.15-1.95c1.44,1.75,3.38,0.84,5.13,0.97
		c2.96,0.36,5.92,0.73,8.88,1.09c0.32,0.74,0.44,1.9,0.98,2.16c2.12,1,5.18,1.25,2.43,4.77c-0.22,0.29,0.75,1.37,0.95,2.15
		c1.68,6.35,4.51,12.71,1.61,19.33c-2.24,5.09-2.14,5.33,3.37,6.73c4.58,1.16,11.36-2.18,12.9,5.84c0.06,0.29,0.84,0.63,1.3,0.64
		c6.74,0.2,12.67,3.96,19.34,4.4c2.25,0.15,3.54,0.5,2.58,3.25c-0.68,1.96,1.28,2.85,2.42,3.97c0.89,0.87,2.1,0.67,2.57-0.29
		c2.85-5.73,10.61-4.17,13.79-9.41c0.39-0.64,1.59-0.76,2.17,0.09c0.57,0.84-0.04,1.59-0.67,2.14c-0.62,0.54-1.32,0.99-2.03,1.41
		c-1.66,0.99-4.02,1.47-3.54,4.15c0.45,2.47,2.62,1.37,4.09,1.71c2.81,0.64,3.98,2.93,3.53,5.22c-0.55,2.8-3,1.92-4.8,1.04
		c-1.2-0.59-2.27-1.82-3.34-0.1c-0.98,1.58,0.55,2.41,1.41,3.3c0.92,0.95,1.96,1.8,3.03,2.56c2.8,1.99,4.64,4.38,3.37,8
		c-0.78,2.21,0.17,3.92,1.99,4.42c2.01,0.55,4.64,2.68,6.35,0.03c2.22-3.43,5.28-3.54,8.71-3.49c1.57,0.02,3.86,0.09,1.91-2.66
		c-0.43-0.6-0.41-1.27,0.14-1.79c0.73-0.69,1.6-0.52,2.27,0c2.16,1.7,4.26,3.53,2.51,6.67c-1.37,2.46-1.79,5.07-1.15,7.72
		c0.88,3.63,1.28,6.93-0.64,10.56c-1.31,2.47,0.6,5.14,3.03,5.99c3.14,1.1,2.91-2.26,3.16-3.78c0.78-4.6,4.4-5.56,7.84-6.61
		c1.94-0.59,3.71-0.11,2.94,2.84c-1.34,5.17,1.3,8.18,5.85,9.91c1.06,0.4,2.72,0.3,2.48,1.83c-0.73,4.66,2.51,8.81,1.36,13.65
		c-0.42,1.77-2.61,4.77,0.46,6.21c2.77,1.3,5.51-0.22,7.95-1.69c1.41-0.85,3.01-1.7,3.94-2.98c2.26-3.07,4.68-2.91,6.96-0.5
		c3.26,3.44,8.26,1.81,11.82,4.49c1.17,0.88,2.98-0.15,4.23-1.67c2.33-2.84,2.34-6,2.47-9.39c0.12-3.27,1.58-6,5.31-6.79
		c3.96-0.84,4.83,1.69,5.38,4.67c0.32,1.73,1.05,3.69,2.73,3.86c7.36,0.75,5.21,2.85,0.97,5.5c-0.4,0.25-0.76,0.7-0.96,1.13
		c-0.57,1.27-2.11,2.6-0.49,3.98c1.68,1.42,3.73,1.1,4.8-0.62c1.52-2.45,4.23-3.06,6.08-4.72c3.67-3.28,9.05-3.65,12.15-7.51
		c5.44-6.76,12.96-7.81,21.69-5.28c2.62,0.76,4.7,1.04,7.05-0.36c6.43-3.86,13.63-5.02,20.93-5.79c0.02,4.14,0.93,6.33,5.71,3.67
		c2.98-1.66,6.23-0.57,7.1,2.97c2.16,8.76,6.29,17.02,6.72,26.22c-2.74,0.17-5.48,0.35-8.22,0.52l-0.15-0.47
		c-0.7-0.87-2.06-1.22-2.07-2.62c-0.67-3.52-1.37-7.05-3.21-10.19c-0.59-1.02-0.44-3.1-2.29-2.65c-1.99,0.49-1.49,2.43-1.06,3.73
		c0.81,2.5,0.45,3.86-2.5,3.72c-6.18-0.29-8.71,1.86-9.65,8.12c-0.71,0.02-1.42,0.03-2.13,0.05c0.38-2.45-1.44-3.95-2.54-5.72
		c-0.67-1.07-1.85-1.36-3.08-1.02c-1.2,0.33-1.23,1.36-1.35,2.37c-0.14,1.16,0.65,3.04-1.52,2.93c-1.72-0.09-2.42-1.39-2.47-3.14
		c-0.08-2.85-2.43-2.9-3.9-2.06c-3.18,1.81-7.14,3.54-5.18,8.6c-12.93-0.01-25.86-0.02-38.79-0.04c-2.05-3.51-2.88-3.66-5.13-0.91
		c-4.74,0.24-9.48,0.57-14.23-0.01c-1.86-1.84-4.65-3.3-6.64-2.53c-7.47,2.9-15.09,0.87-22.59,1.53
		c-6.05,0.53-12.19-0.88-18.19,0.85c-4.54,0.96-7.22,3.8-8.1,8.27C190.71,336.05,190.41,339,190,341.92z M194.05,306.27
		c-0.08,2.75,0.33,4.29,2.39,4.7c1.79,0.35,2.9-0.12,3.89-2.01c1.59-3.04,2.99-6.32,5.85-8.54c2.54-1.97,1.79-3.85-0.65-4.87
		c-2.22-0.93-3.65-1.86-3.61-4.55c0.03-1.83-1.38-2.17-2.78-1.24c-1.23,0.81-2.98,1.94-2.76,3.31
		C197.2,298.11,196.56,302.78,194.05,306.27z M68.72,269.48c-2.07,0.25-1.93,1.68-1.42,2.59c1.58,2.8,4.18,3.94,7.06,2.41
		c1.52-0.81,2.88-1.38,4.56-1.44c1.39-0.05,2.94-0.46,2.63-2.18c-0.34-1.86-2.26-2.11-3.61-1.63
		C74.75,270.36,71.79,273.81,68.72,269.48z M94.89,336.1c2.16-0.02,3.99-0.44,4.17-3.15c0.15-2.26-1.09-2.82-3.07-2.86
		c-2.52-0.05-4.39,0.9-4.61,3.47C91.2,335.81,93.14,336.01,94.89,336.1z M51.04,260.92c2.45,1.43,4.36,2.56,6.29,3.66
		c1.42,0.81,2.51,0.16,3.47-0.88c0.68-0.74,1.36-1.54,0.86-2.61c-0.63-1.35-1.96-1.03-3.05-0.98
		C56.27,260.25,53.82,259.69,51.04,260.92z M71.9,261.15c-1.75-1.67-3.23-2.57-5.13-1.49c-0.68,0.39-0.66,1.35-0.2,1.68
		C68.13,262.45,69.8,262.42,71.9,261.15z"/>
	<path class="st5" d="M19.13,189.22c-1.72,3.64-0.57,9.02-6.31,10.3c0.32,1.98,2.13,2.81,3.31,4.1c5.05,5.55,5.18,8.28-0.45,13.23
		c-3.24,2.85-4.47,4.79,0.43,6.8c0.92,0.38,2.18,1.12,1.82,2.11c-1.8,4.92,2.27,4.33,4.67,4.97c4.68,1.24,9.51,2.04,12.16,6.83
		c0.73,1.32,1.58,1.44,2.82,0.56c3.33-2.34,5.18-0.35,6.68,2.43c0.55,1.03,1.2,2.03,1.54,3.13c0.54,1.73,3.08,3.37,1.12,5.25
		c-1.78,1.71-4.34,1.47-6.64,0.67c-0.92-0.32-1.96-0.77-2.57-1.48c-2.55-2.98-4.21-3.47-5.55,1.05c-0.43,1.47-1.83,3.01-4.71,2.09
		c-3.29-1.05-7.03,1.11-10.66,0.14c-0.3-0.08-1.19,0.81-1.25,1.31c-0.13,1.07,0.93,1,1.66,1.35c4.08,1.94,8.39,3.69,7.3,9.68
		c-0.25,1.36,1.39,1.66,1.98,0.77c1.6-2.4,3.1-2.28,5.3-0.79c1.33,0.9,2.29-0.47,3.24-1.49c3.27-3.51,5.42-2.46,8.52,1.14
		c3.54,4.12,5.15,8.72,6.56,13.63c-16.3,0.02-32.59,0.04-48.89,0.06c0-29.35,0.01-58.69,0.01-88.04
		C7.19,189.1,13.16,189.16,19.13,189.22z"/>
	<path class="st5" d="M56.08,341.91c-5.98,0.01-11.96,0.01-17.94,0.02c0-0.5-0.21-1.21,0.04-1.46c5.91-5.87,6.59-14.15,9.83-21.24
		c0.4-0.88,0.86-1.84,2.34-1.62c0.54,4.47-1.07,8.84-0.7,13.39c0.27,3.28,1.42,4.22,4.19,5.01
		C56.79,336.86,60.15,338.13,56.08,341.91z"/>
	<path class="st5" d="M56.07,303.06c1.79,0.25,3.8-0.61,5.05,1.34c0.84,1.33,2.56,2.5,1.39,4.35c-1.08,1.71-2.85,1.74-4.33,0.71
		c-1.37-0.95-2.22-0.31-3.51,0.06c-2.37,0.68-5.57,0.35-6.29-2.04c-1.04-3.46,2.71-3.38,4.82-4.22
		C54.06,302.93,55.15,303.12,56.07,303.06z"/>
	<path class="st5" d="M88.15,189c-1.75-0.12-3.69,0.78-5.13-0.97c-0.12-2.59,0.1-5.42,2.63-6.53c4.23-1.85,1.17-3.93,0.18-5.3
		c-1.36-1.87-3.39-1.65-5.01,0.27c-0.85,1.01-1.67,2.15-2.75,2.85c-3.81,2.47-7.61,0.62-8.03-3.79c-0.09-0.98,0.09-2.48-0.45-2.85
		c-5.82-4.01-4.45-9.19-2.61-14.51c8.09-0.1,16.18-0.4,24.24,0.59c9.38-1.32,18.88-0.89,28.29-1.25
		c19.55-0.75,39.29-1.69,58.69,0.21c16.46,1.62,32.78,0.25,49.12,1.37c4.91,0.34,9.81,0.67,14.72,1c-0.81,1.1-2.02,0.98-3.17,1.03
		c-1.17,0.05-2.43,0.02-2.74,1.54c-0.29,1.42,0.25,3.35,1.21,3.54c3.49,0.7,4.96,2.24,3.93,5.84c-0.11,0.37,0.61,1.2,1.13,1.47
		c1.05,0.54,1.38-0.36,1.72-1.15c1.28-2.99,3.96-2.95,6.64-3.31c6.21-0.85,13.46,2.26,18.2-4.56c0.17-0.24,0.98-0.22,1.39-0.07
		c4.47,1.69,8.95,3.34,13.35,5.2c1.62,0.68,2.16,2.26,2.39,4.06c0.62,4.84,2.18,5.58,6.51,3.05c2.93-1.71,5.77-3.28,9.32-2.19
		c5.17,1.59,5.39-3.25,6.35-5.73c1.06-2.73-1.75-4.44-4.35-4.6c-3.5-0.22-4.14-2.11-3.8-4.99c18.26,0,36.53,0.01,54.79,0.01
		c-2.05,2.15-4.93,3.68-3.44,7.76c0.46,1.27-2.26,3.04-3.98,2.79c-2.41-0.36-0.88-2.27-0.64-3.57c0.25-1.37,0.31-2.74-1.07-3.53
		c-1.42-0.81-2.55,0.29-3.61,0.97c-1.78,1.14-2.46,2.53-0.79,4.47c1.22,1.43,0.5,2.81-0.78,3.88c-1.62,1.35-2.36-0.32-3.24-1.1
		c-1.48-1.31-2.93-2.66-3.59-4.67c-0.37-1.14-1.48-1.23-2.5-0.91c-1.21,0.38-1.36,1.45-1.09,2.43c0.82,3.02,2.37,6.1,5.66,6.11
		c3.79,0.01,4.41,2.23,4.88,4.83c0.67,3.73,1.77,7.43,1.26,11.3c-2.34,0-4.68-0.01-7.03-0.01c0.03-0.26,0.06-0.51,0.08-0.77
		c-0.04-8.75-0.36-9.25-7-11.08c-0.7-0.3-1.41-0.6-2.11-0.9c-0.99-2.06,6.32-3.75,0.56-5.62c-4.14-1.34-3.52-2.57-1.66-5.34
		c1.01-1.5,2.92-4.02-0.74-5.05c-4.46-1.24-11.22,2.92-11.87,7.42c-0.34,2.31-0.53,4.56-1.69,6.65c-0.76,1.35-0.24,2.54,0.81,3.56
		c0.94,0.92,1.89,1.26,3.07,0.4c3.14-2.26,6.3-1.03,9.46-0.02c0.18,1.38,0.42,2.71,2.13,2.99c-1,3.21,2.84,4.19,3.13,6.81
		c-3.63,0.63-7.45-0.94-10.97,0.96c-14.37-0.6-28.73,2.5-43.1,0.14c-0.75-1.18-2.03-0.88-3.11-1.13c-3.7-3.76-10.55-3.72-13.85,0.08
		c-1.97,0.01-3.94-0.06-5.9,0.05c-6.65,0.39-13.38-0.96-19.97,0.79c-40.77,0.38-81.54,0.37-122.3-0.15
		c-0.93-1.86-3.42-2.72-3.18-5.42c0.1-1.1-1.33-1.16-2.32-1.17c-1.32-0.01-2.2,0.55-2.26,1.96c-0.06,1.3-0.04,2.6-0.06,3.89
		c-0.67,0.04-1.35,0.08-2.02,0.12c-0.73-0.89-1.42-1.83-2.21-2.66c-1.05-1.11-2.18-2.23-1.66-3.89c0.61-1.97,2.41-1.29,3.8-1.45
		c0.98-0.12,2.06,0.05,2.95-0.3c1.33-0.53,1.82-1.87,2-3.22c0.14-1.05-0.16-1.86-1.29-2.37c-4.52-2.03-10.82,1.04-11.6,5.91
		C91.55,184.23,89.95,186.63,88.15,189z M227.92,167.67c-0.24-1.67-1.42-2.93-2.65-2.25c-1.99,1.1-5.62-0.82-6.02,2.8
		c-0.24,2.19,1.38,3.92,3.73,3.58C225.3,171.46,227.31,170.19,227.92,167.67z"/>
	<path class="st1" d="M190,341.92c0.41-2.92,0.71-5.87,1.27-8.77c0.87-4.47,3.56-7.31,8.1-8.27c15.81,0.05,31.62,0.1,47.43,0.15
		c4.74,0.58,9.48,0.25,14.23,0.01c1.46,1.69,3.36,0.91,5.13,0.91c12.93,0.01,25.86,0.02,38.79,0.04c6.36-0.24,12.79,1.15,19.08-0.81
		c8.02-0.08,16.04-0.16,24.06-0.25c6.53,1.24,12.99,0.27,19.47,0.22c-0.01-0.44-0.01-0.89-0.02-1.33c-3.75,0-7.51,0-11.26,0
		c-0.43-9.2-4.56-17.46-6.72-26.22c-0.87-3.54-4.12-4.63-7.1-2.97c-4.78,2.66-5.69,0.47-5.71-3.67c0.1-2.65-0.17-5.37,0.35-7.92
		c4.15-20.13,8.01-40.41,22.1-56.68c6-2.25,12.38-3.59,17.78-7.25c1.86-1.26,4.41-2.51,3.41-5.35c-2.85-8.03,0.34-14.83,3.98-21.6
		c1.04-0.9,2.18-1.37,3.62-1.23c3.37,0.33,5.5-1.83,7.58-3.98c0.67-0.69,1.5-1.45,0.87-2.57c-0.57-1.02-1.49-1.3-2.51-0.69
		c-3.72,2.24-2.53-1.06-2.93-2.57c0.03-0.66,0.06-1.32,0.09-1.98c0.03-1.02,0.05-2.05,0.08-3.07c1.64-1.01,3.28-2.01,4.92-3.02
		c3.54,1.28,6.99,3.58,10.87,0.95c1.73,0.33,3.58-0.51,5.23,0.48c-0.04,2.14-2.68,0.78-3.09,2.36c2.67,0.89,5.76-0.6,8.11,1.62
		c-0.93,1.31-3.13-0.2-3.83,2.02c3.16,1.54,6.55,1.89,9.93,2.29c1.24,1.09,2.47,2.17,3.71,3.26c0.54,4.37-1.05,9.09,2.08,13.05
		c-1.28,1.08-4.2,0.46-3.96,2.95c0.47,4.8-3.01,5.77-6.22,6.87c-2.92,1.01-6.01,1.54-9.02,2.28c-7.26,1.13-8.97,3.85-6.77,10.72
		c1.07,2.03,2.41,4.43,4.68,4.32c1.59-0.07,2.32-2.65,2.08-4.48c-0.27-2.11-1.39-3.65-3.97-3.25c-0.35,0.06-0.79-0.43-1.18-0.66
		c0.69-1.59,1.24-3.28,3.07-4c2.9,5,7.42,4.69,13.02,3.85c-2.65-1.21-4.39-2.52-2.93-4.73c1.3-1.98,3.23-2.94,5.27-0.61
		c-0.11,0.53-0.95,1.61-0.33,1.49c5.31-1.07,7.33,2.05,8.76,6.28c0.23,0.68,1.08,1.27,1.79,1.63c1.21,0.62,2.64,0.8,3.76-0.02
		c1.3-0.96,0.08-2.12-0.24-3.09c-1.22-3.8-4.28-6.08-7.26-8.39c0.92-0.21,2.23-0.32,1.94-1.58c-0.59-2.59,0.86-4.64,1.43-6.92
		l0.49,0.08l0.5,0c1.28,1.11,2.56,2.21,3.84,3.32c-1.45,1.7-1.42,3.55-0.43,5.41c3.22,6.09,4.36,12.8,5.46,19.45
		c0.73,4.38,3.17,5.81,6.89,4.93c5.42-1.29,10.86-0.61,16.29-0.89c3.57,2.44,2.39,6.69,3.79,9.95c-0.91,1.58-1.78,3.18-2.74,4.73
		c-4.33,7.05-9.07,13.37-18.94,10.61c-0.67-0.19-1.56,0.41-2.35,0.64c-4.91-2.82-5.37-2.62-6.89,3.04L439,263
		c-0.19,0.25-0.37,0.49-0.56,0.74c-1.35,7.88-0.93,15.5,2.89,22.76c0.89,1.7,3.22,4.65,0.74,5.52c-3.1,1.09-0.83-3.51-2.82-4.54
		c-1.99-0.22-0.37,2-1.93,2.7c-3.34,1.5-3.29,6.09-0.3,9.12c0.25,0.08,0.5,0.12,0.77,0.1c1.94,1.91,4.25,3.6,4.97,6.39
		c0.59,2.27,2.24,2.96,4.19,3.4c1.27,4.05,2.1,8.4,6.87,10.05c-0.01,1.27-0.02,2.55-0.03,3.82c-2.91,0.72-1.17,5.04-4.1,5.51
		c-4.32,0.69-4.46,1.86-1.89,5.41c2.35,3.25,6.24,4.71,9.52,1.9c1.17-1,2.48-0.62,3.73-0.83c0.41-0.02,0.81-0.04,1.22-0.07
		c1.67,0.74,3.34,1.42,5.23,1.19c10.06,3.08,10.78,2.76,16.95-5.5c4.93-6.61,10.07-13.05,15.12-19.57c2.74,0.85,3.22,3.15,3.4,5.52
		c0.25,3.27,1.78,4.57,5.15,4.54c12.82-0.13,25.65-0.1,38.47,0.01c2.42,0.02,4.77-1.91,7.24-0.16c2.75,1.95,4.45,0.55,6.15-1.78
		c2.79-3.82,6.39-5.9,11.47-5.22c2.78,0.37,6.25,0.96,6.87-3.58c0.2-1.48,1.74-1.29,2.88-1.3c3.21-0.03,6.43-0.01,10.19-0.01
		c-3.22,2.53-4.07,7.52-1.77,9.25c1.81,1.36,4.4,1.46,5.8-0.58c1.94-2.84,4.63-5.23,5.61-8.69c3.31-1.22,6.68-1.5,10.2-1.12
		c2.59,0.28,5.28,0.55,7.76-0.73c0.02,0.64,0.04,1.28,0.06,1.92c-1.01,1.39-0.81,2.84-0.14,4.26c2.21,4.67,2.03,8.71-2.01,12.63
		c-2.45,2.38-1.15,4.53,2.15,5.26c1.01,0.23,2.17-0.78,3.11,0.27c-0.47,1.52-3.32,1.17-2.61,3.15c0.6,1.7,2.55,1.17,3.98,1.36
		c0.49,0.06,1,0.07,1.5,0c14.36-1.82,28.79-2.79,43.23-3.5c10.25-0.5,20.59-1.92,30.64,1.64c1.16,2.45,1.16,5.11,1.46,7.72
		c-30.49,0.05-60.98,0.14-91.47,0.14c-137.97,0.01-275.94,0.01-413.91,0C193.32,342.07,191.66,341.97,190,341.92z M416.1,245.31
		c7.09-2.65,8.44-5.11,6.08-11.12c-0.8-1.26-1.6-2.52-2.4-3.78c1.52-3.53-1.71-5.71-2.52-8.57c-0.38-1.33-2.04-0.89-3.02-0.51
		c-1.43,0.55-0.59,1.51-0.11,2.37c1.14,2.03,1.88,4.19,2,6.53c-2.72,3.14-6.93,5.59-5.03,10.87c-0.57,2.48,2.59,2.15,2.96,3.92
		c-0.54,0.82-1.26,1.57-1.58,2.46c-0.59,1.67-1.32,4.27,0.37,4.84c2.53,0.85,2.01-2.27,2.73-3.66
		C416.08,247.71,415.95,246.44,416.1,245.31z M375.76,313.24c0.17,5.06,2.97,6.36,7.05,5.8c2.81-0.38,3.54-2.57,3.01-4.76
		c-0.95-3.93-3.56-5.9-7.76-4.65c-1.28,0.38-2.24-0.25-3.35-0.44c-2.4-0.43-4.3,0.3-5.32,2.58c-0.57,1.28-0.48,2.71,0.73,3.62
		C372.53,317.19,373.42,314.28,375.76,313.24z M322.55,338.23c1.69,0.3,3.94,1.49,4.13-1.5c0.17-2.53-2.03-2.6-3.88-2.62
		c-2.97-0.02-5.93,0.05-8.9,0.03c-1.78-0.01-3.57,0.23-3.59,2.4c-0.02,2.55,2.04,2.5,3.93,2.54
		C317.06,339.15,319.7,337.67,322.55,338.23z M370.73,279.32c1.18-1.7,1.73-2.9,2.64-3.72c3.16-2.85,3.43-6.05,0.67-8.95
		c-1.3-1.36-2.26-1.59-3.47,0.2C367.9,270.8,369.01,274.64,370.73,279.32z M220.81,339.08c1.92,0,3.41,0.03,4.89-0.01
		c1.47-0.04,3.25,0.12,3.12-2.11c-0.12-2.2-1.97-1.84-3.38-1.84c-1.64,0-3.6-0.32-4.84,0.44c-1.99,1.23-6.27-0.98-5.92,2.28
		C214.99,340.48,219,338.45,220.81,339.08z M205.94,334.98c-1.45,0.8-4.56-1.11-4.68,2.39c-0.07,2.1,2.05,1.75,3.44,1.62
		c2.17-0.21,5.46,0.22,5.8-2.25C210.84,334.28,207.78,335.53,205.94,334.98z M279.76,336.55c-0.55-1.89-2.15-2.36-3.84-2.31
		c-2.03,0.06-3.76,1.16-3.55,3.3c0.2,2.08,2.43,2.18,3.95,2.08C277.92,339.53,279.56,338.73,279.76,336.55z M374.03,305.08
		c1.98,0.01,3.74-0.36,3.88-2.8c0.09-1.56-0.8-2.25-2.18-1.5c-1.75,0.96-4.93-1.15-5.36,1.99
		C370.08,304.86,372.31,305.06,374.03,305.08z M293.12,339.1c1.74,0.01,3.56-0.1,3.65-2.37c0.07-1.84-1.28-2.64-2.99-2.55
		c-1.73,0.09-3.42,0.61-3.64,2.66C289.89,339.04,291.54,339.11,293.12,339.1z M288.5,334.92c-1.36-1.45-2.54,0.26-3.75-0.04
		c-1.29-0.32-2.75-0.85-3.22,0.99c-0.3,1.18,0.35,2.36,1.44,2.87c1.41,0.65,2.95,0.62,3.96-0.82
		C287.58,336.99,288,335.9,288.5,334.92z M269.91,336.75c-0.1-1.76-1.14-2.47-2.35-2.33c-1.78,0.2-3.78,0.52-4.3,2.72
		c-0.28,1.2,0.68,2.24,1.66,1.6C266.49,337.72,269.08,338.98,269.91,336.75z M303.05,335.76c-0.22-0.88-0.01-2.36-1.69-2.3
		c-1.63,0.06-2.23,1.24-2.16,2.74c0.05,1.25,0.55,2.38,1.92,2.5C303.14,338.88,302.9,337.25,303.05,335.76z M605.35,335.29
		c2.69,1.42,4.48,0.71,5.92-1.19c0.4-0.53,0.56-1.42-0.22-1.67C608.3,331.56,607.02,333.49,605.35,335.29z M308.05,335.7
		c-0.13-1.08,0.13-2.57-1.63-2.32c-1.5,0.21-1.36,1.63-1.36,2.74c-0.01,1.11-0.12,2.65,1.43,2.61
		C308.37,338.69,307.87,336.91,308.05,335.7z"/>
	<path class="st3" d="M698.91,334.21c-10.05-3.56-20.39-2.14-30.64-1.64c-14.44,0.71-28.88,1.68-43.23,3.5c-0.49,0.06-1,0.06-1.5,0
		c-1.43-0.19-3.37,0.34-3.98-1.36c-0.7-1.98,2.15-1.63,2.61-3.15c-0.94-1.06-2.09-0.05-3.11-0.27c-3.3-0.74-4.6-2.88-2.15-5.26
		c4.04-3.92,4.22-7.95,2.01-12.63c-0.67-1.42-0.87-2.87,0.14-4.26c4.69,0,9.39,0,14.37,0c-1.89-3-4.77-1.38-6.58-2.88
		c3.51-0.93,2.17-3.18,1.2-5.05c-1.68-3.25-1.07-6.02,1.12-8.76c1.13-1.41,2.03-3.02,2.92-4.6c3.25-5.79,8.3-8.82,14.74-9.74
		c1.71-0.24,4.08,0.68,4.68-1.7c0.52-2.08-1.29-3.17-2.95-4.09c-1.87-1.04-2.07-2.66-0.78-4.16c1.53-1.79,2.71-0.28,3.57,0.9
		c3.45,4.75,6.09,0.62,8.74-0.9c3.36-1.92-0.42-3.08-0.86-4.55c-1.26-4.3-4.61-6.28-8.74-7.24c-1.29-0.3-2.61-0.57-3.34-1.91
		c-0.91-1.68-1.59-4.43-4.14-2.89c-2.1,1.27-0.19,3.11,0.49,4.75c1.8,4.29,0.09,6.37-4.5,5.74c-4.51-0.62-5.93-3.62-6.17-7.72
		c-0.14-2.44-2.76-4.86-1.4-7.08c1.89-3.06,4.8,0.01,7.28-0.15c1.7-0.11,3.58-0.01,4.57-1.46c1.14-1.65-0.94-2.07-1.71-2.98
		c-1.24-1.48-2.16-3.29-1.08-5.02c1.65-2.63,4.5-1.51,6.87-1.46c2.06,0.05,2.71,1.61,2.55,3.53c-0.08,0.9-0.7,2.09,0.92,2.25
		c1.53,0.15,3.22-0.79,2.9-2.02c-1.61-6.18,4.68-10.01,4.37-15.72c-0.1-1.8,0.97-2.35,2.61-1.76c1.56,0.56,3.32,0.88,4.6,1.84
		c5.48,4.13,10.72,3.71,15.93-0.39c1.25,1.32,2.57,2.59,3.74,3.98c13.24,15.64,24.56,32.74,37.2,48.82
		c8.14,10.36,12.87,22.01,16.68,34.28c-1.32-0.04-3,0.42-3.9-0.21c-5.5-3.84-7.93,0.33-10.66,3.82c-0.71,0.91-1.39,1.85-2.04,2.81
		c-2.83,4.15-2.45,6.68,1.58,9.82c0.74,0.58,1.11,1.16,1.06,2.05c-0.08,1.24-0.92,1.57-1.99,1.76c-2.95,0.54-5.37,2.57-9.97,2.63
		c4.47,2.26,7,4.25,6.01,8.22c-3.02,0-6.03-0.01-9.05-0.01c-0.12-1.79,1.18-2.99,1.8-4.47c0.8-1.91-0.42-4.83-1.78-3.97
		C706.12,335.85,702.36,331.96,698.91,334.21z M700.33,326.49c-0.26,1.45-0.03,3.32,1.8,3.29c3.6-0.04,6.58-1.76,9.15-4.36
		c2.2-2.23,2.37-4.94,1.42-7.37c-0.81-2.08-2.9-5.49-5.09-4.09C703.4,316.66,698.82,319.97,700.33,326.49z M670.98,280.82
		c0.07-4.3-2.93-5.92-6.27-7.31c-3.35-1.4-4.8,0.53-6.06,3.16c-0.41,0.86-1.27,1.5-1.94,2.23c-0.89,0.97-2.14,1.96-1.2,3.39
		c0.87,1.31,2.39,0.85,3.65,0.58c2.97-0.65,5.87-2.49,8.9-0.12C670.86,284.91,670.94,282.87,670.98,280.82z M638.44,321.39
		c3.68-3.81,3.6-5.41-0.4-8.59C638.83,315.81,639.16,318.55,638.44,321.39z"/>
	<path class="st4" d="M800.86,330.13c0.59,11.97,0.59,11.98-11.39,11.94c-1.49,0-2.98-0.1-4.48-0.16c-0.1-1.89,2.95-3.16,1.65-4.89
		c-1.94-2.58-2.15,1.35-3.54,1.37c-0.31,0-0.76-0.07-0.93-0.28c-2.7-3.42-4.13,0.57-6.16,1.03c-12.04-15.95-24.09-31.9-36.13-47.85
		c1.39-1.1,3.46-1.88,2.59-4.22c-1.04-2.8,0.04-5.28,1.06-7.69c0.99-2.36,1.49-4.43,0.86-7.13c-0.67-2.88-0.28-6.14,4.15-6.24
		c1.43-0.03,2.36-1.17,3.22-2.18c2.51-2.94,1.19-6.04-0.03-8.9c-1.17-2.75-3.03-1.43-4.91-0.42c-1.63,0.87-2.31-0.48-2.72-1.89
		c-0.61-2.06-1.07-4.21-1.98-6.13c-1.56-3.26-0.25-5.01,2.69-6.18c0.76-0.3,1.84-0.4,2.23-0.97c3.67-5.35,7.33-6.52,11.44-0.41
		c0.71,1.05,2.77,1.14,2.31-0.51c-0.97-3.43-2.74-6.65-4.36-9.86c-0.19-0.38-2.05-0.52-2.26-0.19c-3.18,4.83-5.96,0.14-8.84-0.36
		c-1.7-0.3-3.17-1.47-2.82-3.47c0.21-1.2,0.28-2.8,1.88-3.25c1.72-0.48,3.16,0.03,4.58,1.19c5.54,4.53,8.4,4.11,12.78-1.58
		c1.68-2.18,1.76-3.16-1.45-3.85c-5.79-1.25-7.2-4.59-4.84-9.81c0.68-1.5,1.36-3.06,1.63-4.66c0.87-5.14,4.33-7.64,8.92-8.9
		c3.11-0.85,6.69-2.01,5.1,3.81c-0.37,1.36-0.4,3.24,1.69,3.53c1.55,0.22,3.74,0.75,4.12-1.54c0.75-4.51,3.74-8.17,4.52-12.63
		c6.47-0.39,12.94-0.99,19.43-0.57c0,16.96-0.01,33.93-0.01,50.89c-2.47,2.58-3.88,6.37-7.3,7.8c-4.23,1.77-3.68,5.11-3.4,8.35
		c0.3,3.39,3.12,2.65,5.37,2.85c1.8,0.16,3.57,0.62,5.35,0.94c-0.01,2-0.01,3.99-0.02,5.99c-3.6,0.48-7.52,2.57-9.58-2.86
		c-0.58-1.52-2.71-1.72-3.12,0.6c-0.41,2.24-1.79,3.31-3.48,4.53c-4.65,3.37-4.91,11.59-0.64,15.43c3.55,3.2,3.8,7.24,0.8,11.07
		c-1.08,1.38-3.87,2.35-1.66,4.82c1.8,2,3.68,3.98,6.84,2.57c3.48-1.54,7.19-1.06,10.84-1.1c0.01,3.32,0.01,6.64,0.02,9.96
		c-7.67,1.38-16.55-3.02-22.93,4.75c-0.3,0.37-1.26,0.23-1.91,0.27c-1.75,0.11-3.88-0.43-3.96,2.42c-0.09,2.96,1.73,3.64,4.2,3.54
		c1.83-0.08,3.43,0.63,4.17,2.2c3.89,8.23,10.11,11.23,18.92,8.87C799.83,330.02,800.36,330.13,800.86,330.13z"/>
	<path class="st5" d="M718.72,156.49c0.7,0.4,1.46,1.23,2.1,1.14c12.12-1.65,24.46,0.73,36.57-2.19c3.92-0.95,8.37-0.92,12.35-0.15
		c5.59,1.08,10.81-0.08,16.15-0.96c0.98,2.77,3.49,1.36,5.28,1.95c-0.34,2.18,0.79,2.84,2.77,2.83c2.14-0.01,3.86-0.44,4.09-3
		c0.95-0.05,1.9-0.1,2.84-0.15c-0.01,3.74-0.02,7.48-0.03,11.21c-3.25,3.75-6.22,7.7-11.11,9.7c-3.55,1.46-4.71,0.64-4.06-3.01
		c0.15-0.85,0.39-1.61-0.51-2.44c-2.19,0.52-2.87,2.15-3.27,4.26c-0.31,1.68-2.08,3.93-3.18,2.82c-2.47-2.5-7.26-3.02-6.81-8.4
		c0.45-5.44-3.49-8.42-8.88-8.06c-2.49,0.17-3.62,1.43-2.84,3.46c1.54,4.01-0.02,6.56-2.41,9.79c-4.09,5.55-8.93,7.59-15.35,4.67
		c-1.47-0.67-3.32-1.5-4.12-0.26c-2.29,3.54-4.98,2.1-7.88,1.44c-1.99-0.45-4.5-2.01-5.61,1.71c-0.59,1.97-2.35,0.47-3.4,0.12
		c-2.76-0.91-6.44-2.16-8.16-0.42c-4.99,5.06-10.75,3.28-16.41,3.2c3.1-3.83,4.62-7.88,1.79-12.56c-0.6-0.99-0.25-1.9,0.51-2.67
		c3.9-3.98,4.63-8.42,1.97-13.36C706.98,156.95,712.85,156.72,718.72,156.49z"/>
	<path class="st1" d="M739.88,291.29c12.04,15.95,24.09,31.9,36.13,47.85c0.35,0.93,0.7,1.86,1.05,2.79c-2.39,0-4.78,0-7.17,0
		c-10.32-14.14-20.63-28.28-31.77-43.54c0.29,5.09,1.69,8.36,2.88,11.7c3.78,10.56,9.4,20.49,10.88,31.84
		c-0.49-0.01-0.97-0.01-1.46-0.02c-3.13-10.56-7.47-20.67-11.55-30.87c-3.81-12.27-8.54-23.92-16.68-34.28
		c-12.63-16.08-23.96-33.19-37.2-48.82c-1.17-1.39-2.49-2.65-3.74-3.97c-0.76-2.91-1.52-5.82-2.28-8.73c1.93-4.61,5.73,0.9,8.2-1.78
		c-3.14-2.25-6.51-2.65-10.15-1.35c-2.6-2.13-5.52-3.52-8.77-4.52c-6.04-1.85-11.96-4.02-18.4-4.05c-2.96-0.01-3.82-2.15-4.42-4.55
		c-0.57-2.27-0.42-4.32,1.63-5.8c1.75-1.26,3.51-1.56,5.52-0.26c7.73,4.97,16.16,8.31,25.02,10.76c7.61,2.1,13.86,7.1,20.86,10.53
		c0.87,0.42,1.53,1.31,1.1,2.83c-0.86,0-1.83,0.09-2.77-0.03c-0.98-0.12-1.92-0.56-2.91-0.66c-3.41-0.34-6.43,2.41-4.97,4.82
		c3.49,5.76,5.31,12.64,10.95,17.01c6.1,8.84,12.21,17.69,19.18,25.89c0.11,0.06,0.22,0.12,0.33,0.18
		c-0.13-0.04-0.26-0.08-0.39-0.12c0.72-3.1-0.99-5.84-1.27-8.79c0.42-0.4,0.84-0.8,1.27-1.2c1.98,4.9,3.79,9.87,5.98,14.67
		C728.74,277.07,732.57,285.35,739.88,291.29z"/>
	<path class="st1" d="M696.84,185.77c5.66,0.08,11.42,1.86,16.41-3.2c1.72-1.74,5.4-0.49,8.16,0.42c1.05,0.35,2.81,1.85,3.4-0.12
		c1.11-3.72,3.62-2.16,5.61-1.71c2.91,0.66,5.59,2.09,7.88-1.44c0.8-1.23,2.65-0.4,4.12,0.26c6.42,2.92,11.26,0.88,15.35-4.67
		c2.39-3.24,3.96-5.78,2.41-9.79c-0.78-2.03,0.35-3.29,2.84-3.46c5.39-0.37,9.33,2.61,8.88,8.06c-0.44,5.37,4.34,5.9,6.81,8.4
		c1.1,1.11,2.87-1.14,3.18-2.82c0.39-2.11,1.07-3.75,3.27-4.26c0.9,0.83,0.66,1.59,0.51,2.44c-0.65,3.65,0.51,4.47,4.06,3.01
		c4.89-2,7.86-5.95,11.11-9.7c0.01,6.36,0.01,12.72,0.02,19.09c-6.49-0.42-12.96,0.18-19.43,0.57c-1.2-0.82-2.57-0.62-3.88-0.56
		c-21.13,0.85-42.28,0.76-63.43,0.84c-1.17,0-2.34,0.05-3.31,0.86c-0.87-0.03-1.74-0.06-2.61-0.09c-1.61-1.29-3.51-0.74-5.28-0.75
		c-12.58-0.04-25.16-0.02-37.75-0.02c0-0.44,0-0.88,0-1.33C675.72,185.77,686.28,185.77,696.84,185.77z"/>
	<path class="st4" d="M738.87,311.03c4.07,10.21,8.42,20.31,11.55,30.87c-10.48,0.01-20.97,0.02-31.46,0.02
		c0.99-3.98-1.54-5.97-6.01-8.22c4.6-0.06,7.02-2.09,9.97-2.63c1.07-0.2,1.91-0.52,1.99-1.76c0.06-0.89-0.31-1.47-1.06-2.05
		c-4.04-3.13-4.42-5.67-1.58-9.82c0.65-0.95,1.33-1.9,2.04-2.81c2.74-3.49,5.16-7.67,10.66-3.82
		C735.87,311.45,737.55,310.98,738.87,311.03z"/>
	<path class="st5" d="M800.86,298.13c-3.65,0.04-7.36-0.44-10.84,1.1c-3.16,1.4-5.05-0.57-6.84-2.57c-2.21-2.46,0.58-3.44,1.66-4.82
		c3-3.83,2.75-7.87-0.8-11.07c-4.27-3.84-4.01-12.07,0.64-15.43c1.68-1.22,3.07-2.29,3.48-4.53c0.42-2.32,2.55-2.12,3.12-0.6
		c2.06,5.43,5.98,3.34,9.58,2.86C800.85,274.76,800.86,286.45,800.86,298.13z"/>
	<path class="st5" d="M800.86,330.13c-0.5,0-1.02-0.11-1.49,0.01c-8.81,2.36-15.04-0.64-18.92-8.87c-0.74-1.57-2.34-2.27-4.17-2.2
		c-2.47,0.1-4.29-0.58-4.2-3.54c0.08-2.85,2.21-2.31,3.96-2.42c0.65-0.04,1.61,0.09,1.91-0.27c6.39-7.77,15.26-3.37,22.93-4.75
		C800.87,315.44,800.86,322.78,800.86,330.13z"/>
	<path class="st4" d="M751.88,341.91c-1.48-11.34-7.1-21.28-10.88-31.84c-1.2-3.34-2.6-6.61-2.88-11.7
		c11.14,15.26,21.46,29.4,31.77,43.54C763.88,341.92,757.88,341.91,751.88,341.91z"/>
	<path class="st4" d="M800.86,155.96c-0.95,0.05-1.9,0.1-2.84,0.15c-2.28,0.06-4.57,0.11-6.85,0.17c-1.78-0.59-4.3,0.81-5.28-1.95
		c1.32-0.09,2.65-0.3,3.97-0.24c2.27,0.11,4.15-0.63,4.53-2.93c0.4-2.42,0.26-5.04-1.91-6.76c-2.99-2.37-4.02,0.42-5.14,2.31
		c-0.79,1.33-0.85,3.92-3.09,2.79c-2.6-1.32-6.15-2.01-6.27-6.19c-0.08-2.83,1.63-2.77,3.65-3.45c6.51-2.18,12.84-1.48,19.24,0.16
		C800.88,145.34,800.87,150.65,800.86,155.96z"/>
	<path class="st5" d="M800.87,257.08c-1.78-0.32-3.55-0.78-5.35-0.94c-2.25-0.2-5.07,0.54-5.37-2.85c-0.29-3.23-0.83-6.57,3.4-8.35
		c3.42-1.43,4.83-5.22,7.3-7.8C800.86,243.79,800.86,250.44,800.87,257.08z"/>
	<path class="st4" d="M698.91,334.21c3.45-2.25,7.22,1.64,11.02-0.75c1.36-0.85,2.57,2.06,1.78,3.97c-0.62,1.48-1.92,2.68-1.8,4.47
		c-3.18,0.01-6.36,0.02-9.54,0.03C700.06,339.33,700.06,336.66,698.91,334.21z"/>
	<path class="st5" d="M777.06,341.92c-0.35-0.93-0.7-1.86-1.05-2.79c2.03-0.46,3.46-4.45,6.16-1.03c0.17,0.21,0.61,0.29,0.93,0.28
		c1.39-0.02,1.6-3.95,3.54-1.37c1.3,1.73-1.74,3-1.65,4.89C782.34,341.92,779.7,341.92,777.06,341.92z"/>
	<path class="st0" d="M71.61,1.82c-0.43,1.78-1.26,3.17-3.28,3.23C67.1,5.08,65.93,4.81,66,3.16c0.09-2,1.24-2.98,3.16-3.14
		C70.51-0.1,71.42,0.4,71.61,1.82z"/>
	<path class="st4" d="M696.84,185.77c-10.56,0-21.12,0-31.68,0c0,0.44,0,0.88,0,1.33c12.58,0,25.16-0.02,37.75,0.02
		c1.77,0.01,3.67-0.54,5.28,0.75c-19.39,0.04-38.79,0.09-58.18,0.13c-1.11-3.42-3.98-3.29-6.52-2.73
		c-4.13,0.92-8.13,1.11-12.28,0.12c-2.16-0.51-4.38-0.27-5.1,2.54c-5.75,0.01-11.5,0.01-17.24,0.02c-1.34-2.46-3.7-1.83-5.72-1.7
		c-4.6,0.31-9.18,0.87-13.78,1.33c0,0.08-0.01,0.15-0.01,0.23c1.94,0.11,3.87,0.21,5.81,0.32c-3.5,2.27-7.11-0.19-10.56,0.24
		c-10.91,1.34-21.82,0.51-32.73,0.58c-6.69-3.38-13.91,0.08-20.77-1.57c-0.81-0.2-1.95,1.01-2.94,1.57
		c-0.45-0.02-0.9-0.04-1.35-0.06c-4.98-1.16-10-3.83-14.85,0.34c-1.34,0.24-2.69,0.47-4.03,0.71c-3.79-3.67-7.01-3.66-9.86,0.04
		c-5.06-0.01-10.12-0.02-15.18-0.03c-4.91-2.93-9.83-2.15-14.74,0c-4.75-0.45-9.49-0.62-14.22,0.15c-1.44-1.67-3.38-0.95-5.11-0.98
		c-5.58-0.11-11.18,0.32-16.7-0.93c-1.05-0.72-2.1-1.43-3.15-2.15c-0.3-2.04-1.28-3.72-2.74-5.13c-0.7-0.67-1.48-1.77-2.46-1.26
		c-1.26,0.65-0.45,2.06-0.49,3.15c-3.38-0.4-6.77-0.75-9.93-2.29c0.7-2.22,2.89-0.71,3.83-2.02c-2.35-2.22-5.45-0.74-8.11-1.62
		c0.42-1.58,3.05-0.22,3.09-2.36c-1.66-0.98-3.51-0.15-5.23-0.48c-3.18-3.12-7.15-1.57-10.82-1.82c-0.42-2.64-2.53-2.01-4.21-2.15
		c-1.63-0.14-2.71-1.06-3.46-2.38c-0.56-0.98-0.41-2.14,0.65-2.47c3.69-1.13,1.98-3.76,1.83-5.97c5.08-0.07,10.16-0.14,15.24-0.22
		c11.29,0.04,22.58-0.04,33.87,0.17c3.55,0.07,4.33-1.48,3.92-4.5c-0.38-2.76-1.59-5.45-0.75-8.37c0.22,0.03,0.66,0.02,0.67,0.09
		c2.32,12.94,13.26,11.94,22.02,12.44c16.05,0.93,32.19,0.37,48.29,0.43c1.67,1.68,4.2,0.08,5.93,1.52
		c2.72,2.28,4.36,0.71,5.82-1.59c3.73-0.02,7.46-0.05,11.19-0.07c-0.29,2.05-0.16,4.03,1.83,5.2c2.08,1.22,2.91-0.65,3.84-1.89
		c0.75-0.99,1.15-0.47,1.92-0.01c3.71,2.21,4.8,1.5,5.14-3.25c5.63,0.7,11.11-1,16.69-1.03c12.15-0.06,24.3-0.17,36.45-0.1
		c9.31,0.05,18.59-0.38,27.78-1.73c3.65-0.54,6.58,1.62,10.04,1.69c18.5,0.41,36.92-1.72,55.4-1.48c1.62,0.02,3.23,0.41,4.85,0.63
		c2.66,4.94,1.92,9.38-1.97,13.36c-0.75,0.77-1.1,1.68-0.51,2.67C701.46,177.9,699.94,181.94,696.84,185.77z M448.01,174.09
		c0.21,3.89,2.43,6.79,5.06,9.3c1.54,1.47,3.53,0.7,5.01-0.49c1.67-1.34,0.42-2.6-0.42-3.84c-0.93-1.37-1.05-2.79-1.12-4.53
		c-0.11-3.02-3.14-4.03-5.72-4.28C448.43,170.02,448.01,172.07,448.01,174.09z M461.51,160.25c-1.4,0.26-2.05,1.42-2.06,2.77
		c-0.01,1.07,0.36,2.77,1.72,2.42c1.32-0.34,2.31-1.85,2.5-3.35C463.82,160.92,462.75,160.5,461.51,160.25z M591.12,168.33
		c-1.23-0.1-2.02,0.34-1.87,1.61c0.17,1.42,1.17,2.38,2.44,2.74c1.08,0.31,1.9-0.52,2.06-1.56
		C594.09,169.11,592.37,168.88,591.12,168.33z"/>
	<path class="st5" d="M549.89,159.18c-0.35,4.74-1.43,5.46-5.14,3.25c-0.77-0.46-1.17-0.98-1.92,0.01
		c-0.93,1.24-1.77,3.11-3.84,1.89c-1.99-1.17-2.12-3.15-1.83-5.2C541.4,159.15,545.65,159.17,549.89,159.18z"/>
	<path class="st5" d="M525.96,159.21c-1.46,2.3-3.1,3.87-5.82,1.59c-1.72-1.45-4.25,0.16-5.93-1.52
		C518.13,159.25,522.05,159.23,525.96,159.21z"/>
	<path class="st4" d="M300.12,159.2c-0.34,2.88,0.3,4.77,3.8,4.99c2.6,0.17,5.41,1.88,4.35,4.6c-0.97,2.48-1.19,7.33-6.35,5.73
		c-3.54-1.09-6.39,0.48-9.32,2.19c-4.33,2.53-5.89,1.79-6.51-3.05c-0.23-1.81-0.77-3.38-2.39-4.06c-4.4-1.85-8.88-3.51-13.35-5.2
		c-0.41-0.16-1.23-0.17-1.39,0.07c-4.74,6.82-11.99,3.71-18.2,4.56c-2.68,0.37-5.37,0.32-6.64,3.31c-0.33,0.78-0.67,1.69-1.72,1.15
		c-0.52-0.26-1.23-1.1-1.13-1.47c1.03-3.6-0.44-5.14-3.93-5.84c-0.96-0.19-1.5-2.12-1.21-3.54c0.31-1.51,1.57-1.49,2.74-1.54
		c1.15-0.05,2.36,0.07,3.17-1.03c12.68-2.07,25.46-0.61,38.18-0.96C286.85,158.96,293.48,159.17,300.12,159.2z"/>
	<path class="st4" d="M391.17,176.08c-0.03,1.02-0.05,2.05-0.08,3.07c-4.45-3.82-9.86-2.81-15.05-3.1
		c-2.62-0.14-5.31-0.59-7.78-1.45c-4.59-1.6-8.83,0.62-13.25,0.77c-1.02,0.04-1.88,1-1.55,2.15c0.82,2.85-1.34,4.18-2.79,5.89
		c-1.63,1.93-3.17,3.9-2.54,6.69c-2.05-0.05-4.1-0.1-6.15-0.15c0.51-3.87-0.59-7.57-1.26-11.3c-0.47-2.6-1.09-4.82-4.88-4.83
		c-3.3-0.01-4.85-3.09-5.66-6.11c-0.27-0.98-0.11-2.05,1.09-2.43c1.02-0.32,2.13-0.22,2.5,0.91c0.66,2.01,2.11,3.36,3.59,4.67
		c0.88,0.78,1.62,2.46,3.24,1.1c1.28-1.06,2-2.45,0.78-3.88c-1.67-1.95-0.99-3.33,0.79-4.47c1.06-0.68,2.18-1.78,3.61-0.97
		c1.38,0.79,1.32,2.16,1.07,3.53c-0.24,1.3-1.78,3.21,0.64,3.57c1.71,0.26,4.44-1.52,3.98-2.79c-1.49-4.08,1.4-5.61,3.44-7.76
		c4.73-0.02,9.46-0.04,14.19-0.05c2.45,6.46,9,8.19,13.86,11.85C385.51,172.93,387.48,175.94,391.17,176.08z"/>
	<path class="st5" d="M391.17,176.08c-3.68-0.14-5.66-3.16-8.21-5.08c-4.85-3.66-11.4-5.38-13.86-11.85
		c7.28,0.02,14.57,0.04,21.85,0.06c0.15,2.21,1.86,4.84-1.83,5.98c-1.07,0.33-1.21,1.49-0.65,2.47c0.76,1.33,1.84,2.25,3.46,2.38
		c1.68,0.14,3.79-0.49,4.21,2.15c-0.06,0.29-0.08,0.58-0.05,0.88C394.45,174.07,392.81,175.08,391.17,176.08z"/>
	<path class="st3" d="M73.02,148.01c-0.13,1.61-0.73,3-2.58,2.93c-1.62-0.06-2.89-1.2-2.93-2.8c-0.04-1.81,1.74-2.35,3.12-2.61
		C72.31,145.2,72.81,146.57,73.02,148.01z"/>
	<path class="st3" d="M359.19,226.36c-14.08,16.27-17.94,36.55-22.1,56.68c-0.53,2.56-0.25,5.28-0.35,7.92
		c-7.3,0.77-14.5,1.93-20.93,5.79c-2.34,1.41-4.43,1.12-7.05,0.36c-8.73-2.52-16.25-1.48-21.69,5.28
		c-3.11,3.86-8.48,4.23-12.15,7.51c-1.85,1.65-4.56,2.26-6.08,4.72c-1.07,1.73-3.12,2.05-4.8,0.62c-1.62-1.38-0.08-2.71,0.49-3.98
		c0.19-0.44,0.56-0.88,0.96-1.13c4.24-2.65,6.38-4.75-0.97-5.5c-1.68-0.17-2.41-2.13-2.73-3.86c-0.55-2.98-1.42-5.51-5.38-4.67
		c-3.73,0.79-5.19,3.52-5.31,6.79c-0.13,3.39-0.14,6.55-2.47,9.39c-1.25,1.52-3.06,2.55-4.23,1.67c-3.56-2.68-8.56-1.05-11.82-4.49
		c-2.28-2.41-4.7-2.57-6.96,0.5c-0.94,1.27-2.53,2.12-3.94,2.98c-2.44,1.48-5.17,3-7.95,1.69c-3.07-1.44-0.88-4.45-0.46-6.21
		c1.15-4.84-2.09-8.99-1.36-13.65c0.24-1.53-1.41-1.43-2.48-1.83c-4.55-1.73-7.2-4.74-5.85-9.91c0.77-2.95-1.01-3.43-2.94-2.84
		c-3.44,1.05-7.06,2.01-7.84,6.61c-0.26,1.52-0.02,4.88-3.16,3.78c-2.43-0.85-4.35-3.52-3.03-5.99c1.93-3.63,1.53-6.93,0.64-10.56
		c-0.65-2.65-0.22-5.27,1.15-7.72c1.75-3.14-0.35-4.97-2.51-6.67c-0.67-0.53-1.54-0.69-2.27,0c-0.55,0.52-0.57,1.19-0.14,1.79
		c1.95,2.75-0.34,2.68-1.91,2.66c-3.43-0.05-6.49,0.06-8.71,3.49c-1.71,2.65-4.34,0.52-6.35-0.03c-1.82-0.5-2.77-2.21-1.99-4.42
		c1.27-3.63-0.57-6.02-3.37-8c-1.08-0.76-2.12-1.62-3.03-2.56c-0.86-0.89-2.39-1.72-1.41-3.3c1.06-1.72,2.14-0.49,3.34,0.1
		c1.79,0.88,4.24,1.76,4.8-1.04c0.45-2.29-0.72-4.58-3.53-5.22c-1.47-0.34-3.64,0.76-4.09-1.71c-0.48-2.68,1.87-3.16,3.54-4.15
		c0.71-0.42,1.41-0.87,2.03-1.41c0.63-0.55,1.24-1.3,0.67-2.14c-0.58-0.85-1.78-0.73-2.17-0.09c-3.18,5.24-10.94,3.68-13.79,9.41
		c-0.47,0.95-1.68,1.16-2.57,0.29c-1.14-1.11-3.1-2-2.42-3.97c0.96-2.75-0.33-3.1-2.58-3.25c-6.67-0.44-12.6-4.2-19.34-4.4
		c-0.45-0.01-1.24-0.34-1.3-0.64c-1.54-8.03-8.31-4.68-12.9-5.84c-5.51-1.39-5.61-1.64-3.37-6.73c2.91-6.62,0.08-12.98-1.61-19.33
		c-0.2-0.77-1.18-1.86-0.95-2.15c2.75-3.52-0.31-3.77-2.43-4.77c-0.55-0.26-0.67-1.42-0.98-2.16c1.01-0.32,2.02-0.64,3.03-0.96
		c0.67-0.04,1.35-0.08,2.02-0.12c2.61,0.21,5.13,1.38,7.82,0.74c40.77,0.52,81.54,0.53,122.3,0.15c14.28,0.07,28.56,0.14,42.84,0.21
		c14.37,2.36,28.73-0.74,43.1-0.14c2.7,0.45,5.54-0.23,8.16,0.96c-5.13,0.67-10.38-0.47-15.65,0.65c1.39,3.01,3.01,5.57,5.47,6.83
		c3.47,1.77,5.45,3.76,5.09,7.98c-0.18,2.17,1.56,3.26,3.79,2.03c3.4-1.87,5.66-9.62,3.24-14.05c4.3,2.57,8.21,4.1,10.94,6.81
		c1.93,1.91-1.45,4.31-1.89,6.66c-0.09,0.49-0.19,0.98-0.2,1.47c-0.02,0.81-0.2,1.77,0.65,2.22c0.91,0.48,1.69-0.21,2.09-0.87
		c1.94-3.16,4-5.03,7.19-1.31c0.26,0.3,1.13,0.51,1.35,0.33c6.26-5.18,4.1,1.12,4.9,3.52c0.68,2.05,1.41,4.21,3.1,5.61
		C358.84,220.84,359.31,223.45,359.19,226.36z M267.02,219.75c0.06-1.79-0.58-3.82-2.26-3.86c-2.13-0.06-2.4,2.34-2.63,4.05
		c-0.21,1.65,0.66,2.99,2.49,2.93C266.46,222.8,267,221.39,267.02,219.75z M254.03,210.98c0.17,1.04-0.33,2.81,1.29,2.63
		c1.78-0.2,2.57-1.86,2.6-3.68c0.02-1.15,0.09-2.62-1.5-2.56C254.24,207.46,254.06,209.25,254.03,210.98z"/>
	<path class="st3" d="M194.05,306.27c2.51-3.49,3.14-8.16,2.33-13.21c-0.22-1.37,1.53-2.49,2.76-3.31c1.4-0.93,2.81-0.59,2.78,1.24
		c-0.04,2.69,1.39,3.62,3.61,4.55c2.43,1.02,3.18,2.9,0.65,4.87c-2.86,2.22-4.26,5.5-5.85,8.54c-0.99,1.89-2.1,2.37-3.89,2.01
		C194.38,310.56,193.98,309.01,194.05,306.27z"/>
	<path class="st5" d="M327.12,323.98c0.94-6.26,3.47-8.41,9.65-8.12c2.95,0.14,3.31-1.21,2.5-3.72c-0.42-1.3-0.93-3.24,1.06-3.73
		c1.85-0.46,1.7,1.63,2.29,2.65c1.84,3.14,2.54,6.67,3.21,10.19c-3.23,0.9-6.46,1.81-9.69,2.71
		C333.13,323.97,330.13,323.98,327.12,323.98z"/>
	<path class="st5" d="M324.02,325.18c-6.29,1.96-12.72,0.56-19.08,0.81c-1.96-5.06,2-6.8,5.18-8.6c1.47-0.84,3.82-0.79,3.9,2.06
		c0.05,1.75,0.76,3.05,2.47,3.14c2.17,0.12,1.38-1.77,1.52-2.93c0.12-1.01,0.16-2.04,1.35-2.37c1.23-0.34,2.41-0.05,3.08,1.02
		c1.11,1.78,2.93,3.27,2.54,5.73C324.66,324.42,324.34,324.8,324.02,325.18z"/>
	<path class="st1" d="M100.06,189.13c-1.01,0.32-2.02,0.64-3.03,0.96c-2.96-0.36-5.92-0.73-8.88-1.09c1.81-2.37,3.4-4.77,3.9-7.87
		c0.78-4.87,7.08-7.94,11.6-5.91c1.12,0.5,1.42,1.32,1.29,2.37c-0.18,1.36-0.66,2.69-2,3.22c-0.88,0.35-1.96,0.19-2.95,0.3
		c-1.39,0.16-3.2-0.52-3.8,1.45c-0.51,1.67,0.61,2.78,1.66,3.89C98.64,187.3,99.32,188.23,100.06,189.13z"/>
	<path class="st2" d="M246.8,325.03c-15.81-0.05-31.62-0.1-47.43-0.15c6-1.73,12.14-0.32,18.19-0.85c7.5-0.65,15.13,1.38,22.59-1.53
		C242.15,321.73,244.94,323.2,246.8,325.03z"/>
	<path class="st5" d="M68.72,269.48c3.07,4.34,6.03,0.88,9.22-0.25c1.34-0.48,3.27-0.22,3.61,1.63c0.31,1.72-1.24,2.14-2.63,2.18
		c-1.68,0.06-3.04,0.63-4.56,1.44c-2.88,1.53-5.48,0.4-7.06-2.41C66.79,271.16,66.65,269.73,68.72,269.48z"/>
	<path class="st1" d="M94.88,336.1c-1.74-0.08-3.68-0.28-3.49-2.54c0.22-2.57,2.09-3.52,4.61-3.47c1.98,0.04,3.21,0.6,3.07,2.86
		C98.88,335.66,97.05,336.08,94.88,336.1z"/>
	<path class="st5" d="M51.04,260.92c2.78-1.23,5.24-0.67,7.58-0.79c1.08-0.06,2.41-0.37,3.05,0.98c0.5,1.07-0.18,1.87-0.86,2.61
		c-0.96,1.04-2.05,1.69-3.47,0.88C55.4,263.49,53.48,262.35,51.04,260.92z"/>
	<path class="st2" d="M356.27,323.83c3.75,0,7.51,0,11.26,0c0.01,0.44,0.01,0.89,0.02,1.33c-6.49,0.05-12.95,1.02-19.47-0.22
		c-0.01-0.2-0.02-0.39-0.03-0.59C350.79,324.18,353.53,324,356.27,323.83z"/>
	<path class="st3" d="M348.05,324.35c0.01,0.2,0.02,0.39,0.03,0.59c-8.02,0.08-16.04,0.16-24.06,0.25c0.32-0.38,0.64-0.76,0.97-1.15
		c0.71-0.02,1.42-0.03,2.13-0.05c3.01-0.01,6.02-0.01,9.02-0.02c3.92-0.03,7.84-0.06,11.76-0.09L348.05,324.35z"/>
	<path class="st1" d="M347.9,323.88c-3.92,0.03-7.84,0.06-11.76,0.09c3.23-0.91,6.46-1.81,9.69-2.71
		C345.84,322.66,347.2,323.01,347.9,323.88z"/>
	<path class="st5" d="M71.9,261.15c-2.1,1.27-3.77,1.3-5.32,0.19c-0.46-0.33-0.49-1.3,0.2-1.68
		C68.67,258.58,70.15,259.48,71.9,261.15z"/>
	<path class="st5" d="M266.15,325.95c-1.76,0-3.66,0.78-5.13-0.91C263.26,322.29,264.1,322.44,266.15,325.95z"/>
	<path class="st2" d="M359.19,226.36c0.12-2.92-0.35-5.52-2.82-7.57c-1.69-1.39-2.42-3.56-3.1-5.61c-0.8-2.41,1.36-8.7-4.9-3.52
		c-0.22,0.18-1.09-0.03-1.35-0.33c-3.19-3.71-5.25-1.85-7.19,1.31c-0.41,0.66-1.19,1.35-2.09,0.87c-0.85-0.45-0.68-1.41-0.65-2.22
		c0.02-0.49,0.11-0.99,0.2-1.47c0.44-2.35,3.81-4.75,1.89-6.66c-2.73-2.71-6.64-4.24-10.94-6.81c2.42,4.43,0.16,12.18-3.24,14.05
		c-2.23,1.23-3.97,0.14-3.79-2.03c0.36-4.22-1.62-6.21-5.09-7.98c-2.46-1.26-4.08-3.82-5.47-6.83c5.27-1.12,10.52,0.02,15.65-0.65
		c2.88-0.32,5.76-0.65,8.65-0.97c2.34,0,4.68,0.01,7.03,0.01c2.05,0.05,4.1,0.1,6.15,0.15c10.91,1.64,21.88,1.13,32.85,0.82
		c1.13,0.41,2.26,0.82,3.38,1.23c-3.65,6.77-6.83,13.57-3.98,21.6c1,2.83-1.55,4.09-3.41,5.35
		C371.56,222.77,365.19,224.12,359.19,226.36z M359.53,206.14c-0.58-1.04-0.23-2.87-2.08-2.86c-1.26,0.01-1.48,1.12-1.37,2.15
		c0.15,1.44,0.84,2.52,2.45,2.45C359.6,207.85,359.79,207.07,359.53,206.14z"/>
	<path class="st4" d="M323.85,179.21c-3.15-1.01-6.32-2.24-9.45,0.02c-1.18,0.85-2.13,0.51-3.07-0.4c-1.05-1.03-1.57-2.21-0.81-3.56
		c1.17-2.08,1.36-4.34,1.69-6.65c0.66-4.5,7.42-8.66,11.87-7.42c3.66,1.02,1.75,3.54,0.74,5.05c-1.86,2.77-2.49,4,1.66,5.34
		c5.76,1.87-1.56,3.56-0.56,5.61C324.59,177.21,324.09,178.08,323.85,179.21z"/>
	<path class="st4" d="M328.03,178.11c6.65,1.83,6.97,2.33,7,11.08c-1.97-0.06-3.95-0.12-5.92-0.18c-0.29-2.62-4.13-3.6-3.13-6.81
		C327.23,181.11,327.8,179.7,328.03,178.11z"/>
	<path class="st4" d="M227.92,167.67c-0.61,2.52-2.62,3.79-4.94,4.13c-2.35,0.34-3.97-1.38-3.73-3.58c0.4-3.63,4.03-1.71,6.02-2.8
		C226.49,164.73,227.67,166,227.92,167.67z"/>
	<path class="st1" d="M275.04,190.11c-14.28-0.07-28.56-0.14-42.84-0.21c6.6-1.75,13.32-0.4,19.97-0.79
		c1.96-0.11,3.94-0.04,5.9-0.05c4.62-0.02,9.24-0.05,13.85-0.08C273.01,189.23,274.3,188.93,275.04,190.11z"/>
	<path class="st1" d="M109.89,189.75c-2.69,0.64-5.21-0.53-7.82-0.74c0.02-1.3,0-2.6,0.06-3.89c0.07-1.41,0.95-1.97,2.26-1.96
		c0.98,0.01,2.41,0.07,2.32,1.17C106.47,187.03,108.97,187.88,109.89,189.75z"/>
	<path class="st4" d="M271.93,188.98c-4.62,0.03-9.24,0.05-13.85,0.08C261.38,185.26,268.23,185.22,271.93,188.98z"/>
	<path class="st1" d="M329.11,189.01c1.97,0.06,3.95,0.12,5.92,0.18c-0.02,0.26-0.04,0.52-0.08,0.77c-2.88,0.32-5.77,0.65-8.65,0.97
		c-2.62-1.19-5.45-0.51-8.16-0.96C321.66,188.06,325.48,189.63,329.11,189.01z"/>
	<path class="st3" d="M328.03,178.11c-0.23,1.59-0.8,3.01-2.05,4.09c-1.72-0.28-1.96-1.61-2.13-2.98c0.24-1.13,0.74-2,2.07-2
		C326.62,177.51,327.32,177.81,328.03,178.11z"/>
	<path class="st2" d="M650.02,188.01c19.39-0.04,38.79-0.09,58.18-0.13c0.87,0.03,1.74,0.06,2.61,0.09
		c1.45,0.19,2.95,0.12,3.27,2.21c0.64,4.23,2.19,8.19,3.68,12.2c0.98,2.64,0.29,5.33-2,7.66c-2.73,2.77-5.89,4.68-9.27,6.42
		c-2.29,1.18-4.11,2.79-2.38,5.74c0.31,0.31,0.62,0.63,0.92,0.94c0,0-0.05-0.04-0.05-0.04c-0.29,4.55,4.05,7.54,4.05,12
		c-2.13,1.21-3.96,1.36-5.19-1.28c-0.5-1.07-1.39-1.93-2.72-1.46c-1.42,0.49-1.07,1.82-1.13,2.91c-0.05,0.97-0.09,1.95-0.13,2.92
		c-5.64-4.37-7.46-11.25-10.95-17.01c-1.46-2.41,1.56-5.16,4.97-4.82c0.98,0.1,1.92,0.54,2.91,0.66c0.94,0.12,1.91,0.03,2.77,0.03
		c0.43-1.52-0.23-2.4-1.1-2.83c-7-3.43-13.25-8.43-20.86-10.53c-8.86-2.45-17.28-5.78-25.02-10.76c-2.01-1.29-3.77-1-5.52,0.26
		c-2.05,1.48-2.19,3.53-1.63,5.8c0.6,2.4,1.46,4.54,4.42,4.55c6.43,0.02,12.36,2.2,18.4,4.05c3.24,0.99,6.17,2.38,8.77,4.52
		c0.65,1.04,1.3,2.09,1.95,3.13c0.76,2.91,1.52,5.82,2.28,8.73c-5.21,4.1-10.45,4.52-15.93,0.39c-1.27-0.96-3.04-1.28-4.6-1.84
		c-1.64-0.59-2.71-0.04-2.61,1.76c0.31,5.71-5.98,9.54-4.37,15.72c0.32,1.23-1.37,2.17-2.9,2.02c-1.62-0.16-0.99-1.35-0.92-2.25
		c0.16-1.92-0.48-3.49-2.55-3.53c-2.36-0.05-5.22-1.17-6.87,1.46c-1.08,1.73-0.17,3.54,1.08,5.02c0.77,0.91,2.85,1.33,1.71,2.98
		c-1,1.44-2.88,1.35-4.57,1.46c-2.48,0.16-5.39-2.91-7.28,0.15c-1.37,2.22,1.25,4.64,1.4,7.08c0.24,4.1,1.66,7.1,6.17,7.72
		c4.59,0.63,6.3-1.45,4.5-5.74c-0.69-1.64-2.59-3.48-0.49-4.75c2.55-1.54,3.23,1.21,4.14,2.89c0.73,1.34,2.04,1.61,3.34,1.91
		c4.13,0.96,7.47,2.95,8.74,7.24c0.43,1.48,4.22,2.63,0.86,4.55c-2.66,1.52-5.29,5.65-8.74,0.9c-0.86-1.18-2.04-2.68-3.57-0.9
		c-1.28,1.5-1.09,3.12,0.78,4.16c1.66,0.92,3.47,2.01,2.95,4.09c-0.6,2.38-2.97,1.45-4.68,1.7c-6.44,0.92-11.49,3.94-14.74,9.74
		c-0.89,1.58-1.79,3.19-2.92,4.6c-2.19,2.74-2.8,5.51-1.12,8.76c0.97,1.87,2.31,4.12-1.2,5.05c-0.56-0.01-1.13-0.02-1.69-0.02
		c-1.38-0.09-2.81-0.51-4,0.62c-0.72,0.12-1.44,0.24-2.16,0.37c-2.49,1.29-5.17,1.01-7.76,0.73c-3.52-0.38-6.89-0.09-10.2,1.12
		c-0.37-0.29-0.72-0.83-1.1-0.84c-9.96-0.43-20.01-0.92-29.9-0.69c-17.15,0.4-34.28,0.46-51.42,0.33c0.16-2.6,0.33-5.21,0.49-7.81
		c1.52,0.97,0.35,2.89,1.4,4.08c1.33-1.25-0.35-5.04,2.6-4.28c4.53,1.16,4.37-3.2,6.46-4.74c1.4-1.04-1.47-5.46-3.27-4.81
		c-6.64,2.39-4.12-1.55-3.17-4.38c0.38-1.13,1-2.2-0.2-3.14c-1.08-0.85-2.22-0.68-3.14,0.25c-0.8,0.81-1.3,2.04-2.7,0.74
		c-2.23-2.07-4.62-1.12-6.97-0.23c-1.45,0.55-3.15,1.1-4.14-0.31c-1.84-2.65-4.76-2.89-7.36-3.71c-4.87-1.53-9.31-3.49-11.87-8.28
		c-0.62-1.17-1.61-2.74-3.01-2.06c-4.9,2.41-7.95-1.19-11.54-3.14c-0.47-6.84-0.94-13.67-1.41-20.51c-0.32-0.51-0.64-1.02-0.95-1.53
		c-1.4-3.27-0.22-7.51-3.79-9.95c-4.04-0.38-5.73-3.41-7.81-6.36c-3.02-4.26-6.45-8.13-8.67-13.02c-2.22-4.88-7.95-6.14-11.71-9.52
		c-1.28-1.11-2.56-2.21-3.84-3.32c-0.64-3.92-1.28-7.84-1.93-11.76c7.29,0.01,14.57,0.01,21.86,0.02c4.73-0.77,9.48-0.59,14.22-0.15
		c4.91,0,9.83,0,14.74,0c5.06,0.01,10.12,0.02,15.18,0.03c3.29-0.01,6.58-0.03,9.86-0.04c1.34-0.24,2.69-0.47,4.03-0.71
		c5.01,2.31,9.9-0.33,14.85-0.34c0.45,0.02,0.9,0.04,1.35,0.06c7.9,1.28,15.81,0.43,23.72,0.01c10.91-0.08,21.82,0.76,32.73-0.58
		c3.45-0.42,7.06,2.03,10.56-0.24c4.57-0.06,9.14-0.12,13.7-0.18c5.75-0.01,11.5-0.01,17.24-0.02
		C634.09,187.96,642.05,187.98,650.02,188.01z M700.54,208.31c1.33-1.45,5.56,1.77,5.19-2.66c-0.25-3.03-0.32-6.71-3.01-8.98
		c-0.82-0.69-8.59,8.22-8.15,9.59C695.53,209.18,698.19,207.67,700.54,208.31z M501.62,261.05c-1.64,0.08-3.45-0.16-3.56,2.34
		c-0.09,2.29,1.24,2.78,3.17,2.73c2.06-0.05,3.69-0.63,3.67-3.03C504.87,260.89,503.11,261.13,501.62,261.05z M477.04,264.07
		c0.06,1.33-0.04,2.8,1.85,2.91c1.86,0.11,2.14-1.17,2.11-2.63c-0.03-1.42-0.42-2.78-2.02-2.98
		C476.95,261.12,477.15,262.77,477.04,264.07z"/>
	<path class="st3" d="M469.84,244.01c0.32,0.51,0.64,1.02,0.96,1.53c-1.16,1.25-0.71,2.81-0.76,4.25
		c-0.29,8.42,0.05,16.82,1.2,25.17c-0.2,2.88-0.49,5.77,0.39,9.47c3.09-3.75,3.05-6.55,0.33-9.34c0.08-3.01,0.17-6.03,0.25-9.04
		c3.58,1.96,6.64,5.55,11.54,3.14c1.39-0.68,2.38,0.89,3.01,2.06c2.56,4.79,7,6.75,11.87,8.28c2.6,0.82,5.52,1.06,7.36,3.71
		c0.99,1.41,2.69,0.87,4.14,0.31c2.35-0.89,4.75-1.84,6.97,0.23c1.4,1.3,1.9,0.07,2.7-0.74c0.92-0.93,2.05-1.1,3.14-0.25
		c1.2,0.94,0.58,2.01,0.2,3.14c-0.95,2.83-3.48,6.77,3.17,4.38c1.8-0.65,4.67,3.78,3.27,4.81c-2.09,1.55-1.93,5.9-6.46,4.74
		c-2.95-0.75-1.27,3.03-2.6,4.28c-1.04-1.19,0.13-3.1-1.4-4.08c-0.94-1.57-2.3-2.25-4.14-2.02c-13.48,1.7-26.98,0.43-40.48,0.34
		c-11.63-0.09-23.27-0.19-34.9-0.27c-1.03-0.01-1.99,0.19-2.57,1.18c-2.99-3.03-3.04-7.62,0.3-9.12c1.56-0.7-0.06-2.92,1.93-2.7
		c1.98,1.03-0.29,5.63,2.82,4.54c2.48-0.87,0.15-3.82-0.74-5.52c-3.82-7.26-4.24-14.88-2.89-22.76c0.27-0.18,0.45-0.43,0.56-0.74
		c0,0-0.08,0.02-0.08,0.02c2.76,0.03,5.07-0.94,6.89-3.04c0.79-0.23,1.68-0.83,2.35-0.64c9.88,2.76,14.61-3.56,18.94-10.61
		C468.06,247.18,468.93,245.58,469.84,244.01z"/>
	<path class="st0" d="M474.5,298.39c13.5,0.1,27,1.36,40.48-0.34c1.85-0.23,3.2,0.45,4.14,2.02c-0.16,2.6-0.33,5.21-0.49,7.81
		c-4.93,0.07-9.86,0.25-14.79,0.18c-2.33-0.03-3.81,0.64-4.24,3.03c-5.05,6.52-10.2,12.96-15.12,19.57
		c-6.17,8.27-6.89,8.58-16.95,5.5c-1.13-8.69-2.57-17.31-5-25.76c-0.62-2.18-0.32-4.61-0.53-6.91c-0.23-2.5,0.64-3.69,3.34-3.43
		C468.51,300.36,471.6,299.84,474.5,298.39z"/>
	<path class="st5" d="M499.59,311.09c0.43-2.39,1.91-3.07,4.24-3.03c4.93,0.07,9.86-0.1,14.79-0.18
		c17.14,0.13,34.27,0.07,51.42-0.33c9.89-0.23,19.93,0.25,29.9,0.69c0.38,0.02,0.74,0.55,1.1,0.84c-0.97,3.47-3.67,5.86-5.61,8.69
		c-1.4,2.05-3.98,1.95-5.8,0.58c-2.3-1.73-1.45-6.72,1.77-9.25c-3.76,0-6.98-0.02-10.19,0.01c-1.14,0.01-2.68-0.17-2.88,1.3
		c-0.62,4.54-4.09,3.95-6.87,3.58c-5.08-0.67-8.68,1.41-11.47,5.22c-1.7,2.33-3.4,3.73-6.15,1.78c-2.47-1.75-4.82,0.18-7.24,0.16
		c-12.82-0.11-25.65-0.14-38.47-0.01c-3.37,0.03-4.9-1.26-5.15-4.54C502.82,314.25,502.33,311.94,499.59,311.09z M538.15,313.87
		c-3.81-0.72-7.64-1.34-12.55,0.31C531.42,315.4,534.18,315.36,538.15,313.87z"/>
	<path class="st5" d="M380.98,190.93c-10.96,0.31-21.93,0.82-32.85-0.82c-0.63-2.79,0.9-4.76,2.54-6.69
		c1.45-1.71,3.61-3.04,2.79-5.89c-0.33-1.15,0.53-2.11,1.55-2.15c4.41-0.16,8.65-2.38,13.25-0.77c2.47,0.86,5.16,1.31,7.78,1.45
		c5.19,0.28,10.6-0.72,15.05,3.1c-0.03,0.66-0.06,1.32-0.09,1.98C387.19,183.92,385.02,188.39,380.98,190.93z"/>
	<path class="st4" d="M437.85,205.15c3.76,3.38,9.5,4.65,11.71,9.52c2.22,4.89,5.66,8.76,8.67,13.02c2.08,2.94,3.78,5.98,7.81,6.36
		c-5.42,0.28-10.86-0.4-16.29,0.89c-3.71,0.89-6.16-0.55-6.89-4.93c-1.11-6.65-2.25-13.36-5.46-19.45
		C436.44,208.7,436.41,206.85,437.85,205.15z"/>
	<path class="st2" d="M474.5,298.39c-2.9,1.45-5.99,1.97-9.17,1.66c-2.7-0.26-3.57,0.93-3.34,3.43c0.21,2.31-0.09,4.74,0.53,6.91
		c2.43,8.45,3.87,17.07,5,25.76c-1.88,0.23-3.56-0.45-5.23-1.19c0.74-1.6,0.65-3.1-0.14-4.74c-3.26-6.71-5.35-13.84-7.18-21.05
		c1.86-3.16-1.43-6.77,1.58-10c-3.01,0-5.29,0-7.57,0c-3.73,0.07-7.45,0.13-11.18,0.2c-0.26,0.02-0.52-0.01-0.77-0.1
		c0.59-0.99,1.54-1.19,2.57-1.18C451.23,298.21,462.86,298.3,474.5,298.39z"/>
	<path class="st4" d="M454.96,309.19c1.83,7.21,3.92,14.34,7.18,21.05c0.79,1.63,0.89,3.13,0.14,4.74
		c-0.41,0.02-0.81,0.04-1.22,0.07c-3.47-3.36-4.52-8.19-7.26-11.99c0.01-1.27,0.02-2.55,0.03-3.83c0.03-5.31-2.72-9.33-6.87-10.05
		c-1.96-0.44-3.6-1.13-4.19-3.4c-0.73-2.79-3.03-4.48-4.97-6.39c3.72-0.07,7.45-0.13,11.18-0.2
		C450.31,302.92,452.22,306.31,454.96,309.19z"/>
	<path class="st5" d="M409.9,211.2c3.01-0.74,6.1-1.27,9.02-2.28c3.21-1.1,6.69-2.07,6.22-6.87c-0.25-2.49,2.68-1.87,3.96-2.95
		c0.96,1.4,2.55,1.86,3.92,2.66c-0.57,2.28-2.03,4.33-1.43,6.92c0.29,1.26-1.02,1.37-1.94,1.58c-2.46-0.22-4.11,2.06-6.48,2.1
		c-2.04-2.34-3.97-1.37-5.27,0.61c-1.45,2.21,0.28,3.52,2.93,4.73c-5.6,0.84-10.12,1.15-13.02-3.85
		C408.54,213,410.35,212.99,409.9,211.2z"/>
	<path class="st5" d="M375.76,313.24c-2.34,1.05-3.22,3.96-5.64,2.15c-1.21-0.91-1.3-2.34-0.73-3.62c1.02-2.27,2.91-3,5.32-2.58
		c1.1,0.2,2.07,0.83,3.35,0.44c4.2-1.25,6.81,0.72,7.76,4.65c0.53,2.19-0.2,4.37-3.01,4.76C378.73,319.6,375.92,318.3,375.76,313.24
		z"/>
	<path class="st5" d="M453.81,323.06c2.74,3.8,3.79,8.63,7.26,11.99c-1.25,0.22-2.56-0.17-3.73,0.83c-3.28,2.81-7.17,1.34-9.52-1.9
		c-2.57-3.55-2.42-4.72,1.89-5.41C452.64,328.1,450.9,323.78,453.81,323.06z M451.98,334.05c0.47-0.18,1.48,0.21,1.17-0.9
		c-0.1-0.35-0.67-0.68-1.09-0.81c-0.64-0.2-1.4-0.09-1.48,0.71C450.49,333.93,451.3,333.95,451.98,334.05z"/>
	<path class="st4" d="M380.98,190.93c4.04-2.55,6.21-7.01,10.02-9.8c0.39,1.52-0.79,4.81,2.93,2.57c1.02-0.62,1.94-0.33,2.51,0.69
		c0.63,1.12-0.2,1.87-0.87,2.57c-2.09,2.15-4.21,4.31-7.58,3.98c-1.43-0.14-2.58,0.33-3.62,1.23
		C383.23,191.76,382.11,191.35,380.98,190.93z"/>
	<path class="st2" d="M423.17,212.37c2.37-0.04,4.02-2.33,6.48-2.1c2.99,2.31,6.04,4.59,7.26,8.39c0.31,0.97,1.53,2.13,0.24,3.09
		c-1.12,0.82-2.55,0.64-3.76,0.02c-0.7-0.36-1.56-0.95-1.79-1.63c-1.43-4.23-3.45-7.35-8.76-6.28
		C422.22,213.98,423.05,212.9,423.17,212.37z"/>
	<path class="st4" d="M322.55,338.23c-2.85-0.56-5.49,0.92-8.31,0.86c-1.89-0.04-3.95,0.01-3.93-2.54c0.02-2.17,1.81-2.41,3.59-2.4
		c2.97,0.02,5.93-0.05,8.9-0.03c1.85,0.01,4.05,0.08,3.88,2.62C326.49,339.72,324.24,338.53,322.55,338.23z"/>
	<path class="st3" d="M433.03,201.76c-1.37-0.79-2.96-1.26-3.92-2.66c-3.13-3.96-1.54-8.67-2.08-13.05
		c0.66-0.01,1.32-0.01,1.98-0.02c1.05,0.72,2.1,1.43,3.15,2.15c-0.02,0.63-0.04,1.26-0.06,1.9c0.64,3.92,1.28,7.84,1.93,11.76
		c0,0-0.5,0-0.5,0L433.03,201.76z"/>
	<path class="st5" d="M370.73,279.32c-1.72-4.68-2.82-8.52-0.16-12.47c1.21-1.8,2.17-1.57,3.47-0.2c2.76,2.9,2.49,6.1-0.67,8.95
		C372.46,276.42,371.91,277.62,370.73,279.32z"/>
	<path class="st3" d="M419.78,230.41c0.8,1.26,1.6,2.52,2.39,3.78c0,0-0.1-0.08-0.1-0.08c-3.29,0.79-5.15,3.04-6.18,6.11l-0.39-0.11
		c-0.54,0.35-1.09,0.7-1.63,1.05c-0.92-0.02-1.85-0.04-2.77-0.06c-1.91-5.28,2.31-7.73,5.03-10.87
		C417.35,230.29,418.56,230.35,419.78,230.41z"/>
	<path class="st5" d="M220.81,339.08c-1.81-0.64-5.82,1.4-6.11-1.24c-0.36-3.25,3.92-1.05,5.92-2.28c1.24-0.76,3.2-0.44,4.84-0.44
		c1.41,0,3.25-0.36,3.38,1.84c0.13,2.23-1.65,2.07-3.12,2.11C224.22,339.11,222.73,339.08,220.81,339.08z"/>
	<path class="st2" d="M411.1,241.1c0.92,0.02,1.85,0.04,2.77,0.06c1.42,1,1.18-0.56,1.63-1.05c0,0,0.39,0.11,0.39,0.11
		c4.89,1.45,5.97,0.38,6.18-6.11c0,0,0.1,0.08,0.1,0.08c2.36,6.02,1.01,8.48-6.08,11.12c-0.68-0.1-1.36-0.19-2.03-0.29
		C413.69,243.25,410.53,243.59,411.1,241.1z"/>
	<path class="st5" d="M404.74,217.85c0.4,0.23,0.83,0.72,1.18,0.66c2.58-0.4,3.69,1.13,3.97,3.25c0.24,1.83-0.5,4.41-2.08,4.48
		c-2.27,0.11-3.61-2.29-4.68-4.32C404.77,221.01,403.39,218.89,404.74,217.85z"/>
	<path class="st5" d="M419.78,230.41c-1.22-0.06-2.43-0.12-3.65-0.18c-0.12-2.35-0.86-4.51-2-6.53c-0.48-0.85-1.32-1.81,0.11-2.37
		c0.99-0.38,2.64-0.82,3.02,0.51C418.08,224.71,421.3,226.89,419.78,230.41z"/>
	<path class="st4" d="M205.94,334.98c1.83,0.55,4.9-0.7,4.56,1.76c-0.34,2.47-3.63,2.03-5.8,2.25c-1.39,0.14-3.51,0.48-3.44-1.62
		C201.38,333.86,204.49,335.78,205.94,334.98z"/>
	<path class="st4" d="M279.76,336.55c-0.21,2.18-1.84,2.97-3.45,3.07c-1.52,0.1-3.75,0-3.95-2.08c-0.21-2.15,1.52-3.24,3.55-3.3
		C277.61,334.19,279.22,334.67,279.76,336.55z"/>
	<path class="st5" d="M446.96,309.19c4.15,0.72,6.91,4.74,6.87,10.05C449.06,317.59,448.23,313.24,446.96,309.19z"/>
	<path class="st3" d="M404.74,217.85c-1.35,1.04,0.03,3.15-1.62,4.07c-2.2-6.87-0.48-9.59,6.77-10.72c0.46,1.79-1.36,1.8-2.09,2.66
		C405.98,214.57,405.43,216.26,404.74,217.85z"/>
	<path class="st5" d="M374.03,305.09c-1.72-0.02-3.95-0.23-3.66-2.31c0.44-3.14,3.62-1.03,5.36-1.99c1.38-0.76,2.27-0.06,2.18,1.5
		C377.77,304.73,376.01,305.1,374.03,305.09z"/>
	<path class="st4" d="M293.12,339.1c-1.58,0.02-3.23-0.06-2.99-2.26c0.23-2.05,1.92-2.57,3.64-2.66c1.71-0.09,3.06,0.7,2.99,2.55
		C296.69,339,294.87,339.11,293.12,339.1z"/>
	<path class="st5" d="M625.16,306.24c0.56,0.01,1.13,0.02,1.69,0.02c1.81,1.5,4.69-0.12,6.58,2.88c-4.98,0-9.67,0-14.37,0
		c-0.02-0.64-0.04-1.28-0.06-1.92c0.72-0.12,1.44-0.24,2.16-0.36C622.55,307.03,623.95,307.24,625.16,306.24z"/>
	<path class="st4" d="M288.5,334.92c-0.5,0.98-0.92,2.07-1.56,2.99c-1.01,1.44-2.55,1.47-3.96,0.82c-1.1-0.5-1.75-1.69-1.44-2.87
		c0.47-1.84,1.93-1.31,3.22-0.99C285.96,335.18,287.14,333.47,288.5,334.92z"/>
	<path class="st3" d="M396.09,173.07c-0.03-0.29-0.01-0.59,0.05-0.88c3.67,0.26,7.64-1.29,10.82,1.83
		C403.08,176.65,399.62,174.35,396.09,173.07z"/>
	<path class="st4" d="M269.91,336.75c-0.83,2.23-3.41,0.97-4.99,1.99c-0.98,0.64-1.94-0.4-1.66-1.6c0.51-2.21,2.51-2.52,4.3-2.72
		C268.77,334.28,269.8,334.99,269.91,336.75z"/>
	<path class="st2" d="M445.82,259.98c-1.82,2.1-4.14,3.07-6.89,3.04C440.45,257.36,440.91,257.16,445.82,259.98z"/>
	<path class="st2" d="M429,186.04c-0.66,0.01-1.32,0.01-1.98,0.02c-1.24-1.09-2.47-2.17-3.71-3.26c0.04-1.09-0.77-2.49,0.49-3.15
		c0.97-0.51,1.76,0.59,2.46,1.26C427.72,182.32,428.7,184,429,186.04z"/>
	<path class="st5" d="M414.06,245.03c0.68,0.1,1.36,0.19,2.03,0.29c-0.15,1.13-0.01,2.4-0.51,3.35c-0.72,1.39-0.2,4.51-2.73,3.66
		c-1.69-0.57-0.96-3.17-0.37-4.84C412.8,246.59,413.52,245.84,414.06,245.03z"/>
	<path class="st4" d="M303.05,335.76c-0.15,1.49,0.09,3.12-1.94,2.94c-1.37-0.12-1.87-1.25-1.92-2.5c-0.06-1.5,0.53-2.68,2.16-2.74
		C303.04,333.41,302.84,334.88,303.05,335.76z"/>
	<path class="st3" d="M605.35,335.29c1.67-1.81,2.95-3.73,5.71-2.86c0.77,0.25,0.62,1.14,0.22,1.67
		C609.82,336,608.03,336.71,605.35,335.29z"/>
	<path class="st4" d="M308.05,335.71c-0.18,1.2,0.32,2.97-1.56,3.02c-1.55,0.04-1.43-1.5-1.43-2.61c0.01-1.11-0.13-2.53,1.36-2.74
		C308.18,333.13,307.92,334.63,308.05,335.71z"/>
	<path class="st2" d="M439,263c-0.11,0.31-0.29,0.56-0.56,0.74C438.63,263.5,438.82,263.25,439,263z"/>
	<path class="st4" d="M700.33,326.49c-1.51-6.52,3.07-9.83,7.28-12.52c2.19-1.4,4.28,2.01,5.09,4.09c0.95,2.43,0.78,5.13-1.42,7.37
		c-2.57,2.6-5.55,4.31-9.15,4.36C700.3,329.81,700.07,327.94,700.33,326.49z"/>
	<path class="st2" d="M670.98,280.82c-0.04,2.05-0.13,4.09-2.92,1.91c-3.03-2.36-5.93-0.52-8.9,0.12c-1.26,0.27-2.79,0.74-3.65-0.58
		c-0.94-1.42,0.32-2.42,1.2-3.39c0.67-0.73,1.53-1.37,1.94-2.23c1.26-2.63,2.71-4.55,6.06-3.16
		C668.06,274.9,671.06,276.52,670.98,280.82z"/>
	<path class="st1" d="M638.44,321.39c0.73-2.84,0.39-5.58-0.4-8.59C642.04,315.98,642.12,317.58,638.44,321.39z"/>
	<path class="st3" d="M704.12,222.2c-1.73-2.95,0.08-4.56,2.38-5.74c3.39-1.74,6.54-3.65,9.27-6.42c2.29-2.33,2.99-5.02,2-7.66
		c-1.5-4.01-3.04-7.97-3.68-12.2c-0.32-2.09-1.82-2.02-3.27-2.21c0.96-0.81,2.13-0.85,3.3-0.86c21.14-0.08,42.29,0.01,63.43-0.84
		c1.31-0.05,2.68-0.26,3.88,0.56c-0.78,4.46-3.77,8.11-4.52,12.63c-0.38,2.29-2.57,1.76-4.12,1.54c-2.09-0.29-2.06-2.16-1.69-3.53
		c1.59-5.81-2-4.66-5.1-3.81c-4.59,1.26-8.05,3.76-8.92,8.9c-0.27,1.6-0.95,3.16-1.63,4.66c-2.36,5.22-0.94,8.56,4.84,9.81
		c3.21,0.69,3.13,1.67,1.45,3.85c-4.37,5.68-7.24,6.11-12.78,1.58c-1.42-1.16-2.86-1.67-4.58-1.19c-1.6,0.45-1.67,2.05-1.88,3.25
		c-0.35,2.01,1.11,3.18,2.82,3.47c2.88,0.5,5.66,5.19,8.84,0.36c0.21-0.32,2.07-0.19,2.26,0.19c1.62,3.21,3.4,6.43,4.36,9.86
		c0.46,1.64-1.6,1.56-2.31,0.51c-4.11-6.11-7.77-4.94-11.44,0.41c-0.39,0.57-1.46,0.67-2.23,0.97c-2.94,1.17-4.25,2.92-2.69,6.18
		c0.92,1.92,1.37,4.07,1.98,6.13c0.42,1.41,1.09,2.76,2.72,1.89c1.88-1,3.74-2.32,4.91,0.42c1.22,2.85,2.54,5.95,0.03,8.9
		c-0.86,1.01-1.79,2.15-3.22,2.18c-4.43,0.1-4.82,3.36-4.15,6.24c0.63,2.71,0.13,4.78-0.86,7.13c-1.01,2.41-2.09,4.89-1.06,7.69
		c0.87,2.34-1.21,3.13-2.59,4.22c-7.31-5.94-11.13-14.22-14.91-22.48c-2.19-4.8-4-9.78-5.98-14.67
		c-3.02-9.76-7.64-18.88-11.33-28.37c-0.45-1.16-1.12-2.44-2.66-2.67c0,0,0.05,0.04,0.05,0.04
		C704.73,222.82,704.43,222.51,704.12,222.2z"/>
	<path class="st1" d="M791.17,156.28c2.28-0.06,4.57-0.11,6.85-0.17c-0.23,2.55-1.95,2.99-4.09,3
		C791.96,159.12,790.83,158.46,791.17,156.28z"/>
	<path class="st3" d="M699.87,238.18c0.04-0.97,0.08-1.95,0.13-2.92c0.06-1.1-0.29-2.42,1.13-2.91c1.34-0.47,2.22,0.39,2.72,1.46
		c1.24,2.64,3.06,2.49,5.19,1.28c2.89,6.75,5.78,13.5,8.67,20.25c0.28,2.95,1.99,5.7,1.27,8.79l0.06-0.06
		C712.08,255.87,705.97,247.02,699.87,238.18z"/>
	<path class="st5" d="M717.72,255.34c-2.89-6.75-5.78-13.5-8.67-20.25c0-4.45-4.34-7.45-4.05-12c1.54,0.23,2.21,1.51,2.66,2.67
		c3.7,9.49,8.31,18.62,11.33,28.37C718.56,254.54,718.14,254.94,717.72,255.34z"/>
	<path class="st5" d="M678.97,215.22c-0.65-1.04-1.3-2.09-1.95-3.13c3.64-1.3,7-0.9,10.15,1.35
		C684.7,216.12,680.9,210.61,678.97,215.22z"/>
	<path class="st3" d="M718.99,264.13c0.13,0.04,0.26,0.08,0.39,0.12c-0.11-0.06-0.22-0.12-0.33-0.18
		C719.05,264.07,718.99,264.13,718.99,264.13z"/>
	<path class="st3" d="M448.01,174.09c0-2.02,0.42-4.06,2.81-3.83c2.59,0.25,5.61,1.25,5.72,4.28c0.06,1.74,0.19,3.17,1.12,4.53
		c0.84,1.24,2.09,2.51,0.42,3.84c-1.48,1.18-3.47,1.96-5.01,0.49C450.44,180.88,448.22,177.98,448.01,174.09z"/>
	<path class="st5" d="M650.02,188.01c-7.96-0.02-15.93-0.05-23.89-0.07c0.72-2.8,2.94-3.05,5.1-2.54c4.14,0.99,8.14,0.79,12.28-0.12
		C646.04,184.71,648.91,184.58,650.02,188.01z"/>
	<path class="st5" d="M551.89,188.95c-7.91,0.43-15.81,1.28-23.72-0.01c0.99-0.56,2.14-1.76,2.95-1.57
		C537.98,189.03,545.21,185.57,551.89,188.95z"/>
	<path class="st5" d="M526.83,188.89c-4.95,0.02-9.85,2.65-14.85,0.34C516.84,185.06,521.85,187.73,526.83,188.89z"/>
	<path class="st1" d="M608.88,187.95c-4.57,0.06-9.14,0.12-13.7,0.18c-1.93-0.11-3.87-0.21-5.81-0.32c0-0.08,0.01-0.15,0.01-0.23
		c4.59-0.46,9.17-1.02,13.78-1.33C605.18,186.12,607.54,185.49,608.88,187.95z"/>
	<path class="st5" d="M432.09,190.08c0.02-0.63,0.04-1.26,0.06-1.9c5.51,1.25,11.12,0.82,16.7,0.93c1.73,0.04,3.67-0.68,5.11,0.98
		C446.66,190.09,439.37,190.09,432.09,190.08z"/>
	<path class="st5" d="M507.95,189.94c-3.29,0.01-6.58,0.03-9.86,0.04C500.94,186.28,504.16,186.27,507.95,189.94z"/>
	<path class="st5" d="M482.91,189.95c-4.91,0-9.83,0-14.74,0C473.08,187.8,477.99,187.02,482.91,189.95z"/>
	<path class="st3" d="M461.51,160.25c1.23,0.25,2.31,0.67,2.16,1.85c-0.19,1.49-1.17,3.01-2.5,3.35c-1.36,0.35-1.73-1.35-1.72-2.42
		C459.46,161.67,460.12,160.51,461.51,160.25z"/>
	<path class="st5" d="M591.12,168.33c1.25,0.55,2.96,0.78,2.64,2.79c-0.17,1.04-0.98,1.86-2.06,1.56c-1.28-0.36-2.28-1.32-2.44-2.74
		C589.1,168.67,589.9,168.23,591.12,168.33z"/>
	<path class="st2" d="M267.02,219.75c-0.02,1.64-0.56,3.05-2.4,3.12c-1.83,0.06-2.7-1.28-2.49-2.93c0.22-1.71,0.49-4.1,2.63-4.05
		C266.44,215.93,267.08,217.96,267.02,219.75z"/>
	<path class="st2" d="M254.04,210.98c0.02-1.73,0.2-3.52,2.39-3.6c1.59-0.06,1.52,1.41,1.5,2.56c-0.03,1.81-0.83,3.48-2.6,3.68
		C253.7,213.79,254.2,212.02,254.04,210.98z"/>
	<path class="st3" d="M359.53,206.14c0.26,0.93,0.07,1.7-0.99,1.75c-1.61,0.07-2.3-1.01-2.45-2.45c-0.11-1.03,0.11-2.14,1.37-2.15
		C359.3,203.27,358.95,205.1,359.53,206.14z"/>
	<path class="st3" d="M700.54,208.31c-2.35-0.64-5.02,0.87-5.97-2.05c-0.45-1.37,7.33-10.28,8.15-9.59c2.7,2.27,2.76,5.95,3.01,8.98
		C706.1,210.08,701.87,206.86,700.54,208.31z"/>
	<path class="st5" d="M472.21,266.04c-0.08,3.01-0.17,6.03-0.25,9.04c-0.24-0.04-0.48-0.08-0.72-0.12
		c-1.15-8.35-1.49-16.75-1.2-25.17c0.05-1.44-0.4-3,0.76-4.25C471.27,252.37,471.74,259.21,472.21,266.04z"/>
	<path class="st3" d="M501.63,261.05c1.48,0.08,3.24-0.16,3.27,2.04c0.03,2.4-1.6,2.98-3.67,3.03c-1.93,0.04-3.26-0.44-3.17-2.73
		C498.17,260.89,499.98,261.13,501.63,261.05z"/>
	<path class="st3" d="M477.04,264.06c0.12-1.29-0.08-2.95,1.95-2.69c1.6,0.2,1.98,1.56,2.02,2.98c0.04,1.46-0.25,2.74-2.11,2.63
		C477,266.87,477.1,265.4,477.04,264.06z"/>
	<path class="st3" d="M625.16,306.24c-1.21,1-2.61,0.79-4,0.62C622.35,305.73,623.78,306.15,625.16,306.24z"/>
	<path class="st5" d="M704.12,222.2c0.31,0.31,0.62,0.63,0.92,0.94C704.73,222.82,704.43,222.51,704.12,222.2z"/>
	<path class="st4" d="M471.24,274.96c0.24,0.04,0.48,0.09,0.72,0.12c2.72,2.79,2.77,5.59-0.33,9.34
		C470.75,280.73,471.03,277.84,471.24,274.96z"/>
	<path class="st3" d="M538.15,313.87c-3.97,1.48-6.73,1.53-12.55,0.31C530.51,312.53,534.34,313.15,538.15,313.87z"/>
	<path class="st3" d="M454.96,309.19c-2.74-2.89-4.65-6.27-5.99-10c2.28,0,4.56,0,7.57,0C453.53,302.43,456.82,306.03,454.96,309.19
		z"/>
	<path class="st1" d="M451.98,334.05c-0.68-0.1-1.49-0.12-1.4-1c0.08-0.81,0.84-0.91,1.48-0.71c0.42,0.13,1,0.46,1.09,0.81
		C453.46,334.26,452.45,333.87,451.98,334.05z"/>
	<path class="st4" d="M422.07,234.11c-0.21,6.49-1.29,7.56-6.18,6.11C416.92,237.15,418.78,234.9,422.07,234.11z"/>
	<path class="st4" d="M415.5,240.12c-0.45,0.49-0.21,2.05-1.63,1.05C414.41,240.82,414.96,240.47,415.5,240.12z"/>
</g>
<g>
</g>
<g>
</g>
<g>
</g>
<g>
</g>
<g>
</g>
<g>
</g>
<g>
</g>
<g>
</g>
<g>
</g>
<g>
</g>
<g>
</g>
<g>
</g>
<g>
</g>
<g>
</g>
<g>
</g>
</svg>
