<?xml version="1.0" encoding="utf-8"?>
<!-- Generator: Adobe Illustrator 17.1.0, SVG Export Plug-In . SVG Version: 6.00 Build 0)  -->
<!DOCTYPE svg PUBLIC "-//W3C//DTD SVG 1.1//EN" "http://www.w3.org/Graphics/SVG/1.1/DTD/svg11.dtd">
<svg version="1.1" id="Layer_1" xmlns="http://www.w3.org/2000/svg" xmlns:xlink="http://www.w3.org/1999/xlink" x="0px" y="0px"
	 viewBox="0 0 800 1132.06" style="enable-background:new 0 0 800 1132.06;" xml:space="preserve">
<g>
	<path d="M800,566.02c0,187.64,0,375.28-0.12,562.92c0,1.05-1.89,3.02-2.9,3.02c-264.71,0.13-529.42,0.13-794.13,0.01
		c-0.96,0-2.76-1.85-2.76-2.83C-0.03,753.74-0.03,378.34,0.1,2.95c0-0.99,2-2.85,3.07-2.85C267.76-0.03,532.36-0.03,796.95,0.1
		c1.02,0,2.92,1.95,2.92,3C800,190.74,800,378.38,800,566.02z M72.7,786.13c0,88.62-0.05,177.25,0.24,265.87
		c0.01,2.46,3.55,7.05,5.46,7.06c94,0.35,187.99,0.33,281.99,0.15c1.82,0,4.92-2.07,5.28-3.65
		c17.74-78.75,35.27-157.54,52.77-236.35c10.85-48.85,21.5-97.75,32.45-146.58c9.04-40.29,9.14-40.83-19.88-39.29
		c-105.76,5.64-211.49,11.72-317.25,17.31c-1.52,0.08-5.08-4.5-4.64-6.01c9.8-33.56,20.55-66.86,29.6-100.61
		c1.28-4.77-4.05-15.31-8.55-16.91c-16.06-5.72-33.03-9-49.81-12.43c-2.06-0.42-7.32,3.81-7.33,5.91
		C72.65,609.11,72.7,697.62,72.7,786.13z M726.6,723.81c0-109.2,0.01-218.39-0.06-327.59c0-2.23-0.84-4.46-1.28-6.69
		c-1.42,1.66-3.14,3.14-4.23,5c-9.48,16.26-17.41,35.88-41.73,17.96c-0.34-0.25-4.04,2.4-4.43,4.09
		c-15.3,66.76-30.37,133.58-45.68,200.34c-0.47,2.04-3.12,5.01-4.91,5.12c-46.63,3.03-93.27,5.86-139.92,8.39
		c-8.77,0.47-16.02,0.65-17.2,12.3c-1.05,10.39-4.1,20.58-6.37,30.84c-5.48,24.88-11.03,49.75-16.53,74.62
		c-8.48,38.36-17.03,76.7-25.39,115.08c-4.49,20.63-8.4,41.39-13,61.99c-9.41,42.22-19.22,84.35-28.36,126.62
		c-0.42,1.96,4.02,7.16,6.21,7.17c111.6,0.36,223.19,0.37,334.79-0.02c2.7-0.01,7.73-4.98,7.74-7.65
		C726.66,942.2,726.6,833,726.6,723.81z M123.57,641.51c8.57-0.55,14.84-0.99,21.11-1.36c81.55-4.78,163.1-9.54,244.64-14.33
		c74.36-4.36,148.73-8.66,223.07-13.42c3.36-0.21,8.65-4.22,9.33-7.28c20.27-91.28,40.11-182.65,59.64-274.08
		c0.36-1.7-4.34-6.59-5.93-6.27c-16.9,3.39-33.64,7.55-50.43,11.46c-96.74,22.53-193.5,45.03-290.24,67.58
		c-45.74,10.66-91.38,21.76-137.23,31.91c-11.63,2.57-18.9,6.81-21.22,19.48c-2.78,15.19-6.91,30.2-11.47,44.97
		c-14.05,45.45-28.61,90.75-42.78,136.16C121.57,637.92,123.14,640.15,123.57,641.51z M72.7,287.26c0,68.95-0.04,137.9,0.16,206.85
		c0.01,2.85,1.77,7.69,3.69,8.25c21.73,6.28,43.62,11.99,65.55,17.54c1.53,0.39,4.92-1.27,5.35-2.64
		c5.99-19.07,11.01-38.47,17.56-57.34c3.51-10.1,7.58-25.77,14.7-27.89c38.51-11.52,78.05-19.6,117.23-28.84
		c34.72-8.19,69.45-16.33,104.17-24.51c44.55-10.49,89.1-20.99,133.64-31.56c1.48-0.35,2.78-1.49,4.16-2.27
		c-1.28-1.03-2.42-2.36-3.87-3.05C456.62,304.22,378.15,266.72,299.8,229c-1.61-0.77-3.29-4.54-2.74-6.19
		c15.59-47.43,31.54-94.75,46.97-142.23c0.6-1.86-3.39-7.53-5.26-7.54c-86.21-0.38-172.43-0.39-258.64-0.02
		c-2.48,0.01-7.09,4.59-7.1,7.06C72.62,149.13,72.7,218.2,72.7,287.26z M726.6,221.47c0-47.34,0.09-94.68-0.27-142.02
		c-0.02-2.26-3.94-6.45-6.06-6.46C601,72.67,481.73,72.69,362.47,72.81c-1.94,0-5.1,1.1-5.63,2.48
		c-4.23,10.93-8.07,22.02-11.84,33.13c-12.2,35.93-24.4,71.87-36.26,107.91c-0.65,1.98,1.06,6.39,2.85,7.27
		c69.3,33.9,138.64,67.71,208.23,101c14,6.69,30.04,17.73,43.37,15.6c42.47-6.77,84.08-18.88,126.1-28.56
		c2.24-0.52,7.7,2.78,7.56,3.48c-4.64,23.41-9.97,46.68-14.71,70.07c-1.07,5.3-2.64,13.31,0.05,15.91
		c4.19,4.06,16.2,7.65,17.31,6.08c9.98-14.12,24.79-28.95,25.9-44.46C728.75,315.85,726.6,268.58,726.6,221.47z"/>
</g>
<g>
</g>
<g>
</g>
<g>
</g>
<g>
</g>
<g>
</g>
<g>
</g>
<g>
</g>
<g>
</g>
<g>
</g>
<g>
</g>
<g>
</g>
<g>
</g>
<g>
</g>
<g>
</g>
<g>
</g>
</svg>
