<?xml version="1.0" encoding="utf-8"?>
<!-- Generator: Adobe Illustrator 17.1.0, SVG Export Plug-In . SVG Version: 6.00 Build 0)  -->
<!DOCTYPE svg PUBLIC "-//W3C//DTD SVG 1.1//EN" "http://www.w3.org/Graphics/SVG/1.1/DTD/svg11.dtd">
<svg version="1.1" id="Layer_1" xmlns="http://www.w3.org/2000/svg" xmlns:xlink="http://www.w3.org/1999/xlink" x="0px" y="0px"
	 viewBox="0 0 800 1138.9" style="enable-background:new 0 0 800 1138.9;" xml:space="preserve">
<g>
	<path d="M800,569.44c0,188.77,0,377.55-0.13,566.32c0,1.06-1.9,3.04-2.92,3.04c-264.7,0.13-529.39,0.13-794.09,0.01
		c-0.96,0-2.77-1.86-2.77-2.85C-0.03,758.29-0.03,380.63,0.1,2.97c0-1,2.01-2.87,3.09-2.87C267.77-0.03,532.35-0.03,796.93,0.1
		c1.02,0,2.94,1.97,2.94,3.02C800,191.89,800,380.66,800,569.44z M726.86,339.05c0-45.44,0.07-90.88-0.25-136.32
		c-0.01-1.7-4.16-5.16-5.72-4.81c-31.72,7.04-63.37,14.36-94.97,21.94c-70.23,16.87-140.36,34.12-210.64,50.77
		c-22.36,5.3-45.19,8.62-67.57,13.85c-27.24,6.36-54.1,14.31-81.35,20.61c-33.94,7.84-68.16,14.5-102.17,22.04
		c-27.95,6.19-55.84,12.68-83.58,19.73c-3.08,0.78-7.16,6.09-7.17,9.31c-0.39,88.7-0.14,177.39-0.52,266.09
		c-0.05,11.17,4.03,10.54,11.99,7.58c5.29-1.97,11.18-2.3,16.74-3.6c86.89-20.19,173.77-40.42,260.65-60.65
		c33.7-7.85,67.39-15.77,101.1-23.59c85.66-19.87,171.34-39.63,256.91-59.82c2.7-0.64,6.24-5.57,6.27-8.53
		C726.99,428.78,726.87,383.92,726.86,339.05z M726.86,786.36c0-91,0.04-181.99-0.29-272.98c-0.01-1.89-4.82-5.74-6.68-5.35
		c-28.2,6.03-56.27,12.63-84.38,19.08c-42.12,9.67-84.36,18.8-126.26,29.34c-10.73,2.7-27.19-1.48-28.92,17.57
		c-0.49,5.41-2.6,10.68-3.96,16.02c-28.31,111.05-56.61,222.11-84.95,333.15c-11.47,44.96-23.13,89.88-34.24,134.93
		c-0.49,1.98,3.57,7.35,5.53,7.36c118.83,0.36,237.67,0.37,356.5,0c2.56-0.01,7.32-4.88,7.33-7.49
		C726.93,967.43,726.87,876.9,726.86,786.36z M73.13,860.51c0,66.14-0.06,132.27,0.25,198.41c0.01,2.3,3.64,6.57,5.59,6.58
		c82.47,0.33,164.94,0.33,247.41,0.07c2.24-0.01,5.94-2.84,6.49-4.99c23.96-93.58,47.69-187.23,71.35-280.89
		c17.31-68.53,34.52-137.09,51.51-205.71c0.27-1.09-3.17-4.55-4.39-4.32c-11.62,2.2-23.14,4.92-34.67,7.56
		c-52.38,12.01-104.76,24.06-157.14,36.08c-59.9,13.75-119.81,27.41-179.62,41.53c-2.75,0.65-6.46,5.43-6.48,8.3
		C73.05,728.92,73.13,794.71,73.13,860.51z M400.34,73.13c-106.4,0-212.79-0.06-319.19,0.33c-2.68,0.01-7.67,4.92-7.69,7.56
		c-0.42,77.98-0.4,155.97,0,233.95c0.01,2.06,5.51,6.28,7.66,5.81c34.26-7.41,68.39-15.42,102.54-23.29
		c108.3-24.97,216.59-49.95,324.89-74.9c65.05-14.98,130.18-29.68,195.12-45.15c8.22-1.96,21.81-7.42,22.15-12.06
		c2.09-27.91,1.26-56.06,0.69-84.11c-0.06-2.77-4.99-7.79-7.67-7.8C612.68,73.07,506.51,73.13,400.34,73.13z"/>
</g>
<g>
</g>
<g>
</g>
<g>
</g>
<g>
</g>
<g>
</g>
<g>
</g>
<g>
</g>
<g>
</g>
<g>
</g>
<g>
</g>
<g>
</g>
<g>
</g>
<g>
</g>
<g>
</g>
<g>
</g>
</svg>
