<?xml version="1.0" encoding="utf-8"?>
<!-- Generator: Adobe Illustrator 17.1.0, SVG Export Plug-In . SVG Version: 6.00 Build 0)  -->
<!DOCTYPE svg PUBLIC "-//W3C//DTD SVG 1.1//EN" "http://www.w3.org/Graphics/SVG/1.1/DTD/svg11.dtd">
<svg version="1.1" id="Layer_1" xmlns="http://www.w3.org/2000/svg" xmlns:xlink="http://www.w3.org/1999/xlink" x="0px" y="0px"
	 viewBox="0 0 800 1138.9" style="enable-background:new 0 0 800 1138.9;" xml:space="preserve">
<g>
	<path d="M0,569.45C0,380.66,0,191.87,0.13,3.08c0-1.04,1.94-2.98,2.98-2.98c264.61-0.13,529.21-0.13,793.82,0
		c1.04,0,2.98,1.94,2.98,2.98c0.13,377.58,0.13,755.16,0,1132.74c0,1.04-1.94,2.98-2.98,2.98c-264.61,0.13-529.21,0.13-793.82,0
		c-1.04,0-2.98-1.94-2.98-2.98C0,947.03,0,758.24,0,569.45z M400.01,1065.78c106.53,0,213.05,0.04,319.58-0.24
		c2.43-0.01,6.98-3.6,6.98-5.52c0.32-182.57,0.31-365.14,0.06-547.7c0-1.51-4.01-4.58-5.63-4.26c-12.63,2.49-25.13,5.64-37.68,8.56
		c-32.68,7.6-65.35,15.24-98.05,22.77c-98.76,22.76-197.58,45.29-296.28,68.3c-42.13,9.82-83.96,20.94-126.08,30.82
		c-27.58,6.47-55.48,11.57-83.09,17.89c-2.71,0.62-6.37,5.46-6.38,8.35c-0.32,131.14-0.32,262.29,0.04,393.43
		c0.01,2.55,4.75,7.29,7.29,7.3C187.19,1065.83,293.6,1065.78,400.01,1065.78z M400.03,73.14c-106.18,0-212.36-0.06-318.54,0.35
		c-2.78,0.01-7.97,5.17-7.98,7.93c-0.38,180.27-0.27,360.53-0.54,540.8c-0.02,10.28,3.37,10.75,11.45,7.69
		c5.17-1.96,10.91-2.37,16.36-3.63c72.23-16.72,144.46-33.42,216.67-50.2c61.68-14.34,123.34-28.79,185.01-43.15
		c72.64-16.91,145.32-33.71,217.88-50.96c2.7-0.64,6.25-5.54,6.26-8.47c0.31-130.8,0.32-261.6-0.06-392.4
		c-0.01-2.66-4.96-7.61-7.63-7.62C612.63,73.08,506.33,73.14,400.03,73.14z"/>
</g>
<g>
</g>
<g>
</g>
<g>
</g>
<g>
</g>
<g>
</g>
<g>
</g>
<g>
</g>
<g>
</g>
<g>
</g>
<g>
</g>
<g>
</g>
<g>
</g>
<g>
</g>
<g>
</g>
<g>
</g>
</svg>
