<?xml version="1.0" encoding="utf-8"?>
<!-- Generator: Adobe Illustrator 17.1.0, SVG Export Plug-In . SVG Version: 6.00 Build 0)  -->
<!DOCTYPE svg PUBLIC "-//W3C//DTD SVG 1.1//EN" "http://www.w3.org/Graphics/SVG/1.1/DTD/svg11.dtd">
<svg version="1.1" id="Layer_1" xmlns="http://www.w3.org/2000/svg" xmlns:xlink="http://www.w3.org/1999/xlink" x="0px" y="0px"
	 viewBox="0 0 800 1138.9" style="enable-background:new 0 0 800 1138.9;" xml:space="preserve">
<g>
	<path d="M0,569.45C0,380.66,0,191.87,0.13,3.08c0-1.04,1.94-2.98,2.98-2.98c264.61-0.13,529.21-0.13,793.82,0
		c1.04,0,2.98,1.94,2.98,2.98c0.13,377.58,0.13,755.16,0,1132.74c0,1.04-1.94,2.98-2.98,2.98c-264.61,0.13-529.21,0.13-793.82,0
		c-1.04,0-2.98-1.94-2.98-2.98C0,947.03,0,758.24,0,569.45z M726.88,466.65c0-46.71,0.16-93.42-0.42-140.12
		c-0.03-2.65-6.64-7.93-9.39-7.44c-35.63,6.32-71.12,13.48-106.65,20.39c-43.1,8.39-86.26,16.44-129.28,25.18
		c-55.02,11.17-109.95,22.77-164.82,34.68c-2.7,0.59-6.63,6.36-6.16,9.03c3.61,20.25,8.3,40.3,12.22,60.49
		c0.35,1.8-2.1,5.72-3.8,6.08c-18.62,3.98-37.35,7.46-56.06,11.05c-60.66,11.65-121.34,23.23-181.95,35.18
		c-2.79,0.55-7.06,4.42-7.07,6.76c-0.36,96.18-0.33,192.35-0.08,288.53c0,1.51,3.64,4.53,5.14,4.27
		c20.76-3.57,41.45-7.51,62.13-11.51c61.61-11.91,123.21-23.87,184.8-35.85c48.19-9.37,96.38-18.7,144.49-28.43
		c2.15-0.43,5.36-4.96,4.99-7.03c-3.88-21.73-8.55-43.31-12.44-65.03c-0.37-2.09,2.59-6.55,4.67-7.02
		c14.39-3.25,28.97-5.69,43.46-8.49c69.63-13.45,139.28-26.85,208.83-40.71c2.91-0.58,7.05-5.56,7.08-8.52
		C727.01,560.99,726.88,513.82,726.88,466.65z M400.38,1065.78c106.4,0,212.8,0.04,319.2-0.27c2.44-0.01,6.99-4.02,6.99-6.17
		c0.34-137.23,0.33-274.46,0.03-411.68c0-1.98-4.5-5.96-6.28-5.64c-75.4,13.82-150.74,27.99-226.03,42.44
		c-2,0.38-4.96,4.66-4.66,6.71c1.72,11.58,4.57,22.98,6.53,34.53c7.38,43.41,14.42,35.59-13.31,41.13
		c-84.08,16.8-168.28,32.97-252.44,49.37c-49.58,9.66-99.21,19.11-148.69,29.26c-3.39,0.69-8.18,6.43-8.21,9.86
		c-0.49,67.52-0.45,135.04-0.02,202.56c0.02,2.65,4.99,7.56,7.67,7.57C187.58,1065.83,293.98,1065.78,400.38,1065.78z M400.14,73.14
		c-106.3,0-212.6-0.06-318.9,0.33c-2.7,0.01-7.73,4.89-7.74,7.51c-0.38,136.55-0.37,273.11,0.01,409.67c0.01,2.15,5.6,6.54,7.83,6.1
		c36-7.16,71.78-15.39,107.8-22.45c33.31-6.53,66.85-11.89,100.24-18c1.94-0.35,5.19-3.09,4.98-4.19
		c-2.54-13.74-3.84-28.09-8.94-40.9c-7.56-19.01-2.58-33.16,14.47-36.31c71.87-13.28,143.68-26.92,215.45-40.71
		c68.17-13.1,136.29-26.47,204.35-40.14c2.83-0.57,6.86-5.35,6.88-8.18c0.39-68.33,0.39-136.67-0.03-205
		c-0.02-2.59-4.89-7.4-7.51-7.41C612.74,73.08,506.44,73.14,400.14,73.14z"/>
</g>
<g>
</g>
<g>
</g>
<g>
</g>
<g>
</g>
<g>
</g>
<g>
</g>
<g>
</g>
<g>
</g>
<g>
</g>
<g>
</g>
<g>
</g>
<g>
</g>
<g>
</g>
<g>
</g>
<g>
</g>
</svg>
