<?xml version="1.0" encoding="utf-8"?>
<!-- Generator: Adobe Illustrator 17.1.0, SVG Export Plug-In . SVG Version: 6.00 Build 0)  -->
<!DOCTYPE svg PUBLIC "-//W3C//DTD SVG 1.1//EN" "http://www.w3.org/Graphics/SVG/1.1/DTD/svg11.dtd">
<svg version="1.1" id="Layer_1" xmlns="http://www.w3.org/2000/svg" xmlns:xlink="http://www.w3.org/1999/xlink" x="0px" y="0px"
	 viewBox="0 0 800 1138.9" style="enable-background:new 0 0 800 1138.9;" xml:space="preserve">
<g>
	<path d="M0,569.45C0,380.66,0,191.87,0.13,3.08c0-1.04,1.94-2.98,2.98-2.98c264.61-0.13,529.21-0.13,793.82,0
		c1.04,0,2.98,1.94,2.98,2.98c0.13,377.58,0.13,755.16,0,1132.74c0,1.04-1.94,2.98-2.98,2.98c-264.61,0.13-529.21,0.13-793.82,0
		c-1.04,0-2.98-1.94-2.98-2.98C0,947.03,0,758.24,0,569.45z M73.17,860.97c0,65.92-0.06,131.84,0.24,197.76
		c0.01,2.35,3.59,6.73,5.52,6.74c116.42,0.33,232.85,0.32,349.28,0.07c2.21,0,5.84-2.94,6.4-5.13
		c14.92-57.76,29.51-115.6,44.17-173.43c18.29-72.19,36.57-144.37,54.87-216.56c10.17-40.12,20.43-80.23,30.23-120.44
		c0.36-1.48-4.09-6.08-5.5-5.76c-91.42,20.83-182.76,41.99-274.1,63.17c-67.87,15.74-135.76,31.43-203.52,47.63
		c-3.11,0.74-7.25,6.25-7.27,9.56C73.06,730.05,73.17,795.51,73.17,860.97z M399.99,73.14c-106.4,0-212.8-0.03-319.2,0.2
		c-2.53,0.01-7.27,3.02-7.27,4.64c-0.35,100.76-0.34,201.53-0.09,302.29c0,1.39,3.76,4.28,5.19,3.96
		c114.31-25.96,228.55-52.23,342.81-78.36c98.79-22.6,197.64-44.97,296.34-67.95c3.66-0.85,8.67-6.91,8.71-10.59
		c0.58-48.53,0.54-97.08,0.02-145.62c-0.03-2.89-5.43-8.2-8.35-8.21C612.1,73.07,506.05,73.14,399.99,73.14z M726.88,786.56
		c0-90.76,0.05-181.53-0.31-272.29c-0.01-2.1-5.08-6.36-7.04-5.96c-35.91,7.45-71.64,15.76-107.55,23.2
		c-13.19,2.73-19.8,6.46-23.22,22.74c-10.75,51.06-26.42,101.06-39.08,151.75c-19.86,79.56-38.49,159.43-58.28,239
		c-9.5,38.18-20.56,75.96-30.49,114.03c-0.44,1.68,3.33,6.45,5.15,6.45c84.55,0.33,169.1,0.34,253.65-0.02
		c2.4-0.01,6.85-4.53,6.86-6.96C726.94,967.86,726.88,877.21,726.88,786.56z M73.17,521.17c0,34.97-0.09,69.95,0.26,104.92
		c0.02,1.77,4.11,5.3,5.69,4.98c14.16-2.85,28.18-6.4,42.25-9.7c70.84-16.64,141.8-32.8,212.45-50.23
		c17.94-4.43,39.01-1.32,45.11-30.77c14.37-69.4,33.8-137.75,50.96-206.59c0.34-1.35-2.48-5.04-3.26-4.88
		c-17.25,3.54-34.45,7.38-51.61,11.35c-61.87,14.33-123.72,28.77-185.59,43.09c-36.97,8.56-73.99,16.86-110.89,25.72
		c-2.26,0.54-5.12,4.92-5.14,7.53C73.06,451.45,73.18,486.31,73.17,521.17z M726.88,370.78c0-34.85,0.07-69.7-0.21-104.54
		c-0.01-1.81-3.46-5.39-4.66-5.13c-28.41,6.13-56.79,12.39-85.04,19.22c-29.49,7.13-58.72,15.39-88.28,22.21
		c-26.03,6.01-52.56,9.95-78.43,16.55c-6.22,1.59-13.71,9.23-15.43,15.51c-7.34,26.73-12.11,54.15-18.97,81.02
		c-11.41,44.71-23.74,89.19-35.34,133.85c-0.32,1.25,3.6,5.3,4.87,5.01c71.97-16.24,143.87-32.83,215.79-49.34
		c29.57-6.79,59.04-14.09,88.8-19.91c13.17-2.57,17.98-7.41,17.33-21.65C725.91,432.7,726.88,401.72,726.88,370.78z"/>
</g>
<g>
</g>
<g>
</g>
<g>
</g>
<g>
</g>
<g>
</g>
<g>
</g>
<g>
</g>
<g>
</g>
<g>
</g>
<g>
</g>
<g>
</g>
<g>
</g>
<g>
</g>
<g>
</g>
<g>
</g>
</svg>
