<?xml version="1.0" encoding="utf-8"?>
<!-- Generator: Adobe Illustrator 17.1.0, SVG Export Plug-In . SVG Version: 6.00 Build 0)  -->
<!DOCTYPE svg PUBLIC "-//W3C//DTD SVG 1.1//EN" "http://www.w3.org/Graphics/SVG/1.1/DTD/svg11.dtd">
<svg version="1.1" id="Layer_1" xmlns="http://www.w3.org/2000/svg" xmlns:xlink="http://www.w3.org/1999/xlink" x="0px" y="0px"
	 viewBox="0 0 800 1138.9" style="enable-background:new 0 0 800 1138.9;" xml:space="preserve">
<g>
	<path d="M800,569.44c0,188.77,0,377.55-0.13,566.32c0,1.06-1.9,3.04-2.92,3.04c-264.7,0.13-529.39,0.13-794.09,0.01
		c-0.96,0-2.77-1.86-2.77-2.85C-0.03,758.29-0.03,380.63,0.1,2.97c0-1,2.01-2.87,3.09-2.87C267.77-0.03,532.35-0.03,796.93,0.1
		c1.02,0,2.94,1.97,2.94,3.02C800,191.89,800,380.66,800,569.44z M724.78,369.63c0-95.71,0.05-191.42-0.26-287.13
		c-0.01-2.44-3.86-6.98-5.94-6.99c-85.81-0.35-171.63-0.39-257.44,0.04c-3.19,0.02-8.51,4.58-9.18,7.79
		c-6.53,31.2-12.17,62.59-18.26,93.89c-20.48,105.36-41.05,210.7-61.57,316.04c-6.5,33.39-13.05,66.76-19.27,100.2
		c-0.34,1.82,1.86,5.67,3.46,6.04c10.18,2.35,20.52,4.05,30.82,5.85c109.83,19.19,219.65,38.41,329.55,57.2
		c2.26,0.39,7.75-4.22,7.76-6.51C724.84,560.59,724.78,465.11,724.78,369.63z M493.77,1065.77c75.47,0,150.94,0.05,226.4-0.22
		c2.23-0.01,6.38-3.33,6.38-5.12c0.3-122.41,0.29-244.81,0.11-367.22c0-1.89-2.22-5.18-3.82-5.46
		c-100.35-17.72-200.75-35.2-301.15-52.71c-15.29-2.67-30.51-5.82-45.88-7.9c-13.53-1.83-29.34-8.5-33.33,14.12
		c-5.58,31.67-12.21,63.14-18.04,94.77c-9.62,52.14-18.59,104.4-28.54,156.47c-6.03,31.54-13.6,62.77-20.07,94.23
		c-4.56,22.14-7.67,44.61-12.93,66.58c-2.6,10.85-0.22,12.76,10.32,12.7C346.75,1065.58,420.26,1065.78,493.77,1065.77z
		 M73.14,682.36c0,125.38-0.04,250.76,0.29,376.13c0.01,2.43,4.3,6.95,6.62,6.97c50.26,0.4,100.53,0.38,150.8,0.07
		c2.35-0.01,6.34-3.17,6.77-5.4c7.72-40.71,14.68-81.56,22.5-122.25c5.65-29.4,12.74-58.52,18.46-87.9
		c21.58-110.74,42.87-221.54,64.27-332.32c9.92-51.35,20.1-102.65,29.28-154.14c0.68-3.79-5.29-12.15-9.19-12.87
		c-93.8-17.39-187.72-34.08-281.7-50.47c-2.26-0.39-7.74,4.14-7.75,6.38C73.1,431.84,73.14,557.1,73.14,682.36z M251.17,73.14
		c-57.05,0-114.09-0.06-171.14,0.24c-2.3,0.01-6.58,3.46-6.59,5.33c-0.35,63.37-0.35,126.75-0.05,190.12
		c0.01,2.3,3.27,6.18,5.54,6.62c26.39,5.14,52.88,9.74,79.34,14.51c71.93,12.96,143.84,25.97,215.81,38.69
		c1.69,0.3,5.38-2.24,5.72-3.94c16.45-81.33,32.69-162.71,48.56-244.16c0.39-2.02-3.69-7.06-5.71-7.08
		C365.49,73.07,308.33,73.14,251.17,73.14z"/>
</g>
<g>
</g>
<g>
</g>
<g>
</g>
<g>
</g>
<g>
</g>
<g>
</g>
<g>
</g>
<g>
</g>
<g>
</g>
<g>
</g>
<g>
</g>
<g>
</g>
<g>
</g>
<g>
</g>
<g>
</g>
</svg>
