<?xml version="1.0" encoding="utf-8"?>
<!-- Generator: Adobe Illustrator 17.1.0, SVG Export Plug-In . SVG Version: 6.00 Build 0)  -->
<!DOCTYPE svg PUBLIC "-//W3C//DTD SVG 1.1//EN" "http://www.w3.org/Graphics/SVG/1.1/DTD/svg11.dtd">
<svg version="1.1" id="Layer_1" xmlns="http://www.w3.org/2000/svg" xmlns:xlink="http://www.w3.org/1999/xlink" x="0px" y="0px"
	 viewBox="0 0 800 1138.9" style="enable-background:new 0 0 800 1138.9;" xml:space="preserve">
<g>
	<path d="M800,569.44c0,188.77,0.01,377.55-0.13,566.32c0,1.06-1.9,3.04-2.92,3.04c-264.7,0.13-529.39,0.13-794.09,0.01
		c-0.97,0-2.77-1.86-2.77-2.85C-0.03,758.29-0.03,380.63,0.1,2.97c0-1,2.01-2.87,3.08-2.87C267.77-0.03,532.35-0.03,796.93,0.1
		c1.02,0,2.94,1.97,2.94,3.02C800,191.89,800,380.66,800,569.44z M270.1,1065.77c61.59,0.11,123.02,0.3,189.8-0.26
		c2.72-0.01,7.09-3.3,7.86-5.91c4.14-13.94,7.39-28.15,10.95-42.27c29.62-117.55,59.25-235.1,88.83-352.66
		c0.59-2.34,0.57-4.83,0.84-7.26c-2.59,0.56-5.39,0.68-7.73,1.76c-27.06,12.5-53.83,25.66-81.12,37.61
		c-25.9,11.34-52.44,21.2-78.49,32.21c-23.44,9.91-46.6,20.49-69.88,30.77c-53.66,23.68-107.31,47.38-160.98,71.04
		c-25.63,11.3-50.88,23.62-77.09,33.38c-15.81,5.89-20.88,13.94-20.45,31.01c1.36,54.03,0.37,108.12,0.87,162.18
		c0.03,2.83,5.31,8.03,8.18,8.05C144.49,1065.89,207.29,1065.78,270.1,1065.77z M73.14,290.44c0,70.27-0.05,140.55,0.28,210.82
		c0.01,1.93,4.7,5.86,6.45,5.46c49.21-11.15,98.25-23.1,147.51-34c14.09-3.12,26.83-5.22,27.83-23.52
		c0.39-7.09,3.47-14.02,5.24-21.04c29.18-115.81,58.39-231.61,87.23-347.51c0.48-1.94-3.42-7.19-5.29-7.19
		c-87.41-0.36-174.82-0.37-262.23-0.02c-2.35,0.01-6.71,4.46-6.72,6.86C73.07,150.35,73.14,220.39,73.14,290.44z M73.14,689.95
		c0,49.81-0.06,99.62,0.3,149.43c0.01,1.54,5.22,4.93,6.63,4.31c83.44-36.55,166.74-73.41,249.98-110.43
		c2.33-1.04,4.84-3.82,5.47-6.26c22.58-88.09,44.97-176.23,67.1-264.44c0.22-0.87-3.71-4.18-5.13-3.85
		c-105.95,24.49-211.85,49.19-317.66,74.26c-2.75,0.65-6.38,5.61-6.4,8.59C73.03,591.02,73.14,640.49,73.14,689.95z M726.85,825.71
		c0-77.99,0.03-155.97-0.18-233.96c0-1.73-3.52-5.2-4.09-4.94c-40.64,18.17-81.16,36.62-121.64,55.17c-1.22,0.56-2.3,2.29-2.69,3.69
		c-7.57,26.57-15.71,53.01-22.37,79.81c-13.73,55.24-26.36,110.75-40.05,165.99c-7.34,29.62-16.13,58.89-23.94,88.4
		c-6.93,26.17-13.54,52.43-19.78,78.77c-0.44,1.86,3.38,6.82,5.24,6.83c74.07,0.35,148.15,0.37,222.22-0.01
		c2.44-0.01,6.97-4.67,6.98-7.18C726.92,980.76,726.85,903.23,726.85,825.71z M476.75,73.14c-24.85,0-49.71,0.55-74.53-0.2
		c-16.11-0.49-31.98-2.6-30.1,21.39c0.03,0.42-0.29,0.86-0.42,1.31c-5.95,20.59-12.5,41.03-17.7,61.81
		c-8.44,33.71-15.55,67.76-24.04,101.45c-8.22,32.61-17.61,64.93-26.24,97.44c-7.92,29.85-15.01,59.93-23.5,89.61
		c-3.87,13.54-1.29,16.09,12.05,11.85c17.44-5.55,35.27-10.04,53.14-14.06c41.39-9.32,83.1-17.28,124.21-27.69
		c9.16-2.32,24.97,1.2,25.94-17.46c0.6-11.49,5.39-22.77,8.32-34.14c8.33-32.4,16.71-64.79,25-97.2
		c16.06-62.81,32.11-125.61,47.84-188.5c0.34-1.36-3.27-5.33-5.07-5.35C540.02,73.05,508.38,73.15,476.75,73.14z M726.85,471.72
		c0-27.49,0.12-54.98-0.27-82.46c-0.03-1.83-4.28-5.46-5.92-5.12c-19.66,4.1-39.24,8.61-58.75,13.38
		c-31.73,7.77-63.28,16.25-95.1,23.63c-26.35,6.12-52.76,12.52-79.5,16.22c-35.01,4.84-62.56,14.68-68.54,56.21
		c-4.35,30.19-14.5,59.53-21.76,89.32c-6.24,25.61-11.71,51.41-18.16,76.97c-4.59,18.18-10.24,36.1-15.34,54.15
		c-0.31,1.1-0.35,3.09,0.23,3.44c0.95,0.58,2.69,0.57,3.78,0.09c62.84-27.64,125.62-55.4,188.46-83.05
		c47.7-20.99,95.14-42.63,143.34-62.4c19.05-7.81,31.61-15.57,28.11-39.73C724.56,512.54,726.85,491.96,726.85,471.72z
		 M726.85,215.75c0-45.54,0.08-91.09-0.23-136.63c-0.02-2.23-3.38-6.35-5.21-6.37c-37.95-0.37-75.9-0.37-113.85-0.05
		c-2.21,0.02-5.8,2.96-6.39,5.16c-6.66,25.11-12.82,50.35-19.2,75.53c-10.19,40.22-20.44,80.43-30.67,120.64
		c-10.62,41.75-21.3,83.49-31.61,125.33c-0.3,1.21,3.61,5.12,4.94,4.84c21.85-4.67,43.59-9.88,65.38-14.84
		c43.34-9.87,86.72-19.52,129.96-29.79c2.85-0.68,6.58-5.82,6.61-8.92C726.98,305.68,726.85,260.71,726.85,215.75z"/>
</g>
<g>
</g>
<g>
</g>
<g>
</g>
<g>
</g>
<g>
</g>
<g>
</g>
<g>
</g>
<g>
</g>
<g>
</g>
<g>
</g>
<g>
</g>
<g>
</g>
<g>
</g>
<g>
</g>
<g>
</g>
</svg>
