<?xml version="1.0" encoding="utf-8"?>
<!-- Generator: Adobe Illustrator 17.1.0, SVG Export Plug-In . SVG Version: 6.00 Build 0)  -->
<!DOCTYPE svg PUBLIC "-//W3C//DTD SVG 1.1//EN" "http://www.w3.org/Graphics/SVG/1.1/DTD/svg11.dtd">
<svg version="1.1" id="Layer_1" xmlns="http://www.w3.org/2000/svg" xmlns:xlink="http://www.w3.org/1999/xlink" x="0px" y="0px"
	 viewBox="0 0 612 792" enable-background="new 0 0 612 792" xml:space="preserve">
<g>
	<path d="M206.6,397.7c13.4-3.1,56.1,11.8,60.3-15.8c5.8-37.9-1.6-118.8-3.3-154.7c0-24.5,55.2-9.2,82.5-12.2
		c12.7-54.7-17.3-56.7,68.3-89.6c42.7-10.7,85,28,84,41.5c11.8,14.8,5.1,32.8,23.1,67.3c-5.3,23-15.8,1.5-12,64.9
		c1.5,25.6,9.7,73.6-76.8,32.6c0,0,2,116-8,123.5c-36,2.5-83.2,0.5-95.5,0.5c13.5,22-10.5,37.1-21.5,41.5c-44,12,13,60-39.5,68.5
		c18,19,16.6,41.9-23.6,83.9c-50.4,26.1-43.9,24.6-92.9-1.4c-15.5-31.5-15.5-31.5-40-47c-9.6-57.5-21-51.9-21-78.5
		c20.5-37.1,12.5-10.8,12.5-62C161.1,405.7,189.3,401.7,206.6,397.7z M459.8,154.1c6.4,11.5-14.7-4.9-15.6-0.9
		c-0.3,1.2,2.4,0.2,2,2.4c-3.1,2-5.9-1-9.1,0.1c0.9,1.4,4.8,2.7,6.1,3.9c-7.3,4.6-12.2,1-19.8-1.8c-8,1.3-6.8,5.1-12.5,8.3
		c-7.3,4.1-12.7,11-20.2,14.9c-5.3,2.8,1.2,6.4,5,4.9c2.5-0.9,4.9-0.6,7.2,0.9c4.5,2.5,5.5-0.4,9.2-2.4c5-2.7,9-2.6,13.2-6.7
		c4.4,1.7,12.3-2.1,17.7-0.9c4.6,1,8,4,11.8,6.6c3.6,2.5,3.8,6.1,7.7,8c-1.2-5.6-1.8-17.5-9.4-18.7c-1.8-3.8,0.9-12.6-6.5-13.2
		c2.6-4.7,19.2,11,20.5,7.5c-0.6-2.1-1-4.2-1.3-6.4c1.4,0.7,14.7,7.2,10.3,10.5c-3,2.3-3.8,4.4-1.2,8.2c2,2.8,5.5,11,3.8,14.5
		c-2.8,5.6-13,2.5-15.5,7c-12.8-0.1-31.6-0.9-41.9-9.2c-1.7-1.4-0.9,1.9,2.6,3.8c8.2,4.2,19.3,5.2,28.3,6.4c0.4,0-5.8,2.4-6.8,2.6
		c-5.3,0.9-9.1-1.2-14.7-2.6c-10.3-2.5-20.2-4-30.9-3.3c-0.8-2.2,0.1-3.5,2.6-3.9c-7.1,0.2-39.8,10.6-32.9,22.2
		c-19.5,0.9-38.9,1.1-58.5,1c-8.3,0-19.9-2.3-27.8,0.2c-7.9,2.5-9.7,5.5-12.3,14.1c-5.6,18.1-0.6,44.2-0.2,63
		c0.2,11.1,1.4,22.4,1.1,33.4c-0.1,6-3,3.6-3,7.7c0,3.5,2.8,2.8,3.2,7.8c0.8,10.1-0.2,20.4-0.1,30.5c0,5.7,0.1,11.5,0.1,17.2
		c0.1,8.7-0.8,5.1-7.5,5.8c-15,1.6-28.8,4.1-43.7,4c-30.4-0.3-63.2,18.4-87.1,36.3c-10.7,8-24.6,18.9-23.6,33.4
		c0.9,13.7,4.2,29.9-7.3,40.2c-6.5,5.9-10.8,23.8-2.5,30c9.4,9.7,9.2,23.6,13.3,35c0.3,16.4,15.3,28.9,28.8,37.9
		c7.4,5,8.8,36.9,24.8,31.7c4.9-1.6,10-1.2,15.1-1.6c4.2-0.4,3.8,3.1,6.8,5c6.5,4.3,11.3-4.5,17.7-4.8c8.7-0.4,14.8-0.1,21.2-6.1
		c4.8-4.5,11.2-8.7,16.1-14.3c3.9-1.6,8.3-3.7,11-7.1c2.3-2.9,2.8-6.4,2.3-10c-1.8-12.6,0.8,2.9,2.8-6.6c6.3-6.5,5.6-3.9,4.9-13.1
		c-0.7-3-6.6-13.8-10.3-13.4c-6.9,0.7-13.2,4.6-19.6,6.6c-9.4,0.7-20.5,4.7-29.5,7.5c-9.2,2.9-20.4,6-28.4,11.5
		c-3.9,0.6-11.1,3.9-14.4,2.9c1.2-9.8,24-18.2,31.3-21.6c14-6.6,32.5-9,42.3-22.4c1.3-1.8,2.2-3.8,2.8-6c1.8-6.4,3.2-0.5,6.9-4.9
		c5.2-6.3,1.9-10.7-0.7-17.2c-1.7-4.3,3.7-12-1.1-16c-5.3-4.3-22.1,2.9-27.8,4.1c-14.9,3.2-31.3,10.1-44.7,17.3
		c-6,3.2-12.3,7-18.7,9c-9.4-2.3-0.3-7.4,2.4-11.9c3.2-5.3,9.9-6.4,15.4-8.5c6.4-2.4,8.8-6.4,16.2-8c16.2-3.4,36.4-5.4,51-13.4
		c4.4,0.9,11.9-1.7,16.2-3.7c1.1,0.7,11.7,0.8,12.8,0c8.7-6.1,24.5-7.5,36-9.1c5.2,0.5,19.6-13.2,21.4-17.4
		c5.6-12.5-13.9-24.2-24.5-19c-5.8,1.8-12.7,0.6-18.6-0.1c-9.2-2.7-18.6-0.5-28-0.4c-4.5-1.6-39.1,3.4-38.9,3.8
		c-3.9,0-16,3.6-18.8,6.9c-6.3,1.3-13.2,3.3-19,6c-14.2,6.6-27.5,15.5-43.5,10.9c1.3-3,14.3-5.8,17.6-7c8.8-3.3,20.1-3.8,28.2-8.5
		c7-4.2,18.6-4,25.7-8.1c8.5-4.8,27.4-12.4,38.6-9.8c2.6,0.6,4.4,0.6,4.9-2.7c2.1-0.3,9.2,0,11.4,0.5c9.2,2.1,16.9-4.6,25.5,1.6
		c5.3,3.9,12.6,1.2,18.3,0c4.9-1,4.1-4.6,6.9-7.4c2.1-2.1,6.4,0.1,8.8,0.2c6.3,0.4,9.5-4.5,10.1-10.2c0.9-7.9,5.8,8.9,5.9,10.6
		c-0.5,2.4-7.3,9-7.1,9.6c0.9,2.6,15.1,1.6,17,1.7c8.4,0.6,16.2-1.1,24.6,0c9.3,1.3,19.7,0.5,29.2,0.9c18.9,0.7,29.4-3.2,28.1-23
		c-0.3-5.1,1.2-13.1-0.9-17.5c0.4-7,5.1-18.8,0-25.4c1.6-10,0.6-18.9,0.4-29.7c-0.2-11.2,0.6-22.1,0.6-33.2c0-4.6-2.5-23.9,3.4-23.4
		c4.4,5.5,10.6,9.3,14.9,14.9c6.8,8.8-2.6,3.8-7.8,5.2c-19.5,5.3,23,11.1,27.1,13.3c7.2,3.8,32.7,18.7,27.1-3.1
		c-1-7.1-4.1-13.9-5.2-21.1c-0.9-6,3.9-1.9,4.7-1.1c2,1.6-0.2-6.4,0-5.6c0.5-4.1-5.9-9.9-8.7-12.4c-4.5-4-14.5-2.9-20.1-3.9
		c-7-1.2-15.1-2.5-22.2-1.7c-6.8,0.7-6.5,5.8-14.2,1.9c-0.1-5.4,0-10.9-0.6-16.3c-1.2-10.8-3.2-22.8-1.2-33.6
		c1.7,9.5-3.2,24.3,5.9,29.4c8.8,5,20.9,14.7,31.7,13.3c13.4,2.7,27,3.1,40.2,5.7c10,7.1,1.7-8.7-7.5-10.5
		c-3.7-4.1-27.2-4.6-32.8-4.8c-12.3-0.4-35.1,2.3-34.9-14.8c0.1-7.3,3.7-9.2,9.5-3.7c8.8,8.4,26.1,6.8,37,5c-0.1-1.1-0.3,4.8-0.8,4
		c1.4,2.1,13.4,3.5,16.2,1.3c-0.2,12.3,15.9,9.9,11.3,3.3c-1.1-5.4-4.6-10-9.4-12.6c-1.7-1.3-3.5-2.6-5.3-3.7
		c-3.3-0.5-2.5,4.3-6.1,1.4c0.9-6.2-6.1-5.4-9.6-6.1c-6.2-1.2-8.3-8.7-14.2-9.2c-13.1-1.3-29.5,18.5-28.3-3c0,0.1,30.2-6.4,33.6-5.9
		c6.8,0.9,13.8,5.5,20.7,7c7.7,1.7,7-4.3,12.8-5.2c5.9-0.9,25.6,15.8,23,2.1c1.9-5.6-4.8-12.1-8.2-15.5c-4.4-4.5-2.2-18-4.9-24.6
		c0.9,10-8.1-3.7-5.5-3.7c-6,0-6.7,9-11.3-1.6c-1.1-7.9,4.6-2.9,9.6-5.6c-6-0.4-2.8-4.1,0.4-5.5c0.1,0.9,0.9,5,2,5.1
		c3.3,0.3-2.3-7-3.2-7.7c-2.1-0.6-2.5-4.8-4.2-9.1c-6.4-16.4-25.5-27.4-41.6-32c-15.1-4.3-33.5-2.8-48.5,0.4
		c-2.9,0.6-34.2,15.4-32.1,16.4c1.5,0.7,11.4-6.3,13.4-7.2c5.3-2.6,10.5-6.2,16.5-5c0.3-1.3,1.1-2.1,2.5-2.2
		c-0.2,12.4-20.3,10.2-25.9,18.3c-1.3,1.8-21.7,16.2-16.9,19.6c2.8,2,9.4-7.3,11.4-5.5c1.8,1.6,4.2-2.8,5.3,0.7
		c0.8,2.3-2.5,3.3-2.6,5.4c-3.2,3.2-7.4,6.4-11,9.4c-1.8,1-11.2,12.7-7.5,12c1.6-0.3,6.6-4.2,8.1-5.4c4.7-3.6,9.6-5.5,14.6-9
		c10.3-7.1,19-13.3,27.3-23.6c-1.8-1.9-24.5,14.3-23.4,8.8c1.6-8.2,12.2-9.4,18.3-13.1c10.9-3.9,21.2-5.7,32.9-5.6
		C439.5,144.3,455.2,155.7,459.8,154.1z M503.7,253.9c-0.1-0.9-0.6-1.2-1.4-0.8c-1,0.7,2.5,7.7,3.5,8.2
		C506.6,257.6,504.3,257.1,503.7,253.9C503.6,253.1,503.8,254.4,503.7,253.9z M358.3,204.7c-2,0.3-5.8,1.1-4.9,4.3
		c1.5,1.7,3.1,1.5,4.7-0.5c4.5-6.5-4.2-3.1,5.7-4.8c6.4-1.1,11.7-7.1,17.7-7.6c2.3,0.4,14.7-2.9,16.6-3.8
		c-2.6-2.1-17.4-7.9-17.9-6.1c-7.4,3.9-15.5,10.5-21,13.6C357.5,201.1,357.6,202.9,358.3,204.7z M455.4,191.3c2.1,2-1.8-4.9-2.8-5.9
		c-5.1-5.1-15.2-8.9-21.1-2.7C440.8,181,449.6,183.5,455.4,191.3C455.6,191.5,449.4,183.2,455.4,191.3z M266.7,516.4
		c-6.9,0.9-0.3,8.7,2.4,11.8c6.1,7-5.6,19.6-1.5,24.1c4.9,5.3,15.6-12.4,15.9-16C284,530.3,272.4,517.9,266.7,516.4
		C265.2,516.6,270.3,517.4,266.7,516.4z M498.8,341.4c6.1-5.6,5.2-18.2,5-25.6c-0.1-3.6,3.2-22-0.2-24.4c-6.8-4.7-4.2,17.1-4.1,17.5
		C502.1,319.5,500.8,330.8,498.8,341.4C501.6,338.7,499.5,337.3,498.8,341.4z M196.7,665.2c6.3,0.1,11.7-3,16-7.4
		c5.2-5.3-5.2-8.4-7.5-3.7C202.8,659.1,183.8,662.5,196.7,665.2C203.3,665.3,195.6,665,196.7,665.2z"/>
</g>
</svg>
