<?xml version="1.0" encoding="utf-8"?>
<!-- Generator: Adobe Illustrator 17.1.0, SVG Export Plug-In . SVG Version: 6.00 Build 0)  -->
<!DOCTYPE svg PUBLIC "-//W3C//DTD SVG 1.1//EN" "http://www.w3.org/Graphics/SVG/1.1/DTD/svg11.dtd">
<svg version="1.1" id="Layer_1" xmlns="http://www.w3.org/2000/svg" xmlns:xlink="http://www.w3.org/1999/xlink" x="0px" y="0px"
	 viewBox="0 0 800 1138.9" style="enable-background:new 0 0 800 1138.9;" xml:space="preserve">
<g>
	<path d="M800,569.44c0,188.77,0.01,377.55-0.13,566.32c0,1.06-1.9,3.04-2.92,3.04c-264.7,0.13-529.39,0.13-794.09,0.01
		c-0.97,0-2.77-1.86-2.77-2.85C-0.03,758.29-0.03,380.63,0.1,2.97c0-1,2.01-2.87,3.08-2.87C267.77-0.03,532.35-0.03,796.93,0.1
		c1.02,0,2.94,1.97,2.94,3.02C800,191.89,800,380.66,800,569.44z M665.36,667.42c-2.99,0.12-6.03-0.1-8.95,0.41
		c-77.88,13.76-155.75,27.54-233.56,41.67c-2.24,0.41-5.73,4.85-5.41,6.91c17.96,114.71,36.24,229.37,54.75,343.99
		c0.33,2.06,3.78,5.16,5.78,5.17c81.21,0.26,162.43,0.26,243.64,0c1.76-0.01,5.03-3.35,5.03-5.14c0.24-133.21,0.23-266.42,0-399.63
		c0-1.41-3.52-4.25-4.96-4c-18.79,3.31-37.5,7.07-56.24,10.71c0.35-0.26,0.69-0.53,1.04-0.79c-0.06-0.07-0.13-0.15-0.19-0.22
		C665.98,666.8,665.67,667.11,665.36,667.42z M73.13,574.64c0,55.22-0.07,110.43,0.26,165.65c0.01,2.13,4.07,6.26,5.78,6.02
		c15.11-2.05,30.12-4.84,45.15-7.49c61.8-10.9,123.59-21.85,185.39-32.75c73.45-12.96,146.91-25.81,220.35-38.84
		c63.38-11.24,126.74-22.58,190.04-34.26c2.63-0.48,6.45-4.82,6.49-7.4c0.44-32.43,0.73-64.89-0.22-97.3
		c-0.13-4.49-6.54-11.86-11.01-12.69c-61.03-11.42-122.25-21.88-183.4-32.67c-57.92-10.23-115.81-20.67-173.74-30.83
		c-54.43-9.55-108.93-18.7-163.35-28.3c-38.37-6.77-76.64-14.1-115.04-20.72c-1.84-0.32-6.41,3.84-6.43,5.94
		C73.05,464.21,73.13,519.42,73.13,574.64z M260.81,1065.8c60.51,0,121.02,0.06,181.52-0.28c1.95-0.01,5.76-4.4,5.52-6.35
		c-2.18-17.66-4.92-35.26-7.77-52.84c-15.46-95.31-30.96-190.61-46.73-285.87c-0.31-1.89-4.27-4.86-6.1-4.58
		c-25.22,3.94-50.39,8.23-75.54,12.68c-77.41,13.68-154.82,27.41-232.16,41.49c-2.52,0.46-6.16,4.97-6.16,7.6
		c-0.32,93.75-0.32,187.51,0.02,281.26c0.01,2.3,4.27,6.59,6.57,6.6C140.26,1065.88,200.53,1065.8,260.81,1065.8z M724.8,283.14
		c0-67.06,0.06-134.12-0.26-201.18c-0.01-2.26-3.91-6.46-6.02-6.47c-47.73-0.37-95.47-0.4-143.2,0.01
		c-2.68,0.02-7.25,3.98-7.71,6.65c-6.62,38.97-12.7,78.03-18.9,117.07c-13.17,82.99-26.38,165.97-39.28,249
		c-0.29,1.87,2.58,5.87,4.45,6.21c67.86,12.24,135.76,24.23,203.73,35.83c2,0.34,6.87-3.85,6.88-5.94
		C724.87,417.26,724.8,350.2,724.8,283.14z M442.56,73.12c-31.4,0-62.81-0.2-94.2,0.33c-2.91,0.05-7.81,4.32-8.3,7.22
		c-7.46,44.32-14.28,88.74-21.37,133.12c-9.91,62.06-20.07,124.07-29.57,186.19c-0.69,4.53,2.22,13.48,4.85,14.06
		c35.54,7.82,71.3,14.67,107.07,21.46c25.4,4.83,50.85,9.36,76.36,13.56c2.52,0.42,7.8-2.1,8.09-3.86
		c14.57-88.79,28.72-177.65,42.93-266.5c5.3-33.13,10.71-66.25,15.65-99.43c0.26-1.75-3.38-5.85-5.24-5.87
		C506.74,73.03,474.65,73.13,442.56,73.12z M73.13,226.04c0,48.55-0.11,97.09,0.29,145.64c0.02,2.62,3.87,6.95,6.57,7.51
		c15.04,3.16,30.28,5.39,45.45,7.96c44.19,7.49,88.37,15.08,132.61,22.23c2.01,0.32,6.4-3.08,6.76-5.23
		c8.38-50.65,16.38-101.35,24.41-152.06c9.08-57.32,18.18-114.64,26.88-172.02c0.3-1.98-3.64-6.63-5.62-6.64
		c-76.96-0.34-153.92-0.35-230.88-0.02c-2.16,0.01-6.17,4.1-6.19,6.31C73.04,128.49,73.13,177.26,73.13,226.04z M507.33,443.39
		c-0.16-0.28-0.25-0.46-0.35-0.63c-0.25,0.14-0.52,0.26-0.74,0.45c-0.03,0.03,0.19,0.49,0.26,0.49
		C506.77,443.65,507.03,443.51,507.33,443.39z M512.87,409.9c-0.17-0.08-0.33-0.17-0.51-0.22c-0.04-0.01-0.2,0.19-0.18,0.23
		c0.08,0.17,0.21,0.31,0.31,0.46C512.62,410.22,512.75,410.08,512.87,409.9z M515.31,393.74c-0.15-0.11-0.29-0.23-0.46-0.31
		c-0.05-0.02-0.24,0.14-0.23,0.18c0.05,0.17,0.14,0.34,0.22,0.5C515,394,515.16,393.89,515.31,393.74z M510.02,426.79
		c-0.04-0.19-0.07-0.38-0.11-0.56c-0.17,0.08-0.36,0.15-0.51,0.26c-0.04,0.03,0,0.28,0.04,0.29
		C509.62,426.82,509.81,426.81,510.02,426.79z M517.76,374.79c0.08-0.17,0.17-0.34,0.25-0.51c-0.19-0.04-0.37-0.09-0.56-0.1
		c-0.05,0-0.16,0.22-0.14,0.25C517.43,374.57,517.59,374.68,517.76,374.79z M520.39,358.29c0.15-0.11,0.29-0.23,0.44-0.34
		c-0.14-0.11-0.27-0.24-0.42-0.32c-0.04-0.02-0.23,0.12-0.23,0.16C520.21,357.96,520.3,358.12,520.39,358.29z M327.31,142.61
		c0.1,0.03,0.22,0.11,0.29,0.07c0.06-0.03,0.07-0.18,0.1-0.28c-0.1-0.03-0.22-0.11-0.29-0.07
		C327.35,142.36,327.34,142.51,327.31,142.61z M272.29,732.95c0.07-0.08,0.19-0.15,0.19-0.23c0-0.07-0.13-0.15-0.2-0.23
		c-0.07,0.07-0.21,0.14-0.21,0.22C272.08,732.78,272.2,732.85,272.29,732.95z M286.34,729.95c-0.08-0.07-0.15-0.19-0.23-0.19
		c-0.07,0-0.15,0.13-0.23,0.2c0.07,0.07,0.14,0.21,0.22,0.21C286.17,730.17,286.25,730.04,286.34,729.95z M302.66,727.42
		c0.07-0.08,0.19-0.15,0.19-0.23c0-0.07-0.13-0.15-0.2-0.23c-0.07,0.07-0.21,0.14-0.21,0.22
		C302.45,727.25,302.58,727.33,302.66,727.42z M523.15,341.72c0.15-0.11,0.29-0.23,0.44-0.34c-0.14-0.11-0.27-0.24-0.42-0.32
		c-0.04-0.02-0.23,0.12-0.23,0.16C522.98,341.4,523.06,341.56,523.15,341.72z M526.36,324.63c-0.18-0.03-0.36-0.08-0.53-0.08
		c-0.06,0-0.17,0.22-0.15,0.24c0.12,0.13,0.27,0.23,0.41,0.34C526.18,324.97,526.27,324.82,526.36,324.63z M529.12,305.31
		c-0.18-0.03-0.36-0.08-0.53-0.08c-0.06,0-0.17,0.22-0.15,0.24c0.12,0.13,0.27,0.23,0.41,0.34
		C528.94,305.65,529.03,305.49,529.12,305.31z M70.78,771.66c0.07-0.07,0.2-0.14,0.21-0.21c0.01-0.07-0.12-0.15-0.19-0.22
		c-0.07,0.07-0.2,0.14-0.21,0.21C70.59,771.5,70.72,771.58,70.78,771.66z M73.55,768.89c0.07-0.07,0.2-0.14,0.21-0.21
		c0.01-0.07-0.12-0.15-0.19-0.22c-0.07,0.07-0.2,0.14-0.21,0.21C73.35,768.74,73.48,768.82,73.55,768.89z M84.52,765.71
		c-0.03,0.1-0.11,0.22-0.07,0.29c0.03,0.06,0.18,0.07,0.28,0.1c0.03-0.1,0.11-0.22,0.07-0.29
		C84.76,765.74,84.61,765.74,84.52,765.71z M101.3,762.96c-0.1,0.02-0.2,0.05-0.3,0.07c0.03,0.1,0.02,0.25,0.08,0.29
		c0.06,0.04,0.19-0.04,0.29-0.06C101.35,763.16,101.32,763.06,101.3,762.96z M115.21,760.35c-0.14,0.01-0.29,0.02-0.43,0.04
		c0.07,0.07,0.14,0.15,0.21,0.22C115.06,760.54,115.14,760.46,115.21,760.35z M131.46,757.43c-0.03,0.1-0.11,0.22-0.07,0.29
		c0.03,0.06,0.18,0.07,0.28,0.1c0.03-0.1,0.11-0.22,0.07-0.29C131.7,757.46,131.55,757.46,131.46,757.43z M145.26,754.66
		c-0.03,0.1-0.11,0.22-0.07,0.29c0.03,0.06,0.18,0.07,0.28,0.1c0.03-0.1,0.11-0.22,0.07-0.29
		C145.51,754.7,145.36,754.69,145.26,754.66z M708.02,655.67c0.03-0.1,0.06-0.2,0.09-0.3c-0.13,0.07-0.25,0.13-0.38,0.2
		C707.82,655.61,707.92,655.64,708.02,655.67z M162.13,752.18c-0.13-0.06-0.26-0.12-0.39-0.18c0.02,0.1,0.05,0.2,0.07,0.3
		C161.91,752.27,162.01,752.25,162.13,752.18z M694.24,658.03c-0.1,0.02-0.2,0.05-0.3,0.07c0.03,0.1,0.02,0.25,0.08,0.29
		c0.06,0.04,0.19-0.04,0.29-0.06C694.29,658.23,694.27,658.13,694.24,658.03z M677.54,661.21c0.07-0.07,0.2-0.14,0.21-0.21
		c0.01-0.07-0.12-0.15-0.19-0.22c-0.07,0.07-0.2,0.14-0.21,0.21C677.34,661.06,677.47,661.14,677.54,661.21z M178.45,749.12
		c0.01,0.14,0.03,0.28,0.04,0.43c0.07-0.07,0.15-0.14,0.22-0.21C178.63,749.27,178.56,749.2,178.45,749.12z M256.03,735.54
		c-0.08-0.07-0.15-0.19-0.23-0.19c-0.07,0-0.15,0.13-0.22,0.2c0.07,0.07,0.14,0.2,0.21,0.21
		C255.87,735.75,255.94,735.63,256.03,735.54z M239.47,738.3c-0.08-0.07-0.15-0.19-0.23-0.19c-0.07,0-0.15,0.13-0.22,0.2
		c0.07,0.07,0.14,0.2,0.21,0.21C239.3,738.51,239.38,738.39,239.47,738.3z M222.54,741.24c0.1-0.03,0.24-0.02,0.28-0.09
		c0.04-0.06-0.03-0.19-0.06-0.29c-0.1,0.03-0.24,0.02-0.28,0.08C222.45,741.01,222.52,741.14,222.54,741.24z M208.82,743.6
		c0.01,0.14,0.03,0.28,0.04,0.43c0.07-0.07,0.15-0.14,0.22-0.21C209.01,743.75,208.93,743.68,208.82,743.6z M192.52,746.54
		c-0.14,0.01-0.29,0.02-0.43,0.04c0.07,0.07,0.14,0.15,0.21,0.22C192.37,746.72,192.43,746.65,192.52,746.54z M73.68,70.61
		c-0.1,0.02-0.2,0.05-0.3,0.07c0.03,0.1,0.02,0.25,0.08,0.29c0.06,0.04,0.19-0.04,0.29-0.06C73.73,70.81,73.71,70.71,73.68,70.61z
		 M341.63,70.8c-0.08-0.07-0.15-0.19-0.23-0.19c-0.07,0-0.15,0.13-0.22,0.2c0.07,0.07,0.14,0.2,0.21,0.21
		C341.46,71.02,341.54,70.89,341.63,70.8z M70.71,73.36c-0.03,0.1-0.11,0.22-0.07,0.29c0.03,0.06,0.18,0.07,0.28,0.1
		c0.03-0.1,0.11-0.22,0.07-0.29C70.96,73.4,70.81,73.39,70.71,73.36z M338.75,73.37c-0.1,0.02-0.2,0.05-0.3,0.07
		c0.03,0.1,0.02,0.25,0.08,0.29c0.06,0.04,0.19-0.04,0.29-0.06C338.8,73.57,338.78,73.47,338.75,73.37z M335.67,90.22
		c0.1,0.03,0.22,0.1,0.29,0.07c0.06-0.03,0.07-0.18,0.1-0.28c-0.1-0.03-0.22-0.11-0.29-0.07C335.7,89.98,335.7,90.13,335.67,90.22z
		 M333.2,106.91c0.03-0.1,0.06-0.2,0.09-0.3c-0.13,0.07-0.25,0.13-0.38,0.2C333,106.84,333.1,106.87,333.2,106.91z M330.33,126.25
		c0.07-0.07,0.2-0.14,0.21-0.21c0.01-0.07-0.12-0.15-0.19-0.22c-0.07,0.07-0.2,0.14-0.21,0.21
		C330.13,126.09,330.26,126.17,330.33,126.25z"/>
</g>
<g>
</g>
<g>
</g>
<g>
</g>
<g>
</g>
<g>
</g>
<g>
</g>
<g>
</g>
<g>
</g>
<g>
</g>
<g>
</g>
<g>
</g>
<g>
</g>
<g>
</g>
<g>
</g>
<g>
</g>
</svg>
