<?xml version="1.0" encoding="utf-8"?>
<!-- Generator: Adobe Illustrator 17.1.0, SVG Export Plug-In . SVG Version: 6.00 Build 0)  -->
<!DOCTYPE svg PUBLIC "-//W3C//DTD SVG 1.1//EN" "http://www.w3.org/Graphics/SVG/1.1/DTD/svg11.dtd">
<svg version="1.1" id="Layer_1" xmlns="http://www.w3.org/2000/svg" xmlns:xlink="http://www.w3.org/1999/xlink" x="0px" y="0px"
	 viewBox="0 0 800 1138.9" style="enable-background:new 0 0 800 1138.9;" xml:space="preserve">
<g>
	<path d="M0,569.45C0,380.66,0,191.87,0.13,3.08c0-1.04,1.94-2.98,2.98-2.98c264.61-0.13,529.21-0.13,793.82,0
		c1.04,0,2.98,1.94,2.98,2.98c0.13,377.58,0.13,755.16,0,1132.74c0,1.04-1.94,2.98-2.98,2.98c-264.61,0.13-529.21,0.13-793.82,0
		c-1.04,0-2.98-1.94-2.98-2.98C0,947.03,0,758.24,0,569.45z M726.88,494.36c0-46.82-0.19-93.64,0.13-140.46
		c0.08-12.34,2.9-21.36-17.12-15.56c-38.45,11.14-78.23,17.65-117.34,26.57c-54.06,12.33-108.01,25.19-162.04,37.67
		c-40.28,9.3-80.64,18.24-120.92,27.55c-76.73,17.73-153.45,35.55-230.09,53.69c-2.58,0.61-6.06,5.06-6.07,7.72
		c-0.31,101.35-0.3,202.7,0.03,304.04c0.01,1.89,4.78,5.74,6.6,5.34c42.01-9.16,83.92-18.75,125.84-28.33
		c45.14-10.31,90.26-20.7,135.39-31.02c27.96-6.39,55.94-12.67,83.89-19.07c45.87-10.5,91.7-21.13,137.58-31.59
		c48.39-11.03,96.72-22.4,145.29-32.59c13.92-2.92,19.83-7.18,19.34-23.18C725.95,588.26,726.88,541.29,726.88,494.36z
		 M400.01,1065.78c106.53,0,213.05,0.04,319.58-0.23c2.43-0.01,6.97-3.38,6.97-5.2c0.33-125.85,0.32-251.71,0.09-377.56
		c0-1.58-3.57-4.78-4.86-4.49c-79.94,18.06-159.89,36.09-239.68,54.8c-81.81,19.19-163.44,39.11-245.17,58.63
		c-21.23,5.07-42.47,10.06-63.8,14.68c-30.72,6.66-61.57,12.73-92.21,19.75c-3.14,0.72-7.42,6.14-7.43,9.4
		c-0.42,74.2-0.4,148.4-0.01,222.6c0.01,2.55,4.75,7.28,7.29,7.29C187.19,1065.83,293.6,1065.78,400.01,1065.78z M399.69,75.21
		c-105.36,0-210.73-0.1-316.09,0.43c-3.49,0.02-9.98,6.41-9.99,9.86c-0.52,122.62-0.47,245.24-0.17,367.85
		c0,1.78,4.44,5.39,6.18,5.04c19.94-4.02,39.77-8.58,59.6-13.13c103.28-23.67,206.54-47.42,309.83-71.05
		c87.83-20.09,175.74-39.84,263.42-60.55c5-1.18,11.75-9.7,11.81-14.86c0.78-72,0.6-144.01,0.2-216.01
		c-0.01-2.54-4.76-7.25-7.32-7.26C611.34,75.16,505.52,75.21,399.69,75.21z"/>
</g>
<g>
</g>
<g>
</g>
<g>
</g>
<g>
</g>
<g>
</g>
<g>
</g>
<g>
</g>
<g>
</g>
<g>
</g>
<g>
</g>
<g>
</g>
<g>
</g>
<g>
</g>
<g>
</g>
<g>
</g>
</svg>
