<?xml version="1.0" encoding="utf-8"?>
<!-- Generator: Adobe Illustrator 17.1.0, SVG Export Plug-In . SVG Version: 6.00 Build 0)  -->
<!DOCTYPE svg PUBLIC "-//W3C//DTD SVG 1.1//EN" "http://www.w3.org/Graphics/SVG/1.1/DTD/svg11.dtd">
<svg version="1.1" id="Layer_1" xmlns="http://www.w3.org/2000/svg" xmlns:xlink="http://www.w3.org/1999/xlink" x="0px" y="0px"
	 viewBox="0 0 723.04 722.37" style="enable-background:new 0 0 723.04 722.37;" xml:space="preserve">
<g>
	<path d="M1.87,361.47c0-60.37,0.01-120.75,0-181.12c0-28.98-0.01-57.96-0.03-86.94C1.83,78.92,1.83,64.43,1.82,49.94
		C1.81,37.16-2.47,15.49,2.14,3.62C4.84-3.36,69.81,1.9,78.92,1.91c31.44,0.01,62.88,0.02,94.32,0.03
		c60.46,0.01,120.92,0.02,181.38,0.02c120.92,0,241.84-0.02,362.76-0.08c9.01,0,4.57,60.46,4.57,69.89
		c-0.01,31.44-0.02,62.88-0.03,94.32c-0.01,60.46-0.02,120.92-0.02,181.38c0,120.92,0.02,241.84,0.07,362.76
		c0.01,15.16-4.81,11.85-19.1,11.84c-14.51-0.01-29.02-0.01-43.53-0.02c-31.44-0.01-62.88-0.02-94.32-0.03
		c-60.46-0.02-120.92-0.02-181.38-0.03c-120.92,0-241.84,0.02-362.76,0.07c-14.3,0.01-19.11,3.31-19.1-11.85
		c0.01-14.53,0.02-29.06,0.03-43.59c0.02-31.48,0.03-62.97,0.04-94.45c0.02-60.54,0.01-121.09,0.01-181.63
		C1.87,380.85,1.87,371.16,1.87,361.47z M495.89,78.12c7.56,13.58-17.31-5.78-18.39-1.1c-0.32,1.38,2.83,0.26,2.36,2.87
		c-3.71,2.37-6.96-1.24-10.79,0.16c1.04,1.7,5.7,3.18,7.25,4.55c-8.68,5.44-14.39,1.17-23.45-2.12c-9.51,1.55-8.08,6-14.81,9.8
		c-8.66,4.89-15,12.97-23.86,17.57c-6.27,3.25,1.39,7.54,5.89,5.8c3-1.02,5.83-0.67,8.49,1.05c5.31,2.96,6.49-0.45,10.85-2.82
		c5.89-3.21,10.65-3.11,15.6-7.9c5.17,1.95,14.58-2.43,20.95-1.08c5.44,1.15,9.48,4.71,13.91,7.76c4.22,2.91,4.52,7.24,9.04,9.48
		c-1.42-6.62-2.07-20.73-11.15-22.06c-2.13-4.47,1.03-14.9-7.66-15.59c3.09-5.51,22.63,13.03,24.24,8.89
		c-0.71-2.48-1.22-5-1.54-7.56c1.61,0.83,17.31,8.55,12.2,12.46c-3.55,2.72-4.53,5.21-1.37,9.7c2.35,3.34,6.51,12.99,4.48,17.15
		c-3.25,6.65-15.39,2.9-18.33,8.31c-15.11-0.06-37.38-1.07-49.55-10.92c-1.98-1.6-1.11,2.28,3.11,4.47
		c9.66,5.02,22.83,6.19,33.49,7.53c0.53,0.02-6.83,2.87-8.04,3.08c-6.29,1.11-10.75-1.39-17.38-3.02c-12.2-3-23.89-4.69-36.49-3.88
		c-0.93-2.63,0.1-4.15,3.07-4.56c-8.39,0.29-47.02,12.52-38.86,26.25c-23.09,1.03-46.01,1.28-69.15,1.21
		c-9.78-0.03-23.46-2.76-32.87,0.28c-9.31,3-11.46,6.53-14.57,16.65c-6.57,21.43-0.7,52.19-0.21,74.4
		c0.29,13.1,1.6,26.46,1.29,39.48c-0.17,7.09-3.49,4.22-3.5,9.07c-0.01,4.12,3.36,3.32,3.83,9.27c0.96,11.92-0.22,24.11-0.14,36.09
		c0.04,6.78,0.09,13.56,0.14,20.35c0.07,10.3-0.95,5.97-8.88,6.83c-17.68,1.92-34.05,4.9-51.68,4.71
		c-35.92-0.4-74.7,21.73-102.87,42.85c-12.66,9.49-29.11,22.32-27.94,39.43c1.1,16.14,4.96,35.27-8.6,47.48
		c-7.71,6.94-12.74,28.06-3,35.47c11.05,11.47,10.86,27.91,15.76,41.34c0.38,19.4,18.07,34.14,33.99,44.81
		c8.76,5.87,10.44,43.58,29.33,37.46c5.78-1.87,11.86-1.36,17.81-1.86c5.01-0.42,4.51,3.62,7.98,5.92
		c7.65,5.07,13.32-5.32,20.92-5.7c10.31-0.51,17.49-0.13,25.03-7.24c5.63-5.3,13.2-10.26,18.97-16.86c4.56-1.84,9.81-4.4,12.95-8.4
		c2.66-3.38,3.28-7.61,2.69-11.79c-2.08-14.84,0.97,3.45,3.36-7.84c7.48-7.73,6.63-4.56,5.83-15.45
		c-0.78-3.55-7.79-16.33-12.21-15.85c-8.11,0.88-15.59,5.45-23.18,7.79c-11.11,0.82-24.21,5.54-34.85,8.83
		c-10.88,3.37-24.13,7.14-33.55,13.56c-4.56,0.67-13.1,4.57-17,3.41c1.4-11.62,28.37-21.46,37-25.56
		c16.54-7.85,38.42-10.69,49.94-26.45c1.52-2.16,2.6-4.52,3.25-7.07c2.13-7.56,3.81-0.57,8.14-5.81c6.15-7.45,2.22-12.64-0.83-20.3
		c-2.02-5.07,4.35-14.21-1.32-18.89c-6.21-5.13-26.09,3.4-32.85,4.82c-17.63,3.73-36.98,11.94-52.78,20.41
		c-7.06,3.78-14.53,8.26-22.11,10.68c-11.07-2.69-0.39-8.79,2.8-14.01c3.81-6.21,11.67-7.58,18.18-9.99
		c7.6-2.82,10.36-7.55,19.19-9.4c19.16-4.03,42.97-6.38,60.22-15.84c5.25,1.07,14.11-2.02,19.14-4.37c1.33,0.85,13.86,0.89,15.12,0
		c10.25-7.21,28.93-8.86,42.55-10.8c6.14,0.64,23.16-15.63,25.34-20.53c6.56-14.74-16.45-28.62-28.99-22.48
		c-6.87,2.1-14.97,0.69-21.92-0.07c-10.89-3.24-21.97-0.63-33.03-0.5c-5.36-1.87-46.22,3.99-45.98,4.47
		c-4.59,0.03-18.88,4.25-22.23,8.11c-7.4,1.56-15.55,3.85-22.4,7.04c-16.78,7.8-32.44,18.35-51.34,12.92
		c1.55-3.55,16.94-6.86,20.78-8.29c10.35-3.86,23.79-4.44,33.26-10.09c8.29-4.95,22.01-4.77,30.41-9.52
		c9.99-5.64,32.37-14.63,45.6-11.63c3.04,0.69,5.17,0.66,5.76-3.14c2.45-0.32,10.88,0,13.42,0.58c10.85,2.47,19.93-5.48,30.09,1.94
		c6.28,4.59,14.9,1.4,21.67,0.02c5.77-1.18,4.8-5.42,8.13-8.75c2.54-2.54,7.56,0.12,10.35,0.29c7.42,0.45,11.21-5.27,11.99-12.01
		c1.08-9.36,6.9,10.55,6.99,12.54c-0.64,2.83-8.66,10.66-8.42,11.39c1.02,3.13,17.8,1.88,20.12,2.04
		c9.94,0.67,19.16-1.34,29.04,0.02c11.02,1.52,23.28,0.61,34.45,1.01c22.37,0.82,34.68-3.79,33.17-27.15
		c-0.39-6.04,1.4-15.47-1.01-20.71c0.42-8.27,6.04-22.27-0.04-30.05c1.94-11.78,0.7-22.36,0.5-35.04
		c-0.21-13.23,0.71-26.09,0.69-39.26c-0.01-5.43-2.9-28.19,4.01-27.66c5.22,6.54,12.55,10.99,17.66,17.64
		c8,10.4-3.11,4.46-9.23,6.13c-23.04,6.29,27.13,13.1,32.07,15.76c8.45,4.54,38.64,22.15,31.99-3.67
		c-1.21-8.44-4.88-16.47-6.09-24.91c-1.02-7.12,4.56-2.19,5.61-1.34c2.4,1.94-0.29-7.59,0.02-6.63c0.6-4.81-6.95-11.69-10.32-14.67
		c-5.34-4.71-17.09-3.45-23.69-4.58c-8.3-1.42-17.83-2.93-26.24-2.06c-8.06,0.83-7.71,6.9-16.73,2.19
		c-0.11-6.42,0.01-12.84-0.68-19.24c-1.38-12.81-3.82-26.93-1.38-39.72c2.02,11.25-3.81,28.65,7,34.79
		c10.37,5.89,24.64,17.32,37.43,15.69c15.79,3.22,31.89,3.68,47.45,6.75c11.82,8.42,2.03-10.27-8.89-12.38
		c-4.33-4.9-32.08-5.42-38.76-5.65c-14.57-0.49-41.5,2.66-41.27-17.43c0.1-8.59,4.35-10.83,11.19-4.32
		c10.39,9.88,30.87,8,43.77,5.89c-0.13-1.28-0.32,5.64-0.9,4.78c1.65,2.43,15.88,4.15,19.09,1.59
		c-0.27,14.53,18.83,11.66,13.39,3.92c-1.3-6.38-5.49-11.77-11.08-14.85c-2.03-1.55-4.12-3.02-6.27-4.41
		c-3.95-0.63-2.98,5.11-7.22,1.68c1.11-7.3-7.2-6.38-11.31-7.19c-7.28-1.43-9.86-10.22-16.76-10.92
		c-15.53-1.58-34.86,21.82-33.38-3.59c-0.01,0.13,35.67-7.56,39.72-7.01c8.01,1.09,16.28,6.44,24.45,8.26
		c9.09,2.03,8.31-5.11,15.15-6.1c7-1.02,30.21,18.66,27.13,2.48c2.19-6.66-5.73-14.33-9.71-18.36c-5.25-5.31-2.55-21.28-5.73-29.07
		c1.07,11.8-9.57-4.39-6.5-4.38c-7.03-0.02-7.92,10.6-13.32-1.87c-1.34-9.28,5.43-3.45,11.32-6.65c-7.11-0.52-3.33-4.8,0.46-6.47
		c0.16,1.06,1.12,5.91,2.37,6.01c3.89,0.32-2.67-8.32-3.83-9.13c-2.48-0.7-2.92-5.67-4.91-10.76c-7.59-19.43-30.1-32.33-49.2-37.78
		c-17.8-5.07-39.63-3.31-57.25,0.53c-3.42,0.74-40.37,18.19-37.88,19.34c1.73,0.8,13.5-7.39,15.78-8.5
		c6.26-3.02,12.43-7.38,19.48-5.86c0.34-1.59,1.32-2.44,2.93-2.56c-0.21,14.62-23.93,12.1-30.65,21.66
		c-1.48,2.11-25.65,19.09-20,23.17c3.3,2.39,11.09-8.68,13.49-6.53c2.12,1.9,4.93-3.25,6.27,0.81c0.91,2.74-2.91,3.86-3.08,6.35
		c-3.75,3.82-8.74,7.62-12.98,11.06c-2.08,1.13-13.21,14.95-8.9,14.19c1.92-0.34,7.78-5.02,9.53-6.36
		c5.53-4.23,11.32-6.54,17.29-10.63c12.22-8.36,22.4-15.71,32.22-27.83c-2.1-2.19-29,16.95-27.69,10.34
		c1.93-9.69,14.45-11.09,21.61-15.52c12.87-4.57,25.1-6.76,38.9-6.67C471.84,66.52,490.45,80.04,495.89,78.12z M547.76,196.08
		c-0.13-1.09-0.68-1.42-1.64-1c-1.14,0.8,3,9.15,4.19,9.71C551.11,200.44,548.41,199.79,547.76,196.08
		C547.59,195.11,547.87,196.7,547.76,196.08z M377.11,132.12c-1.6,1.7-1.97,3.64-1.12,5.81c-2.41,0.37-6.83,1.31-5.83,5.04
		c1.76,1.95,3.62,1.76,5.58-0.56c5.29-7.71-5-3.69,6.78-5.67c7.56-1.27,13.78-8.33,20.96-9.03c2.71,0.43,17.36-3.38,19.57-4.47
		c-3.03-2.52-20.59-9.28-21.14-7.24C393.15,120.6,383.54,128.43,377.11,132.12C374.98,133.72,377.33,132,377.11,132.12z
		 M490.67,122.09c2.44,2.39-2.07-5.75-3.29-6.96c-6.04-5.98-17.93-10.55-24.95-3.24C473.4,109.98,483.85,112.92,490.67,122.09
		C490.96,122.37,483.54,112.51,490.67,122.09z M267.78,506.19c-8.21,1.01-0.41,10.22,2.86,13.98c7.18,8.24-6.66,23.17-1.75,28.52
		c5.8,6.31,18.47-14.64,18.79-18.95C288.2,522.63,274.43,508,267.78,506.19C265.98,506.41,271.98,507.34,267.78,506.19z
		 M541.89,299.39c7.2-6.67,6.15-21.51,5.89-30.19c-0.13-4.31,3.76-26.02-0.19-28.79c-7.99-5.6-5,20.18-4.86,20.7
		C545.88,273.51,544.35,286.95,541.89,299.39C545.23,296.29,542.83,294.64,541.89,299.39z M185.06,681.95
		c7.46,0.15,13.81-3.59,18.91-8.74c6.15-6.21-6.1-9.94-8.88-4.32C192.2,674.75,169.78,678.81,185.06,681.95
		C192.83,682.1,183.77,681.69,185.06,681.95z"/>
</g>
<g>
</g>
<g>
</g>
<g>
</g>
<g>
</g>
<g>
</g>
<g>
</g>
<g>
</g>
<g>
</g>
<g>
</g>
<g>
</g>
<g>
</g>
<g>
</g>
<g>
</g>
<g>
</g>
<g>
</g>
</svg>
