<?xml version="1.0" encoding="utf-8"?>
<!-- Generator: Adobe Illustrator 17.1.0, SVG Export Plug-In . SVG Version: 6.00 Build 0)  -->
<!DOCTYPE svg PUBLIC "-//W3C//DTD SVG 1.1//EN" "http://www.w3.org/Graphics/SVG/1.1/DTD/svg11.dtd">
<svg version="1.1" xmlns="http://www.w3.org/2000/svg" xmlns:xlink="http://www.w3.org/1999/xlink" x="0px" y="0px"
	 viewBox="0 0 1136 640" enable-background="new 0 0 1136 640" xml:space="preserve">
<g id="Layer_1">
</g>
<g id="Layer_2">
</g>
<g id="Layer_3">
</g>
<g id="Layer_4">
</g>
<g id="Layer_5">
</g>
<g id="Layer_6">
</g>
<g id="Layer_7">
</g>
<g id="Layer_8">
</g>
<g id="Layer_9">
</g>
<g id="Layer_10">
</g>
<g id="Layer_11">
</g>
<g id="Layer_12">
	<path fill="#D7100F" d="M783.9,70.4c-2.2,6.4-4.4,12.9-6.6,19.3c-26.3,10.5-55.8,1.6-81.7,13.9c-6.3,7.8-12.1,14.7-24.2,14.6
		c-41-0.2-81.4,8.3-122.1,11.4c-24.9,1.9-50.7-7.7-76.1-12.1c-2.1,2.4-4.2,4.9-6.2,7.3l0.2-0.1c-11.8,0-23.6,0-35.4,0.1
		c-11.4,0.3-16.5-10.6-25.5-14.5c-9.4-2.1-18.8-4.1-28.3-6.2c-6.1-2.6-12.2-5.1-18.3-7.7c-0.3-8.7-0.5-17.3-0.7-26
		C500.5,70.4,642.2,70.4,783.9,70.4z"/>
	<path fill="#D7100F" d="M628.7,583.1c-4.2-23.9-20.2-42.2-32.5-61.3c-16.7-25.8-13.9-52.6-14.9-80.1c-0.7-20,11.8-24.9,25.4-19.1
		c18.3,7.8,38,13.7,48.6,35.8c20.6,42.6,45,83.3,67.9,124.8C691.7,583.1,660.2,583.1,628.7,583.1z"/>
	<path fill="#D7100F" d="M142.9,70.4c-44.7,16.1-74.2,64.2-128.2,60.7c0-60.7,0-60.7,61.9-60.7C98.7,70.4,120.8,70.4,142.9,70.4z"/>
	<path fill="#D7100F" d="M358.8,70.4c0.2,8.7,0.5,17.3,0.7,26c-20.1-0.2-10.8-16.6-14.2-26C349.8,70.4,354.3,70.4,358.8,70.4z"/>
	<path fill="#D7100F" d="M695.6,103.6c25.9-12.3,55.5-3.5,81.7-13.9c38.8,0.3,76.5,13,115.6,13.9
		C827.1,103.6,761.4,103.6,695.6,103.6z"/>
	<path fill="#D7100F" d="M478.2,162.6c17.4,8.6,24.9,22.1,28.7,37.6c1.7,7.1-2.3,13.5-9.1,16.4c-8,3.4-13.4-1.3-14.5-8.7
		C481.2,193.4,464.4,181,478.2,162.6z"/>
	<path fill="#D7100F" d="M431.7,124.7c11.8,0,23.6,0,35.4-0.1C455.4,135.6,443.6,136.4,431.7,124.7z"/>
	<path fill="#D7100F" d="M377.9,104c9.4,2.1,18.8,4.1,28.3,6.2C396.1,111.3,385.4,115.2,377.9,104z"/>
	<path fill="#D7100F" d="M466.9,124.8c2.1-2.4,4.2-4.8,6.2-7.3C473.3,121.8,471.1,124.1,466.9,124.8z"/>
</g>
<g id="Layer_13">
</g>
<g id="Layer_14">
</g>
</svg>
