<?xml version="1.0" encoding="utf-8"?>
<!-- Generator: Adobe Illustrator 17.1.0, SVG Export Plug-In . SVG Version: 6.00 Build 0)  -->
<!DOCTYPE svg PUBLIC "-//W3C//DTD SVG 1.1//EN" "http://www.w3.org/Graphics/SVG/1.1/DTD/svg11.dtd">
<svg version="1.1" xmlns="http://www.w3.org/2000/svg" xmlns:xlink="http://www.w3.org/1999/xlink" x="0px" y="0px"
	 viewBox="0 0 1136 640" enable-background="new 0 0 1136 640" xml:space="preserve">
<g id="Layer_1">
	<path fill="#D7100F" d="M359.6,503.5c1.3-1.2,2.8-1.8,4.6-1.6c2.6-2.4,5.3-4.8,7.9-7.2c0,0-0.5,0.4-0.5,0.4
		c2.7-1.7,5.4-3.4,8.1-5.1c1.5-1.1,3.3-1.6,5.1-1.4c2.5-2.3,5.1-4.7,7.6-7c0,0-0.2,0.3-0.2,0.3c2.2-2.6,4.4-5.2,6.6-7.8
		c0,0-0.7,0.6-0.7,0.6c16.5-8.2,16.9-16.9,0.9-26.2l0,0c0-2.9-0.1-5.8-0.1-8.6c-0.4-1.8,0.2-3.3,1.6-4.5c1.8-2.8,3.6-5.6,5.4-8.4
		c-0.2-1.9,0.3-3.6,1.5-5.2c1.5-3.2,3-6.4,4.5-9.6c0,0-0.1-2.4-0.1-2.4c0-3.6,0.1-7.1,0.1-10.7c-0.5-1.7-0.2-3.1,1.1-4.3
		c10.7-4.8,12.2-12.2,6.2-21.7c0.6-3.7,1.2-7.5,1.8-11.3c15.4-0.6,30.8-1.2,46.3-1.8c0,0-0.4-0.2-0.4-0.2c2.6,2.4,5.3,4.8,7.9,7.2
		c1.8-0.1,3.5,0.3,5.1,1.4c11.5,6.8,23,6.6,34.5-0.1c1.6-1,3.3-1.4,5.2-1.2c2.6-2.5,5.2-5,7.8-7.4c1.8-2.1,3.5-4.2,5.3-6.3
		c20.1,6.3,11.1,29.5,23.5,40.3c45.4-9.7,76.1,26.1,114.9,37.1c1.7,0.5,3.6,3,4.1,5c18.7,74,80.2,50.4,120.7,41.6
		c41.5-9,75.3,2.4,109.5,12.6c29.6,8.9,58.1,18.6,89.1,19c9.9,0.1,18.7,0.2,25.8,11.1c16.2,25.4,41.6,35.9,71.2,36.1
		c18.5,0.1,30.1,6.6,29.8,26.9c-272.1,0-544.3,0-816.4,0c-1-15.8,16.3-21.5,19.5-35.1c0,0-0.7,0.8-0.7,0.8c2.6-2.6,5.1-5.1,7.6-7.7
		c0,0-0.8,0.7-0.8,0.7c13.3-4.2,14.3-15.2,14.6-26.6c0,0-0.2,0.2-0.2,0.2c2.3-2.2,4.7-4.5,7-6.7l0,0
		C354.5,507,357.1,505.3,359.6,503.5z"/>
	<path fill="#D7100F" d="M702.9,70.4c-5.8,8.7,11.2,31.9-15.3,27.1c-50.1-9-100.9-4.4-151.5-10.7C571.4,63.9,613,86,649,70.4
		C667,70.4,684.9,70.4,702.9,70.4z"/>
	<path fill="#D7100F" d="M324.3,548.1c-3.2,13.5-20.5,19.2-19.5,35.1c-2.2,0-4.5,0-6.7,0C295.4,562.9,299.9,548,324.3,548.1z"/>
	<path fill="#D7100F" d="M556.1,393.7c-12.3-10.8-3.4-34-23.5-40.3c4.8-29.9-12.4-52.8-23.8-77.8c-3.1-6.9-11.2-17.5-2.6-24.3
		c10.2-8,17.9,3.2,25.7,8.4c21.8,14.8,31.2,39.8,47.7,59.1c4.7,5.5,3.8,15.1-3.7,21C558.2,353.6,558.2,374,556.1,393.7z"/>
	<path fill="#D7100F" d="M345.1,515.3c-0.3,11.4-1.3,22.4-14.6,26.6C332.1,531.3,326.5,516.7,345.1,515.3z"/>
	<path fill="#D7100F" d="M399,448.4c16.1,9.3,15.7,18-0.9,26.2C398.4,465.8,398.7,457.1,399,448.4z"/>
	<path fill="#D7100F" d="M467.4,360c-15.4,0.6-30.8,1.2-46.3,1.8C436,346.7,451.6,350.8,467.4,360z"/>
	<path fill="#D7100F" d="M419.3,373c6,9.5,4.5,16.9-6.2,21.7C411.6,386.5,411.5,378.6,419.3,373z"/>
	<path fill="#D7100F" d="M514.5,368.2c-11.5,6.7-23,6.9-34.5,0.1C491.4,368.3,503,368.3,514.5,368.2z"/>
	<path fill="#D7100F" d="M331.3,541.2c-2.5,2.6-5.1,5.1-7.6,7.7C326.2,546.3,328.8,543.8,331.3,541.2z"/>
	<path fill="#D7100F" d="M352,508.8c-2.3,2.2-4.7,4.5-7,6.7C347.3,513.3,349.6,511,352,508.8z"/>
	<path fill="#D7100F" d="M359.6,503.5c-2.6,1.8-5.1,3.5-7.7,5.3C352.9,504.7,355.5,503,359.6,503.5z"/>
	<path fill="#D7100F" d="M372.1,494.7c-2.6,2.4-5.3,4.8-7.9,7.2C366.8,499.5,369.5,497.1,372.1,494.7z"/>
	<path fill="#D7100F" d="M379.7,490c-2.7,1.7-5.4,3.4-8.1,5.1C372.7,490.9,375.3,489,379.7,490z"/>
	<path fill="#D7100F" d="M392.4,481.6c-2.5,2.3-5.1,4.7-7.6,7C387.4,486.2,389.9,483.9,392.4,481.6z"/>
	<path fill="#D7100F" d="M398.9,474c-2.2,2.6-4.4,5.2-6.6,7.8C394.4,479.2,396.6,476.6,398.9,474z"/>
	<path fill="#D7100F" d="M474.9,366.9c-2.6-2.4-5.3-4.8-7.9-7.2C469.6,362.1,472.2,364.5,474.9,366.9z"/>
	<path fill="#D7100F" d="M398.9,439.8c0,2.9,0.1,5.8,0.1,8.6C392.3,445.7,393.7,442.8,398.9,439.8z"/>
	<path fill="#D7100F" d="M405.9,426.9c-1.8,2.8-3.6,5.6-5.4,8.4C402.3,432.6,404.1,429.8,405.9,426.9z"/>
	<path fill="#D7100F" d="M412,412.1c-1.5,3.2-3,6.4-4.5,9.6C409,418.6,410.5,415.3,412,412.1z"/>
	<path fill="#D7100F" d="M412,399.1c0,3.6-0.1,7.1-0.1,10.7C406.5,406.1,406.4,402.6,412,399.1z"/>
	<path fill="#D7100F" d="M527.4,359.6c-2.6,2.5-5.2,5-7.8,7.4C522.2,364.6,524.8,362.1,527.4,359.6z"/>
</g>
<g id="Layer_2">
</g>
<g id="Layer_3">
</g>
<g id="Layer_4">
</g>
<g id="Layer_5">
</g>
<g id="Layer_6">
</g>
<g id="Layer_7">
</g>
<g id="Layer_8">
</g>
<g id="Layer_9">
</g>
<g id="Layer_10">
</g>
<g id="Layer_11">
</g>
<g id="Layer_12">
</g>
<g id="Layer_13">
</g>
<g id="Layer_14">
</g>
</svg>
