<?xml version="1.0" encoding="utf-8"?>
<!-- Generator: Adobe Illustrator 17.1.0, SVG Export Plug-In . SVG Version: 6.00 Build 0)  -->
<!DOCTYPE svg PUBLIC "-//W3C//DTD SVG 1.1//EN" "http://www.w3.org/Graphics/SVG/1.1/DTD/svg11.dtd">
<svg version="1.1" xmlns="http://www.w3.org/2000/svg" xmlns:xlink="http://www.w3.org/1999/xlink" x="0px" y="0px"
	 viewBox="0 0 1136 640" enable-background="new 0 0 1136 640" xml:space="preserve">
<g id="Layer_1">
</g>
<g id="Layer_2">
</g>
<g id="Layer_3">
</g>
<g id="Layer_4">
</g>
<g id="Layer_5">
</g>
<g id="Layer_6">
</g>
<g id="Layer_7">
</g>
<g id="Layer_8">
</g>
<g id="Layer_9">
</g>
<g id="Layer_10">
</g>
<g id="Layer_11">
</g>
<g id="Layer_12">
</g>
<g id="Layer_13">
</g>
<g id="Layer_14">
	<path fill="#D7100F" d="M800.3,394.3c-16.6,24.3-42.6,14.2-63.8,14.6c-34.9,0.6-43.1,4.8-45.5,39.5c-0.3,4.4,0.5,9.3-1.1,13.3
		c-5.3,14,12.1,39.9-20,40.1c-26.1,0.1-53.1,7-62.5-32.4c-10-42.1-42.1-75-57.2-116.3c-6.1-16.6-36.8-17.6-57-22.4
		c-22.7-5.4-42.7-11.9-63.4-25.2c-19.5-12.5-49.1-11.7-74.4-12c-113.5-1.1-227.1-0.6-340.6-0.6c0-6.7,0-13.5,0-20.2
		c120.2,0,240.4,0,360.6,0c2.4-3.4,4.7-6.8,7.1-10.1c-15.7-3.8-44.9-1.8-17.2-23.3c4.6-3.5-4.6-9.1-9.1-10.9
		c-14.5-5.6-28.8-10.4-45.2-10.3c-98.7,0.8-197.5,0.5-296.2,0.6c0-4.5,0-9,0-13.5c128.1,0.1,256.3,0.2,384.4,0
		c8.3,0,19.6,3.8,24-6.6c4.4-10.2-1.7-20.5-8.1-27.7c-12.1-13.7-28.4-25.6-47-19.5c-32.7,10.7-63.4,5.4-94.3-6.1
		c82.1,11.2,165.6-21.7,250.3,5.5c-11.8,11.9-27.7,1.1-38.7,19c62.7,0,121.6,0,180.4,0c-28.8,9-58.7,0.9-90.9,10.8
		c6.1,5,9.6,10.3,12.4,10c55.2-6.6,107.6,16.4,162.5,15.1c69.7-1.6,139.4-0.4,209.1-0.4c34.8,0,69.7,0.1,104.5-0.2
		c6.1-0.1,14.8,1.9,15.9-7.6c1.3-11.2-7.4-12.3-15.5-12.6c-13.5-0.5-27-0.2-40.4-1c-6.4-0.4-10-5.2-9.5-11.5
		c0.2-2.5,3.3-6.6,5.3-6.8c38.4-3.5,76.7-31.3,115.4-1.1c0,54,0,108,0,161.9c-29.8,8.5-58.7,20.6-91,8c-11.8-4.6-23.4,4.9-34,11.1
		c0,0,1.1,1,1.1,1l0.1-1.4c-7.5,2.7-16,4.1-18.5,13.6c-17.6,0.2-35.3,0.4-52.9,0.6c-9.2-7.5-18.3-8-27.3,0.2
		c-8.3,5.2-16.2,11.8-27,9.7C852.8,363.5,826.1,377.3,800.3,394.3z"/>
	<path fill="#D7100F" d="M41.7,70.4c-6.3,13.2-17.4,6.8-27,6.7C20.8,63.2,33,73.6,41.7,70.4z"/>
	<path fill="#D7100F" d="M939.7,359.6c17.6-0.2,35.3-0.4,52.9-0.6C975.1,371,957.5,370.9,939.7,359.6z"/>
	<path fill="#D7100F" d="M1011.1,345.4l-0.1,1.4c0,0-1.1-0.9-1.1-1C1009.8,345.9,1011.1,345.4,1011.1,345.4z"/>
</g>
</svg>
