<?xml version="1.0" encoding="utf-8"?>
<!-- Generator: Adobe Illustrator 17.1.0, SVG Export Plug-In . SVG Version: 6.00 Build 0)  -->
<!DOCTYPE svg PUBLIC "-//W3C//DTD SVG 1.1//EN" "http://www.w3.org/Graphics/SVG/1.1/DTD/svg11.dtd">
<svg version="1.1" xmlns="http://www.w3.org/2000/svg" xmlns:xlink="http://www.w3.org/1999/xlink" x="0px" y="0px"
	 viewBox="0 0 1136 640" enable-background="new 0 0 1136 640" xml:space="preserve">
<g id="Layer_1">
</g>
<g id="Layer_2">
	<path fill="#D7100F" d="M718.2,567.6c3.9,2.5,7.8,5,11.8,7.6c-22.5,0-45,0-67.5,0c2.7-7,8.1-11.2,14.8-13.8c1.9,0,3.7,0.4,5.4,1.1
		C693.9,568,706.1,567.4,718.2,567.6z"/>
	<path fill="#D7100F" d="M677.3,561.3c-6.8,2.7-12.1,6.8-14.8,13.8c-2.2,0-4.5,0-6.7,0c-0.4-8-11.3-17.3-0.2-23.5
		C664.2,546.8,671.9,553.8,677.3,561.3z"/>
	<path fill="#D7100F" d="M444.7,125.1c1.5,9.3-3.9,12-11.4,12.3c-9.7,0.4-14.1-4.8-13.9-14.2c0.2-7,1.4-13.6,10.6-13.4
		C439.9,110.2,442,118.1,444.7,125.1z"/>
	<path fill="#D7100F" d="M689.1,126.2c-0.8,6-3,11.2-10.1,8.7c-5.8-2.1-13.6-3.9-14.4-11.2c-0.9-7.4,6.1-7.6,11.3-7.8
		C683.1,115.7,688.9,117.6,689.1,126.2z"/>
	<path fill="#D7100F" d="M718.2,567.6c-12.1-0.2-24.2,0.4-35.5-5.2C694.9,561.3,707.8,556.2,718.2,567.6z"/>
	<path fill="#D7100F" d="M622.8,114.8c-1.4,0.8-2.9,1.5-4.3,2.3c-0.2-0.9-0.9-2.4-0.7-2.5c1.3-0.9,2.9-1.4,4.3-2.1
		C622.4,113.2,622.6,114,622.8,114.8z"/>
</g>
<g id="Layer_3">
</g>
<g id="Layer_4">
</g>
<g id="Layer_5">
</g>
<g id="Layer_6">
</g>
<g id="Layer_7">
</g>
<g id="Layer_8">
</g>
<g id="Layer_9">
</g>
<g id="Layer_10">
</g>
<g id="Layer_11">
</g>
<g id="Layer_12">
</g>
<g id="Layer_13">
</g>
<g id="Layer_14">
</g>
</svg>
