<?xml version="1.0" encoding="utf-8"?>
<!-- Generator: Adobe Illustrator 17.1.0, SVG Export Plug-In . SVG Version: 6.00 Build 0)  -->
<!DOCTYPE svg PUBLIC "-//W3C//DTD SVG 1.1//EN" "http://www.w3.org/Graphics/SVG/1.1/DTD/svg11.dtd">
<svg version="1.1" xmlns="http://www.w3.org/2000/svg" xmlns:xlink="http://www.w3.org/1999/xlink" x="0px" y="0px"
	 viewBox="0 0 1136 640" enable-background="new 0 0 1136 640" xml:space="preserve">
<g id="Layer_1">
</g>
<g id="Layer_2">
</g>
<g id="Layer_3">
</g>
<g id="Layer_4">
</g>
<g id="Layer_5">
</g>
<g id="Layer_6">
</g>
<g id="Layer_7">
</g>
<g id="Layer_8">
</g>
<g id="Layer_9">
	<path fill="#D7100F" d="M716.4,70.4c-5.1,13.4,21.8,15.4,11,29.8c-6.1,8.1-16.6,6-25.1,3.5c-16.8-5-36.1-8.3-33.1-33.3
		C684.9,70.4,700.7,70.4,716.4,70.4z"/>
	<path fill="#D7100F" d="M497.1,297.4c-0.6-1.4,0.3-6.9,6-9.8c6.7-3.3,13.6-2,17.5,4.8c11.7,20.2,23.3,40.6,34.4,61.2
		c4.7,8.8,3.3,18.5-4.1,24.3c-8.7,6.8-16.2,0.5-23.5-5.9C506,353.3,505.5,326.4,497.1,297.4z"/>
</g>
<g id="Layer_10">
</g>
<g id="Layer_11">
</g>
<g id="Layer_12">
</g>
<g id="Layer_13">
</g>
<g id="Layer_14">
</g>
</svg>
