<?xml version="1.0" encoding="utf-8"?>
<!-- Generator: Adobe Illustrator 17.1.0, SVG Export Plug-In . SVG Version: 6.00 Build 0)  -->
<!DOCTYPE svg PUBLIC "-//W3C//DTD SVG 1.1//EN" "http://www.w3.org/Graphics/SVG/1.1/DTD/svg11.dtd">
<svg version="1.1" xmlns="http://www.w3.org/2000/svg" xmlns:xlink="http://www.w3.org/1999/xlink" x="0px" y="0px"
	 viewBox="0 0 1136 640" enable-background="new 0 0 1136 640" xml:space="preserve">
<g id="Layer_1">
</g>
<g id="Layer_2">
</g>
<g id="Layer_3">
</g>
<g id="Layer_4">
</g>
<g id="Layer_5">
</g>
<g id="Layer_6">
</g>
<g id="Layer_7">
</g>
<g id="Layer_8">
	<path fill="#D7100F" d="M579.9,502.5c-21.1,3.5-28.2-7-34.7-30.3c-10.6-38.8-25.1-76.5-33.3-116.2c-2-9.9-9.8-20.7,1-26.5
		c12.6-6.8,24.3,2.7,31.3,12.8c6.1,8.8,10.2,19.9,12.3,30.5c7.4,37.5,35.9,64.7,48,99.7C613.8,499.6,610.8,503.2,579.9,502.5z"/>
	<path fill="#D7100F" d="M460.6,186.1c-13.4,1.2-16.4-9.1-18.8-18.4c-1.8-6.9,2.4-14.6,9.6-13.1c9.7,2,16.8,10.3,20.1,19.7
		C474.5,183.2,467.7,185.4,460.6,186.1z"/>
</g>
<g id="Layer_9">
</g>
<g id="Layer_10">
</g>
<g id="Layer_11">
</g>
<g id="Layer_12">
</g>
<g id="Layer_13">
</g>
<g id="Layer_14">
</g>
</svg>
