<?xml version="1.0" encoding="utf-8"?>
<!-- Generator: Adobe Illustrator 17.1.0, SVG Export Plug-In . SVG Version: 6.00 Build 0)  -->
<!DOCTYPE svg PUBLIC "-//W3C//DTD SVG 1.1//EN" "http://www.w3.org/Graphics/SVG/1.1/DTD/svg11.dtd">
<svg version="1.1" xmlns="http://www.w3.org/2000/svg" xmlns:xlink="http://www.w3.org/1999/xlink" x="0px" y="0px"
	 viewBox="0 0 1136 640" enable-background="new 0 0 1136 640" xml:space="preserve">
<g id="Layer_1">
</g>
<g id="Layer_2">
</g>
<g id="Layer_3">
	<path fill="#D7100F" d="M464.1,203.9c-4.1,0-8.1,0-12.2,0c-2-2-4-4-6-5.9c-0.6-3.8-1.2-7.6-1.8-11.4c0.2-7.1,0.5-14.1,0.7-21.2
		l0.4-0.3c2.4,0,4.8,0,7.2,0c4.2,4.1,8.3,8.1,12.5,12.2c1.8,2.8,3.6,5.6,5.4,8.4c0,4.1-0.1,8.1-0.1,12.2
		C468.1,199.9,466.1,201.9,464.1,203.9z"/>
	<path fill="#D7100F" d="M444.8,165.4c-0.2,7.1-0.5,14.1-0.7,21.2C436.4,179.3,433.1,172.1,444.8,165.4z"/>
	<path fill="#D7100F" d="M452.4,165.1c-2.4,0-4.8,0-7.2,0C447.6,158.8,450,160.6,452.4,165.1z"/>
	<path fill="#D7100F" d="M470.3,185.7c-1.8-2.8-3.6-5.6-5.4-8.4C468.9,178.6,471.1,181.2,470.3,185.7z"/>
	<path fill="#D7100F" d="M445.9,198c2,2,4,4,6,5.9C447.5,204.3,445.5,202.3,445.9,198z"/>
	<path fill="#D7100F" d="M464.1,203.9c2-2,4.1-4,6.1-6C470.6,202.3,468.5,204.3,464.1,203.9z"/>
</g>
<g id="Layer_4">
</g>
<g id="Layer_5">
</g>
<g id="Layer_6">
</g>
<g id="Layer_7">
</g>
<g id="Layer_8">
</g>
<g id="Layer_9">
</g>
<g id="Layer_10">
</g>
<g id="Layer_11">
</g>
<g id="Layer_12">
</g>
<g id="Layer_13">
</g>
<g id="Layer_14">
</g>
</svg>
