<?xml version="1.0" encoding="utf-8"?>
<!-- Generator: Adobe Illustrator 17.1.0, SVG Export Plug-In . SVG Version: 6.00 Build 0)  -->
<!DOCTYPE svg PUBLIC "-//W3C//DTD SVG 1.1//EN" "http://www.w3.org/Graphics/SVG/1.1/DTD/svg11.dtd">
<svg version="1.1" xmlns="http://www.w3.org/2000/svg" xmlns:xlink="http://www.w3.org/1999/xlink" x="0px" y="0px"
	 viewBox="0 0 1136 640" enable-background="new 0 0 1136 640" xml:space="preserve">
<g id="Layer_1">
</g>
<g id="Layer_2">
</g>
<g id="Layer_3">
</g>
<g id="Layer_4">
</g>
<g id="Layer_5">
</g>
<g id="Layer_6">
</g>
<g id="Layer_7">
</g>
<g id="Layer_8">
</g>
<g id="Layer_9">
</g>
<g id="Layer_10">
</g>
<g id="Layer_11">
</g>
<g id="Layer_12">
</g>
<g id="Layer_13">
	<path fill="#D7100F" d="M676,77c0-2.2,0-4.4,0-6.7c6.7,0,13.5,0,20.2,0c17.4,52.2,29,57.5,80.8,38.1c22.4-8.4,48.5-5.6,68.2-1.9
		c38.7,7.4,79.8-6.9,118,21.5c26,19.4,65.7,18.4,100.9,16.4c13.1-0.7,31.2-5.8,31.9,18.4c-51.8,9.6-104.3-16.9-155.8,2.9
		c-18.8-4.5-35,1.2-49.7,12.8c-1.7-0.2-3.4-0.6-5.1-1.2c-23.8-11.9-48.8-5.7-73.4-5c-32.6,9.8-70.7-5.1-98.1,8.3
		c-41.2,20.3-82.1,14.5-123.4,19.1c-12,1.3-21.2,3.2-34-2.8c-12.7-6-32.2-13.9-45.1,8.4c-7.5,12.9-24,9.4-31.5-0.6
		c-25.7-34.4-63.4-36-100.4-40.1c-11.6-1.3-25.5-0.2-12.6-18.2c7.4-3.1,10.2-8.8,9.3-16.5c8.2-30.3,35-29.4,58-32.9
		c17.3-2.7,35.2,0,52.5-5.4c21.2-6.5,42.8-15.2,55.3,14.5c1.9,4.6,12.5,9.7,17.1,8.3c32-9.7,66.1,4,97.4-9.9
		c26.2,4.1,17.4-9.7,11.2-22.1c0,0,0.4-0.2,0.4-0.2C670.7,80.7,673.3,78.8,676,77z"/>
	<path fill="#D7100F" d="M1121.3,70.4c-29.9,61.6-29.9,61.7-97.3,46.4c-5.3-1.2-10.3-5.2-15.6-5.4c-31.1-1.2-36.6-15.6-22.1-41
		C1031.3,70.4,1076.3,70.4,1121.3,70.4z"/>
	<path fill="#D7100F" d="M136.2,70.4c-9.2,23.2-33.6,20.8-50.8,25.3c-22.2,5.8-32.5,15-32.9,36.8c-12.5,1.8-25.1,3.6-37.7,5.4
		c0-22.5-8.8-53.8,2.5-65s42.5-2.5,65-2.5C100.2,70.4,118.2,70.4,136.2,70.4z"/>
	<path fill="#D7100F" d="M14.7,137.8c12.6-1.8,25.1-3.6,37.7-5.4c27.5,7.7,55.3-3.1,82.7,2c-7,16.3-66.4,28.1-120.4,23.6
		C14.7,151.3,14.7,144.6,14.7,137.8z"/>
	<path fill="#D7100F" d="M668.5,549.8c-29.3-0.1-55.7-23.1-58.9-58.4c-3.6-40.4-27.4-71.2-43.2-105.8c-6.3-13.7-22.6-31-7.2-39.1
		c12.8-6.7,37.3-3.4,49.3,16.8c30.5,51.6,61.7,102.8,92.5,154.2c15.5,25.9,12.7,30.5-19.1,32.3C677.4,550,672.9,549.8,668.5,549.8z"
		/>
	<path fill="#D7100F" d="M376.1,130.1c0.9,7.8-1.9,13.4-9.3,16.5c-15.8-17.1-21.8,4.7-32.1,8.5c-7.5,2.8-14.4,6.7-22,2.3
		c-7.7-4.4-1.7-11.9-2.4-17.9c-1.5-12.7,9.3-10.2,16-10.3C343,128.9,359.5,129.8,376.1,130.1z"/>
	<path fill="#D7100F" d="M890.4,178.7c14.7-11.6,30.9-17.3,49.7-12.8C935.2,189.9,922.4,193.2,890.4,178.7z"/>
	<path fill="#D7100F" d="M811.9,172.6c24.6-0.7,49.7-6.9,73.4,5c-13,2.8-25.9,6.5-39.1,8.3C832.9,187.6,818.7,189,811.9,172.6z"/>
	<path fill="#D7100F" d="M246.6,157.8c-29.1,0-58.2,0-87.3,0c0-1.5,0-3,0-4.5c29.2,0,58.5,0,87.7,0
		C246.9,154.8,246.8,156.3,246.6,157.8z"/>
	<path fill="#D7100F" d="M667.7,82.7c6.1,12.4,14.9,26.2-11.2,22.1c-2-5.8-13-6.9-9-15.4C651.6,80.9,660.1,82.3,667.7,82.7z"/>
	<path fill="#D7100F" d="M676,77c-2.6,1.8-5.3,3.6-7.9,5.4C670.7,80.7,673.3,78.8,676,77z"/>
</g>
<g id="Layer_14">
</g>
</svg>
