<?xml version="1.0" encoding="utf-8"?>
<!-- Generator: Adobe Illustrator 17.1.0, SVG Export Plug-In . SVG Version: 6.00 Build 0)  -->
<!DOCTYPE svg PUBLIC "-//W3C//DTD SVG 1.1//EN" "http://www.w3.org/Graphics/SVG/1.1/DTD/svg11.dtd">
<svg version="1.1" xmlns="http://www.w3.org/2000/svg" xmlns:xlink="http://www.w3.org/1999/xlink" x="0px" y="0px"
	 viewBox="0 0 1136 640" enable-background="new 0 0 1136 640" xml:space="preserve">
<g id="Layer_1">
</g>
<g id="Layer_2">
</g>
<g id="Layer_3">
</g>
<g id="Layer_4">
</g>
<g id="Layer_5">
</g>
<g id="Layer_6">
</g>
<g id="Layer_7">
</g>
<g id="Layer_8">
</g>
<g id="Layer_9">
</g>
<g id="Layer_10">
	<path fill="#D7100F" d="M434.5,111.3c-20.2-8.1-19.2-23.9-14.9-40.9c9,0,18,0,27,0c-2.5,13.3-5,26.6-7.5,40
		C437.7,111.3,436.2,111.6,434.5,111.3z"/>
	<path fill="#D7100F" d="M434.5,111.3c1.7,0.3,3.2,0,4.6-0.9c4.4,3.2,9.1,6.1,13.1,9.7c7.9,7.2,18.8,14,12.2,27.1
		c-2.8,5.6-10.6,9.9-16.3,7.2c-10.3-5-16.6-14.1-15.3-26.7C433.4,122.2,433.9,116.7,434.5,111.3z"/>
	<path fill="#D7100F" d="M773.1,149.8c-8.3,0-14.1-4.6-14.6-11.1c-0.9-10.3,2.9-20.4,15.1-21.3c8.9-0.7,20.2,4.5,20.8,12.1
		C795.5,142.1,778.3,141,773.1,149.8z"/>
</g>
<g id="Layer_11">
</g>
<g id="Layer_12">
</g>
<g id="Layer_13">
</g>
<g id="Layer_14">
</g>
</svg>
