<?xml version="1.0" encoding="utf-8"?>
<!-- Generator: Adobe Illustrator 17.1.0, SVG Export Plug-In . SVG Version: 6.00 Build 0)  -->
<!DOCTYPE svg PUBLIC "-//W3C//DTD SVG 1.1//EN" "http://www.w3.org/Graphics/SVG/1.1/DTD/svg11.dtd">
<svg version="1.1" xmlns="http://www.w3.org/2000/svg" xmlns:xlink="http://www.w3.org/1999/xlink" x="0px" y="0px"
	 viewBox="0 0 1136 640" enable-background="new 0 0 1136 640" xml:space="preserve">
<g id="Layer_1">
</g>
<g id="Layer_2">
</g>
<g id="Layer_3">
</g>
<g id="Layer_4">
</g>
<g id="Layer_5">
</g>
<g id="Layer_6">
</g>
<g id="Layer_7">
</g>
<g id="Layer_8">
</g>
<g id="Layer_9">
</g>
<g id="Layer_10">
</g>
<g id="Layer_11">
	<path fill="#D7100F" d="M729.9,70.4c-8.2,17-24.5,19.3-39.4,17.2c-81.7-11.6-162.4,9.2-243.8,6c-24.6-0.9-43.6-7.5-60.9-23.2
		C500.5,70.4,615.2,70.4,729.9,70.4z"/>
	<path fill="#D7100F" d="M68.7,70.4c-8.8,27.5-36.3,17.4-54,27c-5.1-23.1,3.8-31.6,27-27.3C50.5,71.7,59.7,70.4,68.7,70.4z"/>
	<path fill="#D7100F" d="M122.7,70.4c-13.5,22.7-27,19.2-40.5,0C95.7,70.4,109.2,70.4,122.7,70.4z"/>
	<path fill="#D7100F" d="M467,202.8c-0.7-5.3,0.3-15.4,3-14.2c11.1,4.7,25.9-1.7,33.9,10.4c7.9,11.9,15.4,24.2,21.6,37
		c4,8.2,0.7,17-9.1,16.7c-9.7-0.4-21.4,14.8-28.9-1.6C480.2,235.2,469,221,467,202.8z"/>
</g>
<g id="Layer_12">
</g>
<g id="Layer_13">
</g>
<g id="Layer_14">
</g>
</svg>
