<?xml version="1.0" encoding="utf-8"?>
<!-- Generator: Adobe Illustrator 17.1.0, SVG Export Plug-In . SVG Version: 6.00 Build 0)  -->
<!DOCTYPE svg PUBLIC "-//W3C//DTD SVG 1.1//EN" "http://www.w3.org/Graphics/SVG/1.1/DTD/svg11.dtd">
<svg version="1.1" id="Layer_1" xmlns="http://www.w3.org/2000/svg" xmlns:xlink="http://www.w3.org/1999/xlink" x="0px" y="0px"
	 viewBox="0 0 60.6 78.3" style="enable-background:new 0 0 60.6 78.3;" xml:space="preserve">
<style type="text/css">
	.st0{fill:#144172;}
	.st1{fill:#E9551B;}
	.st2{fill:#05A5D4;}
	.st3{fill:#F5AB11;}
	.st4{fill:#E7521B;}
	.st5{fill:#F1A817;}
	.st6{fill:#0EA4D4;}
</style>
<g>
	<path class="st0" d="M35.5,14.4c5.5-10,12.7-13.1,25.1-10.5c-0.1,0.3-0.2,0.8-0.4,0.8c-8.9,2.6-10.1,4.6-7.7,13.6
		c2.8,10.5,0.3,19.6-6.9,27.6c-1,1.1-1.9,2.3-2.8,3.4c-0.9,2.1-2.9,3-4.6,4.3c-1.7,1.1-3,3-5.4,2.5c-3.8-5.1-3.9-10.6-1.9-16.4
		c0-0.7,0-1.4,0-2.1c1.9-1.6,3.3-0.2,4.9,0.6c1.8,0.8,3.3,2.2,5.8,2.4c1.8-8,0.5-15.2-4.3-21.9C36.5,17.4,34.3,16.6,35.5,14.4z"/>
	<path class="st1" d="M35.5,14.4c7.8,8,9.7,17.4,7.3,28.1c-4.7-0.3-7.5-4.6-11.9-5l0.1,0.1c-0.7-1.1-2.1-1.2-3-2
		c-7.2-6.4-10.4-14.7-10.9-24.1c-0.1-1,0.1-2,0.9-2.7C18.4,5.9,18.7,2.9,19,0C21.4,8.6,29.7,10.1,35.5,14.4z"/>
	<path class="st2" d="M30.9,39.6c0.2,4.4,0.2,8.8,1,13.1c0.3,1.7,1.9,2.1,4.4,2.2c-4.4,5.2-5.3,7.4-7.3,8.9c-3,1.3-5,1.1-5.9,1.7
		C22.9,65.5,22,66,21.4,66c-1.5,0.3-3.2,0.8-3.7-1.7c1.3-2.1,2.1-4.4,2.1-6.9C19.9,49.2,23.9,43.5,30.9,39.6z"/>
	<path class="st3" d="M18.1,8.8c0.4,10.2,3.5,19.2,11,26.5c6.4,4.8-3.1-0.2-4.6-0.8c-6.5-4.2-11.5-9.7-14.1-17.1
		c-0.6-1.8-1.6-3.7-0.4-5.7c-0.5-3.5-1.2-7-0.6-11.5C12.3,3.9,14.3,7.3,18.1,8.8z"/>
	<path class="st4" d="M38.1,52.3c1.8-0.7,2.5-2.9,4.6-3c2,12.5-4.5,21.2-13.1,29.1c0.8-3.7,1.9-7.4,0.4-11.1
		c-1.3-2.2,0.6-3.3,1.7-4.6C34.4,59.5,36.8,56.2,38.1,52.3z"/>
	<path class="st5" d="M25.9,63.8c3.5-1,6.2-5,8.7-8.7c1.2-1,2.4-1.9,3.5-2.9c1.1,4.7-2.8,7.1-4.8,10.3c-1,1.6-1.1,1.2-2.3,3.7
		c-4,2.1-6.7,4.6-10,4.5c0.7-2.4,2.2-3.5,2.2-5.3"/>
	<path class="st2" d="M17.7,64.3c0.9,1.4,3,1.3,4.3,1.6c-2.6,1.4-5,1.6-7.4,2.5C15,66.2,16.6,65.5,17.7,64.3z"/>
	<path class="st6" d="M30.5,37c-3.9-1.5-2.1-1.1-4.3-2.2c-0.6-0.2-2.4-1.4-2.9-1.8c-6.9-5.6-11.1-12.8-13.3-21.3
		c-4.2-0.3-6.8-3.6-9.8-6C-0.1,6.2,0,7.4,0.1,7.5C0.6,9,0.7,9.6,1.4,11.1c4.9,11.1,10.8,19.5,23,25c2.9,1.2,4.5,1.4,6.6,1.4
		C29.9,36.7,31.9,39.3,30.5,37z"/>
</g>
<g>
</g>
<g>
</g>
<g>
</g>
<g>
</g>
<g>
</g>
<g>
</g>
<g>
</g>
<g>
</g>
<g>
</g>
<g>
</g>
<g>
</g>
<g>
</g>
<g>
</g>
<g>
</g>
<g>
</g>
</svg>
