<?xml version="1.0" encoding="utf-8"?>
<!-- Generator: Adobe Illustrator 17.1.0, SVG Export Plug-In . SVG Version: 6.00 Build 0)  -->
<!DOCTYPE svg PUBLIC "-//W3C//DTD SVG 1.1//EN" "http://www.w3.org/Graphics/SVG/1.1/DTD/svg11.dtd">
<svg version="1.1" id="Layer_1" xmlns="http://www.w3.org/2000/svg" xmlns:xlink="http://www.w3.org/1999/xlink" x="0px" y="0px"
	 viewBox="0 0 99 99" style="enable-background:new 0 0 99 99;" xml:space="preserve">
<style type="text/css">
	.st0{fill:#FFFFFF;}
	.st1{fill:#231F20;}
</style>
<g>
	<rect class="st0" width="99" height="99"/>
	<rect x="12" y="12" class="st1" width="3" height="3"/>
	<rect x="15" y="12" class="st1" width="3" height="3"/>
	<rect x="18" y="12" class="st1" width="3" height="3"/>
	<rect x="21" y="12" class="st1" width="3" height="3"/>
	<rect x="24" y="12" class="st1" width="3" height="3"/>
	<rect x="27" y="12" class="st1" width="3" height="3"/>
	<rect x="30" y="12" class="st1" width="3" height="3"/>
	<rect x="39" y="12" class="st1" width="3" height="3"/>
	<rect x="42" y="12" class="st1" width="3" height="3"/>
	<rect x="45" y="12" class="st1" width="3" height="3"/>
	<rect x="48" y="12" class="st1" width="3" height="3"/>
	<rect x="54" y="12" class="st1" width="3" height="3"/>
	<rect x="57" y="12" class="st1" width="3" height="3"/>
	<rect x="66" y="12" class="st1" width="3" height="3"/>
	<rect x="69" y="12" class="st1" width="3" height="3"/>
	<rect x="72" y="12" class="st1" width="3" height="3"/>
	<rect x="75" y="12" class="st1" width="3" height="3"/>
	<rect x="78" y="12" class="st1" width="3" height="3"/>
	<rect x="81" y="12" class="st1" width="3" height="3"/>
	<rect x="84" y="12" class="st1" width="3" height="3"/>
	<rect x="12" y="15" class="st1" width="3" height="3"/>
	<rect x="30" y="15" class="st1" width="3" height="3"/>
	<rect x="36" y="15" class="st1" width="3" height="3"/>
	<rect x="45" y="15" class="st1" width="3" height="3"/>
	<rect x="48" y="15" class="st1" width="3" height="3"/>
	<rect x="57" y="15" class="st1" width="3" height="3"/>
	<rect x="60" y="15" class="st1" width="3" height="3"/>
	<rect x="66" y="15" class="st1" width="3" height="3"/>
	<rect x="84" y="15" class="st1" width="3" height="3"/>
	<rect x="12" y="18" class="st1" width="3" height="3"/>
	<rect x="18" y="18" class="st1" width="3" height="3"/>
	<rect x="21" y="18" class="st1" width="3" height="3"/>
	<rect x="24" y="18" class="st1" width="3" height="3"/>
	<rect x="30" y="18" class="st1" width="3" height="3"/>
	<rect x="36" y="18" class="st1" width="3" height="3"/>
	<rect x="45" y="18" class="st1" width="3" height="3"/>
	<rect x="54" y="18" class="st1" width="3" height="3"/>
	<rect x="66" y="18" class="st1" width="3" height="3"/>
	<rect x="72" y="18" class="st1" width="3" height="3"/>
	<rect x="75" y="18" class="st1" width="3" height="3"/>
	<rect x="78" y="18" class="st1" width="3" height="3"/>
	<rect x="84" y="18" class="st1" width="3" height="3"/>
	<rect x="12" y="21" class="st1" width="3" height="3"/>
	<rect x="18" y="21" class="st1" width="3" height="3"/>
	<rect x="21" y="21" class="st1" width="3" height="3"/>
	<rect x="24" y="21" class="st1" width="3" height="3"/>
	<rect x="30" y="21" class="st1" width="3" height="3"/>
	<rect x="39" y="21" class="st1" width="3" height="3"/>
	<rect x="54" y="21" class="st1" width="3" height="3"/>
	<rect x="66" y="21" class="st1" width="3" height="3"/>
	<rect x="72" y="21" class="st1" width="3" height="3"/>
	<rect x="75" y="21" class="st1" width="3" height="3"/>
	<rect x="78" y="21" class="st1" width="3" height="3"/>
	<rect x="84" y="21" class="st1" width="3" height="3"/>
	<rect x="12" y="24" class="st1" width="3" height="3"/>
	<rect x="18" y="24" class="st1" width="3" height="3"/>
	<rect x="21" y="24" class="st1" width="3" height="3"/>
	<rect x="24" y="24" class="st1" width="3" height="3"/>
	<rect x="30" y="24" class="st1" width="3" height="3"/>
	<rect x="36" y="24" class="st1" width="3" height="3"/>
	<rect x="39" y="24" class="st1" width="3" height="3"/>
	<rect x="45" y="24" class="st1" width="3" height="3"/>
	<rect x="57" y="24" class="st1" width="3" height="3"/>
	<rect x="60" y="24" class="st1" width="3" height="3"/>
	<rect x="66" y="24" class="st1" width="3" height="3"/>
	<rect x="72" y="24" class="st1" width="3" height="3"/>
	<rect x="75" y="24" class="st1" width="3" height="3"/>
	<rect x="78" y="24" class="st1" width="3" height="3"/>
	<rect x="84" y="24" class="st1" width="3" height="3"/>
	<rect x="12" y="27" class="st1" width="3" height="3"/>
	<rect x="30" y="27" class="st1" width="3" height="3"/>
	<rect x="36" y="27" class="st1" width="3" height="3"/>
	<rect x="42" y="27" class="st1" width="3" height="3"/>
	<rect x="48" y="27" class="st1" width="3" height="3"/>
	<rect x="51" y="27" class="st1" width="3" height="3"/>
	<rect x="54" y="27" class="st1" width="3" height="3"/>
	<rect x="57" y="27" class="st1" width="3" height="3"/>
	<rect x="66" y="27" class="st1" width="3" height="3"/>
	<rect x="84" y="27" class="st1" width="3" height="3"/>
	<rect x="12" y="30" class="st1" width="3" height="3"/>
	<rect x="15" y="30" class="st1" width="3" height="3"/>
	<rect x="18" y="30" class="st1" width="3" height="3"/>
	<rect x="21" y="30" class="st1" width="3" height="3"/>
	<rect x="24" y="30" class="st1" width="3" height="3"/>
	<rect x="27" y="30" class="st1" width="3" height="3"/>
	<rect x="30" y="30" class="st1" width="3" height="3"/>
	<rect x="36" y="30" class="st1" width="3" height="3"/>
	<rect x="42" y="30" class="st1" width="3" height="3"/>
	<rect x="48" y="30" class="st1" width="3" height="3"/>
	<rect x="54" y="30" class="st1" width="3" height="3"/>
	<rect x="60" y="30" class="st1" width="3" height="3"/>
	<rect x="66" y="30" class="st1" width="3" height="3"/>
	<rect x="69" y="30" class="st1" width="3" height="3"/>
	<rect x="72" y="30" class="st1" width="3" height="3"/>
	<rect x="75" y="30" class="st1" width="3" height="3"/>
	<rect x="78" y="30" class="st1" width="3" height="3"/>
	<rect x="81" y="30" class="st1" width="3" height="3"/>
	<rect x="84" y="30" class="st1" width="3" height="3"/>
	<rect x="36" y="33" class="st1" width="3" height="3"/>
	<rect x="42" y="33" class="st1" width="3" height="3"/>
	<rect x="48" y="33" class="st1" width="3" height="3"/>
	<rect x="54" y="33" class="st1" width="3" height="3"/>
	<rect x="57" y="33" class="st1" width="3" height="3"/>
	<rect x="60" y="33" class="st1" width="3" height="3"/>
	<rect x="12" y="36" class="st1" width="3" height="3"/>
	<rect x="15" y="36" class="st1" width="3" height="3"/>
	<rect x="21" y="36" class="st1" width="3" height="3"/>
	<rect x="30" y="36" class="st1" width="3" height="3"/>
	<rect x="33" y="36" class="st1" width="3" height="3"/>
	<rect x="48" y="36" class="st1" width="3" height="3"/>
	<rect x="51" y="36" class="st1" width="3" height="3"/>
	<rect x="54" y="36" class="st1" width="3" height="3"/>
	<rect x="66" y="36" class="st1" width="3" height="3"/>
	<rect x="69" y="36" class="st1" width="3" height="3"/>
	<rect x="72" y="36" class="st1" width="3" height="3"/>
	<rect x="78" y="36" class="st1" width="3" height="3"/>
	<rect x="81" y="36" class="st1" width="3" height="3"/>
	<rect x="12" y="39" class="st1" width="3" height="3"/>
	<rect x="15" y="39" class="st1" width="3" height="3"/>
	<rect x="18" y="39" class="st1" width="3" height="3"/>
	<rect x="33" y="39" class="st1" width="3" height="3"/>
	<rect x="36" y="39" class="st1" width="3" height="3"/>
	<rect x="39" y="39" class="st1" width="3" height="3"/>
	<rect x="48" y="39" class="st1" width="3" height="3"/>
	<rect x="60" y="39" class="st1" width="3" height="3"/>
	<rect x="63" y="39" class="st1" width="3" height="3"/>
	<rect x="66" y="39" class="st1" width="3" height="3"/>
	<rect x="84" y="39" class="st1" width="3" height="3"/>
	<rect x="21" y="42" class="st1" width="3" height="3"/>
	<rect x="27" y="42" class="st1" width="3" height="3"/>
	<rect x="30" y="42" class="st1" width="3" height="3"/>
	<rect x="51" y="42" class="st1" width="3" height="3"/>
	<rect x="60" y="42" class="st1" width="3" height="3"/>
	<rect x="66" y="42" class="st1" width="3" height="3"/>
	<rect x="72" y="42" class="st1" width="3" height="3"/>
	<rect x="81" y="42" class="st1" width="3" height="3"/>
	<rect x="84" y="42" class="st1" width="3" height="3"/>
	<rect x="24" y="45" class="st1" width="3" height="3"/>
	<rect x="27" y="45" class="st1" width="3" height="3"/>
	<rect x="36" y="45" class="st1" width="3" height="3"/>
	<rect x="39" y="45" class="st1" width="3" height="3"/>
	<rect x="42" y="45" class="st1" width="3" height="3"/>
	<rect x="45" y="45" class="st1" width="3" height="3"/>
	<rect x="51" y="45" class="st1" width="3" height="3"/>
	<rect x="57" y="45" class="st1" width="3" height="3"/>
	<rect x="60" y="45" class="st1" width="3" height="3"/>
	<rect x="63" y="45" class="st1" width="3" height="3"/>
	<rect x="72" y="45" class="st1" width="3" height="3"/>
	<rect x="12" y="48" class="st1" width="3" height="3"/>
	<rect x="18" y="48" class="st1" width="3" height="3"/>
	<rect x="27" y="48" class="st1" width="3" height="3"/>
	<rect x="30" y="48" class="st1" width="3" height="3"/>
	<rect x="36" y="48" class="st1" width="3" height="3"/>
	<rect x="42" y="48" class="st1" width="3" height="3"/>
	<rect x="48" y="48" class="st1" width="3" height="3"/>
	<rect x="51" y="48" class="st1" width="3" height="3"/>
	<rect x="60" y="48" class="st1" width="3" height="3"/>
	<rect x="63" y="48" class="st1" width="3" height="3"/>
	<rect x="66" y="48" class="st1" width="3" height="3"/>
	<rect x="75" y="48" class="st1" width="3" height="3"/>
	<rect x="81" y="48" class="st1" width="3" height="3"/>
	<rect x="84" y="48" class="st1" width="3" height="3"/>
	<rect x="27" y="51" class="st1" width="3" height="3"/>
	<rect x="36" y="51" class="st1" width="3" height="3"/>
	<rect x="39" y="51" class="st1" width="3" height="3"/>
	<rect x="48" y="51" class="st1" width="3" height="3"/>
	<rect x="66" y="51" class="st1" width="3" height="3"/>
	<rect x="69" y="51" class="st1" width="3" height="3"/>
	<rect x="75" y="51" class="st1" width="3" height="3"/>
	<rect x="78" y="51" class="st1" width="3" height="3"/>
	<rect x="84" y="51" class="st1" width="3" height="3"/>
	<rect x="12" y="54" class="st1" width="3" height="3"/>
	<rect x="18" y="54" class="st1" width="3" height="3"/>
	<rect x="24" y="54" class="st1" width="3" height="3"/>
	<rect x="27" y="54" class="st1" width="3" height="3"/>
	<rect x="30" y="54" class="st1" width="3" height="3"/>
	<rect x="36" y="54" class="st1" width="3" height="3"/>
	<rect x="39" y="54" class="st1" width="3" height="3"/>
	<rect x="42" y="54" class="st1" width="3" height="3"/>
	<rect x="45" y="54" class="st1" width="3" height="3"/>
	<rect x="48" y="54" class="st1" width="3" height="3"/>
	<rect x="60" y="54" class="st1" width="3" height="3"/>
	<rect x="63" y="54" class="st1" width="3" height="3"/>
	<rect x="66" y="54" class="st1" width="3" height="3"/>
	<rect x="69" y="54" class="st1" width="3" height="3"/>
	<rect x="72" y="54" class="st1" width="3" height="3"/>
	<rect x="78" y="54" class="st1" width="3" height="3"/>
	<rect x="84" y="54" class="st1" width="3" height="3"/>
	<rect x="15" y="57" class="st1" width="3" height="3"/>
	<rect x="21" y="57" class="st1" width="3" height="3"/>
	<rect x="24" y="57" class="st1" width="3" height="3"/>
	<rect x="27" y="57" class="st1" width="3" height="3"/>
	<rect x="36" y="57" class="st1" width="3" height="3"/>
	<rect x="39" y="57" class="st1" width="3" height="3"/>
	<rect x="48" y="57" class="st1" width="3" height="3"/>
	<rect x="51" y="57" class="st1" width="3" height="3"/>
	<rect x="54" y="57" class="st1" width="3" height="3"/>
	<rect x="57" y="57" class="st1" width="3" height="3"/>
	<rect x="63" y="57" class="st1" width="3" height="3"/>
	<rect x="66" y="57" class="st1" width="3" height="3"/>
	<rect x="75" y="57" class="st1" width="3" height="3"/>
	<rect x="81" y="57" class="st1" width="3" height="3"/>
	<rect x="12" y="60" class="st1" width="3" height="3"/>
	<rect x="15" y="60" class="st1" width="3" height="3"/>
	<rect x="24" y="60" class="st1" width="3" height="3"/>
	<rect x="27" y="60" class="st1" width="3" height="3"/>
	<rect x="30" y="60" class="st1" width="3" height="3"/>
	<rect x="36" y="60" class="st1" width="3" height="3"/>
	<rect x="42" y="60" class="st1" width="3" height="3"/>
	<rect x="45" y="60" class="st1" width="3" height="3"/>
	<rect x="48" y="60" class="st1" width="3" height="3"/>
	<rect x="57" y="60" class="st1" width="3" height="3"/>
	<rect x="60" y="60" class="st1" width="3" height="3"/>
	<rect x="63" y="60" class="st1" width="3" height="3"/>
	<rect x="66" y="60" class="st1" width="3" height="3"/>
	<rect x="69" y="60" class="st1" width="3" height="3"/>
	<rect x="72" y="60" class="st1" width="3" height="3"/>
	<rect x="75" y="60" class="st1" width="3" height="3"/>
	<rect x="78" y="60" class="st1" width="3" height="3"/>
	<rect x="36" y="63" class="st1" width="3" height="3"/>
	<rect x="42" y="63" class="st1" width="3" height="3"/>
	<rect x="45" y="63" class="st1" width="3" height="3"/>
	<rect x="54" y="63" class="st1" width="3" height="3"/>
	<rect x="57" y="63" class="st1" width="3" height="3"/>
	<rect x="60" y="63" class="st1" width="3" height="3"/>
	<rect x="72" y="63" class="st1" width="3" height="3"/>
	<rect x="75" y="63" class="st1" width="3" height="3"/>
	<rect x="78" y="63" class="st1" width="3" height="3"/>
	<rect x="84" y="63" class="st1" width="3" height="3"/>
	<rect x="12" y="66" class="st1" width="3" height="3"/>
	<rect x="15" y="66" class="st1" width="3" height="3"/>
	<rect x="18" y="66" class="st1" width="3" height="3"/>
	<rect x="21" y="66" class="st1" width="3" height="3"/>
	<rect x="24" y="66" class="st1" width="3" height="3"/>
	<rect x="27" y="66" class="st1" width="3" height="3"/>
	<rect x="30" y="66" class="st1" width="3" height="3"/>
	<rect x="36" y="66" class="st1" width="3" height="3"/>
	<rect x="39" y="66" class="st1" width="3" height="3"/>
	<rect x="42" y="66" class="st1" width="3" height="3"/>
	<rect x="51" y="66" class="st1" width="3" height="3"/>
	<rect x="54" y="66" class="st1" width="3" height="3"/>
	<rect x="57" y="66" class="st1" width="3" height="3"/>
	<rect x="60" y="66" class="st1" width="3" height="3"/>
	<rect x="66" y="66" class="st1" width="3" height="3"/>
	<rect x="72" y="66" class="st1" width="3" height="3"/>
	<rect x="81" y="66" class="st1" width="3" height="3"/>
	<rect x="84" y="66" class="st1" width="3" height="3"/>
	<rect x="12" y="69" class="st1" width="3" height="3"/>
	<rect x="30" y="69" class="st1" width="3" height="3"/>
	<rect x="39" y="69" class="st1" width="3" height="3"/>
	<rect x="54" y="69" class="st1" width="3" height="3"/>
	<rect x="60" y="69" class="st1" width="3" height="3"/>
	<rect x="72" y="69" class="st1" width="3" height="3"/>
	<rect x="75" y="69" class="st1" width="3" height="3"/>
	<rect x="78" y="69" class="st1" width="3" height="3"/>
	<rect x="81" y="69" class="st1" width="3" height="3"/>
	<rect x="84" y="69" class="st1" width="3" height="3"/>
	<rect x="12" y="72" class="st1" width="3" height="3"/>
	<rect x="18" y="72" class="st1" width="3" height="3"/>
	<rect x="21" y="72" class="st1" width="3" height="3"/>
	<rect x="24" y="72" class="st1" width="3" height="3"/>
	<rect x="30" y="72" class="st1" width="3" height="3"/>
	<rect x="39" y="72" class="st1" width="3" height="3"/>
	<rect x="45" y="72" class="st1" width="3" height="3"/>
	<rect x="51" y="72" class="st1" width="3" height="3"/>
	<rect x="54" y="72" class="st1" width="3" height="3"/>
	<rect x="60" y="72" class="st1" width="3" height="3"/>
	<rect x="63" y="72" class="st1" width="3" height="3"/>
	<rect x="66" y="72" class="st1" width="3" height="3"/>
	<rect x="69" y="72" class="st1" width="3" height="3"/>
	<rect x="72" y="72" class="st1" width="3" height="3"/>
	<rect x="12" y="75" class="st1" width="3" height="3"/>
	<rect x="18" y="75" class="st1" width="3" height="3"/>
	<rect x="21" y="75" class="st1" width="3" height="3"/>
	<rect x="24" y="75" class="st1" width="3" height="3"/>
	<rect x="30" y="75" class="st1" width="3" height="3"/>
	<rect x="36" y="75" class="st1" width="3" height="3"/>
	<rect x="39" y="75" class="st1" width="3" height="3"/>
	<rect x="42" y="75" class="st1" width="3" height="3"/>
	<rect x="48" y="75" class="st1" width="3" height="3"/>
	<rect x="51" y="75" class="st1" width="3" height="3"/>
	<rect x="57" y="75" class="st1" width="3" height="3"/>
	<rect x="72" y="75" class="st1" width="3" height="3"/>
	<rect x="78" y="75" class="st1" width="3" height="3"/>
	<rect x="12" y="78" class="st1" width="3" height="3"/>
	<rect x="18" y="78" class="st1" width="3" height="3"/>
	<rect x="21" y="78" class="st1" width="3" height="3"/>
	<rect x="24" y="78" class="st1" width="3" height="3"/>
	<rect x="30" y="78" class="st1" width="3" height="3"/>
	<rect x="42" y="78" class="st1" width="3" height="3"/>
	<rect x="48" y="78" class="st1" width="3" height="3"/>
	<rect x="51" y="78" class="st1" width="3" height="3"/>
	<rect x="57" y="78" class="st1" width="3" height="3"/>
	<rect x="72" y="78" class="st1" width="3" height="3"/>
	<rect x="75" y="78" class="st1" width="3" height="3"/>
	<rect x="78" y="78" class="st1" width="3" height="3"/>
	<rect x="84" y="78" class="st1" width="3" height="3"/>
	<rect x="12" y="81" class="st1" width="3" height="3"/>
	<rect x="30" y="81" class="st1" width="3" height="3"/>
	<rect x="36" y="81" class="st1" width="3" height="3"/>
	<rect x="39" y="81" class="st1" width="3" height="3"/>
	<rect x="42" y="81" class="st1" width="3" height="3"/>
	<rect x="45" y="81" class="st1" width="3" height="3"/>
	<rect x="51" y="81" class="st1" width="3" height="3"/>
	<rect x="60" y="81" class="st1" width="3" height="3"/>
	<rect x="63" y="81" class="st1" width="3" height="3"/>
	<rect x="75" y="81" class="st1" width="3" height="3"/>
	<rect x="12" y="84" class="st1" width="3" height="3"/>
	<rect x="15" y="84" class="st1" width="3" height="3"/>
	<rect x="18" y="84" class="st1" width="3" height="3"/>
	<rect x="21" y="84" class="st1" width="3" height="3"/>
	<rect x="24" y="84" class="st1" width="3" height="3"/>
	<rect x="27" y="84" class="st1" width="3" height="3"/>
	<rect x="30" y="84" class="st1" width="3" height="3"/>
	<rect x="36" y="84" class="st1" width="3" height="3"/>
	<rect x="42" y="84" class="st1" width="3" height="3"/>
	<rect x="51" y="84" class="st1" width="3" height="3"/>
	<rect x="57" y="84" class="st1" width="3" height="3"/>
	<rect x="60" y="84" class="st1" width="3" height="3"/>
	<rect x="63" y="84" class="st1" width="3" height="3"/>
	<rect x="66" y="84" class="st1" width="3" height="3"/>
	<rect x="69" y="84" class="st1" width="3" height="3"/>
	<rect x="81" y="84" class="st1" width="3" height="3"/>
	<rect x="84" y="84" class="st1" width="3" height="3"/>
</g>
<g>
</g>
<g>
</g>
<g>
</g>
<g>
</g>
<g>
</g>
<g>
</g>
<g>
</g>
<g>
</g>
<g>
</g>
<g>
</g>
<g>
</g>
<g>
</g>
<g>
</g>
<g>
</g>
<g>
</g>
</svg>
