<?xml version="1.0" encoding="utf-8"?>
<!-- Generator: Adobe Illustrator 17.1.0, SVG Export Plug-In . SVG Version: 6.00 Build 0)  -->
<!DOCTYPE svg PUBLIC "-//W3C//DTD SVG 1.1//EN" "http://www.w3.org/Graphics/SVG/1.1/DTD/svg11.dtd">
<svg version="1.1" id="Layer_1" xmlns="http://www.w3.org/2000/svg" xmlns:xlink="http://www.w3.org/1999/xlink" x="0px" y="0px"
	 viewBox="-220.7 -155.4 250 186.6" style="enable-background:new -220.7 -155.4 250 186.6;" xml:space="preserve">
<style type="text/css">
	.st0{fill:#A60604;}
</style>
<g id="Layer_2">
</g>
<g>
	<g>
		<path class="st0" d="M28.7-155.4c0.2,4.2,0.5,8,0.7,11.8c-4.3,1.4-8.5,2.9-13,4.4c3.7,1.9,6.9,3.7,10.1,5.5
			c0.8,0.4,1.6,1.3,1.6,2.1c0.2,3.3,0.1,6.5,0.1,10.2c-10.5,0.4-21,0.9-31.6,1.3c0-3.5,0-6.7,0-10.4c5.9,0,11.6,0,17.4,0
			c0-0.3,0.1-0.6,0.1-0.8c-6-2.7-11.9-5.3-18.3-8.1c6.5-2.8,12.7-5.5,18.8-8.1c0-0.1-0.1-0.3-0.1-0.4c-6.2,0-12.6,0-19.1,0
			c0-2.4,0-4.9,0-7.4C6.3-155.4,17.3-155.4,28.7-155.4z"/>
		<path class="st0" d="M-7.7-55.9c-2.3,0-3.9,0-5.9,0c-0.2-4.3-0.3-8.5-0.6-12.6c-0.4-4.3-1.1-4.8-5.7-4.5c3.7,6,2.7,12.2,1.1,18.4
			c-0.9,3.1-3.5,4.9-6.5,4.9c-5.1,0-10.3-0.6-15.4-1c0-3.4,0-6.1,0-9c3.2,0.5,6.2,1.1,9.1,1.3c2.1,0.2,5.2,1,5.8-1.6
			c0.7-2.7,0-5.8-0.4-8.7c-0.1-0.5-1.8-1.1-2.8-1.2c-4-0.1-8.2-0.1-12.6-0.1c0.2-3,0.4-5.5,0.7-8.7c9.6,0,19.1-0.2,28.6,0.1
			c3.7,0.1,5.4,2.1,5.3,5.9C-6.9-67.1-7.4-61.5-7.7-55.9z"/>
		<path class="st0" d="M12.2-63.3c-7.9,2.4-7.9,2.4-8.3,8.8c-1.8,0-3.7,0-5.9,0c-0.2-3.4-2.2-7.4,0.5-10.1c2.3-2.3,6.2-3.2,9.3-4.7
			c-1.1-5.5-5.8-3.2-9.5-3.9c-0.2-2.6-0.4-5.2-0.6-7.7c10.2,0,20.1,0,30.4,0c-0.1,2.2,0,3.9-0.4,5.7c-0.2,0.7-1.4,1.4-2.3,1.4
			c-4.2,0.1-8.5,0.1-13.5,0.1c2,3.1,3.4,6,5.5,8c3.7,3.6,3.2,7.8,2.4,12.8C17.2-56.5,14.7-59.8,12.2-63.3z"/>
		<path class="st0" d="M1.8,6.8c3.3,0,5.7,0,8.4,0c-0.2,3.5-0.5,6.6-0.6,9.9c-0.1,1.7-0.2,3.5,0.1,5.1c0.2,1,1.1,1.8,1.6,2.7
			c0.5-1,1.2-1.8,1.3-2.8c0.5-3.9,0.7-8,1.1-11.9c0.3-2.7,2.1-3.7,4.6-3.6c5.3,0.1,7.2,1.4,7.6,6.6c0.4,5.7,0.1,11.4,0.1,17.6
			c-1.6-0.1-3.2-0.2-4.9-0.3c-0.3-4.9-0.5-9.8-0.8-14.6c-0.1-1-0.7-1.8-1.1-2.8c-0.5,0.1-0.9,0.2-1.3,0.2c-0.2,2.3-0.3,4.6-0.5,6.9
			c0,0.7,0,1.4,0,2.1c-0.2,6.7-2,8.4-8.7,8.1c-4.8-0.2-6.6-1.5-6.9-6.3C1.5,18.2,1.8,12.5,1.8,6.8z"/>
		<path class="st0" d="M23.9-20.9c-0.5,3.4-0.9,6.2-1.2,9.3c-1.1,0.1-1.9,0.2-2.6,0.2c1,2.8,2.3,5.4,2.7,8.1
			c0.8,5.9-0.7,7.4-6.5,7.6c-0.7,0-1.3,0-2.4,0c-0.1-1.3-0.1-2.6-0.2-3.8c-0.1-1.2-0.1-2.4-0.2-3.7c2-0.1,3.4-0.9,2.7-3.1
			c-0.7-2,0.1-5.1-3.6-5.1c-4.3,0-8.7,0-13.3,0c-0.2-2.7-0.4-4.8-0.7-7.4C7.1-19.5,15.1-20.1,23.9-20.9z"/>
		<path class="st0" d="M-13.9-10.4c0.2,2.1,0.3,4,0.5,6.5c-10.1,0-20,0-30.4,0c-0.2-2.3-0.6-5.2-0.9-8.6
			C-34.4-11.6-24.3-11.1-13.9-10.4z"/>
		<path class="st0" d="M-201.4,27.5c-4.8,0.5-4.8,0.5-7.3-6.2c-2.6,3.2-3.7,8.5-10,6.2c-0.6-4.1-1.2-8.7-2-13.5c1.7,0,3.2,0,5,0
			c0.5,2,1.1,4.3,1.8,7.2c1.1-2,1.6-3.7,2.5-4.9c0.5-0.7,1.4-1.2,2.3-1.3c0.6,0,1.4,0.8,1.8,1.4c0.8,1.5,1.3,3.2,2.4,5.7
			c0.8-2.6,1.4-4.3,1.7-6.2c0.4-2.5,1.6-3.2,4.2-2.2C-199.5,18.4-200.5,22.9-201.4,27.5z"/>
		<path class="st0" d="M-85.2,30.6c-1.2-0.1-2.2-0.3-3.5-0.4c-0.3-6-0.7-11.8-1-17.9c1.8-0.1,3.5-0.2,5.3-0.3c0,2,0,3.9,0,5.5
			c3.2,0.2,6.1,0.1,8.8,0.5c2.3,0.3,3.5,1.7,3.2,4.2c-0.2,1.6-0.4,3.4-0.7,5c-0.6,4.2-0.6,4.2-5.5,3.7c0-2.3,0.2-4.7-0.1-7
			c-0.1-0.9-1.2-2.5-1.6-2.4c-1.5,0.2-3.8-0.4-4.2,2.2C-84.7,25.9-84.9,28.1-85.2,30.6z"/>
		<path class="st0" d="M-89.7,27.1c0,0.8-0.1,1.9-0.2,3.4c-2.4,0-4.8,0.2-7.1-0.1c-2.9-0.4-3.3-2.8-3.7-5.1c-0.3-2,0.9-4.3-1.4-6
			c-0.5-0.4-0.1-2.1,0.2-3.2c0.4-1.2,1.2-2.4,1.9-3.8c1.2,0,3,0,3.9,0c1.2,1.7,2.2,2.9,2.7,4.2c0.3,0.9,0.2,2.6-0.3,2.9
			c-2.9,1.5-1.7,4.1-1.2,6C-94.4,26.3-91.8,26.4-89.7,27.1z"/>
		<path class="st0" d="M-147.8,14.3c2.4,0.8,4.4,1.3,7.1,2.1c5.5-2.7,7.9-1.8,7.9,3.9c-1.8,0.3-3.5,1.3-5.2-0.8
			c-1.1-1.2-4,0.3-4.1,2.1c-0.2,2.5,0,4.9,0,7.7c-1.6,0.1-2.9,0.1-4.3,0.2C-146.9,24.5-147.4,19.7-147.8,14.3z"/>
		<path class="st0" d="M-16.9,10.8C-17.7,2.9-21.1,0.2-29,0.9c-0.9,0.1-1.7,0.3-2.7,0.4c-5,0.8-7.4,3.4-7.4,8.5
			c0,3.1,0.1,6.2,0.5,9.2c0.2,1.8,0.4,3.4-2,3.7c0.2,2.8,0.5,5.3,0.7,7.7c10.3,0,20.4,0,30.5,0c0-2.5,0-4.8,0-7.6
			c-3.4,0-6.5,0-10.1,0C-16.2,18-16.1,17.7-16.9,10.8z M-22.8,19.1c-0.5,3.6-2.2,4.7-5.7,3.8c-0.4-0.1-1.1-0.5-1.1-0.8
			c-0.6-3.2-1.5-6.3-1.4-9.5c0.1-2.5,2.1-3.8,4.9-3.5c3.2,0.5,3.7,1.2,3.7,6C-22.6,16.1-22.7,17.6-22.8,19.1z"/>
		<path class="st0" d="M24.1-92.8c1.3-7.5,0.9-15-0.4-22.6c-2.2-0.1-4.1-0.2-6.2-0.4c0,1.6,0,3.2,0,4.6c0,4.6,0,9.1-0.2,13.7
			c0,0.8-1.1,1.4-1.6,2.2c-0.5-0.8-1.3-1.5-1.4-2.3c-0.4-4.1-0.4-8.4-0.9-12.5c-0.6-4.5-6.2-6.9-10.1-4.4c-1,0.6-2,2-2,3.1
			C1.1-103,1.3-94.7,1.4-86c4.8,0.3,8.9,0.6,13.1,0.7C19.8-85.3,23.2-87.6,24.1-92.8z M11.3-95c-1.9,0-3.5,0-5.4,0
			c-0.2-3.3-0.4-6.4-0.6-9.6c-0.1-2.6,1.6-2.8,3.6-3c2.2-0.2,2.4,1.2,2.4,2.9C11.3-101.5,11.3-98.3,11.3-95z"/>
		<path class="st0" d="M-39.1-15.6c2.2,0,4.2,0,6.2,0c0-5.9,0-11.5,0-17.2c0-1.9,0.4-3.7,3.2-2.7c0.3,4.8,0.5,9.3,0.9,13.9
			c0.4,4.8,1.2,5.6,6.2,5.7c0.7,0,1.4,0,2.1,0c2.3-0.2,3.9-1.4,3.9-3.7c0-8.4-0.1-16.6-0.2-25.3c-4.8-0.3-8.9-0.5-13-0.7
			c-5.4-0.3-9.1,2.4-9.7,7.8c-0.6,5.4-0.5,11-0.5,16.4C-40-19.4-39.5-17.5-39.1-15.6z M-26.6-36.1c1.8,0,3.4,0,5.4,0
			c0.2,3.4,0.5,6.5,0.6,9.8c0.1,2.5-1.7,2.7-3.7,2.8c-2,0.2-2.3-1.2-2.3-2.7C-26.7-29.4-26.6-32.7-26.6-36.1z"/>
		<path class="st0" d="M23.5-45.9c-1.2-3.7-3.6-6-7.2-6.2c-3.4-0.3-7-0.2-10.3,0.6c-1.7,0.4-4.1,2.5-4.2,3.9
			c-0.5,6.9-0.2,13.8-0.2,21c2-0.1,3.9-0.2,6-0.3c0-2.1,0-3.9,0-5.9c0-3-0.2-6,0.1-8.9c0.2-2,1.3-3.5,3.9-2.8
			c0.3,7.1,0.6,14.1,1,21.4c1.6-0.1,3-0.3,4.3-0.3c4.3,0,6.1-2.6,7.1-6.3C25.5-35.2,25.1-40.5,23.5-45.9z M20.6-33
			c-0.4,2.6-2,3.9-5,4c0-4.6,0-9.1,0-13.6c3.7-0.5,5.1,0.5,5.3,3.9C20.9-36.7,20.9-34.8,20.6-33z"/>
		<path class="st0" d="M-154.8,14.4c-4.2-0.4-8.5-0.1-12.9-0.1c-0.1,1.4-0.2,2.5-0.3,3.9c2.5,0,4.7-0.1,6.8,0
			c1.9,0.1,4.2-0.7,5.8,1.9c-3.6,0.3-6.6,0.6-9.7,0.8c-2.6,0.2-2.6,2-2.6,3.9c0,2,0.9,3.3,3,3.3c4.7,0,9.4,0,14,0
			c0.3-1.2,0.4-1.4,0.4-1.7c0.2-2,0.3-3.9,0.4-6C-149.7,16.9-151.2,14.8-154.8,14.4z M-155.7,24.9c-5.8,1.6-7.3,1.2-7.1-2.6
			c2.3,0,4.6,0,7.1,0C-155.7,23.2-155.7,24-155.7,24.9z"/>
		<path class="st0" d="M-186.5,14c-1.7-0.1-3.6,0.1-5.3,0.4c-5.3,1.1-7.7,8.1-4.2,12.2c0.6,0.7,1.6,1.3,2.5,1.3
			c3.7,0.2,7.5,0.1,11.6,0.1c-0.1-1.5-0.2-2.7-0.3-3.9c-2.2,0.1-4.1,0.4-6,0.3c-1.8,0-4,0.6-4.5-2.5c4.5-0.2,8.7-0.4,12.9-0.7
			C-180.3,15.6-181.4,14.4-186.5,14z M-191.4,19.9c-0.5-2.3,0.4-3.3,2.2-3.5c3.1-0.5,4.6,0.3,5.9,3.1
			C-186.1,19.6-188.7,19.7-191.4,19.9z"/>
		<path class="st0" d="M-120.8,14c-1.7-0.1-3.6,0.1-5.3,0.4c-5.3,1.1-7.7,8.1-4.3,12.2c0.5,0.6,1.2,1.2,1.9,1.2
			c4,0.1,8.1,0.1,12.2,0.1c-0.1-1.4-0.2-2.6-0.3-3.8c-2.2,0.1-4.1,0.4-6,0.3c-1.8,0-4,0.6-4.6-2.9c4.5,0,8.7,0,13,0
			C-114.5,15.6-115.6,14.4-120.8,14z M-125.5,19.9c-0.7-2,0.1-3.1,1.8-3.5c3.1-0.7,4.9,0.2,6.1,3.1
			C-120.3,19.6-122.9,19.7-125.5,19.9z"/>
		<path class="st0" d="M-59.8,14c-1.7-0.1-3.6,0.1-5.3,0.4c-5.3,1.1-7.7,8.1-4.2,12.2c0.5,0.6,1.2,1.2,1.9,1.2
			c4,0.1,8.1,0.1,12.2,0.1c-0.1-1.3-0.2-2.4-0.2-3.7c-9.9-0.3-9.9-0.3-10.3-2.4c4.2-0.2,8.4-0.4,12.6-0.6
			C-53.5,15.6-54.6,14.4-59.8,14z M-64.5,19.9c-0.6-2.2,0.2-3.4,2-3.5c2.3-0.1,4.8-0.6,6.1,3.1C-59.2,19.6-61.8,19.7-64.5,19.9z"/>
	</g>
</g>
</svg>
