<?xml version="1.0" encoding="iso-8859-1"?>
<!-- Generator: Adobe Illustrator 17.0.0, SVG Export Plug-In . SVG Version: 6.00 Build 0)  -->
<!DOCTYPE svg PUBLIC "-//W3C//DTD SVG 1.1//EN" "http://www.w3.org/Graphics/SVG/1.1/DTD/svg11.dtd">
<svg version="1.1" xmlns="http://www.w3.org/2000/svg" xmlns:xlink="http://www.w3.org/1999/xlink" x="0px" y="0px"
	 width="117.302px" height="120.767px" viewBox="0 0 117.302 120.767" style="enable-background:new 0 0 117.302 120.767;"
	 xml:space="preserve">
<style type="text/css">
	.st0{fill:#A60604;}
	.st1{fill:#FFFFFF;}
</style>
<g id="Layer_1">
	<g>
		<path d="M111.656,105.052c-1.432-0.492-2.375,0.668-3.565,0.918c-1.635,0.343-0.913,1.52-0.956,2.329
			c-0.105,1.989-0.074,3.988-0.023,5.981c0.047,1.831-0.841,2.644-2.948,2.778c0-4.027,0-7.933,0-11.742
			c-0.643-0.157-0.947-0.303-1.246-0.293c-3.332,0.112-3.766,0.504-3.812,3.531c-0.032,2.16-0.076,4.324,0.01,6.481
			c0.139,3.507,1.6,4.932,4.948,4.974c1.287,0.016,2.575,0.003,3.525,0.003c2.594-3.602,0.805-7.557,1.847-11.17
			c1.891,0.478,2.757,1.321,2.69,3.128c-0.098,2.617-0.025,5.24-0.025,7.946c1.089,0,1.872,0,3,0c0-3.492,0.056-6.94-0.023-10.384
			C115.037,107.751,113.214,105.587,111.656,105.052z"/>
		<path d="M103.11,49.031c-2.014,0.094-3.964-0.213-5.88-1.113c0,1.951,0,3.402,0,5.114c2.675-0.092,5.451-0.46,6.775,2.575
			c-0.457,0.457-1.043,1.149-1.384,1.316c-1.204,0.588-1.659,0.874-2.579,1.15c-3.138,0.941-2.968,0.466-2.948,3.891
			c0.011,1.811-0.207,3.714,2.443,4.087c1.252-0.912,0.443-2.562,1.431-3.846c2.011-2.612,5.414-3.087,7.086-0.212
			c0.725,1.247,1.7,2.02,2.81,3.355c0.22-4.374-0.059-4.2-1.913-7.176c-0.948-1.522-2.763-2.66-2.936-5.105c3.401,0,6.647,0,9.983,0
			c0-1.468,0-2.586,0-4.057c-2.563,0-4.728,0-6.893,0C107.107,49.011,105.104,48.939,103.11,49.031z"/>
		<g>
			<path d="M116.971,18.874c-0.255-1.962,0.14-2.962-0.87-4.47c-1.372-0.223-5.666-4.16-7.535-4.365
				c0.313-0.313-0.717-0.738-1.068-0.652c-3.022-0.542-4.14,0.405-6.402,0.652c-1.527,0.204-2.598,1.783-3.268,1.656
				c-0.02-0.002-0.044-0.003-0.064-0.005c3.064,1.099,10.226,2.426,10.864,2.941c0.891,0.72-0.642,1.828-1.526,2.381
				c-3.697,0.903-7.199-1.799-10.868-0.792c0,1.992,0,3.776,0,5.792c6.096,0,12.062-0.012,18.029,0.013
				c0.862,0.004,1.484-0.236,2.191-0.793C117.893,20.097,117.093,19.813,116.971,18.874z"/>
			<path d="M101.096,11.594c1.609-0.215,3.726-0.635,6.402-1.291c0.263-0.085,0.508-0.17,0.713-0.253
				c0.105-0.024,0.225-0.026,0.355-0.012c0.001,0,0.002,0,0.002-0.001c3.072-0.783,8.452-2.725,8.531-5.34
				c0.015-0.495,0.017-0.992,0-1.487c-0.088-2.448-0.723-3.163-3.128-3.186c-4.956-0.047-9.913-0.014-14.869-0.014
				c-1.333,0-2.667,0-4,0c0,1.27,0,2.54,0,4c4.535,0,8.767,0,13,0c-8.356,3.646-13.235,7.122-10.273,7.683
				C98.685,11.781,99.844,11.731,101.096,11.594z"/>
		</g>
		<path d="M107.381,99.404c-0.812,0.628-0.491,2.406,0.148,3.607c0.714,0,1.374,0.022,2.033-0.004
			c3.097-0.121,3.483-0.716,3.593-3.787c0.08-2.247-1.824-3.596-2.073-5.623c0.873-0.71,2.696-0.587,2.049-2.57
			c-0.291-0.891,0.254-1.944-0.376-2.895c-4.839-0.864-9.46,1.773-15.111,0.635c0.782,1.848,0.029,3.049,0.915,4.244
			c2.989,0,6.094,0,9.107,0C108.988,95.311,110.103,97.301,107.381,99.404z"/>
		<path d="M92.596,73.993c-3.324,0.055-6.65-0.041-9.973,0.043c-1.641,0.042-2.703,0.822-2.452,2.975c0.965,0,1.763,0,2.562,0
			c0.831,0,1.664-0.036,2.493,0.007c2.252,0.116,3.08,1.135,2.875,3.482c-0.16,1.842-1.252,2.286-3.336,2.624
			c-1.458,0.237-1.998-2.165-3.468-0.81c0.131,3.268,0.394,3.494,2.887,3.726c2.18,0.203,4.076-0.381,5.859-1.48
			c0.239-2.861,1.121-5.238,0.381-9.158c3.179,2.174,2.542,5.073,2.74,7.702c0.809-0.167,1.629-0.233,1.638-0.354
			c0.157-2.288,0.39-4.595,0.226-6.871C94.948,74.794,93.992,73.97,92.596,73.993z"/>
		<path d="M86.29,88.747c-1.775-0.668-3.278,0.098-4.205,1.608c-1.868,3.044-0.964,6.272-0.618,9.419
			c0.07,0.638,1.059,1.742,2.634,0.885c0-2.424-2.125-6.211,1.418-8.334c6.688-0.5,6.875,10.411,0,0
			c0,0.829-0.764,6.873,0.582,7.164c0.309,0.463,0.788,0.791,1.265,0.897c0.836,0.186,0.436,0.81,2.94-0.107
			c0.905-0.331,1.496-1.262,2.125-2.286c1.896-3.089-1.081-6.294-0.268-8.832C90.268,88.782,87.752,89.297,86.29,88.747z"/>
		<path d="M92.716,105.591c1.082-1.082,0.887-4.457-1.49-2.08c-0.269,0.269-2.761,0.923-3.172,0.875
			c-3.641-0.429-3.3,0.546-7.92-1.062c-1.783,1.062-0.934,1.611-0.934,2.767C83.574,105.787,87.863,106.413,92.716,105.591z"/>
		<path d="M7.101,116.011c-0.616,0.113-0.983-0.272-0.974-0.765c0.021-1.158-0.987-1.697-1.469-1.165
			c-2.095,2.308-2.395,0.151-3.183-1.049c-0.089-0.135-0.609,0.013-1.023,0.035c-0.699,1.342-0.41,2.839-0.294,4.228
			c0.121,1.451,1.94,1.907,3.206,0.944c0.258-0.196,0.447-0.483,0.702-0.685c1.266-1,1.779-0.872,2.155,0.901
			c0.187,0.883,1.534,1.081,1.88-0.443C8.447,117.253,9.688,115.56,7.101,116.011z"/>
		<path d="M8.887,113.109c-0.792,0.422-1.388,0.888-1.748,1.495c-0.209,0.353-0.038,0.931-0.038,1.408c1.86-0.097,1.611,0.861,1,2
			C10.195,116.636,8.582,114.776,8.887,113.109z"/>
		<path d="M106.101,27.516c-2.229-1.571-4.49-2.018-7-0.045c0,4.651-0.035,9.451,0.014,14.249c0.028,2.732,0.625,3.236,3.562,3.286
			c1.663,0.028,3.328,0.05,4.99-0.009c1.416-0.05,2.883,0.392,4.075-1.055c1.245-1.512,2.372-2.964,2.363-5.027
			c-0.015-3.327,0.043-6.655-0.02-9.98c-0.044-2.326-0.684-2.718-3.984-2.603c0,2.127,0.012,4.265-0.004,6.404
			c-0.016,2.1-0.06,4.2-0.091,6.276c-1.242,0-4.9,0.469-4.891,0c-0.005,0-1.594,1.042-2.356,0.129c-0.964-1.155-0.964-6.104,0-7.258
			c0.761-0.912,1.664-1.706,2.342,0.129c0.108-0.006-0.083,7.011,0.014,7c0.486,1.125,1.466,0.426,1.487,0.321
			C106.602,38.5,107.101,28.348,106.101,27.516z"/>
		<path d="M106.923,39.011"/>
		<path d="M107.513,85.011c0.592,0,1.237,0.017,1.881-0.003c2.731-0.084,2.406-0.248,3.81-3.091
			c1.108-2.242,0.956-4.414,0.849-6.603c-0.383-7.872-5.609-9.707-11.971-7.718c-1.786,0.558-2.993,1.997-2.986,4.108
			c0.013,3.76,0.004,7.519,0.004,11.273c1.572-0.034,2.718,0.31,4.066-0.38c-0.505-1.559,0.464-3.214-0.803-4.996
			c-0.881-1.24-0.277-2.97,0.669-4.467c0.711-1.125,1.074-2.288,3.04-2.001C106.303,75.595,105.422,80.189,107.513,85.011z
			 M108.074,79.009c0.115-1.825,0.028-3.663,0.028-5.88c1.323,0.088,2.165-0.697,3.113,0.895c1.914,3.214,0.273,5.365-1.242,8.035
			C108.578,81.286,107.983,80.457,108.074,79.009z"/>
		<path d="M93.826,118.214c-1.209-0.656-2.693,1.169-3.906-0.202c1.91-2.564,1.414-5.224-0.242-8.25
			c-1.573-0.743-3.071-0.785-4.567-0.742c-2.156,0.063-2.925,0.775-2.998,2.851c-0.079,2.235,1.613,6.328-0.948,6.605
			c-0.629,0.068-0.356,1.608,0.174,2.292c4.298,0,8.529,0,12.998,0C95.342,119.763,94.509,118.868,93.826,118.214z M86.692,117.127
			c-2.76-1.497-1.875-0.613-1.091-5.115C89.655,112.577,88.974,112.311,86.692,117.127z"/>
		<path d="M73.709,113.263c-1.155-0.445-2.617-0.417-3.869-0.177c-0.85,0.163-1.687,0.919-1.744,2.068
			c-0.048,0.955-1.085,1.141-1.369,0.811c-1.35-1.569-3.075-0.726-4.619-0.964c-0.295-0.045-0.57-0.221-0.854-0.337
			c-0.65-0.782,0.887-3.55-1.875-2.39c-1.093,1.864,1.073,4.539-1.744,5.915c-5.158-1.507,4.03-2.629-3.723-6.417
			c1.596,1.915-2.918,4.608-0.374,4.184c2.377-0.396,0.362,3.59,3.054,4.313c1.557,0.418,2.44-0.579,3.747-0.358
			c1.17,0.198,0.556-1.21,0.776-1.898c0.421-1.315,1.066-2.37,2.854-1.814c0.082,1.182,0.127,2.304,0.273,3.412
			c0.022,0.166,0.514,0.36,0.798,0.375c0.284,0.015,0.687-0.091,0.849-0.295c0.617-0.773-0.001-2.546,1.11-3.009
			c1.871-0.779,1.55,0.963,2.28,1.693c1.324,1.324,2.712,0.637,4.488,0.637c0.628-1.252-3.977-0.688-1.039-1.625
			C76.624,116.142,74.463,113.554,73.709,113.263z M71.872,116.994c-0.501-0.057-0.797-0.352-0.791-0.97
			c0.008-0.923,0.568-1.07,1.25-0.994c0.499,0.056,0.89,0.348,0.774,0.932C73.163,116.911,72.559,117.072,71.872,116.994z"/>
		<path d="M34.351,116.072c-2.271,0-0.065-1.297-0.185-1.932c-0.022-0.043-0.043-0.086-0.065-0.129
			c-0.68-0.127-1.946,1.846-2.755,2.631c0.856,0.373,2.005,2.171,3.211,3.376c0.303-0.286,0.526-0.397,0.528-0.514
			c0.026-1.164,0.016-2.328,0.016-3.493c-0.057-0.114-0.114-0.227-0.17-0.341C34.689,115.907,35.042,116.201,34.351,116.072z"/>
		<path d="M30.656,116.761c0.103,0.318,0.356,0.206,0.69-0.119C31.087,116.529,30.855,116.553,30.656,116.761z"/>
		<path d="M23.674,113.436c3.045,1.704-1.147,3.911,0.931,5.576c5.872-1.17,5.254,1.007,5.494-0.626
			c0.129-0.879,0.321-1.378,0.558-1.625c-0.032-0.099-0.055-0.226-0.055-0.419C30.601,112.966,26.558,113.272,23.674,113.436z
			 M27.686,117.841c-0.156-0.097-0.542-0.219-0.552-0.366c-0.031-0.444-0.252-1.019,0.322-1.277
			c0.136-0.061,0.614,0.225,0.613,0.348C28.063,116.988,28.374,117.548,27.686,117.841z"/>
		<path d="M45.701,112.987c-2.036,0.183-4.316-0.577-5.734,1.669c-0.274,0.433-0.376,0.363-0.721,0.033
			c-1.528-1.463-3.441-0.323-5.144-0.678c0.037,0.039,0.056,0.082,0.065,0.129c0.255,0.51,0.51,1.02,0.765,1.53
			c0.04-0.039,0.092-0.077,0.172-0.111c4.123,2.451,4.463-4.077,5.861,2.713c0.145,0.706,1.695,1.031,2.887,0.826
			c1.403-0.241,1.877,0.281,3.329-0.531c1.296-1.886-3.927-0.6-2.767-1.477c0.682-0.515,4.241-1.232,3.58-2.587
			C47.631,113.763,46.95,112.875,45.701,112.987z M44.745,115.867c-0.21-0.116-1.614,0.321-1.832,0.201
			c0.111-0.111,0.98-1.701,1.062-1.682c0.235,0.052,0.903,1.014,1.125,1.125C44.99,115.622,44.879,115.733,44.745,115.867z"/>
		<path d="M16.73,113.221c-2.057-0.979-5.269,0.157-6.41,2.072c-0.802,1.345,0.214,3.469,1.816,3.703
			c0.648,0.094,1.321,0.016,1.983,0.016c0.496,0,0.994-0.022,1.489,0.004c1.537,0.083-0.642-0.275-1.757-1.444
			c-0.417-0.437,0.404-0.886,1.188-1.089c0.619-0.161,3.03-0.427,3.07-1.392C18.15,114.082,17.341,113.512,16.73,113.221z
			 M14.601,116.011c-0.111-0.222-1.77-1.129-0.77-1.129c0.084,0,0.659-0.51,0.77-0.621c0.12,0.217,0.12,0.967,0.356,1.394
			C14.823,115.789,14.712,115.9,14.601,116.011z"/>
	</g>
</g>
<g id="Layer_2">
</g>
<g id="Layer_3">
</g>
</svg>
